<svg width="512" height="512" viewBox="0 0 512 512" fill="none" xmlns="http://www.w3.org/2000/svg">
<path d="M203.179 90.7969C189.358 104.432 179.945 121.806 176.13 140.722C172.314 159.638 174.268 179.246 181.745 197.066C189.221 214.885 201.884 230.116 218.132 240.832C234.38 251.548 253.483 257.268 273.024 257.268C292.566 257.268 311.669 251.548 327.916 240.832C344.164 230.116 356.827 214.885 364.303 197.066C371.78 179.246 373.734 159.638 369.919 140.722C366.104 121.806 356.69 104.432 342.87 90.7969C324.322 72.5579 299.207 62.3169 273.024 62.3169C246.842 62.3169 221.726 72.5579 203.179 90.7969ZM331.775 217.718C320.155 229.186 305.351 236.996 289.234 240.16C273.117 243.324 256.411 241.7 241.23 235.493C226.048 229.286 213.072 218.776 203.942 205.291C194.813 191.805 189.94 175.951 189.94 159.732C189.94 143.514 194.813 127.659 203.942 114.174C213.072 100.689 226.048 90.1781 241.23 83.9715C256.411 77.7648 273.117 76.1407 289.234 79.3047C305.351 82.4686 320.155 90.2785 331.775 101.747C347.338 117.136 356.078 137.99 356.078 159.732C356.078 181.475 347.338 202.329 331.775 217.718Z" fill="black"/>
<path d="M500.701 325.615L429.762 259.597V47.4755C429.762 45.3558 428.909 43.3228 427.39 41.8239C425.871 40.3251 423.812 39.483 421.664 39.483H374.371V7.99251C374.371 5.87276 373.518 3.83984 372 2.34095C370.481 0.842065 368.421 0 366.273 0L8.09802 0C5.95029 0 3.89053 0.842065 2.37186 2.34095C0.853182 3.83984 0 5.87276 0 7.99251V464.045C0 466.165 0.853182 468.198 2.37186 469.697C3.89053 471.195 5.95029 472.038 8.09802 472.038H55.4714V504.008C55.4714 506.127 56.3246 508.16 57.8433 509.659C59.362 511.158 61.4217 512 63.5695 512H421.826C423.974 512 426.033 511.158 427.552 509.659C429.071 508.16 429.924 506.127 429.924 504.008V364.139L446.12 379.564C449.699 383.109 453.953 385.922 458.636 387.843C463.318 389.763 468.339 390.752 473.41 390.754C483.306 390.766 492.813 386.95 499.891 380.124C501.267 378.781 502.539 377.338 503.697 375.808C509.554 368.548 512.487 359.409 511.934 350.145C511.381 340.881 507.38 332.146 500.701 325.615ZM374.371 71.9326V55.2282H413.971V244.811L411.298 242.333C409.806 240.985 407.856 240.237 405.832 240.237C403.809 240.237 401.859 240.985 400.366 242.333L398.099 244.491L384.818 231.783C400.654 207.859 408.161 179.494 406.203 150.983C404.245 122.472 392.928 95.3667 373.967 73.7708C374.163 73.1728 374.298 72.557 374.371 71.9326ZM387.004 255.76L370.242 272.305L358.58 260.796C361.577 258.318 364.573 255.76 367.407 252.803C370.242 249.846 372.833 247.048 375.505 244.091L387.004 255.76ZM390.81 159.85C390.77 186.708 381.299 212.722 364.009 233.463C346.72 254.203 322.681 268.388 295.986 273.601C269.291 278.814 241.59 274.734 217.6 262.055C193.611 249.376 174.815 228.882 164.415 204.063C154.014 179.244 152.652 151.634 160.559 125.935C168.466 100.236 185.154 78.0357 207.781 63.1154C230.409 48.1951 257.576 41.4769 284.658 44.1046C311.741 46.7324 337.063 58.5437 356.313 77.5273C367.288 88.3195 375.988 101.151 381.909 115.281C387.83 129.411 390.856 144.559 390.81 159.85ZM15.9531 456.292V15.5055H358.661V58.8249C333.07 37.7144 300.398 26.8266 267.079 28.3059C233.76 29.7852 202.21 43.5244 178.642 66.8174C155.59 89.9048 141.973 120.571 140.396 152.948C138.82 185.325 149.395 217.139 170.097 242.302C190.8 267.464 220.177 284.209 252.607 289.332C285.036 294.455 318.241 287.596 345.866 270.067L359.147 283.175L356.88 285.333C355.384 286.821 354.54 288.831 354.531 290.927C354.557 291.977 354.792 293.011 355.223 293.971C355.653 294.931 356.271 295.798 357.042 296.522L358.661 297.961V456.292H15.9531ZM413.971 496.255H71.1816V471.558H366.516C368.664 471.558 370.724 470.716 372.243 469.217C373.761 467.718 374.614 465.685 374.614 463.565V311.708L414.214 348.633L413.971 496.255ZM491.55 366.377C490.624 367.532 489.623 368.626 488.554 369.653C484.234 373.589 478.521 375.694 472.645 375.515C466.768 375.335 461.198 372.886 457.133 368.694L373.724 290.927L406.116 258.957L416.319 268.388L489.768 336.804C493.617 340.65 495.919 345.744 496.247 351.14C496.574 356.535 494.905 361.865 491.55 366.137V366.377Z" fill="black"/>
<path d="M294.605 307.79H79.9267C78.1757 308.223 76.6215 309.221 75.511 310.625C74.4005 312.03 73.7974 313.761 73.7974 315.542C73.7974 317.324 74.4005 319.055 75.511 320.459C76.6215 321.864 78.1757 322.862 79.9267 323.295H294.605C296.356 322.862 297.91 321.864 299.021 320.459C300.131 319.055 300.735 317.324 300.735 315.542C300.735 313.761 300.131 312.03 299.021 310.625C297.91 309.221 296.356 308.223 294.605 307.79ZM294.605 353.826H79.9267C78.1757 354.26 76.6215 355.258 75.511 356.662C74.4005 358.067 73.7974 359.798 73.7974 361.579C73.7974 363.361 74.4005 365.091 75.511 366.496C76.6215 367.901 78.1757 368.899 79.9267 369.332H294.605C296.356 368.899 297.91 367.901 299.021 366.496C300.131 365.091 300.735 363.361 300.735 361.579C300.735 359.798 300.131 358.067 299.021 356.662C297.91 355.258 296.356 354.26 294.605 353.826ZM294.605 399.623H79.9267C78.1757 400.057 76.6215 401.055 75.511 402.459C74.4005 403.864 73.7974 405.595 73.7974 407.376C73.7974 409.158 74.4005 410.888 75.511 412.293C76.6215 413.698 78.1757 414.696 79.9267 415.129H294.605C296.356 414.696 297.91 413.698 299.021 412.293C300.131 410.888 300.735 409.158 300.735 407.376C300.735 405.595 300.131 403.864 299.021 402.459C297.91 401.055 296.356 400.057 294.605 399.623Z" fill="black"/>
</svg>
