<svg width="512" height="512" viewBox="0 0 512 512" fill="none" xmlns="http://www.w3.org/2000/svg">
<path d="M238.933 332.8V349.867H256V332.8H273.066V349.867H290.133V331.23C294.106 329.855 297.676 327.514 300.52 324.418C303.364 321.321 305.393 317.566 306.426 313.49C307.458 309.415 307.461 305.146 306.435 301.069C305.408 296.992 303.383 293.234 300.544 290.133C303.383 287.033 305.408 283.275 306.435 279.198C307.461 275.12 307.458 270.852 306.426 266.776C305.393 262.701 303.364 258.945 300.52 255.849C297.676 252.752 294.106 250.411 290.133 249.037V230.4H273.066V247.467H256V230.4H238.933V247.467H213.333V264.533H221.866V315.733H213.333V332.8H238.933ZM281.6 315.733H238.933V298.667H281.6C283.863 298.667 286.033 299.566 287.634 301.166C289.234 302.766 290.133 304.937 290.133 307.2C290.133 309.463 289.234 311.634 287.634 313.234C286.033 314.834 283.863 315.733 281.6 315.733ZM238.933 264.533H281.6C283.863 264.533 286.033 265.432 287.634 267.033C289.234 268.633 290.133 270.803 290.133 273.067C290.133 275.33 289.234 277.5 287.634 279.101C286.033 280.701 283.863 281.6 281.6 281.6H238.933V264.533Z" fill="black"/>
<path d="M441.233 343.834L418.133 320.734V298.667H443.733V281.6H418.133V259.533L441.233 236.433L429.167 224.367L418.133 235.401V42.6667C418.12 31.3549 413.62 20.5104 405.622 12.5117C397.623 4.51313 386.778 0.0135497 375.467 0H136.533C125.222 0.0135497 114.377 4.51313 106.378 12.5117C98.3797 20.5104 93.8802 31.3549 93.8666 42.6667V235.401L82.833 224.367L70.7669 236.433L93.8666 259.533V281.6H68.2666V298.667H93.8666V320.734L70.7669 343.834L82.833 355.9L93.8666 344.866V469.333C93.8802 480.645 98.3797 491.49 106.378 499.488C114.377 507.487 125.222 511.986 136.533 512H375.467C386.778 511.986 397.623 507.487 405.622 499.488C413.62 491.49 418.12 480.645 418.133 469.333V344.866L429.167 355.9L441.233 343.834ZM401.067 315.733H346.231C347.828 310.157 348.899 304.443 349.431 298.667H401.067V315.733ZM349.431 281.6C348.899 275.824 347.828 270.11 346.231 264.533H401.067V281.6H349.431ZM196.267 17.0667H315.733V34.1333H196.267V17.0667ZM136.533 17.0667H179.2V34.1333C179.2 38.6597 180.998 43.0007 184.199 46.2013C187.399 49.4019 191.74 51.2 196.267 51.2H315.733C320.26 51.2 324.601 49.4019 327.801 46.2013C331.002 43.0007 332.8 38.6597 332.8 34.1333V17.0667H375.467C382.256 17.0667 388.768 19.7638 393.569 24.5647C398.369 29.3657 401.067 35.8771 401.067 42.6667V247.467H339.507C332.3 233.373 321.648 221.33 308.54 212.455C295.433 203.58 280.295 198.161 264.533 196.702V170.667H289.937C292.2 170.666 294.37 169.767 295.97 168.166L330.24 133.973L318.174 121.907L286.404 153.6H264.533V136.533H247.467V153.6H225.596L193.869 121.865L181.803 133.973L216.03 168.209C217.63 169.809 219.8 170.709 222.063 170.709H247.467V196.745C231.709 198.199 216.574 203.612 203.467 212.479C190.36 221.346 179.706 233.381 172.493 247.467H110.933V42.6667C110.933 35.8771 113.63 29.3657 118.431 24.5647C123.232 19.7638 129.744 17.0667 136.533 17.0667ZM256 213.333C271.19 213.333 286.038 217.838 298.668 226.276C311.297 234.715 321.141 246.71 326.954 260.743C332.767 274.777 334.288 290.219 331.324 305.116C328.361 320.014 321.046 333.698 310.306 344.439C299.565 355.18 285.881 362.494 270.983 365.458C256.085 368.421 240.643 366.9 226.61 361.087C212.576 355.274 200.582 345.431 192.143 332.801C183.704 320.171 179.2 305.323 179.2 290.133C179.223 269.772 187.321 250.25 201.719 235.852C216.117 221.455 235.638 213.356 256 213.333ZM110.933 264.533H165.768C164.172 270.11 163.101 275.824 162.568 281.6H110.933V264.533ZM162.568 298.667C163.101 304.443 164.172 310.157 165.768 315.733H110.933V298.667H162.568ZM375.467 494.933H136.533C129.744 494.933 123.232 492.236 118.431 487.435C113.63 482.634 110.933 476.123 110.933 469.333V332.8H172.493C180.333 348.208 192.284 361.147 207.022 370.184C221.76 379.222 238.712 384.005 256 384.005C273.288 384.005 290.24 379.222 304.978 370.184C319.716 361.147 331.667 348.208 339.507 332.8H401.067V469.333C401.067 476.123 398.369 482.634 393.569 487.435C388.768 492.236 382.256 494.933 375.467 494.933Z" fill="black"/>
<path d="M460.8 230.4C465.863 230.4 470.813 228.899 475.023 226.086C479.233 223.273 482.514 219.274 484.451 214.597C486.389 209.919 486.896 204.772 485.908 199.806C484.92 194.84 482.482 190.278 478.902 186.698C475.322 183.118 470.76 180.68 465.794 179.692C460.828 178.704 455.681 179.211 451.003 181.149C446.326 183.086 442.327 186.367 439.514 190.577C436.701 194.787 435.2 199.737 435.2 204.8C435.2 211.589 437.897 218.101 442.698 222.902C447.499 227.703 454.01 230.4 460.8 230.4ZM460.8 196.267C462.488 196.267 464.138 196.767 465.541 197.705C466.944 198.642 468.038 199.975 468.684 201.534C469.33 203.094 469.499 204.809 469.169 206.465C468.84 208.12 468.027 209.641 466.834 210.834C465.641 212.027 464.12 212.84 462.465 213.169C460.81 213.499 459.094 213.33 457.534 212.684C455.975 212.038 454.642 210.944 453.705 209.541C452.767 208.138 452.267 206.488 452.267 204.8C452.267 202.537 453.166 200.366 454.766 198.766C456.366 197.166 458.537 196.267 460.8 196.267ZM486.4 264.533C481.337 264.533 476.387 266.035 472.177 268.848C467.968 271.661 464.686 275.659 462.749 280.337C460.811 285.014 460.304 290.162 461.292 295.128C462.28 300.093 464.718 304.655 468.298 308.235C471.878 311.815 476.44 314.254 481.406 315.241C486.372 316.229 491.519 315.722 496.197 313.785C500.874 311.847 504.873 308.566 507.686 304.356C510.499 300.146 512 295.196 512 290.133C512 283.344 509.303 276.832 504.502 272.031C499.701 267.23 493.19 264.533 486.4 264.533ZM486.4 298.667C484.712 298.667 483.062 298.166 481.659 297.228C480.256 296.291 479.162 294.958 478.516 293.399C477.87 291.84 477.701 290.124 478.031 288.468C478.36 286.813 479.173 285.293 480.366 284.099C481.559 282.906 483.08 282.093 484.735 281.764C486.391 281.435 488.106 281.604 489.666 282.25C491.225 282.895 492.558 283.989 493.495 285.392C494.433 286.796 494.933 288.446 494.933 290.133C494.933 292.396 494.034 294.567 492.434 296.167C490.834 297.768 488.663 298.667 486.4 298.667ZM460.8 349.867C455.737 349.867 450.787 351.368 446.577 354.181C442.368 356.994 439.086 360.992 437.149 365.67C435.211 370.348 434.704 375.495 435.692 380.461C436.68 385.427 439.118 389.988 442.698 393.569C446.278 397.149 450.84 399.587 455.806 400.575C460.772 401.562 465.919 401.055 470.597 399.118C475.275 397.18 479.273 393.899 482.086 389.689C484.899 385.479 486.4 380.53 486.4 375.467C486.4 368.677 483.703 362.166 478.902 357.365C474.101 352.564 467.59 349.867 460.8 349.867ZM460.8 384C459.112 384 457.462 383.499 456.059 382.562C454.656 381.624 453.562 380.291 452.916 378.732C452.27 377.173 452.101 375.457 452.431 373.802C452.76 372.147 453.573 370.626 454.766 369.433C455.959 368.239 457.48 367.426 459.135 367.097C460.791 366.768 462.506 366.937 464.066 367.583C465.625 368.229 466.958 369.322 467.895 370.726C468.833 372.129 469.333 373.779 469.333 375.467C469.333 377.73 468.434 379.9 466.834 381.501C465.234 383.101 463.063 384 460.8 384ZM51.2 230.4C56.2632 230.4 61.2127 228.899 65.4226 226.086C69.6325 223.273 72.9137 219.274 74.8513 214.597C76.7889 209.919 77.2959 204.772 76.3081 199.806C75.3203 194.84 72.8822 190.278 69.3019 186.698C65.7217 183.118 61.1602 180.68 56.1943 179.692C51.2284 178.704 46.0811 179.211 41.4033 181.149C36.7255 183.086 32.7274 186.367 29.9144 190.577C27.1014 194.787 25.6 199.737 25.6 204.8C25.6 211.589 28.2971 218.101 33.0981 222.902C37.899 227.703 44.4105 230.4 51.2 230.4ZM51.2 196.267C52.8877 196.267 54.5376 196.767 55.9409 197.705C57.3442 198.642 58.4379 199.975 59.0838 201.534C59.7297 203.094 59.8986 204.809 59.5694 206.465C59.2401 208.12 58.4274 209.641 57.234 210.834C56.0406 212.027 54.5201 212.84 52.8648 213.169C51.2095 213.499 49.4937 213.33 47.9345 212.684C46.3752 212.038 45.0425 210.944 44.1048 209.541C43.1672 208.138 42.6667 206.488 42.6667 204.8C42.6667 202.537 43.5657 200.366 45.166 198.766C46.7663 197.166 48.9368 196.267 51.2 196.267ZM51.2 290.133C51.2 285.07 49.6986 280.121 46.8856 275.911C44.0727 271.701 40.0745 268.42 35.3967 266.482C30.7189 264.544 25.5716 264.037 20.6057 265.025C15.6398 266.013 11.0783 268.451 7.49808 272.031C3.91785 275.612 1.47969 280.173 0.491908 285.139C-0.495873 290.105 0.0110921 295.252 1.9487 299.93C3.8863 304.608 7.16752 308.606 11.3774 311.419C15.5873 314.232 20.5368 315.733 25.6 315.733C32.3896 315.733 38.901 313.036 43.7019 308.235C48.5029 303.434 51.2 296.923 51.2 290.133ZM17.0667 290.133C17.0667 288.446 17.5672 286.796 18.5048 285.392C19.4425 283.989 20.7752 282.895 22.3344 282.25C23.8937 281.604 25.6095 281.435 27.2648 281.764C28.9201 282.093 30.4406 282.906 31.634 284.099C32.8274 285.293 33.6401 286.813 33.9694 288.468C34.2986 290.124 34.1297 291.84 33.4838 293.399C32.8379 294.958 31.7442 296.291 30.3409 297.228C28.9376 298.166 27.2877 298.667 25.6 298.667C23.3368 298.667 21.1663 297.768 19.566 296.167C17.9657 294.567 17.0667 292.396 17.0667 290.133ZM51.2 349.867C46.1368 349.867 41.1873 351.368 36.9774 354.181C32.7675 356.994 29.4863 360.992 27.5487 365.67C25.6111 370.348 25.1041 375.495 26.0919 380.461C27.0797 385.427 29.5179 389.988 33.0981 393.569C36.6783 397.149 41.2398 399.587 46.2057 400.575C51.1716 401.562 56.3189 401.055 60.9967 399.118C65.6745 397.18 69.6727 393.899 72.4856 389.689C75.2986 385.479 76.8 380.53 76.8 375.467C76.8 368.677 74.1029 362.166 69.3019 357.365C64.501 352.564 57.9896 349.867 51.2 349.867ZM51.2 384C49.5123 384 47.8624 383.499 46.4591 382.562C45.0559 381.624 43.9621 380.291 43.3162 378.732C42.6704 377.173 42.5014 375.457 42.8306 373.802C43.1599 372.147 43.9726 370.626 45.166 369.433C46.3594 368.239 47.8799 367.426 49.5352 367.097C51.1905 366.768 52.9063 366.937 54.4656 367.583C56.0248 368.229 57.3576 369.322 58.2952 370.726C59.2329 372.129 59.7333 373.779 59.7333 375.467C59.7333 377.73 58.8343 379.9 57.234 381.501C55.6337 383.101 53.4632 384 51.2 384ZM256 119.467C261.063 119.467 266.013 117.965 270.223 115.152C274.433 112.339 277.714 108.341 279.651 103.663C281.589 98.9855 282.096 93.8382 281.108 88.8723C280.12 83.9064 277.682 79.3449 274.102 75.7647C270.522 72.1845 265.96 69.7463 260.994 68.7585C256.028 67.7707 250.881 68.2777 246.203 70.2153C241.526 72.1529 237.527 75.4341 234.714 79.644C231.901 83.8539 230.4 88.8034 230.4 93.8666C230.4 100.656 233.097 107.168 237.898 111.969C242.699 116.769 249.21 119.467 256 119.467ZM256 85.3333C257.688 85.3333 259.338 85.8338 260.741 86.7714C262.144 87.7091 263.238 89.0418 263.884 90.601C264.53 92.1603 264.699 93.8761 264.369 95.5314C264.04 97.1867 263.227 98.7072 262.034 99.9006C260.841 101.094 259.32 101.907 257.665 102.236C256.009 102.565 254.294 102.396 252.734 101.75C251.175 101.105 249.842 100.011 248.905 98.6075C247.967 97.2042 247.467 95.5543 247.467 93.8666C247.467 91.6034 248.366 89.4329 249.966 87.8326C251.566 86.2323 253.737 85.3333 256 85.3333ZM358.4 119.467C363.463 119.467 368.413 117.965 372.623 115.152C376.833 112.339 380.114 108.341 382.051 103.663C383.989 98.9855 384.496 93.8382 383.508 88.8723C382.52 83.9064 380.082 79.3449 376.502 75.7647C372.922 72.1845 368.36 69.7463 363.394 68.7585C358.428 67.7707 353.281 68.2777 348.603 70.2153C343.926 72.1529 339.927 75.4341 337.114 79.644C334.301 83.8539 332.8 88.8034 332.8 93.8666C332.8 100.656 335.497 107.168 340.298 111.969C345.099 116.769 351.61 119.467 358.4 119.467ZM358.4 85.3333C360.088 85.3333 361.738 85.8338 363.141 86.7714C364.544 87.7091 365.638 89.0418 366.284 90.601C366.93 92.1603 367.099 93.8761 366.769 95.5314C366.44 97.1867 365.627 98.7072 364.434 99.9006C363.241 101.094 361.72 101.907 360.065 102.236C358.409 102.565 356.694 102.396 355.134 101.75C353.575 101.105 352.242 100.011 351.305 98.6075C350.367 97.2042 349.867 95.5543 349.867 93.8666C349.867 91.6034 350.766 89.4329 352.366 87.8326C353.966 86.2323 356.137 85.3333 358.4 85.3333ZM153.6 119.467C158.663 119.467 163.613 117.965 167.823 115.152C172.033 112.339 175.314 108.341 177.251 103.663C179.189 98.9855 179.696 93.8382 178.708 88.8723C177.72 83.9064 175.282 79.3449 171.702 75.7647C168.122 72.1845 163.56 69.7463 158.594 68.7585C153.628 67.7707 148.481 68.2777 143.803 70.2153C139.126 72.1529 135.127 75.4341 132.314 79.644C129.501 83.8539 128 88.8034 128 93.8666C128 100.656 130.697 107.168 135.498 111.969C140.299 116.769 146.81 119.467 153.6 119.467ZM153.6 85.3333C155.288 85.3333 156.938 85.8338 158.341 86.7714C159.744 87.7091 160.838 89.0418 161.484 90.601C162.13 92.1603 162.299 93.8761 161.969 95.5314C161.64 97.1867 160.827 98.7072 159.634 99.9006C158.441 101.094 156.92 101.907 155.265 102.236C153.609 102.565 151.894 102.396 150.334 101.75C148.775 101.105 147.442 100.011 146.505 98.6075C145.567 97.2042 145.067 95.5543 145.067 93.8666C145.067 91.6034 145.966 89.4329 147.566 87.8326C149.166 86.2323 151.337 85.3333 153.6 85.3333ZM264.533 418.133H281.6V435.2H264.533V418.133ZM298.667 418.133H315.733V435.2H298.667V418.133ZM196.267 418.133H213.333V435.2H196.267V418.133ZM230.4 418.133H247.467V435.2H230.4V418.133Z" fill="black"/>
</svg>
