<svg width="512" height="512" viewBox="0 0 512 512" fill="none" xmlns="http://www.w3.org/2000/svg">
<path d="M373.403 469.333C373.403 476.123 370.721 482.634 365.947 487.435C361.172 492.236 354.696 494.933 347.944 494.933H42.4322C35.68 494.933 29.2043 492.236 24.4297 487.435C19.6552 482.634 16.9729 476.123 16.9729 469.333V42.6667C16.9729 35.8771 19.6552 29.3657 24.4297 24.5647C29.2043 19.7638 35.68 17.0667 42.4322 17.0667H305.512V59.7333C305.512 66.5229 308.194 73.0343 312.969 77.8353C317.743 82.6362 324.219 85.3333 330.971 85.3333H373.403V264.533H390.376V76.8C390.376 74.537 389.481 72.3669 387.89 70.7669L319.998 2.50027C318.407 0.899845 316.249 0.000483306 313.998 0H42.4322C31.1826 0.0135497 20.3977 4.51313 12.443 12.5117C4.48833 20.5104 0.0134753 31.3549 0 42.6667V469.333C0.0134753 480.645 4.48833 491.49 12.443 499.488C20.3977 507.487 31.1826 511.986 42.4322 512H347.944C359.194 511.986 369.979 507.487 377.933 499.488C385.888 491.49 390.363 480.645 390.376 469.333V435.2H373.403V469.333ZM322.485 59.7333V29.1328L361.404 68.2667H330.971C328.72 68.2667 326.562 67.3676 324.97 65.7673C323.379 64.167 322.485 61.9965 322.485 59.7333Z" fill="black"/>
<path d="M50.9193 51.2007H67.8922V68.2673H50.9193V51.2007ZM84.8651 51.2007H135.784V68.2673H84.8651V51.2007ZM50.9193 85.334H135.784V102.401H50.9193V85.334ZM499.597 231.51C491.633 223.521 480.843 219.035 469.594 219.035C458.344 219.035 447.554 223.521 439.59 231.51L289.567 382.362C288.385 383.552 287.579 385.066 287.25 386.714L281.751 414.354L265.567 430.627C263.171 432.997 261.265 435.82 259.96 438.934C258.654 442.048 257.975 445.391 257.961 448.77C257.947 452.15 258.598 455.498 259.878 458.623C261.157 461.748 263.039 464.588 265.415 466.977C267.792 469.367 270.615 471.26 273.722 472.548C276.83 473.835 280.16 474.491 283.521 474.477C286.881 474.464 290.206 473.782 293.304 472.47C296.401 471.158 299.209 469.242 301.566 466.834L317.758 450.561L345.246 445.031C346.886 444.698 348.392 443.884 349.574 442.693L499.597 291.841C507.54 283.833 512 272.985 512 261.675C512 250.366 507.54 239.518 499.597 231.51ZM298.783 415.762L302.78 395.64L336.361 429.407L316.358 433.434L298.783 415.762ZM313.566 382.362L415.582 279.775L427.59 291.841L325.574 394.428L313.566 382.362ZM337.574 406.495L439.598 303.915L451.598 315.99L349.574 418.561L337.574 406.495ZM427.59 267.708L433.59 261.675L469.598 297.882L463.59 303.924L427.59 267.708ZM289.558 454.768C287.943 456.318 285.796 457.184 283.562 457.184C281.329 457.184 279.182 456.318 277.567 454.768C276.778 453.975 276.152 453.034 275.725 451.998C275.298 450.962 275.078 449.852 275.078 448.73C275.078 447.609 275.298 446.498 275.725 445.462C276.152 444.427 276.778 443.485 277.567 442.693L289.567 430.627L301.575 442.701L289.558 454.768ZM487.598 279.783L481.598 285.816L445.59 249.609L451.59 243.576C453.954 241.199 456.761 239.313 459.85 238.026C462.939 236.74 466.25 236.077 469.594 236.077C472.937 236.077 476.248 236.74 479.337 238.026C482.426 239.313 485.233 241.199 487.598 243.576C489.962 245.954 491.837 248.776 493.117 251.882C494.397 254.988 495.055 258.317 495.055 261.68C495.055 265.042 494.397 268.371 493.117 271.477C491.837 274.583 489.962 277.406 487.598 279.783ZM348.709 244.139C350.298 242.528 351.191 240.35 351.191 238.081C351.191 235.811 350.298 233.633 348.709 232.022L264.693 147.542C263.068 146.02 260.93 145.173 258.71 145.173C256.489 145.173 254.351 146.02 252.727 147.542L230.492 169.899L217.508 172.459L192.728 147.542C191.11 145.97 188.952 145.084 186.702 145.067H154.199L132.729 123.393C131.126 121.794 128.961 120.897 126.703 120.897C124.446 120.897 122.28 121.794 120.678 123.393L36.6621 207.873C35.0721 209.484 34.1799 211.662 34.1799 213.931C34.1799 216.201 35.0721 218.379 36.6621 219.99L97.7645 281.43C95.9339 285.217 95.0697 289.403 95.2496 293.61C95.4295 297.816 96.6479 301.912 98.7949 305.527C100.942 309.142 103.95 312.163 107.548 314.318C111.146 316.472 115.221 317.692 119.405 317.867C119.633 324.173 122.243 330.154 126.703 334.593C131.132 339.068 137.065 341.716 143.337 342.017C143.651 348.319 146.282 354.28 150.72 358.742C155.157 363.205 161.085 365.85 167.353 366.166C167.628 371.093 169.313 375.834 172.205 379.821C175.097 383.807 179.073 386.868 183.655 388.635C188.237 390.402 193.229 390.8 198.03 389.781C202.832 388.762 207.238 386.37 210.719 382.891L219.715 391.937C222.075 394.317 224.879 396.205 227.966 397.493C231.054 398.782 234.363 399.445 237.706 399.445C241.048 399.445 244.358 398.782 247.445 397.493C250.533 396.205 253.337 394.317 255.697 391.937C260.174 387.475 262.786 381.461 262.995 375.126C269.275 374.887 275.234 372.277 279.685 367.817C284.136 363.357 286.752 357.375 287.012 351.062C293.293 350.784 299.243 348.151 303.688 343.681C308.134 339.211 310.753 333.228 311.029 326.913C315.948 326.677 320.693 325.009 324.686 322.11C328.68 319.212 331.749 315.209 333.52 310.588C335.292 305.968 335.689 300.929 334.664 296.085C333.639 291.242 331.236 286.802 327.747 283.307L318.751 274.262L348.709 244.139ZM54.6533 213.931L126.703 141.569L138.669 153.601L66.7041 226.049L54.6533 213.931ZM78.67 238.081L154.199 162.134H183.223L249.672 229.035C250.477 229.814 251.118 230.748 251.556 231.782C251.993 232.816 252.219 233.928 252.219 235.051C252.219 236.175 251.993 237.287 251.556 238.321C251.118 239.354 250.477 240.289 249.672 241.067C248.067 242.628 245.922 243.501 243.689 243.501C241.456 243.501 239.311 242.628 237.706 241.067L201.723 204.886C200.092 203.345 197.937 202.487 195.698 202.487C193.459 202.487 191.304 203.345 189.673 204.886C184.83 209.547 178.385 212.148 171.681 212.148C164.978 212.148 158.533 209.547 153.69 204.886L141.724 216.918C144.805 219.961 148.324 222.522 152.163 224.513L108.712 268.289L78.67 238.081ZM207.664 343.638C204.545 346.827 202.309 350.781 201.178 355.106C200.047 359.432 200.059 363.98 201.214 368.299L198.668 370.774C197.883 371.576 196.944 372.209 195.909 372.634C194.873 373.06 193.762 373.269 192.643 373.249C191.537 373.268 190.439 373.058 189.417 372.632C188.395 372.206 187.471 371.574 186.702 370.774C185.122 369.198 184.226 367.057 184.21 364.818C184.194 362.58 185.06 360.426 186.617 358.827C186.64 358.827 186.662 358.818 186.678 358.802C186.693 358.786 186.702 358.765 186.702 358.742L210.719 334.678V334.593L198.668 322.561L174.652 346.71C174.567 346.71 174.567 346.71 174.567 346.795C172.938 348.285 170.811 349.104 168.61 349.088C166.408 349.072 164.293 348.223 162.686 346.71C161.108 345.092 160.224 342.917 160.224 340.651C160.224 338.386 161.108 336.21 162.686 334.593L186.702 310.443L174.736 298.411L150.72 322.561C149.929 323.356 148.989 323.987 147.955 324.418C146.922 324.849 145.813 325.07 144.694 325.07C143.575 325.07 142.467 324.849 141.434 324.418C140.4 323.987 139.46 323.356 138.669 322.561C137.878 321.765 137.25 320.82 136.822 319.781C136.394 318.741 136.173 317.627 136.173 316.502C136.173 315.377 136.394 314.263 136.822 313.223C137.25 312.184 137.878 311.239 138.669 310.443L162.686 286.379L150.72 274.262L126.703 298.411C125.081 299.972 122.923 300.843 120.678 300.843C118.433 300.843 116.275 299.972 114.652 298.411C113.072 296.813 112.185 294.65 112.185 292.395C112.185 290.141 113.072 287.978 114.652 286.379L171.257 229.377C171.427 229.377 171.512 229.462 171.681 229.462C180.015 229.49 188.168 227.025 195.104 222.379L225.74 253.185C230.592 257.828 237.033 260.418 243.731 260.418C250.429 260.418 256.871 257.828 261.723 253.185C266.405 248.474 269.078 242.114 269.173 235.454C269.268 228.794 266.778 222.359 262.232 217.515L306.786 262.23L304.24 264.705C299.937 263.553 295.409 263.554 291.107 264.707C286.804 265.859 282.876 268.124 279.714 271.275C275.253 275.714 272.643 281.695 272.415 288.001C266.091 288.279 260.104 290.947 255.651 295.472C251.199 299.996 248.609 306.044 248.399 312.406C242.124 312.569 236.147 315.131 231.685 319.57C227.223 324.009 224.611 329.992 224.382 336.299C218.108 336.621 212.165 339.23 207.664 343.638ZM243.731 379.905C242.099 381.446 239.945 382.304 237.706 382.304C235.467 382.304 233.312 381.446 231.681 379.905L219.715 367.787C218.826 367.022 218.105 366.081 217.595 365.022C217.086 363.964 216.8 362.81 216.755 361.635C216.709 360.46 216.906 359.288 217.333 358.193C217.76 357.098 218.407 356.104 219.234 355.272C220.061 354.44 221.05 353.79 222.139 353.361C223.228 352.932 224.393 352.734 225.562 352.779C226.731 352.824 227.878 353.112 228.931 353.624C229.984 354.137 230.92 354.862 231.681 355.755L243.731 367.787C245.321 369.398 246.213 371.576 246.213 373.846C246.213 376.116 245.321 378.294 243.731 379.905ZM267.748 355.755C266.146 357.354 263.98 358.251 261.723 358.251C259.465 358.251 257.299 357.354 255.697 355.755L243.731 343.638C242.151 342.039 241.263 339.876 241.263 337.622C241.263 335.368 242.151 333.205 243.731 331.606C245.321 330.017 247.472 329.125 249.714 329.125C251.956 329.125 254.107 330.017 255.697 331.606L267.748 343.638C269.326 345.256 270.209 347.431 270.209 349.697C270.209 351.962 269.326 354.138 267.748 355.755ZM291.68 331.606C290.075 333.167 287.929 334.04 285.697 334.04C283.464 334.04 281.319 333.167 279.714 331.606L267.748 319.489C266.941 318.72 266.298 317.794 265.861 316.767C265.423 315.739 265.199 314.633 265.202 313.515C265.218 311.257 266.117 309.096 267.705 307.499C269.293 305.902 271.442 304.998 273.688 304.982C275.94 304.991 278.1 305.878 279.714 307.457L291.68 319.574C293.26 321.173 294.147 323.336 294.147 325.59C294.147 327.844 293.26 330.007 291.68 331.606ZM315.696 307.457C314.106 309.046 311.955 309.938 309.713 309.938C307.471 309.938 305.32 309.046 303.73 307.457L291.68 295.425C290.09 293.814 289.198 291.636 289.198 289.366C289.198 287.096 290.09 284.919 291.68 283.307C293.302 281.742 295.457 280.857 297.705 280.833C299.956 280.842 302.117 281.729 303.73 283.307L315.696 295.425C316.502 296.203 317.143 297.138 317.58 298.171C318.018 299.205 318.244 300.317 318.244 301.441C318.244 302.564 318.018 303.676 317.58 304.71C317.143 305.744 316.502 306.678 315.696 307.457ZM246.702 177.75L258.752 165.633L330.717 238.081L318.751 250.113L246.702 177.75ZM161.243 443.734H246.107V460.801H161.243V443.734ZM50.9193 358.401H118.811V375.467H50.9193V358.401ZM50.9193 392.534H135.784V409.601H50.9193V392.534ZM50.9193 324.267H101.838V341.334H50.9193V324.267Z" fill="black"/>
</svg>
