<svg width="512" height="512" viewBox="0 0 512 512" fill="none" xmlns="http://www.w3.org/2000/svg">
<path d="M282.95 303.394C264.626 303.386 246.622 308.193 230.745 317.332C229.84 317.855 229.047 318.55 228.411 319.379C227.774 320.207 227.308 321.153 227.038 322.161C226.767 323.17 226.699 324.222 226.835 325.257C226.972 326.292 227.311 327.29 227.834 328.194C228.357 329.098 229.053 329.891 229.883 330.526C230.712 331.162 231.659 331.628 232.669 331.898C233.679 332.168 234.732 332.236 235.768 332.1C236.805 331.963 237.804 331.624 238.709 331.102C258.206 319.843 281.261 316.416 303.195 321.517C325.129 326.619 344.297 339.865 356.809 358.569C369.32 377.272 374.237 400.03 370.562 422.222C366.886 444.415 354.893 464.378 337.018 478.061C319.142 491.743 296.724 498.118 274.314 495.892C251.904 493.666 231.181 483.005 216.354 466.075C201.526 449.144 193.705 427.212 194.477 404.731C195.249 382.251 204.558 360.906 220.512 345.03C221.273 344.299 221.881 343.424 222.3 342.456C222.719 341.488 222.941 340.446 222.952 339.391C222.964 338.336 222.765 337.29 222.367 336.313C221.97 335.336 221.381 334.448 220.636 333.7C219.892 332.953 219.005 332.361 218.029 331.959C217.052 331.557 216.006 331.354 214.95 331.36C213.894 331.367 212.85 331.583 211.878 331.997C210.907 332.411 210.028 333.014 209.293 333.771C192.16 350.799 181.473 373.236 179.052 397.255C176.631 421.274 182.627 445.389 196.017 465.486C209.408 485.583 229.363 500.418 252.481 507.462C275.598 514.505 300.446 513.321 322.787 504.11C345.128 494.9 363.579 478.234 374.992 456.954C386.405 435.675 390.075 411.099 385.375 387.42C380.675 363.74 367.896 342.422 349.218 327.101C330.54 311.78 307.12 303.405 282.95 303.404V303.394Z" fill="#1A1A1A"/>
<path d="M292.192 439.119H272.107C270.554 439.122 269.015 438.819 267.58 438.229C266.144 437.638 264.839 436.772 263.74 435.678C262.64 434.584 261.767 433.285 261.171 431.855C260.576 430.424 260.268 428.891 260.267 427.342C260.267 425.226 259.424 423.197 257.924 421.7C256.423 420.204 254.388 419.363 252.267 419.363C250.145 419.363 248.11 420.204 246.61 421.7C245.11 423.197 244.267 425.226 244.267 427.342C244.275 434.695 247.208 441.745 252.421 446.944C257.634 452.144 264.702 455.068 272.075 455.077H274.133V470.375C274.133 472.491 274.976 474.52 276.477 476.017C277.977 477.513 280.012 478.354 282.133 478.354C284.255 478.354 286.29 477.513 287.79 476.017C289.29 474.52 290.133 472.491 290.133 470.375V455.077H292.171C299.546 455.077 306.619 452.155 311.834 446.954C317.049 441.752 319.979 434.698 319.979 427.342C319.979 419.987 317.049 412.932 311.834 407.731C306.619 402.53 299.546 399.608 292.171 399.608H272.107C269.035 399.516 266.12 398.234 263.98 396.035C261.84 393.835 260.643 390.891 260.643 387.826C260.643 384.761 261.84 381.816 263.98 379.617C266.12 377.417 269.035 376.136 272.107 376.044H292.192C295.323 376.046 298.325 377.288 300.538 379.496C302.752 381.704 303.997 384.698 304 387.82C304 389.937 304.843 391.966 306.343 393.462C307.843 394.959 309.878 395.799 312 395.799C314.122 395.799 316.157 394.959 317.657 393.462C319.157 391.966 320 389.937 320 387.82C319.992 380.467 317.059 373.418 311.846 368.219C306.633 363.019 299.565 360.094 292.192 360.086H290.133V344.777C290.133 342.661 289.29 340.632 287.79 339.135C286.29 337.639 284.255 336.798 282.133 336.798C280.012 336.798 277.977 337.639 276.477 339.135C274.976 340.632 274.133 342.661 274.133 344.777V360.086H272.107C264.824 360.228 257.889 363.213 252.789 368.4C247.689 373.587 244.833 380.561 244.833 387.826C244.833 395.09 247.689 402.065 252.789 407.251C257.889 412.438 264.824 415.423 272.107 415.566H292.192C295.324 415.566 298.327 416.806 300.542 419.015C302.756 421.223 304 424.219 304 427.342C304 430.466 302.756 433.461 300.542 435.67C298.327 437.878 295.324 439.119 292.192 439.119ZM473.781 187.722C471.76 187.227 469.626 187.538 467.831 188.587C466.036 189.637 464.721 191.342 464.166 193.342C463.611 195.342 463.859 197.479 464.858 199.3C465.856 201.121 467.527 202.482 469.515 203.094C491.157 209.094 496.032 215.86 496.032 217.69C496.032 224.35 464.725 239.967 404.032 239.967C343.339 239.967 312.021 224.35 312.021 217.69C312.021 211.03 343.317 195.413 404.032 195.413C418.391 195.361 432.734 196.368 446.944 198.424C449.013 198.669 451.097 198.101 452.753 196.839C454.409 195.578 455.507 193.722 455.814 191.666C456.121 189.611 455.612 187.517 454.396 185.829C453.18 184.141 451.353 182.992 449.301 182.626C434.31 180.462 419.18 179.395 404.032 179.434C352.011 179.434 296.021 191.402 296.021 217.669V279.744C296.021 306.011 352.011 317.979 404.032 317.979C438.997 317.979 475.691 312.543 496.032 301.011V310.777C496.032 317.436 464.725 333.054 404.032 333.054C397.067 333.054 390.283 332.841 383.765 332.415C381.648 332.292 379.567 333.004 377.97 334.397C376.374 335.79 375.391 337.753 375.232 339.862C375.158 340.911 375.293 341.964 375.629 342.96C375.965 343.956 376.495 344.877 377.189 345.668C377.883 346.459 378.727 347.105 379.673 347.569C380.618 348.034 381.647 348.307 382.699 348.373C389.579 348.82 396.715 349.054 404.032 349.054C438.997 349.054 475.691 343.618 496.032 332.032V341.798C496.032 348.458 464.725 364.139 404.032 364.139H401.397C400.949 364.139 400.693 364.139 399.264 364.139C397.166 364.153 395.151 364.959 393.624 366.393C392.096 367.828 391.169 369.785 391.029 371.873C390.969 373.99 391.752 376.044 393.208 377.586C394.664 379.127 396.673 380.03 398.795 380.097C399.861 380.097 400.533 380.097 400.981 380.097H402.048H404.117C439.083 380.097 475.776 374.65 496.117 363.075V372.841C496.117 379.501 464.811 395.118 404.117 395.118C401.996 395.118 399.961 395.959 398.461 397.455C396.96 398.952 396.117 400.981 396.117 403.097C396.117 405.213 396.96 407.243 398.461 408.739C399.961 410.235 401.996 411.076 404.117 411.076C439.083 411.076 475.776 405.629 496.117 394.108V404.65C496.117 411.31 464.811 426.927 404.117 426.927H401.248C399.162 427.017 397.182 427.873 395.69 429.33C394.197 430.787 393.298 432.743 393.163 434.821C393.143 436.936 393.965 438.973 395.448 440.485C396.932 441.997 398.956 442.86 401.077 442.885H404.117C456.011 442.917 512 430.949 512 404.682V217.69C512 208.86 505.365 196.498 473.781 187.722ZM404 255.925C438.965 255.925 475.659 250.488 496 238.956V248.723C496 255.382 464.693 271.063 404 271.063C343.307 271.063 311.989 255.435 311.989 248.723V238.956C332.331 250.488 369.067 255.925 404 255.925ZM404 302.042C343.285 302.042 311.989 286.425 311.989 279.766V269.999C332.331 281.532 369.013 287.021 404 287.021C438.987 287.021 475.659 281.585 496 269.999V279.766C496 286.425 464.693 302.042 404 302.042ZM168.533 449.885C165.717 449.992 162.88 450.055 160 450.055C75.2 450.055 16 401.533 16 332.064C16 275.414 54.4 191.637 111.669 157.221C112.448 156.742 113.099 156.157 113.803 155.625H179.2C181.322 155.625 183.357 154.785 184.857 153.288C186.357 151.792 187.2 149.763 187.2 147.647C187.2 145.53 186.357 143.501 184.857 142.005C183.357 140.508 181.322 139.668 179.2 139.668H123.893C124.985 133.67 123.741 127.484 120.416 122.37C93.376 80.5923 88.1173 61.7941 89.0987 56.9217C89.2017 56.9819 89.3212 57.0079 89.44 56.9962C101.453 57.0797 113.392 58.8927 124.885 62.3793C136.006 65.7502 147.547 67.5409 159.168 67.6985C172.306 67.3771 185.356 65.455 198.027 61.975C208.068 59.2173 218.378 57.548 228.779 56.9962C228.491 63.0069 222.517 80.7625 201.856 115.933H140.8C138.678 115.933 136.643 116.774 135.143 118.27C133.643 119.767 132.8 121.796 132.8 123.912C132.8 126.028 133.643 128.058 135.143 129.554C136.643 131.05 138.678 131.891 140.8 131.891H194.795C194.4 134.865 194.574 137.886 195.307 140.795C196.164 144.1 197.674 147.201 199.75 149.916C201.825 152.631 204.423 154.905 207.392 156.604C236.19 175.31 259.543 201.247 275.104 231.807C275.591 232.755 276.263 233.596 277.08 234.28C277.898 234.965 278.844 235.479 279.864 235.794C280.884 236.108 281.957 236.215 283.019 236.109C284.082 236.003 285.112 235.686 286.049 235.177C286.987 234.668 287.813 233.977 288.479 233.145C289.144 232.312 289.636 231.356 289.925 230.331C290.214 229.306 290.295 228.234 290.162 227.177C290.029 226.121 289.686 225.102 289.152 224.18C272.216 191.092 246.828 163.046 215.552 142.87C214.405 142.234 213.397 141.377 212.586 140.349C211.775 139.32 211.177 138.141 210.827 136.88C210.554 135.821 210.499 134.718 210.666 133.638C210.833 132.557 211.218 131.521 211.797 130.593C251.947 63.975 245.461 52.5387 242.731 47.6131C241.514 45.5146 239.747 43.7866 237.62 42.6151C235.492 41.4435 233.085 40.8727 230.656 40.964C218.392 41.3159 206.215 43.1411 194.389 46.4003C182.916 49.5932 171.096 51.3794 159.189 51.7195C148.95 51.5381 138.787 49.9157 129.003 46.9003C116.168 43.0777 102.856 41.0863 89.4613 40.9853C86.6 40.8005 83.7446 41.4266 81.2249 42.7914C78.7051 44.1561 76.6238 46.2039 75.2213 48.6982C72.5333 53.6238 65.3867 66.7091 106.997 130.987C107.623 131.913 108.05 132.958 108.25 134.057C108.45 135.155 108.419 136.283 108.16 137.37C107.829 138.665 107.239 139.881 106.425 140.943C105.611 142.005 104.59 142.892 103.424 143.551C41.6 180.753 0 271.063 0 332.064C0 409.672 67.3067 466.056 160 466.056C163.072 466.056 166.123 465.992 169.152 465.864C170.203 465.823 171.235 465.576 172.19 465.137C173.144 464.698 174.003 464.075 174.717 463.305C175.43 462.535 175.985 461.633 176.349 460.649C176.713 459.665 176.879 458.619 176.837 457.571C176.796 456.524 176.548 455.494 176.108 454.542C175.668 453.59 175.044 452.733 174.272 452.022C173.5 451.31 172.595 450.757 171.608 450.394C170.622 450.031 169.573 449.865 168.523 449.906L168.533 449.885Z" fill="#1A1A1A"/>
<path d="M340.746 47.7667H323.918C323.304 47.7667 322.715 48.0103 322.281 48.4438C321.847 48.8774 321.603 49.4654 321.603 50.0785V73.1025C321.603 73.4061 321.663 73.7067 321.779 73.9872C321.896 74.2677 322.066 74.5226 322.281 74.7372C322.496 74.9519 322.751 75.1222 323.032 75.2384C323.313 75.3546 323.614 75.4144 323.918 75.4144H340.746C344.417 75.4144 347.937 73.9579 350.532 71.3655C353.128 68.773 354.586 65.2568 354.586 61.5905C354.586 57.9242 353.128 54.4081 350.532 51.8156C347.937 49.2232 344.417 47.7667 340.746 47.7667ZM340.746 70.7907H326.232V52.3904H340.746C343.189 52.3904 345.532 53.3597 347.259 55.085C348.987 56.8104 349.957 59.1505 349.957 61.5905C349.957 64.0306 348.987 66.3707 347.259 68.096C345.532 69.8214 343.189 70.7907 340.746 70.7907ZM340.746 82.4072H323.918C323.304 82.4072 322.715 82.6508 322.281 83.0843C321.847 83.5179 321.603 84.1059 321.603 84.719V107.743C321.603 108.356 321.847 108.944 322.281 109.378C322.715 109.811 323.304 110.055 323.918 110.055H340.746C344.417 110.055 347.937 108.598 350.532 106.006C353.128 103.413 354.586 99.8973 354.586 96.231C354.586 92.5647 353.128 89.0486 350.532 86.4561C347.937 83.8636 344.417 82.4072 340.746 82.4072ZM340.746 105.431H326.232V87.0308H340.746C343.189 87.0308 345.532 88.0002 347.259 89.7255C348.987 91.4509 349.957 93.791 349.957 96.231C349.957 98.671 348.987 101.011 347.259 102.737C345.532 104.462 343.189 105.431 340.746 105.431ZM389.861 23.1124C375.046 8.31379 354.952 0 334 0C313.048 0 292.954 8.31379 278.139 23.1124C263.323 37.9111 255 57.9823 255 78.9108C255 99.8392 263.323 119.91 278.139 134.709C292.954 149.508 313.048 157.822 334 157.822C354.952 157.822 375.046 149.508 389.861 134.709C404.677 119.91 413 99.8392 413 78.9108C413 57.9823 404.677 37.9111 389.861 23.1124ZM386.588 131.44C379.682 138.338 371.484 143.81 362.461 147.543C353.437 151.276 343.767 153.198 334 153.198C324.233 153.198 314.563 151.276 305.539 147.543C296.516 143.81 288.318 138.338 281.412 131.44C274.506 124.541 269.028 116.352 265.29 107.339C261.553 98.3263 259.629 88.6663 259.629 78.9108C259.629 69.1553 261.553 59.4953 265.29 50.4824C269.028 41.4695 274.506 33.2802 281.412 26.382C288.318 19.4838 296.516 14.0119 305.539 10.2786C314.563 6.54532 324.233 4.62383 334 4.62383C343.767 4.62383 353.437 6.54532 362.461 10.2786C371.484 14.0119 379.682 19.4838 386.588 26.382C393.494 33.2802 398.972 41.4695 402.71 50.4824C406.447 59.4953 408.371 69.1553 408.371 78.9108C408.371 88.6663 406.447 98.3262 402.71 107.339C398.972 116.352 393.494 124.541 386.588 131.44ZM352.075 38.8073V32.058C352.074 30.8291 351.584 29.651 350.715 28.782C349.845 27.9131 348.665 27.4243 347.435 27.4229H343.042C341.812 27.4243 340.632 27.9131 339.762 28.782C338.892 29.651 338.403 30.8291 338.401 32.058V36.1505H335.278V32.0577C335.276 30.8288 334.787 29.6507 333.917 28.7817C333.047 27.9128 331.868 27.424 330.637 27.4226H326.244C325.014 27.424 323.834 27.9128 322.964 28.7817C322.094 29.6507 321.605 30.8288 321.604 32.0577V36.1502H306.683C305.385 36.1516 304.139 36.6676 303.221 37.585C302.302 38.5024 301.786 39.7462 301.784 41.0436V47.5075C301.786 48.8049 302.302 50.0487 303.221 50.9661C304.139 51.8835 305.385 52.3995 306.683 52.4009H309.704C309.775 52.4009 309.844 52.4294 309.895 52.48C309.945 52.5305 309.974 52.5991 309.974 52.6706V105.421H306.683C305.385 105.422 304.139 105.938 303.221 106.856C302.303 107.773 301.786 109.017 301.784 110.314V116.778C301.784 117.421 301.911 118.057 302.157 118.651C302.403 119.244 302.764 119.784 303.219 120.238C303.674 120.693 304.214 121.053 304.809 121.299C305.403 121.545 306.04 121.671 306.683 121.671L321.603 121.671V128.087C321.603 128.7 321.847 129.288 322.281 129.721C322.715 130.155 323.304 130.398 323.918 130.398H332.963C333.576 130.398 334.165 130.155 334.599 129.721C335.033 129.288 335.277 128.7 335.277 128.087V121.671H338.401V128.087C338.401 128.7 338.645 129.288 339.079 129.721C339.513 130.155 340.102 130.398 340.716 130.398H349.761C350.375 130.398 350.963 130.155 351.397 129.721C351.831 129.288 352.075 128.7 352.075 128.087V119.014C355.626 117.255 358.716 114.691 361.1 111.528C363.483 108.365 365.094 104.689 365.804 100.794C366.514 96.8992 366.303 92.8924 365.188 89.0931C364.074 85.2938 362.086 81.8071 359.384 78.9108C362.086 76.0145 364.074 72.5277 365.188 68.7284C366.303 64.9291 366.514 60.9222 365.804 57.0272C365.094 53.1321 363.483 49.4565 361.1 46.2932C358.716 43.13 355.626 40.5666 352.075 38.8073ZM354.539 80.6422C357.181 82.9705 359.188 85.9303 360.373 89.2446C361.558 92.5588 361.882 96.1191 361.314 99.5923C360.746 103.066 359.306 106.338 357.127 109.104C354.948 111.869 352.103 114.038 348.857 115.406C348.439 115.583 348.082 115.88 347.831 116.258C347.58 116.637 347.447 117.08 347.447 117.534V125.775H343.03V119.359C343.03 118.746 342.786 118.158 342.352 117.724C341.918 117.291 341.329 117.047 340.716 117.047H332.963C332.349 117.047 331.761 117.291 331.327 117.724C330.893 118.158 330.649 118.746 330.649 119.359V125.775H326.232V119.359C326.232 118.746 325.989 118.158 325.555 117.724C325.12 117.291 324.532 117.047 323.918 117.047L306.683 117.048C306.648 117.048 306.613 117.041 306.58 117.027C306.547 117.014 306.518 116.994 306.493 116.969C306.468 116.944 306.448 116.914 306.434 116.881C306.421 116.849 306.414 116.814 306.414 116.778V110.314C306.414 110.243 306.442 110.174 306.493 110.124C306.544 110.073 306.612 110.045 306.684 110.045H310.996C311.952 110.044 312.869 109.664 313.545 108.989C314.221 108.313 314.602 107.398 314.603 106.443V52.6709C314.601 51.3736 314.085 50.1298 313.167 49.2124C312.248 48.295 311.003 47.779 309.704 47.7775H306.684C306.612 47.7775 306.544 47.7491 306.493 47.6986C306.442 47.6481 306.414 47.5796 306.414 47.5081V41.0442C306.414 40.9727 306.442 40.9041 306.493 40.8535C306.543 40.8029 306.612 40.7745 306.684 40.7745L323.918 40.7742C324.532 40.7742 325.12 40.5306 325.555 40.0971C325.989 39.6635 326.232 39.0755 326.232 38.4624L326.244 32.0466L330.649 32.058V38.4624C330.649 38.766 330.709 39.0666 330.825 39.3471C330.941 39.6275 331.112 39.8824 331.327 40.0971C331.541 40.3118 331.797 40.482 332.077 40.5982C332.358 40.7144 332.659 40.7742 332.963 40.7742H340.716C341.33 40.7742 341.918 40.5306 342.352 40.0971C342.787 39.6635 343.03 39.0755 343.03 38.4624L343.042 32.0466L347.447 32.058V40.2872C347.447 40.7411 347.58 41.185 347.831 41.5635C348.082 41.942 348.439 42.2383 348.857 42.4156C352.103 43.7837 354.949 45.9521 357.127 48.7177C359.306 51.4834 360.747 54.756 361.314 58.2292C361.882 61.7024 361.558 65.2627 360.374 68.577C359.189 71.8912 357.181 74.851 354.54 77.1794C354.294 77.3963 354.098 77.6628 353.963 77.9613C353.828 78.2598 353.759 78.5834 353.759 78.9108C353.759 79.2381 353.828 79.5618 353.963 79.8602C354.098 80.1587 354.294 80.4253 354.539 80.6422ZM334 15.4125C298.947 15.4125 270.43 43.8976 270.43 78.9108C270.43 113.924 298.947 142.409 334 142.409C369.053 142.409 397.57 113.924 397.57 78.9108C397.57 43.8976 369.053 15.4125 334 15.4125ZM334 137.785C301.5 137.785 275.059 111.374 275.059 78.9108C275.059 46.4471 301.5 20.0362 334 20.0362C366.5 20.0362 392.941 46.4471 392.941 78.9108C392.941 111.374 366.5 137.785 334 137.785Z" fill="black"/>
</svg>
