<svg width="512" height="512" viewBox="0 0 512 512" fill="none" xmlns="http://www.w3.org/2000/svg">
<path d="M503.467 0H230.4C228.137 0 225.966 0.899045 224.366 2.49936C222.766 4.09967 221.867 6.27015 221.867 8.53333V34.1333H213.333C211.07 34.1333 208.9 35.0324 207.299 36.6327C205.699 38.233 204.8 40.4035 204.8 42.6667V128H202.837C199.268 112.483 190.975 98.4554 179.1 87.8491C167.225 77.2427 152.353 70.5799 136.533 68.7787V68.2667C136.533 66.0035 135.634 63.833 134.034 62.2327C132.434 60.6324 130.263 59.7333 128 59.7333H110.933C90.5744 59.7649 71.0584 67.8665 56.6624 82.2624C42.2665 96.6584 34.1649 116.174 34.1333 136.533V175.701L2.47467 207.275C0.902862 208.902 0.0168472 211.071 0 213.333V238.933C0 241.197 0.899045 243.367 2.49936 244.967C4.09967 246.568 6.27015 247.467 8.53333 247.467H34.1333V315.733C34.1333 317.997 35.0324 320.167 36.6327 321.767C38.233 323.368 40.4035 324.267 42.6667 324.267H68.2667C69.8651 324.277 71.4336 323.833 72.7893 322.987L85.3333 315.136V341.333C85.3333 343.597 86.2324 345.767 87.8327 347.367C89.433 348.968 91.6035 349.867 93.8667 349.867H119.467C121.461 349.871 123.393 349.176 124.928 347.904L155.051 331.264L157.269 333.568C154.622 338.827 152.369 344.275 150.528 349.867H136.533C134.27 349.867 132.1 350.766 130.499 352.366C128.899 353.966 128 356.137 128 358.4V409.6C128 411.863 128.899 414.034 130.499 415.634C132.1 417.234 134.27 418.133 136.533 418.133H150.528C152.369 423.726 154.622 429.173 157.269 434.432L147.371 444.331C145.772 445.942 144.875 448.12 144.875 450.389C144.875 452.659 145.772 454.837 147.371 456.448L183.552 492.629C185.163 494.228 187.341 495.125 189.611 495.125C191.88 495.125 194.058 494.228 195.669 492.629L205.568 482.731C210.827 485.378 216.274 487.631 221.867 489.472V503.467C221.867 505.73 222.766 507.9 224.366 509.501C225.966 511.101 228.137 512 230.4 512H281.6C283.863 512 286.034 511.101 287.634 509.501C289.234 507.9 290.133 505.73 290.133 503.467V489.472C295.726 487.631 301.173 485.378 306.432 482.731L316.331 492.629C317.942 494.228 320.12 495.125 322.389 495.125C324.659 495.125 326.837 494.228 328.448 492.629L364.629 456.448C366.228 454.837 367.125 452.659 367.125 450.389C367.125 448.12 366.228 445.942 364.629 444.331L354.731 434.432C357.378 429.173 359.631 423.726 361.472 418.133H375.467C377.73 418.133 379.9 417.234 381.501 415.634C383.101 414.034 384 411.863 384 409.6V358.4C384 356.137 383.101 353.966 381.501 352.366C379.9 350.766 377.73 349.867 375.467 349.867H361.472C360.533 346.965 359.339 344.149 358.229 341.333H469.333C471.597 341.333 473.767 340.434 475.367 338.834C476.968 337.234 477.867 335.063 477.867 332.8V307.2H503.467C505.73 307.2 507.9 306.301 509.501 304.701C511.101 303.1 512 300.93 512 298.667V8.53333C512 6.27015 511.101 4.09967 509.501 2.49936C507.9 0.899045 505.73 0 503.467 0ZM214.272 341.333H297.643C306.152 349.624 311.995 360.264 314.427 371.893C316.858 383.522 315.766 395.611 311.291 406.616C306.816 417.622 299.161 427.043 289.305 433.675C279.448 440.307 267.838 443.85 255.957 443.85C244.077 443.85 232.467 440.307 222.61 433.675C212.754 427.043 205.099 417.622 200.624 406.616C196.149 395.611 195.057 383.522 197.488 371.893C199.919 360.264 205.763 349.624 214.272 341.333ZM204.8 284.587L195.669 275.371C194.058 273.772 191.88 272.875 189.611 272.875C187.341 272.875 185.163 273.772 183.552 275.371L179.115 279.808L179.029 256H187.733C189.056 255.991 190.36 255.678 191.543 255.087C192.727 254.495 193.759 253.64 194.56 252.587L204.8 238.933V284.587ZM136.533 86.016C147.806 87.6587 158.377 92.4806 167.006 99.9165C175.636 107.352 181.968 117.094 185.259 128H136.533V86.016ZM65.792 307.2H51.2V238.933C51.2 236.67 50.301 234.5 48.7006 232.899C47.1003 231.299 44.9299 230.4 42.6667 230.4H17.0667V216.832L48.7253 185.259C50.2971 183.632 51.1832 181.462 51.2 179.2V136.533C51.2181 120.697 57.5172 105.514 68.7154 94.3155C79.9137 83.1172 95.0966 76.8181 110.933 76.8H119.467V136.533C119.467 138.797 120.366 140.967 121.966 142.567C123.566 144.168 125.737 145.067 128 145.067H204.8V210.517L183.467 238.933H136.533C134.27 238.933 132.1 239.832 130.499 241.433C128.899 243.033 128 245.203 128 247.467V268.373L65.792 307.2ZM147.371 311.552C145.809 313.151 144.922 315.29 144.896 317.525L116.395 332.8H102.4V304.469L141.056 280.32C142.279 279.544 143.288 278.473 143.988 277.206C144.689 275.938 145.06 274.515 145.067 273.067V256H161.963L162.133 296.875L147.371 311.552ZM366.933 366.933V401.067H355.072C353.183 401.084 351.351 401.718 349.856 402.874C348.362 404.029 347.286 405.643 346.795 407.467C344.543 415.948 341.186 424.096 336.811 431.701C335.856 433.323 335.464 435.214 335.695 437.082C335.927 438.949 336.769 440.688 338.091 442.027L346.539 450.389L322.389 474.539L314.027 466.091C312.688 464.769 310.949 463.927 309.082 463.695C307.214 463.464 305.323 463.856 303.701 464.811C296.096 469.186 287.948 472.543 279.467 474.795C277.643 475.286 276.029 476.362 274.874 477.856C273.718 479.351 273.084 481.183 273.067 483.072V494.933H238.933V483.072C238.917 481.183 238.282 479.351 237.126 477.856C235.971 476.362 234.357 475.286 232.533 474.795C224.052 472.543 215.904 469.186 208.299 464.811C206.677 463.856 204.786 463.464 202.918 463.695C201.051 463.927 199.312 464.769 197.973 466.091L189.611 474.539L165.461 450.389L173.909 442.027C175.231 440.688 176.074 438.949 176.305 437.082C176.536 435.214 176.144 433.323 175.189 431.701C170.814 424.096 167.457 415.948 165.205 407.467C164.714 405.643 163.638 404.029 162.144 402.874C160.649 401.718 158.817 401.084 156.928 401.067H145.067V366.933H156.928C158.817 366.917 160.649 366.282 162.144 365.126C163.638 363.971 164.714 362.357 165.205 360.533C167.457 352.052 170.814 343.904 175.189 336.299C176.144 334.677 176.536 332.786 176.305 330.918C176.074 329.051 175.231 327.312 173.909 325.973L165.461 317.611L189.611 293.461L197.973 301.909C198.874 302.768 199.952 303.419 201.132 303.817C202.311 304.215 203.563 304.35 204.8 304.213V326.912C193.814 336.736 185.886 349.515 181.964 363.721C178.041 377.928 178.29 392.964 182.679 407.033C187.068 421.103 195.413 433.612 206.718 443.068C218.023 452.525 231.81 458.529 246.433 460.363C261.057 462.198 275.9 459.786 289.19 453.416C302.481 447.045 313.657 436.985 321.386 424.436C329.115 411.887 333.07 397.379 332.779 382.643C332.488 367.908 327.963 353.567 319.744 341.333H339.285C342.489 347.437 345.007 353.876 346.795 360.533C347.268 362.368 348.339 363.992 349.837 365.151C351.336 366.31 353.178 366.937 355.072 366.933H366.933ZM460.8 324.267H221.867V51.2H401.067V110.933C401.067 113.197 401.966 115.367 403.566 116.967C405.166 118.568 407.337 119.467 409.6 119.467H460.8V324.267ZM418.133 102.4V65.7067L450.304 102.4H418.133ZM494.933 290.133H477.867V111.189C477.86 109.141 477.101 107.167 475.733 105.643L415.744 37.0347C414.935 36.1136 413.937 35.3776 412.818 34.877C411.699 34.3763 410.485 34.1227 409.259 34.1333H238.933V17.0667H494.933V290.133Z" fill="black"/>
<path d="M426.667 290.133V145.067C426.667 142.803 425.768 140.633 424.167 139.033C422.567 137.432 420.397 136.533 418.133 136.533H384C381.737 136.533 379.566 137.432 377.966 139.033C376.366 140.633 375.467 142.803 375.467 145.067V290.133H366.933V179.2C366.933 176.937 366.034 174.766 364.434 173.166C362.834 171.566 360.663 170.667 358.4 170.667H324.267C322.004 170.667 319.833 171.566 318.233 173.166C316.633 174.766 315.733 176.937 315.733 179.2V290.133H307.2V238.933C307.2 236.67 306.301 234.5 304.701 232.899C303.1 231.299 300.93 230.4 298.667 230.4H264.533C262.27 230.4 260.1 231.299 258.5 232.899C256.899 234.5 256 236.67 256 238.933V290.133H238.933V307.2H443.733V290.133H426.667ZM290.133 290.133H273.067V247.467H290.133V290.133ZM349.867 290.133H332.8V187.733H349.867V290.133ZM409.6 290.133H392.533V153.6H409.6V290.133ZM213.333 384C213.333 392.439 215.836 400.688 220.524 407.704C225.212 414.721 231.876 420.189 239.672 423.419C247.469 426.648 256.047 427.493 264.324 425.847C272.601 424.2 280.203 420.137 286.17 414.17C292.137 408.203 296.201 400.6 297.847 392.324C299.493 384.047 298.648 375.468 295.419 367.672C292.19 359.876 286.721 353.212 279.704 348.524C272.688 343.836 264.439 341.333 256 341.333C244.688 341.347 233.844 345.846 225.845 353.845C217.847 361.844 213.347 372.688 213.333 384ZM256 358.4C261.063 358.4 266.013 359.901 270.223 362.714C274.433 365.527 277.714 369.525 279.651 374.203C281.589 378.881 282.096 384.028 281.108 388.994C280.12 393.96 277.682 398.522 274.102 402.102C270.522 405.682 265.96 408.12 260.994 409.108C256.029 410.096 250.881 409.589 246.203 407.651C241.526 405.714 237.527 402.432 234.715 398.222C231.902 394.013 230.4 389.063 230.4 384C230.4 377.21 233.097 370.699 237.898 365.898C242.699 361.097 249.211 358.4 256 358.4Z" fill="black"/>
</svg>
