<svg width="512" height="512" viewBox="0 0 512 512" fill="none" xmlns="http://www.w3.org/2000/svg">
<path d="M3.908 141.738L77.797 182.041C78.0629 182.186 78.3374 182.314 78.619 182.426C78.675 182.448 78.733 182.467 78.79 182.488C79.0047 182.568 79.2233 182.638 79.446 182.698C79.522 182.719 79.597 182.739 79.673 182.758C79.886 182.808 80.103 182.848 80.322 182.878C80.395 182.89 80.467 182.904 80.54 182.912C81.1138 182.983 81.6942 182.983 82.268 182.912C82.341 182.904 82.413 182.89 82.486 182.879C82.7813 182.836 83.0739 182.776 83.362 182.699C83.5847 182.639 83.803 182.569 84.017 182.489C84.074 182.467 84.132 182.449 84.189 182.426C84.4706 182.314 84.7451 182.186 85.011 182.041L158.9 141.738C160.083 141.093 161.07 140.141 161.758 138.982C162.446 137.824 162.809 136.501 162.809 135.154V47.8117C162.809 47.7817 162.803 47.7517 162.802 47.7217C162.795 47.1062 162.712 46.4938 162.555 45.8987C162.536 45.8277 162.515 45.7577 162.494 45.6867C162.426 45.4587 162.347 45.233 162.257 45.0097C162.228 44.9397 162.202 44.8697 162.172 44.7997C162.053 44.5239 161.917 44.2554 161.766 43.9957L161.76 43.9877L161.74 43.9577C161.589 43.7077 161.424 43.4666 161.245 43.2357C161.197 43.1747 161.147 43.1157 161.097 43.0557C160.944 42.8684 160.783 42.69 160.614 42.5207C160.564 42.4707 160.517 42.4207 160.467 42.3737C160.019 41.9493 159.521 41.5822 158.983 41.2807C158.954 41.2637 158.929 41.2427 158.9 41.2277L84.995 0.915704C83.8933 0.314846 82.6584 0 81.4035 0C80.1486 0 78.9137 0.314846 77.812 0.915704L3.909 41.2277C3.879 41.2437 3.854 41.2647 3.825 41.2807C3.28778 41.5821 2.78999 41.9489 2.343 42.3727C2.292 42.4207 2.243 42.4727 2.193 42.5227C2.02567 42.6907 1.86567 42.8677 1.713 43.0537C1.663 43.1147 1.611 43.1747 1.563 43.2377C1.38418 43.4679 1.21891 43.7083 1.068 43.9577L1.048 43.9877L1.043 43.9957C0.891432 44.2554 0.755522 44.5238 0.636 44.7997C0.606 44.8697 0.58 44.9397 0.552 45.0097C0.461333 45.2337 0.382333 45.4594 0.315 45.6867C0.294 45.7567 0.272 45.8267 0.254 45.8987C0.0963001 46.4938 0.0129979 47.1061 0.006 47.7217C0.006 47.7517 0 47.7817 0 47.8117V135.154C7.72589e-05 136.501 0.363124 137.824 1.05098 138.982C1.73884 140.141 2.7261 141.093 3.909 141.738H3.908ZM147.808 130.702L88.904 162.832V95.7617L147.809 60.9547L147.808 130.702ZM81.405 16.0427L140.125 48.0727L81.405 82.7707L22.685 48.0717L81.405 16.0427ZM14.999 60.9547L73.904 95.7617V162.832L14.999 130.702V60.9547ZM299.319 479.106L299.006 479.157C297.045 479.512 295.304 480.627 294.16 482.259C293.017 483.89 292.563 485.908 292.898 487.872C293.233 489.836 294.33 491.589 295.949 492.75C297.569 493.91 299.581 494.385 301.549 494.071C303.517 493.756 305.281 492.678 306.458 491.071C307.636 489.463 308.132 487.456 307.838 485.485C307.544 483.514 306.485 481.739 304.89 480.545C303.295 479.35 301.293 478.834 299.319 479.107V479.106ZM300.588 487.618L300.426 486.524L300.603 487.705L300.588 487.618ZM511.993 47.7217C511.986 47.1061 511.903 46.4938 511.745 45.8987C511.727 45.8277 511.705 45.7577 511.685 45.6867C511.617 45.4587 511.538 45.233 511.447 45.0097C511.419 44.9397 511.393 44.8697 511.363 44.7997C511.243 44.5238 511.108 44.2554 510.956 43.9957L510.95 43.9877L510.931 43.9577C510.78 43.7083 510.615 43.4679 510.436 43.2377C510.388 43.1747 510.336 43.1157 510.286 43.0547C510.133 42.868 509.973 42.6904 509.806 42.5217L509.656 42.3717C509.209 41.9486 508.712 41.5825 508.175 41.2817C508.145 41.2647 508.12 41.2437 508.09 41.2267L434.186 0.915704C433.084 0.314846 431.849 0 430.594 0C429.34 0 428.105 0.314846 427.003 0.915704L353.098 41.2277C353.068 41.2437 353.042 41.2647 353.013 41.2817C352.477 41.5825 351.979 41.9486 351.533 42.3717C351.481 42.4217 351.432 42.4737 351.381 42.5247C351.214 42.6914 351.055 42.8674 350.903 43.0527C350.853 43.1147 350.801 43.1747 350.752 43.2377C350.574 43.468 350.409 43.7084 350.258 43.9577L350.238 43.9877L350.232 43.9957C350.081 44.2554 349.945 44.5239 349.826 44.7997C349.796 44.8697 349.77 44.9397 349.741 45.0097C349.651 45.2337 349.572 45.4594 349.504 45.6867C349.484 45.7567 349.462 45.8267 349.443 45.8987C349.286 46.4938 349.203 47.1062 349.196 47.7217C349.196 47.7517 349.189 47.7817 349.189 47.8117V135.154C349.189 136.501 349.552 137.824 350.24 138.982C350.928 140.141 351.916 141.093 353.099 141.738L426.987 182.041C427.253 182.186 427.527 182.314 427.809 182.426C427.866 182.448 427.924 182.467 427.981 182.488C428.195 182.568 428.413 182.638 428.636 182.698L428.864 182.758C429.077 182.808 429.293 182.848 429.512 182.878C429.585 182.89 429.657 182.904 429.73 182.912C430.304 182.983 430.884 182.983 431.458 182.912C431.531 182.904 431.603 182.89 431.676 182.879C431.971 182.836 432.264 182.776 432.552 182.699C432.775 182.639 432.994 182.569 433.208 182.489C433.265 182.467 433.323 182.449 433.379 182.426C433.661 182.314 433.935 182.186 434.201 182.041L508.091 141.738C509.274 141.092 510.261 140.141 510.948 138.982C511.636 137.823 511.999 136.501 511.999 135.154V47.8117C511.999 47.7817 511.993 47.7517 511.993 47.7217ZM423.094 162.832L364.189 130.702V60.9547L423.094 95.7617V162.832ZM430.594 82.7707L371.874 48.0717L430.594 16.0427L489.314 48.0727L430.594 82.7707ZM496.999 130.702L438.094 162.832V95.7617L496.999 60.9547V130.702ZM22.979 294.007C23.127 294.007 23.276 294.003 23.426 293.994C24.4093 293.936 25.3716 293.685 26.2579 293.255C27.1442 292.826 27.9372 292.225 28.5916 291.489C29.246 290.753 29.7489 289.895 30.0717 288.965C30.3946 288.034 30.5309 287.049 30.473 286.066L30.459 285.857C30.2965 283.889 29.3644 282.064 27.8651 280.779C26.3657 279.494 24.4201 278.852 22.4504 278.993C20.4808 279.134 18.646 280.045 17.3444 281.53C16.0428 283.015 15.3793 284.954 15.498 286.925L22.986 286.507L15.499 286.947C15.6112 288.855 16.4479 290.649 17.8381 291.961C19.2284 293.273 21.0673 294.005 22.979 294.007ZM25.264 234.277C26.2305 234.468 27.2252 234.467 28.1912 234.273C29.1572 234.08 30.0756 233.697 30.8937 233.148C31.7118 232.599 32.4136 231.895 32.959 231.074C33.5044 230.254 33.8826 229.334 34.072 228.367L34.099 228.229C34.4587 226.281 34.0331 224.269 32.9151 222.634C31.797 220.999 30.0774 219.872 28.1317 219.5C26.1859 219.128 24.1721 219.541 22.5298 220.649C20.8875 221.757 19.7501 223.469 19.366 225.413L26.713 226.919L19.355 225.469C19.1647 226.435 19.1666 227.43 19.3606 228.395C19.5546 229.361 19.9369 230.279 20.4857 231.097C21.0345 231.915 21.739 232.616 22.5591 233.162C23.3791 233.708 24.2986 234.086 25.265 234.277H25.264ZM15.482 255.944L15.469 256.154C15.352 258.14 16.0285 260.091 17.3498 261.578C18.6711 263.066 20.529 263.968 22.515 264.086C22.665 264.094 22.815 264.098 22.963 264.098C24.4324 264.106 25.8724 263.686 27.1064 262.888C28.3405 262.091 29.3149 260.95 29.9103 259.607C30.5057 258.264 30.6961 256.776 30.4582 255.326C30.2203 253.876 29.5645 252.526 28.5711 251.444C27.5777 250.361 26.29 249.592 24.8657 249.23C23.4415 248.868 21.9427 248.93 20.5531 249.408C19.1636 249.886 17.9436 250.759 17.0428 251.92C16.142 253.08 15.5996 254.479 15.482 255.944ZM212.122 35.8767C213.177 35.8881 214.223 35.6769 215.191 35.2568C216.16 34.8368 217.028 34.2174 217.741 33.439C218.454 32.6606 218.995 31.7407 219.328 30.7393C219.661 29.7379 219.779 28.6774 219.675 27.6272C219.571 26.5769 219.247 25.5604 218.723 24.644C218.2 23.7275 217.489 22.9317 216.638 22.3084C215.786 21.6851 214.812 21.2484 213.78 21.0267C212.749 20.805 211.682 20.8033 210.649 21.0217C210.579 21.0357 210.412 21.0747 210.342 21.0917C208.561 21.5275 207.002 22.6006 205.958 24.108C204.915 25.6155 204.46 27.4529 204.679 29.2732C204.898 31.0934 205.776 32.7703 207.148 33.987C208.519 35.2038 210.289 35.876 212.122 35.8767ZM327.419 472.702C325.519 473.255 323.914 474.536 322.954 476.267C321.995 477.998 321.759 480.039 322.297 481.943C322.836 483.848 324.105 485.462 325.828 486.435C327.552 487.408 329.59 487.659 331.499 487.136C331.567 487.117 331.731 487.069 331.799 487.048C333.691 486.458 335.272 485.144 336.198 483.392C337.123 481.64 337.318 479.593 336.74 477.698C336.161 475.803 334.856 474.213 333.11 473.277C331.363 472.341 329.317 472.134 327.419 472.702ZM328.286 39.1497C328.364 39.1747 328.536 39.2257 328.615 39.2457C330.538 39.7597 332.585 39.4949 334.314 38.5086C336.043 37.5223 337.313 35.8942 337.848 33.9775C338.384 32.0608 338.143 30.0101 337.176 28.2704C336.209 26.5307 334.596 25.2423 332.685 24.6849C330.775 24.1274 328.721 24.3458 326.971 25.2926C325.22 26.2394 323.914 27.8384 323.335 29.7424C322.756 31.6465 322.951 33.7022 323.878 35.4633C324.805 37.2245 326.389 38.5491 328.286 39.1497ZM271.411 30.1057L271.636 30.1087C273.607 30.1097 275.499 29.3348 276.904 27.9514C278.308 26.5681 279.111 24.6876 279.139 22.7167C279.168 20.7458 278.419 18.843 277.055 17.4198C275.691 15.9966 273.822 15.1674 271.852 15.1117L271.752 15.1087C270.77 15.082 269.793 15.2492 268.876 15.6007C267.959 15.9523 267.12 16.4813 266.408 17.1575C265.696 17.8336 265.124 18.6436 264.726 19.5411C264.327 20.4386 264.109 21.406 264.085 22.3877C264.038 24.3813 264.782 26.3124 266.155 27.7587C267.528 29.2051 269.418 30.0489 271.411 30.1057ZM300.179 32.8127C302.128 33.1269 304.123 32.6598 305.73 31.5127C307.337 30.3655 308.427 28.631 308.763 26.6854C309.099 24.7397 308.655 22.74 307.526 21.1201C306.397 19.5002 304.675 18.3909 302.733 18.0327C302.661 18.0187 302.493 17.9927 302.42 17.9807C300.453 17.6835 298.449 18.1799 296.848 19.3605C295.247 20.5411 294.181 22.3094 293.883 24.2762C293.586 26.243 294.083 28.2474 295.263 29.8483C296.444 31.4492 298.212 32.5155 300.179 32.8127ZM241.628 31.0967C241.849 31.0967 242.072 31.0867 242.296 31.0667C242.372 31.0607 242.548 31.0427 242.625 31.0337C244.56 30.7816 246.322 29.787 247.538 28.2602C248.753 26.7334 249.328 24.7939 249.14 22.8513C248.953 20.9086 248.017 19.115 246.532 17.8492C245.046 16.5834 243.127 15.9446 241.179 16.0677C239.231 16.1908 237.407 17.0661 236.093 18.5088C234.778 19.9515 234.076 21.8486 234.135 23.7995C234.193 25.7503 235.007 27.6021 236.405 28.9637C237.804 30.3253 239.676 31.0902 241.628 31.0967ZM183.388 44.4447C184.487 44.4632 185.576 44.2409 186.58 43.7934C187.583 43.3458 188.477 42.6839 189.197 41.8542C189.918 41.0245 190.448 40.047 190.75 38.9905C191.053 37.934 191.12 36.8241 190.948 35.7389C190.775 34.6536 190.367 33.6192 189.752 32.7085C189.137 31.7977 188.33 31.0327 187.388 30.4671C186.446 29.9015 185.391 29.5491 184.299 29.4347C183.206 29.3203 182.101 29.4466 181.062 29.8047L180.808 29.8977C179.159 30.5094 177.778 31.6803 176.904 33.2063C176.03 34.7323 175.72 36.5165 176.027 38.2479C176.334 39.9793 177.239 41.548 178.584 42.6804C179.93 43.8129 181.63 44.4373 183.388 44.4447ZM19.447 317.623C19.7808 319.318 20.6938 320.844 22.0295 321.939C23.3652 323.035 25.0404 323.632 26.768 323.628C27.8151 323.628 28.8508 323.41 29.8088 322.987C30.7668 322.564 31.6259 321.946 32.3313 321.172C33.0367 320.398 33.5728 319.486 33.9053 318.493C34.2377 317.5 34.3593 316.448 34.2621 315.406C34.165 314.363 33.8513 313.352 33.3411 312.438C32.8309 311.523 32.1354 310.725 31.2992 310.095C30.463 309.465 29.5044 309.016 28.4848 308.778C27.4652 308.539 26.407 308.516 25.378 308.71C24.4105 308.894 23.4889 309.268 22.6658 309.809C21.8427 310.35 21.1342 311.048 20.5808 311.862C20.0274 312.677 19.6398 313.593 19.4403 314.557C19.2408 315.522 19.2332 316.516 19.418 317.484C19.422 317.498 19.443 317.609 19.446 317.623H19.447ZM270.429 481.88L270.327 481.883C268.356 481.938 266.487 482.768 265.123 484.191C263.759 485.615 263.011 487.518 263.04 489.49C263.069 491.461 263.873 493.342 265.278 494.725C266.683 496.108 268.576 496.882 270.547 496.88L270.774 496.877L270.65 489.377L270.87 496.874C272.858 496.815 274.742 495.97 276.107 494.522C277.471 493.075 278.205 491.145 278.147 489.157C278.089 487.168 277.243 485.285 275.796 483.92C274.348 482.555 272.418 481.821 270.43 481.88H270.429ZM479.925 189.034C478.971 189.279 478.075 189.711 477.288 190.303C476.501 190.895 475.838 191.636 475.337 192.484C474.837 193.332 474.508 194.271 474.37 195.246C474.232 196.221 474.287 197.214 474.533 198.168L474.601 198.423C475.046 200.004 475.994 201.397 477.302 202.39C478.61 203.384 480.206 203.925 481.848 203.931C483.002 203.929 484.139 203.662 485.173 203.148C486.206 202.635 487.107 201.89 487.805 200.972C488.503 200.053 488.979 198.986 489.198 197.853C489.416 196.721 489.369 195.553 489.062 194.441L481.796 196.297L489.059 194.426C488.814 193.472 488.383 192.576 487.791 191.788C487.199 191.001 486.457 190.338 485.609 189.837C484.761 189.337 483.822 189.008 482.847 188.87C481.872 188.732 480.879 188.788 479.925 189.034ZM496.999 255.5C496.998 254.517 496.803 253.545 496.425 252.638C496.047 251.732 495.494 250.908 494.797 250.216C494.1 249.524 493.273 248.976 492.364 248.604C491.455 248.233 490.481 248.044 489.499 248.05C487.505 248.061 485.596 248.861 484.19 250.276C482.785 251.691 481.997 253.605 481.999 255.6C481.999 255.686 482 255.771 482.003 255.856C482 255.937 481.999 256.018 481.999 256.1C481.999 258.089 482.789 259.996 484.196 261.403C485.602 262.81 487.51 263.6 489.499 263.6C491.488 263.6 493.396 262.81 494.802 261.403C496.209 259.996 496.999 258.089 496.999 256.1V256C496.999 255.93 496.998 255.86 496.996 255.791C496.998 255.727 496.999 255.663 496.999 255.6V255.5ZM212.983 476.438C212.873 476.412 212.763 476.387 212.653 476.363C210.701 475.965 208.672 476.353 207.004 477.442C205.337 478.531 204.166 480.234 203.747 482.181C203.327 484.128 203.692 486.162 204.763 487.842C205.833 489.521 207.523 490.711 209.465 491.152C211.407 491.594 213.445 491.251 215.137 490.199C216.828 489.148 218.036 487.471 218.5 485.534C218.963 483.597 218.643 481.555 217.61 479.852C216.578 478.149 214.915 476.922 212.983 476.438ZM210.989 484.667L211.001 484.609L211.216 483.728L210.989 484.667ZM241.449 480.981C239.472 480.758 237.488 481.329 235.932 482.569C234.377 483.809 233.378 485.616 233.154 487.592C232.931 489.569 233.503 491.553 234.742 493.109C235.982 494.664 237.789 495.664 239.766 495.887C239.842 495.896 240.018 495.913 240.095 495.92C240.319 495.94 240.542 495.95 240.762 495.95C242.693 495.951 244.55 495.209 245.946 493.876C247.343 492.543 248.172 490.723 248.261 488.794C248.35 486.865 247.691 484.977 246.422 483.521C245.154 482.066 243.373 481.156 241.45 480.981H241.449ZM277.189 201.827V193.5C277.189 191.511 276.399 189.603 274.992 188.196C273.586 186.79 271.678 186 269.689 186C267.7 186 265.792 186.79 264.386 188.196C262.979 189.603 262.189 191.511 262.189 193.5V200.204H253.72V193.5C253.72 191.511 252.93 189.603 251.523 188.196C250.117 186.79 248.209 186 246.22 186C244.231 186 242.323 186.79 240.917 188.196C239.51 189.603 238.72 191.511 238.72 193.5V200.204H224.112C222.123 200.204 220.215 200.994 218.809 202.4C217.402 203.807 216.612 205.715 216.612 207.704C216.612 209.693 217.402 211.6 218.809 213.007C220.215 214.414 222.123 215.204 224.112 215.204H227.012V296.796H224.112C222.123 296.796 220.215 297.586 218.809 298.992C217.402 300.399 216.612 302.307 216.612 304.296C216.612 306.285 217.402 308.192 218.809 309.599C220.215 311.006 222.123 311.796 224.112 311.796H238.72V318.5C238.72 320.489 239.51 322.396 240.917 323.803C242.323 325.21 244.231 326 246.22 326C248.209 326 250.117 325.21 251.523 323.803C252.93 322.396 253.72 320.489 253.72 318.5V311.796H262.19V318.5C262.19 320.489 262.98 322.396 264.387 323.803C265.793 325.21 267.701 326 269.69 326C271.679 326 273.587 325.21 274.993 323.803C276.4 322.396 277.19 320.489 277.19 318.5V310.173C282.514 308.251 287.117 304.737 290.373 300.107C293.629 295.477 295.379 289.956 295.386 284.296V276C295.387 272.251 294.619 268.543 293.131 265.103C291.642 261.663 289.464 258.565 286.731 256C289.464 253.435 291.642 250.336 293.131 246.896C294.619 243.457 295.387 239.748 295.386 236V227.704C295.379 222.043 293.628 216.523 290.373 211.893C287.117 207.262 282.513 203.748 277.189 201.827ZM280.386 284.296C280.382 287.61 279.064 290.787 276.721 293.13C274.377 295.474 271.2 296.792 267.886 296.796H242.013V263.5H267.886C271.2 263.503 274.377 264.822 276.721 267.165C279.064 269.508 280.382 272.686 280.386 276V284.296ZM280.386 236C280.382 239.314 279.064 242.491 276.721 244.834C274.377 247.178 271.2 248.496 267.886 248.5H242.013V215.204H267.886C271.2 215.207 274.377 216.526 276.721 218.869C279.064 221.212 280.382 224.39 280.386 227.704V236ZM511.746 374.933L511.684 374.721C511.617 374.493 511.538 374.267 511.447 374.044C511.419 373.974 511.393 373.904 511.363 373.834C511.243 373.558 511.108 373.289 510.956 373.03L510.95 373.022L510.931 372.992C510.78 372.742 510.614 372.501 510.435 372.271C510.388 372.209 510.337 372.151 510.287 372.09C510.134 371.903 509.973 371.725 509.805 371.556C509.755 371.506 509.708 371.456 509.657 371.408C509.21 370.983 508.711 370.615 508.173 370.314C508.144 370.298 508.119 370.278 508.09 370.262L434.186 329.95C433.084 329.349 431.849 329.034 430.594 329.034C429.34 329.034 428.105 329.349 427.003 329.95L353.098 370.262C353.068 370.278 353.042 370.299 353.013 370.316C352.477 370.617 351.98 370.983 351.534 371.406C351.481 371.456 351.432 371.508 351.381 371.559C351.214 371.726 351.055 371.902 350.903 372.088C350.853 372.149 350.801 372.209 350.753 372.272C350.574 372.502 350.408 372.742 350.257 372.992L350.238 373.022L350.232 373.03C350.081 373.289 349.945 373.558 349.826 373.834C349.796 373.904 349.77 373.974 349.741 374.044C349.651 374.268 349.572 374.493 349.504 374.721C349.484 374.791 349.462 374.861 349.443 374.933C349.286 375.528 349.203 376.14 349.196 376.756C349.196 376.786 349.189 376.816 349.189 376.846V464.189C349.189 465.536 349.552 466.859 350.24 468.017C350.928 469.176 351.916 470.128 353.099 470.773L426.987 511.075C427.253 511.22 427.527 511.348 427.809 511.46C427.866 511.482 427.924 511.501 427.981 511.522C428.195 511.602 428.413 511.672 428.636 511.732L428.864 511.792C429.077 511.842 429.293 511.882 429.512 511.913C429.585 511.923 429.657 511.938 429.73 511.947C430.304 512.018 430.884 512.018 431.458 511.947C431.531 511.938 431.603 511.924 431.676 511.913C431.971 511.87 432.264 511.81 432.552 511.733C432.775 511.673 432.994 511.603 433.208 511.523C433.265 511.501 433.323 511.483 433.379 511.46C433.661 511.348 433.935 511.22 434.201 511.075L508.091 470.772C509.274 470.126 510.261 469.175 510.948 468.016C511.636 466.857 511.999 465.535 511.999 464.188V376.846C511.999 376.816 511.993 376.786 511.993 376.756C511.986 376.14 511.903 375.528 511.745 374.933H511.746ZM423.094 491.866L364.189 459.736V389.99L423.094 424.798V491.866ZM430.594 411.806L371.874 377.106L430.594 345.077L489.315 377.107L430.594 411.806ZM496.999 459.736L438.094 491.866V424.797L496.999 389.99V459.736ZM494.98 224.668C494.719 222.708 493.69 220.933 492.12 219.731C490.55 218.53 488.568 218.001 486.608 218.261C485.133 218.443 483.744 219.058 482.618 220.028C481.492 220.998 480.678 222.28 480.28 223.713C479.882 225.145 479.916 226.663 480.38 228.075C480.843 229.488 481.715 230.731 482.884 231.649C484.053 232.567 485.469 233.117 486.951 233.232C488.433 233.346 489.916 233.019 491.212 232.292C492.508 231.564 493.56 230.469 494.235 229.144C494.91 227.82 495.177 226.325 495.003 224.849L494.98 224.668ZM162.555 374.933C162.536 374.862 162.515 374.792 162.494 374.721C162.426 374.493 162.347 374.267 162.257 374.044C162.228 373.974 162.202 373.904 162.172 373.834C162.053 373.558 161.917 373.289 161.766 373.03L161.76 373.022L161.74 372.992C161.589 372.742 161.424 372.501 161.245 372.271C161.197 372.209 161.147 372.151 161.098 372.091C160.943 371.902 160.782 371.723 160.613 371.554C160.564 371.505 160.517 371.456 160.467 371.409C160.019 370.983 159.52 370.615 158.981 370.313C158.953 370.298 158.928 370.277 158.9 370.262L84.995 329.95C83.8933 329.349 82.6584 329.034 81.4035 329.034C80.1486 329.034 78.9137 329.349 77.812 329.95L3.909 370.262C3.879 370.278 3.853 370.3 3.823 370.316C3.2877 370.616 2.79161 370.982 2.346 371.405C2.292 371.455 2.242 371.508 2.19 371.561C2.024 371.727 1.86567 371.902 1.715 372.086C1.664 372.148 1.611 372.209 1.562 372.273C1.38356 372.503 1.21862 372.743 1.068 372.993L1.048 373.022L1.043 373.03C0.891432 373.289 0.755522 373.558 0.636 373.834C0.606 373.904 0.58 373.974 0.552 374.044C0.461333 374.268 0.382333 374.493 0.315 374.721C0.294 374.791 0.272 374.861 0.254 374.933C0.0963001 375.528 0.0129979 376.14 0.006 376.756C0.006 376.786 0 376.816 0 376.846V464.188C7.72589e-05 465.535 0.363124 466.858 1.05098 468.016C1.73884 469.175 2.7261 470.127 3.909 470.772L77.798 511.075C78.0639 511.22 78.3384 511.348 78.62 511.46C78.676 511.482 78.734 511.501 78.791 511.522C79.0057 511.602 79.2243 511.672 79.447 511.732C79.523 511.753 79.598 511.773 79.674 511.792C79.887 511.842 80.104 511.882 80.323 511.913C80.396 511.923 80.468 511.938 80.541 511.947C81.1148 512.018 81.6952 512.018 82.269 511.947C82.342 511.938 82.414 511.924 82.487 511.913C82.7823 511.87 83.0749 511.81 83.363 511.733C83.5857 511.673 83.804 511.603 84.018 511.523C84.075 511.501 84.133 511.483 84.19 511.46C84.4716 511.348 84.7461 511.22 85.012 511.075L158.901 470.772C160.084 470.127 161.071 469.175 161.759 468.016C162.447 466.858 162.81 465.535 162.81 464.188V376.846C162.81 376.816 162.804 376.786 162.803 376.756C162.796 376.14 162.713 375.528 162.556 374.933H162.555ZM73.904 491.866L14.999 459.736V389.99L73.904 424.798V491.866ZM81.404 411.806L22.683 377.106L81.403 345.077L140.125 377.107L81.404 411.806ZM147.809 459.736L88.904 491.866V424.797L147.809 389.989V459.736ZM41.396 200.248C42.019 198.362 41.869 196.307 40.9787 194.532C40.0884 192.757 38.5305 191.407 36.6468 190.779C34.763 190.151 32.707 190.296 30.9298 191.182C29.1525 192.067 27.799 193.622 27.166 195.504L27.124 195.633C26.7628 196.755 26.6717 197.947 26.858 199.111C27.0442 200.276 27.5027 201.38 28.196 202.333C28.8893 203.287 29.7979 204.064 30.848 204.6C31.898 205.137 33.0599 205.418 34.239 205.421C35.8231 205.415 37.3657 204.913 38.6496 203.985C39.9334 203.057 40.894 201.75 41.396 200.248ZM369.771 256C369.771 233.498 363.098 211.501 350.597 192.791C338.096 174.082 320.327 159.499 299.538 150.888C278.749 142.277 255.873 140.024 233.803 144.414C211.734 148.804 191.461 159.639 175.55 175.551C159.639 191.462 148.803 211.734 144.413 233.804C140.023 255.874 142.276 278.749 150.887 299.538C159.499 320.327 174.081 338.096 192.791 350.598C211.5 363.099 233.497 369.772 255.999 369.772C286.163 369.738 315.081 357.74 336.41 336.411C357.739 315.082 369.737 286.163 369.771 256ZM255.999 354.772C236.464 354.772 217.367 348.979 201.124 338.126C184.881 327.272 172.221 311.846 164.746 293.798C157.27 275.75 155.314 255.89 159.125 236.73C162.936 217.57 172.343 199.971 186.157 186.157C199.97 172.344 217.57 162.937 236.73 159.126C255.889 155.314 275.749 157.27 293.797 164.746C311.846 172.222 327.272 184.882 338.125 201.125C348.978 217.368 354.771 236.464 354.771 256C354.741 282.186 344.325 307.292 325.808 325.809C307.291 344.326 282.186 354.742 255.999 354.772ZM483.795 307.952C482.354 307.569 480.831 307.62 479.419 308.1C478.007 308.58 476.769 309.467 475.86 310.649C474.951 311.832 474.411 313.256 474.31 314.744C474.209 316.232 474.55 317.717 475.29 319.011C476.031 320.306 477.138 321.353 478.471 322.02C479.805 322.687 481.307 322.944 482.787 322.76C484.267 322.576 485.659 321.958 486.789 320.984C487.918 320.01 488.735 318.724 489.135 317.288L489.186 317.088C489.682 315.161 489.393 313.117 488.383 311.404C487.372 309.69 485.722 308.449 483.796 307.952H483.795ZM488.593 278.415C486.621 278.154 484.626 278.688 483.048 279.897C481.469 281.107 480.435 282.894 480.173 284.866C480.17 284.894 480.153 285.02 480.151 285.046C479.92 287.015 480.478 288.996 481.704 290.555C482.929 292.113 484.722 293.124 486.69 293.364C488.658 293.605 490.641 293.056 492.206 291.838C493.771 290.621 494.79 288.833 495.04 286.866L487.609 285.851L495.044 286.835C495.173 285.858 495.109 284.866 494.855 283.914C494.601 282.963 494.161 282.07 493.562 281.289C492.963 280.507 492.216 279.85 491.364 279.357C490.511 278.864 489.569 278.544 488.593 278.415ZM185.143 468.218C185.047 468.182 184.951 468.147 184.855 468.113C182.969 467.47 180.905 467.599 179.112 468.469C177.32 469.34 175.943 470.883 175.282 472.762C174.62 474.642 174.728 476.707 175.58 478.508C176.432 480.31 177.961 481.702 179.834 482.382C181.707 483.063 183.773 482.977 185.583 482.143C187.393 481.309 188.8 479.794 189.5 477.928C190.199 476.062 190.134 473.996 189.319 472.177C188.503 470.359 187.003 468.936 185.144 468.218H185.143ZM182.025 476.534L182.064 476.424L182.51 475.24L182.025 476.534Z" fill="black"/>
</svg>
