<svg width="512" height="512" viewBox="0 0 512 512" fill="none" xmlns="http://www.w3.org/2000/svg">
<path d="M256 251.215C230.511 251.215 205.594 257.888 184.401 270.39C163.208 282.892 146.69 300.661 136.936 321.452C127.181 342.242 124.629 365.119 129.602 387.189C134.574 409.26 146.849 429.533 164.872 445.446C182.895 461.358 205.859 472.194 230.858 476.584C255.857 480.974 281.769 478.721 305.318 470.109C328.867 461.498 348.994 446.915 363.155 428.204C377.316 409.493 384.874 387.496 384.874 364.992C384.836 334.827 371.246 305.907 347.085 284.577C322.925 263.247 290.168 251.249 256 251.215ZM256 463.77C233.872 463.77 212.24 457.976 193.841 447.123C175.442 436.269 161.101 420.842 152.633 402.793C144.165 384.744 141.949 364.883 146.266 345.722C150.584 326.561 161.239 308.961 176.887 295.147C192.534 281.332 212.469 271.925 234.173 268.113C255.876 264.302 278.372 266.258 298.816 273.734C319.26 281.211 336.734 293.871 349.028 310.115C361.321 326.359 367.883 345.456 367.883 364.992C367.849 391.181 356.051 416.288 335.076 434.805C314.101 453.323 285.663 463.74 256 463.77ZM209.932 82.501C212.186 82.501 214.347 81.7108 215.94 80.3042C217.533 78.8976 218.428 76.9898 218.428 75.0006C218.432 73.123 218.873 71.2661 219.725 69.5454C220.576 67.8248 221.819 66.277 223.376 64.9983C224.933 63.7196 226.772 62.7373 228.777 62.1124C230.783 61.4875 232.913 61.2334 235.034 61.3659C238.756 61.6049 242.256 63.0228 244.888 65.3586C247.521 67.6944 249.109 70.791 249.361 74.0785C249.613 77.366 248.512 80.6232 246.26 83.2508C244.008 85.8784 240.757 87.6996 237.105 88.3793C233.792 89.0185 230.826 90.6388 228.7 92.9712C226.573 95.3037 225.415 98.2079 225.416 101.202V117.916C225.416 119.905 226.311 121.813 227.904 123.219C229.497 124.626 231.658 125.416 233.911 125.416C236.165 125.416 238.326 124.626 239.919 123.219C241.512 121.813 242.407 119.905 242.407 117.916V102.675C249.813 100.903 256.269 96.8741 260.631 91.3013C264.993 85.7285 266.979 78.9721 266.237 72.2299C265.496 65.4876 262.074 59.1949 256.579 54.4673C251.084 49.7397 243.87 46.8825 236.217 46.4021C231.766 46.1081 227.294 46.635 223.086 47.9496C218.878 49.2641 215.026 51.3374 211.775 54.0375C208.521 56.7223 205.924 59.9677 204.146 63.5733C202.368 67.1789 201.446 71.0681 201.437 75.0006C201.437 76.9898 202.332 78.8976 203.925 80.3042C205.518 81.7108 207.679 82.501 209.932 82.501ZM233.911 133.292C232.3 133.292 230.726 133.713 229.386 134.504C228.046 135.294 227.002 136.417 226.386 137.731C225.769 139.045 225.608 140.491 225.923 141.886C226.237 143.281 227.013 144.563 228.152 145.568C229.291 146.574 230.743 147.259 232.323 147.536C233.903 147.814 235.541 147.671 237.029 147.127C238.518 146.582 239.79 145.66 240.685 144.478C241.58 143.295 242.057 141.904 242.057 140.482C242.057 138.575 241.198 136.746 239.671 135.398C238.143 134.049 236.072 133.292 233.911 133.292ZM284.319 298.639V288.409C284.319 286.419 283.424 284.512 281.83 283.105C280.237 281.698 278.076 280.908 275.823 280.908C273.57 280.908 271.409 281.698 269.816 283.105C268.222 284.512 267.327 286.419 267.327 288.409V298.314H250.336V288.409C250.336 286.419 249.441 284.512 247.848 283.105C246.255 281.698 244.094 280.908 241.841 280.908C239.588 280.908 237.427 281.698 235.833 283.105C234.24 284.512 233.345 286.419 233.345 288.409V298.314H209.829C207.576 298.314 205.415 299.104 203.822 300.511C202.229 301.917 201.334 303.825 201.334 305.814C201.334 307.804 202.229 309.711 203.822 311.118C205.415 312.525 207.576 313.315 209.829 313.315H216.392V416.672H209.828C207.575 416.672 205.414 417.462 203.821 418.869C202.228 420.276 201.333 422.183 201.333 424.172C201.333 426.162 202.228 428.069 203.821 429.476C205.414 430.883 207.575 431.673 209.828 431.673H233.345V441.578C233.345 443.568 234.24 445.475 235.833 446.882C237.427 448.289 239.588 449.079 241.841 449.079C244.094 449.079 246.255 448.289 247.848 446.882C249.441 445.475 250.336 443.568 250.336 441.578V431.673H267.327V441.578C267.327 443.568 268.222 445.475 269.816 446.882C271.409 448.289 273.57 449.079 275.823 449.079C278.076 449.079 280.237 448.289 281.83 446.882C283.424 445.475 284.319 443.568 284.319 441.578V431.345C291.655 430.325 298.339 427.029 303.168 422.048C307.998 417.067 310.656 410.728 310.666 404.171V384.993C310.667 381.245 309.798 377.536 308.112 374.096C306.426 370.656 303.959 367.558 300.863 364.992C303.959 362.427 306.426 359.329 308.113 355.889C309.799 352.449 310.668 348.74 310.667 344.991V325.814C310.658 319.258 307.999 312.919 303.169 307.938C298.339 302.957 291.655 299.66 284.319 298.641V298.639ZM293.675 404.169C293.671 407.484 292.178 410.661 289.523 413.005C286.869 415.348 283.27 416.666 279.516 416.67H233.384V372.493H279.517C283.271 372.497 286.87 373.815 289.524 376.158C292.179 378.502 293.672 381.679 293.676 384.993L293.675 404.169ZM293.675 344.99C293.671 348.305 292.178 351.482 289.523 353.826C286.869 356.169 283.27 357.487 279.516 357.491H233.384V313.313H279.517C283.271 313.317 286.87 314.635 289.524 316.978C292.179 319.322 293.672 322.499 293.676 325.813L293.675 344.99ZM469.522 216.985H467.823V166.482C467.81 156.54 463.331 147.007 455.368 139.977C447.404 132.946 436.607 128.991 425.345 128.98H338.584C344.234 114.294 345.837 98.6293 343.261 83.2862C340.686 67.943 334.005 53.3629 323.772 40.7543C313.54 28.1457 300.051 17.8719 284.424 10.7844C268.796 3.69696 251.48 0 233.911 0C216.343 0 199.027 3.69696 183.399 10.7844C167.772 17.8719 154.283 28.1457 144.051 40.7543C133.818 53.3629 127.137 67.943 124.562 83.2862C121.986 98.6293 123.589 114.294 129.239 128.98H58.3363C43.2277 128.997 28.7146 134.183 17.8461 143.449C6.97753 152.714 0.599545 165.338 0.0521057 178.668C0.0181392 178.939 0.000745736 179.211 0 179.483V474.498C0.0125923 484.441 4.49197 493.973 12.4554 501.004C20.4188 508.034 31.2159 511.989 42.4779 512H469.522C480.784 511.989 491.581 508.034 499.545 501.004C507.508 493.973 511.987 484.441 512 474.498V254.487C511.987 244.544 507.508 235.012 499.545 227.981C491.581 220.951 480.784 216.996 469.522 216.985ZM233.911 14.9745C249.684 14.977 265.2 18.4996 279.018 25.2149C292.835 31.9301 304.506 41.6202 312.945 53.3845C321.384 65.1488 326.318 78.6055 327.288 92.5043C328.258 106.403 325.232 120.293 318.492 132.883C318.442 132.964 318.399 133.05 318.353 133.133C308.767 150.849 292.352 164.975 272.046 172.983H195.777C176.212 165.272 160.238 151.867 150.524 135.007C140.811 118.146 137.948 98.8535 142.413 80.3531C146.878 61.8528 158.401 45.2662 175.055 33.3661C191.709 21.4661 212.486 14.9737 233.911 14.9745ZM58.3363 143.981H136.67C143.485 155.107 152.684 164.957 163.757 172.983H119.867C117.614 172.983 115.453 173.773 113.86 175.179C112.266 176.586 111.371 178.494 111.371 180.483C111.371 182.472 112.266 184.38 113.86 185.787C115.453 187.193 117.614 187.983 119.867 187.983H273.835L273.866 187.985L273.911 187.983H347.954C350.207 187.983 352.368 187.193 353.961 185.787C355.554 184.38 356.449 182.472 356.449 180.483C356.449 178.494 355.554 176.586 353.961 175.179C352.368 173.773 350.207 172.983 347.954 172.983H304.065C315.137 164.957 324.337 155.107 331.152 143.981H425.345C432.102 143.988 438.58 146.361 443.358 150.579C448.136 154.797 450.824 160.517 450.832 166.482V216.985H58.3363C47.3709 216.985 36.8546 213.139 29.1009 206.294C21.3471 199.448 16.9911 190.164 16.9911 180.483C16.9911 170.802 21.3471 161.518 29.1009 154.672C36.8546 147.827 47.3709 143.981 58.3363 143.981ZM495.009 383.493H440.071C434.513 383.493 429.183 381.544 425.253 378.075C421.323 374.605 419.115 369.899 419.115 364.992C419.115 360.086 421.323 355.38 425.253 351.91C429.183 348.441 434.513 346.492 440.071 346.492H495.009V383.493ZM495.009 331.491H440.071C430.007 331.491 420.355 335.02 413.238 341.303C406.122 347.586 402.124 356.107 402.124 364.992C402.124 373.878 406.122 382.399 413.238 388.682C420.355 394.965 430.007 398.494 440.071 398.494H495.009V474.498C495.001 480.464 492.313 486.183 487.535 490.401C482.757 494.62 476.279 496.992 469.522 496.999H42.4779C35.7208 496.992 29.2426 494.62 24.4646 490.401C19.6866 486.183 16.9989 480.464 16.9911 474.498V216.778C22.402 221.6 28.842 225.427 35.9388 228.037C43.0356 230.647 50.6482 231.989 58.3363 231.986H469.522C476.279 231.993 482.757 234.365 487.535 238.584C492.313 242.802 495.001 248.521 495.009 254.487V331.491Z" fill="black"/>
</svg>
