<svg width="584" height="368" fill="none" xmlns="http://www.w3.org/2000/svg"><g clip-path="url(#clip0_2_288)"><path d="M34.495 368c-22.678 0-39.138-21.497-33.315-43.416 9.296-34.998 30.292-88.819 88.525-104.176 99.777-26.313 93.321-148.703 172.286-148.703 78.964 0 79.38 60.506 102.924 66.659 23.543 6.153 102.464-12.12 120.094 41.818 32.588 99.705 82.026 52.656 98.277 143.189 4.1 22.838-9.766 44.628-32.967 44.628L34.495 368z" fill="#F3F5FD"/><path d="M508.407 42.257H346.163V252.73h162.244V42.257z" fill="#DEE8F5"/><path d="M493.572 113.1H360.998v32.185h132.574V113.1zM493.572 156.551H360.998v6.265h132.574v-6.265zM493.572 172.003H360.998v6.266h132.574v-6.266zM493.572 187.455H360.998v6.266h132.574v-6.266zM493.572 201.307H360.998v6.265h132.574v-6.265zM406.068 79.996a22.537 22.537 0 0 1-26.931 22.102 22.537 22.537 0 0 1-8.124-40.84 22.536 22.536 0 0 1 12.52-3.798 22.47 22.47 0 0 1 20.838 13.9 22.473 22.473 0 0 1 1.697 8.636z" fill="#fff"/><path d="M383.533 82.317a8.922 8.922 0 1 0 0-17.844 8.922 8.922 0 0 0 0 17.844zM399.772 95.621a22.536 22.536 0 0 1-32.477 0c3.038-6.79 9.172-11.431 16.238-11.431 7.066 0 13.201 4.643 16.239 11.431zM460.746 57.6H415.25v13.75h45.496V57.6zM493.572 79.853H415.25v5.002h78.322v-5.002zM493.572 93.36H415.25v5.002h78.322V93.36zM409.994 219.706h-48.996v18.237h48.996v-18.237z" fill="#fff"/><path d="M457.691 21.504H263.452v251.979h194.239V21.503z" fill="#DEE8F5"/><path d="M439.93 106.318H281.213v38.532H439.93v-38.532zM439.93 158.337H281.213v7.502H439.93v-7.502zM439.93 176.836H281.213v7.501H439.93v-7.501zM439.93 195.336H281.213v7.501H439.93v-7.501zM439.93 211.918H281.213v7.502H439.93v-7.502zM335.17 66.684a26.982 26.982 0 0 1-16.654 24.926 26.977 26.977 0 0 1-36.785-19.662 26.98 26.98 0 0 1 26.46-32.243 26.9 26.9 0 0 1 26.979 26.98z" fill="#fff"/><path d="M308.191 69.465c5.899 0 10.681-4.783 10.681-10.682s-4.782-10.68-10.681-10.68c-5.899 0-10.681 4.781-10.681 10.68 0 5.9 4.782 10.681 10.681 10.681zM327.633 85.392a26.987 26.987 0 0 1-38.883 0c3.638-8.13 10.982-13.686 19.441-13.686 8.46 0 15.804 5.556 19.442 13.686zM400.631 39.872h-54.468v16.46h54.468v-16.46zM439.93 66.514h-93.767v5.989h93.767v-5.989zM439.93 82.685h-93.767v5.988h93.767v-5.988zM339.87 233.947h-58.657v21.833h58.657v-21.833z" fill="#fff"/><path d="M364.434 0H137.043v294.987h227.391V0z" fill="#C1D8ED"/><path d="M343.642 99.29H157.835V144.4h185.807V99.29zM343.642 160.188H157.835v8.782h185.807v-8.782zM343.642 181.845H157.835v8.781h185.807v-8.781zM343.642 203.502H157.835v8.781h185.807v-8.781zM343.642 222.915H157.835v8.781h185.807v-8.781zM221.002 52.892a31.581 31.581 0 0 1-19.497 29.18 31.586 31.586 0 0 1-41.267-41.267 31.588 31.588 0 0 1 29.18-19.497 31.488 31.488 0 0 1 31.584 31.584z" fill="#fff"/><path d="M189.418 56.146c6.905 0 12.504-5.598 12.504-12.503 0-6.906-5.599-12.504-12.504-12.504-6.906 0-12.504 5.598-12.504 12.504 0 6.905 5.598 12.503 12.504 12.503zM212.178 74.793a31.585 31.585 0 0 1-35.127 7.161 31.591 31.591 0 0 1-10.392-7.161c4.258-9.518 12.855-16.023 22.759-16.023 9.903 0 18.501 6.505 22.76 16.023z" fill="#DEE8F5"/><path d="M297.635 21.504h-63.764v19.27h63.764v-19.27zM343.642 52.693H233.871v7.01h109.771v-7.01zM343.642 71.623H233.871v7.011h109.771v-7.011zM226.503 248.703h-68.668v25.56h68.668v-25.56z" fill="#fff"/><path d="M181.151 363.921l-10.307-.033s.035-10.643.035-11.585h10.306c0 .946-.034 11.618-.034 11.618zM222.217 362.69l-10.234-1.217c.46-3.874.981-8.527 1.017-9.29v.12h10.306c0 .31 0 1.249-1.089 10.387z" fill="#E98862"/><path d="M226.019 359.126c-.853-21.599-.905-44.285-1.171-65.941-3.545-23.358-5.408-48.977-9.784-72.17l-.131.039-.383-2.616-37.337-2.307-1.453 24.395h.139c-1.879 32.677-5.513 85.209-7.711 118.324l18.094 1.53c3.232-32.569 8.502-84.453 11.422-116.553 3.205 16.356 6.226 34.775 9.072 51.326.623 21.142 1.144 43.175 1.087 64.283l18.156-.31z" fill="#262626"/><path d="M193.679 367.909a2.024 2.024 0 0 0 1.474-.651 2.023 2.023 0 0 0 .127-2.579 2.019 2.019 0 0 0-.905-.676l-11.996-4.017a1.7 1.7 0 0 0-1.409.156 9.378 9.378 0 0 1-5.629 1.669 8.36 8.36 0 0 1-4.328-1.581.763.763 0 0 0-.807-.099.756.756 0 0 0-.434.688v5.866a1.32 1.32 0 0 0 .387.931 1.306 1.306 0 0 0 .933.383l22.587-.09zM234.775 367.909a2.023 2.023 0 0 0 1.895-1.357 2.018 2.018 0 0 0-1.2-2.549l-11.996-4.017a1.698 1.698 0 0 0-1.41.156 9.37 9.37 0 0 1-5.629 1.669 8.36 8.36 0 0 1-4.329-1.581.756.756 0 0 0-1.124.182.76.76 0 0 0-.116.407v5.866a1.32 1.32 0 0 0 .386.931 1.319 1.319 0 0 0 .933.383l22.59-.09z" fill="#C1D8ED"/><path d="M188.881 166.049s3.795-2.013 2.948-12.347l7.841-1.454s-.881 9.266 3.085 12.207l-13.874 1.594z" fill="#E98862"/><path d="M187.381 149.695c.542 3.135 2.253 6.104 5.019 7.117 3.283 1.202 5.715 1.283 9.5 1.283 5.166 0 4.995-5.387 5.14-10.816.147-5.45-.288-11.297-2.329-13.197-4.074-3.79-16.036-1.39-17.49 4.951-.753 3.28-.358 7.678.16 10.662z" fill="#E98862"/><path d="M210.231 134.023c-.864-3.169-3.557-4.717-8.011-3.553-3.167.828-3.568.083-6.251-1.208-1.536-.74-6.576-.402-7.823 3.01-1.337 3.654-5.473.695-5.857 6.648-.322 4.983 1.363 12.106 4.747 16.114 1.172 1.387 3.084 3.051 4.564 3.462 1.455.404 7.742.052 8.353-.311 3.002-1.783 2.693-9.958 2.217-15.203-.078-.863.081-2.297 2.295-2.297 1.522 0 2.364-.036 3.15-.603-.001 0 3.481-2.891 2.616-6.059z" fill="#0F1011"/><path d="M205.144 148.309a3.016 3.016 0 0 1-6.01.491 2.963 2.963 0 0 1 .69-2.211 2.98 2.98 0 0 1 2.069-1.041c2.149-.068 3.115 1.1 3.251 2.761zM166.224 233.818c0 1.463.772 6.352-.47 6.701-.745.21-1.624-3.435-1.624-3.435" fill="#E98862"/><path d="M160.36 233.05s-4.056 9.872.57 15.543a.924.924 0 0 0 1.003.295.926.926 0 0 0 .64-.826c.224-3.823.995-11.68 3.517-10.76v-6.167M251.814 180.455s5.664-4.5 6.065-6.116c.4-1.616-3.589-4.795-3.589-4.795s5.304-5.349 4.247-6.122c-1.249-.915-7.404 6.862-7.404 6.862s.87-2.797-.214-2.981c-.445-.076-.798.361-1.495 2.342-.794 2.257-2.381 5.651-2.381 5.651l4.771 5.159z" fill="#E98862"/><path d="M245.85 174.473l-16.753 18.85-13.104-23.457c-1.24-3.706-4.065-6.189-9.827-6.436-1.97-.084-11.585-.098-18.625-.098-4.729 0-8.612 1.451-10.854 3.693a9.906 9.906 0 0 0-2.464 3.99l-.068-.025-11.264 30.631a5.33 5.33 0 0 0-.271 1.061l-4.547 30.633 10.586 1.57 4.466-30.085 4.549-12.372c.474 1.902.733 3.851.772 5.81 0 10.306-4.662 14.929-4.319 20.22.54 8.317 40.946 6.352 43.004 1.628 2.12-4.872-2.182-7.873-1.994-23.808.02-1.734.154-3.548.339-5.395l7.951 14.233a5.352 5.352 0 0 0 6.595 2.384 5.36 5.36 0 0 0 2.075-1.439l22.029-25.767-8.276-5.821z" fill="#367CFF"/><path d="M494.685 363.97h49.766v-53.227h-49.766v53.227z" fill="#D7E8F4"/><path d="M479.269 363.97h49.766v-53.227h-49.766v53.227z" fill="#fff"/><path d="M493.768 323.432V365.97h54.471V323.432h-54.471z" fill="#C1D8ED"/><path d="M531.713 323.432h-54.471v42.539h54.471v-42.539z" fill="#DEE8F5"/><path d="M531.713 323.432h-54.471v3.189h54.471v-3.189z" fill="#C1D8ED"/><path d="M510.188 331.976h-11.421c-.873 0-1.581.708-1.581 1.581v3.225c0 .873.708 1.581 1.581 1.581h11.421c.874 0 1.582-.708 1.582-1.581v-3.225c0-.873-.708-1.581-1.582-1.581z" fill="#fff"/><path d="M493.658 314.261l54.11 6.266 1.194-10.318-54.109-6.267-1.195 10.319z" fill="#C1D8ED"/><path d="M477.242 312.359l54.109 6.266 1.195-10.318-54.109-6.266-1.195 10.318zM497.138 318.806h-17.87a6.427 6.427 0 0 0-2.026 3.05s6.167-1.881 19.896-3.05z" fill="#DEE8F5"/><path d="M95.5 247.6l-5.058-1.196-6.342 26.821 5.058 1.196L95.5 247.6z" fill="#F0F6FF"/><path d="M84.88 244.321l-2.808.518 4.343 23.542 2.807-.518-4.342-23.542z" fill="#C1D8ED"/><path d="M84.879 244.313l-2.806.534.495 2.597 2.805-.534-.495-2.597z" fill="#DEE8F5"/><path d="M93.57 250.308l-9.099 23.098 1.56.615 9.1-23.099-1.56-.614z" fill="#0CBC8B"/><path d="M95.564 260.413H81.847v17.531h13.717v-17.531zM111.807 368h5.62v-55.289h-5.62V368z" fill="#C1D8ED"/><path d="M116.432 368h5.62v-55.289h-5.62V368z" fill="#DEE8F5"/><path d="M41.804 368h5.62v-55.289h-5.62V368z" fill="#C1D8ED"/><path d="M46.428 368h5.62v-55.289h-5.62V368z" fill="#DEE8F5"/><path d="M96.392 368h5.62v-55.289h-5.62V368z" fill="#C1D8ED"/><path d="M101.017 368h5.62v-55.289h-5.62V368z" fill="#DEE8F5"/><path d="M26.389 368h5.62v-55.289h-5.62V368z" fill="#C1D8ED"/><path d="M31.015 368h5.62v-55.289h-5.62V368z" fill="#DEE8F5"/><path d="M101.977 277.32H26.389v36.717h75.588V277.32z" fill="#C1D8ED"/><path d="M122.052 277.32H46.464v36.717h75.588V277.32z" fill="#DEE8F5"/><path d="M117.986 282.54H50.53v26.115h67.456V282.54z" fill="#F3F5FD" opacity=".53"/><path d="M84.258 298.593a2.996 2.996 0 1 0 0-5.991 2.996 2.996 0 0 0 0 5.991z" fill="#fff"/></g><defs><clipPath id="clip0_2_288"><path fill="#fff" d="M0 0h584v368H0z"/></clipPath></defs></svg>