<svg width="446" height="372" viewBox="0 0 446 372" fill="none" xmlns="http://www.w3.org/2000/svg">
<path d="M223 353C346.159 353 446 273.978 446 176.5C446 79.0217 346.159 0 223 0C99.8405 0 0 79.0217 0 176.5C0 273.978 99.8405 353 223 353Z" fill="#C3D6FF"/>
<path d="M379.73 239.889L328.39 202.505C328.39 202.505 298.981 152.66 293.997 120.76C289.013 88.8601 266.583 32.0331 266.583 32.0331V2.13306C266.583 2.13306 240.664 -7.83594 238.67 19.5791C236.676 46.9941 244.153 82.3791 244.153 82.3791C244.153 82.3791 251.63 127.239 234.683 138.703L172.875 239.889C172.875 239.889 232.19 294.22 278.546 301.198L379.731 371.479L379.73 239.889Z" fill="#FFB8B8"/>
<path d="M112.812 96.5861H111.12C95.8721 96.5861 87.3011 114.586 97.3201 126.086C100.545 129.786 105.446 132.347 112.812 132.478V96.5861Z" fill="#FFB8B8"/>
<path d="M112.812 132.474H111.12C95.8721 132.474 87.3011 150.474 97.3201 161.974C100.545 165.674 105.446 168.235 112.812 168.366V132.474Z" fill="#FFB8B8"/>
<path d="M112.812 168.363H111.12C95.8721 168.363 87.3011 186.363 97.3201 197.863C100.545 201.563 105.446 204.124 112.812 204.255V168.363Z" fill="#FFB8B8"/>
<path d="M112.812 204.251H111.12C95.8721 204.251 87.3011 222.251 97.3201 233.751C100.545 237.451 105.446 240.012 112.812 240.143V204.251Z" fill="#FFB8B8"/>
<path d="M245.149 88.018H243.666V47.38C243.666 41.1422 241.188 35.1597 236.777 30.7489C232.366 26.338 226.384 23.86 220.146 23.86H134.046C127.808 23.86 121.826 26.338 117.415 30.7489C113.004 35.1597 110.526 41.1422 110.526 47.38V270.321C110.526 276.559 113.004 282.541 117.415 286.952C121.826 291.363 127.808 293.841 134.046 293.841H220.146C226.384 293.841 232.366 291.363 236.777 286.952C241.188 282.541 243.666 276.559 243.666 270.321V116.944H245.149V88.018Z" fill="#3F3D56"/>
<path d="M238.66 47.5441V270.155C238.656 272.759 238.076 275.329 236.961 277.682C235.846 280.035 234.223 282.112 232.21 283.763C231.765 284.128 231.301 284.469 230.819 284.785C227.94 286.705 224.555 287.726 221.094 287.721H134.584C133.182 287.723 131.784 287.555 130.422 287.221C126.6 286.288 123.201 284.099 120.772 281.004C118.342 277.909 117.022 274.089 117.022 270.154V47.5441C117.023 42.8859 118.873 38.4186 122.167 35.1247C125.461 31.8307 129.928 29.9799 134.586 29.9791H145.086C144.569 31.246 144.372 32.6206 144.512 33.9817C144.652 35.3428 145.124 36.6487 145.887 37.7843C146.65 38.9199 147.681 39.8503 148.889 40.4936C150.097 41.1368 151.444 41.4732 152.812 41.4731H202.133C203.501 41.4716 204.848 41.1343 206.055 40.4907C207.261 39.8471 208.292 38.9169 209.055 37.782C209.819 36.647 210.292 35.3419 210.433 33.9814C210.574 32.6208 210.379 31.2465 209.864 29.9791H221.099C225.757 29.9796 230.225 31.8302 233.519 35.124C236.813 38.4177 238.663 42.8849 238.664 47.5431L238.66 47.5441Z" fill="#3E7CFF"/>
<path d="M159.684 197.733C159.684 197.733 168.176 221.322 161.571 234.533C154.966 247.744 171.95 262.84 171.95 262.84C171.95 262.84 216.297 240.195 210.636 228.872C204.975 217.549 195.536 202.452 197.426 193.017L159.684 197.733Z" fill="#FFB8B8"/>
<path d="M176.197 206.697C192.873 206.697 206.391 193.179 206.391 176.503C206.391 159.827 192.873 146.309 176.197 146.309C159.521 146.309 146.003 159.827 146.003 176.503C146.003 193.179 159.521 206.697 176.197 206.697Z" fill="#FFB8B8"/>
<path d="M234.902 282.452C234.108 283.465 233.206 284.387 232.21 285.203C231.765 285.568 231.3 285.909 230.819 286.225C228.033 288.079 224.693 288.662 221.094 288.662H144.683L146.004 251.986L154.498 233.115C156.406 234.611 158.448 235.928 160.598 237.048C161.106 237.322 161.645 237.596 162.208 237.865C170.163 241.708 183.168 245.087 195.773 235.677C200.412 232.065 204.349 227.632 207.388 222.599L230.925 235.942L232.161 250.397L234.902 282.452Z" fill="white"/>
<path d="M164.007 218.996L162.826 231.345L162.203 237.87L161.271 247.585L157.288 289.165H134.588C133.186 289.167 131.788 288.999 130.426 288.665L121.474 247.265L121.733 247.096L164.007 218.996Z" fill="#2F2E41"/>
<path d="M238.66 227.479V271.597C238.656 274.201 238.076 276.771 236.961 279.124C235.845 281.477 234.223 283.554 232.21 285.205C231.765 285.57 231.3 285.911 230.819 286.227C227.939 288.147 224.555 289.168 221.094 289.163H190.714C191.377 275.221 192.548 261.614 193.919 249.763C194.507 244.714 195.13 239.983 195.768 235.682C197.822 221.815 200.025 212.399 201.605 211.128L212.052 218.022L238.66 227.479Z" fill="#2F2E41"/>
<path d="M143.172 281.237L142.085 289.162H134.585C133.183 289.164 131.785 288.996 130.423 288.662C126.601 287.729 123.202 285.54 120.773 282.445C118.343 279.35 117.023 275.53 117.023 271.595V270L120.532 247.266L121.732 247.097L127.132 246.324L143.172 281.237Z" fill="#2F2E41"/>
<path d="M238.656 233.232V271.597C238.652 274.201 238.072 276.771 236.957 279.124C235.842 281.477 234.219 283.554 232.206 285.205C231.761 285.57 231.297 285.911 230.815 286.227L226.199 266.14L232.155 250.404L238.656 233.232Z" fill="#2F2E41"/>
<path d="M204.99 149.194C200.424 141.78 193.278 136.316 184.925 133.855L178.79 138.763L181.175 133.039C179.17 132.733 177.14 132.616 175.112 132.689L169.592 139.789L171.877 132.935C167.088 133.53 162.474 135.112 158.326 137.579C154.178 140.046 150.586 143.346 147.777 147.271C140.752 157.401 139.566 171.488 146.477 181.697C148.377 175.868 150.677 170.397 152.577 164.57C154.068 164.773 155.579 164.781 157.071 164.592L159.379 159.207L160.024 164.364C167.177 163.741 177.786 162.373 184.566 161.119L183.907 157.163L187.852 160.45C189.93 159.972 191.163 159.538 191.061 159.207C196.104 167.337 201.101 172.53 206.144 180.66C208.052 169.188 211.431 159.656 204.99 149.194Z" fill="#2F2E41"/>
<path d="M203.318 179.642C204.447 179.642 205.362 177.812 205.362 175.554C205.362 173.296 204.447 171.466 203.318 171.466C202.189 171.466 201.274 173.296 201.274 175.554C201.274 177.812 202.189 179.642 203.318 179.642Z" fill="#FFB8B8"/>
<path d="M269.823 282.258C290.607 282.258 307.456 244.543 307.456 198.02C307.456 151.497 290.607 113.782 269.823 113.782C249.039 113.782 232.19 151.497 232.19 198.02C232.19 244.543 249.039 282.258 269.823 282.258Z" fill="#FFB8B8"/>
<path opacity="0.2" d="M134.475 92.848C132.503 92.848 130.576 92.2634 128.937 91.168C127.297 90.0726 126.019 88.5156 125.265 86.694C124.51 84.8724 124.313 82.868 124.698 80.9342C125.082 79.0004 126.032 77.2241 127.426 75.8299C128.82 74.4357 130.596 73.4862 132.53 73.1016C134.464 72.7169 136.468 72.9144 138.29 73.6689C140.112 74.4234 141.669 75.7012 142.764 77.3406C143.859 78.9799 144.444 80.9074 144.444 82.879C144.444 85.523 143.394 88.0586 141.524 89.9282C139.655 91.7977 137.119 92.848 134.475 92.848ZM134.475 73.907C132.701 73.907 130.966 74.4332 129.491 75.4191C128.015 76.4049 126.865 77.8062 126.186 79.4456C125.507 81.085 125.329 82.889 125.676 84.6294C126.022 86.3698 126.876 87.9684 128.131 89.2232C129.386 90.478 130.984 91.3325 132.725 91.6786C134.465 92.0248 136.269 91.8472 137.909 91.1681C139.548 90.489 140.949 89.339 141.935 87.8636C142.921 86.3882 143.447 84.6535 143.447 82.879C143.447 80.4995 142.502 78.2175 140.819 76.5349C139.137 74.8523 136.855 73.907 134.475 73.907Z" fill="black"/>
<path opacity="0.2" d="M130.487 81.8811C131.313 81.8811 131.982 81.2117 131.982 80.3861C131.982 79.5604 131.313 78.8911 130.487 78.8911C129.662 78.8911 128.992 79.5604 128.992 80.3861C128.992 81.2117 129.662 81.8811 130.487 81.8811Z" fill="black"/>
<path opacity="0.2" d="M137.964 81.8811C138.79 81.8811 139.459 81.2117 139.459 80.3861C139.459 79.5604 138.79 78.8911 137.964 78.8911C137.139 78.8911 136.469 79.5604 136.469 80.3861C136.469 81.2117 137.139 81.8811 137.964 81.8811Z" fill="black"/>
<path opacity="0.2" d="M137.964 86.3681H130.487C130.354 86.3681 130.227 86.3154 130.134 86.2216C130.04 86.1279 129.987 86.0007 129.987 85.8681C129.987 85.7355 130.04 85.6083 130.134 85.5145C130.227 85.4207 130.354 85.3681 130.487 85.3681H137.964C138.097 85.3681 138.224 85.4207 138.318 85.5145C138.411 85.6083 138.464 85.7355 138.464 85.8681C138.464 86.0007 138.411 86.1279 138.318 86.2216C138.224 86.3154 138.097 86.3681 137.964 86.3681Z" fill="black"/>
<path opacity="0.2" d="M221.204 92.848C219.232 92.848 217.305 92.2634 215.666 91.168C214.026 90.0726 212.749 88.5156 211.994 86.694C211.239 84.8724 211.042 82.868 211.427 80.9342C211.811 79.0004 212.761 77.2241 214.155 75.8299C215.549 74.4357 217.325 73.4862 219.259 73.1016C221.193 72.7169 223.197 72.9144 225.019 73.6689C226.841 74.4234 228.398 75.7012 229.493 77.3406C230.588 78.9799 231.173 80.9074 231.173 82.879C231.173 84.1882 230.915 85.4845 230.414 86.694C229.913 87.9035 229.179 89.0025 228.253 89.9282C227.328 90.8539 226.229 91.5882 225.019 92.0892C223.81 92.5902 222.513 92.848 221.204 92.848ZM221.204 73.907C219.43 73.907 217.695 74.4332 216.22 75.4191C214.744 76.4049 213.594 77.8062 212.915 79.4456C212.236 81.085 212.058 82.889 212.405 84.6294C212.751 86.3698 213.605 87.9684 214.86 89.2232C216.115 90.478 217.713 91.3325 219.454 91.6786C221.194 92.0248 222.998 91.8472 224.638 91.1681C226.277 90.489 227.678 89.339 228.664 87.8636C229.65 86.3882 230.176 84.6535 230.176 82.879C230.176 80.4995 229.231 78.2175 227.548 76.5349C225.866 74.8523 223.584 73.907 221.204 73.907Z" fill="black"/>
<path opacity="0.2" d="M217.217 81.8811C218.043 81.8811 218.712 81.2117 218.712 80.3861C218.712 79.5604 218.043 78.8911 217.217 78.8911C216.392 78.8911 215.722 79.5604 215.722 80.3861C215.722 81.2117 216.392 81.8811 217.217 81.8811Z" fill="black"/>
<path opacity="0.2" d="M224.693 81.8811C225.519 81.8811 226.188 81.2117 226.188 80.3861C226.188 79.5604 225.519 78.8911 224.693 78.8911C223.868 78.8911 223.198 79.5604 223.198 80.3861C223.198 81.2117 223.868 81.8811 224.693 81.8811Z" fill="black"/>
<path opacity="0.2" d="M224.689 87.3641C224.602 87.364 224.517 87.3413 224.441 87.2981C223.398 86.6364 222.187 86.2851 220.952 86.2851C219.716 86.2851 218.506 86.6364 217.462 87.2981C217.348 87.3553 217.217 87.3668 217.095 87.3303C216.972 87.2938 216.869 87.212 216.805 87.1017C216.741 86.9913 216.722 86.8608 216.751 86.7367C216.78 86.6126 216.856 86.5043 216.962 86.4341C218.158 85.6881 219.54 85.2926 220.949 85.2926C222.359 85.2926 223.74 85.6881 224.936 86.4341C225.03 86.4897 225.103 86.5744 225.144 86.6754C225.185 86.7764 225.192 86.8881 225.164 86.9934C225.136 87.0987 225.074 87.192 224.988 87.2589C224.902 87.3258 224.796 87.3627 224.687 87.3641H224.689Z" fill="black"/>
<path d="M178.338 103.122C174.335 103.122 170.422 101.935 167.093 99.711C163.765 97.487 161.171 94.326 159.639 90.6276C158.107 86.9292 157.706 82.8596 158.487 78.9334C159.268 75.0073 161.196 71.4008 164.026 68.5702C166.857 65.7396 170.463 63.8119 174.39 63.031C178.316 62.25 182.385 62.6508 186.084 64.1828C189.782 65.7147 192.943 68.3089 195.167 71.6373C197.391 74.9658 198.578 78.879 198.578 82.8821C198.578 88.25 196.446 93.3982 192.65 97.1939C188.854 100.99 183.706 103.122 178.338 103.122ZM178.338 64.6661C174.735 64.6661 171.214 65.7344 168.218 67.736C165.222 69.7376 162.887 72.5826 161.509 75.9111C160.13 79.2396 159.769 82.9023 160.472 86.4358C161.175 89.9694 162.91 93.2152 165.457 95.7627C168.005 98.3103 171.251 100.045 174.784 100.748C178.318 101.451 181.981 101.09 185.309 99.7115C188.638 98.3327 191.483 95.9979 193.484 93.0023C195.486 90.0067 196.554 86.4848 196.554 82.8821C196.554 78.0509 194.635 73.4176 191.219 70.0014C187.803 66.5853 183.169 64.6661 178.338 64.6661Z" fill="white"/>
<path d="M170.242 80.8551C171.919 80.8551 173.278 79.4958 173.278 77.8191C173.278 76.1423 171.919 74.7831 170.242 74.7831C168.565 74.7831 167.206 76.1423 167.206 77.8191C167.206 79.4958 168.565 80.8551 170.242 80.8551Z" fill="white"/>
<path d="M185.422 80.8551C187.099 80.8551 188.458 79.4958 188.458 77.8191C188.458 76.1423 187.099 74.7831 185.422 74.7831C183.745 74.7831 182.386 76.1423 182.386 77.8191C182.386 79.4958 183.745 80.8551 185.422 80.8551Z" fill="white"/>
<path d="M178.349 92.76C175.238 92.6325 172.23 91.6042 169.692 89.8C169.581 89.7278 169.484 89.6343 169.409 89.5249C169.333 89.4154 169.28 89.2922 169.252 89.1622C169.224 89.0322 169.222 88.898 169.246 88.7672C169.27 88.6364 169.32 88.5117 169.392 88.4C169.464 88.2884 169.558 88.1921 169.667 88.1166C169.777 88.0411 169.9 87.988 170.03 87.9601C170.16 87.9322 170.294 87.9303 170.425 87.9543C170.556 87.9783 170.681 88.0278 170.792 88.1C176.156 91.577 180.726 91.6001 184.767 88.1771C184.868 88.0879 184.986 88.0197 185.113 87.9766C185.241 87.9335 185.376 87.9164 185.51 87.9261C185.644 87.9358 185.776 87.9722 185.896 88.0332C186.016 88.0942 186.122 88.1785 186.209 88.2813C186.296 88.384 186.362 88.5031 186.403 88.6316C186.443 88.7601 186.457 88.8953 186.445 89.0294C186.432 89.1635 186.393 89.2937 186.33 89.4125C186.266 89.5313 186.18 89.6362 186.075 89.721C183.956 91.641 181.209 92.7216 178.349 92.76Z" fill="white"/>
<path d="M211.734 116.273H198.578V114.249H209.71V103.119H211.734V116.273Z" fill="white"/>
<path d="M146.966 62.6391H144.942V49.4831H158.098V51.5071H146.966V62.6391Z" fill="white"/>
</svg>
