<svg width="446" height="371" viewBox="0 0 446 371" fill="none" xmlns="http://www.w3.org/2000/svg">
<path d="M389.108 359.426C389.437 359.442 389.763 359.355 390.042 359.179C390.321 359.002 390.538 358.745 390.666 358.44C390.793 358.136 390.824 357.8 390.753 357.478C390.683 357.156 390.516 356.863 390.273 356.639L390.164 356.201L390.208 356.096C390.539 355.312 391.096 354.644 391.806 354.175C392.516 353.706 393.35 353.458 394.201 353.461C395.052 353.464 395.883 353.719 396.59 354.193C397.297 354.667 397.848 355.34 398.174 356.126C399.477 359.264 401.136 362.408 401.544 365.726C401.724 367.192 401.649 368.679 401.321 370.12C404.381 363.444 405.97 356.188 405.98 348.844C405.981 347.001 405.878 345.16 405.673 343.328C405.504 341.827 405.269 340.336 404.968 338.857C403.328 330.826 399.806 323.299 394.692 316.894C392.217 315.543 390.215 313.465 388.957 310.941C388.501 310.034 388.179 309.066 388 308.067C388.279 308.104 389.053 303.851 388.842 303.59C389.231 303 389.928 302.706 390.352 302.13C392.465 299.265 395.377 299.765 396.898 303.659C400.145 305.298 400.177 308.016 398.184 310.63C396.916 312.293 396.742 314.543 395.633 316.324C395.747 316.471 395.866 316.613 395.981 316.76C398.072 319.45 399.896 322.338 401.424 325.384C401.052 321.972 401.496 318.52 402.718 315.313C403.957 312.325 406.279 309.807 408.324 307.223C408.865 306.529 409.599 306.011 410.434 305.734C411.27 305.457 412.168 305.435 413.017 305.668C413.865 305.902 414.625 306.382 415.2 307.048C415.776 307.714 416.141 308.535 416.25 309.408C416.254 309.447 416.258 309.485 416.262 309.522C415.958 309.694 415.661 309.876 415.37 310.068C415.005 310.312 414.722 310.661 414.558 311.069C414.395 311.477 414.358 311.924 414.453 312.353C414.548 312.782 414.77 313.172 415.091 313.473C415.411 313.773 415.815 313.97 416.249 314.037L416.294 314.044C416.186 315.138 415.994 316.223 415.722 317.289C418.344 327.435 412.682 331.13 404.595 331.295C404.417 331.387 404.241 331.478 404.065 331.566C405.6 335.917 406.563 340.45 406.93 345.05C407.137 347.764 407.125 350.489 406.893 353.2L406.906 353.104C407.493 350.088 409.101 347.367 411.461 345.401C414.966 342.521 419.918 341.461 423.699 339.147C424.101 338.888 424.569 338.75 425.048 338.749C425.526 338.748 425.995 338.884 426.398 339.141C426.802 339.398 427.123 339.765 427.325 340.199C427.526 340.633 427.599 341.116 427.534 341.59L427.519 341.691C426.955 341.921 426.406 342.185 425.875 342.483C425.571 342.654 425.274 342.836 424.983 343.029C424.618 343.273 424.335 343.622 424.172 344.029C424.008 344.437 423.971 344.885 424.066 345.313C424.161 345.742 424.384 346.133 424.704 346.433C425.025 346.733 425.428 346.93 425.862 346.997L425.907 347.004L425.999 347.018C425.035 349.317 423.684 351.434 422.002 353.275C420.362 362.133 413.317 362.972 405.78 360.393H405.776C404.949 363.986 403.751 367.484 402.201 370.829H389.431C389.385 370.687 389.344 370.541 389.303 370.399C390.485 370.472 391.671 370.401 392.836 370.186C391.889 369.023 390.941 367.852 389.994 366.689C389.972 366.666 389.952 366.643 389.934 366.618C389.454 366.023 388.968 365.432 388.488 364.838C388.462 363.014 388.671 361.194 389.111 359.423L389.108 359.426Z" fill="#3E7CFF"/>
<path d="M7.82741e-06 370C-0.000603293 370.131 0.034576 370.262 0.103518 370.383C0.172459 370.505 0.273785 370.615 0.401695 370.708C0.529604 370.801 0.681564 370.875 0.848802 370.925C1.01604 370.975 1.19525 371 1.37614 371H444.624C444.989 371 445.339 370.895 445.597 370.707C445.855 370.52 446 370.265 446 370C446 369.735 445.855 369.48 445.597 369.293C445.339 369.105 444.989 369 444.624 369H1.37614C1.1953 369 1.01615 369.025 0.848978 369.075C0.681809 369.126 0.529926 369.199 0.402048 369.292C0.274169 369.385 0.172813 369.495 0.103818 369.617C0.0348216 369.738 -0.000449822 369.869 7.82741e-06 370Z" fill="#CCCCCC"/>
<path d="M154.434 370.641H29.403C22.0727 370.633 15.0451 367.717 9.8619 362.534C4.67868 357.35 1.76314 350.323 1.75488 342.992V74.2934C1.76314 66.9631 4.67868 59.9354 9.8619 54.752C15.0451 49.5687 22.0727 46.653 29.403 46.6445H154.434C161.764 46.653 168.791 49.5686 173.974 54.7518C179.158 59.935 182.073 66.9625 182.082 74.2927V342.992C182.074 350.323 179.158 357.35 173.975 362.534C168.792 367.717 161.764 370.633 154.434 370.641Z" fill="#3F3D56"/>
<path d="M182.082 145.482C181.772 145.483 181.474 145.606 181.255 145.825C181.036 146.045 180.913 146.342 180.912 146.652V184.081C180.912 184.391 181.036 184.689 181.255 184.908C181.474 185.127 181.772 185.251 182.082 185.251C182.392 185.251 182.689 185.127 182.909 184.908C183.128 184.689 183.251 184.391 183.251 184.081V146.652C183.251 146.342 183.127 146.045 182.908 145.825C182.689 145.606 182.392 145.483 182.082 145.482Z" fill="#3F3D56"/>
<path d="M179.449 74.2941V342.988C179.45 349.341 177.034 355.457 172.69 360.094C168.347 364.73 162.402 367.541 156.063 367.955H156.053C155.861 367.967 155.667 367.978 155.469 367.984C155.124 368.001 154.778 368.007 154.428 368.007C154.428 368.007 153.141 367.914 150.79 367.738C148.416 367.562 144.96 367.299 140.649 366.954C139.357 366.855 137.992 366.746 136.555 366.627C133.689 366.393 130.543 366.135 127.169 365.843C125.822 365.732 124.432 365.609 123.011 365.488C115.747 364.863 107.612 364.131 99.0329 363.301C97.5824 363.167 96.1204 363.026 94.6468 362.88C94.2606 362.839 93.8672 362.805 93.4775 362.764C87.36 362.161 4.38379 346.125 4.38379 342.991V74.2941C4.38379 67.6592 7.01948 61.2961 11.711 56.6046C16.4026 51.913 22.7657 49.2773 29.4005 49.2773H44.3419C45.489 49.2873 46.5903 49.7293 47.4261 50.5152C48.2618 51.3011 48.7707 52.3731 48.8512 53.5174C48.869 53.6755 48.8867 53.8335 48.9157 53.9908C49.154 55.1507 49.7899 56.191 50.7135 56.932C51.6371 57.673 52.7904 58.0683 53.9744 58.0495H129.862C131.046 58.0683 132.199 57.673 133.123 56.932C134.046 56.191 134.682 55.1507 134.92 53.9908C134.949 53.8328 134.967 53.6748 134.985 53.5174C135.065 52.3732 135.574 51.3013 136.41 50.5154C137.245 49.7296 138.346 49.2875 139.493 49.2773H154.43C157.716 49.2771 160.969 49.9239 164.005 51.181C167.04 52.4381 169.798 54.2808 172.121 56.6038C174.445 58.9269 176.288 61.6848 177.545 64.7201C178.802 67.7554 179.449 71.0087 179.449 74.2941Z" fill="white"/>
<path d="M1.16934 117.41C0.859326 117.411 0.562118 117.534 0.342906 117.753C0.123693 117.972 0.000375091 118.269 0 118.58L0 127.934C0 128.244 0.123198 128.542 0.342491 128.761C0.561785 128.98 0.859211 129.104 1.16934 129.104C1.47947 129.104 1.77689 128.98 1.99619 128.761C2.21548 128.542 2.33868 128.244 2.33868 127.934V118.58C2.3383 118.269 2.21498 117.972 1.99577 117.753C1.77656 117.534 1.47935 117.411 1.16934 117.41Z" fill="#3F3D56"/>
<path d="M1.16934 145.482C0.859326 145.483 0.562118 145.606 0.342906 145.825C0.123693 146.045 0.000375091 146.342 0 146.652L0 164.781C0 165.092 0.123198 165.389 0.342491 165.608C0.561785 165.828 0.859211 165.951 1.16934 165.951C1.47947 165.951 1.77689 165.828 1.99619 165.608C2.21548 165.389 2.33868 165.092 2.33868 164.781V146.652C2.3383 146.342 2.21498 146.045 1.99577 145.825C1.77656 145.606 1.47935 145.483 1.16934 145.482Z" fill="#3F3D56"/>
<path d="M1.16934 171.213C0.859326 171.213 0.562118 171.337 0.342906 171.556C0.123693 171.775 0.000375091 172.072 0 172.382L0 190.512C0 190.822 0.123198 191.119 0.342491 191.339C0.561785 191.558 0.859211 191.681 1.16934 191.681C1.47947 191.681 1.77689 191.558 1.99619 191.339C2.21548 191.119 2.33868 190.822 2.33868 190.512V172.382C2.3383 172.072 2.21498 171.775 1.99577 171.556C1.77656 171.337 1.47935 171.213 1.16934 171.213Z" fill="#3F3D56"/>
<path d="M43.9352 53.3711H21.5661C21.4448 53.3711 21.3464 53.4695 21.3464 53.5908V56.0755C21.3464 56.1968 21.4448 56.2951 21.5661 56.2951H43.9352C44.0566 56.2951 44.1549 56.1968 44.1549 56.0755V53.5908C44.1549 53.4695 44.0566 53.3711 43.9352 53.3711Z" fill="#E6E6E6"/>
<path d="M143.19 56.296C144.482 56.296 145.53 55.2486 145.53 53.9566C145.53 52.6646 144.482 51.6172 143.19 51.6172C141.898 51.6172 140.851 52.6646 140.851 53.9566C140.851 55.2486 141.898 56.296 143.19 56.296Z" fill="#E6E6E6"/>
<path d="M149.623 56.296C150.915 56.296 151.963 55.2486 151.963 53.9566C151.963 52.6646 150.915 51.6172 149.623 51.6172C148.331 51.6172 147.284 52.6646 147.284 53.9566C147.284 55.2486 148.331 56.296 149.623 56.296Z" fill="#E6E6E6"/>
<path d="M156.056 56.296C157.348 56.296 158.396 55.2486 158.396 53.9566C158.396 52.6646 157.348 51.6172 156.056 51.6172C154.764 51.6172 153.717 52.6646 153.717 53.9566C153.717 55.2486 154.764 56.296 156.056 56.296Z" fill="#E6E6E6"/>
<path d="M141.234 211.554H42.0176C41.2658 211.554 40.5448 211.256 40.0131 210.724C39.4815 210.192 39.1829 209.471 39.1829 208.72C39.1829 207.968 39.4815 207.247 40.0131 206.715C40.5448 206.183 41.2658 205.885 42.0176 205.885H141.234C141.986 205.885 142.707 206.183 143.239 206.715C143.77 207.247 144.069 207.968 144.069 208.72C144.069 209.471 143.77 210.192 143.239 210.724C142.707 211.256 141.986 211.554 141.234 211.554Z" fill="#E6E6E6"/>
<path d="M91.9817 321.403C114.683 321.403 133.086 303 133.086 280.299C133.086 257.598 114.683 239.195 91.9817 239.195C69.2806 239.195 50.8777 257.598 50.8777 280.299C50.8777 303 69.2806 321.403 91.9817 321.403Z" fill="#3E7CFF"/>
<path d="M98.5143 266.877C95.0453 267.019 91.1234 267.258 88.5601 269.919C86.3327 272.232 85.8444 275.663 88.103 278.132C90.3616 280.601 93.8894 280.942 96.4995 282.873C99.5653 285.141 99.116 289.627 96.1494 291.776C92.6513 294.31 88.1349 293.129 84.9365 290.717C84.1173 290.099 83.3214 291.483 84.1315 292.094C86.9967 294.254 90.7357 295.457 94.2778 294.423C95.8578 294.016 97.2742 293.132 98.3347 291.892C99.3951 290.652 100.048 289.116 100.205 287.492C100.335 285.865 99.8554 284.249 98.8587 282.956C97.7355 281.678 96.3134 280.698 94.7193 280.103C92.0567 278.94 87.4715 277.436 88.2461 273.653C89.1844 269.065 94.7661 268.631 98.5129 268.48C99.5356 268.438 99.5405 266.843 98.5129 266.885L98.5143 266.877Z" fill="white"/>
<path d="M92.0786 264.708L91.9255 299.712C91.9342 299.918 92.022 300.112 92.1706 300.254C92.3191 300.397 92.517 300.476 92.7228 300.476C92.9286 300.476 93.1265 300.397 93.275 300.254C93.4236 300.112 93.5114 299.918 93.5201 299.712L93.6732 264.708C93.6645 264.502 93.5767 264.308 93.4281 264.165C93.2796 264.023 93.0817 263.943 92.8759 263.943C92.6701 263.943 92.4722 264.023 92.3236 264.165C92.1751 264.308 92.0873 264.502 92.0786 264.708Z" fill="white"/>
<path d="M309.758 0H107.101C103.528 0.00356474 100.101 1.42484 97.574 3.95193C95.0469 6.47901 93.6256 9.90545 93.6221 13.4793V152.354C93.6256 155.928 95.0469 159.354 97.574 161.882C100.101 164.409 103.528 165.83 107.101 165.833H309.758C313.332 165.83 316.759 164.409 319.286 161.882C321.813 159.354 323.234 155.928 323.238 152.354V13.4793C323.234 9.90545 321.813 6.47901 319.286 3.95193C316.759 1.42484 313.332 0.00356474 309.758 0Z" fill="white"/>
<path d="M207.498 82.573C220.023 82.573 230.176 72.4196 230.176 59.8949C230.176 47.3701 220.023 37.2168 207.498 37.2168C194.973 37.2168 184.82 47.3701 184.82 59.8949C184.82 72.4196 194.973 82.573 207.498 82.573Z" fill="#3E7CFF"/>
<path d="M211.8 49.7773C208.993 49.8929 205.833 50.0707 203.709 52.16C201.95 53.8906 201.335 56.5843 202.951 58.6218C204.652 60.767 207.483 61.1731 209.705 62.5451C210.389 62.9225 210.963 63.4715 211.371 64.138C211.778 64.8045 212.006 65.5656 212.03 66.3465C212.038 67.1093 211.873 67.8639 211.546 68.5531C211.219 69.2423 210.739 69.8478 210.143 70.3237C207.203 72.712 203.198 71.7233 200.413 69.6348C199.866 69.2238 199.335 70.1465 199.877 70.5561C202.18 72.286 205.146 73.2903 208.012 72.5461C209.319 72.2525 210.505 71.5642 211.408 70.5744C212.311 69.5847 212.888 68.3413 213.061 67.0127C213.362 64.09 211.443 62.1 208.955 60.9576C206.68 59.9137 202.691 58.8018 203.067 55.5603C203.546 51.4378 208.595 50.9757 211.8 50.8432C212.482 50.8149 212.486 49.7518 211.8 49.7802L211.8 49.7773Z" fill="white"/>
<path d="M206.921 47.8479L206.793 77.0162C206.793 77.1572 206.849 77.2924 206.949 77.392C207.049 77.4917 207.184 77.5477 207.325 77.5477C207.466 77.5477 207.601 77.4917 207.701 77.392C207.8 77.2924 207.856 77.1572 207.856 77.0162L207.984 47.8479C207.984 47.707 207.928 47.5718 207.828 47.4721C207.729 47.3724 207.594 47.3164 207.453 47.3164C207.312 47.3164 207.176 47.3724 207.077 47.4721C206.977 47.5718 206.921 47.707 206.921 47.8479Z" fill="white"/>
<path d="M309.758 0H107.101C103.528 0.00356474 100.101 1.42484 97.574 3.95193C95.0469 6.47901 93.6256 9.90545 93.6221 13.4793V152.354C93.6256 155.928 95.0469 159.354 97.574 161.882C100.101 164.409 103.528 165.83 107.101 165.833H309.758C313.332 165.83 316.759 164.409 319.286 161.882C321.813 159.354 323.234 155.928 323.238 152.354V13.4793C323.234 9.90545 321.813 6.47901 319.286 3.95193C316.759 1.42484 313.332 0.00356474 309.758 0ZM321.82 152.354C321.818 155.552 320.546 158.619 318.285 160.881C316.023 163.142 312.957 164.414 309.758 164.416H107.101C103.903 164.414 100.837 163.142 98.575 160.881C96.3135 158.619 95.0419 155.552 95.0395 152.354V13.4793C95.0419 10.281 96.3135 7.21444 98.575 4.95293C100.837 2.69141 103.903 1.41982 107.101 1.41738H309.758C312.957 1.41982 316.023 2.69141 318.285 4.95293C320.546 7.21444 321.818 10.281 321.82 13.4793V152.354Z" fill="#3F3D56"/>
<path d="M185.064 13.7129H165.179C164.697 13.7129 164.234 13.9044 163.893 14.2453C163.552 14.5862 163.361 15.0486 163.361 15.5307C163.361 16.0128 163.552 16.4752 163.893 16.8161C164.234 17.157 164.697 17.3485 165.179 17.3485H185.064C185.547 17.3485 186.009 17.157 186.35 16.8161C186.691 16.4752 186.882 16.0128 186.882 15.5307C186.882 15.0486 186.691 14.5862 186.35 14.2453C186.009 13.9044 185.547 13.7129 185.064 13.7129Z" fill="#E6E6E6"/>
<path d="M218.373 13.7129H198.487C198.005 13.7129 197.543 13.9044 197.202 14.2453C196.861 14.5862 196.669 15.0486 196.669 15.5307C196.669 16.0128 196.861 16.4752 197.202 16.8161C197.543 17.157 198.005 17.3485 198.487 17.3485H218.373C218.855 17.3485 219.317 17.157 219.658 16.8161C219.999 16.4752 220.191 16.0128 220.191 15.5307C220.191 15.0486 219.999 14.5862 219.658 14.2453C219.317 13.9044 218.855 13.7129 218.373 13.7129Z" fill="#E6E6E6"/>
<path d="M251.681 13.7129H231.795C231.313 13.7129 230.851 13.9044 230.51 14.2453C230.169 14.5862 229.978 15.0486 229.978 15.5307C229.978 16.0128 230.169 16.4752 230.51 16.8161C230.851 17.157 231.313 17.3485 231.795 17.3485H251.681C252.163 17.3485 252.626 17.157 252.967 16.8161C253.307 16.4752 253.499 16.0128 253.499 15.5307C253.499 15.0486 253.307 14.5862 252.967 14.2453C252.626 13.9044 252.163 13.7129 251.681 13.7129Z" fill="#E6E6E6"/>
<path d="M284.48 95.3301H132.383C129.341 95.332 126.424 96.5414 124.272 98.6927C122.121 100.844 120.912 103.761 120.91 106.804V117.165C120.912 120.207 122.121 123.125 124.272 125.276C126.424 127.427 129.341 128.637 132.383 128.639H284.482C287.525 128.637 290.442 127.427 292.593 125.276C294.745 123.125 295.954 120.207 295.956 117.165V106.804C295.954 103.761 294.745 100.844 292.593 98.6927C290.442 96.5414 287.525 95.332 284.482 95.3301H284.48Z" fill="#3E7CFF"/>
<path d="M51.8611 149.881L46.0286 147.117C48.4211 150.455 50.482 155.669 51.5854 159.818C53.4542 155.953 56.4662 151.224 59.4476 148.4L53.282 149.986C57.0806 131.37 71.3671 118.005 87.7243 118.005V116.588C70.6407 116.589 55.7397 130.513 51.8611 149.881Z" fill="#3F3D56"/>
<path d="M78.7057 178.248H41.8538C41.102 178.248 40.3809 177.949 39.8493 177.417C39.3177 176.886 39.019 176.165 39.019 175.413C39.019 174.661 39.3177 173.94 39.8493 173.408C40.3809 172.877 41.102 172.578 41.8538 172.578H78.7057C79.4575 172.578 80.1785 172.877 80.7102 173.408C81.2418 173.94 81.5404 174.661 81.5404 175.413C81.5404 176.165 81.2418 176.886 80.7102 177.417C80.1785 177.949 79.4575 178.248 78.7057 178.248Z" fill="#E6E6E6"/>
<path d="M323.857 169.015L323.485 197.957L316.284 223.757L310.527 221.61L313.083 197.961L312.747 165.959L323.857 169.015Z" fill="#FFB6B6"/>
<path d="M316.259 227.917C316.935 224.207 315.697 220.875 313.494 220.474C311.292 220.073 308.959 222.755 308.283 226.465C307.608 230.174 308.846 233.507 311.048 233.908C313.251 234.309 315.584 231.627 316.259 227.917Z" fill="#FFB6B6"/>
<path d="M315.118 134.555C315.118 134.555 327.454 134.725 327.443 141.278C327.438 144.978 326.643 178.571 324.431 198.98C322.726 214.717 319.471 218.823 319.471 218.823L311.675 201.106L315.117 134.555L315.118 134.555Z" fill="#3E7CFF"/>
<path d="M314.8 193.687H273.139C276.63 185.891 278.778 178.473 275.421 172.568L314.8 170.285C312.833 178.255 312.592 186.075 314.8 193.687Z" fill="#FFB6B6"/>
<path d="M309.665 124.628L293.115 123.486L286.266 132.047L282.793 132.679C280.276 133.136 278.011 134.49 276.415 136.49C274.82 138.489 274.003 140.999 274.115 143.554L275.466 174.25L315.026 177.134L324.504 137.164L313.09 132.62L309.665 124.63L309.665 124.628Z" fill="#3E7CFF"/>
<path d="M208.731 133.888C209.818 134.837 210.661 136.032 211.19 137.374L223.012 146.729L218.394 152.224L206.9 142.141C205.51 141.757 204.232 141.046 203.173 140.067C200.491 137.654 199.559 134.313 201.097 132.606C202.635 130.899 206.052 131.472 208.734 133.882L208.731 133.888Z" fill="#FFB6B6"/>
<path d="M292.312 141.764L247.015 172.354L214.545 149.758L219.42 140.927L244.976 155.779L268.543 137.684C276.935 129.797 287.453 131.325 292.312 141.764Z" fill="#3E7CFF"/>
<path d="M300.408 120.923C307.189 120.923 312.686 115.425 312.686 108.644C312.686 101.863 307.189 96.3652 300.408 96.3652C293.626 96.3652 288.129 101.863 288.129 108.644C288.129 115.425 293.626 120.923 300.408 120.923Z" fill="#FFB6B6"/>
<path d="M317.097 105.629V108.011L303.249 104.113L292.867 106.288C292.747 104.704 292.28 103.165 291.499 101.781C292.041 103.987 292.102 105.692 291.528 106.572L290.132 106.863C289.904 106.239 289.465 105.715 288.891 105.381C288.864 105.361 288.833 105.347 288.8 105.339C288.767 105.332 288.733 105.332 288.7 105.339C288.601 105.374 288.594 105.502 288.594 105.601C288.608 106.125 288.622 106.65 288.643 107.174L284.632 108.011V105.629C280.784 96.9706 290.927 89.4784 300.868 89.4004C303 89.3981 305.111 89.8163 307.082 90.631C309.052 91.4458 310.842 92.6411 312.349 94.1486C313.857 95.656 315.052 97.446 315.867 99.4161C316.681 101.386 317.1 103.498 317.097 105.629Z" fill="#2F2E41"/>
<path d="M324.887 133.549L323.841 133.463C323.915 133.12 323.99 132.783 324.058 132.442C324.638 129.571 323.362 125.922 323.268 123.158C322.776 126.071 323.617 129.655 322.746 132.421C322.649 132.729 318.865 134.711 318.761 135.015C314.573 133.483 310.212 128.59 305.273 131.448C302.353 133.138 299.02 132.398 295.706 131.624C294.885 131.432 294.771 127.379 293.958 127.219C292.503 126.936 290.367 130.621 288.998 130.763L294.667 108.793C294.667 96.8419 293.56 84.3031 308.699 88.529C312.507 89.592 316.275 90.4247 319.086 93.5678C322.112 97.1232 324.031 101.487 324.606 106.121C325.031 109.142 327.701 119.401 324.889 133.547L324.887 133.549Z" fill="#2F2E41"/>
<path d="M315.111 354.473L308.352 354.632L304.585 324.269L314.559 324.033L315.111 354.473Z" fill="#FFB7B7"/>
<path d="M291.923 368.573C291.891 369.087 292.064 369.592 292.403 369.979C292.742 370.366 293.22 370.604 293.733 370.64H307.147C307.65 368.967 308.51 367.422 309.667 366.112C310.824 364.802 312.251 363.757 313.849 363.05L314.221 370.64H321.141L320.303 358.435C320.303 358.435 322.154 351.905 318.309 348.568C314.464 345.23 317.578 345.695 317.578 345.695L316.066 338.141L305.609 339.37L305.532 351.228L300.457 362.998L293.016 366.675C292.677 366.859 292.395 367.135 292.203 367.469C292.01 367.804 291.914 368.186 291.925 368.572L291.923 368.573Z" fill="#2F2E41"/>
<path d="M294.549 349.526L288.052 351.395L276.703 322.982L286.291 320.223L294.549 349.526Z" fill="#FFB7B7"/>
<path d="M275.698 369.047C275.798 369.552 276.093 369.997 276.519 370.285C276.945 370.574 277.468 370.683 277.973 370.588L290.949 367.186C291.012 365.439 291.452 363.727 292.238 362.166C293.025 360.605 294.14 359.233 295.506 358.143L297.792 365.391L304.485 363.635L300.577 352.042C300.577 352.042 300.711 345.256 296.145 343.003C291.579 340.75 294.709 340.41 294.709 340.41L291.329 333.486L281.526 337.33L284.461 348.819L282.539 361.492L276.272 366.937C275.991 367.202 275.788 367.54 275.687 367.913C275.586 368.285 275.589 368.679 275.698 369.05L275.698 369.047Z" fill="#2F2E41"/>
<path d="M310.967 191.891L315.219 193.308C321.867 205.587 324.686 221.892 324.312 241.554L316.759 329.865H304.402L295.359 231.483L279.413 268.406L291.08 329.861L279.413 331.05L255.915 267.151L272.28 192.88L310.967 191.891V191.891Z" fill="#2F2E41"/>
</svg>
