<svg width="446" height="371" viewBox="0 0 446 371" fill="none" xmlns="http://www.w3.org/2000/svg">
<path d="M430.391 155.314C408.087 183.286 366.001 189.691 331.178 179.949C319.784 176.683 308.792 172.195 298.401 166.567C292.365 163.352 286.474 159.826 280.703 156.069C279.283 155.148 277.863 154.214 276.458 153.26C275.5 152.618 274.545 151.969 273.594 151.311C261.676 143.088 250.226 134.068 238.968 125.099C210.864 102.711 181.99 79.6338 147.461 68.9519C140.347 66.7522 131.144 65.7232 126.745 71.633C122.928 76.7639 125.258 84.0284 128.488 89.5322C140.468 109.919 162.213 122.791 183.978 132.689C205.743 142.588 228.798 150.608 247.718 165.08C266.639 179.552 281.083 202.554 277.213 225.773C273.878 245.782 257.22 262.039 237.851 269.124C218.483 276.209 196.882 275.217 176.749 270.62C156.616 266.022 137.503 257.989 118.072 251.069C106.357 246.891 91.0415 244.002 83.2683 253.561C76.7032 261.637 80.4767 274.377 88.4713 281.099C96.4659 287.821 107.286 290.072 117.61 292.092C149.665 298.37 181.721 304.647 213.776 310.921C223.609 312.843 233.674 314.853 242.241 319.97C250.808 325.087 257.72 334.013 257.475 343.845C257.229 353.536 249.995 362.098 241.129 366.389C232.263 370.68 222.036 371.336 212.164 370.873C175.17 369.136 69.1129 311.497 43.6756 304.129C27.3302 299.399 9.45905 292.451 2.56665 277.167C-6.01515 258.14 8.10656 235.119 27.3831 226.429C46.6597 217.739 68.9974 219.66 90.0019 222.587C111.006 225.513 132.704 229.237 153.15 223.677C173.596 218.117 192.329 199.991 190.312 179.278C188.555 161.256 172.003 147.676 154.584 141.691C140.949 137.004 126.442 135.729 112.119 133.619C108.143 133.039 104.182 132.387 100.259 131.585C90.2131 129.521 80.4137 126.436 71.0194 122.38C61.1613 118.134 51.796 112.863 43.084 106.657C36.1354 101.715 29.6417 96.1855 23.6775 90.1317C22.7678 89.2065 21.8678 88.2609 20.9773 87.2948C20.1302 86.3696 19.2927 85.4256 18.4745 84.4626C7.82788 71.987 -0.0367691 56.6226 2.32166 40.7909C4.67528 25.0016 17.2231 11.8557 32.163 5.54001C40.7978 1.89125 50.1112 0.258044 59.5401 0.0220318C66.4345 -0.113093 73.3271 0.373565 80.1307 1.47587C111.613 6.41325 140.463 21.4142 167.71 37.6566C194.957 53.899 221.502 71.7274 251.117 83.3062C280.732 94.8849 314.443 99.794 344.487 89.3198C374.53 78.8455 399.212 50.2833 397.744 19.0494C417.67 35.8771 434.603 57.0285 442.102 81.7438C449.601 106.459 446.587 134.998 430.391 155.314Z" fill="#3F3D56"/>
<path d="M281.244 123.03C283.141 123.03 284.679 121.492 284.679 119.595C284.679 117.698 283.141 116.16 281.244 116.16C279.347 116.16 277.809 117.698 277.809 119.595C277.809 121.492 279.347 123.03 281.244 123.03Z" fill="#3E7CFF"/>
<path d="M321.521 105.497C324.454 105.497 326.831 103.119 326.831 100.186C326.831 97.2528 324.454 94.875 321.521 94.875C318.588 94.875 316.21 97.2528 316.21 100.186C316.21 103.119 318.588 105.497 321.521 105.497Z" fill="#FF6584"/>
<path d="M54.2324 243.338C55.316 243.338 56.1944 242.46 56.1944 241.376C56.1944 240.292 55.316 239.414 54.2324 239.414C53.1489 239.414 52.2705 240.292 52.2705 241.376C52.2705 242.46 53.1489 243.338 54.2324 243.338Z" fill="#FF6584"/>
<path d="M110.552 128.566C110.553 130.268 110.347 131.964 109.939 133.617C106.04 133.036 102.156 132.385 98.3095 131.582C88.4588 129.518 78.8498 126.433 69.6382 122.378C71.1193 117.594 74.2664 113.5 78.5081 110.84C82.7499 108.179 87.805 107.127 92.7558 107.876C97.7067 108.625 102.225 111.124 105.49 114.921C108.756 118.717 110.552 123.558 110.552 128.566V128.566Z" fill="#FF6584"/>
<path d="M184.964 331.646C186.073 331.646 186.971 330.748 186.971 329.64C186.971 328.531 186.073 327.633 184.964 327.633C183.856 327.633 182.958 328.531 182.958 329.64C182.958 330.748 183.856 331.646 184.964 331.646Z" fill="#F0F0F0"/>
<path d="M213.754 359.494C214.862 359.494 215.761 358.596 215.761 357.487C215.761 356.379 214.862 355.48 213.754 355.48C212.646 355.48 211.747 356.379 211.747 357.487C211.747 358.596 212.646 359.494 213.754 359.494Z" fill="#F0F0F0"/>
<path d="M35.8266 280.197C36.9349 280.197 37.8333 279.299 37.8333 278.19C37.8333 277.082 36.9349 276.184 35.8266 276.184C34.7183 276.184 33.8198 277.082 33.8198 278.19C33.8198 279.299 34.7183 280.197 35.8266 280.197Z" fill="#F0F0F0"/>
<path d="M134.465 242.908C135.574 242.908 136.472 242.01 136.472 240.901C136.472 239.793 135.574 238.895 134.465 238.895C133.357 238.895 132.458 239.793 132.458 240.901C132.458 242.01 133.357 242.908 134.465 242.908Z" fill="#F0F0F0"/>
<path d="M124.555 43.7205C125.663 43.7205 126.561 42.8221 126.561 41.7138C126.561 40.6055 125.663 39.707 124.555 39.707C123.446 39.707 122.548 40.6055 122.548 41.7138C122.548 42.8221 123.446 43.7205 124.555 43.7205Z" fill="#F0F0F0"/>
<path d="M245.847 200.896C246.955 200.896 247.854 199.998 247.854 198.89C247.854 197.781 246.955 196.883 245.847 196.883C244.739 196.883 243.84 197.781 243.84 198.89C243.84 199.998 244.739 200.896 245.847 200.896Z" fill="#F0F0F0"/>
<path d="M260.95 235.83C262.058 235.83 262.956 234.931 262.956 233.823C262.956 232.715 262.058 231.816 260.95 231.816C259.841 231.816 258.943 232.715 258.943 233.823C258.943 234.931 259.841 235.83 260.95 235.83Z" fill="#F0F0F0"/>
<path d="M80.2328 49.1521C80.2476 59.1101 77.849 68.929 73.235 77.7989C72.625 78.9678 71.9788 80.1165 71.2964 81.2452C64.5396 92.4389 54.4303 101.318 42.345 106.673C35.5188 101.817 29.1396 96.3828 23.2805 90.4339C22.3869 89.5248 21.5027 88.5956 20.6279 87.6462C19.7958 86.7371 18.973 85.8094 18.1692 84.8632C7.71022 72.6039 -0.015821 57.5059 2.30104 41.9486C4.61318 26.4332 16.9399 13.5152 31.6165 7.30902C40.0991 3.72353 49.2483 2.11864 58.511 1.88672C65.7535 8.16112 71.4631 15.9546 75.2161 24.6891C75.689 25.7884 76.124 26.9016 76.5353 28.0288C78.9892 34.8109 80.2398 41.9554 80.2328 49.1521V49.1521Z" fill="#3E7CFF"/>
<path d="M109.325 51.4244C109.325 61.2564 99.7249 70.3757 82.2909 77.1112C78.8031 78.4612 75.0699 79.6837 71.1433 80.7788C56.4465 84.8758 38.9558 87.1462 20.5684 87.2925C19.7378 86.3674 18.9166 85.4233 18.1143 84.4604C18.3125 84.4652 18.5107 84.4652 18.7089 84.4652C38.6774 84.4652 57.6217 81.9352 73.0783 77.2717C75.9336 76.4079 78.671 75.4734 81.2714 74.468C97.2991 68.2799 106.493 59.8781 106.493 51.4244C106.493 42.9707 97.2991 34.5737 81.2714 28.3809C79.6857 27.7673 78.0527 27.182 76.3725 26.625C75.9619 25.4781 75.5277 24.3452 75.0558 23.2266C77.5666 24.0101 79.9783 24.8471 82.2909 25.7377C99.7254 32.4732 109.325 41.5972 109.325 51.4244Z" fill="#E4E4E4"/>
<path d="M21.6679 16.3416C22.7762 16.3416 23.6746 15.4432 23.6746 14.3349C23.6746 13.2266 22.7762 12.3281 21.6679 12.3281C20.5596 12.3281 19.6611 13.2266 19.6611 14.3349C19.6611 15.4432 20.5596 16.3416 21.6679 16.3416Z" fill="#F0F0F0"/>
<path d="M63.6723 29.0877C64.7806 29.0877 65.679 28.1893 65.679 27.081C65.679 25.9727 64.7806 25.0742 63.6723 25.0742C62.564 25.0742 61.6655 25.9727 61.6655 27.081C61.6655 28.1893 62.564 29.0877 63.6723 29.0877Z" fill="#F0F0F0"/>
<path d="M41.9612 66.8927C52.7388 66.8927 61.4757 58.1548 61.4757 47.3761C61.4757 36.5973 52.7388 27.8594 41.9612 27.8594C31.1837 27.8594 22.4468 36.5973 22.4468 47.3761C22.4468 58.1548 31.1837 66.8927 41.9612 66.8927Z" fill="#F0F0F0"/>
<path opacity="0.3" d="M317.688 164.262C313.308 165.555 303.652 166.508 293.033 167.093C282.414 167.679 270.775 167.929 259.278 168.174C239.154 168.608 219.032 169.044 198.91 169.482C196.144 169.544 193.369 169.601 190.585 169.651C189.193 168.731 187.8 167.797 186.422 166.843C188.891 166.857 191.359 166.843 193.808 166.796C204.272 166.588 213.13 165.772 223.221 165.385C238.748 164.786 255.512 165.258 271.695 165.498C287.879 165.739 306.316 165.654 317.688 164.262Z" fill="#F0F0F0"/>
<path opacity="0.3" d="M93.4862 299.462L29.3374 246.016L91.6569 301.602C91.7775 301.806 91.9449 301.977 92.1451 302.103C92.3454 302.229 92.5727 302.305 92.8083 302.325C93.0439 302.346 93.2809 302.309 93.4997 302.22C93.7185 302.13 93.9127 301.99 94.0664 301.81C94.22 301.63 94.3285 301.416 94.383 301.186C94.4375 300.956 94.4363 300.716 94.3796 300.487C94.3229 300.257 94.2122 300.044 94.0568 299.866C93.9015 299.688 93.7058 299.549 93.4862 299.462Z" fill="#F0F0F0"/>
<path d="M44.7939 97.0604C45.9022 97.0604 46.8006 96.1619 46.8006 95.0536C46.8006 93.9453 45.9022 93.0469 44.7939 93.0469C43.6856 93.0469 42.7871 93.9453 42.7871 95.0536C42.7871 96.1619 43.6856 97.0604 44.7939 97.0604Z" fill="#F0F0F0"/>
<path d="M213.332 327.602H221.63L225.579 295.582H213.331L213.332 327.602Z" fill="#FFB6B6"/>
<path d="M211.215 324.89H213.551L222.673 321.18L227.562 324.889C230.324 324.889 232.973 325.986 234.927 327.94C236.88 329.893 237.978 332.542 237.979 335.305V335.644H211.215V324.89Z" fill="#2F2E41"/>
<path d="M151.171 327.602H142.871L138.922 295.582H151.172L151.171 327.602Z" fill="#FFB6B6"/>
<path d="M153.288 335.646H126.523V335.307C126.524 332.544 127.621 329.895 129.574 327.941C131.528 325.987 134.177 324.889 136.94 324.889L141.829 321.18L150.95 324.89H153.287L153.288 335.646Z" fill="#2F2E41"/>
<path d="M180.912 82.207L172.507 88.6075L150.184 94.5208C150.184 94.5208 158.183 150.671 154.408 154.447C150.632 158.223 154.037 158.325 153.279 163.23C152.52 168.136 149.497 181.087 149.497 181.087H216.129C216.129 181.087 216.666 173.038 213.382 171.295C210.097 169.552 216.41 161.416 213.725 160.056C211.041 158.696 214.816 146.896 214.816 146.896L222.999 108.262L201.235 91.2314L197.925 83.2544L180.912 82.207Z" fill="#3E7CFF"/>
<path d="M191.399 132.386C193.005 132.386 194.307 131.084 194.307 129.478C194.307 127.872 193.005 126.57 191.399 126.57C189.793 126.57 188.491 127.872 188.491 129.478C188.491 131.084 189.793 132.386 191.399 132.386Z" fill="#F2F2F2"/>
<path d="M149.495 181.086L146.747 251.851C146.747 251.851 134.883 304.116 136.944 305.49C139.005 306.864 139.877 315.058 139.877 315.058L151.555 316.432C151.555 316.432 151.555 310.935 154.303 308.874C157.051 306.813 182.468 209.941 182.468 209.941L207.265 303.601C207.265 303.601 207.885 308.873 209.946 308.873C212.007 308.873 212.694 316.431 212.694 316.431H224.372V308.874C224.372 308.874 229.619 307.21 227.559 301.714C225.498 296.218 216.129 181.086 216.129 181.086H149.495Z" fill="#C0C0C0"/>
<path d="M189.64 77.9889C197.418 77.9889 203.723 71.6832 203.723 63.9046C203.723 56.1261 197.418 49.8203 189.64 49.8203C181.863 49.8203 175.558 56.1261 175.558 63.9046C175.558 71.6832 181.863 77.9889 189.64 77.9889Z" fill="#FFB6B6"/>
<path opacity="0.1" d="M213.725 127.159L216.473 129.22L217.847 119.602L213.725 127.159Z" fill="black"/>
<path d="M151.499 94.468C151.499 94.468 148.064 93.7808 146.004 99.9641C143.943 106.147 136.386 129.506 136.386 133.629C136.386 137.751 183.445 155.939 183.445 155.939L178.548 138.76L156.995 127.446L151.499 94.468Z" fill="#3E7CFF"/>
<path d="M185.628 153.392C190.059 153.392 193.651 149.8 193.651 145.368C193.651 140.936 190.059 137.344 185.628 137.344C181.197 137.344 177.604 140.936 177.604 145.368C177.604 149.8 181.197 153.392 185.628 153.392Z" fill="#FFB6B6"/>
<path opacity="0.1" d="M156.366 118.934L156.994 127.443L176.926 137.906L159.198 126.014L156.366 118.934Z" fill="black"/>
<path d="M204.281 120.149H204.022V113.065C204.022 111.977 203.59 110.935 202.821 110.166C202.052 109.397 201.01 108.965 199.923 108.965H184.914C183.827 108.965 182.784 109.397 182.016 110.166C181.247 110.935 180.815 111.977 180.815 113.065V151.929C180.815 153.016 181.247 154.059 182.016 154.828C182.784 155.597 183.827 156.029 184.914 156.029H199.923C201.01 156.029 202.052 155.597 202.821 154.828C203.59 154.059 204.022 153.016 204.022 151.929V125.192H204.281V120.149Z" fill="#F0F0F0"/>
<path d="M222.999 108.266C222.999 108.266 225.06 109.64 226.434 115.823C227.808 122.006 236.739 145.365 233.304 150.862C229.869 156.358 228.855 162.224 217.177 153.98L201.017 139.182L212.695 128.189L217.504 131.624L222.999 108.266Z" fill="#3E7CFF"/>
<path d="M192.602 126.284C194.499 126.284 196.037 124.746 196.037 122.849C196.037 120.952 194.499 119.414 192.602 119.414C190.705 119.414 189.167 120.952 189.167 122.849C189.167 124.746 190.705 126.284 192.602 126.284Z" fill="#3E7CFF"/>
<path d="M202.546 138.404C206.977 138.404 210.569 134.811 210.569 130.38C210.569 125.948 206.977 122.355 202.546 122.355C198.115 122.355 194.523 125.948 194.523 130.38C194.523 134.811 198.115 138.404 202.546 138.404Z" fill="#FFB6B6"/>
<path opacity="0.1" d="M155.988 144.617L179.021 154.808L155.348 150.182L155.988 144.617Z" fill="black"/>
<path d="M175.434 66.7138L173.499 59.3542C172.994 57.4341 172.485 55.4747 172.598 53.4928C172.712 51.5108 173.553 49.4651 175.223 48.3913C176.892 47.3175 179.441 47.5709 180.516 49.2409C180.72 46.575 183.145 44.5246 185.718 43.7982C188.291 43.0717 191.022 43.3592 193.694 43.4814C196.366 43.6037 199.183 43.5183 201.488 42.1641C201.664 42.6911 201.652 43.2626 201.455 43.7821C201.258 44.3015 200.888 44.7372 200.408 45.0155C200.981 45.1724 201.592 45.1056 202.118 44.8284C202.644 44.5513 203.045 44.0846 203.239 43.523C203.257 45.0668 202.686 46.5594 201.644 47.6979C202.638 47.2045 203.781 47.0988 204.849 47.4013C205.917 47.7039 206.835 48.3931 207.423 49.3348C208.599 51.3744 207.942 53.9355 207.252 56.187L203.72 67.7428C203.185 65.9859 203.084 64.1314 202.797 62.3175C202.511 60.5035 202.001 58.6509 200.804 57.2585C199.606 55.866 197.573 55.0594 195.871 55.7509C194.917 56.1389 194.189 56.9257 193.327 57.4907C191.559 58.6495 189.31 58.8156 187.209 58.5801C185.108 58.3446 183.061 57.7461 180.96 57.5072C179.645 57.3576 178.176 57.3972 177.184 58.2733C176.502 58.9825 176.051 59.8825 175.892 60.8538C175.424 62.79 175.24 64.784 175.346 66.7733" fill="#2F2E41"/>
</svg>
