<svg width="447" height="371" viewBox="0 0 447 371" fill="none" xmlns="http://www.w3.org/2000/svg">
<path d="M82.9281 190.259C98.434 190.259 111.004 177.689 111.004 162.183C111.004 146.677 98.434 134.107 82.9281 134.107C67.4221 134.107 54.8521 146.677 54.8521 162.183C54.8521 177.689 67.4221 190.259 82.9281 190.259Z" fill="#FF6584"/>
<path d="M256.907 193.979C256.907 249.254 224.047 268.554 183.512 268.554C142.977 268.554 110.117 249.254 110.117 193.979C110.117 138.704 183.512 68.3867 183.512 68.3867C183.512 68.3867 256.907 138.705 256.907 193.979Z" fill="#3E7CFF"/>
<path d="M180.841 259.925L181.592 213.665L212.875 156.435L181.71 206.409L182.048 185.609L203.608 144.204L182.138 180.104L182.746 142.694L205.833 109.73L182.842 136.811L183.221 68.2109L180.835 159.021L181.035 155.275L157.562 119.346L180.662 162.466L178.475 204.247L178.41 203.138L151.351 165.328L178.329 207.055L178.055 212.28L178.006 212.359L178.028 212.788L172.479 318.788H179.884L180.774 264.036L207.684 222.416L180.841 259.925Z" fill="#3F3D56"/>
<path d="M327.753 246.013C327.753 301.288 294.893 320.588 254.358 320.588C213.823 320.588 180.963 301.288 180.963 246.013C180.963 190.738 254.358 120.424 254.358 120.424C254.358 120.424 327.753 190.738 327.753 246.013Z" fill="#3F3D56"/>
<path d="M251.68 312.133L252.432 265.873L283.714 208.643L252.55 258.616L252.888 237.816L274.448 196.411L252.977 232.311L253.585 194.9L276.672 161.937L253.681 189.018L254.061 120.418L251.674 211.229L251.874 207.483L228.401 171.554L251.501 214.674L249.314 256.455L249.249 255.346L222.19 217.537L249.168 259.264L248.895 264.489L248.846 264.568L248.868 264.997L243.319 370.997H250.733L251.623 316.245L278.534 274.62L251.68 312.133Z" fill="#F2F2F2"/>
<path d="M189.663 246.013C189.663 301.288 156.803 320.588 116.268 320.588C75.7331 320.588 42.873 301.288 42.873 246.013C42.873 190.738 116.268 120.424 116.268 120.424C116.268 120.424 189.663 190.738 189.663 246.013Z" fill="#3F3D56"/>
<path d="M113.622 312.133L114.374 265.873L145.657 208.643L114.492 258.616L114.83 237.816L136.39 196.411L114.92 232.311L115.527 194.9L138.614 161.937L115.623 189.018L116.003 120.418L113.617 211.229L113.817 207.483L90.3451 171.554L113.445 214.674L111.258 256.455L111.193 255.346L84.1331 217.537L111.104 259.267L110.831 264.492L110.782 264.571L110.804 265L105.255 371H112.669L113.559 316.248L140.471 274.623L113.622 312.133Z" fill="#F2F2F2"/>
<path d="M185.335 370.532C150.232 370.532 116.214 358.361 89.0789 336.091C61.9437 313.822 43.3695 282.833 36.5211 248.404C29.6728 213.975 34.9741 178.237 51.5217 147.279C68.0693 116.32 94.8394 92.0573 127.271 78.6239C159.702 65.1904 195.788 63.4177 229.38 73.6077C262.971 83.7978 291.991 105.32 311.493 134.507C330.995 163.695 339.774 198.741 336.333 233.676C332.892 268.61 317.445 301.271 292.623 326.092C264.168 354.547 225.576 370.532 185.335 370.532ZM185.335 68.2323C102.31 68.2323 34.7649 135.777 34.7649 218.802C34.7649 301.827 102.31 369.375 185.335 369.375C268.36 369.375 335.906 301.829 335.906 218.804C335.906 135.779 268.36 68.2323 185.335 68.2323Z" fill="#2F2E41"/>
<path d="M309.402 305.369V369.981H61.2891V305.369L185.345 240.756L185.604 240.89L309.402 305.369Z" fill="#F2F2F2"/>
<path opacity="0.1" d="M309.475 305.366V369.978H185.675V240.891L309.475 305.366Z" fill="black"/>
<path d="M174.797 280.37L165.497 283.883V270.031L174.797 265.953V280.37Z" fill="#3F3D56"/>
<path d="M71.883 319.068L68.783 320.241V311.832L71.883 310.461V319.068Z" fill="#3F3D56"/>
<path d="M82.7401 315.447L79.1221 316.803V307.693L82.7401 306.105V315.447Z" fill="#3F3D56"/>
<path d="M94.658 310.796L90.5229 312.351V302.525L94.658 300.705V310.796Z" fill="#3F3D56"/>
<path d="M109.132 305.161L103.963 307.112V296.891L109.132 294.623V305.161Z" fill="#3F3D56"/>
<path d="M126.712 298.447L120.512 300.791V289.66L126.712 286.939V298.447Z" fill="#3F3D56"/>
<path d="M147.914 290.7L140.674 293.428V280.879L147.914 277.707V290.7Z" fill="#3F3D56"/>
<path d="M71.883 336.125L68.783 336.905V328.372L71.883 327.391V336.125Z" fill="#3F3D56"/>
<path d="M82.7401 333.54L79.1221 334.446V325.27L82.7401 324.129V333.54Z" fill="#3F3D56"/>
<path d="M94.658 330.439L90.5229 331.478V321.65L94.658 320.35V330.439Z" fill="#3F3D56"/>
<path d="M109.132 326.82L103.963 328.12V317.52L109.132 315.893V326.82Z" fill="#3F3D56"/>
<path d="M126.712 322.169L120.512 323.734V312.347L126.712 310.396V322.169Z" fill="#3F3D56"/>
<path d="M147.911 316.999L140.157 318.949V306.149L147.911 303.709V316.999Z" fill="#3F3D56"/>
<path d="M174.797 310.328L165.497 312.667V298.439L174.797 295.52V310.328Z" fill="#3F3D56"/>
<path d="M174.797 339.743L165.497 340.927V326.822L174.797 325.062V339.743Z" fill="#3F3D56"/>
<path d="M71.883 352.665L68.783 353.065V344.913L71.883 344.322V352.665Z" fill="#3F3D56"/>
<path d="M82.7401 351.632L79.1221 352.088V343.361L82.7401 342.682V351.632Z" fill="#3F3D56"/>
<path d="M94.658 350.084L90.5229 350.607V340.78L94.658 339.992V350.084Z" fill="#3F3D56"/>
<path d="M109.132 348.012L103.963 348.673V338.191L109.132 337.205V348.012Z" fill="#3F3D56"/>
<path d="M126.712 345.946L120.512 346.733V335.091L126.712 333.91V345.946Z" fill="#3F3D56"/>
<path d="M147.911 343.362L140.157 344.342V331.478L147.911 330.006V343.362Z" fill="#3F3D56"/>
<path d="M299.408 319.068L302.508 320.241V311.832L299.408 310.461V319.068Z" fill="#3F3D56"/>
<path d="M288.55 315.447L292.169 316.803V307.693L288.55 306.105V315.447Z" fill="#3F3D56"/>
<path d="M276.658 310.796L280.793 312.351V302.525L276.658 300.705V310.796Z" fill="#3F3D56"/>
<path d="M262.178 305.161L267.347 307.112V296.891L262.178 294.623V305.161Z" fill="#3F3D56"/>
<path d="M244.601 298.447L250.801 300.791V289.66L244.601 286.939V298.447Z" fill="#3F3D56"/>
<path d="M223.403 290.7L230.64 293.426V280.879L223.403 277.707V290.7Z" fill="#3F3D56"/>
<path d="M299.408 336.125L302.508 336.905V328.372L299.408 327.391V336.125Z" fill="#3F3D56"/>
<path d="M288.55 333.54L292.169 334.446V325.27L288.55 324.129V333.54Z" fill="#3F3D56"/>
<path d="M276.658 330.439L280.793 331.478V321.65L276.658 320.35V330.439Z" fill="#3F3D56"/>
<path d="M262.178 326.82L267.347 328.12V317.52L262.178 315.893V326.82Z" fill="#3F3D56"/>
<path d="M244.601 322.169L250.801 323.734V312.347L244.601 310.396V322.169Z" fill="#3F3D56"/>
<path d="M223.403 316.999L231.157 318.949V306.149L223.403 303.709V316.999Z" fill="#3F3D56"/>
<path d="M196.512 310.328L205.812 312.667V298.439L196.512 295.52V310.328Z" fill="#3F3D56"/>
<path d="M196.512 339.743L205.812 340.927V326.822L196.512 325.062V339.743Z" fill="#3F3D56"/>
<path d="M299.408 352.665L302.508 353.065V344.913L299.408 344.322V352.665Z" fill="#3F3D56"/>
<path d="M288.55 351.632L292.169 352.088V343.361L288.55 342.682V351.632Z" fill="#3F3D56"/>
<path d="M276.658 350.084L280.793 350.607V340.78L276.658 339.992V350.084Z" fill="#3F3D56"/>
<path d="M262.178 348.012L267.347 348.673V338.191L262.178 337.205V348.012Z" fill="#3F3D56"/>
<path d="M244.601 345.946L250.801 346.733V335.091L244.601 333.91V345.946Z" fill="#3F3D56"/>
<path d="M223.403 343.362L231.157 344.342V331.478L223.403 330.006V343.362Z" fill="#3F3D56"/>
<path d="M205.303 283.985L196.003 280.477V265.896L205.303 269.977V283.985Z" fill="#3F3D56"/>
<path d="M292.693 358.477H291.935V370.611H292.693V358.477Z" fill="#2F2E41"/>
<path d="M301.631 361.779H301.094V370.377H301.631V361.779Z" fill="#2F2E41"/>
<path d="M309.574 362.828H309.102V370.385H309.574V362.828Z" fill="#2F2E41"/>
<path d="M270.45 354.628V370.238L260.371 370.223L250.291 370.207V352.664L260.371 353.646L270.45 354.628Z" fill="#3F3D56"/>
<path d="M100.862 370.239L121.021 370.207V352.664L100.862 354.626V370.239Z" fill="#3F3D56"/>
<path d="M427.802 369.723H0V370.757H427.802V369.723Z" fill="#2F2E41"/>
<path opacity="0.1" d="M270.451 354.63V370.24L260.372 370.225V353.648L270.451 354.63Z" fill="black"/>
<path d="M184.364 356.025H183.33V370.498H184.364V356.025Z" fill="#2F2E41"/>
<path d="M189.812 350.873C189.812 355.945 187.103 360.173 183.846 360.322C180.68 360.463 178.177 356.668 178.177 351.849C178.177 347.03 184.363 333.799 184.363 333.799C184.363 333.799 189.812 345.801 189.812 350.873Z" fill="#3E7CFF"/>
<path d="M62.691 360.664H62.074V369.297H62.691V360.664Z" fill="#2F2E41"/>
<path d="M65.9409 357.59C65.9409 360.615 64.325 363.14 62.383 363.226C60.494 363.31 59.002 361.047 59.002 358.172C59.002 355.297 62.692 347.406 62.692 347.406C62.692 347.406 65.9409 354.564 65.9409 357.59Z" fill="#3E7CFF"/>
<path d="M296.486 358.954C296.486 361.831 294.673 364.078 292.315 363.968C289.815 363.851 287.665 361.15 287.665 357.942C287.665 354.734 292.315 346.721 292.315 346.721C292.315 346.721 296.486 356.077 296.486 358.954Z" fill="#3E7CFF"/>
<path d="M304.318 362.117C304.318 364.156 303.033 365.748 301.362 365.67C299.588 365.587 298.062 363.67 298.062 361.4C298.062 359.13 301.362 353.449 301.362 353.449C301.362 353.449 304.318 360.079 304.318 362.117Z" fill="#3E7CFF"/>
<path d="M311.936 363.13C311.936 364.922 310.807 366.321 309.336 366.252C307.777 366.179 306.436 364.497 306.436 362.499C306.436 360.501 309.336 355.51 309.336 355.51C309.336 355.51 311.936 361.337 311.936 363.13Z" fill="#3E7CFF"/>
<path d="M315.606 83.2041C315.606 83.2041 310.575 98.2981 313.37 101.652C316.165 105.006 296.599 91.5891 296.599 91.5891L307.221 79.2891L315.606 83.2041Z" fill="#A0616A"/>
<path d="M304.134 83.2468C317.996 83.2468 329.233 72.0096 329.233 58.1478C329.233 44.286 317.996 33.0488 304.134 33.0488C290.272 33.0488 279.035 44.286 279.035 58.1478C279.035 72.0096 290.272 83.2468 304.134 83.2468Z" fill="#2F2E41"/>
<path d="M401.736 253.017L388.879 263.08L381.611 251.34L394.469 242.395L401.736 253.017Z" fill="#A0616A"/>
<path d="M383.567 328.676L386.921 344.888L396.421 357.746C396.421 357.746 422.136 365.572 404.806 369.486C387.476 373.4 383.563 366.686 383.563 366.686L371.263 356.064V370.599H363.437L361.76 349.915C361.76 349.915 360.642 343.766 365.673 337.057L366.791 326.994L383.567 328.676Z" fill="#2F2E41"/>
<path d="M318.696 128.161L323.168 153.876C323.168 153.876 370.686 148.845 374.04 158.348C377.394 167.851 378.512 170.648 378.512 170.648L369.012 174.002L364.54 165.617C363.178 165.135 361.732 164.935 360.29 165.031C358.848 165.128 357.441 165.517 356.155 166.176C351.683 168.412 312.555 174.002 309.755 166.735C306.955 159.468 299.133 132.635 299.133 132.635L310.873 123.135L318.696 128.161Z" fill="#A0616A"/>
<path opacity="0.1" d="M318.696 128.161L323.168 153.876C323.168 153.876 370.686 148.845 374.04 158.348C377.394 167.851 378.512 170.648 378.512 170.648L369.012 174.002L364.54 165.617C363.178 165.135 361.732 164.935 360.29 165.031C358.848 165.128 357.441 165.517 356.155 166.176C351.683 168.412 312.555 174.002 309.755 166.735C306.955 159.468 299.133 132.635 299.133 132.635L310.873 123.135L318.696 128.161Z" fill="black"/>
<path d="M344.994 202.334L348.907 215.751L358.97 267.182C358.97 267.182 360.088 305.196 361.77 309.668C363.452 314.14 363.447 314.699 361.77 316.376C360.093 318.053 356.739 323.643 361.77 326.998C366.801 330.353 384.69 334.265 385.249 330.352C385.81 326.085 385.81 321.762 385.249 317.494C384.69 314.694 386.926 271.094 386.926 271.094L380.218 204.569L357.298 193.947L344.994 202.334Z" fill="#2F2E41"/>
<path opacity="0.1" d="M344.994 202.334L348.907 215.751L358.97 267.182C358.97 267.182 360.088 305.196 361.77 309.668C363.452 314.14 363.447 314.699 361.77 316.376C360.093 318.053 356.739 323.643 361.77 326.998C366.801 330.353 384.69 334.265 385.249 330.352C385.81 326.085 385.81 321.762 385.249 317.494C384.69 314.694 386.926 271.094 386.926 271.094L380.218 204.569L357.298 193.947L344.994 202.334Z" fill="black"/>
<path d="M369.032 149.908L381.332 173.387C381.332 173.387 451.77 204.693 445.621 217.55C439.472 230.407 405.371 254.45 405.371 254.45C405.371 254.45 403.694 263.95 398.663 261.158C393.632 258.366 381.333 243.828 382.451 242.151C383.569 240.474 387.482 236.561 389.159 237.12C390.836 237.679 410.402 222.585 410.402 222.585L376.86 214.2C376.86 214.2 336.61 213.082 334.374 194.075C332.138 175.068 334.374 171.714 334.374 171.714L331.574 165.565L354.494 151.589L369.032 149.908Z" fill="#2F2E41"/>
<path d="M386.362 242.652L374.622 253.274C374.622 253.274 364.559 248.802 358.41 250.474C352.261 252.146 341.639 253.274 341.639 253.274L343.316 262.774L357.579 260.143L346.112 276.192C346.112 276.192 346.112 301.348 353.379 301.348C360.646 301.348 358.41 286.254 358.41 286.254L380.771 268.924C380.771 268.924 391.952 264.452 393.07 264.452C394.188 264.452 386.362 242.652 386.362 242.652Z" fill="#2F2E41"/>
<path d="M313.374 87.7425C323.871 87.7425 332.381 79.2328 332.381 68.7355C332.381 58.2382 323.871 49.7285 313.374 49.7285C302.877 49.7285 294.367 58.2382 294.367 68.7355C294.367 79.2328 302.877 87.7425 313.374 87.7425Z" fill="#A0616A"/>
<path d="M294.654 83.4664C294.654 83.4664 303.598 81.2304 306.394 83.4664C309.19 85.7024 309.748 90.7334 313.661 91.2924C317.574 91.8514 320.928 91.8514 321.487 92.4104C322.046 92.9694 334.904 108.622 334.904 108.622C334.904 108.622 342.73 113.094 344.404 119.244C346.078 125.394 362.852 146.077 365.088 148.314C367.324 150.551 350.553 161.731 344.963 165.644C339.373 169.557 323.163 171.234 318.13 162.29C313.097 153.346 285.71 95.2064 294.654 83.4664Z" fill="#3E7CFF"/>
<path d="M315.9 119.784L320.372 145.499C320.372 145.499 367.89 140.468 371.244 149.971C374.598 159.474 375.716 162.271 375.716 162.271L366.216 165.625L361.744 157.24C360.382 156.758 358.936 156.558 357.494 156.654C356.052 156.751 354.645 157.14 353.359 157.799C348.887 160.035 309.759 165.625 306.959 158.358C304.159 151.091 296.337 124.258 296.337 124.258L308.077 114.758L315.9 119.784Z" fill="#A0616A"/>
<path d="M305.202 85.8276C305.202 85.8276 318.68 114.223 317.562 122.049C316.444 129.875 312.531 124.285 312.531 124.285C312.531 124.285 307.5 116.459 305.264 120.931C303.028 125.403 300.233 131.553 297.997 130.994C295.761 130.435 283.462 89.0666 290.171 85.1526C296.88 81.2386 305.202 85.8276 305.202 85.8276Z" fill="#3E7CFF"/>
<path d="M276.934 50.198C290.796 50.198 302.033 38.9608 302.033 25.099C302.033 11.2372 290.796 0 276.934 0C263.072 0 251.835 11.2372 251.835 25.099C251.835 38.9608 263.072 50.198 276.934 50.198Z" fill="#2F2E41"/>
<path d="M255.282 45.8822C258.53 48.2303 262.294 49.7663 266.258 50.3616C270.222 50.9569 274.271 50.5942 278.066 49.3038C281.861 48.0134 285.292 45.833 288.071 42.9448C290.851 40.0567 292.898 36.5448 294.042 32.7032C293.608 36.1449 292.465 39.4593 290.686 42.4372C288.907 45.4151 286.529 47.9919 283.704 50.0049C280.879 52.018 277.667 53.4235 274.272 54.1328C270.876 54.8422 267.37 54.84 263.975 54.1263C260.581 53.4126 257.371 52.003 254.548 49.9864C251.725 47.9698 249.351 45.39 247.576 42.4099C245.8 39.4297 244.662 36.1138 244.232 32.6715C243.803 29.2293 244.091 25.7353 245.08 22.4102C244.518 26.878 245.168 31.4148 246.963 35.5446C248.758 39.6745 251.632 43.2452 255.282 45.8822Z" fill="#2F2E41"/>
<path d="M298.968 80.7358C309.133 80.7358 317.374 72.4952 317.374 62.3298C317.374 52.1645 309.133 43.9238 298.968 43.9238C288.803 43.9238 280.562 52.1645 280.562 62.3298C280.562 72.4952 288.803 80.7358 298.968 80.7358Z" fill="#2F2E41"/>
<path d="M312.921 68.1879C321.931 68.1879 329.236 62.4755 329.236 55.4289C329.236 48.3823 321.931 42.6699 312.921 42.6699C303.91 42.6699 296.606 48.3823 296.606 55.4289C296.606 62.4755 303.91 68.1879 312.921 68.1879Z" fill="#2F2E41"/>
<path d="M313.652 77.0709C315.659 77.0709 317.286 74.1925 317.286 70.6419C317.286 67.0913 315.659 64.2129 313.652 64.2129C311.645 64.2129 310.018 67.0913 310.018 70.6419C310.018 74.1925 311.645 77.0709 313.652 77.0709Z" fill="#A0616A"/>
<path d="M363.567 165.354C363.567 165.354 373.467 159.676 375.301 161.1C377.135 162.524 377.955 166.979 377.955 166.979L366.517 171.468L363.163 165.319L363.567 165.354Z" fill="#2F2E41"/>
</svg>
