<svg width="469" height="373" viewBox="0 0 469 373" fill="none" xmlns="http://www.w3.org/2000/svg">
<path opacity="0.1" d="M1.02919 257.568C-3.0594 234.628 4.8681 209.728 27.784 189.225C90.4935 133.12 87.8231 144.386 98.8453 76.8625C109.867 9.33919 202.635 -17.0002 271.347 11.1451C354.532 45.2167 311.367 58.0229 410.558 114.913C496.3 164.092 416.84 256.812 275.347 295.699C160.991 327.128 12.8712 324.009 1.02919 257.568Z" fill="#FF0000"/>
<path d="M402.858 370.339H89C93.9535 328.565 131.028 332.918 148.63 327.144C158.63 323.867 166.503 314.318 174.775 306.388C204.324 278.061 261.635 277.756 325.513 313.025C337.083 319.413 350.188 322.253 363.401 321.988C380.178 321.651 402.858 344.734 402.858 370.339Z" fill="#F3F5FD"/>
<path d="M468.222 372.811H23.7782C23.5718 372.811 23.3739 372.705 23.2279 372.518C23.082 372.33 23 372.076 23 371.811C23 371.545 23.082 371.291 23.2279 371.103C23.3739 370.916 23.5718 370.811 23.7782 370.811H468.222C468.428 370.811 468.626 370.916 468.772 371.103C468.918 371.291 469 371.545 469 371.811C469 372.076 468.918 372.33 468.772 372.518C468.626 372.705 468.428 372.811 468.222 372.811V372.811Z" fill="#3F3F3F"/>
<path d="M207.117 104.436H261.16V119.773L205.169 122.937L207.117 104.436Z" fill="#367CFF"/>
<path d="M87.6145 371.003H69.3162C66.1386 367.475 60.5699 360.365 64.1692 357.331C65.8067 355.951 67.6104 357.264 69.2878 359.614C68.7086 355.01 69.2878 350.603 73.0893 349.32C76.553 348.148 78.099 351.679 78.7002 356.414C80.4066 353.721 82.6505 351.829 85.5762 351.974C89.7617 352.186 88.7486 356.892 86.3037 362.105C88.1572 360.912 90.1052 360.328 91.9946 360.85C95.9565 361.944 92.2582 366.63 87.6145 371.003Z" fill="#8DDBE0"/>
<path d="M396.439 371.003H345.948C343.177 364.707 351.5 361.602 354.148 365.682C352.57 363.248 352.15 360.163 355.427 358.177C358.862 356.603 362.998 358.403 363.631 361.25C362.789 357.458 366.8 353.68 371.264 352.821C382.722 350.617 385.277 360.492 384.239 362.044C387.263 357.521 399.776 363.104 396.439 371.003Z" fill="#8DDBE0"/>
<path d="M330.23 291.383H343.053V208.385H330.23V291.383Z" fill="#C1D8ED"/>
<path d="M330.23 291.383H339.411V208.385H330.23V291.383Z" fill="#D7E8F4"/>
<path d="M211.412 291.383H224.234V208.385H211.412V291.383Z" fill="#C1D8ED"/>
<path d="M211.413 291.383H220.594V208.385H211.413V291.383Z" fill="#D7E8F4"/>
<path d="M348.498 367.083H361.32V291.383H348.498V367.083Z" fill="#C1D8ED"/>
<path d="M348.498 367.083H357.679V291.383H348.498V367.083Z" fill="#D7E8F4"/>
<path d="M193.272 367.083H206.094V291.383H193.272V367.083Z" fill="#C1D8ED"/>
<path d="M193.272 367.083H202.453V291.383H193.272V367.083Z" fill="#D7E8F4"/>
<path d="M306.279 367.083H319.102V291.383H306.279V367.083Z" fill="#C1D8ED"/>
<path d="M306.28 367.083H315.461V291.383H306.28V367.083Z" fill="#D7E8F4"/>
<path d="M154.694 367.083H167.516V291.383H154.694V367.083Z" fill="#C1D8ED"/>
<path d="M154.694 367.083H163.875V291.383H154.694V367.083Z" fill="#D7E8F4"/>
<path d="M191.292 225.491L366.813 225.491V213.524L191.292 213.524V225.491Z" fill="#C1D8ED"/>
<path d="M191.292 249.861L366.813 249.861V237.893L191.292 237.893V249.861Z" fill="#C1D8ED"/>
<path d="M191.292 274.229H366.813V262.261H191.292V274.229Z" fill="#C1D8ED"/>
<path d="M187.651 225.491L363.172 225.491V213.524L187.651 213.524V225.491Z" fill="#D7E8F4"/>
<path d="M187.651 249.861L363.172 249.861V237.893L187.651 237.893V249.861Z" fill="#D7E8F4"/>
<path d="M187.651 274.229H363.172V262.261H187.651V274.229Z" fill="#D7E8F4"/>
<path d="M322.079 295.443H366.813V287.322H322.079V295.443Z" fill="#C1D8ED"/>
<path d="M322.078 287.323H148.204V295.443H322.078V287.323Z" fill="#D7E8F4"/>
<path d="M285.499 248.645L277.386 282.704C277.26 283.234 277.256 283.785 277.373 284.317C277.491 284.849 277.727 285.347 278.065 285.774C278.403 286.202 278.833 286.547 279.323 286.785C279.813 287.023 280.35 287.146 280.895 287.146H328.726C329.516 287.146 330.284 286.887 330.913 286.408C331.541 285.929 331.995 285.256 332.204 284.494L341.553 250.437C341.699 249.901 341.721 249.339 341.615 248.795C341.509 248.25 341.279 247.736 340.942 247.295C340.606 246.854 340.172 246.496 339.674 246.249C339.177 246.003 338.629 245.875 338.074 245.875H289.009C288.197 245.875 287.41 246.148 286.773 246.651C286.136 247.154 285.688 247.856 285.499 248.645Z" fill="#5D6A7E"/>
<path d="M260.359 287.146H318.168C318.447 287.146 318.722 287.092 318.98 286.985C319.237 286.879 319.47 286.722 319.667 286.526C319.864 286.329 320.02 286.095 320.127 285.838C320.233 285.581 320.288 285.305 320.288 285.027V285.027C320.288 284.749 320.233 284.473 320.127 284.216C320.02 283.959 319.864 283.725 319.667 283.528C319.47 283.331 319.237 283.175 318.98 283.069C318.722 282.962 318.447 282.907 318.168 282.907H260.359C259.796 282.907 259.257 283.131 258.86 283.528C258.462 283.926 258.239 284.465 258.239 285.027V285.027C258.239 285.305 258.294 285.581 258.4 285.838C258.507 286.095 258.663 286.329 258.86 286.526C259.057 286.722 259.29 286.879 259.548 286.985C259.805 287.092 260.08 287.146 260.359 287.146V287.146Z" fill="#5D6A7E"/>
<path d="M311.428 271.831C314.552 271.831 317.085 269.299 317.085 266.174C317.085 263.05 314.552 260.518 311.428 260.518C308.304 260.518 305.771 263.05 305.771 266.174C305.771 269.299 308.304 271.831 311.428 271.831Z" fill="white"/>
<path d="M130.31 339.297C130.31 339.297 123.867 348.819 130.894 356.738C137.92 364.657 130.348 368.99 130.348 368.99L101.787 340.429L116.059 326.16L130.31 339.297Z" fill="#367CFF"/>
<path d="M131.828 143.427C131.828 143.427 131.955 140.034 131.926 147.732C131.881 160.515 133.098 194.297 132.243 237.836C131.561 272.64 107.332 332.363 107.332 332.363L129.183 348.047C129.183 348.047 162.053 294.733 167.27 241.955C169.94 214.939 175.401 142.26 175.401 142.26L131.828 143.427Z" fill="#262626"/>
<path d="M199.256 349.357C199.256 349.357 201.433 360.646 212.003 361.275C222.573 361.904 220.28 370.325 220.28 370.325H179.889V350.144L199.256 349.357Z" fill="#367CFF"/>
<path d="M204.389 145.657C204.389 145.657 207.705 243.794 207.359 248.591L204.243 355.818L178.14 356.301L173.931 244.712C173.931 244.712 171.174 213.931 163.734 185.348C159.929 170.678 157.639 155.657 156.901 140.52V140.52L204.389 145.657Z" fill="#262626"/>
<path d="M169.954 215.236L172.13 181.95C172.13 181.95 174.366 195.788 174.366 207.715C174.366 213.545 173.165 236.628 173.165 236.628L169.954 215.236Z" fill="#0A0A0A"/>
<path d="M131.542 143.424L131.455 143.429C131.455 143.429 131.516 141.755 131.542 143.424Z" fill="#333333"/>
<path d="M131.649 143.424L131.562 143.429C131.562 143.429 131.625 141.755 131.649 143.424Z" fill="#333333"/>
<path d="M148.741 19.4514C148.741 19.4514 146.638 30.6575 143.607 34.4522C134.879 45.3759 131.173 58.3955 137.671 66.2061C144.169 74.0166 190.89 79.6995 196.337 64.1733C200.922 51.1016 194.699 48.8931 194.467 37.6296C194.362 32.5334 193.681 21.7919 193.681 21.7919" fill="#0A0A0A"/>
<path d="M186.644 58.251C186.562 58.2408 185.661 73.1983 168.282 71.8959C156.252 70.9946 151.962 58.2301 151.686 58.2301C152.983 57.9545 155.168 57.5533 155.744 57.2461C157.638 56.228 159.982 55.1691 160.593 51.4897C160.945 49.3694 160.349 38.5217 160.531 36.3765L178.999 40.4984C178.741 45.0293 176.935 55.5333 183.265 57.3931C184.32 57.6999 185.453 57.9828 186.644 58.251Z" fill="#E98862"/>
<path opacity="0.52" d="M179.256 53.0994C178.967 52.1672 178.78 51.2063 178.7 50.2336C178.498 48.0135 178.538 45.778 178.821 43.5667C175.068 43.0598 171.533 41.5107 168.616 39.0952C168.275 40.3611 166.387 45.8955 166.912 47.099C167.897 49.3742 172.537 53.0994 179.256 53.0994Z" fill="#0C0C0C"/>
<path d="M175.98 49.4854C168.667 49.3208 159.659 45.3108 158.872 35.4515L158.162 26.5557C157.375 16.6964 161.916 8.29089 171.199 7.54986C180.482 6.80931 188.058 14.2479 188.845 24.1072L189.159 28.0456C189.461 31.8286 189.028 49.7794 175.98 49.4854Z" fill="#E98862"/>
<path d="M183.835 28.7017C184.469 28.7017 184.982 28.1881 184.982 27.5546C184.982 26.921 184.469 26.4075 183.835 26.4075C183.202 26.4075 182.688 26.921 182.688 27.5546C182.688 28.1881 183.202 28.7017 183.835 28.7017Z" fill="#0C0C0C"/>
<path d="M173.391 28.7017C174.025 28.7017 174.538 28.1881 174.538 27.5546C174.538 26.921 174.025 26.4075 173.391 26.4075C172.758 26.4075 172.244 26.921 172.244 27.5546C172.244 28.1881 172.758 28.7017 173.391 28.7017Z" fill="#0C0C0C"/>
<path opacity="0.52" d="M180.302 36.3989H180.32C180.696 36.3659 181.07 36.3125 181.44 36.2387C181.994 36.1243 182.725 35.9149 182.686 35.4222C182.641 34.8603 180.619 28.9219 180.388 28.2466C180.367 28.1888 180.324 28.1416 180.269 28.115C180.213 28.0885 180.149 28.0848 180.091 28.1047C180.033 28.1245 179.985 28.1664 179.957 28.2213C179.929 28.2763 179.924 28.3398 179.943 28.3985C180.806 30.9273 182.187 35.0814 182.217 35.4582C182.138 35.6238 181.215 35.8545 180.282 35.929C180.222 35.9345 180.166 35.9628 180.126 36.0082C180.087 36.0536 180.066 36.1125 180.068 36.1727C180.071 36.233 180.096 36.2901 180.139 36.3321C180.183 36.3741 180.241 36.3978 180.301 36.3984L180.302 36.3989Z" fill="#0C0C0C"/>
<path opacity="0.52" d="M178.485 40.4217C179.99 40.3938 181.467 40.0127 182.798 39.3092C182.826 39.2962 182.852 39.2774 182.874 39.2541C182.895 39.2307 182.912 39.2033 182.923 39.1734C182.933 39.1434 182.938 39.1117 182.936 39.08C182.934 39.0483 182.925 39.0174 182.911 38.989C182.897 38.9607 182.877 38.9355 182.853 38.9151C182.828 38.8946 182.8 38.8792 182.77 38.8699C182.74 38.8606 182.708 38.8576 182.676 38.861C182.644 38.8643 182.614 38.874 182.586 38.8895C179.714 40.3365 177.024 40.3234 174.803 38.852C174.758 38.8208 174.712 38.792 174.664 38.7659C174.608 38.7415 174.545 38.7394 174.489 38.7602C174.432 38.781 174.385 38.823 174.358 38.8773C174.331 38.9317 174.327 38.9944 174.345 39.0522C174.363 39.1099 174.403 39.1584 174.456 39.1875C174.474 39.1972 174.505 39.2172 174.543 39.244C175.711 40.0201 177.083 40.4302 178.485 40.4217V40.4217Z" fill="#0C0C0C"/>
<path d="M150.556 28.8089L158.873 28.193C165.319 26.3599 168.339 15.871 168.339 15.871C168.339 15.871 175.053 23.9917 193.681 21.7934C193.681 21.7934 192.77 -3.9533 165.117 0.522596C156.2 1.9662 149.043 10.0231 148.56 21.7705C148.221 30.0013 150.556 28.8089 150.556 28.8089Z" fill="#0A0A0A"/>
<path d="M159.688 38.4091C156.867 38.634 154.34 35.7984 154.114 32.9774C153.889 30.1565 156.052 28.4183 158.873 28.1929L160.48 29.9676L162.116 38.2153L159.688 38.4091Z" fill="#E98862"/>
<path d="M182.553 23.8072C183.416 23.3732 184.379 23.1794 185.343 23.2463C185.817 23.2762 186.284 23.3771 186.729 23.5457C187.169 23.7097 187.586 23.9284 187.971 24.1967C188.026 24.2311 188.066 24.2861 188.081 24.3495C188.095 24.4129 188.084 24.4796 188.05 24.5348C188.015 24.5901 187.96 24.6294 187.897 24.6442C187.834 24.6589 187.767 24.6479 187.712 24.6135L187.695 24.6037C187.337 24.3765 186.951 24.1954 186.547 24.0648C186.149 23.9335 185.732 23.8631 185.313 23.8559C184.48 23.8368 183.657 24.0384 182.927 24.4401L182.903 24.4538C182.818 24.5023 182.718 24.5152 182.623 24.4895C182.529 24.4638 182.449 24.4016 182.4 24.3167C182.352 24.2318 182.339 24.1311 182.364 24.0367C182.39 23.9424 182.452 23.8621 182.537 23.8135L182.553 23.8072Z" fill="#0C0C0C"/>
<path d="M175.096 24.7323C174.313 24.4488 173.469 24.3772 172.65 24.5249C172.236 24.5968 171.835 24.7305 171.461 24.9217C171.083 25.1133 170.729 25.3516 170.41 25.6311L170.396 25.6433C170.371 25.6644 170.343 25.6804 170.313 25.6906C170.282 25.7008 170.25 25.7048 170.217 25.7025C170.185 25.7001 170.154 25.6915 170.125 25.677C170.096 25.6626 170.071 25.6426 170.049 25.6182C170.028 25.5938 170.012 25.5655 170.002 25.5349C169.992 25.5043 169.988 25.4719 169.99 25.4398C169.993 25.4076 170.001 25.3762 170.016 25.3474C170.03 25.3186 170.05 25.2929 170.075 25.2718C170.414 24.946 170.793 24.6642 171.203 24.4329C171.616 24.1978 172.062 24.0262 172.526 23.9236C173.467 23.709 174.449 23.7517 175.368 24.0473C175.459 24.08 175.533 24.1466 175.575 24.233C175.617 24.3194 175.623 24.4187 175.593 24.5099C175.563 24.6011 175.499 24.677 175.413 24.7214C175.328 24.7659 175.229 24.7753 175.137 24.7479L175.123 24.7425L175.096 24.7323Z" fill="#0C0C0C"/>
<path d="M158.902 28.0916L158.845 27.8569C169.577 25.2624 168.145 14.8504 168.128 14.7453L168.367 14.7092C168.383 14.8163 169.852 25.444 158.902 28.0916Z" fill="#0C0C0C"/>
<path opacity="0.1" d="M172.893 36.3199C174.1 36.3199 175.079 35.6023 175.079 34.7171C175.079 33.8319 174.1 33.1143 172.893 33.1143C171.687 33.1143 170.708 33.8319 170.708 34.7171C170.708 35.6023 171.687 36.3199 172.893 36.3199Z" fill="#0C0C0C"/>
<path opacity="0.1" d="M185.881 34.3341C185.881 35.2183 186.862 35.9355 188.068 35.9374C188.277 35.9372 188.485 35.9155 188.689 35.8727C188.868 34.84 188.991 33.8409 189.071 32.912C188.751 32.7897 188.41 32.7286 188.067 32.7318C186.861 32.7299 185.882 33.4475 185.881 34.3341Z" fill="#0C0C0C"/>
<path d="M208.235 91.1845C207.688 97.6152 205.025 137.736 204.499 145.657H131.967C131.557 138.513 129.717 107.274 128.163 93.3034C126.68 79.9721 123.77 73.298 125.903 69.3567C129.389 62.9153 138.913 59.1935 145.407 58.3142C149.373 57.7787 155.34 57.3921 155.34 57.3921C155.34 57.3921 155.844 67.6088 167.887 68.1775C184.28 68.9506 183.185 57.3921 183.266 57.3921C185.922 57.3921 201.093 59.0733 204.805 61.2735C214.917 67.2626 209.397 77.5587 208.235 91.1845Z" fill="#367CFF"/>
<path d="M263.365 102.942C263.449 102.712 263.578 102.501 263.746 102.323C263.913 102.144 264.116 102.002 264.34 101.904C264.565 101.806 264.807 101.755 265.052 101.754C265.297 101.753 265.539 101.802 265.764 101.898C266.194 102.099 266.532 102.455 266.709 102.895C266.886 103.334 266.89 103.825 266.719 104.267L265.891 106.556L271.106 101.239C271.754 100.557 272.984 100.138 273.7 100.915C274.319 101.505 275.752 101.687 275.985 102.793C275.992 102.798 275.978 112.92 275.377 113.553C272.826 116.231 266.662 116.749 263.222 115.389L257.808 113.247L263.365 102.942Z" fill="#E98862"/>
<g opacity="0.1">
<path d="M263.365 102.942C263.449 102.712 263.578 102.501 263.746 102.323C263.913 102.144 264.116 102.002 264.34 101.904C264.565 101.806 264.807 101.755 265.052 101.754C265.297 101.753 265.539 101.802 265.764 101.898C266.194 102.099 266.532 102.455 266.709 102.895C266.886 103.334 266.89 103.825 266.719 104.267L265.891 106.556L271.106 101.239C271.754 100.557 272.984 100.138 273.7 100.915C274.319 101.505 275.752 101.687 275.985 102.793C275.992 102.798 275.978 112.92 275.377 113.553C272.826 116.231 266.662 116.749 263.222 115.389L257.808 113.247L263.365 102.942Z" fill="#0C0C0C"/>
</g>
<path d="M269.998 110.888C269.93 110.574 269.967 110.246 270.102 109.954C270.238 109.662 270.465 109.423 270.749 109.272C270.733 109.251 270.681 109.212 270.718 109.186L269.487 109.232C269.125 109.253 268.767 109.143 268.48 108.921C268.193 108.699 267.996 108.381 267.925 108.025C267.867 107.671 267.942 107.308 268.136 107.007C268.33 106.705 268.629 106.487 268.976 106.393C268.965 106.383 268.964 106.367 268.957 106.354L268.451 106.373C268.11 106.391 267.772 106.291 267.496 106.09C267.22 105.888 267.022 105.597 266.935 105.266C266.886 105.058 266.883 104.841 266.927 104.631C266.971 104.421 267.061 104.224 267.19 104.053C267.32 103.882 267.486 103.742 267.676 103.643C267.866 103.545 268.076 103.489 268.29 103.481L269.459 103.438C269.459 103.431 269.452 103.428 269.451 103.422C269.451 103.415 269.458 103.408 269.459 103.4C269.137 103.339 268.844 103.171 268.63 102.923C268.416 102.674 268.292 102.36 268.28 102.033C268.193 101.188 269.101 100.669 269.855 100.644L272.241 100.741C272.609 100.756 272.967 100.862 273.284 101.049C273.601 101.235 273.867 101.498 274.059 101.812C275.714 104.534 279.87 111.744 277.462 111.835L271.534 112.054C271.185 112.058 270.844 111.946 270.566 111.735C270.288 111.524 270.088 111.226 269.998 110.888V110.888Z" fill="#E98862"/>
<path d="M208.815 122.757C208.792 122.403 208.66 122.064 208.437 121.789C208.213 121.513 207.91 121.314 207.569 121.218C207.584 121.19 207.59 121.158 207.586 121.127C207.579 121.101 207.566 121.078 207.547 121.059C207.529 121.04 207.505 121.026 207.48 121.019L208.905 120.703C209.327 120.619 209.705 120.385 209.967 120.044C210.23 119.703 210.361 119.279 210.335 118.849C210.296 118.426 210.101 118.032 209.788 117.744C209.476 117.456 209.067 117.295 208.642 117.291C208.651 117.277 208.647 117.258 208.652 117.243L209.236 117.113C209.633 117.032 209.991 116.817 210.248 116.502C210.505 116.188 210.645 115.795 210.645 115.389C210.64 115.135 210.578 114.885 210.465 114.657C210.351 114.43 210.189 114.23 209.989 114.073C209.789 113.916 209.557 113.805 209.309 113.748C209.061 113.692 208.803 113.691 208.555 113.746L207.204 114.046C207.204 114.039 207.209 114.033 207.207 114.025C207.206 114.018 207.195 114.011 207.192 114.002C207.544 113.836 207.829 113.556 208 113.207C208.172 112.858 208.219 112.461 208.135 112.081C207.983 111.086 206.786 110.766 205.912 110.961L198.024 112.568L199.896 111.2C200.266 110.94 200.524 110.551 200.617 110.109C200.711 109.667 200.633 109.206 200.399 108.819C200.272 108.624 200.106 108.456 199.912 108.327C199.718 108.198 199.5 108.11 199.27 108.068C199.041 108.026 198.805 108.031 198.578 108.083C198.351 108.135 198.136 108.233 197.948 108.37L187.728 115.84C186.529 116.716 185.72 118.025 185.471 119.489C185.222 120.953 185.554 122.456 186.395 123.679V123.679C187.372 125.097 188.75 126.192 190.352 126.823C191.955 127.453 193.71 127.591 195.391 127.217L207.406 124.551C207.808 124.454 208.166 124.224 208.422 123.899C208.678 123.573 208.816 123.171 208.815 122.757V122.757Z" fill="#E98862"/>
<g opacity="0.25">
<path d="M199.398 115.633C199.407 115.673 199.432 115.708 199.467 115.731C199.502 115.753 199.544 115.761 199.584 115.753L207.082 114.215C207.103 114.21 207.122 114.202 207.139 114.191C207.156 114.179 207.171 114.164 207.183 114.147C207.194 114.129 207.202 114.11 207.206 114.089C207.21 114.069 207.21 114.048 207.206 114.028C207.201 114.007 207.193 113.988 207.182 113.971C207.17 113.953 207.155 113.939 207.138 113.927C207.12 113.916 207.101 113.908 207.08 113.904C207.06 113.9 207.039 113.9 207.019 113.904L199.521 115.442C199.479 115.45 199.443 115.475 199.42 115.51C199.397 115.545 199.389 115.588 199.397 115.629L199.398 115.633Z" fill="#0C0C0C"/>
</g>
<g opacity="0.25">
<path d="M199.985 118.957C199.994 118.997 200.019 119.032 200.054 119.055C200.089 119.077 200.131 119.085 200.172 119.077L208.541 117.361C208.582 117.352 208.618 117.327 208.642 117.292C208.665 117.257 208.673 117.214 208.665 117.173C208.655 117.133 208.63 117.098 208.595 117.075C208.56 117.052 208.518 117.043 208.477 117.05L200.108 118.766C200.067 118.775 200.03 118.799 200.007 118.834C199.984 118.87 199.976 118.912 199.985 118.954L199.985 118.957Z" fill="#0C0C0C"/>
</g>
<g opacity="0.25">
<path d="M200.6 122.563C200.61 122.604 200.634 122.639 200.669 122.661C200.704 122.684 200.746 122.692 200.786 122.683L207.463 121.314C207.504 121.306 207.54 121.281 207.563 121.246C207.586 121.211 207.595 121.168 207.586 121.127C207.578 121.086 207.553 121.05 207.518 121.027C207.483 121.004 207.44 120.996 207.399 121.004L200.723 122.373C200.702 122.377 200.683 122.385 200.666 122.397C200.648 122.409 200.634 122.424 200.622 122.441C200.611 122.458 200.603 122.478 200.599 122.498C200.595 122.519 200.595 122.54 200.599 122.56L200.6 122.563Z" fill="#0C0C0C"/>
</g>
<path d="M194.649 131.974L129.462 143.757C127.428 143.978 125.37 143.725 123.45 143.018C121.53 142.31 119.8 141.168 118.396 139.679C116.992 138.191 115.952 136.397 115.357 134.439C114.763 132.481 114.63 130.412 114.969 128.394L124.095 74.1506C124.375 72.4274 124.992 70.7763 125.912 69.2925C126.832 67.8087 128.036 66.5214 129.455 65.5047C130.874 64.4879 132.48 63.7618 134.181 63.3681C135.882 62.9743 137.644 62.9208 139.365 63.2104C141.087 63.5001 142.734 64.1273 144.212 65.0559C145.691 65.9845 146.971 67.1963 147.979 68.6214C148.987 70.0466 149.704 71.6571 150.087 73.3602C150.471 75.0633 150.514 76.8254 150.214 78.5452L143.991 115.884L191.783 109.882L194.649 131.974Z" fill="#367CFF"/>
<path d="M129.461 143.996C129.404 143.992 129.35 143.967 129.308 143.926C129.267 143.886 129.242 143.832 129.237 143.775C129.232 143.717 129.247 143.66 129.281 143.613C129.314 143.565 129.363 143.532 129.419 143.517L194.381 131.778L191.574 110.151L144.021 116.123C143.984 116.128 143.946 116.124 143.91 116.112C143.875 116.099 143.843 116.079 143.817 116.051C143.791 116.024 143.772 115.991 143.761 115.955C143.749 115.92 143.747 115.882 143.753 115.844L147.709 91.9791C147.726 91.923 147.763 91.8752 147.813 91.8445C147.863 91.8137 147.923 91.802 147.981 91.8116C148.039 91.8212 148.091 91.8515 148.129 91.8967C148.166 91.942 148.186 91.9992 148.184 92.0579L144.282 115.604L191.752 109.643C191.816 109.635 191.879 109.653 191.93 109.692C191.98 109.731 192.013 109.788 192.022 109.851L194.888 131.943C194.896 132.004 194.88 132.066 194.844 132.116C194.808 132.166 194.754 132.2 194.694 132.212L129.507 143.994C129.492 143.996 129.476 143.996 129.461 143.996Z" fill="#0C0C0C"/>
<path d="M143.954 115.646L139.76 116.317L139.837 116.794L144.03 116.123L143.954 115.646Z" fill="#0C0C0C"/>
<path d="M272.877 84.5118L235.114 69.3644C234.332 69.0611 233.458 69.0611 232.676 69.3644L194.913 84.5118C194.278 84.7777 193.75 85.2358 193.409 85.8166C193.068 86.3974 192.933 87.0694 193.025 87.7306L199.319 133.173C199.388 133.66 199.577 134.124 199.872 134.526C200.166 134.928 200.557 135.256 201.01 135.483L232.479 150.63C232.922 150.829 233.406 150.933 233.895 150.933C234.384 150.933 234.868 150.829 235.311 150.63L266.78 135.483C267.233 135.256 267.624 134.928 267.918 134.526C268.213 134.124 268.402 133.66 268.471 133.173L274.765 87.7306C274.857 87.0694 274.722 86.3974 274.381 85.8166C274.04 85.2358 273.512 84.7777 272.877 84.5118ZM262.453 130.749L233.895 144.533L205.337 130.749L199.555 89.2074L233.895 75.4612L268.235 89.2074L262.453 130.749ZM231.063 92.0097L216.902 119.275C216.526 119.998 216.465 120.835 216.73 121.602C216.996 122.369 217.567 123.003 218.318 123.365C219.069 123.726 219.939 123.786 220.735 123.53C221.532 123.274 222.191 122.725 222.566 122.001L225.871 115.602H241.92L245.224 122.001C245.491 122.503 245.897 122.924 246.397 123.218C246.896 123.512 247.47 123.667 248.056 123.668C248.544 123.658 249.025 123.555 249.472 123.365C250.212 122.992 250.773 122.358 251.037 121.595C251.302 120.832 251.248 120 250.888 119.275L236.727 92.0097C236.459 91.509 236.053 91.0891 235.554 90.7959C235.054 90.5027 234.48 90.3476 233.895 90.3476C233.31 90.3476 232.736 90.5027 232.237 90.7959C231.737 91.0891 231.331 91.509 231.063 92.0097ZM238.773 109.543H229.017L233.895 100.151L238.773 109.543Z" fill="#DD2E2E"/>
</svg>
