<svg width="446" height="371" viewBox="0 0 446 371" fill="none" xmlns="http://www.w3.org/2000/svg">
<path d="M380.898 155.708C380.048 138.414 374.4 121.049 363.299 108.169C358.455 102.548 337.975 89.3691 331.443 86.0562C333.923 65.7369 347.262 54.017 337.505 36.6399C325.118 14.5988 299.278 1.67028 275.022 5.38979C266.256 6.80139 257.945 10.1407 250.731 15.149C242.351 7.51993 230.883 2.8301 219.714 1.04713C184.529 -4.57361 146.91 12.827 127.327 43.79C124.366 48.4704 124.165 55.474 125.709 63.8233C131.655 96.0026 114.614 127.366 85.2973 139.243C84.7259 139.464 84.2132 139.806 83.7968 140.243C66.876 158.481 61.3201 187.256 70.1709 210.9C72.2642 216.497 72.8875 226.227 78.6276 226.49C115.701 228.191 118.541 249.273 97.5186 280.619C93.1173 287.181 99.5124 296.452 103.496 303.43C112.657 319.494 131.15 327.744 149.058 328.844C166.886 329.944 184.495 325.029 201.726 320.135L224.685 319.178C244.442 322.73 265.104 322.168 283.828 314.802C304.02 306.848 321.63 290.273 328.311 268.889C330.595 261.582 369.913 270.743 369.327 263.053C379.107 257.851 349.536 233.885 356.94 225.417C373.439 206.384 382.05 181.328 380.898 155.708Z" fill="#C4D7FF"/>
<path d="M410.017 259.536C421.059 259.536 430.011 248.246 430.011 234.32C430.011 220.395 421.059 209.105 410.017 209.105C398.975 209.105 390.023 220.395 390.023 234.32C390.023 248.246 398.975 259.536 410.017 259.536Z" fill="#3E7CFF"/>
<path d="M410.017 240.956C412.923 240.956 415.279 237.985 415.279 234.32C415.279 230.656 412.923 227.685 410.017 227.685C407.111 227.685 404.755 230.656 404.755 234.32C404.755 237.985 407.111 240.956 410.017 240.956Z" fill="#E6E6E6"/>
<path d="M409.055 234.462C411.272 236.742 411.949 240.336 411.535 243.806C411.028 247.612 409.462 251.066 407.118 253.547C404.483 256.502 401.268 258.498 398.166 260.543C395.316 262.377 392.577 264.474 389.971 266.817C379.995 275.961 372.458 288.979 368.145 303.511C363.839 318.016 362.683 334.48 365.955 349.513C367.574 356.951 370.849 364.974 376.952 367.775C381.816 370.006 388.456 368.571 390.932 362.248C393.593 355.457 389.88 347.824 385.101 344.452C378.903 340.082 371.501 343.276 365.927 347.699C359.79 352.569 354.857 359.557 348.451 363.922C345.567 365.948 342.357 367.129 339.062 367.376C336.035 367.526 333.014 366.937 330.165 365.642C324.252 362.926 319.162 357.943 315.609 351.394C311.539 343.933 309.716 334.788 309.385 325.83C308.642 305.787 314.921 287.036 319.958 268.448C322.665 258.769 324.693 248.808 326.019 238.681C327.279 228.503 327.728 218.191 327.358 207.9C327.024 198.8 326.313 189.285 323.128 180.974C320.328 173.666 315.21 167.685 308.74 166.177C305.823 165.455 302.801 165.892 300.09 167.429C299.167 167.96 299.969 169.677 300.887 169.148C306.613 165.853 313.381 169.059 317.61 174.378C322.549 180.59 324.362 189.762 325.168 198.226C326.978 218.284 325.552 238.596 320.976 257.941C316.584 276.754 309.676 294.782 308.082 314.493C307.354 323.487 307.728 332.785 310.007 341.41C311.963 349.092 315.63 355.903 320.571 361.029C325.224 365.772 330.947 369.004 336.972 369.364C343.736 369.768 349.667 365.965 354.914 360.906C360.534 355.489 365.705 348.804 372.513 345.766C375.617 344.381 379.151 343.735 382.338 345.068C385.071 346.247 387.39 348.599 388.888 351.713C390.272 354.615 390.783 358.244 389.52 361.362C388.332 364.293 386.014 365.989 383.505 366.569C380.848 367.162 378.111 366.575 375.758 364.91C373.009 362.93 370.998 359.607 369.589 356.097C366.779 349.097 365.835 340.764 365.692 332.994C365.566 325.405 366.337 317.834 367.979 310.531C371.247 295.757 377.843 282.497 386.968 272.357C389.267 269.832 391.727 267.548 394.323 265.53C397.153 263.33 400.175 261.571 403.06 259.496C405.902 257.452 408.698 255.012 410.654 251.65C412.321 248.769 413.221 245.296 413.225 241.73C413.255 240.089 412.997 238.461 412.47 236.962C411.942 235.462 411.158 234.128 410.174 233.056C409.393 232.252 408.269 233.653 409.058 234.463L409.055 234.462Z" fill="#CCCCCC"/>
<path d="M222.4 350.443C229.391 356.142 237.478 359.339 245.798 359.692C245.649 360.137 245.482 360.571 245.298 360.993C243.908 364.237 241.7 366.804 239.022 368.287C236.345 369.77 233.352 370.084 230.518 369.18C227.683 368.276 225.168 366.205 223.372 363.296C221.576 360.386 220.6 356.804 220.6 353.117V350.443H222.4Z" fill="#3F3D56"/>
<path d="M271.474 351.226V353.117C271.475 356.798 270.504 360.375 268.713 363.283C266.922 366.19 264.414 368.262 261.585 369.172C258.756 370.081 255.768 369.776 253.092 368.305C250.416 366.833 248.205 364.279 246.808 361.046C246.616 360.614 246.442 360.168 246.287 359.712C246.671 359.726 247.05 359.732 247.434 359.732C255.916 359.745 264.236 356.801 271.474 351.226Z" fill="#3F3D56"/>
<path d="M289.174 151.243C288.78 151.17 288.38 151.124 287.98 151.091C292.524 164.297 292.839 179.209 288.859 192.702C289.259 192.643 289.653 192.563 290.048 192.47C293.902 191.53 297.367 188.896 299.825 185.035C302.283 181.175 303.575 176.339 303.47 171.39C303.365 166.44 301.871 161.699 299.253 158.009C296.635 154.32 293.063 151.922 289.174 151.243Z" fill="#3F3D56"/>
<path d="M206.891 151.091C206.491 151.124 206.091 151.17 205.696 151.243C201.807 151.922 198.236 154.32 195.618 158.009C193 161.699 191.505 166.44 191.4 171.39C191.296 176.339 192.587 181.175 195.045 185.035C197.503 188.896 200.968 191.53 204.823 192.47C205.217 192.563 205.612 192.643 206.012 192.702C202.032 179.209 202.347 164.297 206.891 151.091Z" fill="#3F3D56"/>
<path d="M289.174 151.243C284.84 138.184 276.81 127.623 266.647 121.612C256.483 115.601 244.91 114.569 234.177 118.717C223.443 122.865 214.316 131.897 208.567 144.057C202.819 156.218 200.86 170.639 203.071 184.519C205.282 198.399 211.506 210.747 220.532 219.164C229.559 227.581 240.744 231.466 251.915 230.064C263.085 228.662 273.444 222.074 280.979 211.578C288.513 201.083 292.685 187.431 292.684 173.273C292.683 165.709 291.49 158.221 289.174 151.243ZM288.859 192.702C285.01 205.75 277.428 216.509 267.604 222.861C257.781 229.212 246.429 230.697 235.781 227.022C225.134 223.348 215.962 214.78 210.072 203.006C204.182 191.231 202 177.103 203.956 163.401C205.911 149.7 211.863 137.418 220.638 128.972C229.414 120.527 240.379 116.53 251.374 117.768C262.369 119.006 272.599 125.389 280.049 135.662C287.5 145.934 291.632 159.352 291.632 173.273C291.631 179.906 290.692 186.486 288.859 192.702Z" fill="#3F3D56"/>
<path d="M270.585 160.334H224.283C221.841 160.334 219.499 161.558 217.772 163.735C216.045 165.913 215.075 168.867 215.075 171.946C215.075 175.026 216.045 177.98 217.772 180.158C219.499 182.335 221.841 183.559 224.283 183.559H270.585C273.027 183.559 275.369 182.335 277.096 180.158C278.823 177.98 279.793 175.026 279.793 171.946C279.793 168.867 278.823 165.913 277.096 163.735C275.369 161.558 273.027 160.334 270.585 160.334Z" fill="#3E7CFF"/>
<path d="M247.434 241.62C235.076 241.65 223.217 247.772 214.39 258.679C205.562 269.585 200.464 284.411 200.185 299.992C199.907 315.573 204.468 330.674 212.897 342.071C221.326 353.469 232.954 360.259 245.298 360.993C245.798 361.026 246.303 361.046 246.808 361.046C247.018 361.059 247.224 361.059 247.434 361.059C259.993 361.059 272.038 354.767 280.919 343.568C289.799 332.368 294.788 317.178 294.788 301.339C294.788 285.501 289.799 270.311 280.919 259.111C272.038 247.911 259.993 241.62 247.434 241.62ZM271.474 351.225C264.236 356.801 255.916 359.745 247.434 359.732C247.05 359.732 246.671 359.726 246.287 359.712C246.124 359.712 245.961 359.706 245.798 359.692C234.679 359.205 224.071 353.688 215.912 344.15C207.753 334.612 202.588 321.689 201.361 307.744C200.134 293.799 202.927 279.763 209.23 268.201C215.533 256.64 224.924 248.324 235.687 244.775C246.451 241.226 257.868 242.679 267.851 248.871C277.835 255.062 285.718 265.578 290.061 278.495C294.403 291.412 294.915 305.869 291.502 319.223C288.09 332.577 280.981 343.937 271.474 351.225Z" fill="#3F3D56"/>
<path d="M280.67 286.631H259.975C258.533 286.631 257.15 285.909 256.13 284.623C255.11 283.337 254.538 281.593 254.538 279.774C254.538 277.956 255.11 276.212 256.13 274.926C257.15 273.64 258.533 272.917 259.975 272.917H280.67C282.112 272.917 283.495 273.64 284.515 274.926C285.534 276.212 286.107 277.956 286.107 279.774C286.107 281.593 285.534 283.337 284.515 284.623C283.495 285.909 282.112 286.631 280.67 286.631Z" fill="#3F3D56"/>
<path d="M261.353 283.253C262.877 283.253 264.113 281.695 264.113 279.773C264.113 277.851 262.877 276.294 261.353 276.294C259.83 276.294 258.594 277.851 258.594 279.773C258.594 281.695 259.83 283.253 261.353 283.253Z" fill="#F2F2F2"/>
<path d="M270.322 283.253C271.846 283.253 273.081 281.695 273.081 279.773C273.081 277.851 271.846 276.294 270.322 276.294C268.798 276.294 267.562 277.851 267.562 279.773C267.562 281.695 268.798 283.253 270.322 283.253Z" fill="#F2F2F2"/>
<path d="M279.289 283.253C280.813 283.253 282.049 281.695 282.049 279.773C282.049 277.851 280.813 276.294 279.289 276.294C277.766 276.294 276.53 277.851 276.53 279.773C276.53 281.695 277.766 283.253 279.289 283.253Z" fill="#3E7CFF"/>
<path d="M86.6191 367.952C91.3508 362.909 94.2247 354.946 93.4707 347.191C92.7167 339.435 88.0513 332.309 81.9936 330.662C75.936 329.015 69.0354 333.573 67.1965 341.033C66.1842 326.651 65.0177 311.666 58.9547 299.418C53.4648 288.328 43.9556 280.393 33.6502 278.974C23.3449 277.554 12.4945 282.916 6.06691 293.174C-0.360636 303.431 -1.93384 318.345 2.56744 330.122C5.88224 338.798 11.993 345.254 18.3937 350.507C38.8155 367.265 64.1484 372.927 88.2528 368.453L86.6191 367.952Z" fill="#3E7CFF"/>
<path d="M16.2577 283.212C24.7609 291.947 32.5618 301.715 39.5475 312.377C46.5344 323.028 52.6855 334.509 57.9146 346.658C60.8374 353.473 63.463 360.484 65.7797 367.66C66.2532 369.12 64.3722 369.755 63.9055 368.312C59.802 355.661 54.7252 343.547 48.7479 332.144C42.7991 320.784 35.9904 310.178 28.4177 300.476C24.1348 294.991 19.616 289.807 14.8818 284.948C13.9131 283.95 15.2953 282.224 16.2577 283.212Z" fill="white"/>
<path d="M85.0145 158.47C94.0228 158.47 101.325 149.26 101.325 137.899C101.325 126.539 94.0228 117.329 85.0145 117.329C76.0063 117.329 68.7036 126.539 68.7036 137.899C68.7036 149.26 76.0063 158.47 85.0145 158.47Z" fill="#2F2E41"/>
<path d="M145.848 213.22C145.535 213.813 145.154 214.344 144.717 214.795C144.088 215.449 143.356 215.928 142.569 216.201C141.783 216.474 140.959 216.534 140.153 216.377C139.347 216.221 138.576 215.851 137.891 215.292C137.206 214.734 136.623 213.999 136.179 213.136C136.076 212.935 135.982 212.727 135.896 212.513L110.194 209.386C108.165 209.129 106.256 208.055 104.75 206.321C103.244 204.588 102.222 202.289 101.835 199.764L100.375 190.065L110.406 188.097L112.206 195.866L137.266 203.63C137.46 203.415 137.666 203.218 137.882 203.039C138.999 202.122 140.334 201.72 141.66 201.9C142.985 202.081 144.221 202.833 145.158 204.03C146.094 205.227 146.675 206.795 146.8 208.47C146.926 210.144 146.589 211.821 145.847 213.219L145.848 213.22Z" fill="#FFB8B8"/>
<path d="M112.823 194.696L101.616 198.513C101.01 198.719 100.363 198.613 99.8191 198.218C99.2748 197.824 98.8768 197.173 98.7124 196.409L94.7878 178.087C94.3716 176.126 94.5448 174.041 95.2741 172.231C96.0034 170.422 97.2372 169.016 98.7385 168.285C100.24 167.553 101.903 167.547 103.407 168.268C104.912 168.989 106.152 170.385 106.889 172.189L114.308 190.451C114.469 190.847 114.558 191.284 114.569 191.728C114.579 192.173 114.51 192.616 114.367 193.023C114.224 193.43 114.011 193.792 113.743 194.081C113.475 194.371 113.159 194.582 112.819 194.698L112.823 194.696Z" fill="#2F2E41"/>
<path d="M106.332 362.933H112.782L115.851 331.555H106.328L106.332 362.933Z" fill="#FFB8B8"/>
<path d="M125.221 370.487L104.947 370.488L104.947 360.61L117.387 360.609C119.465 360.609 121.457 361.65 122.926 363.502C124.395 365.354 125.221 367.867 125.221 370.487Z" fill="#2F2E41"/>
<path d="M48.8389 355.004L54.8739 357.877L66.5346 329.89L57.6278 325.649L48.8389 355.004Z" fill="#FFB8B8"/>
<path d="M64.3955 370.487L45.429 361.456L48.1958 352.214L59.8343 357.756C61.7778 358.681 63.3502 360.543 64.2056 362.93C65.061 365.318 65.1293 368.036 64.3955 370.487Z" fill="#2F2E41"/>
<path d="M106.129 355.644C105.629 355.643 105.142 355.443 104.737 355.072C104.333 354.701 104.033 354.178 103.879 353.578L87.4263 289.502C87.3776 289.312 87.2847 289.145 87.1597 289.023C87.0347 288.9 86.8833 288.828 86.7253 288.815C86.5673 288.802 86.4098 288.85 86.2735 288.952C86.1372 289.053 86.0283 289.204 85.9609 289.385L63.1599 350.565C62.9132 351.227 62.4822 351.752 61.9487 352.04C61.4152 352.328 60.8164 352.359 60.266 352.127L51.2861 348.352C50.7157 348.111 50.2393 347.606 49.9533 346.938C49.6672 346.271 49.593 345.491 49.7455 344.757L63.7118 278.039C65.1726 270.971 66.2277 263.78 66.8688 256.522C67.8482 244.569 72.2919 233.492 79.3477 225.416C82.4284 221.857 84.4311 217.056 85.0123 211.838L85.0502 211.506L105.504 215.579L118.46 348.906C118.527 349.62 118.389 350.34 118.07 350.936C117.751 351.532 117.274 351.964 116.724 352.153L106.741 355.542C106.539 355.611 106.331 355.646 106.122 355.646L106.129 355.644Z" fill="#2F2E41"/>
<path d="M91.4938 158.371C98.6309 158.371 104.417 151.075 104.417 142.074C104.417 133.073 98.6309 125.776 91.4938 125.776C84.3566 125.776 78.5708 133.073 78.5708 142.074C78.5708 151.075 84.3566 158.371 91.4938 158.371Z" fill="#FFB8B8"/>
<path d="M104.237 218.418C104.196 218.418 104.156 218.418 104.115 218.414L83.839 217.135C83.2731 217.103 82.7354 216.814 82.3244 216.323C81.9135 215.831 81.657 215.169 81.6018 214.458L78.8321 180.399C78.6294 177.904 78.9133 175.386 79.6592 173.062C80.4052 170.737 81.5904 168.679 83.1118 167.065C84.6331 165.451 86.4443 164.33 88.3876 163.801C90.3309 163.272 92.3473 163.35 94.2612 164.029C95.8469 164.576 97.3245 165.535 98.5999 166.844C112.863 181.616 108.264 208.382 106.515 216.232C106.378 216.861 106.08 217.416 105.669 217.811C105.257 218.206 104.754 218.419 104.237 218.418Z" fill="#3E7CFF"/>
<path d="M86.5983 241.291C86.0333 241.291 85.4715 241.185 84.9314 240.975C84.1507 240.677 83.4288 240.174 82.813 239.5C82.1972 238.825 81.7014 237.994 81.3582 237.06C81.015 236.127 80.8321 235.113 80.8215 234.084C80.8109 233.056 80.9728 232.036 81.2967 231.092C81.3724 230.872 81.4572 230.658 81.5508 230.45L69.3792 201.732C68.4249 199.46 68.077 196.86 68.3872 194.319C68.6973 191.778 69.6489 189.431 71.1008 187.626L76.696 180.721L83.5518 190.163L79.4199 196.357L88.1762 226.969C88.4254 227.054 88.6696 227.16 88.907 227.288C90.1311 227.954 91.1353 229.133 91.7499 230.624C92.3646 232.116 92.5521 233.83 92.2808 235.476C92.0094 237.122 91.2958 238.599 90.2606 239.659C89.2253 240.718 87.9319 241.294 86.5988 241.289L86.5983 241.291Z" fill="#FFB8B8"/>
<path d="M80.5344 196.355L71.8076 186.704C71.3361 186.181 71.0482 185.444 71.0071 184.654C70.9659 183.864 71.1749 183.086 71.5882 182.49L81.5099 168.221C82.5733 166.695 84.0468 165.719 85.6466 165.481C87.2465 165.243 88.8596 165.76 90.1753 166.932C91.491 168.104 92.4164 169.849 92.7732 171.83C93.13 173.811 92.893 175.888 92.1078 177.662L84.1628 195.568C83.9906 195.956 83.7517 196.291 83.4636 196.548C83.1756 196.805 82.8457 196.977 82.498 197.052C82.1503 197.128 81.7937 197.104 81.4542 196.984C81.1146 196.863 80.8007 196.648 80.5355 196.355H80.5344Z" fill="#2F2E41"/>
<path d="M83.1786 157.905C84.3577 158.432 85.8031 158.9 86.7312 157.803C87.6373 156.736 87.4721 154.783 86.9385 153.346C86.405 151.908 85.5774 150.625 85.3238 149.062C84.9602 146.818 85.9025 144.487 87.2427 143.023C88.5828 141.559 90.2744 140.792 91.9255 140.053L100.972 135.997C103.211 134.993 105.624 133.814 106.877 131.172C108.69 127.349 107.035 121.882 104.058 119.656C101.082 117.429 97.3275 117.841 94.1185 119.409C92.3438 120.276 90.6553 121.472 88.8201 122.082C85.198 123.287 81.0792 122.206 77.896 124.782C75.1252 127.024 73.8398 131.598 73.9335 135.879C74.0271 140.159 75.2768 144.236 76.5948 148.151C77.3793 150.48 78.2169 152.835 79.545 154.688C80.873 156.541 82.7929 157.836 84.7102 157.495L83.1786 157.905Z" fill="#2F2E41"/>
<path d="M71.3342 141.217C77.146 141.217 81.8574 135.275 81.8574 127.946C81.8574 120.617 77.146 114.675 71.3342 114.675C65.5224 114.675 60.811 120.617 60.811 127.946C60.811 135.275 65.5224 141.217 71.3342 141.217Z" fill="#2F2E41"/>
<path d="M156.683 204.553L156.497 204.521L157.2 198.069C157.308 197.079 157.099 196.075 156.62 195.279C156.141 194.482 155.431 193.958 154.646 193.822L143.807 191.943C143.022 191.807 142.226 192.07 141.595 192.674C140.963 193.278 140.548 194.174 140.44 195.164L136.582 230.558C136.474 231.548 136.683 232.552 137.162 233.348C137.641 234.145 138.351 234.669 139.136 234.805L149.975 236.684C150.76 236.82 151.556 236.557 152.187 235.953C152.819 235.349 153.234 234.453 153.342 233.463L155.996 209.111L156.183 209.143L156.683 204.553Z" fill="#3F3D56"/>
<path d="M154.306 195.715L152.956 195.481C152.997 195.683 152.998 195.896 152.959 196.099C152.92 196.302 152.841 196.49 152.731 196.646C152.621 196.802 152.481 196.922 152.326 196.994C152.17 197.066 152.003 197.089 151.838 197.061L145.916 196.034C145.752 196.005 145.596 195.926 145.461 195.804C145.327 195.681 145.219 195.519 145.146 195.331C145.073 195.143 145.038 194.935 145.044 194.726C145.05 194.517 145.096 194.313 145.179 194.132L143.917 193.914C143.64 193.866 143.358 193.887 143.087 193.976C142.817 194.066 142.563 194.221 142.34 194.434C142.117 194.647 141.93 194.914 141.789 195.218C141.648 195.522 141.555 195.859 141.517 196.208L137.843 229.917C137.805 230.266 137.821 230.621 137.892 230.962C137.963 231.304 138.086 231.624 138.255 231.905C138.424 232.186 138.635 232.422 138.877 232.6C139.118 232.778 139.385 232.894 139.662 232.942L150.05 234.743C150.327 234.791 150.609 234.77 150.879 234.681C151.15 234.592 151.404 234.436 151.627 234.223C151.849 234.01 152.037 233.743 152.178 233.439C152.319 233.135 152.411 232.798 152.449 232.449L156.124 198.74C156.162 198.391 156.145 198.036 156.074 197.694C156.003 197.353 155.88 197.033 155.711 196.752C155.542 196.471 155.331 196.235 155.09 196.057C154.848 195.879 154.582 195.763 154.305 195.715H154.306Z" fill="white"/>
<path d="M146.938 223.704C150.134 223.704 152.725 220.436 152.725 216.405C152.725 212.373 150.134 209.105 146.938 209.105C143.741 209.105 141.15 212.373 141.15 216.405C141.15 220.436 143.741 223.704 146.938 223.704Z" fill="#3E7CFF"/>
<path d="M146.364 219.189C146.234 219.189 146.107 219.136 146.003 219.038L145.997 219.032L144.637 217.718C144.51 217.595 144.426 217.413 144.406 217.213C144.385 217.012 144.428 216.809 144.525 216.649C144.623 216.489 144.767 216.384 144.926 216.357C145.085 216.331 145.246 216.386 145.373 216.509L146.254 217.361L148.336 213.937C148.384 213.857 148.445 213.791 148.513 213.741C148.582 213.69 148.658 213.658 148.737 213.645C148.815 213.632 148.895 213.638 148.972 213.664C149.048 213.69 149.12 213.735 149.183 213.795L149.17 213.817L149.183 213.795C149.31 213.919 149.393 214.1 149.414 214.3C149.435 214.501 149.393 214.703 149.295 214.864L146.847 218.892C146.79 218.984 146.717 219.059 146.634 219.111C146.55 219.163 146.459 219.189 146.366 219.189H146.364Z" fill="white"/>
<path d="M445.355 370.998H3.75419C3.6704 371.001 3.58698 370.983 3.50886 370.945C3.43074 370.906 3.35951 370.849 3.29939 370.775C3.23926 370.701 3.19147 370.613 3.15883 370.516C3.12619 370.419 3.10938 370.314 3.10938 370.208C3.10938 370.102 3.12619 369.998 3.15883 369.9C3.19147 369.803 3.23926 369.715 3.29939 369.641C3.35951 369.568 3.43074 369.51 3.50886 369.472C3.58698 369.433 3.6704 369.415 3.75419 369.418H445.355C445.439 369.415 445.523 369.433 445.601 369.472C445.679 369.51 445.75 369.568 445.81 369.641C445.87 369.715 445.918 369.803 445.951 369.9C445.983 369.998 446 370.102 446 370.208C446 370.314 445.983 370.419 445.951 370.516C445.918 370.613 445.87 370.701 445.81 370.775C445.75 370.849 445.679 370.906 445.601 370.945C445.523 370.983 445.439 371.001 445.355 370.998Z" fill="#CCCCCC"/>
</svg>
