<svg width="446" height="371" viewBox="0 0 446 371" fill="none" xmlns="http://www.w3.org/2000/svg">
<path d="M445.43 97.6797L442.828 86.1916C442.804 86.0843 442.759 85.9828 442.694 85.8928C442.63 85.8028 442.549 85.7261 442.454 85.6672C442.36 85.6082 442.255 85.5681 442.144 85.5491C442.034 85.5302 441.921 85.5327 441.812 85.5566L433.229 87.4343C433.041 87.4746 432.844 87.4511 432.671 87.3675C432.498 87.2839 432.359 87.1451 432.276 86.9738C430.734 83.8293 428.681 80.9533 426.196 78.4594C426.06 78.3248 425.974 78.1489 425.953 77.9604C425.932 77.7719 425.977 77.5819 426.08 77.4216L430.799 70.1269C430.92 69.9396 430.96 69.7127 430.911 69.4961C430.862 69.2794 430.728 69.0907 430.537 68.9715L420.429 62.6547C420.238 62.5358 420.007 62.4962 419.787 62.5445C419.567 62.5928 419.375 62.725 419.253 62.9121L414.534 70.2068C414.43 70.3668 414.274 70.4872 414.091 70.5484C413.908 70.6095 413.709 70.6078 413.527 70.5434C410.175 69.3901 406.654 68.7822 403.103 68.7438C402.91 68.7431 402.723 68.6782 402.572 68.5596C402.422 68.441 402.317 68.2758 402.274 68.0909L400.363 59.655C400.339 59.5477 400.293 59.4462 400.229 59.3562C400.165 59.2662 400.083 59.1896 399.989 59.1306C399.894 59.0716 399.789 59.0315 399.679 59.0126C399.569 58.9936 399.456 58.9961 399.347 59.0201L387.663 61.5772C387.442 61.6256 387.25 61.7579 387.129 61.9452C387.008 62.1325 386.967 62.3594 387.016 62.5761L388.927 71.0119C388.968 71.1972 388.944 71.3906 388.859 71.5607C388.774 71.7309 388.633 71.8677 388.459 71.9489C385.259 73.4639 382.333 75.4824 379.796 77.9247C379.659 78.0584 379.48 78.1424 379.288 78.1631C379.096 78.1838 378.903 78.1399 378.739 78.0386L371.317 73.3971C371.126 73.2782 370.896 73.2386 370.675 73.2868C370.455 73.3351 370.263 73.4673 370.142 73.6545L363.719 83.588C363.598 83.7754 363.557 84.0023 363.606 84.2189C363.656 84.4356 363.79 84.6242 363.981 84.7434L371.402 89.3812C371.565 89.4837 371.688 89.6375 371.75 89.8174C371.812 89.9973 371.81 90.1927 371.745 90.3714C370.571 93.6659 369.953 97.1266 369.914 100.617C369.914 100.806 369.847 100.99 369.727 101.138C369.606 101.286 369.438 101.389 369.25 101.431L360.666 103.309C360.557 103.333 360.454 103.378 360.362 103.441C360.271 103.504 360.193 103.584 360.133 103.677C360.073 103.77 360.032 103.873 360.013 103.981C359.993 104.09 359.996 104.201 360.02 104.308L362.623 115.797C362.647 115.904 362.693 116.005 362.757 116.095C362.821 116.185 362.903 116.262 362.997 116.321C363.092 116.38 363.197 116.42 363.307 116.439C363.417 116.458 363.53 116.455 363.639 116.431L372.222 114.554C372.41 114.513 372.607 114.537 372.781 114.62C372.954 114.704 373.093 114.843 373.175 115.014C374.717 118.159 376.771 121.035 379.256 123.529C379.391 123.663 379.477 123.839 379.498 124.028C379.519 124.216 379.474 124.406 379.372 124.567L374.649 131.861C374.528 132.048 374.487 132.275 374.536 132.492C374.586 132.708 374.72 132.897 374.911 133.016L385.015 139.328C385.109 139.387 385.215 139.428 385.325 139.447C385.435 139.466 385.548 139.463 385.657 139.439C385.766 139.415 385.869 139.37 385.961 139.307C386.053 139.244 386.131 139.164 386.191 139.071L390.909 131.777C391.014 131.617 391.17 131.497 391.353 131.435C391.536 131.374 391.735 131.376 391.917 131.44C395.269 132.594 398.79 133.202 402.342 133.239C402.535 133.24 402.721 133.305 402.872 133.424C403.022 133.543 403.128 133.708 403.17 133.893L405.081 142.328C405.105 142.435 405.151 142.537 405.215 142.627C405.279 142.717 405.361 142.794 405.455 142.853C405.549 142.911 405.655 142.952 405.765 142.971C405.875 142.99 405.988 142.987 406.097 142.963L417.786 140.406C417.895 140.382 417.999 140.337 418.09 140.274C418.182 140.211 418.26 140.131 418.32 140.038C418.38 139.945 418.421 139.842 418.44 139.734C418.46 139.625 418.457 139.514 418.433 139.407L416.522 130.972C416.481 130.787 416.505 130.593 416.59 130.423C416.675 130.253 416.816 130.116 416.991 130.035C420.19 128.52 423.117 126.501 425.654 124.059C425.791 123.926 425.97 123.842 426.162 123.821C426.354 123.8 426.547 123.844 426.711 123.945L434.132 128.583C434.226 128.642 434.331 128.682 434.441 128.701C434.552 128.72 434.665 128.718 434.774 128.694C434.883 128.67 434.986 128.625 435.078 128.562C435.169 128.499 435.247 128.419 435.307 128.326L441.735 118.395C441.795 118.302 441.836 118.199 441.856 118.091C441.875 117.982 441.872 117.871 441.848 117.764C441.824 117.657 441.778 117.555 441.714 117.465C441.649 117.375 441.568 117.299 441.473 117.24L434.051 112.598C433.888 112.496 433.766 112.342 433.704 112.162C433.641 111.982 433.643 111.787 433.708 111.608C434.882 108.314 435.501 104.853 435.54 101.363C435.541 101.174 435.607 100.99 435.727 100.842C435.848 100.694 436.016 100.591 436.205 100.549L444.787 98.6711C445.006 98.622 445.195 98.4905 445.316 98.3049C445.436 98.1194 445.477 97.8948 445.43 97.6797ZM407.45 119.078C403.759 120.01 399.869 119.83 396.285 118.561C392.7 117.292 389.586 114.993 387.348 111.962C385.11 108.932 383.851 105.31 383.734 101.567C383.617 97.8241 384.649 94.1332 386.694 90.9737C388.739 87.8142 391.703 85.3322 395.202 83.8499C398.701 82.3677 402.573 81.9538 406.314 82.6619C410.056 83.3701 413.494 85.1676 416.182 87.821C418.871 90.4744 420.686 93.8611 421.39 97.5411C422.283 102.2 421.339 107.017 418.75 111.017C416.161 115.017 412.121 117.898 407.45 119.078Z" fill="#C1D8ED"/>
<path d="M389.977 160.978L386.81 147.025C386.781 146.895 386.725 146.771 386.647 146.662C386.569 146.553 386.47 146.46 386.355 146.388C386.24 146.316 386.112 146.268 385.978 146.245C385.844 146.222 385.706 146.225 385.573 146.254L375.127 148.534C374.898 148.583 374.658 148.555 374.448 148.453C374.237 148.352 374.068 148.183 373.967 147.975C372.091 144.156 369.591 140.663 366.567 137.634C366.401 137.471 366.297 137.257 366.271 137.028C366.246 136.799 366.3 136.568 366.426 136.374L372.169 127.514C372.316 127.286 372.366 127.011 372.306 126.748C372.246 126.485 372.083 126.256 371.851 126.111L359.548 118.439C359.316 118.294 359.035 118.246 358.767 118.305C358.498 118.364 358.265 118.524 358.117 118.751L352.374 127.611C352.247 127.805 352.056 127.952 351.833 128.026C351.611 128.1 351.369 128.098 351.147 128.02C347.068 126.619 342.782 125.881 338.46 125.834C338.226 125.833 337.998 125.754 337.815 125.61C337.632 125.466 337.504 125.266 337.452 125.041L335.126 114.796C335.096 114.665 335.041 114.542 334.963 114.433C334.884 114.323 334.785 114.23 334.67 114.159C334.555 114.087 334.427 114.038 334.293 114.015C334.159 113.992 334.022 113.995 333.889 114.024L319.668 117.13C319.4 117.189 319.166 117.35 319.019 117.577C318.871 117.804 318.822 118.08 318.881 118.343L321.207 128.589C321.257 128.814 321.228 129.049 321.125 129.255C321.021 129.462 320.849 129.628 320.637 129.727C316.743 131.567 313.182 134.018 310.094 136.985C309.927 137.147 309.709 137.249 309.475 137.274C309.242 137.299 309.006 137.246 308.808 137.123L299.774 131.486C299.542 131.341 299.261 131.293 298.993 131.352C298.724 131.41 298.491 131.571 298.343 131.798L290.526 143.863C290.379 144.09 290.33 144.366 290.389 144.629C290.449 144.892 290.613 145.121 290.845 145.266L299.878 150.899C300.076 151.023 300.225 151.21 300.301 151.429C300.376 151.647 300.374 151.884 300.294 152.102C298.866 156.103 298.114 160.306 298.067 164.545C298.066 164.775 297.985 164.998 297.838 165.178C297.692 165.358 297.487 165.483 297.258 165.534L286.811 167.814C286.678 167.843 286.553 167.898 286.441 167.975C286.33 168.051 286.235 168.149 286.162 168.261C286.089 168.374 286.039 168.5 286.016 168.631C285.992 168.763 285.995 168.897 286.025 169.028L289.192 182.981C289.222 183.111 289.277 183.235 289.356 183.344C289.434 183.453 289.533 183.546 289.648 183.618C289.763 183.69 289.891 183.738 290.025 183.761C290.159 183.784 290.296 183.781 290.429 183.752L300.875 181.472C301.105 181.422 301.344 181.451 301.555 181.552C301.766 181.654 301.935 181.823 302.036 182.031C303.912 185.85 306.412 189.343 309.436 192.372C309.601 192.536 309.705 192.749 309.731 192.978C309.756 193.207 309.702 193.438 309.577 193.632L303.829 202.491C303.682 202.719 303.633 202.995 303.692 203.258C303.752 203.521 303.916 203.75 304.148 203.895L316.446 211.561C316.56 211.633 316.689 211.682 316.823 211.705C316.957 211.728 317.094 211.725 317.227 211.696C317.36 211.667 317.486 211.612 317.597 211.536C317.709 211.459 317.803 211.361 317.876 211.249L323.62 202.39C323.747 202.196 323.937 202.049 324.16 201.975C324.383 201.9 324.625 201.902 324.846 201.98C328.926 203.382 333.211 204.12 337.534 204.166C337.769 204.167 337.996 204.246 338.179 204.39C338.362 204.534 338.49 204.735 338.542 204.96L340.868 215.204C340.897 215.335 340.953 215.458 341.031 215.567C341.109 215.677 341.208 215.77 341.323 215.841C341.438 215.913 341.566 215.962 341.7 215.985C341.834 216.008 341.972 216.005 342.105 215.976L356.331 212.87C356.464 212.841 356.59 212.787 356.702 212.71C356.813 212.633 356.908 212.536 356.981 212.423C357.054 212.311 357.104 212.185 357.128 212.053C357.151 211.922 357.148 211.787 357.118 211.657L354.793 201.412C354.743 201.187 354.772 200.952 354.875 200.745C354.979 200.538 355.151 200.372 355.363 200.274C359.257 198.434 362.819 195.982 365.907 193.016C366.074 192.854 366.292 192.752 366.526 192.727C366.759 192.702 366.995 192.755 367.194 192.878L376.226 198.511C376.34 198.582 376.468 198.631 376.603 198.654C376.737 198.677 376.874 198.674 377.007 198.645C377.14 198.616 377.266 198.562 377.377 198.485C377.488 198.409 377.583 198.311 377.656 198.199L385.48 186.137C385.553 186.025 385.603 185.899 385.626 185.767C385.65 185.636 385.647 185.501 385.617 185.371C385.587 185.24 385.532 185.117 385.454 185.008C385.375 184.899 385.276 184.805 385.161 184.734L376.127 179.097C375.929 178.972 375.78 178.785 375.704 178.567C375.628 178.348 375.63 178.111 375.71 177.894C377.139 173.893 377.892 169.69 377.939 165.451C377.94 165.221 378.021 164.998 378.168 164.818C378.315 164.639 378.519 164.513 378.749 164.462L389.195 162.182C389.46 162.122 389.691 161.962 389.838 161.737C389.984 161.512 390.034 161.239 389.977 160.978V160.978ZM343.751 186.966C339.259 188.098 334.525 187.879 330.162 186.338C325.799 184.797 322.009 182.005 319.285 178.324C316.561 174.644 315.029 170.245 314.887 165.699C314.745 161.153 316 156.67 318.489 152.833C320.978 148.996 324.586 145.981 328.845 144.181C333.103 142.381 337.815 141.878 342.369 142.738C346.923 143.598 351.107 145.781 354.38 149.004C357.652 152.227 359.86 156.34 360.718 160.809C361.805 166.467 360.656 172.318 357.505 177.176C354.354 182.034 349.437 185.534 343.751 186.966V186.966Z" fill="#C1D8ED"/>
<path d="M445.991 38.8832L444.712 33.2747C444.7 33.2224 444.678 33.1728 444.646 33.1289C444.614 33.0849 444.574 33.0475 444.528 33.0187C444.481 32.9899 444.43 32.9704 444.376 32.9611C444.321 32.9518 444.266 32.9531 444.212 32.9648L439.994 33.8814C439.901 33.9011 439.804 33.8896 439.719 33.8488C439.634 33.808 439.566 33.7403 439.525 33.6566C438.767 32.1215 437.758 30.7175 436.537 29.5C436.47 29.4343 436.428 29.3484 436.417 29.2563C436.407 29.1643 436.429 29.0716 436.48 28.9933L438.799 25.4321C438.859 25.3406 438.878 25.2299 438.854 25.1241C438.83 25.0183 438.764 24.9262 438.671 24.868L433.702 21.7842C433.608 21.7262 433.495 21.7068 433.386 21.7304C433.278 21.754 433.184 21.8185 433.124 21.9099L430.805 25.4711C430.753 25.5492 430.677 25.608 430.587 25.6378C430.497 25.6677 430.399 25.6668 430.31 25.6354C428.662 25.0724 426.931 24.7756 425.186 24.7568C425.091 24.7565 424.999 24.7248 424.925 24.6669C424.851 24.609 424.8 24.5284 424.779 24.4381L423.839 20.3198C423.827 20.2674 423.805 20.2178 423.773 20.1739C423.742 20.13 423.702 20.0925 423.655 20.0638C423.609 20.035 423.557 20.0154 423.503 20.0061C423.449 19.9969 423.393 19.9981 423.34 20.0098L417.597 21.2582C417.488 21.2818 417.394 21.3464 417.335 21.4378C417.275 21.5293 417.255 21.64 417.279 21.7458L418.218 25.8641C418.238 25.9546 418.227 26.049 418.185 26.1321C418.143 26.2151 418.074 26.2819 417.988 26.3216C416.415 27.0612 414.977 28.0466 413.73 29.2389C413.663 29.3042 413.575 29.3452 413.48 29.3553C413.386 29.3654 413.291 29.344 413.211 29.2945L409.563 27.0285C409.469 26.9705 409.355 26.9512 409.247 26.9747C409.139 26.9983 409.044 27.0629 408.985 27.1542L405.828 32.0037C405.768 32.0952 405.749 32.206 405.773 32.3117C405.797 32.4175 405.863 32.5096 405.957 32.5678L409.604 34.8319C409.684 34.8819 409.745 34.957 409.775 35.0449C409.806 35.1327 409.805 35.228 409.773 35.3153C409.196 36.9237 408.892 38.6131 408.873 40.3171C408.873 40.4096 408.84 40.4993 408.781 40.5716C408.722 40.6438 408.639 40.6942 408.546 40.7147L404.328 41.6313C404.274 41.643 404.223 41.6648 404.178 41.6956C404.133 41.7265 404.095 41.7656 404.065 41.8109C404.036 41.8562 404.016 41.9067 404.006 41.9596C403.997 42.0124 403.998 42.0666 404.01 42.119L405.289 47.7277C405.301 47.7801 405.324 47.8296 405.355 47.8736C405.387 47.9175 405.427 47.9549 405.473 47.9837C405.52 48.0125 405.571 48.0321 405.625 48.0413C405.68 48.0506 405.735 48.0493 405.789 48.0377L410.007 47.121C410.1 47.1012 410.197 47.1126 410.282 47.1535C410.367 47.1943 410.435 47.2621 410.476 47.3458C411.234 48.881 412.243 50.285 413.465 51.5025C413.531 51.5682 413.573 51.6541 413.584 51.7461C413.594 51.8381 413.572 51.9308 413.522 52.0091L411.2 55.57C411.141 55.6615 411.121 55.7723 411.145 55.8781C411.169 55.9839 411.235 56.0759 411.329 56.1341L416.295 59.2158C416.342 59.2446 416.393 59.2642 416.448 59.2735C416.502 59.2828 416.557 59.2815 416.611 59.2699C416.665 59.2582 416.715 59.2363 416.76 59.2055C416.805 59.1746 416.844 59.1354 416.873 59.0901L419.193 55.5292C419.244 55.4512 419.321 55.3924 419.411 55.3624C419.501 55.3325 419.598 55.3333 419.688 55.3646C421.335 55.928 423.066 56.2248 424.812 56.2432C424.907 56.2436 424.998 56.2754 425.072 56.3333C425.146 56.3913 425.198 56.4719 425.219 56.5622L426.158 60.6802C426.17 60.7326 426.192 60.7822 426.224 60.8261C426.256 60.87 426.296 60.9075 426.342 60.9362C426.388 60.965 426.44 60.9846 426.494 60.9939C426.549 61.0031 426.604 61.0019 426.658 60.9902L432.403 59.7418C432.457 59.7302 432.508 59.7084 432.553 59.6776C432.598 59.6468 432.636 59.6076 432.665 59.5623C432.695 59.517 432.715 59.4665 432.725 59.4136C432.734 59.3608 432.733 59.3066 432.721 59.2542L431.782 55.1362C431.761 55.0457 431.773 54.9512 431.815 54.8681C431.857 54.785 431.926 54.7183 432.012 54.6787C433.585 53.939 435.023 52.9536 436.27 51.7614C436.338 51.6962 436.426 51.6553 436.52 51.6452C436.614 51.6351 436.709 51.6564 436.79 51.7058L440.437 53.97C440.484 53.9988 440.535 54.0184 440.589 54.0277C440.644 54.037 440.699 54.0358 440.753 54.0241C440.806 54.0125 440.857 53.9906 440.902 53.9598C440.947 53.929 440.986 53.8898 441.015 53.8446L444.175 48.9963C444.204 48.951 444.224 48.9005 444.234 48.8476C444.243 48.7948 444.242 48.7406 444.23 48.6882C444.218 48.6358 444.196 48.5863 444.164 48.5423C444.132 48.4984 444.092 48.461 444.046 48.4322L440.398 46.1663C440.318 46.1162 440.257 46.0411 440.227 45.9533C440.196 45.8655 440.197 45.7702 440.229 45.6829C440.806 44.0747 441.11 42.3853 441.129 40.6814C441.13 40.5888 441.162 40.4991 441.222 40.4269C441.281 40.3547 441.364 40.3043 441.456 40.2838L445.675 39.3672C445.782 39.3432 445.875 39.279 445.934 39.1884C445.994 39.0978 446.014 38.9882 445.991 38.8832V38.8832ZM427.322 49.3296C425.509 49.7845 423.597 49.6966 421.835 49.0771C420.073 48.4576 418.542 47.3353 417.442 45.8558C416.342 44.3763 415.723 42.6082 415.666 40.7809C415.608 38.9536 416.115 37.1518 417.12 35.6093C418.126 34.0669 419.583 32.8552 421.303 32.1316C423.022 31.4079 424.925 31.2059 426.764 31.5516C428.603 31.8973 430.293 32.7749 431.615 34.0702C432.936 35.3656 433.828 37.0189 434.175 38.8155C434.613 41.0897 434.15 43.4417 432.877 45.3943C431.604 47.3469 429.619 48.7538 427.322 49.3296V49.3296Z" fill="#C1D8ED"/>
<path d="M320.626 91.0698H305.223L300.802 74.4903H283.299L279.099 91.0698H264L285.278 12.2673H298.75L320.626 91.0698ZM287.914 56.3726H296.025L291.93 40.4965L287.914 56.3726ZM341.395 92.3771C338.359 92.5299 335.328 91.9688 332.548 90.7389C329.767 89.509 327.313 87.6444 325.383 85.2948C321.13 79.2789 318.755 72.1375 318.558 64.7725L318.316 61.801L332.082 59.869L332.407 62.494C332.589 65.6676 333.613 68.7355 335.374 71.3823C336.116 72.2794 337.057 72.991 338.122 73.4604C339.188 73.9298 340.348 74.144 341.511 74.086C342.653 74.1839 343.803 74.0233 344.874 73.6161C345.946 73.209 346.912 72.5657 347.701 71.734C348.861 70.4127 349.493 68.7097 349.475 66.9513C349.514 66.0779 349.314 65.2105 348.898 64.4418C348.193 63.4251 347.216 62.628 346.078 62.1423C345.307 61.7538 343.275 60.8928 338.077 59.0343C333.293 57.635 329.005 54.9038 325.714 51.1593C322.08 46.295 320.2 40.3441 320.38 34.2753C320.348 30.116 321.209 25.9982 322.905 22.2003C324.396 18.7391 326.899 15.8105 330.087 13.8003C333.332 11.894 337.046 10.9355 340.807 11.0336C343.749 10.858 346.691 11.3729 349.399 12.5369C352.106 13.701 354.504 15.482 356.4 17.7378C360.282 23.0031 362.312 29.4048 362.175 35.9448L362.248 38.8428L348.331 39.7248L348 37.1943C347.922 34.9399 347.202 32.7545 345.926 30.8943C345.236 30.2265 344.409 29.7153 343.503 29.3955C342.597 29.0757 341.633 28.9548 340.676 29.0411C339.613 28.9696 338.546 29.1193 337.543 29.4807C336.54 29.8422 335.622 30.4075 334.849 31.1411C334.574 31.4237 334.362 31.761 334.227 32.1309C334.091 32.5008 334.035 32.8952 334.061 33.2883C334.047 34.0886 334.331 34.8656 334.859 35.4671C337.336 37.5597 340.277 39.0303 343.438 39.7563C347.527 40.9879 351.402 42.8438 354.925 45.2583C357.745 47.4733 359.936 50.3872 361.282 53.7108C362.94 57.9138 363.731 62.4086 363.608 66.925C363.64 71.5159 362.708 76.0622 360.873 80.2706C359.321 84.0752 356.619 87.3001 353.145 89.4948C349.565 91.5101 345.502 92.5069 341.395 92.3771ZM382.44 91.0698H368.265V12.2673H386.64C390.894 12.0193 395.16 12.4211 399.292 13.4591C402.977 15.0665 405.942 17.9719 407.624 21.6228C410.036 26.6061 411.195 32.1026 411 37.6353C411.101 41.9488 410.448 46.2468 409.068 50.3351C408.024 53.3859 406.338 56.177 404.122 58.5198C402.468 60.285 400.411 61.6234 398.127 62.4205C394.518 63.2794 390.81 63.652 387.102 63.5283H382.419L382.44 91.0698ZM382.44 45.3055H386.052C388.543 45.5357 391.053 45.2094 393.402 44.35C394.412 43.7716 395.211 42.8848 395.68 41.8196C396.243 40.5626 396.515 39.1955 396.478 37.8191C396.555 36.2148 396.174 34.6218 395.381 33.2253C395.06 32.6572 394.63 32.158 394.115 31.7562C393.601 31.3544 393.013 31.058 392.383 30.8838C390.071 30.4739 387.72 30.3225 385.375 30.4323H382.419L382.44 45.3055Z" fill="#89B1FF"/>
<path d="M219.23 371C324.936 371 410.628 351.98 410.628 328.518C410.628 305.056 324.936 286.036 219.23 286.036C113.524 286.036 27.8322 305.056 27.8322 328.518C27.8322 351.98 113.524 371 219.23 371Z" fill="white"/>
<path opacity="0.16" d="M219.23 371C324.936 371 410.628 351.98 410.628 328.518C410.628 305.056 324.936 286.036 219.23 286.036C113.524 286.036 27.8322 305.056 27.8322 328.518C27.8322 351.98 113.524 371 219.23 371Z" fill="#367CFF"/>
<path d="M41.5494 128.467C41.8255 127.92 42.2646 127.473 42.8061 127.186C43.3475 126.9 43.9646 126.788 44.5721 126.867C44.5667 126.831 44.5703 126.793 44.5827 126.759C44.595 126.724 44.6157 126.692 44.643 126.667C44.6702 126.642 44.7032 126.624 44.739 126.615C44.7748 126.605 44.8124 126.605 44.8484 126.613L42.7992 125.145C42.1861 124.725 41.7456 124.098 41.5591 123.379C41.3726 122.66 41.4526 121.898 41.7844 121.233C42.1334 120.587 42.7098 120.094 43.4018 119.849C44.0937 119.604 44.852 119.625 45.5294 119.908C45.5245 119.879 45.5436 119.851 45.5479 119.822L44.7059 119.218C44.1299 118.82 43.7091 118.235 43.5146 117.563C43.3201 116.89 43.364 116.171 43.6387 115.528C43.8193 115.127 44.0863 114.772 44.4207 114.488C44.7551 114.203 45.1485 113.997 45.5724 113.883C45.9964 113.769 46.4403 113.75 46.8723 113.829C47.3042 113.907 47.7134 114.08 48.0703 114.336L50.0134 115.729C50.019 115.717 50.0134 115.703 50.0215 115.693C50.0295 115.682 50.0498 115.678 50.0609 115.666C49.6149 115.165 49.3526 114.526 49.3172 113.856C49.2818 113.185 49.4753 112.522 49.866 111.976C50.7827 110.5 52.9004 110.804 54.1563 111.702L65.5924 119.598L63.5481 116.157C63.1363 115.495 62.9913 114.701 63.1425 113.936C63.2936 113.171 63.7296 112.492 64.3624 112.036C64.6968 111.812 65.0734 111.659 65.4691 111.585C65.8648 111.511 66.2714 111.519 66.664 111.608C67.0566 111.697 67.427 111.865 67.7525 112.102C68.0779 112.339 68.3517 112.639 68.5571 112.986L79.718 131.775C81.0273 133.98 81.4255 136.607 80.8282 139.101C80.2308 141.594 78.685 143.756 76.519 145.127V145.127C74.0069 146.718 71.077 147.522 68.1049 147.437C65.1328 147.352 62.2538 146.381 59.837 144.649L42.5648 132.27C41.9923 131.843 41.5807 131.235 41.3965 130.545C41.2122 129.855 41.2661 129.123 41.5494 128.467V128.467Z" fill="#E98862"/>
<g opacity="0.25">
<path d="M61.3305 123.536C61.2882 123.593 61.225 123.632 61.1546 123.644C61.0842 123.655 61.012 123.639 60.9536 123.598L50.0875 116.072C50.0308 116.029 49.9927 115.966 49.9814 115.896C49.9701 115.826 49.9864 115.755 50.0268 115.697C50.0672 115.638 50.1287 115.598 50.1982 115.584C50.2677 115.57 50.3399 115.584 50.3996 115.622L61.2651 123.148C61.3247 123.189 61.3654 123.253 61.3783 123.324C61.3913 123.395 61.3754 123.469 61.3342 123.529L61.3305 123.536Z" fill="#0C0C0C"/>
</g>
<g opacity="0.25">
<path d="M58.1431 128.419C58.1009 128.477 58.0379 128.516 57.9675 128.527C57.8972 128.539 57.8252 128.522 57.7668 128.481L45.6405 120.084C45.6109 120.064 45.5856 120.038 45.5661 120.008C45.5467 119.977 45.5333 119.943 45.5269 119.908C45.5205 119.873 45.5211 119.836 45.5288 119.801C45.5364 119.766 45.5509 119.733 45.5714 119.703C45.6143 119.646 45.6775 119.607 45.7482 119.594C45.8188 119.581 45.8917 119.596 45.952 119.635L58.0814 128.033C58.141 128.075 58.1817 128.138 58.1946 128.209C58.2076 128.281 58.1917 128.354 58.1505 128.414L58.1431 128.419Z" fill="#0C0C0C"/>
</g>
<g opacity="0.25">
<path d="M54.722 133.729C54.6796 133.786 54.6165 133.825 54.5461 133.837C54.4757 133.848 54.4035 133.832 54.3451 133.791L44.672 127.093C44.6425 127.072 44.6173 127.046 44.5979 127.016C44.5785 126.986 44.5653 126.952 44.5589 126.917C44.5526 126.881 44.5532 126.845 44.5609 126.81C44.5685 126.775 44.583 126.742 44.6035 126.712C44.624 126.683 44.6501 126.657 44.6803 126.638C44.7105 126.619 44.7443 126.605 44.7796 126.599C44.815 126.593 44.8512 126.593 44.8863 126.601C44.9214 126.609 44.9546 126.623 44.9841 126.644L54.6566 133.343C54.6861 133.363 54.7114 133.389 54.7308 133.42C54.7503 133.45 54.7636 133.483 54.7701 133.519C54.7765 133.554 54.7759 133.59 54.7682 133.626C54.7606 133.661 54.7462 133.694 54.7257 133.723L54.722 133.729Z" fill="#0C0C0C"/>
</g>
<path d="M81.9092 121.265L120.856 174.585L162.367 121.265L192.398 152.071L135.678 225.527L135.308 226.05C133.037 229.159 130.012 231.64 126.518 233.257C123.024 234.874 119.176 235.575 115.336 235.294C111.496 235.013 107.791 233.759 104.57 231.651C101.349 229.542 98.7173 226.648 96.9237 223.241L48.5379 145.078L81.9092 121.265Z" fill="#367CFF"/>
<path d="M124.07 181.297C124.141 181.297 124.211 181.279 124.273 181.244C124.335 181.209 124.387 181.159 124.424 181.098C124.461 181.037 124.482 180.968 124.485 180.897C124.488 180.826 124.472 180.755 124.44 180.692L121.227 174.395C121.172 174.305 121.086 174.239 120.984 174.211C120.883 174.182 120.774 174.193 120.681 174.241C120.587 174.289 120.515 174.371 120.479 174.47C120.443 174.569 120.446 174.678 120.487 174.775L123.7 181.071C123.735 181.139 123.788 181.196 123.853 181.236C123.918 181.276 123.993 181.297 124.07 181.297V181.297Z" fill="#0C0C0C"/>
<path d="M256.945 46.2141C256.945 46.2141 262.141 65.2013 267.891 71.3039C284.445 88.8729 292.656 110.755 282.572 125.109C272.489 139.463 192.896 155.817 181.338 129.866C171.607 108.019 182.006 103.341 180.82 83.9294C180.283 75.1452 179.944 56.5664 179.944 56.5664" fill="#0A0A0A"/>
<path d="M194.738 115.416C194.878 115.398 196.435 141.225 226.438 138.973C247.209 137.417 254.615 115.38 255.091 115.38C252.852 114.903 249.081 114.211 248.086 113.681C244.817 111.923 240.768 110.094 239.714 103.743C239.107 100.082 240.137 81.3509 239.82 77.6497L207.937 84.7652C208.382 92.5883 211.5 110.723 200.572 113.933C198.753 114.464 196.794 114.952 194.738 115.416Z" fill="#E98862"/>
<path opacity="0.52" d="M207.49 106.521C207.989 104.912 208.311 103.253 208.449 101.573C208.799 97.7401 208.729 93.8805 208.24 90.0629C214.721 89.1881 220.826 86.5135 225.862 82.3428C226.454 84.5289 229.71 94.0824 228.809 96.1606C227.103 100.089 219.097 106.521 207.49 106.521Z" fill="#0C0C0C"/>
<path d="M214.301 101.728C226.861 100.415 241.798 92.2472 241.764 75.1717L241.734 59.7642C241.7 42.6887 232.704 28.8635 216.627 28.8956C200.549 28.927 188.56 42.7936 188.593 59.8691L188.607 66.6904C188.619 73.2421 191.89 104.07 214.301 101.728Z" fill="#E98862"/>
<path opacity="0.52" d="M205.019 79.8179C205.009 79.8185 204.999 79.8185 204.988 79.8179C204.336 79.8147 203.685 79.7754 203.037 79.7001C202.068 79.581 200.78 79.3244 200.778 78.4706C200.778 77.4972 203.421 66.9969 203.722 65.8002C203.734 65.7468 203.756 65.6962 203.787 65.6515C203.819 65.6067 203.859 65.5688 203.905 65.5399C203.951 65.511 204.003 65.4918 204.057 65.4834C204.111 65.4749 204.166 65.4775 204.219 65.4909C204.272 65.5042 204.322 65.5282 204.365 65.5612C204.409 65.5942 204.445 65.6357 204.472 65.6831C204.499 65.7306 204.516 65.783 204.523 65.8372C204.529 65.8915 204.524 65.9464 204.509 65.9988C203.38 70.4717 201.589 77.8137 201.59 78.4688C201.749 78.7421 203.37 79.0092 204.986 79.0067C205.09 79.0081 205.19 79.0493 205.264 79.1218C205.338 79.1942 205.382 79.2924 205.386 79.3962C205.391 79.4999 205.355 79.6014 205.287 79.6796C205.218 79.7578 205.123 79.8068 205.019 79.8166V79.8179Z" fill="#0C0C0C"/>
<path opacity="0.52" d="M208.867 87.374C206.273 87.5372 203.678 87.0884 201.29 86.0638C201.241 86.0436 201.196 86.0138 201.158 85.9762C201.12 85.9386 201.09 85.8939 201.069 85.8447C201.049 85.7955 201.038 85.7428 201.038 85.6894C201.038 85.6361 201.048 85.5833 201.068 85.5339C201.089 85.4846 201.118 85.4397 201.156 85.4019C201.194 85.3641 201.238 85.334 201.287 85.3135C201.337 85.2929 201.389 85.2822 201.443 85.2821C201.496 85.2819 201.549 85.2922 201.598 85.3125C206.741 87.4 211.371 86.9996 214.984 84.1558C215.057 84.0958 215.133 84.0398 215.212 83.9881C215.304 83.9354 215.414 83.9211 215.516 83.9482C215.619 83.9753 215.707 84.0415 215.762 84.1328C215.816 84.224 215.832 84.333 215.807 84.4363C215.782 84.5396 215.718 84.6289 215.628 84.6851C215.599 84.7036 215.552 84.7419 215.486 84.7937C213.586 86.2934 211.281 87.1918 208.867 87.374V87.374Z" fill="#0C0C0C"/>
<path d="M255.138 62.5715L240.741 62.6826C229.392 60.4347 222.718 42.8108 222.718 42.8108C222.718 42.8108 212.309 57.7291 179.945 56.567C179.945 56.567 177.889 12.1353 226.103 15.9456C241.648 17.1744 255.096 30.0312 257.583 50.1774C259.324 64.2951 255.138 62.5715 255.138 62.5715Z" fill="#0A0A0A"/>
<path d="M240.776 80.3781C245.662 80.3688 249.612 75.1347 249.603 70.2479C249.593 65.3611 245.627 62.6752 240.741 62.6851L238.23 65.9637L236.575 80.3867L240.776 80.3781Z" fill="#E98862"/>
<path d="M199.376 58.4637C197.831 57.839 196.146 57.6413 194.498 57.8913C193.685 58.0095 192.895 58.2491 192.154 58.6019C191.419 58.9481 190.731 59.3854 190.106 59.9035C190.023 59.9731 189.971 60.0716 189.958 60.1787C189.946 60.2859 189.975 60.3938 190.039 60.4803C190.104 60.5669 190.199 60.6256 190.305 60.6445C190.411 60.6634 190.521 60.6411 190.611 60.5821L190.638 60.5629C191.223 60.1219 191.862 59.7561 192.538 59.4742C193.206 59.1918 193.913 59.0121 194.635 58.9412C196.065 58.7904 197.509 59.0201 198.821 59.6068L198.863 59.6271C198.94 59.6704 199.024 59.6975 199.111 59.7067C199.198 59.7159 199.286 59.707 199.37 59.6806C199.453 59.6541 199.531 59.6107 199.597 59.5531C199.663 59.4954 199.716 59.4247 199.753 59.3455C199.791 59.2663 199.812 59.1801 199.814 59.0925C199.817 59.0049 199.801 58.9177 199.769 58.8364C199.736 58.7551 199.687 58.6814 199.624 58.6199C199.562 58.5584 199.487 58.5105 199.406 58.4792L199.376 58.4637Z" fill="#0C0C0C"/>
<path d="M212.339 59.0117C213.646 58.4137 215.088 58.1719 216.519 58.311C217.24 58.3764 217.947 58.55 218.616 58.826C219.295 59.1024 219.936 59.463 220.525 59.8994L220.551 59.9173C220.642 59.982 220.755 60.0083 220.865 59.9906C220.975 59.9728 221.074 59.9124 221.139 59.8224C221.205 59.7324 221.233 59.62 221.216 59.5097C221.2 59.3994 221.141 59.3001 221.052 59.2332C220.422 58.7202 219.73 58.2887 218.992 57.9489C218.249 57.6022 217.457 57.3693 216.644 57.258C214.994 57.0224 213.31 57.2355 211.771 57.8748C211.69 57.9044 211.616 57.9501 211.553 58.0091C211.49 58.0682 211.44 58.1394 211.405 58.2184C211.371 58.2974 211.353 58.3826 211.352 58.4688C211.352 58.555 211.369 58.6405 211.402 58.7199C211.436 58.7994 211.485 58.8712 211.547 58.9311C211.609 58.9909 211.683 59.0375 211.763 59.0681C211.844 59.0987 211.93 59.1126 212.016 59.1089C212.102 59.1053 212.187 59.0842 212.264 59.0469L212.289 59.0364L212.339 59.0117Z" fill="#0C0C0C"/>
<path d="M240.677 62.5122L240.739 62.1002C221.909 59.1454 222.908 41.0274 222.922 40.8448L222.507 40.8164C222.494 41.0027 221.462 59.497 240.677 62.5122Z" fill="#0C0C0C"/>
<path opacity="0.1" d="M217.758 78.6408C219.835 78.4706 221.417 77.0977 221.292 75.5745C221.167 74.0513 219.382 72.9545 217.306 73.1248C215.23 73.2951 213.648 74.6679 213.773 76.1911C213.898 77.7143 215.682 78.8111 217.758 78.6408Z" fill="#0C0C0C"/>
<path opacity="0.1" d="M195.131 77.0501C195.251 78.5719 193.669 79.9432 191.594 80.116C191.235 80.1456 190.874 80.1375 190.517 80.0919C190.063 78.3406 189.71 76.6374 189.441 75.0515C189.976 74.7963 190.553 74.6434 191.144 74.6005C193.22 74.4272 195.004 75.5234 195.131 77.0501Z" fill="#0C0C0C"/>
<path d="M157.459 172.275C158.404 183.378 163.001 246.476 163.91 260.151H289.134C289.841 247.817 293.02 200.052 295.7 175.933C298.261 152.917 303.288 137.535 299.603 130.731C293.588 119.611 288.851 114.962 272.319 113.184C264.478 112.366 256.562 112.618 248.788 113.933C248.788 113.933 247.917 131.571 227.126 132.553C198.824 133.888 200.705 113.981 200.573 113.933C194.74 111.799 176.736 110.698 167.792 116.603C150.731 127.869 155.455 148.746 157.459 172.275Z" fill="#367CFF"/>
<path d="M195.409 68.37C196.503 68.37 197.389 67.4834 197.389 66.3898C197.389 65.2962 196.503 64.4097 195.409 64.4097C194.315 64.4097 193.429 65.2962 193.429 66.3898C193.429 67.4834 194.315 68.37 195.409 68.37Z" fill="#0C0C0C"/>
<path d="M214.831 67.3023C215.925 67.3023 216.811 66.4158 216.811 65.3222C216.811 64.2286 215.925 63.342 214.831 63.342C213.737 63.342 212.851 64.2286 212.851 65.3222C212.851 66.4158 213.737 67.3023 214.831 67.3023Z" fill="#0C0C0C"/>
<path d="M158.417 179.481L157.585 179.528L158.586 197.159L159.417 197.112L158.417 179.481Z" fill="#0C0C0C"/>
<path d="M293.145 205.437C293.267 205.437 293.385 205.391 293.474 205.309C293.564 205.226 293.619 205.113 293.629 204.991L294.948 188.696C294.953 188.632 294.946 188.568 294.926 188.507C294.906 188.447 294.875 188.39 294.834 188.342C294.793 188.293 294.742 188.253 294.685 188.224C294.629 188.195 294.567 188.178 294.503 188.172C294.44 188.167 294.376 188.175 294.315 188.194C294.254 188.214 294.198 188.245 294.149 188.287C294.101 188.328 294.061 188.378 294.032 188.435C294.003 188.492 293.985 188.554 293.98 188.617L292.661 204.913C292.656 204.977 292.663 205.041 292.683 205.101C292.703 205.162 292.734 205.218 292.775 205.267C292.816 205.315 292.867 205.355 292.924 205.384C292.98 205.413 293.042 205.431 293.106 205.436C293.119 205.437 293.132 205.437 293.145 205.437Z" fill="#292A2E"/>
<path d="M154.59 336.439C154.59 336.439 137.852 334.1 131.951 348.501C126.049 362.903 115.428 355.711 115.428 355.711L134.635 299.53L162.702 309.127L154.59 336.439Z" fill="#367CFF"/>
<path d="M349.411 263.755C335.963 252.999 321.421 253.726 277.492 254.141C261.669 254.27 191.457 254.189 155.607 254.358C144.664 254.41 127.311 254.764 118.035 255.485C94.6659 257.3 88.0895 261.44 86.3062 268.933C85.7349 271.331 69.9691 289.855 179.13 303.087H254.109C355.551 298.674 359.779 272.049 349.411 263.755Z" fill="#262626"/>
<path d="M132.249 262.939C153.593 258.91 233.434 276.933 233.434 276.933C233.434 276.933 317.254 256.225 331.208 260.905C359.837 270.504 221.058 310.429 221.058 310.429C221.058 310.429 107.509 267.608 132.249 262.939Z" fill="#0A0A0A"/>
<path d="M147.185 306.974L149.702 338.407C149.702 338.407 293.508 320.315 335.287 314.109C344.927 312.677 364.363 304.085 358.442 281.03C353.255 260.834 349.309 257.29 314.521 262.259C283.646 266.672 147.185 306.974 147.185 306.974Z" fill="#262626"/>
<path d="M148.691 323.187L149.702 338.407L221.188 329.802L148.691 323.187Z" fill="#0A0A0A"/>
<path d="M284.392 333.454C284.392 333.454 300.959 329.63 308.149 343.54C315.34 357.45 325.348 349.303 325.348 349.303L301.123 294.698L273.841 306.801L284.392 333.454Z" fill="#367CFF"/>
<path d="M292.604 296.269L287.978 338.368C287.978 338.368 136.592 326.534 96.2235 314.109C86.9089 311.242 71.9659 303.083 77.4788 279.928C82.188 260.149 94.0182 255.907 124.892 260.317C155.765 264.728 292.604 296.269 292.604 296.269Z" fill="#262626"/>
<path d="M149.9 218.276L168.489 211.76L165.82 211.575C164.96 211.498 164.161 211.098 163.585 210.455C163.008 209.812 162.698 208.974 162.716 208.11C162.74 207.665 162.855 207.229 163.053 206.829C163.252 206.43 163.53 206.075 163.87 205.786C164.21 205.498 164.606 205.281 165.032 205.15C165.459 205.02 165.907 204.977 166.351 205.026L199.238 208.521L198.384 219.09C198.119 222.372 196.879 225.501 194.824 228.074C192.768 230.648 189.991 232.548 186.849 233.533L172.606 237.97C171.871 238.214 171.073 238.198 170.349 237.922C169.624 237.646 169.017 237.129 168.63 236.457C168.294 235.843 168.162 235.138 168.255 234.444C168.348 233.75 168.66 233.104 169.146 232.6C169.115 232.578 169.088 232.55 169.068 232.517C169.048 232.484 169.035 232.447 169.03 232.409C169.024 232.37 169.027 232.331 169.037 232.294C169.047 232.257 169.065 232.222 169.089 232.192L166.463 233.015C165.644 233.29 164.752 233.244 163.966 232.886C163.18 232.528 162.559 231.885 162.229 231.087C161.959 230.364 161.953 229.568 162.212 228.84C162.47 228.113 162.977 227.499 163.643 227.108C163.613 227.093 163.586 227.072 163.563 227.047L162.484 227.385C161.748 227.63 160.95 227.613 160.226 227.337C159.501 227.062 158.894 226.544 158.507 225.872C158.099 225.127 157.994 224.253 158.217 223.433C158.439 222.613 158.97 221.911 159.699 221.474C159.693 221.452 159.689 221.43 159.689 221.407L151.947 224.121C151.175 224.381 150.332 224.326 149.6 223.969C148.868 223.611 148.306 222.98 148.037 222.211C147.768 221.442 147.812 220.598 148.16 219.862C148.509 219.126 149.133 218.556 149.898 218.277L149.9 218.276Z" fill="#E98862"/>
<path opacity="0.2" d="M159.995 221.71C160.031 221.71 160.066 221.704 160.1 221.691L167.588 218.968C167.628 218.956 167.664 218.935 167.695 218.908C167.727 218.881 167.752 218.847 167.77 218.81C167.789 218.773 167.799 218.732 167.801 218.691C167.803 218.65 167.797 218.608 167.783 218.569C167.769 218.53 167.747 218.495 167.719 218.464C167.69 218.434 167.656 218.41 167.618 218.393C167.581 218.376 167.54 218.367 167.498 218.366C167.457 218.366 167.416 218.373 167.377 218.389L159.889 221.112C159.821 221.137 159.765 221.185 159.729 221.248C159.693 221.31 159.68 221.384 159.692 221.455C159.705 221.526 159.742 221.591 159.797 221.637C159.853 221.684 159.922 221.709 159.995 221.71Z" fill="#0A0A0A"/>
<path opacity="0.2" d="M163.78 227.154C163.815 227.154 163.85 227.148 163.883 227.136L169.785 225.042C169.824 225.029 169.861 225.009 169.892 224.982C169.924 224.955 169.949 224.922 169.968 224.885C169.986 224.848 169.997 224.808 169.999 224.766C170.002 224.725 169.996 224.684 169.982 224.645C169.968 224.606 169.947 224.57 169.919 224.54C169.891 224.509 169.857 224.484 169.82 224.467C169.782 224.45 169.741 224.441 169.7 224.44C169.659 224.438 169.617 224.446 169.579 224.461L163.677 226.555C163.608 226.579 163.551 226.627 163.514 226.69C163.477 226.753 163.464 226.826 163.476 226.898C163.489 226.969 163.526 227.034 163.581 227.081C163.637 227.128 163.707 227.154 163.78 227.154V227.154Z" fill="#0A0A0A"/>
<path opacity="0.2" d="M169.338 232.678C169.375 232.678 169.412 232.671 169.447 232.658L172.212 231.603C172.286 231.573 172.345 231.514 172.377 231.441C172.408 231.367 172.41 231.284 172.381 231.209C172.353 231.134 172.296 231.073 172.224 231.039C172.151 231.005 172.068 231.001 171.992 231.027L169.228 232.082C169.161 232.107 169.104 232.156 169.069 232.219C169.034 232.281 169.022 232.355 169.035 232.425C169.048 232.496 169.085 232.56 169.141 232.606C169.196 232.653 169.266 232.678 169.338 232.678V232.678Z" fill="#0A0A0A"/>
<path d="M185.461 241.283L300.715 260.391C304.268 260.777 307.862 260.336 311.216 259.1C314.57 257.864 317.592 255.868 320.044 253.268C322.497 250.668 324.314 247.536 325.352 244.116C326.391 240.696 326.623 237.082 326.03 233.557L301.854 137.495C301.35 134.499 300.261 131.632 298.648 129.057C297.036 126.482 294.933 124.25 292.458 122.488C287.461 118.93 281.254 117.503 275.204 118.521C269.154 119.538 263.756 122.918 260.197 127.916C256.639 132.914 255.212 139.12 256.23 145.171L274.678 211.395L190.929 199.955L185.461 241.283Z" fill="#367CFF"/>
<path d="M289.701 213.549C289.778 213.549 289.853 213.519 289.909 213.466C289.966 213.413 290.001 213.341 290.006 213.264C290.012 213.186 289.989 213.11 289.94 213.049C289.892 212.988 289.823 212.948 289.746 212.936L275.381 210.784C275.341 210.777 275.3 210.778 275.26 210.788C275.221 210.797 275.183 210.815 275.151 210.839C275.118 210.863 275.09 210.894 275.07 210.929C275.049 210.964 275.035 211.002 275.03 211.043C275.018 211.124 275.038 211.206 275.087 211.271C275.135 211.337 275.208 211.381 275.289 211.393L289.655 213.544C289.67 213.547 289.685 213.549 289.701 213.549V213.549Z" fill="#0C0C0C"/>
<path d="M297.506 260.835C297.546 260.838 297.587 260.832 297.626 260.819C297.664 260.806 297.699 260.786 297.73 260.759C297.76 260.732 297.785 260.7 297.803 260.663C297.821 260.627 297.832 260.587 297.834 260.547C297.837 260.506 297.832 260.466 297.819 260.427C297.806 260.389 297.785 260.353 297.758 260.323C297.732 260.292 297.699 260.267 297.663 260.249C297.626 260.231 297.587 260.221 297.546 260.218L186.107 241.05L191.509 200.336L274.678 211.396C274.725 211.403 274.774 211.398 274.82 211.382C274.865 211.366 274.907 211.339 274.94 211.305C274.974 211.27 274.999 211.228 275.013 211.182C275.027 211.136 275.03 211.087 275.022 211.039L266.022 172.213C266.016 172.173 266.002 172.134 265.981 172.099C265.959 172.065 265.931 172.035 265.898 172.011C265.865 171.987 265.828 171.971 265.788 171.962C265.748 171.953 265.707 171.952 265.667 171.959C265.627 171.966 265.589 171.981 265.554 172.002C265.52 172.024 265.49 172.052 265.467 172.085C265.443 172.118 265.426 172.155 265.417 172.195C265.408 172.234 265.407 172.275 265.414 172.315L274.344 210.729L191.277 199.68C191.236 199.674 191.194 199.677 191.155 199.688C191.115 199.698 191.078 199.717 191.045 199.742C191.013 199.767 190.986 199.799 190.966 199.835C190.946 199.871 190.934 199.911 190.929 199.951L185.461 241.282C185.452 241.362 185.475 241.442 185.525 241.506C185.575 241.569 185.647 241.61 185.727 241.621L297.466 260.831C297.479 260.833 297.493 260.835 297.506 260.835V260.835Z" fill="#0C0C0C"/>
<path d="M189.849 250.904L163.417 169.652C162.953 168.224 162.048 166.98 160.833 166.098C159.618 165.216 158.155 164.74 156.654 164.74H48.9673C47.8444 164.74 46.7374 165.006 45.7369 165.516C44.7365 166.025 43.8709 166.765 43.2112 167.674C42.5514 168.582 42.1162 169.634 41.9411 170.743C41.7661 171.852 41.8561 172.987 42.2039 174.055L68.6361 255.304C69.1007 256.732 70.0052 257.976 71.2201 258.859C72.4349 259.741 73.8979 260.216 75.3994 260.216H183.086C184.209 260.216 185.316 259.951 186.316 259.441C187.316 258.931 188.181 258.192 188.841 257.284C189.5 256.375 189.936 255.324 190.111 254.215C190.286 253.106 190.196 251.972 189.849 250.904V250.904Z" fill="#292A2E"/>
<path d="M240.373 253.628H168.287C166.491 253.628 165.035 255.084 165.035 256.88V256.964C165.035 258.76 166.491 260.216 168.287 260.216H240.373C242.169 260.216 243.625 258.76 243.625 256.964V256.88C243.625 255.084 242.169 253.628 240.373 253.628Z" fill="#292A2E"/>
<path d="M240.082 253.129H162.631C160.674 253.129 159.088 254.716 159.088 256.672V256.673C159.088 258.63 160.674 260.216 162.631 260.216H240.082C242.039 260.216 243.626 258.63 243.626 256.673V256.672C243.626 254.716 242.039 253.129 240.082 253.129Z" fill="white"/>
<path d="M240.082 260.833H162.631C161.536 260.82 160.491 260.376 159.722 259.597C158.952 258.818 158.521 257.767 158.521 256.673C158.521 255.578 158.952 254.527 159.722 253.749C160.491 252.97 161.536 252.526 162.631 252.512H240.082C241.177 252.526 242.222 252.97 242.991 253.749C243.761 254.527 244.192 255.578 244.192 256.673C244.192 257.767 243.761 258.818 242.991 259.597C242.222 260.376 241.177 260.82 240.082 260.833V260.833ZM162.631 253.746C161.862 253.757 161.129 254.07 160.589 254.618C160.049 255.166 159.747 255.904 159.747 256.673C159.747 257.442 160.049 258.18 160.589 258.727C161.129 259.275 161.862 259.588 162.631 259.599H240.082C240.851 259.588 241.584 259.275 242.124 258.727C242.664 258.18 242.966 257.442 242.966 256.673C242.966 255.904 242.664 255.166 242.124 254.618C241.584 254.07 240.851 253.757 240.082 253.746H162.631Z" fill="#292A2E"/>
<path d="M189.849 250.904L163.417 169.652C162.953 168.224 162.048 166.98 160.833 166.098C159.618 165.216 158.155 164.74 156.654 164.74H48.9673C47.8444 164.74 46.7374 165.006 45.7369 165.516C44.7365 166.025 43.8709 166.765 43.2112 167.674C42.5514 168.582 42.1162 169.634 41.9411 170.743C41.7661 171.852 41.8561 172.987 42.2039 174.055L68.6361 255.304C69.1007 256.732 70.0052 257.976 71.2201 258.859C72.4349 259.741 73.8979 260.216 75.3994 260.216H183.086C184.209 260.216 185.316 259.951 186.316 259.441C187.316 258.931 188.181 258.192 188.841 257.284C189.5 256.375 189.936 255.324 190.111 254.215C190.286 253.106 190.196 251.972 189.849 250.904V250.904Z" fill="white"/>
<path d="M183.086 260.833H75.3994C73.7671 260.836 72.176 260.321 70.8553 259.361C69.5346 258.402 68.5524 257.049 68.05 255.495L41.6173 174.244C41.2405 173.084 41.1435 171.851 41.3343 170.646C41.5251 169.442 41.9983 168.3 42.7151 167.313C43.432 166.326 44.3721 165.523 45.4588 164.97C46.5454 164.416 47.7477 164.127 48.9672 164.127H156.657C158.289 164.124 159.88 164.639 161.201 165.598C162.522 166.558 163.504 167.911 164.007 169.464L190.436 250.713C190.813 251.873 190.91 253.106 190.719 254.31C190.528 255.515 190.055 256.657 189.338 257.644C188.621 258.63 187.681 259.433 186.595 259.987C185.508 260.541 184.306 260.83 183.086 260.83V260.833ZM48.9672 165.358C47.942 165.357 46.9313 165.6 46.0178 166.065C45.1043 166.531 44.314 167.206 43.7115 168.035C43.109 168.865 42.7115 169.825 42.5514 170.838C42.3913 171.851 42.4733 172.887 42.7906 173.862L69.2233 255.114C69.645 256.419 70.4704 257.557 71.5803 258.363C72.6903 259.169 74.0275 259.602 75.3994 259.599H183.086C184.112 259.599 185.122 259.357 186.035 258.891C186.949 258.426 187.739 257.751 188.341 256.921C188.944 256.092 189.341 255.131 189.501 254.119C189.661 253.106 189.58 252.07 189.263 251.095L162.83 169.843C162.409 168.538 161.584 167.401 160.474 166.595C159.365 165.789 158.028 165.355 156.657 165.358H48.9672Z" fill="#292A2E"/>
<path d="M113.192 224.843C119.429 224.843 124.486 219.787 124.486 213.549C124.486 207.311 119.429 202.255 113.192 202.255C106.954 202.255 101.897 207.311 101.897 213.549C101.897 219.787 106.954 224.843 113.192 224.843Z" fill="white"/>
<path d="M113.192 225.46C110.836 225.46 108.533 224.762 106.574 223.453C104.615 222.144 103.089 220.284 102.187 218.107C101.286 215.931 101.05 213.536 101.51 211.225C101.969 208.915 103.104 206.792 104.77 205.126C106.435 203.461 108.558 202.326 110.868 201.867C113.179 201.407 115.574 201.643 117.75 202.545C119.927 203.446 121.787 204.973 123.096 206.932C124.404 208.891 125.103 211.194 125.103 213.55C125.099 216.707 123.843 219.735 121.61 221.968C119.377 224.201 116.35 225.457 113.192 225.46V225.46ZM113.192 202.872C111.08 202.872 109.016 203.498 107.26 204.671C105.504 205.844 104.135 207.512 103.327 209.463C102.519 211.414 102.308 213.561 102.719 215.632C103.131 217.703 104.148 219.606 105.641 221.099C107.135 222.592 109.037 223.609 111.108 224.021C113.179 224.433 115.326 224.222 117.277 223.414C119.228 222.606 120.896 221.237 122.069 219.481C123.243 217.726 123.869 215.661 123.869 213.55C123.866 210.719 122.74 208.005 120.738 206.003C118.737 204.001 116.023 202.875 113.192 202.872Z" fill="#292A2E"/>
<path d="M6.45709 26.2275C18.4613 14.2487 34.7272 7.52119 51.6858 7.52119C68.6443 7.52119 84.9103 14.2487 96.9145 26.2275C97.2639 26.5769 97.6787 26.8541 98.1353 27.0432C98.5918 27.2323 99.0811 27.3297 99.5753 27.3297C100.069 27.3297 100.559 27.2323 101.015 27.0432C101.472 26.8541 101.887 26.5769 102.236 26.2275C102.586 25.8781 102.863 25.4632 103.052 25.0067C103.241 24.5501 103.338 24.0608 103.338 23.5667C103.338 23.0725 103.241 22.5832 103.052 22.1266C102.863 21.6701 102.586 21.2552 102.236 20.9058C88.8193 7.51845 70.6398 0 51.6864 0C32.7329 0 14.5535 7.51845 1.13661 20.9058C0.779831 21.2535 0.495647 21.6686 0.300547 22.127C0.105448 22.5854 0.00331652 23.078 7.94416e-05 23.5762C-0.00315764 24.0743 0.0925637 24.5682 0.28169 25.0291C0.470816 25.49 0.749583 25.9087 1.10182 26.2611C1.45405 26.6134 1.87274 26.8922 2.33359 27.0815C2.79444 27.2707 3.28828 27.3665 3.78647 27.3634C4.28465 27.3603 4.77725 27.2583 5.23569 27.0633C5.69414 26.8683 6.1093 26.5842 6.45709 26.2275V26.2275Z" fill="#0CBC8B"/>
<path d="M22.4197 42.1901C30.1878 34.4403 40.7126 30.088 51.6855 30.088C62.6583 30.088 73.1831 34.4403 80.9512 42.1901C81.2989 42.5468 81.714 42.831 82.1725 43.026C82.6309 43.2211 83.1235 43.3231 83.6217 43.3263C84.1198 43.3295 84.6137 43.2337 85.0746 43.0445C85.5354 42.8553 85.9542 42.5765 86.3064 42.2243C86.6587 41.872 86.9375 41.4533 87.1267 40.9924C87.3159 40.5315 87.4117 40.0377 87.4085 39.5395C87.4053 39.0413 87.3032 38.5487 87.1082 38.0903C86.9131 37.6319 86.629 37.2167 86.2723 36.869C77.092 27.7098 64.6535 22.5659 51.6855 22.5659C38.7174 22.5659 26.2789 27.7098 17.0987 36.869C16.7419 37.2167 16.4578 37.6319 16.2627 38.0903C16.0677 38.5487 15.9656 39.0413 15.9624 39.5395C15.9592 40.0377 16.055 40.5315 16.2442 40.9924C16.4334 41.4533 16.7122 41.872 17.0645 42.2243C17.4167 42.5765 17.8355 42.8553 18.2963 43.0445C18.7572 43.2337 19.2511 43.3295 19.7493 43.3263C20.2474 43.3231 20.74 43.2211 21.1984 43.026C21.6569 42.831 22.072 42.5468 22.4197 42.1901Z" fill="#0CBC8B"/>
<path d="M38.383 58.1535C41.9141 54.6309 46.6981 52.6527 51.6858 52.6527C56.6734 52.6527 61.4575 54.6309 64.9885 58.1535C65.6972 58.8443 66.6495 59.2282 67.6391 59.2218C68.6287 59.2155 69.576 58.8196 70.2758 58.1198C70.9756 57.42 71.3716 56.4727 71.3779 55.483C71.3842 54.4934 71.0004 53.5411 70.3096 52.8324C65.3665 47.9004 58.6688 45.1306 51.6861 45.1306C44.7033 45.1306 38.0057 47.9004 33.0626 52.8324C32.3763 53.5419 31.9963 54.4927 32.0045 55.4798C32.0126 56.4668 32.4084 57.4111 33.1063 58.1092C33.8042 58.8072 34.7485 59.203 35.7356 59.2113C36.7226 59.2196 37.6734 58.8397 38.383 58.1535V58.1535Z" fill="#0CBC8B"/>
<path d="M51.6864 82.1669C56.037 82.1669 59.5638 78.6401 59.5638 74.2895C59.5638 69.9389 56.037 66.4121 51.6864 66.4121C47.3358 66.4121 43.809 69.9389 43.809 74.2895C43.809 78.6401 47.3358 82.1669 51.6864 82.1669Z" fill="#0CBC8B"/>
</svg>
