<svg width="447" height="371" viewBox="0 0 447 371" fill="none" xmlns="http://www.w3.org/2000/svg">
<path d="M429.257 43.782H315.1C305.656 43.782 298 51.4051 298 60.8086V328.022C298 337.426 305.656 345.049 315.1 345.049H429.257C438.701 345.049 446.356 337.426 446.356 328.022V60.8086C446.356 51.4051 438.701 43.782 429.257 43.782Z" fill="#292A2E"/>
<path d="M429.203 49.0989H315.153C308.668 49.0989 303.411 54.3334 303.411 60.7904V327.643C303.411 334.1 308.668 339.335 315.153 339.335H429.203C435.688 339.335 440.945 334.1 440.945 327.643V60.7904C440.945 54.3334 435.688 49.0989 429.203 49.0989Z" fill="white"/>
<path d="M344.01 46.9006H400.346V52.705C400.346 54.3697 399.682 55.9662 398.5 57.1433C397.318 58.3204 395.714 58.9817 394.042 58.9817H350.314C348.642 58.9817 347.039 58.3204 345.857 57.1433C344.674 55.9662 344.01 54.3697 344.01 52.705V46.9006Z" fill="#292A2E"/>
<path d="M380.812 172.165C380.717 172.061 377.325 172.206 374.373 175.372C371.421 178.535 371.875 182.164 371.942 182.257C372.008 182.35 376.151 182.495 378.796 178.815C381.44 175.134 380.906 172.272 380.812 172.165ZM389.989 204.271C389.856 204.008 383.55 200.894 384.137 194.907C384.724 188.917 388.776 187.275 388.84 187.098C388.903 186.92 387.186 184.936 385.367 183.932C384.031 183.224 382.553 182.818 381.039 182.744C380.74 182.736 379.701 182.484 377.566 183.061C376.159 183.442 372.988 184.673 372.116 184.722C371.241 184.772 368.638 183.294 365.838 182.903C364.047 182.561 362.147 183.261 360.787 183.8C359.43 184.337 356.849 185.863 355.044 189.922C353.238 193.977 354.183 200.402 354.858 202.399C355.534 204.394 356.589 207.664 358.383 210.05C359.979 212.743 362.094 214.612 362.978 215.247C363.861 215.881 366.353 216.303 368.081 215.43C369.472 214.587 371.98 214.103 372.972 214.138C373.96 214.174 375.91 214.56 377.907 215.613C379.488 216.152 380.983 215.928 382.481 215.326C383.98 214.721 386.148 212.428 388.679 207.779C389.64 205.617 390.077 204.449 389.989 204.271Z" fill="#367CFF"/>
<path d="M252.109 0H111.988C100.397 0 91 9.37173 91 20.9323V349.445C91 361.006 100.397 370.378 111.988 370.378H252.109C263.701 370.378 273.098 361.006 273.098 349.445V20.9323C273.098 9.37173 263.701 0 252.109 0Z" fill="#292A2E"/>
<path d="M252.044 6.53687H112.055C104.095 6.53687 97.6426 12.9721 97.6426 20.9105V348.98C97.6426 356.918 104.095 363.354 112.055 363.354H252.044C260.003 363.354 266.456 356.918 266.456 348.98V20.9105C266.456 12.9721 260.003 6.53687 252.044 6.53687Z" fill="white"/>
<path d="M219 20.8961C219 17.5988 221.673 14.9258 224.97 14.9258H249.03C252.327 14.9258 255 17.5988 255 20.8961C255 24.1934 252.327 26.8664 249.03 26.8664H224.97C221.673 26.8664 219 24.1934 219 20.8961Z" fill="black"/>
<path d="M155.625 203.536C155.625 204.676 155.171 205.77 154.362 206.577C153.553 207.383 152.456 207.837 151.312 207.837C150.169 207.837 149.072 207.383 148.263 206.577C147.454 205.77 147 204.676 147 203.536V184.181C147 183.04 147.454 181.946 148.263 181.14C149.072 180.333 150.169 179.88 151.312 179.88C152.456 179.88 153.553 180.333 154.362 181.14C155.171 181.946 155.625 183.04 155.625 184.181V203.536ZM216 203.536C216 204.676 215.546 205.77 214.737 206.577C213.928 207.383 212.831 207.837 211.688 207.837C210.544 207.837 209.447 207.383 208.638 206.577C207.829 205.77 207.375 204.676 207.375 203.536V184.181C207.375 183.04 207.829 181.946 208.638 181.14C209.447 180.333 210.544 179.88 211.688 179.88C212.831 179.88 213.928 180.333 214.737 181.14C215.546 181.946 216 183.04 216 184.181V203.536ZM177.188 227.189C177.188 228.33 176.733 229.424 175.924 230.23C175.116 231.037 174.019 231.49 172.875 231.49C171.731 231.49 170.634 231.037 169.826 230.23C169.017 229.424 168.562 228.33 168.562 227.189V207.834C168.562 206.694 169.017 205.6 169.826 204.793C170.634 203.987 171.731 203.533 172.875 203.533C174.019 203.533 175.116 203.987 175.924 204.793C176.733 205.6 177.188 206.694 177.188 207.834V227.189ZM194.438 227.189C194.438 228.33 193.983 229.424 193.174 230.23C192.366 231.037 191.269 231.49 190.125 231.49C188.981 231.49 187.884 231.037 187.076 230.23C186.267 229.424 185.812 228.33 185.812 227.189V207.834C185.812 206.694 186.267 205.6 187.076 204.793C187.884 203.987 188.981 203.533 190.125 203.533C191.269 203.533 192.366 203.987 193.174 204.793C193.983 205.6 194.438 206.694 194.438 207.834V227.189Z" fill="#367CFF"/>
<path d="M159.938 179.88V212.135C159.938 213.276 160.392 214.37 161.201 215.177C162.009 215.983 163.106 216.436 164.25 216.436H198.75C199.894 216.436 200.991 215.983 201.799 215.177C202.608 214.37 203.062 213.276 203.062 212.135V179.88H159.938ZM181.5 158.373C168.562 158.373 160.681 166.212 159.938 175.577H203.062C202.316 166.212 194.437 158.373 181.5 158.373ZM172.875 170.412C172.303 170.412 171.755 170.185 171.35 169.782C170.946 169.378 170.719 168.831 170.719 168.261C170.719 167.691 170.946 167.144 171.35 166.74C171.755 166.337 172.303 166.111 172.875 166.111C173.447 166.111 173.995 166.337 174.4 166.74C174.804 167.144 175.031 167.691 175.031 168.261C175.031 168.831 174.804 169.378 174.4 169.782C173.995 170.185 173.447 170.412 172.875 170.412ZM190.125 170.412C189.553 170.412 189.005 170.185 188.6 169.782C188.196 169.378 187.969 168.831 187.969 168.261C187.969 167.691 188.196 167.144 188.6 166.74C189.005 166.337 189.553 166.111 190.125 166.111C190.697 166.111 191.245 166.337 191.65 166.74C192.054 167.144 192.281 167.691 192.281 168.261C192.281 168.831 192.054 169.378 191.65 169.782C191.245 170.185 190.697 170.412 190.125 170.412Z" fill="#367CFF"/>
<path d="M194.438 156.222L190.845 161.596M168.563 156.222L171.437 160.7" stroke="#367CFF" stroke-width="2" stroke-linecap="round"/>
<path d="M82.9988 44.9956H77.8071C77.3944 44.9963 76.9917 44.8584 76.6548 44.6011C76.3179 44.3438 76.0635 43.9798 75.927 43.5596C75.5294 42.3283 75.0592 41.1257 74.5193 39.9592C74.333 39.5555 74.2693 39.0988 74.3372 38.6539C74.4051 38.209 74.6011 37.7984 74.8975 37.4806L78.5894 33.4977C78.9644 33.0928 79.175 32.5437 79.175 31.9712C79.175 31.3988 78.9644 30.8497 78.5894 30.4448L70.6177 21.8463C70.2425 21.4416 69.7337 21.2143 69.2032 21.2143C68.6727 21.2143 68.1639 21.4416 67.7886 21.8463L64.0324 25.9002C63.7399 26.2167 63.3632 26.4269 62.9547 26.5013C62.5462 26.5758 62.1264 26.5108 61.7538 26.3155C60.6935 25.7566 59.6014 25.2708 58.4842 24.8609C58.0905 24.7162 57.7487 24.4419 57.5069 24.0767C57.2652 23.7115 57.1355 23.2737 57.1362 22.8249V17.0831C57.1363 16.7997 57.0846 16.5192 56.9842 16.2574C56.8838 15.9957 56.7365 15.7578 56.5509 15.5575C56.3652 15.3571 56.1448 15.1982 55.9022 15.0899C55.6597 14.9815 55.3997 14.9257 55.1371 14.9258H43.8639C43.6014 14.9257 43.3414 14.9815 43.0988 15.0899C42.8562 15.1982 42.6358 15.3571 42.4502 15.5575C42.2645 15.7578 42.1173 15.9957 42.0168 16.2574C41.9164 16.5192 41.8647 16.7997 41.8648 17.0831V22.826C41.8656 23.2748 41.736 23.7127 41.4942 24.0779C41.2524 24.4431 40.9106 24.7173 40.5168 24.862C39.3996 25.2719 38.3076 25.7577 37.2472 26.3166C36.8746 26.5121 36.4548 26.5771 36.0463 26.5027C35.6378 26.4282 35.261 26.218 34.9686 25.9013L31.2119 21.8473C30.8366 21.4427 30.3278 21.2154 29.7973 21.2154C29.2668 21.2154 28.758 21.4427 28.3828 21.8473L20.4111 30.4459C20.0361 30.8508 19.8255 31.3999 19.8255 31.9723C19.8255 32.5448 20.0361 33.0938 20.4111 33.4988L24.101 37.4806C24.3974 37.7984 24.5934 38.209 24.6613 38.6539C24.7292 39.0988 24.6655 39.5555 24.4792 39.9592C23.9392 41.1251 23.4701 42.3278 23.0751 43.5596C22.9374 43.9797 22.6823 44.3434 22.345 44.6006C22.0078 44.8578 21.6049 44.9958 21.1919 44.9956H15.9991C15.7366 44.9955 15.4766 45.0513 15.234 45.1596C14.9914 45.268 14.771 45.4269 14.5854 45.6273C14.3997 45.8276 14.2525 46.0654 14.152 46.3272C14.0516 46.589 13.9999 46.8695 14 47.1529V59.3179C13.9999 59.6012 14.0516 59.8818 14.152 60.1436C14.2525 60.4053 14.3997 60.6432 14.5854 60.8435C14.771 61.0439 14.9914 61.2027 15.234 61.3111C15.4766 61.4195 15.7366 61.4753 15.9991 61.4752H21.0547C21.4752 61.4747 21.8852 61.6176 22.2259 61.8835C22.5667 62.1495 22.8208 62.5249 22.952 62.956C23.3423 64.2206 23.809 65.4561 24.3491 66.6548C24.5325 67.0585 24.5946 67.5139 24.5268 67.9575C24.459 68.4011 24.2647 68.8108 23.9708 69.1295L20.4106 72.972C20.2249 73.1721 20.0776 73.4097 19.9771 73.6712C19.8766 73.9328 19.8249 74.2131 19.8249 74.4963C19.8249 74.7794 19.8766 75.0598 19.9771 75.3213C20.0776 75.5829 20.2249 75.8205 20.4106 76.0205L28.3823 84.6234C28.7575 85.0281 29.2663 85.2554 29.7968 85.2554C30.3273 85.2554 30.8361 85.0281 31.2114 84.6234L34.7017 80.8564C34.9992 80.5364 35.3825 80.3256 35.7972 80.2538C36.2119 80.182 36.637 80.2529 37.0123 80.4564C38.1415 81.0651 39.3078 81.5902 40.5032 82.0279C40.8994 82.1725 41.2438 82.4473 41.488 82.8138C41.7322 83.1803 41.864 83.6201 41.8648 84.0715V89.3839C41.8644 89.6675 41.9158 89.9483 42.0161 90.2104C42.1164 90.4726 42.2636 90.7108 42.4492 90.9114C42.6349 91.1121 42.8554 91.2713 43.0982 91.3799C43.3409 91.4885 43.6011 91.5444 43.8639 91.5444H55.1341C55.3969 91.5444 55.6571 91.4885 55.8998 91.3799C56.1426 91.2713 56.3631 91.1121 56.5487 90.9114C56.7344 90.7108 56.8816 90.4726 56.9819 90.2104C57.0822 89.9483 57.1336 89.6675 57.1332 89.3839V84.0715C57.134 83.6201 57.2658 83.1803 57.5099 82.8138C57.7541 82.4473 58.0985 82.1725 58.4948 82.0279C59.6902 81.5902 60.8565 81.0651 61.9857 80.4564C62.361 80.2529 62.7861 80.182 63.2008 80.2538C63.6155 80.3256 63.9988 80.5364 64.2963 80.8564L67.7866 84.6234C68.1619 85.0281 68.6707 85.2554 69.2012 85.2554C69.7317 85.2554 70.2404 85.0281 70.6157 84.6234L78.5894 76.0205C78.7751 75.8205 78.9224 75.5829 79.0229 75.3213C79.1234 75.0598 79.1751 74.7794 79.1751 74.4963C79.1751 74.2131 79.1234 73.9328 79.0229 73.6712C78.9224 73.4097 78.7751 73.1721 78.5894 72.972L75.0292 69.1295C74.7354 68.8107 74.5411 68.401 74.4733 67.9574C74.4055 67.5139 74.4676 67.0585 74.6509 66.6548C75.191 65.4561 75.6577 64.2206 76.048 62.956C76.1792 62.5249 76.4333 62.1495 76.7741 61.8835C77.1148 61.6176 77.5248 61.4747 77.9453 61.4752H83.0009C83.2634 61.4753 83.5234 61.4195 83.766 61.3111C84.0086 61.2027 84.229 61.0439 84.4146 60.8435C84.6003 60.6432 84.7475 60.4053 84.848 60.1436C84.9484 59.8818 85.0001 59.6012 85 59.3179V47.1529C85.0001 46.8694 84.9483 46.5886 84.8478 46.3267C84.7472 46.0648 84.5998 45.8269 84.4139 45.6265C84.2281 45.4261 84.0074 45.2673 83.7646 45.159C83.5218 45.0507 83.2616 44.9952 82.9988 44.9956ZM49.5008 71.2114C46.2058 71.2114 42.9849 70.1571 40.2453 68.1817C37.5057 66.2063 35.3704 63.3986 34.1095 60.1137C32.8486 56.8287 32.5186 53.2141 33.1614 49.7268C33.8043 46.2395 35.3909 43.0363 37.7208 40.5221C40.0506 38.0079 43.0191 36.2957 46.2507 35.6021C49.4823 34.9084 52.8319 35.2644 55.876 36.6251C58.9202 37.9857 61.522 40.2899 63.3526 43.2463C65.1831 46.2027 66.1602 49.6784 66.1602 53.234C66.1602 55.5948 65.7293 57.9326 64.8921 60.1137C64.0548 62.2948 62.8277 64.2766 61.2807 65.946C59.7338 67.6153 57.8973 68.9395 55.876 69.843C53.8548 70.7464 51.6885 71.2114 49.5008 71.2114Z" fill="#367CFF"/>
<path d="M84.9853 106.775H82.3529C82.1436 106.775 81.9394 106.705 81.7686 106.575C81.5978 106.444 81.4688 106.26 81.3996 106.047C81.198 105.424 80.9596 104.814 80.6858 104.224C80.5914 104.019 80.5591 103.788 80.5935 103.563C80.6279 103.337 80.7273 103.129 80.8776 102.968L82.7496 100.951C82.9397 100.746 83.0465 100.468 83.0465 100.178C83.0465 99.8879 82.9397 99.6098 82.7496 99.4047L78.7076 95.0496C78.5173 94.8447 78.2593 94.7295 77.9903 94.7295C77.7214 94.7295 77.4634 94.8447 77.2731 95.0496L75.3686 97.1029C75.2202 97.2632 75.0292 97.3697 74.8221 97.4074C74.615 97.4451 74.4021 97.4122 74.2132 97.3132C73.6756 97.0302 73.1218 96.7841 72.5554 96.5765C72.3557 96.5032 72.1824 96.3643 72.0599 96.1793C71.9373 95.9943 71.8715 95.7726 71.8719 95.5453V92.6371C71.8719 92.4936 71.8457 92.3515 71.7948 92.2189C71.7439 92.0863 71.6692 91.9658 71.5751 91.8644C71.481 91.7629 71.3692 91.6824 71.2462 91.6275C71.1232 91.5726 70.9914 91.5444 70.8583 91.5444H65.1423C65.0091 91.5444 64.8773 91.5726 64.7543 91.6275C64.6313 91.6824 64.5196 91.7629 64.4254 91.8644C64.3313 91.9658 64.2566 92.0863 64.2057 92.2189C64.1548 92.3515 64.1286 92.4936 64.1286 92.6371V95.5458C64.129 95.7732 64.0633 95.9949 63.9407 96.1799C63.8181 96.3649 63.6448 96.5038 63.4452 96.5771C62.8787 96.7847 62.325 97.0307 61.7873 97.3138C61.5984 97.4128 61.3855 97.4458 61.1784 97.408C60.9713 97.3703 60.7802 97.2639 60.632 97.1035L58.7271 95.0502C58.5369 94.8452 58.2789 94.7301 58.0099 94.7301C57.7409 94.7301 57.483 94.8452 57.2927 95.0502L53.2507 99.4053C53.0606 99.6104 52.9538 99.8885 52.9538 100.178C52.9538 100.468 53.0606 100.746 53.2507 100.952L55.1216 102.968C55.2719 103.129 55.3713 103.337 55.4057 103.563C55.4402 103.788 55.4079 104.019 55.3134 104.224C55.0396 104.814 54.8018 105.423 54.6014 106.047C54.5316 106.26 54.4023 106.444 54.2313 106.575C54.0603 106.705 53.856 106.775 53.6466 106.775H51.0136C50.8805 106.775 50.7487 106.803 50.6257 106.858C50.5027 106.913 50.3909 106.993 50.2968 107.095C50.2027 107.196 50.128 107.316 50.0771 107.449C50.0262 107.582 50 107.724 50 107.867V114.029C50 114.172 50.0262 114.314 50.0771 114.447C50.128 114.58 50.2027 114.7 50.2968 114.801C50.3909 114.903 50.5027 114.983 50.6257 115.038C50.7487 115.093 50.8805 115.121 51.0136 115.121H53.577C53.7903 115.121 53.9981 115.194 54.1709 115.328C54.3437 115.463 54.4725 115.653 54.5391 115.871C54.737 116.512 54.9736 117.138 55.2474 117.745C55.3404 117.949 55.3719 118.18 55.3375 118.405C55.3032 118.629 55.2046 118.837 55.0556 118.998L53.2504 120.944C53.1563 121.046 53.0816 121.166 53.0307 121.299C52.9797 121.431 52.9535 121.573 52.9535 121.716C52.9535 121.86 52.9797 122.002 53.0307 122.134C53.0816 122.267 53.1563 122.387 53.2504 122.489L57.2924 126.846C57.4827 127.051 57.7407 127.166 58.0097 127.166C58.2786 127.166 58.5366 127.051 58.7269 126.846L60.4967 124.938C60.6475 124.776 60.8418 124.669 61.0521 124.633C61.2624 124.596 61.4779 124.632 61.6682 124.735C62.2408 125.044 62.8321 125.31 63.4382 125.531C63.6392 125.604 63.8138 125.744 63.9376 125.929C64.0614 126.115 64.1282 126.338 64.1286 126.566V129.257C64.1284 129.401 64.1545 129.543 64.2053 129.676C64.2562 129.808 64.3308 129.929 64.425 130.031C64.5191 130.132 64.6309 130.213 64.754 130.268C64.8771 130.323 65.009 130.351 65.1423 130.351H70.8567C70.99 130.351 71.1219 130.323 71.245 130.268C71.3681 130.213 71.4799 130.132 71.574 130.031C71.6682 129.929 71.7428 129.808 71.7936 129.676C71.8445 129.543 71.8706 129.401 71.8704 129.257V126.566C71.8708 126.338 71.9376 126.115 72.0614 125.929C72.1852 125.744 72.3598 125.604 72.5608 125.531C73.1668 125.31 73.7582 125.044 74.3308 124.735C74.5211 124.632 74.7366 124.596 74.9469 124.633C75.1572 124.669 75.3515 124.776 75.5023 124.938L77.2721 126.846C77.4624 127.051 77.7203 127.166 77.9893 127.166C78.2583 127.166 78.5163 127.051 78.7065 126.846L82.7496 122.489C82.8437 122.387 82.9184 122.267 82.9694 122.134C83.0203 122.002 83.0465 121.86 83.0465 121.716C83.0465 121.573 83.0203 121.431 82.9694 121.299C82.9184 121.166 82.8437 121.046 82.7496 120.944L80.9444 118.998C80.7954 118.837 80.6969 118.629 80.6625 118.405C80.6281 118.18 80.6596 117.949 80.7526 117.745C81.0264 117.138 81.263 116.512 81.4609 115.871C81.5275 115.653 81.6563 115.463 81.8291 115.328C82.0019 115.194 82.2097 115.121 82.423 115.121H84.9864C85.1195 115.121 85.2513 115.093 85.3743 115.038C85.4973 114.983 85.6091 114.903 85.7032 114.801C85.7973 114.7 85.872 114.58 85.9229 114.447C85.9738 114.314 86 114.172 86 114.029V107.867C86 107.724 85.9738 107.581 85.9228 107.449C85.8718 107.316 85.7971 107.196 85.7028 107.094C85.6086 106.993 85.4967 106.912 85.3736 106.857C85.2505 106.803 85.1185 106.774 84.9853 106.775ZM68.0004 120.053C66.3297 120.053 64.6966 119.519 63.3075 118.518C61.9184 117.518 60.8357 116.096 60.1964 114.432C59.557 112.768 59.3897 110.937 59.7157 109.171C60.0416 107.405 60.8461 105.782 62.0274 104.509C63.2088 103.235 64.7139 102.368 66.3525 102.017C67.991 101.666 69.6894 101.846 71.2329 102.535C72.7764 103.224 74.0957 104.391 75.0238 105.889C75.952 107.386 76.4474 109.146 76.4474 110.947C76.4474 112.143 76.2289 113.327 75.8044 114.432C75.3799 115.537 74.7577 116.54 73.9733 117.386C73.189 118.231 72.2578 118.902 71.2329 119.36C70.2081 119.817 69.1097 120.053 68.0004 120.053Z" fill="#367CFF"/>
<path d="M24.2954 102.596H22.4673C22.322 102.597 22.1802 102.548 22.0615 102.457C21.9429 102.367 21.8534 102.238 21.8053 102.09C21.6653 101.656 21.4997 101.233 21.3096 100.822C21.244 100.679 21.2216 100.518 21.2455 100.362C21.2694 100.205 21.3384 100.06 21.4428 99.9482L22.7428 98.5446C22.8748 98.4019 22.949 98.2085 22.949 98.0067C22.949 97.805 22.8748 97.6115 22.7428 97.4688L19.9358 94.4387C19.8037 94.2961 19.6245 94.216 19.4377 94.216C19.2509 94.216 19.0718 94.2961 18.9397 94.4387L17.6171 95.8673C17.5141 95.9789 17.3814 96.0529 17.2376 96.0792C17.0937 96.1054 16.9459 96.0825 16.8147 96.0137C16.4414 95.8167 16.0568 95.6455 15.6634 95.5011C15.5248 95.4501 15.4045 95.3534 15.3193 95.2247C15.2342 95.096 15.1886 94.9418 15.1888 94.7836V92.7602C15.1888 92.6604 15.1707 92.5615 15.1353 92.4693C15.0999 92.377 15.0481 92.2932 14.9827 92.2226C14.9173 92.152 14.8397 92.096 14.7543 92.0578C14.6689 92.0196 14.5773 92 14.4849 92H10.5155C10.423 92 10.3315 92.0196 10.2461 92.0578C10.1606 92.096 10.083 92.152 10.0177 92.2226C9.95229 92.2932 9.90044 92.377 9.86508 92.4693C9.82971 92.5615 9.81152 92.6604 9.81154 92.7602V94.784C9.81182 94.9422 9.76619 95.0964 9.68105 95.2251C9.59591 95.3538 9.47555 95.4505 9.33691 95.5015C8.94352 95.6459 8.559 95.8171 8.18564 96.0141C8.05445 96.0829 7.90662 96.1059 7.76278 96.0796C7.61894 96.0534 7.48627 95.9793 7.3833 95.8677L6.06052 94.4391C5.92839 94.2965 5.74923 94.2164 5.56244 94.2164C5.37565 94.2164 5.1965 94.2965 5.06437 94.4391L2.25743 97.4692C2.12539 97.6119 2.05122 97.8054 2.05122 98.0071C2.05122 98.2088 2.12539 98.4023 2.25743 98.545L3.55668 99.9482C3.66104 100.06 3.73008 100.205 3.75399 100.362C3.77789 100.518 3.75546 100.679 3.68987 100.822C3.49971 101.232 3.33456 101.656 3.19545 102.09C3.14696 102.238 3.05714 102.367 2.93839 102.457C2.81963 102.548 2.67778 102.596 2.53236 102.596H0.70392C0.611474 102.596 0.519929 102.616 0.434515 102.654C0.349101 102.692 0.271491 102.748 0.206121 102.819C0.140752 102.89 0.088903 102.973 0.0535361 103.066C0.0181692 103.158 -2.34024e-05 103.257 2.25929e-08 103.357V107.644C-2.34024e-05 107.743 0.0181692 107.842 0.0535361 107.934C0.088903 108.027 0.140752 108.111 0.206121 108.181C0.271491 108.252 0.349101 108.308 0.434515 108.346C0.519929 108.384 0.611474 108.404 0.70392 108.404H2.48404C2.63212 108.404 2.77647 108.454 2.89645 108.548C3.01644 108.641 3.10592 108.774 3.15213 108.926C3.28955 109.371 3.45388 109.807 3.64405 110.229C3.70862 110.371 3.7305 110.532 3.70663 110.688C3.68275 110.844 3.61432 110.989 3.51086 111.101L2.25725 112.455C2.19187 112.526 2.14001 112.609 2.10462 112.702C2.06923 112.794 2.05102 112.893 2.05102 112.992C2.05102 113.092 2.06923 113.191 2.10462 113.283C2.14001 113.375 2.19187 113.459 2.25725 113.529L5.06419 116.561C5.19632 116.704 5.37547 116.784 5.56226 116.784C5.74906 116.784 5.92821 116.704 6.06034 116.561L7.28934 115.234C7.39409 115.121 7.52903 115.047 7.67506 115.021C7.82108 114.996 7.97077 115.021 8.10291 115.093C8.50053 115.307 8.91121 115.492 9.3321 115.646C9.47163 115.697 9.5929 115.794 9.67888 115.923C9.76487 116.053 9.81126 116.208 9.81154 116.367V118.239C9.8114 118.339 9.8295 118.438 9.86481 118.53C9.90013 118.622 9.95196 118.706 10.0173 118.777C10.0827 118.848 10.1604 118.904 10.2458 118.942C10.3313 118.98 10.4229 119 10.5155 119H14.4838C14.5764 119 14.668 118.98 14.7535 118.942C14.8389 118.904 14.9166 118.848 14.982 118.777C15.0473 118.706 15.0992 118.622 15.1345 118.53C15.1698 118.438 15.1879 118.339 15.1877 118.239V116.367C15.188 116.208 15.2344 116.053 15.3204 115.923C15.4064 115.794 15.5277 115.697 15.6672 115.646C16.0881 115.492 16.4988 115.307 16.8964 115.093C17.0285 115.021 17.1782 114.996 17.3242 115.021C17.4703 115.047 17.6052 115.121 17.7099 115.234L18.939 116.561C19.0711 116.704 19.2502 116.784 19.437 116.784C19.6238 116.784 19.803 116.704 19.9351 116.561L22.7428 113.529C22.8081 113.459 22.86 113.375 22.8954 113.283C22.9308 113.191 22.949 113.092 22.949 112.992C22.949 112.893 22.9308 112.794 22.8954 112.702C22.86 112.609 22.8081 112.526 22.7428 112.455L21.4891 111.101C21.3857 110.989 21.3173 110.844 21.2934 110.688C21.2695 110.532 21.2914 110.371 21.356 110.229C21.5461 109.807 21.7105 109.371 21.8479 108.926C21.8941 108.774 21.9836 108.641 22.1036 108.548C22.2235 108.454 22.3679 108.404 22.516 108.404H24.2961C24.3885 108.404 24.4801 108.384 24.5655 108.346C24.6509 108.308 24.7285 108.252 24.7939 108.181C24.8593 108.111 24.9111 108.027 24.9465 107.934C24.9818 107.842 25 107.743 25 107.644V103.357C25 103.257 24.9818 103.158 24.9464 103.066C24.911 102.973 24.8591 102.889 24.7936 102.819C24.7282 102.748 24.6505 102.692 24.565 102.654C24.4795 102.616 24.3879 102.596 24.2954 102.596ZM12.5003 111.835C11.3401 111.835 10.206 111.463 9.2413 110.767C8.27664 110.071 7.52478 109.082 7.0808 107.924C6.63682 106.766 6.52065 105.493 6.74699 104.264C6.97333 103.035 7.53201 101.906 8.35239 101.02C9.17276 100.134 10.218 99.5307 11.3559 99.2862C12.4938 99.0418 13.6732 99.1672 14.7451 99.6467C15.817 100.126 16.7331 100.938 17.3777 101.98C18.0222 103.022 18.3663 104.247 18.3663 105.5C18.3663 106.332 18.2145 107.155 17.9197 107.924C17.6249 108.693 17.1929 109.391 16.6481 109.979C16.1034 110.568 15.4568 111.034 14.7451 111.353C14.0334 111.671 13.2706 111.835 12.5003 111.835Z" fill="#367CFF"/>
<path d="M314.636 360.22C314.636 360.22 313.51 366.023 308.049 366.347C302.588 366.672 303.772 371 303.772 371H324.642V360.625L314.636 360.22Z" fill="#367CFF"/>
<path d="M321.072 254.35C321.072 254.35 321.007 252.605 321.021 256.562C321.072 271.325 321.33 288.186 321.959 298.053C322.97 313.915 325.562 363.924 325.562 363.924L311.849 363.81L298.558 253.75L321.072 254.35Z" fill="#262626"/>
<path d="M305.587 271.757C305.587 271.757 305.018 282.469 304.914 284.984C304.67 290.801 304.585 296.823 304.585 303.65L302.424 285.751C302.424 285.751 304.005 280.142 305.587 271.757Z" fill="#0A0A0A"/>
<path d="M290.222 360.22C290.222 360.22 289.097 366.023 283.636 366.347C278.175 366.672 279.359 371 279.359 371H300.228V360.625L290.222 360.22Z" fill="#367CFF"/>
<path d="M283.582 255.496C283.582 255.496 282.367 305.949 282.545 308.415L287.645 363.541L301.132 363.789L299.818 306.42C299.818 306.42 300.744 290.595 304.587 275.9C306.553 268.358 307.736 260.636 308.118 252.854L283.582 255.496Z" fill="#262626"/>
<path d="M321.222 254.349L321.267 254.351C321.267 254.351 321.234 253.49 321.222 254.349Z" fill="#333333"/>
<path d="M281.652 227.492C281.935 230.798 283.31 251.424 283.582 255.497H321.058C321.27 251.824 322.221 235.764 323.023 228.581C323.79 221.728 325.293 218.296 324.191 216.27C322.39 212.959 317.469 211.045 314.114 210.593C312.065 210.317 308.983 210.119 308.983 210.119C308.983 210.119 308.722 215.37 302.499 215.663C294.03 216.06 294.595 210.119 294.553 210.119C293.181 210.119 285.191 210.761 283.425 212.114C280.336 214.48 281.051 220.485 281.652 227.492Z" fill="#367CFF"/>
<path d="M281.134 223.348C281.102 223.348 281.071 223.336 281.048 223.314C281.025 223.293 281.011 223.263 281.009 223.231L280.707 217.981C280.705 217.949 280.716 217.916 280.738 217.892C280.76 217.867 280.791 217.852 280.824 217.85C280.857 217.849 280.889 217.86 280.914 217.882C280.938 217.904 280.953 217.934 280.955 217.967L281.258 223.217C281.26 223.25 281.248 223.282 281.226 223.307C281.204 223.331 281.174 223.346 281.141 223.348L281.134 223.348Z" fill="#0C0C0C"/>
<path d="M329.159 255.28C330.262 255.28 331.347 255.014 332.324 254.507C333.302 253.999 334.141 253.264 334.771 252.365C335.402 251.465 335.804 250.427 335.944 249.339C336.085 248.251 335.959 247.146 335.578 246.117C335.191 245.072 326.114 221.156 324.386 216.724L311.592 221.882C312.564 224.374 316.083 233.818 318.912 241.426L314.213 240.918L312.734 254.455L328.419 255.24C328.665 255.266 328.912 255.28 329.159 255.28Z" fill="#367CFF"/>
<path d="M290.088 209.665C290.13 209.659 291.28 213.964 300.251 213.294C306.461 212.831 307.977 208.625 308.118 208.625C307.448 208.483 306.361 208.336 306.064 208.178C305.086 207.655 304.373 207.019 304.015 205.653C303.734 204.585 303.591 200.472 303.591 198.409L294.034 200.546C294.168 202.873 295.1 208.269 291.832 209.224C291.289 209.382 290.703 209.527 290.088 209.665Z" fill="#E98862"/>
<path d="M294.366 205.122C298.133 205.417 302.973 203.835 303.892 198.833L304.722 194.32C305.641 189.318 303.746 184.783 299.013 183.922C294.281 183.061 289.998 186.471 289.079 191.473L288.712 193.471C288.359 195.39 287.644 204.594 294.366 205.122Z" fill="#E98862"/>
<path d="M290.872 200.529C291.548 197.148 291.859 194.893 291.823 192.513C290.87 190.851 291.121 188.942 291.337 188.117C290.681 188.532 289.91 188.729 289.135 188.68C289.135 188.68 290.71 182.389 296.064 180.696C297.048 180.315 299.562 179.833 302.9 180.289C305.739 180.676 312.737 182.788 313.737 190.628V190.632C313.769 190.892 314.442 198.115 315.78 201.58C317.581 206.239 320.109 207.687 320.045 213.062C319.963 219.976 307.188 220.896 299.485 220.379C291.781 219.862 287.479 217.341 287.423 212.358C287.361 206.775 289.519 207.294 290.872 200.529Z" fill="#0A0A0A"/>
<path d="M321.857 228.719L320.937 255.492L321.186 255.501L322.106 228.727L321.857 228.719Z" fill="#0C0C0C"/>
<path d="M240.561 198.116L244.589 202.849L244.339 202.036C244.264 201.772 244.293 201.49 244.419 201.246C244.545 201.002 244.759 200.815 245.018 200.722C245.154 200.679 245.297 200.663 245.439 200.677C245.58 200.69 245.718 200.733 245.843 200.801C245.968 200.869 246.077 200.962 246.165 201.074C246.252 201.185 246.316 201.314 246.352 201.451L248.193 208.349C248.426 209.22 248.307 210.147 247.862 210.932C247.418 211.716 246.682 212.297 245.813 212.551C244.804 212.845 243.73 212.832 242.729 212.514C241.727 212.197 240.843 211.589 240.191 210.769L237.243 207.047C237.086 206.856 237 206.618 237 206.371C237 206.125 237.085 205.886 237.241 205.695C237.385 205.526 237.581 205.406 237.798 205.355C238.016 205.304 238.244 205.323 238.449 205.41C238.453 205.399 238.458 205.387 238.466 205.378C238.473 205.368 238.483 205.36 238.493 205.354C238.504 205.348 238.516 205.345 238.528 205.343C238.541 205.342 238.553 205.343 238.565 205.347L238.019 204.66C237.851 204.459 237.763 204.204 237.77 203.943C237.777 203.682 237.878 203.432 238.055 203.239C238.237 203.054 238.481 202.943 238.741 202.927C239 202.912 239.256 202.993 239.459 203.155C239.461 203.143 239.464 203.133 239.469 203.123L239.245 202.841C239.099 202.648 239.019 202.414 239.017 202.172C239.015 201.93 239.091 201.694 239.235 201.499C239.41 201.289 239.66 201.156 239.933 201.127C240.206 201.099 240.479 201.178 240.694 201.347L240.709 201.333L239.016 199.345C238.93 199.243 238.865 199.124 238.825 198.997C238.786 198.869 238.773 198.734 238.788 198.601C238.803 198.469 238.845 198.34 238.911 198.224C238.977 198.108 239.066 198.006 239.173 197.925C239.386 197.776 239.648 197.713 239.905 197.748C240.163 197.784 240.397 197.915 240.561 198.116Z" fill="#E98862"/>
<path opacity="0.2" d="M240.653 201.458C240.657 201.469 240.663 201.479 240.67 201.487L242.336 203.4C242.354 203.416 242.378 203.424 242.402 203.425C242.426 203.425 242.449 203.416 242.467 203.4C242.486 203.385 242.498 203.363 242.501 203.339C242.504 203.316 242.499 203.291 242.486 203.271L240.82 201.359C240.804 201.341 240.784 201.33 240.761 201.326C240.738 201.323 240.715 201.327 240.695 201.339C240.675 201.351 240.66 201.369 240.652 201.391C240.645 201.413 240.645 201.437 240.653 201.458H240.653Z" fill="#0C0C0C"/>
<path opacity="0.2" d="M239.461 203.199C239.466 203.209 239.471 203.219 239.479 203.227L240.776 204.74C240.794 204.755 240.817 204.763 240.841 204.763C240.865 204.763 240.887 204.755 240.905 204.74C240.923 204.724 240.935 204.703 240.939 204.68C240.943 204.657 240.938 204.633 240.926 204.613L239.628 203.1C239.612 203.084 239.592 203.073 239.569 203.07C239.547 203.067 239.524 203.072 239.505 203.083C239.485 203.095 239.47 203.113 239.462 203.134C239.454 203.155 239.454 203.178 239.461 203.199L239.461 203.199Z" fill="#0C0C0C"/>
<path opacity="0.2" d="M238.449 205.475C238.453 205.486 238.459 205.497 238.467 205.506L239.097 206.207C239.105 206.219 239.115 206.229 239.128 206.237C239.14 206.244 239.153 206.249 239.168 206.251C239.182 206.253 239.197 206.252 239.21 206.248C239.224 206.243 239.237 206.236 239.248 206.227C239.258 206.217 239.267 206.205 239.273 206.192C239.278 206.179 239.281 206.165 239.281 206.151C239.28 206.136 239.277 206.122 239.271 206.109C239.264 206.096 239.255 206.085 239.244 206.076L238.614 205.375C238.598 205.359 238.577 205.349 238.555 205.347C238.533 205.344 238.511 205.349 238.492 205.361C238.473 205.372 238.458 205.39 238.45 205.41C238.442 205.431 238.442 205.454 238.449 205.475Z" fill="#0C0C0C"/>
<path d="M260.441 242.681C259.173 242.681 257.927 242.355 256.823 241.734C255.719 241.113 254.796 240.219 254.142 239.138L237.846 212.2L250.444 204.655L262.832 225.133L283.425 212.114L292.149 223.754L264.42 241.517C263.233 242.276 261.852 242.681 260.441 242.681Z" fill="#367CFF"/>
<path d="M281.86 230.462C281.832 230.462 281.805 230.453 281.783 230.436C281.761 230.419 281.746 230.395 281.739 230.368C281.733 230.341 281.735 230.312 281.747 230.287C281.759 230.262 281.778 230.241 281.803 230.228L285.361 228.402C285.391 228.386 285.425 228.384 285.457 228.394C285.488 228.404 285.514 228.426 285.529 228.455C285.545 228.484 285.547 228.518 285.537 228.549C285.527 228.581 285.505 228.607 285.476 228.622L281.918 230.449C281.9 230.458 281.88 230.463 281.86 230.462Z" fill="#0C0C0C"/>
<path d="M345.061 120.061C345.646 119.475 345.646 118.525 345.061 117.939L335.515 108.393C334.929 107.808 333.979 107.808 333.393 108.393C332.808 108.979 332.808 109.929 333.393 110.515L341.879 119L333.393 127.485C332.808 128.071 332.808 129.021 333.393 129.607C333.979 130.192 334.929 130.192 335.515 129.607L345.061 120.061ZM216 120.5H344V117.5H216V120.5Z" fill="black"/>
<path d="M213.939 147.939C213.354 148.525 213.354 149.475 213.939 150.061L223.485 159.607C224.071 160.192 225.021 160.192 225.607 159.607C226.192 159.021 226.192 158.071 225.607 157.485L217.121 149L225.607 140.515C226.192 139.929 226.192 138.979 225.607 138.393C225.021 137.808 224.071 137.808 223.485 138.393L213.939 147.939ZM343 147.5L215 147.5L215 150.5L343 150.5L343 147.5Z" fill="#367CFF"/>
<path d="M94.2185 257.629L93.2534 257.735L105.17 366.884L106.135 366.778L94.2185 257.629Z" fill="#292A2E"/>
<path d="M125.084 305.279L119.221 363.41L120.187 363.508L126.05 305.377L125.084 305.279Z" fill="#292A2E"/>
<path d="M135.165 356.383H91.6641V370.533H135.165V356.383Z" fill="#292A2E"/>
<path opacity="0.2" d="M135.165 356.383H91.6641V370.533H135.165V356.383Z" fill="white"/>
<path d="M161.388 330.329C169.629 319.352 165.7 302.453 152.614 292.583C139.527 282.714 122.238 283.613 113.997 294.59C105.757 305.568 109.685 322.467 122.772 332.336C135.859 342.205 153.148 341.307 161.388 330.329Z" fill="#0CBC8B"/>
<path opacity="0.2" d="M161.388 330.329C169.629 319.352 165.7 302.453 152.614 292.583C139.527 282.714 122.238 283.613 113.997 294.59C105.757 305.568 109.685 322.467 122.772 332.336C135.859 342.205 153.148 341.307 161.388 330.329Z" fill="white"/>
<path opacity="0.5" d="M161.387 330.331C160.834 331.072 160.23 331.773 159.58 332.43C150.509 338.239 137.12 337.324 126.497 329.312C113.412 319.445 109.485 302.546 117.726 291.569C118.28 290.83 118.883 290.129 119.529 289.47C128.605 283.656 141.99 284.575 152.616 292.584C165.701 302.454 169.629 319.354 161.387 330.331Z" fill="white"/>
<path d="M100.681 288.682C113.645 278.652 117.168 261.45 108.551 250.26C99.9331 239.071 82.4377 238.131 69.4736 248.161C56.5095 258.191 52.986 275.393 61.6036 286.583C70.2212 297.772 87.7166 298.712 100.681 288.682Z" fill="#0CBC8B"/>
<path opacity="0.2" d="M96.5733 285.804C86.5333 293.576 73.7737 294.76 64.5244 289.701C63.4543 288.756 62.4768 287.71 61.6051 286.579C52.9857 275.392 56.5092 258.188 69.4725 248.16C79.5125 240.392 92.272 239.203 101.517 244.259C102.59 245.204 103.569 246.251 104.441 247.385C113.061 258.572 109.537 275.776 96.5733 285.804Z" fill="white"/>
<path d="M394.851 275.104L394.253 275.17L401.631 342.741L402.228 342.676L394.851 275.104Z" fill="#292A2E"/>
<path d="M413.958 304.603L410.329 340.59L410.927 340.651L414.556 304.664L413.958 304.603Z" fill="#292A2E"/>
<path d="M420.199 336.24H393.269V345H420.199V336.24Z" fill="#292A2E"/>
<path opacity="0.2" d="M420.199 336.24H393.269V345H420.199V336.24Z" fill="white"/>
<path d="M436.434 320.111C441.535 313.315 439.103 302.853 431.002 296.744C422.9 290.634 412.197 291.19 407.095 297.986C401.994 304.782 404.426 315.244 412.528 321.353C420.629 327.463 431.332 326.907 436.434 320.111Z" fill="#0CBC8B"/>
<path opacity="0.2" d="M436.434 320.111C441.535 313.315 439.103 302.853 431.002 296.744C422.9 290.634 412.197 291.19 407.095 297.986C401.994 304.782 404.426 315.244 412.528 321.353C420.629 327.463 431.332 326.907 436.434 320.111Z" fill="white"/>
<path opacity="0.5" d="M436.433 320.112C436.091 320.571 435.717 321.005 435.314 321.412C429.699 325.008 421.41 324.442 414.834 319.481C406.733 313.373 404.302 302.911 409.404 296.115C409.747 295.658 410.12 295.224 410.52 294.816C416.138 291.217 424.425 291.786 431.003 296.744C439.104 302.855 441.535 313.316 436.433 320.112Z" fill="white"/>
<path d="M398.851 294.328C406.877 288.119 409.058 277.47 403.723 270.542C398.388 263.615 387.558 263.033 379.532 269.243C371.506 275.452 369.325 286.101 374.66 293.029C379.995 299.956 390.826 300.538 398.851 294.328Z" fill="#0CBC8B"/>
<path opacity="0.2" d="M396.308 292.546C390.093 297.358 382.194 298.091 376.468 294.959C375.805 294.374 375.2 293.727 374.661 293.026C369.325 286.101 371.506 275.45 379.531 269.242C385.747 264.433 393.646 263.697 399.369 266.827C400.033 267.412 400.639 268.06 401.179 268.763C406.516 275.688 404.334 286.338 396.308 292.546Z" fill="white"/>
<path d="M409.802 148.836H360.669C359.735 148.836 358.839 148.423 358.179 147.688C357.518 146.953 357.147 145.955 357.147 144.915V105.084C357.147 104.044 357.518 103.047 358.178 102.312C358.838 101.577 359.734 101.164 360.667 101.164H409.804C410.738 101.164 411.633 101.577 412.293 102.312C412.953 103.047 413.324 104.044 413.324 105.084V144.915C413.324 145.955 412.953 146.953 412.292 147.688C411.632 148.423 410.736 148.836 409.802 148.836Z" fill="white"/>
<path d="M357 144.915V105.083C357 104 357.386 102.962 358.074 102.196C358.762 101.43 359.694 101 360.667 101H409.804C410.776 101 411.709 101.43 412.397 102.196C413.084 102.962 413.471 104 413.471 105.083V144.915C413.471 145.451 413.376 145.983 413.191 146.478C413.007 146.974 412.737 147.424 412.396 147.804C412.056 148.183 411.651 148.484 411.206 148.689C410.761 148.894 410.284 149 409.802 149H360.668C360.187 149 359.71 148.894 359.265 148.689C358.819 148.484 358.415 148.183 358.074 147.804C357.734 147.424 357.464 146.974 357.279 146.478C357.095 145.983 357 145.451 357 144.915ZM360.667 101.328C359.772 101.328 358.915 101.724 358.283 102.428C357.65 103.132 357.295 104.087 357.295 105.083V144.915C357.295 145.911 357.651 146.867 358.283 147.572C358.916 148.276 359.774 148.672 360.669 148.672H409.802C410.697 148.672 411.555 148.276 412.188 147.572C412.821 146.867 413.176 145.911 413.176 144.915V105.083C413.176 104.087 412.821 103.132 412.189 102.428C411.556 101.723 410.698 101.328 409.804 101.328H360.667Z" fill="#292A2E"/>
<path d="M357.147 105.083V108.402H413.323V105.083C413.323 104.043 412.952 103.046 412.292 102.311C411.632 101.576 410.737 101.163 409.803 101.163H360.667C360.205 101.163 359.747 101.265 359.32 101.462C358.893 101.659 358.505 101.947 358.178 102.311C357.851 102.675 357.592 103.107 357.415 103.583C357.238 104.058 357.147 104.568 357.147 105.083Z" fill="#292A2E"/>
<path d="M376.332 113.767H373.682C373.65 113.767 373.621 113.753 373.598 113.728C373.576 113.704 373.564 113.67 373.564 113.635C373.564 113.601 373.576 113.567 373.598 113.543C373.621 113.518 373.65 113.504 373.682 113.504H376.332C376.364 113.504 376.394 113.518 376.416 113.543C376.438 113.567 376.45 113.601 376.45 113.635C376.45 113.67 376.438 113.704 376.416 113.728C376.394 113.753 376.364 113.767 376.332 113.767Z" fill="#292A2E"/>
<path d="M371.77 113.767H370.767C370.735 113.767 370.705 113.753 370.683 113.728C370.661 113.704 370.649 113.67 370.649 113.635C370.649 113.601 370.661 113.567 370.683 113.543C370.705 113.518 370.735 113.504 370.767 113.504H371.77C371.801 113.504 371.831 113.518 371.853 113.543C371.875 113.567 371.887 113.601 371.887 113.635C371.887 113.67 371.875 113.704 371.853 113.728C371.831 113.753 371.801 113.767 371.77 113.767Z" fill="#367CFF"/>
<path d="M371.77 116.131H370.767C370.735 116.131 370.705 116.117 370.683 116.093C370.661 116.068 370.649 116.035 370.649 116C370.649 115.965 370.661 115.932 370.683 115.907C370.705 115.883 370.735 115.869 370.767 115.869H371.77C371.801 115.869 371.831 115.883 371.853 115.907C371.875 115.932 371.887 115.965 371.887 116C371.887 116.035 371.875 116.068 371.853 116.093C371.831 116.117 371.801 116.131 371.77 116.131Z" fill="#367CFF"/>
<path d="M371.77 118.495H370.767C370.735 118.495 370.705 118.481 370.683 118.457C370.661 118.432 370.649 118.399 370.649 118.364C370.649 118.329 370.661 118.296 370.683 118.272C370.705 118.247 370.735 118.233 370.767 118.233H371.77C371.801 118.233 371.831 118.247 371.853 118.272C371.875 118.296 371.887 118.329 371.887 118.364C371.887 118.399 371.875 118.432 371.853 118.457C371.831 118.481 371.801 118.495 371.77 118.495Z" fill="#367CFF"/>
<path d="M371.77 120.86H370.767C370.735 120.86 370.705 120.846 370.683 120.821C370.661 120.797 370.649 120.763 370.649 120.729C370.649 120.694 370.661 120.661 370.683 120.636C370.705 120.611 370.735 120.598 370.767 120.598H371.77C371.801 120.598 371.831 120.611 371.853 120.636C371.875 120.661 371.887 120.694 371.887 120.729C371.887 120.763 371.875 120.797 371.853 120.821C371.831 120.846 371.801 120.86 371.77 120.86Z" fill="#367CFF"/>
<path d="M371.77 123.224H370.767C370.735 123.224 370.705 123.21 370.683 123.186C370.661 123.161 370.649 123.128 370.649 123.093C370.649 123.058 370.661 123.025 370.683 123.001C370.705 122.976 370.735 122.962 370.767 122.962H371.77C371.801 122.962 371.831 122.976 371.853 123.001C371.875 123.025 371.887 123.058 371.887 123.093C371.887 123.128 371.875 123.161 371.853 123.186C371.831 123.21 371.801 123.224 371.77 123.224Z" fill="#367CFF"/>
<path d="M371.77 125.589H370.767C370.735 125.589 370.705 125.575 370.683 125.55C370.661 125.526 370.649 125.492 370.649 125.457C370.649 125.423 370.661 125.389 370.683 125.365C370.705 125.34 370.735 125.326 370.767 125.326H371.77C371.801 125.326 371.831 125.34 371.853 125.365C371.875 125.389 371.887 125.423 371.887 125.457C371.887 125.492 371.875 125.526 371.853 125.55C371.831 125.575 371.801 125.589 371.77 125.589Z" fill="#367CFF"/>
<path d="M371.77 127.953H370.767C370.735 127.953 370.705 127.939 370.683 127.915C370.661 127.89 370.649 127.857 370.649 127.822C370.649 127.787 370.661 127.754 370.683 127.729C370.705 127.705 370.735 127.691 370.767 127.691H371.77C371.801 127.691 371.831 127.705 371.853 127.729C371.875 127.754 371.887 127.787 371.887 127.822C371.887 127.857 371.875 127.89 371.853 127.915C371.831 127.939 371.801 127.953 371.77 127.953Z" fill="#367CFF"/>
<path d="M371.77 130.318H370.767C370.735 130.318 370.705 130.304 370.683 130.279C370.661 130.255 370.649 130.221 370.649 130.186C370.649 130.152 370.661 130.118 370.683 130.094C370.705 130.069 370.735 130.055 370.767 130.055H371.77C371.801 130.055 371.831 130.069 371.853 130.094C371.875 130.118 371.887 130.152 371.887 130.186C371.887 130.221 371.875 130.255 371.853 130.279C371.831 130.304 371.801 130.318 371.77 130.318Z" fill="#367CFF"/>
<path d="M371.77 132.682H370.767C370.735 132.682 370.705 132.668 370.683 132.643C370.661 132.619 370.649 132.586 370.649 132.551C370.649 132.516 370.661 132.483 370.683 132.458C370.705 132.433 370.735 132.42 370.767 132.42H371.77C371.801 132.42 371.831 132.433 371.853 132.458C371.875 132.483 371.887 132.516 371.887 132.551C371.887 132.586 371.875 132.619 371.853 132.643C371.831 132.668 371.801 132.682 371.77 132.682Z" fill="#367CFF"/>
<path d="M371.77 135.046H370.767C370.735 135.046 370.705 135.033 370.683 135.008C370.661 134.983 370.649 134.95 370.649 134.915C370.649 134.88 370.661 134.847 370.683 134.823C370.705 134.798 370.735 134.784 370.767 134.784H371.77C371.801 134.784 371.831 134.798 371.853 134.823C371.875 134.847 371.887 134.88 371.887 134.915C371.887 134.95 371.875 134.983 371.853 135.008C371.831 135.033 371.801 135.046 371.77 135.046Z" fill="#367CFF"/>
<path d="M371.77 137.411H370.767C370.735 137.411 370.705 137.397 370.683 137.372C370.661 137.348 370.649 137.315 370.649 137.28C370.649 137.245 370.661 137.212 370.683 137.187C370.705 137.162 370.735 137.149 370.767 137.149H371.77C371.801 137.149 371.831 137.162 371.853 137.187C371.875 137.212 371.887 137.245 371.887 137.28C371.887 137.315 371.875 137.348 371.853 137.372C371.831 137.397 371.801 137.411 371.77 137.411Z" fill="#367CFF"/>
<path d="M371.77 139.775H370.767C370.735 139.775 370.705 139.762 370.683 139.737C370.661 139.712 370.649 139.679 370.649 139.644C370.649 139.609 370.661 139.576 370.683 139.552C370.705 139.527 370.735 139.513 370.767 139.513H371.77C371.801 139.513 371.831 139.527 371.853 139.552C371.875 139.576 371.887 139.609 371.887 139.644C371.887 139.679 371.875 139.712 371.853 139.737C371.831 139.762 371.801 139.775 371.77 139.775Z" fill="#367CFF"/>
<path d="M371.77 142.14H370.767C370.735 142.14 370.705 142.126 370.683 142.101C370.661 142.077 370.649 142.044 370.649 142.009C370.649 141.974 370.661 141.941 370.683 141.916C370.705 141.891 370.735 141.878 370.767 141.878H371.77C371.801 141.878 371.831 141.891 371.853 141.916C371.875 141.941 371.887 141.974 371.887 142.009C371.887 142.044 371.875 142.077 371.853 142.101C371.831 142.126 371.801 142.14 371.77 142.14Z" fill="#367CFF"/>
<path d="M371.77 144.504H370.767C370.735 144.504 370.705 144.491 370.683 144.466C370.661 144.441 370.649 144.408 370.649 144.373C370.649 144.338 370.661 144.305 370.683 144.281C370.705 144.256 370.735 144.242 370.767 144.242H371.77C371.801 144.242 371.831 144.256 371.853 144.281C371.875 144.305 371.887 144.338 371.887 144.373C371.887 144.408 371.875 144.441 371.853 144.466C371.831 144.491 371.801 144.504 371.77 144.504Z" fill="#367CFF"/>
<path d="M378.451 116.131H376.035C376.004 116.131 375.974 116.117 375.952 116.092C375.93 116.068 375.917 116.034 375.917 116C375.917 115.965 375.93 115.932 375.952 115.907C375.974 115.882 376.004 115.869 376.035 115.869H378.451C378.482 115.869 378.512 115.882 378.534 115.907C378.556 115.932 378.568 115.965 378.568 116C378.568 116.034 378.556 116.068 378.534 116.092C378.512 116.117 378.482 116.131 378.451 116.131Z" fill="#292A2E"/>
<path d="M376.332 130.317H373.682C373.65 130.317 373.621 130.303 373.598 130.279C373.576 130.254 373.564 130.221 373.564 130.186C373.564 130.151 373.576 130.118 373.598 130.094C373.621 130.069 373.65 130.055 373.682 130.055H376.332C376.364 130.055 376.394 130.069 376.416 130.094C376.438 130.118 376.45 130.151 376.45 130.186C376.45 130.221 376.438 130.254 376.416 130.279C376.394 130.303 376.364 130.317 376.332 130.317Z" fill="#292A2E"/>
<path d="M378.451 132.682H376.035C376.004 132.682 375.974 132.668 375.952 132.643C375.93 132.619 375.917 132.586 375.917 132.551C375.917 132.516 375.93 132.483 375.952 132.458C375.974 132.433 376.004 132.42 376.035 132.42H378.451C378.482 132.42 378.512 132.433 378.534 132.458C378.556 132.483 378.568 132.516 378.568 132.551C378.568 132.586 378.556 132.619 378.534 132.643C378.512 132.668 378.482 132.682 378.451 132.682Z" fill="#292A2E"/>
<path d="M392.104 118.495H377.683C377.652 118.495 377.622 118.481 377.6 118.457C377.578 118.432 377.565 118.399 377.565 118.364C377.565 118.329 377.578 118.296 377.6 118.272C377.622 118.247 377.652 118.233 377.683 118.233H392.104C392.135 118.233 392.165 118.247 392.187 118.272C392.209 118.296 392.221 118.329 392.221 118.364C392.221 118.399 392.209 118.432 392.187 118.457C392.165 118.481 392.135 118.495 392.104 118.495Z" fill="#292A2E"/>
<path d="M404.836 118.495H394.652C394.621 118.495 394.591 118.481 394.569 118.457C394.547 118.432 394.535 118.399 394.535 118.364C394.535 118.329 394.547 118.296 394.569 118.272C394.591 118.247 394.621 118.233 394.652 118.233H404.836C404.867 118.233 404.897 118.247 404.919 118.272C404.941 118.296 404.953 118.329 404.953 118.364C404.953 118.399 404.941 118.432 404.919 118.457C404.897 118.481 404.867 118.495 404.836 118.495Z" fill="#0CBC8B"/>
<path d="M410.301 118.495H407.179C407.148 118.495 407.118 118.481 407.096 118.457C407.074 118.432 407.062 118.399 407.062 118.364C407.062 118.329 407.074 118.296 407.096 118.272C407.118 118.247 407.148 118.233 407.179 118.233H410.301C410.332 118.233 410.362 118.247 410.384 118.272C410.406 118.296 410.418 118.329 410.418 118.364C410.418 118.399 410.406 118.432 410.384 118.457C410.362 118.481 410.332 118.495 410.301 118.495Z" fill="#292A2E"/>
<path d="M399.165 123.224H377.683C377.652 123.224 377.622 123.21 377.6 123.186C377.578 123.161 377.565 123.128 377.565 123.093C377.565 123.058 377.578 123.025 377.6 123C377.622 122.976 377.652 122.962 377.683 122.962H399.165C399.197 122.962 399.227 122.976 399.249 123C399.271 123.025 399.283 123.058 399.283 123.093C399.283 123.128 399.271 123.161 399.249 123.186C399.227 123.21 399.197 123.224 399.165 123.224Z" fill="#292A2E"/>
<path d="M404.835 123.224H401.714C401.683 123.224 401.653 123.21 401.631 123.186C401.609 123.161 401.596 123.128 401.596 123.093C401.596 123.058 401.609 123.025 401.631 123C401.653 122.976 401.683 122.962 401.714 122.962H404.835C404.866 122.962 404.896 122.976 404.918 123C404.941 123.025 404.953 123.058 404.953 123.093C404.953 123.128 404.941 123.161 404.918 123.186C404.896 123.21 404.866 123.224 404.835 123.224Z" fill="#367CFF"/>
<path d="M380.334 120.86H377.683C377.652 120.86 377.622 120.846 377.6 120.821C377.578 120.797 377.565 120.763 377.565 120.729C377.565 120.694 377.578 120.661 377.6 120.636C377.622 120.611 377.652 120.598 377.683 120.598H380.334C380.365 120.598 380.395 120.611 380.417 120.636C380.439 120.661 380.452 120.694 380.452 120.729C380.452 120.763 380.439 120.797 380.417 120.821C380.395 120.846 380.365 120.86 380.334 120.86Z" fill="#0CBC8B"/>
<path d="M397.773 120.86H382.882C382.851 120.86 382.821 120.846 382.799 120.821C382.777 120.797 382.765 120.763 382.765 120.729C382.765 120.694 382.777 120.661 382.799 120.636C382.821 120.611 382.851 120.598 382.882 120.598H397.773C397.805 120.598 397.835 120.611 397.857 120.636C397.879 120.661 397.891 120.694 397.891 120.729C397.891 120.763 397.879 120.797 397.857 120.821C397.835 120.846 397.805 120.86 397.773 120.86Z" fill="#367CFF"/>
<path d="M410.321 120.86H400.607C400.576 120.86 400.546 120.846 400.524 120.821C400.502 120.797 400.49 120.763 400.49 120.729C400.49 120.694 400.502 120.661 400.524 120.636C400.546 120.611 400.576 120.598 400.607 120.598H410.32C410.351 120.598 410.381 120.611 410.403 120.636C410.425 120.661 410.438 120.694 410.438 120.729C410.438 120.763 410.425 120.797 410.403 120.821C410.381 120.846 410.351 120.86 410.32 120.86H410.321Z" fill="#292A2E"/>
<path d="M392.104 125.589H377.683C377.652 125.589 377.622 125.575 377.6 125.55C377.578 125.526 377.565 125.492 377.565 125.457C377.565 125.423 377.578 125.389 377.6 125.365C377.622 125.34 377.652 125.326 377.683 125.326H392.104C392.135 125.326 392.165 125.34 392.187 125.365C392.209 125.389 392.221 125.423 392.221 125.457C392.221 125.492 392.209 125.526 392.187 125.55C392.165 125.575 392.135 125.589 392.104 125.589Z" fill="#292A2E"/>
<path d="M400.128 125.589H394.652C394.621 125.589 394.591 125.575 394.569 125.55C394.547 125.526 394.535 125.492 394.535 125.457C394.535 125.423 394.547 125.389 394.569 125.365C394.591 125.34 394.621 125.326 394.652 125.326H400.128C400.159 125.326 400.189 125.34 400.211 125.365C400.233 125.389 400.245 125.423 400.245 125.457C400.245 125.492 400.233 125.526 400.211 125.55C400.189 125.575 400.159 125.589 400.128 125.589Z" fill="#0CBC8B"/>
<path d="M410.3 125.589H402.471C402.44 125.589 402.41 125.575 402.388 125.55C402.366 125.526 402.354 125.492 402.354 125.457C402.354 125.423 402.366 125.389 402.388 125.365C402.41 125.34 402.44 125.326 402.471 125.326H410.3C410.332 125.326 410.362 125.34 410.384 125.365C410.406 125.389 410.418 125.423 410.418 125.457C410.418 125.492 410.406 125.526 410.384 125.55C410.362 125.575 410.332 125.589 410.3 125.589Z" fill="#292A2E"/>
<path d="M380.334 127.953H377.683C377.652 127.953 377.622 127.939 377.6 127.915C377.578 127.89 377.565 127.857 377.565 127.822C377.565 127.787 377.578 127.754 377.6 127.729C377.622 127.705 377.652 127.691 377.683 127.691H380.334C380.365 127.691 380.395 127.705 380.417 127.729C380.439 127.754 380.452 127.787 380.452 127.822C380.452 127.857 380.439 127.89 380.417 127.915C380.395 127.939 380.365 127.953 380.334 127.953Z" fill="#367CFF"/>
<path d="M397.773 127.953H382.882C382.851 127.953 382.821 127.939 382.799 127.915C382.777 127.89 382.765 127.857 382.765 127.822C382.765 127.787 382.777 127.754 382.799 127.729C382.821 127.705 382.851 127.691 382.882 127.691H397.773C397.805 127.691 397.835 127.705 397.857 127.729C397.879 127.754 397.891 127.787 397.891 127.822C397.891 127.857 397.879 127.89 397.857 127.915C397.835 127.939 397.805 127.953 397.773 127.953Z" fill="#0CBC8B"/>
<path d="M391.633 137.411H377.212C377.181 137.411 377.151 137.397 377.129 137.372C377.107 137.348 377.095 137.315 377.095 137.28C377.095 137.245 377.107 137.212 377.129 137.187C377.151 137.162 377.181 137.149 377.212 137.149H391.633C391.664 137.149 391.694 137.162 391.716 137.187C391.738 137.212 391.751 137.245 391.751 137.28C391.751 137.315 391.738 137.348 391.716 137.372C391.694 137.397 391.664 137.411 391.633 137.411Z" fill="#292A2E"/>
<path d="M404.365 137.411H394.182C394.15 137.411 394.121 137.397 394.098 137.372C394.076 137.348 394.064 137.315 394.064 137.28C394.064 137.245 394.076 137.212 394.098 137.187C394.121 137.162 394.15 137.149 394.182 137.149H404.365C404.396 137.149 404.426 137.162 404.448 137.187C404.47 137.212 404.483 137.245 404.483 137.28C404.483 137.315 404.47 137.348 404.448 137.372C404.426 137.397 404.396 137.411 404.365 137.411Z" fill="#367CFF"/>
<path d="M384.571 135.046H377.212C377.181 135.046 377.151 135.033 377.129 135.008C377.107 134.983 377.095 134.95 377.095 134.915C377.095 134.88 377.107 134.847 377.129 134.823C377.151 134.798 377.181 134.784 377.212 134.784H384.571C384.602 134.784 384.632 134.798 384.654 134.823C384.676 134.847 384.689 134.88 384.689 134.915C384.689 134.95 384.676 134.983 384.654 135.008C384.632 135.033 384.602 135.046 384.571 135.046Z" fill="#0CBC8B"/>
<path d="M397.303 135.046H387.12C387.088 135.046 387.059 135.033 387.036 135.008C387.014 134.983 387.002 134.95 387.002 134.915C387.002 134.88 387.014 134.847 387.036 134.823C387.059 134.798 387.088 134.784 387.12 134.784H397.303C397.334 134.784 397.364 134.798 397.386 134.823C397.408 134.847 397.421 134.88 397.421 134.915C397.421 134.95 397.408 134.983 397.386 135.008C397.364 135.033 397.334 135.046 397.303 135.046Z" fill="#367CFF"/>
<path d="M409.85 135.046H400.137C400.106 135.046 400.076 135.033 400.054 135.008C400.032 134.983 400.02 134.95 400.02 134.915C400.02 134.88 400.032 134.847 400.054 134.823C400.076 134.798 400.106 134.784 400.137 134.784H409.85C409.881 134.784 409.911 134.798 409.933 134.823C409.955 134.847 409.968 134.88 409.968 134.915C409.968 134.95 409.955 134.983 409.933 135.008C409.911 135.033 409.881 135.046 409.85 135.046H409.85Z" fill="#292A2E"/>
<path d="M398.695 142.14H377.212C377.181 142.14 377.151 142.126 377.129 142.101C377.107 142.077 377.095 142.044 377.095 142.009C377.095 141.974 377.107 141.941 377.129 141.916C377.151 141.891 377.181 141.878 377.212 141.878H398.695C398.726 141.878 398.756 141.891 398.778 141.916C398.8 141.941 398.812 141.974 398.812 142.009C398.812 142.044 398.8 142.077 398.778 142.101C398.756 142.126 398.726 142.14 398.695 142.14Z" fill="#367CFF"/>
<path d="M404.365 142.14H401.243C401.212 142.14 401.182 142.126 401.16 142.101C401.138 142.077 401.125 142.044 401.125 142.009C401.125 141.974 401.138 141.941 401.16 141.916C401.182 141.891 401.212 141.878 401.243 141.878H404.365C404.396 141.878 404.426 141.891 404.448 141.916C404.47 141.941 404.482 141.974 404.482 142.009C404.482 142.044 404.47 142.077 404.448 142.101C404.426 142.126 404.396 142.14 404.365 142.14Z" fill="#292A2E"/>
<path d="M379.863 139.776H377.212C377.181 139.776 377.151 139.762 377.129 139.737C377.107 139.713 377.095 139.679 377.095 139.644C377.095 139.61 377.107 139.576 377.129 139.552C377.151 139.527 377.181 139.513 377.212 139.513H379.863C379.894 139.513 379.924 139.527 379.946 139.552C379.968 139.576 379.981 139.61 379.981 139.644C379.981 139.679 379.968 139.713 379.946 139.737C379.924 139.762 379.894 139.776 379.863 139.776Z" fill="#367CFF"/>
<path d="M397.303 139.776H382.412C382.38 139.776 382.35 139.762 382.328 139.737C382.306 139.713 382.294 139.679 382.294 139.644C382.294 139.61 382.306 139.576 382.328 139.552C382.35 139.527 382.38 139.513 382.412 139.513H397.303C397.334 139.513 397.364 139.527 397.386 139.552C397.408 139.576 397.42 139.61 397.42 139.644C397.42 139.679 397.408 139.713 397.386 139.737C397.364 139.762 397.334 139.776 397.303 139.776Z" fill="#292A2E"/>
<path d="M409.85 139.776H400.137C400.106 139.776 400.076 139.762 400.054 139.737C400.032 139.713 400.02 139.679 400.02 139.644C400.02 139.61 400.032 139.576 400.054 139.552C400.076 139.527 400.106 139.513 400.137 139.513H409.85C409.881 139.513 409.911 139.527 409.933 139.552C409.955 139.576 409.968 139.61 409.968 139.644C409.968 139.679 409.955 139.713 409.933 139.737C409.911 139.762 409.881 139.776 409.85 139.776H409.85Z" fill="#0CBC8B"/>
<path d="M391.633 144.504H377.212C377.181 144.504 377.151 144.491 377.129 144.466C377.107 144.441 377.095 144.408 377.095 144.373C377.095 144.338 377.107 144.305 377.129 144.281C377.151 144.256 377.181 144.242 377.212 144.242H391.633C391.664 144.242 391.694 144.256 391.716 144.281C391.738 144.305 391.751 144.338 391.751 144.373C391.751 144.408 391.738 144.441 391.716 144.466C391.694 144.491 391.664 144.504 391.633 144.504Z" fill="#0CBC8B"/>
<path d="M399.657 144.504H394.182C394.15 144.504 394.121 144.491 394.098 144.466C394.076 144.441 394.064 144.408 394.064 144.373C394.064 144.338 394.076 144.305 394.098 144.281C394.121 144.256 394.15 144.242 394.182 144.242H399.657C399.688 144.242 399.718 144.256 399.74 144.281C399.762 144.305 399.775 144.338 399.775 144.373C399.775 144.408 399.762 144.441 399.74 144.466C399.718 144.491 399.688 144.504 399.657 144.504Z" fill="#292A2E"/>
<path d="M409.83 144.504H402.001C401.969 144.504 401.939 144.491 401.917 144.466C401.895 144.441 401.883 144.408 401.883 144.373C401.883 144.338 401.895 144.305 401.917 144.281C401.939 144.256 401.969 144.242 402.001 144.242H409.83C409.861 144.242 409.891 144.256 409.913 144.281C409.935 144.305 409.947 144.338 409.947 144.373C409.947 144.408 409.935 144.441 409.913 144.466C409.891 144.491 409.861 144.504 409.83 144.504Z" fill="#367CFF"/>
<path d="M369.649 147.035C369.618 147.035 369.588 147.021 369.566 146.996C369.544 146.972 369.531 146.938 369.531 146.903V109.639C369.531 109.604 369.544 109.571 369.566 109.546C369.588 109.522 369.618 109.508 369.649 109.508C369.68 109.508 369.71 109.522 369.732 109.546C369.754 109.571 369.767 109.604 369.767 109.639V146.903C369.767 146.938 369.754 146.972 369.732 146.996C369.71 147.021 369.68 147.035 369.649 147.035Z" fill="#292A2E"/>
<path d="M409.068 107.148C410.11 107.148 410.956 106.206 410.956 105.045C410.956 103.884 410.11 102.942 409.068 102.942C408.025 102.942 407.179 103.884 407.179 105.045C407.179 106.206 408.025 107.148 409.068 107.148Z" fill="white"/>
<path d="M364.266 111.276H359.169C359.138 111.276 359.108 111.262 359.086 111.238C359.064 111.213 359.051 111.18 359.051 111.145C359.051 111.11 359.064 111.077 359.086 111.052C359.108 111.028 359.138 111.014 359.169 111.014H364.266C364.297 111.014 364.327 111.028 364.349 111.052C364.371 111.077 364.383 111.11 364.383 111.145C364.383 111.18 364.371 111.213 364.349 111.238C364.327 111.262 364.297 111.276 364.266 111.276Z" fill="#292A2E"/>
<path d="M362.73 113.861H359.169C359.138 113.861 359.108 113.847 359.086 113.823C359.064 113.798 359.051 113.765 359.051 113.73C359.051 113.695 359.064 113.662 359.086 113.638C359.108 113.613 359.138 113.599 359.169 113.599H362.73C362.761 113.599 362.791 113.613 362.813 113.638C362.836 113.662 362.848 113.695 362.848 113.73C362.848 113.765 362.836 113.798 362.813 113.823C362.791 113.847 362.761 113.861 362.73 113.861Z" fill="#292A2E"/>
<path d="M365.862 116.446H359.169C359.138 116.446 359.108 116.433 359.086 116.408C359.064 116.383 359.051 116.35 359.051 116.315C359.051 116.281 359.064 116.247 359.086 116.223C359.108 116.198 359.138 116.184 359.169 116.184H365.862C365.893 116.184 365.923 116.198 365.945 116.223C365.967 116.247 365.98 116.281 365.98 116.315C365.98 116.35 365.967 116.383 365.945 116.408C365.923 116.433 365.893 116.446 365.862 116.446Z" fill="#292A2E"/>
<path d="M367.111 119.032H361.523C361.492 119.032 361.462 119.018 361.44 118.993C361.418 118.969 361.405 118.935 361.405 118.901C361.405 118.866 361.418 118.832 361.44 118.808C361.462 118.783 361.492 118.77 361.523 118.77H367.111C367.142 118.77 367.172 118.783 367.194 118.808C367.217 118.832 367.229 118.866 367.229 118.901C367.229 118.935 367.217 118.969 367.194 118.993C367.172 119.018 367.142 119.032 367.111 119.032Z" fill="#292A2E"/>
<path d="M364.409 121.617H361.523C361.492 121.617 361.462 121.603 361.44 121.579C361.418 121.554 361.405 121.521 361.405 121.486C361.405 121.451 361.418 121.418 361.44 121.393C361.462 121.369 361.492 121.355 361.523 121.355H364.409C364.44 121.355 364.47 121.369 364.492 121.393C364.514 121.418 364.527 121.451 364.527 121.486C364.527 121.521 364.514 121.554 364.492 121.579C364.47 121.603 364.44 121.617 364.409 121.617Z" fill="#292A2E"/>
<path d="M366.62 124.202H361.523C361.492 124.202 361.462 124.189 361.44 124.164C361.418 124.139 361.405 124.106 361.405 124.071C361.405 124.036 361.418 124.003 361.44 123.979C361.462 123.954 361.492 123.94 361.523 123.94H366.62C366.651 123.94 366.681 123.954 366.703 123.979C366.725 124.003 366.737 124.036 366.737 124.071C366.737 124.106 366.725 124.139 366.703 124.164C366.681 124.189 366.651 124.202 366.62 124.202Z" fill="#292A2E"/>
<path d="M363.099 126.787H359.169C359.138 126.787 359.108 126.773 359.086 126.749C359.064 126.724 359.051 126.691 359.051 126.656C359.051 126.621 359.064 126.588 359.086 126.564C359.108 126.539 359.138 126.525 359.169 126.525H363.099C363.13 126.525 363.16 126.539 363.182 126.564C363.204 126.588 363.217 126.621 363.217 126.656C363.217 126.691 363.204 126.724 363.182 126.749C363.16 126.773 363.13 126.787 363.099 126.787Z" fill="#292A2E"/>
<path d="M361.748 129.372H359.169C359.138 129.372 359.108 129.358 359.086 129.334C359.064 129.309 359.051 129.276 359.051 129.241C359.051 129.206 359.064 129.173 359.086 129.148C359.108 129.124 359.138 129.11 359.169 129.11H361.748C361.779 129.11 361.809 129.124 361.831 129.148C361.853 129.173 361.866 129.206 361.866 129.241C361.866 129.276 361.853 129.309 361.831 129.334C361.809 129.358 361.779 129.372 361.748 129.372Z" fill="#292A2E"/>
<path d="M371.61 110.722V110.769L373.081 111.377C373.102 111.386 373.12 111.403 373.133 111.424C373.145 111.445 373.152 111.47 373.152 111.495V111.539C373.152 111.559 373.148 111.579 373.14 111.596C373.132 111.613 373.119 111.628 373.105 111.639C373.09 111.651 373.072 111.658 373.054 111.66C373.036 111.663 373.018 111.66 373.001 111.652L371.339 110.929C371.318 110.919 371.301 110.904 371.288 110.883C371.275 110.862 371.269 110.838 371.269 110.813V110.68C371.268 110.655 371.275 110.63 371.288 110.61C371.3 110.589 371.318 110.573 371.339 110.564L373.001 109.838C373.014 109.833 373.029 109.83 373.043 109.83C373.065 109.831 373.086 109.838 373.105 109.851C373.119 109.863 373.132 109.878 373.14 109.896C373.148 109.914 373.152 109.933 373.152 109.954V109.998C373.152 110.023 373.146 110.048 373.133 110.068C373.12 110.089 373.102 110.105 373.081 110.113L371.61 110.722Z" fill="#367CFF"/>
<path d="M374.526 109.303L373.646 112.305C373.638 112.33 373.624 112.352 373.605 112.367C373.586 112.383 373.563 112.391 373.54 112.391C373.523 112.392 373.506 112.387 373.491 112.379C373.475 112.37 373.462 112.357 373.453 112.342C373.442 112.326 373.435 112.308 373.432 112.289C373.428 112.27 373.429 112.25 373.434 112.231L374.314 109.233C374.322 109.207 374.336 109.185 374.355 109.169C374.375 109.153 374.398 109.144 374.422 109.144C374.439 109.143 374.456 109.148 374.471 109.157C374.487 109.165 374.5 109.178 374.509 109.193C374.52 109.209 374.527 109.227 374.53 109.246C374.533 109.265 374.531 109.285 374.526 109.303Z" fill="#367CFF"/>
<path d="M376.688 110.679V110.813C376.688 110.838 376.682 110.862 376.67 110.882C376.658 110.903 376.64 110.919 376.62 110.928L374.955 111.652C374.939 111.66 374.921 111.662 374.903 111.66C374.886 111.658 374.869 111.65 374.854 111.639C374.839 111.628 374.827 111.613 374.818 111.596C374.809 111.579 374.805 111.559 374.805 111.539V111.495C374.805 111.469 374.811 111.444 374.824 111.423C374.838 111.402 374.856 111.386 374.878 111.377L376.349 110.769V110.721L374.878 110.113C374.856 110.105 374.837 110.09 374.824 110.069C374.811 110.048 374.804 110.023 374.805 109.998V109.953C374.805 109.933 374.809 109.913 374.818 109.895C374.827 109.877 374.839 109.862 374.854 109.851C374.872 109.838 374.894 109.831 374.915 109.83C374.929 109.83 374.943 109.833 374.955 109.838L376.62 110.564C376.64 110.573 376.658 110.589 376.67 110.61C376.682 110.63 376.689 110.655 376.688 110.679Z" fill="#367CFF"/>
<path d="M199.802 139.836H150.668C149.735 139.836 148.839 139.423 148.178 138.688C147.518 137.953 147.147 136.955 147.147 135.915V96.0835C147.147 95.044 147.518 94.0471 148.178 93.3121C148.838 92.577 149.733 92.1641 150.667 92.1641H199.804C200.737 92.1641 201.633 92.577 202.293 93.3121C202.953 94.0471 203.323 95.044 203.323 96.0835V135.915C203.323 136.955 202.952 137.953 202.292 138.688C201.632 139.423 200.736 139.836 199.802 139.836Z" fill="white"/>
<path d="M147 135.915V96.0832C147 95.0003 147.386 93.9617 148.074 93.196C148.762 92.4302 149.694 92 150.667 92H199.804C200.776 92 201.709 92.4302 202.397 93.196C203.084 93.9617 203.471 95.0003 203.471 96.0832V135.915C203.471 136.451 203.376 136.983 203.191 137.478C203.007 137.974 202.737 138.424 202.396 138.804C202.056 139.183 201.651 139.484 201.206 139.689C200.761 139.894 200.284 140 199.802 140H150.668C150.187 140 149.71 139.894 149.265 139.689C148.819 139.484 148.415 139.183 148.074 138.804C147.734 138.424 147.464 137.974 147.279 137.478C147.095 136.983 147 136.451 147 135.915ZM150.667 92.3277C149.772 92.3279 148.915 92.7237 148.283 93.428C147.65 94.1323 147.295 95.0874 147.295 96.0832V135.915C147.295 136.911 147.651 137.867 148.283 138.572C148.916 139.276 149.774 139.672 150.669 139.672H199.802C200.697 139.672 201.555 139.276 202.188 138.572C202.821 137.867 203.176 136.911 203.176 135.915V96.0832C203.176 95.0872 202.821 94.132 202.189 93.4277C201.556 92.7233 200.698 92.3277 199.804 92.3277H150.667Z" fill="#292A2E"/>
<path d="M147.147 96.0827V99.4016H203.323V96.0827C203.323 95.0433 202.952 94.0463 202.292 93.3113C201.632 92.5763 200.737 92.1633 199.803 92.1633H150.667C150.205 92.1633 149.747 92.2647 149.32 92.4617C148.893 92.6587 148.505 92.9474 148.178 93.3113C147.851 93.6753 147.592 94.1073 147.415 94.5829C147.238 95.0584 147.147 95.5681 147.147 96.0827Z" fill="#292A2E"/>
<path d="M166.332 104.767H163.681C163.65 104.767 163.62 104.753 163.598 104.728C163.576 104.704 163.564 104.67 163.564 104.635C163.564 104.601 163.576 104.567 163.598 104.543C163.62 104.518 163.65 104.504 163.681 104.504H166.332C166.363 104.504 166.393 104.518 166.415 104.543C166.437 104.567 166.45 104.601 166.45 104.635C166.45 104.67 166.437 104.704 166.415 104.728C166.393 104.753 166.363 104.767 166.332 104.767Z" fill="#292A2E"/>
<path d="M161.77 104.767H160.767C160.736 104.767 160.706 104.753 160.684 104.728C160.662 104.704 160.649 104.67 160.649 104.635C160.649 104.601 160.662 104.567 160.684 104.543C160.706 104.518 160.736 104.504 160.767 104.504H161.77C161.801 104.504 161.831 104.518 161.853 104.543C161.875 104.567 161.888 104.601 161.888 104.635C161.888 104.67 161.875 104.704 161.853 104.728C161.831 104.753 161.801 104.767 161.77 104.767Z" fill="#367CFF"/>
<path d="M161.77 107.131H160.767C160.736 107.131 160.706 107.117 160.684 107.093C160.662 107.068 160.649 107.035 160.649 107C160.649 106.965 160.662 106.932 160.684 106.907C160.706 106.883 160.736 106.869 160.767 106.869H161.77C161.801 106.869 161.831 106.883 161.853 106.907C161.875 106.932 161.888 106.965 161.888 107C161.888 107.035 161.875 107.068 161.853 107.093C161.831 107.117 161.801 107.131 161.77 107.131Z" fill="#367CFF"/>
<path d="M161.77 109.495H160.767C160.736 109.495 160.706 109.481 160.684 109.457C160.662 109.432 160.649 109.399 160.649 109.364C160.649 109.329 160.662 109.296 160.684 109.272C160.706 109.247 160.736 109.233 160.767 109.233H161.77C161.801 109.233 161.831 109.247 161.853 109.272C161.875 109.296 161.888 109.329 161.888 109.364C161.888 109.399 161.875 109.432 161.853 109.457C161.831 109.481 161.801 109.495 161.77 109.495Z" fill="#367CFF"/>
<path d="M161.77 111.86H160.767C160.736 111.86 160.706 111.846 160.684 111.821C160.662 111.797 160.649 111.763 160.649 111.729C160.649 111.694 160.662 111.661 160.684 111.636C160.706 111.611 160.736 111.598 160.767 111.598H161.77C161.801 111.598 161.831 111.611 161.853 111.636C161.875 111.661 161.888 111.694 161.888 111.729C161.888 111.763 161.875 111.797 161.853 111.821C161.831 111.846 161.801 111.86 161.77 111.86Z" fill="#367CFF"/>
<path d="M161.77 114.224H160.767C160.736 114.224 160.706 114.21 160.684 114.186C160.662 114.161 160.649 114.128 160.649 114.093C160.649 114.058 160.662 114.025 160.684 114.001C160.706 113.976 160.736 113.962 160.767 113.962H161.77C161.801 113.962 161.831 113.976 161.853 114.001C161.875 114.025 161.888 114.058 161.888 114.093C161.888 114.128 161.875 114.161 161.853 114.186C161.831 114.21 161.801 114.224 161.77 114.224Z" fill="#367CFF"/>
<path d="M161.77 116.589H160.767C160.736 116.589 160.706 116.575 160.684 116.55C160.662 116.526 160.649 116.492 160.649 116.457C160.649 116.423 160.662 116.389 160.684 116.365C160.706 116.34 160.736 116.326 160.767 116.326H161.77C161.801 116.326 161.831 116.34 161.853 116.365C161.875 116.389 161.888 116.423 161.888 116.457C161.888 116.492 161.875 116.526 161.853 116.55C161.831 116.575 161.801 116.589 161.77 116.589Z" fill="#367CFF"/>
<path d="M161.77 118.953H160.767C160.736 118.953 160.706 118.939 160.684 118.915C160.662 118.89 160.649 118.857 160.649 118.822C160.649 118.787 160.662 118.754 160.684 118.729C160.706 118.705 160.736 118.691 160.767 118.691H161.77C161.801 118.691 161.831 118.705 161.853 118.729C161.875 118.754 161.888 118.787 161.888 118.822C161.888 118.857 161.875 118.89 161.853 118.915C161.831 118.939 161.801 118.953 161.77 118.953Z" fill="#367CFF"/>
<path d="M161.77 121.318H160.767C160.736 121.318 160.706 121.304 160.684 121.279C160.662 121.255 160.649 121.221 160.649 121.186C160.649 121.152 160.662 121.118 160.684 121.094C160.706 121.069 160.736 121.055 160.767 121.055H161.77C161.801 121.055 161.831 121.069 161.853 121.094C161.875 121.118 161.888 121.152 161.888 121.186C161.888 121.221 161.875 121.255 161.853 121.279C161.831 121.304 161.801 121.318 161.77 121.318Z" fill="#367CFF"/>
<path d="M161.77 123.682H160.767C160.736 123.682 160.706 123.668 160.684 123.643C160.662 123.619 160.649 123.586 160.649 123.551C160.649 123.516 160.662 123.483 160.684 123.458C160.706 123.433 160.736 123.42 160.767 123.42H161.77C161.801 123.42 161.831 123.433 161.853 123.458C161.875 123.483 161.888 123.516 161.888 123.551C161.888 123.586 161.875 123.619 161.853 123.643C161.831 123.668 161.801 123.682 161.77 123.682Z" fill="#367CFF"/>
<path d="M161.77 126.046H160.767C160.736 126.046 160.706 126.033 160.684 126.008C160.662 125.983 160.649 125.95 160.649 125.915C160.649 125.88 160.662 125.847 160.684 125.823C160.706 125.798 160.736 125.784 160.767 125.784H161.77C161.801 125.784 161.831 125.798 161.853 125.823C161.875 125.847 161.888 125.88 161.888 125.915C161.888 125.95 161.875 125.983 161.853 126.008C161.831 126.033 161.801 126.046 161.77 126.046Z" fill="#367CFF"/>
<path d="M161.77 128.411H160.767C160.736 128.411 160.706 128.397 160.684 128.372C160.662 128.348 160.649 128.315 160.649 128.28C160.649 128.245 160.662 128.212 160.684 128.187C160.706 128.162 160.736 128.149 160.767 128.149H161.77C161.801 128.149 161.831 128.162 161.853 128.187C161.875 128.212 161.888 128.245 161.888 128.28C161.888 128.315 161.875 128.348 161.853 128.372C161.831 128.397 161.801 128.411 161.77 128.411Z" fill="#367CFF"/>
<path d="M161.77 130.775H160.767C160.736 130.775 160.706 130.762 160.684 130.737C160.662 130.712 160.649 130.679 160.649 130.644C160.649 130.609 160.662 130.576 160.684 130.552C160.706 130.527 160.736 130.513 160.767 130.513H161.77C161.801 130.513 161.831 130.527 161.853 130.552C161.875 130.576 161.888 130.609 161.888 130.644C161.888 130.679 161.875 130.712 161.853 130.737C161.831 130.762 161.801 130.775 161.77 130.775Z" fill="#367CFF"/>
<path d="M161.77 133.14H160.767C160.736 133.14 160.706 133.126 160.684 133.101C160.662 133.077 160.649 133.044 160.649 133.009C160.649 132.974 160.662 132.941 160.684 132.916C160.706 132.891 160.736 132.878 160.767 132.878H161.77C161.801 132.878 161.831 132.891 161.853 132.916C161.875 132.941 161.888 132.974 161.888 133.009C161.888 133.044 161.875 133.077 161.853 133.101C161.831 133.126 161.801 133.14 161.77 133.14Z" fill="#367CFF"/>
<path d="M161.77 135.504H160.767C160.736 135.504 160.706 135.491 160.684 135.466C160.662 135.441 160.649 135.408 160.649 135.373C160.649 135.338 160.662 135.305 160.684 135.281C160.706 135.256 160.736 135.242 160.767 135.242H161.77C161.801 135.242 161.831 135.256 161.853 135.281C161.875 135.305 161.888 135.338 161.888 135.373C161.888 135.408 161.875 135.441 161.853 135.466C161.831 135.491 161.801 135.504 161.77 135.504Z" fill="#367CFF"/>
<path d="M168.451 107.131H166.035C166.004 107.131 165.974 107.117 165.952 107.092C165.93 107.068 165.918 107.034 165.918 107C165.918 106.965 165.93 106.932 165.952 106.907C165.974 106.882 166.004 106.869 166.035 106.869H168.451C168.482 106.869 168.512 106.882 168.534 106.907C168.556 106.932 168.568 106.965 168.568 107C168.568 107.034 168.556 107.068 168.534 107.092C168.512 107.117 168.482 107.131 168.451 107.131Z" fill="#292A2E"/>
<path d="M166.332 121.317H163.681C163.65 121.317 163.62 121.303 163.598 121.279C163.576 121.254 163.564 121.221 163.564 121.186C163.564 121.151 163.576 121.118 163.598 121.094C163.62 121.069 163.65 121.055 163.681 121.055H166.332C166.363 121.055 166.393 121.069 166.415 121.094C166.437 121.118 166.45 121.151 166.45 121.186C166.45 121.221 166.437 121.254 166.415 121.279C166.393 121.303 166.363 121.317 166.332 121.317Z" fill="#292A2E"/>
<path d="M168.451 123.682H166.035C166.004 123.682 165.974 123.668 165.952 123.643C165.93 123.619 165.918 123.586 165.918 123.551C165.918 123.516 165.93 123.483 165.952 123.458C165.974 123.433 166.004 123.42 166.035 123.42H168.451C168.482 123.42 168.512 123.433 168.534 123.458C168.556 123.483 168.568 123.516 168.568 123.551C168.568 123.586 168.556 123.619 168.534 123.643C168.512 123.668 168.482 123.682 168.451 123.682Z" fill="#292A2E"/>
<path d="M182.104 109.495H167.683C167.652 109.495 167.622 109.481 167.6 109.457C167.578 109.432 167.565 109.399 167.565 109.364C167.565 109.329 167.578 109.296 167.6 109.272C167.622 109.247 167.652 109.233 167.683 109.233H182.104C182.135 109.233 182.165 109.247 182.187 109.272C182.209 109.296 182.221 109.329 182.221 109.364C182.221 109.399 182.209 109.432 182.187 109.457C182.165 109.481 182.135 109.495 182.104 109.495Z" fill="#292A2E"/>
<path d="M194.835 109.495H184.652C184.621 109.495 184.591 109.481 184.569 109.457C184.547 109.432 184.534 109.399 184.534 109.364C184.534 109.329 184.547 109.296 184.569 109.272C184.591 109.247 184.621 109.233 184.652 109.233H194.835C194.866 109.233 194.896 109.247 194.919 109.272C194.941 109.296 194.953 109.329 194.953 109.364C194.953 109.399 194.941 109.432 194.919 109.457C194.896 109.481 194.866 109.495 194.835 109.495Z" fill="#0CBC8B"/>
<path d="M200.3 109.495H197.179C197.148 109.495 197.118 109.481 197.096 109.457C197.074 109.432 197.061 109.399 197.061 109.364C197.061 109.329 197.074 109.296 197.096 109.272C197.118 109.247 197.148 109.233 197.179 109.233H200.3C200.332 109.233 200.361 109.247 200.384 109.272C200.406 109.296 200.418 109.329 200.418 109.364C200.418 109.399 200.406 109.432 200.384 109.457C200.361 109.481 200.332 109.495 200.3 109.495Z" fill="#292A2E"/>
<path d="M189.165 114.224H167.683C167.652 114.224 167.622 114.21 167.6 114.186C167.578 114.161 167.565 114.128 167.565 114.093C167.565 114.058 167.578 114.025 167.6 114C167.622 113.976 167.652 113.962 167.683 113.962H189.165C189.197 113.962 189.227 113.976 189.249 114C189.271 114.025 189.283 114.058 189.283 114.093C189.283 114.128 189.271 114.161 189.249 114.186C189.227 114.21 189.197 114.224 189.165 114.224Z" fill="#292A2E"/>
<path d="M194.835 114.224H191.714C191.683 114.224 191.653 114.21 191.631 114.186C191.609 114.161 191.596 114.128 191.596 114.093C191.596 114.058 191.609 114.025 191.631 114C191.653 113.976 191.683 113.962 191.714 113.962H194.835C194.867 113.962 194.897 113.976 194.919 114C194.941 114.025 194.953 114.058 194.953 114.093C194.953 114.128 194.941 114.161 194.919 114.186C194.897 114.21 194.867 114.224 194.835 114.224Z" fill="#367CFF"/>
<path d="M170.334 111.86H167.683C167.652 111.86 167.622 111.846 167.6 111.821C167.578 111.797 167.565 111.763 167.565 111.729C167.565 111.694 167.578 111.661 167.6 111.636C167.622 111.611 167.652 111.598 167.683 111.598H170.334C170.365 111.598 170.395 111.611 170.417 111.636C170.439 111.661 170.452 111.694 170.452 111.729C170.452 111.763 170.439 111.797 170.417 111.821C170.395 111.846 170.365 111.86 170.334 111.86Z" fill="#0CBC8B"/>
<path d="M187.774 111.86H172.883C172.851 111.86 172.821 111.846 172.799 111.821C172.777 111.797 172.765 111.763 172.765 111.729C172.765 111.694 172.777 111.661 172.799 111.636C172.821 111.611 172.851 111.598 172.883 111.598H187.774C187.805 111.598 187.835 111.611 187.857 111.636C187.879 111.661 187.891 111.694 187.891 111.729C187.891 111.763 187.879 111.797 187.857 111.821C187.835 111.846 187.805 111.86 187.774 111.86Z" fill="#367CFF"/>
<path d="M200.321 111.86H190.608C190.576 111.86 190.547 111.846 190.524 111.821C190.502 111.797 190.49 111.763 190.49 111.729C190.49 111.694 190.502 111.661 190.524 111.636C190.547 111.611 190.576 111.598 190.608 111.598H200.32C200.351 111.598 200.381 111.611 200.403 111.636C200.426 111.661 200.438 111.694 200.438 111.729C200.438 111.763 200.426 111.797 200.403 111.821C200.381 111.846 200.351 111.86 200.32 111.86H200.321Z" fill="#292A2E"/>
<path d="M182.104 116.589H167.683C167.652 116.589 167.622 116.575 167.6 116.55C167.578 116.526 167.565 116.492 167.565 116.457C167.565 116.423 167.578 116.389 167.6 116.365C167.622 116.34 167.652 116.326 167.683 116.326H182.104C182.135 116.326 182.165 116.34 182.187 116.365C182.209 116.389 182.221 116.423 182.221 116.457C182.221 116.492 182.209 116.526 182.187 116.55C182.165 116.575 182.135 116.589 182.104 116.589Z" fill="#292A2E"/>
<path d="M190.127 116.589H184.652C184.621 116.589 184.591 116.575 184.569 116.55C184.547 116.526 184.534 116.492 184.534 116.457C184.534 116.423 184.547 116.389 184.569 116.365C184.591 116.34 184.621 116.326 184.652 116.326H190.127C190.159 116.326 190.189 116.34 190.211 116.365C190.233 116.389 190.245 116.423 190.245 116.457C190.245 116.492 190.233 116.526 190.211 116.55C190.189 116.575 190.159 116.589 190.127 116.589Z" fill="#0CBC8B"/>
<path d="M200.3 116.589H192.471C192.44 116.589 192.41 116.575 192.388 116.55C192.366 116.526 192.353 116.492 192.353 116.457C192.353 116.423 192.366 116.389 192.388 116.365C192.41 116.34 192.44 116.326 192.471 116.326H200.3C200.331 116.326 200.361 116.34 200.383 116.365C200.405 116.389 200.418 116.423 200.418 116.457C200.418 116.492 200.405 116.526 200.383 116.55C200.361 116.575 200.331 116.589 200.3 116.589Z" fill="#292A2E"/>
<path d="M170.334 118.953H167.683C167.652 118.953 167.622 118.939 167.6 118.915C167.578 118.89 167.565 118.857 167.565 118.822C167.565 118.787 167.578 118.754 167.6 118.729C167.622 118.705 167.652 118.691 167.683 118.691H170.334C170.365 118.691 170.395 118.705 170.417 118.729C170.439 118.754 170.452 118.787 170.452 118.822C170.452 118.857 170.439 118.89 170.417 118.915C170.395 118.939 170.365 118.953 170.334 118.953Z" fill="#367CFF"/>
<path d="M187.774 118.953H172.883C172.851 118.953 172.821 118.939 172.799 118.915C172.777 118.89 172.765 118.857 172.765 118.822C172.765 118.787 172.777 118.754 172.799 118.729C172.821 118.705 172.851 118.691 172.883 118.691H187.774C187.805 118.691 187.835 118.705 187.857 118.729C187.879 118.754 187.891 118.787 187.891 118.822C187.891 118.857 187.879 118.89 187.857 118.915C187.835 118.939 187.805 118.953 187.774 118.953Z" fill="#0CBC8B"/>
<path d="M181.633 128.411H167.212C167.181 128.411 167.151 128.397 167.129 128.372C167.107 128.348 167.094 128.315 167.094 128.28C167.094 128.245 167.107 128.212 167.129 128.187C167.151 128.162 167.181 128.149 167.212 128.149H181.633C181.664 128.149 181.694 128.162 181.716 128.187C181.738 128.212 181.75 128.245 181.75 128.28C181.75 128.315 181.738 128.348 181.716 128.372C181.694 128.397 181.664 128.411 181.633 128.411Z" fill="#292A2E"/>
<path d="M194.364 128.411H184.181C184.15 128.411 184.12 128.397 184.098 128.372C184.076 128.348 184.063 128.315 184.063 128.28C184.063 128.245 184.076 128.212 184.098 128.187C184.12 128.162 184.15 128.149 184.181 128.149H194.364C194.396 128.149 194.425 128.162 194.448 128.187C194.47 128.212 194.482 128.245 194.482 128.28C194.482 128.315 194.47 128.348 194.448 128.372C194.425 128.397 194.396 128.411 194.364 128.411Z" fill="#367CFF"/>
<path d="M174.571 126.046H167.212C167.181 126.046 167.151 126.033 167.129 126.008C167.107 125.983 167.094 125.95 167.094 125.915C167.094 125.88 167.107 125.847 167.129 125.823C167.151 125.798 167.181 125.784 167.212 125.784H174.571C174.602 125.784 174.632 125.798 174.654 125.823C174.676 125.847 174.689 125.88 174.689 125.915C174.689 125.95 174.676 125.983 174.654 126.008C174.632 126.033 174.602 126.046 174.571 126.046Z" fill="#0CBC8B"/>
<path d="M187.303 126.046H177.119C177.088 126.046 177.058 126.033 177.036 126.008C177.014 125.983 177.002 125.95 177.002 125.915C177.002 125.88 177.014 125.847 177.036 125.823C177.058 125.798 177.088 125.784 177.119 125.784H187.303C187.334 125.784 187.364 125.798 187.386 125.823C187.408 125.847 187.42 125.88 187.42 125.915C187.42 125.95 187.408 125.983 187.386 126.008C187.364 126.033 187.334 126.046 187.303 126.046Z" fill="#367CFF"/>
<path d="M199.85 126.046H190.137C190.106 126.046 190.076 126.033 190.054 126.008C190.031 125.983 190.019 125.95 190.019 125.915C190.019 125.88 190.031 125.847 190.054 125.823C190.076 125.798 190.106 125.784 190.137 125.784H199.849C199.881 125.784 199.91 125.798 199.933 125.823C199.955 125.847 199.967 125.88 199.967 125.915C199.967 125.95 199.955 125.983 199.933 126.008C199.91 126.033 199.881 126.046 199.849 126.046H199.85Z" fill="#292A2E"/>
<path d="M188.694 133.14H167.212C167.181 133.14 167.151 133.126 167.129 133.101C167.107 133.077 167.094 133.044 167.094 133.009C167.094 132.974 167.107 132.941 167.129 132.916C167.151 132.891 167.181 132.878 167.212 132.878H188.694C188.726 132.878 188.756 132.891 188.778 132.916C188.8 132.941 188.812 132.974 188.812 133.009C188.812 133.044 188.8 133.077 188.778 133.101C188.756 133.126 188.726 133.14 188.694 133.14Z" fill="#367CFF"/>
<path d="M194.365 133.14H191.243C191.212 133.14 191.182 133.126 191.16 133.101C191.138 133.077 191.125 133.044 191.125 133.009C191.125 132.974 191.138 132.941 191.16 132.916C191.182 132.891 191.212 132.878 191.243 132.878H194.365C194.396 132.878 194.426 132.891 194.448 132.916C194.47 132.941 194.482 132.974 194.482 133.009C194.482 133.044 194.47 133.077 194.448 133.101C194.426 133.126 194.396 133.14 194.365 133.14Z" fill="#292A2E"/>
<path d="M169.863 130.776H167.212C167.181 130.776 167.151 130.762 167.129 130.737C167.107 130.713 167.094 130.679 167.094 130.644C167.094 130.61 167.107 130.576 167.129 130.552C167.151 130.527 167.181 130.513 167.212 130.513H169.863C169.894 130.513 169.924 130.527 169.946 130.552C169.968 130.576 169.981 130.61 169.981 130.644C169.981 130.679 169.968 130.713 169.946 130.737C169.924 130.762 169.894 130.776 169.863 130.776Z" fill="#367CFF"/>
<path d="M187.303 130.776H172.412C172.38 130.776 172.35 130.762 172.328 130.737C172.306 130.713 172.294 130.679 172.294 130.644C172.294 130.61 172.306 130.576 172.328 130.552C172.35 130.527 172.38 130.513 172.412 130.513H187.303C187.334 130.513 187.364 130.527 187.386 130.552C187.408 130.576 187.42 130.61 187.42 130.644C187.42 130.679 187.408 130.713 187.386 130.737C187.364 130.762 187.334 130.776 187.303 130.776Z" fill="#292A2E"/>
<path d="M199.85 130.776H190.137C190.106 130.776 190.076 130.762 190.054 130.737C190.031 130.713 190.019 130.679 190.019 130.644C190.019 130.61 190.031 130.576 190.054 130.552C190.076 130.527 190.106 130.513 190.137 130.513H199.849C199.881 130.513 199.91 130.527 199.933 130.552C199.955 130.576 199.967 130.61 199.967 130.644C199.967 130.679 199.955 130.713 199.933 130.737C199.91 130.762 199.881 130.776 199.849 130.776H199.85Z" fill="#0CBC8B"/>
<path d="M181.633 135.504H167.212C167.181 135.504 167.151 135.491 167.129 135.466C167.107 135.441 167.094 135.408 167.094 135.373C167.094 135.338 167.107 135.305 167.129 135.281C167.151 135.256 167.181 135.242 167.212 135.242H181.633C181.664 135.242 181.694 135.256 181.716 135.281C181.738 135.305 181.75 135.338 181.75 135.373C181.75 135.408 181.738 135.441 181.716 135.466C181.694 135.491 181.664 135.504 181.633 135.504Z" fill="#0CBC8B"/>
<path d="M189.656 135.504H184.181C184.15 135.504 184.12 135.491 184.098 135.466C184.076 135.441 184.063 135.408 184.063 135.373C184.063 135.338 184.076 135.305 184.098 135.281C184.12 135.256 184.15 135.242 184.181 135.242H189.656C189.688 135.242 189.718 135.256 189.74 135.281C189.762 135.305 189.774 135.338 189.774 135.373C189.774 135.408 189.762 135.441 189.74 135.466C189.718 135.491 189.688 135.504 189.656 135.504Z" fill="#292A2E"/>
<path d="M199.829 135.504H192C191.969 135.504 191.939 135.491 191.917 135.466C191.895 135.441 191.882 135.408 191.882 135.373C191.882 135.338 191.895 135.305 191.917 135.281C191.939 135.256 191.969 135.242 192 135.242H199.829C199.86 135.242 199.89 135.256 199.912 135.281C199.935 135.305 199.947 135.338 199.947 135.373C199.947 135.408 199.935 135.441 199.912 135.466C199.89 135.491 199.86 135.504 199.829 135.504Z" fill="#367CFF"/>
<path d="M159.649 138.035C159.618 138.035 159.588 138.021 159.566 137.996C159.544 137.972 159.531 137.938 159.531 137.903V100.639C159.531 100.604 159.544 100.571 159.566 100.546C159.588 100.522 159.618 100.508 159.649 100.508C159.68 100.508 159.71 100.522 159.732 100.546C159.754 100.571 159.767 100.604 159.767 100.639V137.903C159.767 137.938 159.754 137.972 159.732 137.996C159.71 138.021 159.68 138.035 159.649 138.035Z" fill="#292A2E"/>
<path d="M199.067 98.1478C200.11 98.1478 200.956 97.2063 200.956 96.045C200.956 94.8836 200.11 93.9421 199.067 93.9421C198.024 93.9421 197.179 94.8836 197.179 96.045C197.179 97.2063 198.024 98.1478 199.067 98.1478Z" fill="white"/>
<path d="M154.266 102.276H149.169C149.138 102.276 149.108 102.262 149.086 102.238C149.064 102.213 149.051 102.18 149.051 102.145C149.051 102.11 149.064 102.077 149.086 102.052C149.108 102.028 149.138 102.014 149.169 102.014H154.266C154.297 102.014 154.327 102.028 154.349 102.052C154.371 102.077 154.383 102.11 154.383 102.145C154.383 102.18 154.371 102.213 154.349 102.238C154.327 102.262 154.297 102.276 154.266 102.276Z" fill="#292A2E"/>
<path d="M152.73 104.861H149.169C149.138 104.861 149.108 104.847 149.086 104.823C149.064 104.798 149.051 104.765 149.051 104.73C149.051 104.695 149.064 104.662 149.086 104.638C149.108 104.613 149.138 104.599 149.169 104.599H152.73C152.761 104.599 152.791 104.613 152.813 104.638C152.836 104.662 152.848 104.695 152.848 104.73C152.848 104.765 152.836 104.798 152.813 104.823C152.791 104.847 152.761 104.861 152.73 104.861Z" fill="#292A2E"/>
<path d="M155.862 107.446H149.169C149.138 107.446 149.108 107.433 149.086 107.408C149.064 107.383 149.051 107.35 149.051 107.315C149.051 107.281 149.064 107.247 149.086 107.223C149.108 107.198 149.138 107.184 149.169 107.184H155.862C155.893 107.184 155.923 107.198 155.945 107.223C155.967 107.247 155.98 107.281 155.98 107.315C155.98 107.35 155.967 107.383 155.945 107.408C155.923 107.433 155.893 107.446 155.862 107.446Z" fill="#292A2E"/>
<path d="M157.111 110.032H151.523C151.492 110.032 151.462 110.018 151.44 109.993C151.418 109.969 151.405 109.935 151.405 109.901C151.405 109.866 151.418 109.832 151.44 109.808C151.462 109.783 151.492 109.77 151.523 109.77H157.111C157.142 109.77 157.172 109.783 157.194 109.808C157.217 109.832 157.229 109.866 157.229 109.901C157.229 109.935 157.217 109.969 157.194 109.993C157.172 110.018 157.142 110.032 157.111 110.032Z" fill="#292A2E"/>
<path d="M154.409 112.617H151.523C151.492 112.617 151.462 112.603 151.44 112.579C151.418 112.554 151.405 112.521 151.405 112.486C151.405 112.451 151.418 112.418 151.44 112.393C151.462 112.369 151.492 112.355 151.523 112.355H154.409C154.44 112.355 154.47 112.369 154.492 112.393C154.514 112.418 154.527 112.451 154.527 112.486C154.527 112.521 154.514 112.554 154.492 112.579C154.47 112.603 154.44 112.617 154.409 112.617Z" fill="#292A2E"/>
<path d="M156.62 115.202H151.523C151.492 115.202 151.462 115.189 151.44 115.164C151.418 115.139 151.405 115.106 151.405 115.071C151.405 115.036 151.418 115.003 151.44 114.979C151.462 114.954 151.492 114.94 151.523 114.94H156.62C156.651 114.94 156.681 114.954 156.703 114.979C156.725 115.003 156.737 115.036 156.737 115.071C156.737 115.106 156.725 115.139 156.703 115.164C156.681 115.189 156.651 115.202 156.62 115.202Z" fill="#292A2E"/>
<path d="M153.099 117.787H149.169C149.138 117.787 149.108 117.773 149.086 117.749C149.064 117.724 149.051 117.691 149.051 117.656C149.051 117.621 149.064 117.588 149.086 117.564C149.108 117.539 149.138 117.525 149.169 117.525H153.099C153.13 117.525 153.16 117.539 153.182 117.564C153.204 117.588 153.217 117.621 153.217 117.656C153.217 117.691 153.204 117.724 153.182 117.749C153.16 117.773 153.13 117.787 153.099 117.787Z" fill="#292A2E"/>
<path d="M151.748 120.372H149.169C149.138 120.372 149.108 120.358 149.086 120.334C149.064 120.309 149.051 120.276 149.051 120.241C149.051 120.206 149.064 120.173 149.086 120.148C149.108 120.124 149.138 120.11 149.169 120.11H151.748C151.779 120.11 151.809 120.124 151.831 120.148C151.853 120.173 151.866 120.206 151.866 120.241C151.866 120.276 151.853 120.309 151.831 120.334C151.809 120.358 151.779 120.372 151.748 120.372Z" fill="#292A2E"/>
<path d="M161.61 101.722V101.769L163.081 102.377C163.102 102.386 163.12 102.403 163.132 102.424C163.145 102.445 163.152 102.47 163.151 102.495V102.539C163.152 102.559 163.148 102.579 163.139 102.596C163.131 102.613 163.119 102.628 163.104 102.639C163.089 102.651 163.072 102.658 163.054 102.66C163.036 102.663 163.017 102.66 163.001 102.652L161.339 101.929C161.318 101.919 161.3 101.904 161.288 101.883C161.275 101.862 161.268 101.838 161.268 101.813V101.68C161.268 101.655 161.275 101.63 161.287 101.61C161.3 101.589 161.318 101.573 161.339 101.564L163.001 100.838C163.014 100.833 163.029 100.83 163.043 100.83C163.065 100.831 163.086 100.838 163.104 100.851C163.119 100.863 163.131 100.878 163.14 100.896C163.148 100.914 163.152 100.933 163.151 100.954V100.998C163.152 101.023 163.145 101.048 163.133 101.068C163.12 101.089 163.102 101.105 163.081 101.113L161.61 101.722Z" fill="#367CFF"/>
<path d="M164.526 100.303L163.646 103.305C163.638 103.33 163.624 103.352 163.605 103.367C163.586 103.383 163.563 103.391 163.54 103.391C163.523 103.392 163.506 103.387 163.491 103.379C163.475 103.37 163.462 103.357 163.453 103.342C163.442 103.326 163.435 103.308 163.432 103.289C163.428 103.27 163.429 103.25 163.434 103.231L164.314 100.233C164.322 100.207 164.336 100.185 164.355 100.169C164.375 100.153 164.398 100.144 164.422 100.144C164.439 100.143 164.456 100.148 164.471 100.157C164.487 100.165 164.5 100.178 164.509 100.193C164.52 100.209 164.527 100.227 164.53 100.246C164.533 100.265 164.531 100.285 164.526 100.303Z" fill="#367CFF"/>
<path d="M166.688 101.679V101.813C166.688 101.838 166.682 101.862 166.67 101.882C166.658 101.903 166.64 101.919 166.62 101.928L164.955 102.652C164.939 102.66 164.921 102.662 164.903 102.66C164.886 102.658 164.869 102.65 164.854 102.639C164.839 102.628 164.827 102.613 164.818 102.596C164.809 102.579 164.805 102.559 164.805 102.539V102.495C164.805 102.469 164.811 102.444 164.824 102.423C164.838 102.402 164.856 102.386 164.878 102.377L166.349 101.769V101.721L164.878 101.113C164.856 101.105 164.837 101.09 164.824 101.069C164.811 101.048 164.804 101.023 164.805 100.998V100.953C164.805 100.933 164.809 100.913 164.818 100.895C164.827 100.877 164.839 100.862 164.854 100.851C164.872 100.838 164.894 100.831 164.915 100.83C164.929 100.83 164.943 100.833 164.955 100.838L166.62 101.564C166.64 101.573 166.658 101.589 166.67 101.61C166.682 101.63 166.689 101.655 166.688 101.679Z" fill="#367CFF"/>
</svg>
