<svg width="446" height="372" viewBox="0 0 446 372" fill="none" xmlns="http://www.w3.org/2000/svg">
<path d="M11.7824 286.325C-13.9915 229.855 2.04069 165.783 64.6075 143.277C112.682 125.984 186.413 124.536 217.093 71.4138C266.825 -14.6969 391.039 -5.068 435.653 122.26C476.248 238.118 391.936 422.222 277.909 358.894C182.888 306.123 167.601 364.788 105.825 360.521C58.1854 357.231 20.4772 305.376 11.7824 286.325Z" fill="#F3F5FD"/>
<path d="M11.7824 286.325C-13.9915 229.855 2.04069 165.783 64.6075 143.277C112.682 125.984 186.413 124.536 217.093 71.4138C266.825 -14.6969 391.039 -5.068 435.653 122.26C476.248 238.118 391.936 422.222 277.909 358.894C182.888 306.123 167.601 364.788 105.825 360.521C58.1854 357.231 20.4772 305.376 11.7824 286.325Z" fill="#367CFF"/>
<g opacity="0.75">
<path d="M11.7824 286.325C-13.9915 229.855 2.04069 165.783 64.6075 143.277C112.682 125.984 186.413 124.536 217.093 71.4138C266.825 -14.6969 391.039 -5.068 435.653 122.26C476.248 238.118 391.936 422.222 277.909 358.894C182.888 306.123 167.601 364.788 105.825 360.521C58.1854 357.231 20.4772 305.376 11.7824 286.325Z" fill="#292A2E"/>
</g>
<g opacity="0.18">
<path d="M147.665 146.007C148.686 146.007 149.514 145.112 149.514 144.008C149.514 142.904 148.686 142.01 147.665 142.01C146.643 142.01 145.815 142.904 145.815 144.008C145.815 145.112 146.643 146.007 147.665 146.007Z" fill="white"/>
<path d="M164.976 184.663C166.833 184.663 168.338 183.036 168.338 181.029C168.338 179.022 166.833 177.396 164.976 177.396C163.12 177.396 161.615 179.022 161.615 181.029C161.615 183.036 163.12 184.663 164.976 184.663Z" fill="white"/>
<path d="M271.255 83.3284C273.112 83.3284 274.617 81.7015 274.617 79.6946C274.617 77.6877 273.112 76.0608 271.255 76.0608C269.398 76.0608 267.893 77.6877 267.893 79.6946C267.893 81.7015 269.398 83.3284 271.255 83.3284Z" fill="white"/>
<path d="M164.693 285.774C165.654 285.774 166.433 284.932 166.433 283.893C166.433 282.854 165.654 282.011 164.693 282.011C163.731 282.011 162.952 282.854 162.952 283.893C162.952 284.932 163.731 285.774 164.693 285.774Z" fill="white"/>
<path d="M318.134 243.024C320.839 243.024 323.033 240.653 323.033 237.729C323.033 234.804 320.839 232.433 318.134 232.433C315.428 232.433 313.235 234.804 313.235 237.729C313.235 240.653 315.428 243.024 318.134 243.024Z" fill="white"/>
<path d="M144.937 333.743C146.443 333.743 147.665 332.423 147.665 330.795C147.665 329.166 146.443 327.846 144.937 327.846C143.43 327.846 142.209 329.166 142.209 330.795C142.209 332.423 143.43 333.743 144.937 333.743Z" fill="white"/>
<path d="M354.594 64.5346C357.281 64.5346 359.46 62.1796 359.46 59.2746C359.46 56.3696 357.281 54.0146 354.594 54.0146C351.906 54.0146 349.728 56.3696 349.728 59.2746C349.728 62.1796 351.906 64.5346 354.594 64.5346Z" fill="white"/>
<path d="M323.064 157.471C324.426 157.471 325.529 156.278 325.529 154.806C325.529 153.335 324.426 152.142 323.064 152.142C321.703 152.142 320.599 153.335 320.599 154.806C320.599 156.278 321.703 157.471 323.064 157.471Z" fill="white"/>
<path d="M24.9537 216.087C26.3151 216.087 27.4187 214.894 27.4187 213.422C27.4187 211.951 26.3151 210.758 24.9537 210.758C23.5924 210.758 22.4888 211.951 22.4888 213.422C22.4888 214.894 23.5924 216.087 24.9537 216.087Z" fill="white"/>
<path d="M236.558 217.489C238.347 217.489 239.797 215.921 239.797 213.988C239.797 212.054 238.347 210.486 236.558 210.486C234.769 210.486 233.319 212.054 233.319 213.988C233.319 215.921 234.769 217.489 236.558 217.489Z" fill="white"/>
<path d="M203.007 316.042C204.351 316.042 205.44 314.865 205.44 313.412C205.44 311.96 204.351 310.783 203.007 310.783C201.664 310.783 200.574 311.96 200.574 313.412C200.574 314.865 201.664 316.042 203.007 316.042Z" fill="white"/>
<path d="M371.146 176.899C373.972 176.899 376.264 174.422 376.264 171.367C376.264 168.312 373.972 165.835 371.146 165.835C368.319 165.835 366.028 168.312 366.028 171.367C366.028 174.422 368.319 176.899 371.146 176.899Z" fill="white"/>
<path d="M398.543 102.161C400.206 102.161 401.554 100.704 401.554 98.9066C401.554 97.1093 400.206 95.6523 398.543 95.6523C396.88 95.6523 395.533 97.1093 395.533 98.9066C395.533 100.704 396.88 102.161 398.543 102.161Z" fill="white"/>
<path d="M230.046 286.23C231.853 286.23 233.319 284.646 233.319 282.692C233.319 280.739 231.853 279.155 230.046 279.155C228.239 279.155 226.773 280.739 226.773 282.692C226.773 284.646 228.239 286.23 230.046 286.23Z" fill="white"/>
<path d="M334.967 341.008C337.102 341.008 338.833 339.137 338.833 336.829C338.833 334.52 337.102 332.649 334.967 332.649C332.832 332.649 331.101 334.52 331.101 336.829C331.101 339.137 332.832 341.008 334.967 341.008Z" fill="white"/>
<path d="M414.39 236.438C417.077 236.438 419.256 234.083 419.256 231.178C419.256 228.273 417.077 225.918 414.39 225.918C411.703 225.918 409.524 228.273 409.524 231.178C409.524 234.083 411.703 236.438 414.39 236.438Z" fill="white"/>
<path d="M406.996 161.158C408.658 161.158 410.006 159.701 410.006 157.904C410.006 156.106 408.658 154.649 406.996 154.649C405.333 154.649 403.985 156.106 403.985 157.904C403.985 159.701 405.333 161.158 406.996 161.158Z" fill="white"/>
<path d="M292.253 328.413C293.666 328.413 294.812 327.175 294.812 325.647C294.812 324.12 293.666 322.881 292.253 322.881C290.84 322.881 289.695 324.12 289.695 325.647C289.695 327.175 290.84 328.413 292.253 328.413Z" fill="white"/>
</g>
<path d="M331.675 125.062C338.224 127.496 344.903 129.498 351.677 131.057C348.612 134.319 344.769 136.595 340.576 137.631C336.383 138.667 332.006 138.422 327.935 136.923C323.863 135.425 320.258 132.732 317.521 129.145C314.784 125.559 313.024 121.22 312.438 116.615C318.686 119.849 325.11 122.67 331.675 125.062V125.062Z" fill="#0CBC8B"/>
<path d="M357.352 121.282C356.483 124.051 355.17 126.634 353.472 128.911C346.331 127.364 339.295 125.294 332.413 122.716C325.504 120.218 318.76 117.216 312.227 113.731C312.167 110.807 312.585 107.894 313.461 105.127C314.012 103.376 314.74 101.696 315.632 100.118C316.068 99.3444 316.544 98.5979 317.057 97.8818C320.014 93.7473 324.093 90.7153 328.723 89.2097C333.352 87.7042 338.302 87.8004 342.879 89.4849C347.456 91.1694 351.431 94.358 354.249 98.6048C357.067 102.852 358.586 107.944 358.595 113.17C358.596 114.076 358.551 114.981 358.459 115.881C358.275 117.72 357.904 119.531 357.352 121.282V121.282Z" fill="#0CBC8B"/>
<path d="M375.196 129.406C373.767 133.942 363.943 133.8 351.677 131.057C352.315 130.382 352.914 129.666 353.472 128.912C365.104 131.342 372.322 130.847 373.027 128.608C373.716 126.421 368.55 121.459 358.458 115.882C358.55 114.982 358.595 114.077 358.594 113.171C369.272 118.919 376.579 125.016 375.196 129.406Z" fill="white"/>
<path d="M353.472 128.912C352.914 129.666 352.315 130.382 351.677 131.057C344.903 129.499 338.223 127.497 331.674 125.062C325.11 122.671 318.686 119.851 312.438 116.617C312.314 115.661 312.243 114.699 312.227 113.734C318.76 117.219 325.504 120.221 332.413 122.72C339.295 125.297 346.331 127.365 353.472 128.912V128.912Z" fill="white"/>
<path d="M312.438 116.617C301.172 110.699 293.309 104.331 294.738 99.7952C296.121 95.4053 305.357 95.397 317.056 97.8844C316.543 98.6005 316.067 99.347 315.631 100.12C304.489 97.8834 297.595 98.4087 296.907 100.593C296.202 102.832 301.645 107.988 312.227 113.734C312.243 114.699 312.314 115.661 312.438 116.617V116.617Z" fill="white"/>
<path d="M236.558 168.514C248.058 168.514 257.38 158.437 257.38 146.007C257.38 133.577 248.058 123.5 236.558 123.5C225.059 123.5 215.737 133.577 215.737 146.007C215.737 158.437 225.059 168.514 236.558 168.514Z" fill="#367CFF"/>
<g opacity="0.79">
<path d="M236.558 168.514C248.058 168.514 257.38 158.437 257.38 146.007C257.38 133.577 248.058 123.5 236.558 123.5C225.059 123.5 215.737 133.577 215.737 146.007C215.737 158.437 225.059 168.514 236.558 168.514Z" fill="white"/>
</g>
<g opacity="0.18">
<path d="M247.874 141.487C250.275 141.487 252.223 139.382 252.223 136.786C252.223 134.19 250.275 132.085 247.874 132.085C245.472 132.085 243.525 134.19 243.525 136.786C243.525 139.382 245.472 141.487 247.874 141.487Z" fill="#367CFF"/>
</g>
<g opacity="0.18">
<path d="M244.481 125.191C244.456 125.666 244.335 126.129 244.125 126.548C243.916 126.966 243.623 127.329 243.268 127.611C242.913 127.892 242.505 128.085 242.072 128.176C241.64 128.267 241.195 128.253 240.768 128.135C240.341 128.018 239.944 127.8 239.605 127.497C239.265 127.193 238.992 126.813 238.805 126.382C238.618 125.951 238.522 125.481 238.523 125.005C238.524 124.529 238.622 124.059 238.811 123.629C240.76 123.855 242.669 124.381 244.481 125.191V125.191Z" fill="#367CFF"/>
</g>
<g opacity="0.18">
<path d="M229.268 151.489C234.378 151.489 238.521 147.012 238.521 141.488C238.521 135.964 234.378 131.486 229.268 131.486C224.158 131.486 220.015 135.964 220.015 141.488C220.015 147.012 224.158 151.489 229.268 151.489Z" fill="#367CFF"/>
</g>
<path opacity="0.18" d="M251.916 161.203C249.879 163.622 247.373 165.525 244.578 166.779C244.176 166.263 243.878 165.662 243.702 165.014C243.526 164.367 243.477 163.687 243.558 163.018C243.638 162.349 243.846 161.705 244.169 161.128C244.492 160.55 244.923 160.052 245.433 159.664C245.944 159.276 246.524 159.007 247.136 158.874C247.748 158.741 248.378 158.747 248.988 158.892C249.598 159.037 250.173 159.317 250.677 159.715C251.181 160.113 251.603 160.62 251.916 161.203Z" fill="#367CFF"/>
<path d="M395.797 258.587C396.165 259.987 396.405 261.422 396.513 262.872C396.88 267.927 395.618 272.964 392.94 277.127C390.262 281.29 386.333 284.323 381.821 285.71C377.309 287.097 372.492 286.754 368.188 284.738C363.884 282.722 360.358 279.158 358.209 274.651C356.845 271.778 356.079 268.617 355.965 265.391C355.803 260.483 357.167 255.658 359.839 251.687C362.512 247.716 366.339 244.828 370.709 243.484C375.078 242.141 379.739 242.419 383.945 244.275C388.151 246.131 391.66 249.457 393.912 253.722C394.718 255.256 395.351 256.89 395.797 258.587V258.587Z" fill="#367CFF"/>
<g opacity="0.64">
<path d="M395.796 258.587C396.165 259.987 396.405 261.422 396.513 262.872C396.88 267.927 395.618 272.964 392.94 277.127C390.262 281.29 386.333 284.323 381.821 285.71C377.309 287.097 372.492 286.754 368.188 284.738C363.884 282.722 360.358 279.158 358.209 274.651C356.845 271.778 356.079 268.617 355.965 265.391C355.802 260.483 357.167 255.658 359.839 251.687C362.512 247.716 366.339 244.828 370.708 243.484C375.078 242.141 379.738 242.419 383.945 244.275C388.151 246.131 391.66 249.457 393.911 253.722C394.718 255.256 395.351 256.89 395.796 258.587V258.587Z" fill="white"/>
</g>
<g opacity="0.28">
<path d="M393.912 253.722L355.965 265.393C355.857 262.265 356.374 259.149 357.481 256.257L388.174 246.818C390.523 248.647 392.48 251.002 393.912 253.722V253.722Z" fill="white"/>
</g>
<g opacity="0.28">
<path d="M396.513 262.873C396.737 265.924 396.366 268.991 395.424 271.878L363.519 281.689C361.313 279.77 359.504 277.373 358.209 274.651L396.513 262.873Z" fill="white"/>
</g>
<path d="M141.035 188.871C140.902 188.852 139.433 215.204 111.111 212.907C91.5044 211.319 84.5136 188.834 84.0643 188.834C86.1786 188.348 88.7911 187.611 89.829 187.358C93.2785 186.518 97.5845 183.441 98.5794 176.96C99.1531 173.225 98.1804 154.115 98.4794 150.336L128.576 157.597C128.155 165.579 125.212 184.083 135.528 187.358C137.245 187.899 139.093 188.397 141.035 188.871Z" fill="#E98862"/>
<path opacity="0.52" d="M128.998 179.796C128.527 178.153 128.223 176.46 128.093 174.746C127.762 170.836 127.828 166.898 128.29 163.003C122.173 162.11 116.41 159.381 111.656 155.125C111.097 157.356 108.023 167.105 108.874 169.225C110.482 173.233 118.041 179.796 128.998 179.796Z" fill="#0C0C0C"/>
<path d="M138.412 121.583C138.412 121.583 145.328 112.673 144.056 96.4389C143.072 83.8697 134.364 94.3359 134.364 94.3359C134.364 94.3359 133.574 85.293 127.849 87.6356C122.124 89.9783 120.769 100.019 120.769 100.019" fill="#0C0C0C"/>
<path d="M97.4917 96.2644C97.4917 96.2644 68.8678 106.964 88.6264 147.312L91.2633 146.855L96.6158 145.925" fill="#0C0C0C"/>
<path d="M125.002 170.872C113.193 172.628 97.6605 168.17 93.8472 151.241L90.4063 135.967C86.593 119.038 91.727 103.15 106.473 99.2684C121.218 95.3871 135.331 106.21 139.144 123.138L140.668 129.901C141.153 132.232 141.491 134.597 141.68 136.978C142.22 143.268 143.018 152.837 140.523 160.065C138.166 166.889 132.547 169.751 125.002 170.872Z" fill="#E98862"/>
<path opacity="0.52" d="M127.067 154.018C129.48 153.541 131.755 152.458 133.71 150.856C133.792 150.791 133.847 150.694 133.862 150.585C133.878 150.477 133.853 150.366 133.793 150.277C133.733 150.188 133.643 150.129 133.542 150.112C133.442 150.095 133.339 150.122 133.257 150.187C129.021 153.52 124.689 154.263 120.73 152.339C120.649 152.298 120.567 152.261 120.483 152.228C120.386 152.199 120.283 152.211 120.195 152.263C120.107 152.316 120.041 152.403 120.012 152.507C119.983 152.611 119.992 152.723 120.039 152.819C120.086 152.915 120.165 152.988 120.261 153.021C120.292 153.033 120.343 153.059 120.415 153.094C122.498 154.111 124.814 154.433 127.067 154.018V154.018Z" fill="#0C0C0C"/>
<path opacity="0.52" d="M127.77 157.871C128.207 157.792 128.638 157.674 129.057 157.516C129.148 157.476 129.222 157.401 129.264 157.304C129.305 157.207 129.31 157.097 129.278 156.996C129.246 156.895 129.179 156.812 129.091 156.763C129.004 156.714 128.902 156.703 128.807 156.733C126.286 157.673 124.78 156.7 124.717 156.658C124.631 156.604 124.529 156.588 124.432 156.614C124.336 156.64 124.252 156.705 124.199 156.796C124.147 156.887 124.129 156.996 124.149 157.102C124.17 157.207 124.227 157.299 124.309 157.359C125.374 157.957 126.596 158.138 127.77 157.871V157.871Z" fill="#0C0C0C"/>
<path d="M136.632 131.621C137.664 131.621 138.501 130.717 138.501 129.601C138.501 128.485 137.664 127.581 136.632 127.581C135.599 127.581 134.762 128.485 134.762 129.601C134.762 130.717 135.599 131.621 136.632 131.621Z" fill="#0C0C0C"/>
<path d="M118.862 136.152C119.894 136.152 120.731 135.248 120.731 134.132C120.731 133.016 119.894 132.111 118.862 132.111C117.83 132.111 116.993 133.016 116.993 134.132C116.993 135.248 117.83 136.152 118.862 136.152Z" fill="#0C0C0C"/>
<path d="M95.9249 156.158C91.4456 157.337 86.6437 153.111 85.5524 148.267C84.4611 143.424 87.4925 139.796 91.9736 138.616L95.015 141.255L99.7789 155.144L95.9249 156.158Z" fill="#E98862"/>
<path d="M98.7346 147.239C98.7346 147.239 95.139 122.837 101.562 119.678C105.84 117.575 118.19 121.749 127.829 117.163C132.046 115.158 136.485 115.296 137.39 117.442C137.749 118.292 137.769 104.795 128.793 96.787C121.645 90.4119 103.184 92.7008 95.538 97.276C74.3633 109.943 91.2741 139.905 91.2741 139.905L94.0481 147.936L98.7346 147.239Z" fill="#0C0C0C"/>
<g opacity="0.52">
<path d="M128.577 147.673L128.606 147.667C130.051 147.291 132.436 146.486 132.177 145.319C131.961 144.351 127.182 134.539 126.637 133.423C126.589 133.33 126.509 133.261 126.414 133.231C126.32 133.201 126.218 133.212 126.13 133.261C126.043 133.311 125.977 133.396 125.947 133.497C125.916 133.599 125.924 133.709 125.968 133.805C128.088 138.15 131.294 144.853 131.442 145.511C131.362 145.824 129.927 146.484 128.431 146.873C128.336 146.898 128.254 146.962 128.202 147.051C128.15 147.14 128.131 147.247 128.15 147.35C128.169 147.454 128.224 147.545 128.304 147.606C128.384 147.666 128.482 147.691 128.579 147.675L128.577 147.673Z" fill="#0C0C0C"/>
</g>
<path d="M130.779 126.148C131.806 125.297 133.022 124.753 134.305 124.571C134.957 124.473 135.619 124.482 136.269 124.599C136.931 124.714 137.578 124.919 138.193 125.208L138.241 125.229C138.398 125.297 138.574 125.297 138.731 125.228C138.888 125.16 139.014 125.028 139.083 124.861C139.152 124.693 139.158 124.504 139.1 124.332C139.042 124.159 138.925 124.018 138.773 123.938C138.072 123.537 137.327 123.234 136.556 123.035C135.772 122.83 134.963 122.754 134.158 122.808C133.35 122.853 132.552 123.018 131.785 123.297C130.994 123.576 130.244 123.976 129.557 124.484C129.342 124.644 129.194 124.889 129.146 125.167C129.099 125.444 129.155 125.731 129.302 125.963C129.45 126.196 129.677 126.355 129.934 126.407C130.191 126.459 130.456 126.398 130.671 126.238C130.691 126.223 130.711 126.207 130.731 126.189L130.779 126.148Z" fill="#0C0C0C"/>
<path d="M119.695 126.88C118.876 126.721 118.04 126.689 117.213 126.785C116.407 126.869 115.617 127.072 114.863 127.389C114.108 127.697 113.401 128.124 112.764 128.659C112.135 129.181 111.57 129.788 111.082 130.464C110.974 130.605 110.921 130.785 110.933 130.968C110.946 131.15 111.023 131.32 111.149 131.442C111.274 131.564 111.439 131.629 111.608 131.623C111.777 131.617 111.937 131.54 112.055 131.409L112.093 131.366C112.544 130.83 113.056 130.357 113.617 129.958C114.165 129.564 114.766 129.262 115.398 129.063C116.637 128.66 117.952 128.617 119.211 128.939L119.27 128.955C119.522 129.027 119.79 128.988 120.016 128.846C120.241 128.703 120.405 128.47 120.472 128.197C120.538 127.924 120.502 127.634 120.37 127.391C120.239 127.147 120.023 126.97 119.77 126.898C119.746 126.891 119.719 126.888 119.695 126.88Z" fill="#0C0C0C"/>
<path d="M122.851 107.038C126.017 105.459 126.842 100.095 124.692 95.0569C122.543 90.0185 118.233 87.2138 115.067 88.7924C111.9 90.371 111.075 95.735 113.225 100.773C115.375 105.812 119.684 108.616 122.851 107.038Z" fill="#0C0C0C"/>
<path d="M168.271 193.344C162.221 189.47 139.857 187.358 135.527 187.358C135.395 187.358 137.178 207.718 110.465 206.358C90.838 205.356 90.0145 187.358 90.0145 187.358C90.0145 187.358 80.2958 188.037 73.8303 188.981C63.2474 190.532 53.4247 197.252 47.475 208.437C41.5117 219.646 43.3124 227.134 45.7285 250.619C47.932 272.031 50.4883 316.463 51.5516 335.938C52.8003 336.99 54.0702 338.022 55.3612 339.034C56.1539 339.655 56.9549 340.268 57.7642 340.873C57.823 340.917 57.8809 340.962 57.9402 341.006C58.7353 341.599 59.5381 342.184 60.3486 342.759C60.388 342.787 60.426 342.816 60.4649 342.844C73.8407 352.335 89.2295 359.381 105.825 360.524C132.507 362.368 150.514 352.469 170.019 344.883C169.979 343.558 169.956 342.849 169.956 342.849L169.809 342.844H170.132C170.988 328.891 173.942 258.215 174.838 246.888C176.731 222.879 184.753 203.898 168.271 193.344Z" fill="#367CFF"/>
<path d="M269.922 224.924L214.593 272.721L176.768 202.841L139.451 226.442L189.9 319.637L190.28 320.348C191.874 323.251 194.045 325.735 196.636 327.621C199.226 329.506 202.171 330.747 205.259 331.254C208.347 331.76 211.501 331.52 214.492 330.549C217.483 329.579 220.238 327.902 222.558 325.642L293.361 257.432L269.922 224.924Z" fill="#367CFF"/>
<path d="M173.745 270.789H173.732C173.68 270.787 173.629 270.775 173.582 270.752C173.535 270.729 173.492 270.696 173.457 270.655C173.421 270.614 173.394 270.566 173.376 270.513C173.358 270.461 173.35 270.405 173.352 270.349L174.138 244.342C174.143 244.23 174.189 244.125 174.265 244.048C174.341 243.972 174.441 243.93 174.545 243.931C174.596 243.933 174.647 243.946 174.695 243.969C174.742 243.992 174.784 244.025 174.819 244.066C174.855 244.107 174.882 244.155 174.9 244.207C174.918 244.26 174.927 244.315 174.925 244.371L174.139 270.378C174.135 270.489 174.092 270.593 174.019 270.67C173.945 270.747 173.847 270.789 173.745 270.789V270.789Z" fill="#0C0C0C"/>
<path d="M97.4863 329.804C93.3137 329.805 89.2318 328.487 85.7437 326.012C82.2556 323.537 79.5137 320.012 77.8558 315.873L77.4106 314.748L48.5573 249.871C48.5146 249.77 48.5103 249.655 48.5454 249.55C48.5804 249.446 48.6519 249.36 48.7447 249.312C48.8374 249.264 48.9439 249.257 49.0413 249.293C49.1387 249.328 49.2193 249.404 49.2658 249.503L78.1259 314.398L78.5784 315.541C80.6572 320.727 84.4832 324.864 89.2801 327.113C94.077 329.362 99.4857 329.555 104.409 327.652L187.409 295.46L175.761 256.976L111.036 277.694C110.944 277.723 110.845 277.715 110.759 277.671C110.672 277.627 110.603 277.551 110.564 277.456L92.4813 232.591C92.4422 232.488 92.442 232.373 92.4806 232.27C92.5193 232.167 92.5937 232.084 92.688 232.04C92.7822 231.995 92.8889 231.993 92.985 232.032C93.0811 232.072 93.159 232.15 93.202 232.251L111.144 276.772L175.902 256.042C176 256.011 176.106 256.022 176.197 256.073C176.287 256.125 176.356 256.212 176.388 256.318L188.273 295.587C188.305 295.692 188.298 295.806 188.253 295.906C188.208 296.005 188.129 296.082 188.033 296.119L104.675 328.45C102.369 329.346 99.9368 329.804 97.4863 329.804Z" fill="#0C0C0C"/>
<path d="M99.7775 281.477C99.6827 281.478 99.5906 281.443 99.5182 281.376C99.4459 281.31 99.3982 281.218 99.3839 281.116C99.3696 281.015 99.3897 280.912 99.4405 280.825C99.4913 280.738 99.5694 280.675 99.6603 280.645L110.807 276.88C110.905 276.85 111.01 276.863 111.1 276.916C111.189 276.969 111.256 277.057 111.287 277.163C111.317 277.268 111.309 277.382 111.263 277.48C111.217 277.579 111.138 277.654 111.041 277.69L99.8942 281.456C99.8565 281.47 99.8172 281.477 99.7775 281.477V281.477Z" fill="#0C0C0C"/>
<path d="M176.016 256.45L110.924 277.284L88.7087 213.896L45.3666 232.791L77.7702 314.58L78.2155 315.704C80.3292 320.994 84.2278 325.215 89.1181 327.508C94.0084 329.801 99.5231 329.994 104.54 328.048L187.903 295.719L176.016 256.45Z" fill="#367CFF"/>
<path d="M214.16 0C183.938 0 159.352 25.0113 159.352 55.7561C159.352 83.9919 180.092 107.391 206.889 111.02V109.328C181.006 105.709 160.997 83.0673 160.997 55.7561C160.997 25.9359 184.847 1.67268 214.16 1.67268C243.473 1.67268 267.323 25.9359 267.323 55.7561C267.323 83.0673 247.318 105.709 221.431 109.328V111.02C248.227 107.391 268.967 83.9919 268.967 55.7561C268.967 25.0113 244.382 0 214.16 0ZM214.16 7.8802C188.341 7.8802 167.341 29.2441 167.341 55.5052C167.341 79.2573 184.514 99.0043 206.893 102.568V100.867C185.427 97.3223 168.985 78.3327 168.985 55.5098C168.985 30.1687 189.25 9.55752 214.16 9.55752C239.07 9.55752 259.335 30.1687 259.335 55.5098C259.335 78.3327 242.893 97.3223 221.426 100.867V102.568C243.806 99.0043 260.979 79.2573 260.979 55.5098C260.979 29.2441 239.979 7.88484 214.16 7.88484V7.8802ZM214.16 15.9462C192.716 15.9462 175.269 33.6953 175.269 55.5098C175.269 74.7968 188.907 90.9057 206.889 94.3765V92.6713C189.821 89.2237 176.914 73.8722 176.914 55.5098C176.914 34.6199 193.625 17.6189 214.16 17.6189C234.694 17.6189 251.402 34.6199 251.402 55.5098C251.402 73.8722 238.499 89.2237 221.431 92.6713V94.3765C239.412 90.9057 253.05 74.7968 253.05 55.5098C253.05 33.6953 235.603 15.9462 214.16 15.9462ZM214.16 23.9612C205.938 23.971 198.056 27.298 192.242 33.2124C186.428 39.1268 183.158 47.1456 183.148 55.5098C183.148 70.3596 193.287 82.8443 206.889 86.185V84.4565C194.201 81.1576 184.792 69.4303 184.792 55.5098C184.801 47.5889 187.897 39.9948 193.403 34.3938C198.909 28.7929 206.374 25.6425 214.16 25.6339C221.946 25.6425 229.411 28.7929 234.917 34.3938C240.422 39.9948 243.519 47.5889 243.528 55.5098C243.528 69.4303 234.119 81.1576 221.431 84.4565V86.185C235.037 82.8443 245.172 70.3596 245.172 55.5098C245.162 47.1456 241.892 39.1268 236.078 33.2124C230.264 27.298 222.382 23.971 214.16 23.9612ZM214.16 32.0876C208.056 32.095 202.204 34.5651 197.888 38.956C193.571 43.3469 191.143 49.3002 191.136 55.5098C191.144 60.4258 192.669 65.2151 195.496 69.2018C198.323 73.1885 202.31 76.1711 206.893 77.7286V75.963C202.762 74.4394 199.191 71.6594 196.665 68.0005C194.14 64.3415 192.782 59.9807 192.776 55.5098C192.776 43.5223 202.367 33.765 214.155 33.765C225.943 33.765 235.53 43.5223 235.53 55.5098C235.525 59.9791 234.17 64.3386 231.647 67.9974C229.124 71.6562 225.556 74.4371 221.426 75.963V77.7286C226.011 76.1719 229.998 73.1896 232.827 69.2029C235.655 65.2161 237.18 60.4263 237.188 55.5098C237.18 49.3002 234.751 43.3474 230.433 38.9574C226.116 34.5673 220.264 32.0984 214.16 32.0923V32.0876ZM214.16 40.1583C210.159 40.1632 206.324 41.7822 203.495 44.6601C200.666 47.538 199.074 51.4399 199.07 55.5098C199.07 61.2945 202.23 66.3358 206.889 68.9564V67.0049C204.446 65.4069 202.579 63.0473 201.565 60.2793C200.551 57.5112 200.445 54.4835 201.263 51.6493C202.082 48.815 203.781 46.3267 206.106 44.5566C208.43 42.7865 211.256 41.8299 214.16 41.8299C217.064 41.8299 219.889 42.7865 222.214 44.5566C224.539 46.3267 226.238 48.815 227.056 51.6493C227.875 54.4835 227.769 57.5112 226.755 60.2793C225.741 63.0473 223.873 65.4069 221.431 67.0049V68.9564C223.797 67.6314 225.771 65.685 227.147 63.3199C228.522 60.9548 229.248 58.2578 229.25 55.5098C229.245 51.4399 227.654 47.538 224.825 44.6601C221.996 41.7822 218.161 40.1632 214.16 40.1583ZM214.16 48.1129C212.231 48.1129 210.382 48.8922 209.018 50.2794C207.655 51.6666 206.889 53.548 206.889 55.5098C206.889 57.4716 207.655 59.3531 209.018 60.7403C210.382 62.1275 212.231 62.9068 214.16 62.9068C216.088 62.9068 217.938 62.1275 219.301 60.7403C220.665 59.3531 221.431 57.4716 221.431 55.5098C221.431 53.548 220.665 51.6666 219.301 50.2794C217.938 48.8922 216.088 48.1129 214.16 48.1129Z" fill="#367CFF"/>
<path d="M30 75C13.4575 75 0 88.7425 0 105.635C0 121.15 11.3525 134.006 26.02 136V135.071C11.8525 133.082 0.9 120.641 0.9 105.635C0.9 89.2505 13.955 75.9191 30 75.9191C46.045 75.9191 59.1 89.2505 59.1 105.635C59.1 120.641 48.15 133.082 33.98 135.071V136C48.6475 134.006 60 121.15 60 105.635C60 88.7425 46.5425 75 30 75ZM30 79.3298C15.8675 79.3298 4.3725 91.0682 4.3725 105.497C4.3725 118.548 13.7725 129.398 26.0225 131.356V130.422C14.2725 128.474 5.2725 118.04 5.2725 105.5C5.2725 91.5763 16.365 80.2514 30 80.2514C43.635 80.2514 54.7275 91.5763 54.7275 105.5C54.7275 118.04 45.7275 128.474 33.9775 130.422V131.356C46.2275 129.398 55.6275 118.548 55.6275 105.5C55.6275 91.0682 44.1325 79.3323 30 79.3323V79.3298ZM30 83.7617C18.2625 83.7617 8.7125 93.5139 8.7125 105.5C8.7125 116.097 16.1775 124.948 26.02 126.855V125.918C16.6775 124.024 9.6125 115.589 9.6125 105.5C9.6125 94.022 18.76 84.6808 30 84.6808C41.24 84.6808 50.385 94.022 50.385 105.5C50.385 115.589 43.3225 124.024 33.98 125.918V126.855C43.8225 124.948 51.2875 116.097 51.2875 105.5C51.2875 93.5139 41.7375 83.7617 30 83.7617ZM30 88.1655C25.4996 88.1709 21.185 89.999 18.0027 93.2486C14.8204 96.4983 13.0303 100.904 13.025 105.5C13.025 113.659 18.575 120.519 26.02 122.355V121.405C19.075 119.592 13.925 113.149 13.925 105.5C13.9296 101.148 15.6247 96.9752 18.6384 93.8978C21.652 90.8203 25.7381 89.0893 30 89.0846C34.2619 89.0893 38.348 90.8203 41.3616 93.8978C44.3753 96.9752 46.0704 101.148 46.075 105.5C46.075 113.149 40.925 119.592 33.98 121.405V122.355C41.4275 120.519 46.975 113.659 46.975 105.5C46.9697 100.904 45.1796 96.4983 41.9973 93.2486C38.815 89.999 34.5004 88.1709 30 88.1655ZM30 92.6306C26.6588 92.6347 23.4556 93.9918 21.0931 96.4044C18.7305 98.817 17.4015 102.088 17.3975 105.5C17.4016 108.201 18.2364 110.833 19.7839 113.023C21.3315 115.214 23.5137 116.852 26.0225 117.708V116.738C23.7609 115.901 21.8063 114.373 20.4239 112.363C19.0415 110.353 18.2982 107.957 18.295 105.5C18.295 98.9134 23.545 93.5522 29.9975 93.5522C36.45 93.5522 41.6975 98.9134 41.6975 105.5C41.6948 107.956 40.9527 110.351 39.5717 112.361C38.1907 114.372 36.2377 115.9 33.9775 116.738V117.708C36.4868 116.853 38.6695 115.214 40.2176 113.024C41.7656 110.833 42.6007 108.201 42.605 105.5C42.6004 102.088 41.2707 98.8173 38.9077 96.4052C36.5446 93.9931 33.3412 92.6365 30 92.6332V92.6306ZM30 97.0651C27.8101 97.0678 25.7107 97.9573 24.1622 99.5386C22.6137 101.12 21.7426 103.264 21.74 105.5C21.74 108.678 23.47 111.448 26.02 112.888V111.816C24.6832 110.938 23.6607 109.641 23.1057 108.121C22.5506 106.6 22.4928 104.936 22.9409 103.379C23.389 101.822 24.3188 100.454 25.5913 99.4817C26.8639 98.5092 28.4106 97.9835 30 97.9835C31.5894 97.9835 33.1362 98.5092 34.4087 99.4817C35.6812 100.454 36.611 101.822 37.0591 103.379C37.5072 104.936 37.4494 106.6 36.8943 108.121C36.3393 109.641 35.3168 110.938 33.98 111.816V112.888C35.2753 112.16 36.3557 111.091 37.1085 109.791C37.8613 108.492 38.259 107.01 38.26 105.5C38.2574 103.264 37.3863 101.12 35.8378 99.5386C34.2893 97.9573 32.1899 97.0678 30 97.0651ZM30 101.436C28.9444 101.436 27.9321 101.864 27.1857 102.626C26.4393 103.388 26.02 104.422 26.02 105.5C26.02 106.578 26.4393 107.612 27.1857 108.374C27.9321 109.136 28.9444 109.564 30 109.564C31.0556 109.564 32.0679 109.136 32.8143 108.374C33.5607 107.612 33.98 106.578 33.98 105.5C33.98 104.422 33.5607 103.388 32.8143 102.626C32.0679 101.864 31.0556 101.436 30 101.436Z" fill="#367CFF"/>
<path d="M84 46C72.9717 46 64 55.2368 64 66.5909C64 77.0185 71.5683 85.6599 81.3467 87V86.3754C71.9017 85.0387 64.6 76.6771 64.6 66.5909C64.6 55.5782 73.3033 46.6177 84 46.6177C94.6967 46.6177 103.4 55.5782 103.4 66.5909C103.4 76.6771 96.1 85.0387 86.6533 86.3754V87C96.4317 85.6599 104 77.0185 104 66.5909C104 55.2368 95.0283 46 84 46ZM84 48.9102C74.5783 48.9102 66.915 56.7999 66.915 66.4983C66.915 75.27 73.1817 82.5627 81.3483 83.8788V83.2507C73.515 81.9415 67.515 74.9286 67.515 66.5C67.515 57.1414 74.91 49.5296 84 49.5296C93.09 49.5296 100.485 57.1414 100.485 66.5C100.485 74.9286 94.485 81.9415 86.6517 83.2507V83.8788C94.8183 82.5627 101.085 75.27 101.085 66.5C101.085 56.7999 93.4217 48.9119 84 48.9119V48.9102ZM84 51.889C76.175 51.889 69.8083 58.4438 69.8083 66.5C69.8083 73.6227 74.785 79.5718 81.3467 80.8536V80.2239C75.1183 78.9507 70.4083 73.2813 70.4083 66.5C70.4083 58.7853 76.5067 52.5067 84 52.5067C91.4933 52.5067 97.59 58.7853 97.59 66.5C97.59 73.2813 92.8817 78.9507 86.6533 80.2239V80.8536C93.215 79.5718 98.1917 73.6227 98.1917 66.5C98.1917 58.4438 91.825 51.889 84 51.889ZM84 54.849C80.9997 54.8526 78.1233 56.0813 76.0018 58.2655C73.8803 60.4497 72.6869 63.4111 72.6833 66.5C72.6833 71.9841 76.3833 76.5947 81.3467 77.8284V77.1901C76.7167 75.9718 73.2833 71.6409 73.2833 66.5C73.2864 63.5748 74.4165 60.7702 76.4256 58.7018C78.4347 56.6333 81.1587 55.4699 84 55.4667C86.8413 55.4699 89.5653 56.6333 91.5744 58.7018C93.5835 60.7702 94.7136 63.5748 94.7167 66.5C94.7167 71.6409 91.2833 75.9718 86.6533 77.1901V77.8284C91.6183 76.5947 95.3167 71.9841 95.3167 66.5C95.3131 63.4111 94.1197 60.4497 91.9982 58.2655C89.8767 56.0813 87.0003 54.8526 84 54.849ZM84 57.8501C81.7726 57.8528 79.6371 58.765 78.062 60.3866C76.487 62.0082 75.601 64.2067 75.5983 66.5C75.6011 68.3155 76.1576 70.0842 77.1893 71.5565C78.221 73.0288 79.6758 74.1303 81.3483 74.7055V74.0534C79.8406 73.4907 78.5375 72.4641 77.6159 71.1128C76.6943 69.7616 76.1988 68.1511 76.1967 66.5C76.1967 62.0729 79.6967 58.4695 83.9983 58.4695C88.3 58.4695 91.7983 62.0729 91.7983 66.5C91.7966 68.1505 91.3018 69.7605 90.3811 71.1117C89.4605 72.4629 88.1585 73.4899 86.6517 74.0534V74.7055C88.3245 74.1306 89.7797 73.0292 90.8117 71.5569C91.8437 70.0846 92.4005 68.3157 92.4033 66.5C92.4002 64.2067 91.5138 62.0084 89.9384 60.3871C88.3631 58.7658 86.2274 57.8541 84 57.8518V57.8501ZM84 60.8306C82.5401 60.8324 81.1405 61.4303 80.1081 62.4932C79.0758 63.556 78.4951 64.9969 78.4933 66.5C78.4933 68.6363 79.6467 70.4981 81.3467 71.4658V70.7452C80.4555 70.155 79.7738 69.2836 79.4038 68.2614C79.0338 67.2391 78.9952 66.121 79.2939 65.0743C79.5927 64.0276 80.2126 63.1086 81.0609 62.4549C81.9092 61.8012 82.9404 61.448 84 61.448C85.0596 61.448 86.0908 61.8012 86.9391 62.4549C87.7874 63.1086 88.4073 64.0276 88.7061 65.0743C89.0048 66.121 88.9662 67.2391 88.5962 68.2614C88.2262 69.2836 87.5445 70.155 86.6533 70.7452V71.4658C87.5169 70.9765 88.2371 70.2577 88.739 69.3843C89.2409 68.5109 89.506 67.5148 89.5067 66.5C89.5049 64.9969 88.9242 63.556 87.8919 62.4932C86.8595 61.4303 85.4599 60.8324 84 60.8306ZM84 63.7683C83.2963 63.7683 82.6214 64.0561 82.1238 64.5684C81.6262 65.0807 81.3467 65.7755 81.3467 66.5C81.3467 67.2245 81.6262 67.9193 82.1238 68.4316C82.6214 68.9439 83.2963 69.2317 84 69.2317C84.7037 69.2317 85.3786 68.9439 85.8762 68.4316C86.3738 67.9193 86.6533 67.2245 86.6533 66.5C86.6533 65.7755 86.3738 65.0807 85.8762 64.5684C85.3786 64.0561 84.7037 63.7683 84 63.7683Z" fill="#367CFF"/>
<path d="M244.261 252.668L219.133 254.435L222.299 253.001C223.313 252.52 224.126 251.726 224.572 250.78C225.018 249.834 225.065 248.805 224.704 247.903C224.498 247.445 224.187 247.039 223.789 246.71C223.39 246.381 222.913 246.136 222.387 245.99C221.861 245.844 221.296 245.8 220.727 245.861C220.158 245.921 219.597 246.085 219.078 246.342L180.534 265.314L185.732 276.064C187.347 279.402 190.083 282.126 193.59 283.885C197.098 285.644 201.217 286.358 205.419 285.937L224.453 283.996C225.442 283.913 226.404 283.525 227.175 282.897C227.946 282.27 228.479 281.442 228.684 280.553C228.851 279.749 228.732 278.944 228.346 278.256C227.961 277.567 227.327 277.031 226.539 276.725C226.579 276.671 226.604 276.61 226.61 276.548C226.612 276.491 226.598 276.435 226.57 276.386C226.542 276.338 226.5 276.297 226.448 276.268L229.956 275.917C231.058 275.827 232.124 275.363 232.937 274.62C233.75 273.878 234.251 272.911 234.337 271.915C234.379 271.027 234.073 270.185 233.472 269.538C232.87 268.891 232.013 268.48 231.05 268.379C231.081 268.347 231.105 268.311 231.122 268.273L232.565 268.128C233.556 268.046 234.52 267.659 235.293 267.031C236.066 266.403 236.6 265.574 236.806 264.684C237.007 263.709 236.789 262.739 236.197 261.978C235.605 261.217 234.685 260.724 233.63 260.602C233.628 260.576 233.624 260.551 233.615 260.527L244.08 259.791C244.599 259.754 245.115 259.626 245.599 259.413C246.083 259.201 246.526 258.908 246.901 258.552C247.659 257.832 248.099 256.898 248.123 255.954C248.148 255.01 247.755 254.135 247.032 253.519C246.308 252.904 245.313 252.6 244.265 252.674L244.261 252.668Z" fill="#E98862"/>
<path d="M202.553 320.369L233.044 205.066C233.58 203.04 234.623 201.275 236.024 200.023C237.425 198.771 239.113 198.096 240.845 198.096H365.067C366.362 198.096 367.638 198.473 368.792 199.197C369.946 199.92 370.944 200.969 371.705 202.258C372.466 203.547 372.968 205.039 373.17 206.612C373.372 208.186 373.269 209.796 372.868 211.31L342.377 326.614C341.842 328.64 340.798 330.406 339.397 331.658C337.996 332.91 336.308 333.584 334.576 333.584H210.354C209.059 333.584 207.783 333.207 206.629 332.483C205.475 331.76 204.477 330.711 203.716 329.422C202.955 328.133 202.453 326.641 202.251 325.067C202.049 323.494 202.152 321.884 202.553 320.369Z" fill="#AFAFAF"/>
<path d="M144.272 324.235H227.425C229.497 324.235 231.177 326.301 231.177 328.85V328.968C231.177 331.518 229.497 333.584 227.425 333.584H144.272C142.2 333.584 140.52 331.518 140.52 328.968V328.85C140.52 326.301 142.2 324.235 144.272 324.235Z" fill="#AFAFAF"/>
<path d="M289.58 285.193C282.384 285.193 276.551 278.017 276.551 269.165C276.551 260.313 282.384 253.137 289.58 253.137C296.775 253.137 302.609 260.313 302.609 269.165C302.609 278.017 296.775 285.193 289.58 285.193Z" fill="white"/>
</svg>
