<svg width="449" height="373" viewBox="0 0 449 373" fill="none" xmlns="http://www.w3.org/2000/svg">
<path opacity="0.3" d="M18.5975 344.994C15.3783 341.333 14.6132 335.911 17.0828 331.382C20.2416 325.588 27.4999 323.452 33.294 326.611C39.0881 329.771 41.224 337.028 38.0641 342.823C35.2137 348.051 29.0255 350.301 23.587 348.368M40.752 323.548L43.62 315.567L36.9863 311.948L31.8287 318.683C30.3295 318.336 28.8137 318.171 27.3067 318.195L23.6924 310.528L16.4429 312.661L17.5569 321.064C16.2783 321.86 15.0929 322.82 14.0206 323.923L6.03788 321.055L2.42026 327.69L9.155 332.847C8.80816 334.346 8.64353 335.862 8.66658 337.369L1 340.984L3.13259 348.232L11.5356 347.117C12.3325 348.397 13.2918 349.582 14.3959 350.654L11.528 358.637L18.1628 362.255L23.3203 355.52C24.8196 355.867 26.3365 356.031 27.8423 356.008L31.4567 363.675L38.7062 361.542L37.591 353.139C38.8697 352.342 40.0551 351.383 41.1274 350.28L49.1101 353.148L52.7277 346.513L45.993 341.356C46.3398 339.857 46.5044 338.341 46.4814 336.835L54.1491 333.22L52.0165 325.971L43.6134 327.086C43.4181 326.772 43.2117 326.464 42.9966 326.16L40.752 323.548Z" stroke="#367CFF" stroke-miterlimit="10" stroke-linecap="round" stroke-linejoin="round"/>
<path opacity="0.3" d="M27.9838 297.393C26.0027 297.996 23.79 297.833 21.8286 296.764C17.952 294.649 16.5229 289.793 18.6369 285.916C20.7508 282.038 25.6076 280.609 29.4853 282.723C33.3631 284.838 34.791 289.695 32.6771 293.571C32.4488 293.993 32.1864 294.384 31.8978 294.745M14.9172 304.157L19.3569 306.577L22.8088 302.071C23.8119 302.303 24.8261 302.414 25.8348 302.398L28.2538 307.529L33.1051 306.101L32.3588 300.479C33.2149 299.945 34.0073 299.303 34.7251 298.564L40.0681 300.484L42.4894 296.044L37.9827 292.591C38.2143 291.588 38.3252 290.574 38.3098 289.565L43.441 287.147L42.0142 282.295L36.3902 283.041C35.8567 282.186 35.2147 281.393 34.476 280.675L36.3957 275.333L31.956 272.912L28.5052 277.418C27.5009 277.186 26.4867 277.076 25.4792 277.091L23.0601 271.96L18.2088 273.388L18.9552 279.011C18.099 279.544 17.3066 280.187 16.5888 280.925L11.2469 279.006L8.82562 283.445L13.3323 286.897C13.0996 287.901 12.9898 288.916 13.0052 289.924L7.87402 292.342L9.30197 297.195L14.9249 296.448C15.4583 297.303 16.1004 298.097 16.839 298.815L14.9172 304.157Z" stroke="#367CFF" stroke-miterlimit="10" stroke-linecap="round" stroke-linejoin="round"/>
<path opacity="0.3" d="M272.361 59.8873C269.749 56.9169 269.129 52.5173 271.132 48.8434C273.695 44.1429 279.583 42.411 284.284 44.9736C288.984 47.5363 290.717 53.4246 288.154 58.1252C285.84 62.3663 280.821 64.1916 276.41 62.6245M290.334 42.4893L292.66 36.0133L287.277 33.0785L283.094 38.5421C281.878 38.2607 280.647 38.1272 279.426 38.1459L276.493 31.9263L270.612 33.6564L271.517 40.4734C270.48 41.1199 269.518 41.8981 268.648 42.793L262.172 40.4663L259.237 45.848L264.701 50.0321C264.419 51.2484 264.286 52.4781 264.304 53.7007L258.084 56.6328L259.815 62.5141L266.631 61.6103C267.278 62.6476 268.057 63.6093 268.951 64.4792L266.625 70.9553L272.008 73.8901L276.191 68.4265C277.407 68.7078 278.637 68.8414 279.859 68.8227L282.791 75.0423L288.672 73.3122L287.768 66.4951C288.805 65.8487 289.767 65.0705 290.637 64.1747L297.113 66.5014L300.048 61.1188L294.584 56.9347C294.866 55.7184 294.999 54.4878 294.98 53.2661L301.201 50.334L299.47 44.4527L292.654 45.3574C292.494 45.1018 292.328 44.8516 292.152 44.6059L290.334 42.4893Z" stroke="#367CFF" stroke-miterlimit="10" stroke-linecap="round" stroke-linejoin="round"/>
<path opacity="0.3" d="M279.974 21.2714C278.367 21.7602 276.572 21.6284 274.981 20.7603C271.835 19.0453 270.676 15.1043 272.391 11.9593C274.107 8.81346 278.047 7.65503 281.193 9.36998C284.338 11.0849 285.497 15.0251 283.782 18.1709C283.596 18.5119 283.384 18.8298 283.149 19.1228M269.373 26.7573L272.975 28.7215L275.776 25.0655C276.59 25.2533 277.413 25.3433 278.231 25.3308L280.193 29.4935L284.129 28.3351L283.524 23.7726C284.218 23.3407 284.861 22.8198 285.444 22.2197L289.777 23.777L291.742 20.1753L288.086 17.3749C288.274 16.561 288.363 15.7383 288.351 14.92L292.514 12.9575L291.355 9.02183L286.794 9.62731C286.362 8.93278 285.84 8.28989 285.241 7.70667L286.798 3.37299L283.196 1.40871L280.396 5.06479C279.582 4.87691 278.758 4.78697 277.94 4.79944L275.978 0.636719L272.043 1.79515L272.648 6.35679C271.954 6.78953 271.31 7.31043 270.728 7.90969L266.394 6.35234L264.431 9.9541L268.086 12.7545C267.898 13.5683 267.808 14.3911 267.82 15.2094L263.658 17.1719L264.816 21.1075L269.378 20.502C269.811 21.1966 270.331 21.8395 270.931 22.4218L269.373 26.7573Z" stroke="#367CFF" stroke-miterlimit="10" stroke-linecap="round" stroke-linejoin="round"/>
<g opacity="0.3">
<path d="M369.627 56.0798C371.714 56.0798 373.405 54.3886 373.405 52.3024C373.405 50.2162 371.714 48.525 369.627 48.525C367.541 48.525 365.85 50.2162 365.85 52.3024C365.85 54.3886 367.541 56.0798 369.627 56.0798Z" stroke="#367CFF" stroke-miterlimit="10" stroke-linecap="round" stroke-linejoin="round"/>
<path d="M38.1709 120.293C40.2571 120.293 41.9483 118.602 41.9483 116.516C41.9483 114.43 40.2571 112.739 38.1709 112.739C36.0848 112.739 34.3936 114.43 34.3936 116.516C34.3936 118.602 36.0848 120.293 38.1709 120.293Z" stroke="#367CFF" stroke-miterlimit="10" stroke-linecap="round" stroke-linejoin="round"/>
<path d="M322.412 315.768C324.498 315.768 326.189 314.076 326.189 311.99C326.189 309.904 324.498 308.213 322.412 308.213C320.325 308.213 318.634 309.904 318.634 311.99C318.634 314.076 320.325 315.768 322.412 315.768Z" stroke="#367CFF" stroke-miterlimit="10" stroke-linecap="round" stroke-linejoin="round"/>
<path d="M44.7813 284.605C46.8675 284.605 48.5587 282.914 48.5587 280.828C48.5587 278.741 46.8675 277.05 44.7813 277.05C42.6951 277.05 41.0039 278.741 41.0039 280.828C41.0039 282.914 42.6951 284.605 44.7813 284.605Z" stroke="#367CFF" stroke-miterlimit="10" stroke-linecap="round" stroke-linejoin="round"/>
<path d="M300.921 118.175L292.908 126.188" stroke="#367CFF" stroke-miterlimit="10" stroke-linecap="round" stroke-linejoin="round"/>
<path d="M300.921 126.188L292.908 118.175" stroke="#367CFF" stroke-miterlimit="10" stroke-linecap="round" stroke-linejoin="round"/>
<path d="M272.134 348.59L280.145 356.602" stroke="#367CFF" stroke-miterlimit="10" stroke-linecap="round" stroke-linejoin="round"/>
<path d="M280.145 348.59L272.134 356.602" stroke="#367CFF" stroke-miterlimit="10" stroke-linecap="round" stroke-linejoin="round"/>
<path d="M20 168.225L28.0126 176.237" stroke="#367CFF" stroke-miterlimit="10" stroke-linecap="round" stroke-linejoin="round"/>
<path d="M28.0126 168.225L20 176.237" stroke="#367CFF" stroke-miterlimit="10" stroke-linecap="round" stroke-linejoin="round"/>
<path d="M315.573 3.2489L323.585 11.2615" stroke="#367CFF" stroke-miterlimit="10" stroke-linecap="round" stroke-linejoin="round"/>
<path d="M323.585 3.2489L315.573 11.2615" stroke="#367CFF" stroke-miterlimit="10" stroke-linecap="round" stroke-linejoin="round"/>
<path d="M121.042 9.85925L129.055 17.8719" stroke="#367CFF" stroke-miterlimit="10" stroke-linecap="round" stroke-linejoin="round"/>
<path d="M129.055 9.85925L121.042 17.8719" stroke="#367CFF" stroke-miterlimit="10" stroke-linecap="round" stroke-linejoin="round"/>
</g>
<path d="M41.104 364.663H431.285" stroke="#263238" stroke-miterlimit="10" stroke-linecap="round" stroke-linejoin="round"/>
<path d="M76.2856 54.6132V341.494C76.2856 351.574 84.4579 359.748 94.5393 359.748H224.813C234.894 359.748 243.066 351.574 243.066 341.494V54.6132C243.066 44.5318 234.894 36.3595 224.813 36.3595H94.5393C84.4579 36.3595 76.2856 44.5318 76.2856 54.6132Z" fill="white"/>
<path d="M243.066 53.7912C243.066 49.6169 241.596 45.7899 239.15 42.7892C230.811 46.8308 218.884 55.4118 203.435 73.3832C170.227 112.012 160.062 205.537 120.754 246.2C103.926 263.609 88.4676 274.305 76.2866 280.852V342.316C76.2866 351.943 84.0912 359.747 93.7184 359.747H215.989C216.789 358.756 217.576 357.732 218.345 356.668C227.52 343.962 235.957 333.305 243.067 324.798V53.7912H243.066Z" fill="#367CFF" fill-opacity="0.16"/>
<path d="M76.2856 53.7913V128.376C89.8592 122.319 106.282 110.81 118.043 88.9701C129.959 66.8413 145.293 48.8192 157.606 36.3595H93.7183C84.0902 36.3595 76.2856 44.1641 76.2856 53.7913Z" fill="#367CFF" fill-opacity="0.16"/>
<path d="M89.1716 43.3573C89.1716 45.3349 86.9509 46.0472 86.9419 47.5556V47.6589H89.0968V48.324H86.2207V47.7622C86.2207 45.6447 88.4414 45.2325 88.4414 43.3858C88.4414 42.7108 88.2161 42.3555 87.673 42.3555C87.1387 42.3555 86.9046 42.7393 86.9046 43.3199V43.9004H86.2207V43.3662C86.2207 42.3635 86.6802 41.6975 87.6917 41.6975C88.713 41.6984 89.1716 42.3555 89.1716 43.3573Z" fill="#263238"/>
<path d="M92.7618 43.3485V43.5168C92.7618 44.1917 92.4902 44.6699 91.9658 44.8667C92.5178 45.0732 92.7618 45.5701 92.7618 46.2254V46.7321C92.7618 47.7347 92.2934 48.3901 91.281 48.3901C90.2784 48.3901 89.8101 47.7347 89.8101 46.7321V46.2824H90.4939V46.7793C90.4939 47.3696 90.737 47.7258 91.2623 47.7258C91.7966 47.7258 92.0308 47.3785 92.0308 46.7134V46.2076C92.0308 45.5612 91.7583 45.2522 91.2053 45.2335H90.8127V44.5773H91.2436C91.7307 44.5586 92.0317 44.2496 92.0317 43.6779V43.3779C92.0317 42.7029 91.7975 42.3575 91.2632 42.3575C90.7388 42.3575 90.4948 42.7225 90.4948 43.3129V43.6495H89.8109V43.3503C89.8109 42.3477 90.2793 41.7003 91.2819 41.7003C92.2934 41.6985 92.7618 42.3459 92.7618 43.3485Z" fill="#263238"/>
<path d="M94.178 43.8444V44.7535H93.4746V43.8444H94.178ZM94.178 47.4149V48.3241H93.4746V47.4149H94.178Z" fill="#263238"/>
<path d="M95.6595 44.4356C95.8652 44.0795 96.1938 43.8925 96.6345 43.8925C97.4778 43.8925 97.8526 44.5104 97.8526 45.448V46.732C97.8526 47.7347 97.3754 48.39 96.3727 48.39C95.3692 48.39 94.9009 47.7347 94.9009 46.732V46.2913H95.5847V46.7783C95.5847 47.3687 95.8278 47.7249 96.3532 47.7249C96.8776 47.7249 97.1216 47.3687 97.1216 46.7783V45.5041C97.1216 44.9138 96.8785 44.5576 96.3532 44.5576C95.9507 44.5576 95.6782 44.7829 95.6123 45.2611V45.4106H94.9285L95.1066 41.7653H97.6924V42.4206H95.7619L95.6595 44.4356Z" fill="#263238"/>
<path d="M101.497 43.3386V43.4606H100.814V43.2923C100.814 42.702 100.571 42.3556 100.036 42.3556C99.4824 42.3556 99.2393 42.7109 99.2393 43.4143V44.8853C99.4174 44.4356 99.7736 44.1827 100.298 44.1827C101.141 44.1827 101.517 44.7918 101.517 45.7383V46.732C101.517 47.7346 101.019 48.39 100.018 48.39C99.0052 48.39 98.5083 47.7346 98.5083 46.732V43.3867C98.5083 42.3467 98.9776 41.6993 100.018 41.6993C101.029 41.6985 101.497 42.3369 101.497 43.3386ZM99.2393 45.7935V46.7774C99.2393 47.3678 99.4824 47.7239 100.018 47.7239C100.542 47.7239 100.795 47.3678 100.795 46.7774V45.7935C100.795 45.2032 100.542 44.847 100.018 44.847C99.4833 44.847 99.2393 45.2032 99.2393 45.7935Z" fill="#263238"/>
<path d="M203.896 43.6272H202.043V48.2574H203.896V43.6272Z" fill="#263238"/>
<path d="M206.365 42.6993H204.513V48.2574H206.365V42.6993Z" fill="#263238"/>
<path d="M208.835 42.0414H206.982V48.2574H208.835V42.0414Z" fill="#263238"/>
<path d="M211.304 40.8954H209.452V48.2574H211.304V40.8954Z" fill="#263238"/>
<path d="M234.223 48.1301H223.111V41.3397H234.223V48.1301ZM223.729 47.513H233.606V41.9568H223.729V47.513Z" fill="#263238"/>
<path d="M230.519 42.6282H224.655V46.8408H230.519V42.6282Z" fill="#263238"/>
<path d="M235.234 43.9353H233.837V45.5354H235.234V43.9353Z" fill="#263238"/>
<path d="M219.036 46.6529C218.964 46.6529 218.89 46.6342 218.824 46.595C216.562 45.2504 215.067 46.4988 215.005 46.5514C214.832 46.7009 214.571 46.6814 214.42 46.5104C214.271 46.3377 214.287 46.0785 214.458 45.9272C214.539 45.8568 216.45 44.2193 219.248 45.8818C219.445 45.9984 219.51 46.254 219.392 46.4507C219.315 46.5807 219.178 46.6529 219.036 46.6529Z" fill="#263238"/>
<path d="M219.873 45.2575C219.801 45.2575 219.727 45.2388 219.661 45.1997C216.392 43.255 214.193 45.1364 214.171 45.1542C213.999 45.3065 213.737 45.2887 213.586 45.1168C213.435 44.945 213.451 44.6823 213.623 44.5318C213.65 44.5078 216.301 42.2372 220.086 44.4864C220.283 44.6031 220.348 44.8586 220.23 45.0554C220.152 45.1854 220.014 45.2575 219.873 45.2575Z" fill="#263238"/>
<path d="M220.633 43.6424C220.56 43.6424 220.487 43.6237 220.42 43.5836C216.279 41.1207 213.525 43.4393 213.41 43.54C213.238 43.6896 212.975 43.6709 212.825 43.499C212.675 43.3272 212.692 43.0663 212.863 42.9158C212.896 42.8864 216.166 40.0887 220.845 42.8704C221.042 42.987 221.106 43.2417 220.989 43.4394C220.911 43.5702 220.773 43.6424 220.633 43.6424Z" fill="#263238"/>
<path d="M216.745 48.39C217.32 48.39 217.786 47.924 217.786 47.3491C217.786 46.7743 217.32 46.3082 216.745 46.3082C216.171 46.3082 215.705 46.7743 215.705 47.3491C215.705 47.924 216.171 48.39 216.745 48.39Z" fill="#263238"/>
<path d="M247.549 47.8603V57.7929H250.638V86.0211H247.549V92.4366H250.638V120.665H247.549V127.08H250.638V155.308H247.549V348.246C247.549 358.398 239.32 366.628 229.167 366.628H90.1841C80.0324 366.628 71.8023 358.399 71.8023 348.246V108.604H69.5967V80.3758H71.8023V47.8603C71.8023 37.7086 80.0324 29.4784 90.1841 29.4784H229.168C239.32 29.4793 247.549 37.7086 247.549 47.8603ZM199.491 36.3596L194.066 44.4321C192.438 46.855 189.712 48.3073 186.793 48.3073H132.56C129.642 48.3073 126.915 46.855 125.287 44.4321L119.863 36.3596H94.6674C84.5157 36.3596 76.2855 44.5898 76.2855 54.7415V341.365C76.2855 351.517 84.5157 359.748 94.6674 359.748H224.685C234.837 359.748 243.067 351.517 243.067 341.365V54.7415C243.067 44.5898 234.838 36.3596 224.685 36.3596H199.491V36.3596Z" fill="#263238"/>
<path d="M228.639 126.835H229.914C232.497 126.835 234.591 128.929 234.591 131.511V220.86C234.591 235.384 246.364 247.156 260.887 247.156C275.409 247.156 287.182 235.383 287.182 220.86V188.058" stroke="#263238" stroke-miterlimit="10" stroke-linecap="round" stroke-linejoin="round"/>
<path d="M224.744 126.835H228.639" stroke="#263238" stroke-width="3" stroke-miterlimit="10" stroke-linecap="round" stroke-linejoin="round"/>
<path d="M131.814 181.622C133.324 181.622 134.548 182.846 134.548 184.355V220.952C134.548 262.305 168.072 295.831 209.427 295.831C248.733 295.831 280.597 263.967 280.597 224.661V188.261" stroke="#263238" stroke-miterlimit="10" stroke-linecap="round" stroke-linejoin="round"/>
<path d="M127.518 181.622H131.814" stroke="#263238" stroke-width="3" stroke-miterlimit="10" stroke-linecap="round" stroke-linejoin="round"/>
<path d="M230.924 239.056C233.536 239.056 235.654 241.175 235.654 243.786V286.556C235.654 302.795 248.819 315.96 265.057 315.96C281.297 315.96 294.461 302.795 294.461 286.556V189.296" stroke="#263238" stroke-miterlimit="10" stroke-linecap="round" stroke-linejoin="round"/>
<path d="M225.372 239.056H230.924" stroke="#263238" stroke-width="3" stroke-miterlimit="10" stroke-linecap="round" stroke-linejoin="round"/>
<path d="M220.52 145.932H191.211C188.686 145.932 186.639 143.885 186.639 141.359V112.05C186.639 109.525 188.686 107.477 191.211 107.477H220.52C223.045 107.477 225.093 109.524 225.093 112.05V141.359C225.093 143.885 223.046 145.932 220.52 145.932Z" fill="#7E89FD" stroke="#263238" stroke-miterlimit="10" stroke-linecap="round" stroke-linejoin="round"/>
<path d="M218.267 125.856V122.944L215.326 122.452C215.081 121.235 214.602 120.103 213.944 119.1L215.691 116.65L213.632 114.591L211.187 116.334C210.191 115.678 209.069 115.199 207.861 114.949L207.361 111.961H204.448L203.948 114.949C202.751 115.196 201.639 115.67 200.65 116.316L198.154 114.535L196.094 116.595L197.871 119.087C197.227 120.068 196.755 121.172 196.503 122.358L193.464 122.866V125.78L196.484 126.285C196.725 127.473 197.192 128.579 197.829 129.565L196.039 132.073L198.099 134.133L200.579 132.363C201.562 133.019 202.673 133.496 203.866 133.754L204.369 136.763H207.281L207.779 133.789C208.989 133.549 210.115 133.08 211.115 132.433L213.576 134.188L215.635 132.128L213.9 129.695C214.568 128.697 215.051 127.567 215.308 126.352L218.267 125.856ZM205.905 131.502C201.961 131.502 198.764 128.305 198.764 124.361C198.764 120.418 201.961 117.22 205.905 117.22C209.849 117.22 213.046 120.418 213.046 124.361C213.046 128.305 209.849 131.502 205.905 131.502Z" fill="white" stroke="#263238" stroke-miterlimit="10" stroke-linecap="round" stroke-linejoin="round"/>
<path d="M217.407 139.756H193.391V141.724H217.407V139.756Z" fill="white" stroke="#263238" stroke-miterlimit="10" stroke-linecap="round" stroke-linejoin="round"/>
<path d="M205.399 139.756H193.391V141.724H205.399V139.756Z" fill="#263238" stroke="#263238" stroke-miterlimit="10" stroke-linecap="round" stroke-linejoin="round"/>
<path d="M171.356 145.804H142.611C139.974 145.804 137.836 143.666 137.836 141.03V112.285C137.836 109.649 139.973 107.511 142.611 107.511H171.356C173.993 107.511 176.131 109.648 176.131 112.285V141.03C176.131 143.666 173.993 145.804 171.356 145.804Z" fill="white" stroke="#263238" stroke-miterlimit="10" stroke-linecap="round" stroke-linejoin="round"/>
<path d="M156.984 139.854C164.272 139.854 170.181 133.946 170.181 126.658C170.181 119.369 164.272 113.461 156.984 113.461C149.695 113.461 143.787 119.369 143.787 126.658C143.787 133.946 149.695 139.854 156.984 139.854Z" fill="#263238" stroke="#263238" stroke-miterlimit="10" stroke-linecap="round" stroke-linejoin="round"/>
<path d="M152.824 132.061L156.984 126.658V116.988" stroke="white" stroke-miterlimit="10" stroke-linecap="round" stroke-linejoin="round"/>
<path d="M122.474 145.804H93.729C91.0925 145.804 88.9546 143.667 88.9546 141.03V112.285C88.9546 109.649 91.0925 107.511 93.729 107.511H122.474C125.11 107.511 127.248 109.648 127.248 112.285V141.03C127.248 143.667 125.11 145.804 122.474 145.804Z" fill="white" stroke="#263238" stroke-miterlimit="10" stroke-linecap="round" stroke-linejoin="round"/>
<path d="M103.942 132.061L108.102 126.658V116.988" stroke="white" stroke-miterlimit="10" stroke-linecap="round" stroke-linejoin="round"/>
<path d="M118.823 125.792L101.433 115.752V135.833L118.823 125.792Z" fill="#263238" stroke="#263238" stroke-miterlimit="10" stroke-linecap="round" stroke-linejoin="round"/>
<path d="M220.52 202.226H191.211C188.686 202.226 186.639 200.179 186.639 197.654V168.344C186.639 165.818 188.686 163.771 191.211 163.771H220.52C223.045 163.771 225.093 165.818 225.093 168.344V197.654C225.093 200.179 223.046 202.226 220.52 202.226Z" fill="white" stroke="#263238" stroke-miterlimit="10" stroke-linecap="round" stroke-linejoin="round"/>
<path d="M205.308 171.588C198.47 171.588 192.926 176.023 192.926 181.493C192.926 185.029 195.249 188.124 198.734 189.878L196.64 195.113L203.26 191.252C203.927 191.342 204.609 191.399 205.308 191.399C212.146 191.399 217.689 186.965 217.689 181.493C217.689 176.023 212.146 171.588 205.308 171.588Z" fill="#263238" stroke="#263238" stroke-miterlimit="10" stroke-linecap="round" stroke-linejoin="round"/>
<path d="M220.52 258.519H191.211C188.686 258.519 186.639 256.472 186.639 253.947V224.638C186.639 222.112 188.686 220.065 191.211 220.065H220.52C223.045 220.065 225.093 222.112 225.093 224.638V253.947C225.093 256.472 223.046 258.519 220.52 258.519Z" fill="#7E89FD" stroke="#263238" stroke-miterlimit="10" stroke-linecap="round" stroke-linejoin="round"/>
<path d="M218.267 238.444V235.531L215.326 235.04C215.081 233.823 214.602 232.691 213.944 231.687L215.691 229.238L213.632 227.178L211.187 228.922C210.191 228.265 209.069 227.786 207.861 227.536L207.361 224.549H204.448L203.948 227.536C202.751 227.783 201.639 228.257 200.65 228.904L198.154 227.123L196.094 229.183L197.871 231.675C197.227 232.656 196.755 233.759 196.503 234.945L193.464 235.454V238.366L196.484 238.871C196.725 240.061 197.192 241.166 197.829 242.152L196.039 244.66L198.099 246.719L200.579 244.95C201.562 245.606 202.673 246.082 203.866 246.341L204.369 249.35H207.281L207.779 246.376C208.989 246.136 210.115 245.666 211.115 245.02L213.576 246.776L215.635 244.716L213.9 242.283C214.568 241.285 215.051 240.155 215.308 238.941L218.267 238.444ZM205.905 244.09C201.961 244.09 198.764 240.893 198.764 236.949C198.764 233.004 201.961 229.807 205.905 229.807C209.849 229.807 213.046 233.004 213.046 236.949C213.046 240.893 209.849 244.09 205.905 244.09Z" fill="white" stroke="#263238" stroke-miterlimit="10" stroke-linecap="round" stroke-linejoin="round"/>
<path d="M217.407 252.345H193.391V254.314H217.407V252.345Z" fill="white" stroke="#263238" stroke-miterlimit="10" stroke-linecap="round" stroke-linejoin="round"/>
<path d="M197.364 252.345H193.391V254.314H197.364V252.345Z" fill="#263238" stroke="#263238" stroke-miterlimit="10" stroke-linecap="round" stroke-linejoin="round"/>
<path d="M122.474 202.099H93.729C91.0925 202.099 88.9546 199.962 88.9546 197.324V168.58C88.9546 165.943 91.0925 163.805 93.729 163.805H122.474C125.11 163.805 127.248 165.942 127.248 168.58V197.324C127.248 199.962 125.11 202.099 122.474 202.099Z" fill="#7E89FD" stroke="#263238" stroke-miterlimit="10" stroke-linecap="round" stroke-linejoin="round"/>
<path d="M120.781 182.15V179.238L117.841 178.745C117.595 177.528 117.117 176.397 116.459 175.393L118.206 172.943L116.146 170.884L113.701 172.627C112.706 171.971 111.583 171.492 110.375 171.242L109.875 168.255H106.962L106.462 171.243C105.265 171.489 104.153 171.964 103.165 172.61L100.668 170.83L98.6084 172.889L100.387 175.381C99.741 176.361 99.27 177.465 99.018 178.651L95.979 179.16V182.072L98.9993 182.577C99.2406 183.766 99.7072 184.872 100.343 185.857L98.5541 188.366L100.614 190.425L103.094 188.656C104.077 189.311 105.189 189.788 106.381 190.047L106.884 193.055H109.797L110.294 190.081C111.504 189.842 112.63 189.372 113.63 188.725L116.091 190.481L118.151 188.422L116.415 185.989C117.083 184.991 117.566 183.861 117.823 182.646L120.781 182.15ZM108.419 187.796C104.475 187.796 101.278 184.599 101.278 180.655C101.278 176.711 104.475 173.513 108.419 173.513C112.363 173.513 115.56 176.71 115.56 180.655C115.56 184.599 112.363 187.796 108.419 187.796Z" fill="white" stroke="#263238" stroke-miterlimit="10" stroke-linecap="round" stroke-linejoin="round"/>
<path d="M119.921 196.05H95.9048V198.019H119.921V196.05Z" fill="white" stroke="#263238" stroke-miterlimit="10" stroke-linecap="round" stroke-linejoin="round"/>
<path d="M117.609 196.05H95.9048V198.019H117.609V196.05Z" fill="#263238" stroke="#263238" stroke-miterlimit="10" stroke-linecap="round" stroke-linejoin="round"/>
<path d="M122.474 258.393H93.729C91.0925 258.393 88.9546 256.256 88.9546 253.618V224.874C88.9546 222.237 91.0925 220.099 93.729 220.099H122.474C125.11 220.099 127.248 222.237 127.248 224.874V253.618C127.248 256.255 125.11 258.393 122.474 258.393Z" fill="white" stroke="#263238" stroke-miterlimit="10" stroke-linecap="round" stroke-linejoin="round"/>
<path d="M103.942 244.649L108.102 239.246V229.576" stroke="white" stroke-miterlimit="10" stroke-linecap="round" stroke-linejoin="round"/>
<path d="M121.006 230.965H95.1953V247.527H121.006V230.965Z" fill="#263238" stroke="#263238" stroke-miterlimit="10" stroke-linecap="round" stroke-linejoin="round"/>
<path d="M95.1953 230.965L107.886 241.719L120.824 231.114" stroke="white" stroke-miterlimit="10" stroke-linecap="round" stroke-linejoin="round"/>
<path d="M95.1953 247.527L104.444 239.138" stroke="white" stroke-miterlimit="10" stroke-linecap="round" stroke-linejoin="round"/>
<path d="M121.006 247.527L111.327 239.138" stroke="white" stroke-miterlimit="10" stroke-linecap="round" stroke-linejoin="round"/>
<path d="M408.661 235.318L418.864 333.076" stroke="#263238" stroke-width="2" stroke-miterlimit="10"/>
<path d="M417.219 314.367L412.594 309.482" stroke="#263238" stroke-width="2" stroke-miterlimit="10"/>
<path d="M413.999 310.946C413.999 310.946 414.131 308.785 412.159 307.023C410.972 305.963 404.724 303.334 404.131 305.535C403.485 307.928 409.881 312.628 413.999 310.946Z" fill="#3662FF" stroke="#263238" stroke-miterlimit="10"/>
<path d="M413.999 310.946L408.051 307.239" stroke="#263238" stroke-width="0.5" stroke-miterlimit="10"/>
<path d="M418.38 325.485L413.755 320.6" stroke="#263238" stroke-width="2" stroke-miterlimit="10"/>
<path d="M415.161 322.063C415.161 322.063 415.293 319.902 413.32 318.141C412.132 317.08 405.884 314.452 405.291 316.652C404.647 319.046 411.042 323.746 415.161 322.063Z" fill="#3662FF" stroke="#263238" stroke-miterlimit="10"/>
<path d="M415.16 322.063L409.211 318.357" stroke="#263238" stroke-width="0.5" stroke-miterlimit="10"/>
<path d="M414.388 287.238L409.762 282.353" stroke="#263238" stroke-width="2" stroke-miterlimit="10"/>
<path d="M411.168 283.816C411.168 283.816 411.299 281.655 409.327 279.893C408.14 278.833 401.892 276.204 401.299 278.405C400.654 280.798 407.049 285.499 411.168 283.816Z" fill="#3662FF" stroke="#263238" stroke-miterlimit="10"/>
<path d="M411.167 283.816L405.22 280.11" stroke="#263238" stroke-width="0.5" stroke-miterlimit="10"/>
<path d="M415.549 298.356L410.924 293.471" stroke="#263238" stroke-width="2" stroke-miterlimit="10"/>
<path d="M412.329 294.935C412.329 294.935 412.461 292.774 410.489 291.011C409.301 289.952 403.053 287.322 402.46 289.523C401.815 291.916 408.21 296.616 412.329 294.935Z" fill="#3662FF" stroke="#263238" stroke-miterlimit="10"/>
<path d="M412.329 294.935L406.38 291.228" stroke="#263238" stroke-width="0.5" stroke-miterlimit="10"/>
<path d="M412.504 269.177L407.879 264.292" stroke="#263238" stroke-width="2" stroke-miterlimit="10"/>
<path d="M409.284 265.756C409.284 265.756 409.416 263.595 407.443 261.833C406.255 260.774 400.007 258.144 399.414 260.345C398.77 262.739 405.165 267.438 409.284 265.756Z" fill="#3662FF" stroke="#263238" stroke-miterlimit="10"/>
<path d="M409.284 265.756L403.335 262.05" stroke="#263238" stroke-width="0.5" stroke-miterlimit="10"/>
<path d="M410.61 251.039L405.986 246.154" stroke="#263238" stroke-width="2" stroke-miterlimit="10"/>
<path d="M407.391 247.617C407.391 247.617 407.522 245.456 405.55 243.694C404.362 242.635 398.114 240.005 397.521 242.206C396.877 244.599 403.272 249.3 407.391 247.617Z" fill="#3662FF" stroke="#263238" stroke-miterlimit="10"/>
<path d="M407.391 247.617L401.442 243.911" stroke="#263238" stroke-width="0.5" stroke-miterlimit="10"/>
<path d="M416.442 307.789L419.959 302.054" stroke="#263238" stroke-width="2" stroke-miterlimit="10"/>
<path d="M418.886 303.777C418.886 303.777 418.311 301.689 419.877 299.559C420.82 298.276 426.389 294.414 427.425 296.445C428.55 298.653 423.263 304.573 418.886 303.777Z" fill="#3662FF" stroke="#263238" stroke-miterlimit="10"/>
<path d="M418.886 303.777L424.242 298.657" stroke="#263238" stroke-width="0.5" stroke-miterlimit="10"/>
<path d="M413.388 278.532L416.905 272.797" stroke="#263238" stroke-width="2" stroke-miterlimit="10"/>
<path d="M415.833 274.52C415.833 274.52 415.257 272.433 416.824 270.302C417.767 269.02 423.337 265.157 424.372 267.188C425.496 269.396 420.21 275.316 415.833 274.52Z" fill="#3662FF" stroke="#263238" stroke-miterlimit="10"/>
<path d="M415.833 274.52L421.188 269.401" stroke="#263238" stroke-width="0.5" stroke-miterlimit="10"/>
<path d="M412.048 265.674L415.564 259.94" stroke="#263238" stroke-width="2" stroke-miterlimit="10"/>
<path d="M414.49 261.663C414.49 261.663 413.915 259.576 415.481 257.444C416.424 256.163 421.995 252.3 423.03 254.331C424.154 256.54 418.868 262.458 414.49 261.663Z" fill="#3662FF" stroke="#263238" stroke-miterlimit="10"/>
<path d="M414.491 261.663L419.847 256.543" stroke="#263238" stroke-width="0.5" stroke-miterlimit="10"/>
<path d="M410.081 246.826L413.597 241.092" stroke="#263238" stroke-width="2" stroke-miterlimit="10"/>
<path d="M412.524 242.815C412.524 242.815 411.948 240.727 413.515 238.596C414.458 237.314 420.027 233.452 421.063 235.482C422.187 237.69 416.901 243.61 412.524 242.815Z" fill="#3662FF" stroke="#263238" stroke-miterlimit="10"/>
<path d="M412.524 242.815L417.88 237.695" stroke="#263238" stroke-width="0.5" stroke-miterlimit="10"/>
<path d="M408.576 234.775C408.576 234.775 408.001 232.688 409.567 230.556C410.51 229.274 416.079 225.412 417.114 227.443C418.24 229.651 412.953 235.571 408.576 234.775Z" fill="#3662FF" stroke="#263238" stroke-miterlimit="10"/>
<path d="M408.576 234.775L413.932 229.656" stroke="#263238" stroke-width="0.5" stroke-miterlimit="10"/>
<path d="M408.886 234.996C408.886 234.996 406.75 235.348 404.794 233.568C403.618 232.496 400.361 226.551 402.49 225.735C404.804 224.849 410.136 230.726 408.886 234.996Z" fill="#3662FF" stroke="#263238" stroke-miterlimit="10"/>
<path d="M408.886 234.996L404.356 229.132" stroke="#263238" stroke-width="0.5" stroke-miterlimit="10"/>
<path d="M435.57 248.781L425.425 346.545" stroke="#263238" stroke-width="2" stroke-miterlimit="10"/>
<path d="M427.669 327.898L424.147 322.167" stroke="#263238" stroke-width="2" stroke-miterlimit="10"/>
<path d="M425.222 323.888C425.222 323.888 425.798 321.8 424.229 319.67C423.286 318.388 417.713 314.529 416.68 316.56C415.555 318.77 420.845 324.686 425.222 323.888Z" fill="#367CFF" stroke="#263238" stroke-miterlimit="10"/>
<path d="M425.222 323.888L420.165 319.036" stroke="#263238" stroke-width="0.5" stroke-miterlimit="10"/>
<path d="M430.484 300.768L426.964 295.034" stroke="#263238" stroke-width="2" stroke-miterlimit="10"/>
<path d="M428.038 296.756C428.038 296.756 428.613 294.669 427.044 292.539C426.1 291.257 420.529 287.399 419.494 289.43C418.371 291.638 423.661 297.554 428.038 296.756Z" fill="#367CFF" stroke="#263238" stroke-miterlimit="10"/>
<path d="M428.038 296.756L422.98 291.904" stroke="#263238" stroke-width="0.5" stroke-miterlimit="10"/>
<path d="M429.33 311.886L425.81 306.153" stroke="#263238" stroke-width="2" stroke-miterlimit="10"/>
<path d="M426.883 307.875C426.883 307.875 427.459 305.787 425.891 303.657C424.946 302.376 419.374 298.517 418.341 300.548C417.216 302.757 422.507 308.673 426.883 307.875Z" fill="#367CFF" stroke="#263238" stroke-miterlimit="10"/>
<path d="M426.884 307.875L421.826 303.023" stroke="#263238" stroke-width="0.5" stroke-miterlimit="10"/>
<path d="M432.358 282.706L428.837 276.974" stroke="#263238" stroke-width="2" stroke-miterlimit="10"/>
<path d="M429.911 278.694C429.911 278.694 430.486 276.607 428.918 274.476C427.974 273.195 422.402 269.337 421.368 271.368C420.245 273.576 425.535 279.493 429.911 278.694Z" fill="#367CFF" stroke="#263238" stroke-miterlimit="10"/>
<path d="M429.911 278.694L424.853 273.843" stroke="#263238" stroke-width="0.5" stroke-miterlimit="10"/>
<path d="M434.239 264.566L430.719 258.833" stroke="#263238" stroke-width="2" stroke-miterlimit="10"/>
<path d="M431.793 260.555C431.793 260.555 432.367 258.467 430.799 256.337C429.855 255.055 424.284 251.196 423.249 253.227C422.127 255.436 427.417 261.353 431.793 260.555Z" fill="#367CFF" stroke="#263238" stroke-miterlimit="10"/>
<path d="M431.793 260.554L426.736 255.703" stroke="#263238" stroke-width="0.5" stroke-miterlimit="10"/>
<path d="M428.262 321.301L432.884 316.413" stroke="#263238" stroke-width="2" stroke-miterlimit="10"/>
<path d="M431.48 317.878C431.48 317.878 431.346 315.717 433.319 313.954C434.505 312.894 440.751 310.261 441.346 312.461C441.992 314.854 435.6 319.558 431.48 317.878Z" fill="#367CFF" stroke="#263238" stroke-miterlimit="10"/>
<path d="M431.48 317.878L437.775 313.972" stroke="#263238" stroke-width="0.5" stroke-miterlimit="10"/>
<path d="M431.298 292.043L435.921 287.155" stroke="#263238" stroke-width="2" stroke-miterlimit="10"/>
<path d="M434.515 288.62C434.515 288.62 434.382 286.459 436.354 284.696C437.54 283.635 443.787 281.003 444.381 283.202C445.027 285.595 438.635 290.3 434.515 288.62Z" fill="#367CFF" stroke="#263238" stroke-miterlimit="10"/>
<path d="M434.515 288.62L440.81 284.713" stroke="#263238" stroke-width="0.5" stroke-miterlimit="10"/>
<path d="M432.632 279.185L437.254 274.297" stroke="#263238" stroke-width="2" stroke-miterlimit="10"/>
<path d="M435.85 275.761C435.85 275.761 435.716 273.6 437.688 271.837C438.875 270.777 445.121 268.145 445.716 270.344C446.362 272.737 439.969 277.441 435.85 275.761Z" fill="#367CFF" stroke="#263238" stroke-miterlimit="10"/>
<path d="M435.85 275.761L442.145 271.855" stroke="#263238" stroke-width="0.5" stroke-miterlimit="10"/>
<path d="M434.588 260.335L439.21 255.447" stroke="#263238" stroke-width="2" stroke-miterlimit="10"/>
<path d="M437.806 256.912C437.806 256.912 437.673 254.751 439.644 252.988C440.83 251.927 447.078 249.295 447.671 251.495C448.318 253.887 441.926 258.591 437.806 256.912Z" fill="#367CFF" stroke="#263238" stroke-miterlimit="10"/>
<path d="M437.806 256.912L444.102 253.005" stroke="#263238" stroke-width="0.5" stroke-miterlimit="10"/>
<path d="M435.599 248.233C435.599 248.233 435.465 246.071 437.436 244.308C438.622 243.247 444.87 240.615 445.464 242.815C446.11 245.208 439.718 249.911 435.599 248.233Z" fill="#367CFF" stroke="#263238" stroke-miterlimit="10"/>
<path d="M435.598 248.233L441.893 244.326" stroke="#263238" stroke-width="0.5" stroke-miterlimit="10"/>
<path d="M435.856 248.513C435.856 248.513 433.693 248.419 432.146 246.272C431.216 244.981 429.253 238.493 431.503 238.132C433.951 237.741 437.959 244.592 435.856 248.513Z" fill="#367CFF" stroke="#263238" stroke-miterlimit="10"/>
<path d="M435.857 248.513L432.632 241.842" stroke="#263238" stroke-width="0.5" stroke-miterlimit="10"/>
<path d="M423.944 208.971V332.6" stroke="#263238" stroke-width="2" stroke-miterlimit="10"/>
<path d="M424.042 314.012L419.95 308.672" stroke="#263238" stroke-width="2" stroke-miterlimit="10"/>
<path d="M421.196 310.274C421.196 310.274 421.551 308.139 419.772 306.181C418.701 305.004 412.76 301.74 411.941 303.866C411.052 306.182 416.924 311.521 421.196 310.274Z" fill="#367CFF" stroke="#263238" stroke-miterlimit="10"/>
<path d="M421.195 310.274L415.664 305.97" stroke="#263238" stroke-width="0.5" stroke-miterlimit="10"/>
<path d="M424.042 290.778L419.95 285.44" stroke="#263238" stroke-width="2" stroke-miterlimit="10"/>
<path d="M421.196 287.041C421.196 287.041 421.551 284.906 419.772 282.948C418.701 281.77 412.76 278.507 411.941 280.634C411.052 282.949 416.924 288.287 421.196 287.041Z" fill="#367CFF" stroke="#263238" stroke-miterlimit="10"/>
<path d="M421.195 287.041L415.664 282.737" stroke="#263238" stroke-width="0.5" stroke-miterlimit="10"/>
<path d="M424.042 263.501L419.95 258.163" stroke="#263238" stroke-width="2" stroke-miterlimit="10"/>
<path d="M421.196 259.765C421.196 259.765 421.551 257.629 419.772 255.671C418.701 254.493 412.76 251.231 411.941 253.357C411.052 255.671 416.924 261.01 421.196 259.765Z" fill="#367CFF" stroke="#263238" stroke-miterlimit="10"/>
<path d="M421.195 259.765L415.664 255.46" stroke="#263238" stroke-width="0.5" stroke-miterlimit="10"/>
<path d="M424.042 245.343L419.95 240.004" stroke="#263238" stroke-width="2" stroke-miterlimit="10"/>
<path d="M421.196 241.606C421.196 241.606 421.551 239.47 419.772 237.512C418.701 236.335 412.76 233.072 411.941 235.199C411.052 237.512 416.924 242.852 421.196 241.606Z" fill="#367CFF" stroke="#263238" stroke-miterlimit="10"/>
<path d="M421.195 241.605L415.664 237.302" stroke="#263238" stroke-width="0.5" stroke-miterlimit="10"/>
<path d="M424.042 227.105L419.95 221.767" stroke="#263238" stroke-width="2" stroke-miterlimit="10"/>
<path d="M421.196 223.369C421.196 223.369 421.551 221.233 419.772 219.275C418.701 218.097 412.76 214.835 411.941 216.961C411.052 219.275 416.924 224.613 421.196 223.369Z" fill="#367CFF" stroke="#263238" stroke-miterlimit="10"/>
<path d="M421.195 223.369L415.664 219.064" stroke="#263238" stroke-width="0.5" stroke-miterlimit="10"/>
<path d="M423.953 321.105L428.045 315.767" stroke="#263238" stroke-width="2" stroke-miterlimit="10"/>
<path d="M426.799 317.369C426.799 317.369 426.444 315.234 428.223 313.276C429.294 312.098 435.235 308.835 436.054 310.961C436.943 313.276 431.071 318.614 426.799 317.369Z" fill="#367CFF" stroke="#263238" stroke-miterlimit="10"/>
<path d="M426.8 317.369L432.658 312.833" stroke="#263238" stroke-width="0.5" stroke-miterlimit="10"/>
<path d="M423.953 284.154L428.045 278.816" stroke="#263238" stroke-width="2" stroke-miterlimit="10"/>
<path d="M426.799 280.418C426.799 280.418 426.444 278.283 428.223 276.325C429.294 275.147 435.235 271.884 436.054 274.011C436.943 276.325 431.071 281.663 426.799 280.418Z" fill="#367CFF" stroke="#263238" stroke-miterlimit="10"/>
<path d="M426.8 280.418L432.658 275.882" stroke="#263238" stroke-width="0.5" stroke-miterlimit="10"/>
<path d="M423.953 265.917L428.045 260.578" stroke="#263238" stroke-width="2" stroke-miterlimit="10"/>
<path d="M426.799 262.18C426.799 262.18 426.444 260.045 428.223 258.087C429.294 256.91 435.235 253.647 436.054 255.774C436.943 258.087 431.071 263.426 426.799 262.18Z" fill="#367CFF" stroke="#263238" stroke-miterlimit="10"/>
<path d="M426.8 262.18L432.658 257.645" stroke="#263238" stroke-width="0.5" stroke-miterlimit="10"/>
<path d="M423.953 241.812L428.045 236.473" stroke="#263238" stroke-width="2" stroke-miterlimit="10"/>
<path d="M426.799 238.075C426.799 238.075 426.444 235.94 428.223 233.982C429.294 232.804 435.235 229.541 436.054 231.667C436.943 233.983 431.071 239.321 426.799 238.075Z" fill="#367CFF" stroke="#263238" stroke-miterlimit="10"/>
<path d="M426.8 238.075L432.658 233.54" stroke="#263238" stroke-width="0.5" stroke-miterlimit="10"/>
<path d="M423.953 222.86L428.045 217.522" stroke="#263238" stroke-width="2" stroke-miterlimit="10"/>
<path d="M426.799 219.123C426.799 219.123 426.444 216.989 428.223 215.031C429.294 213.853 435.235 210.59 436.054 212.717C436.943 215.031 431.071 220.37 426.799 219.123Z" fill="#367CFF" stroke="#263238" stroke-miterlimit="10"/>
<path d="M426.799 219.123L432.657 214.587" stroke="#263238" stroke-width="0.5" stroke-miterlimit="10"/>
<path d="M423.707 210.719C423.707 210.719 423.351 208.583 425.131 206.625C426.201 205.448 432.143 202.186 432.961 204.312C433.851 206.625 427.978 211.964 423.707 210.719Z" fill="#367CFF" stroke="#263238" stroke-miterlimit="10"/>
<path d="M423.708 210.718L429.566 206.183" stroke="#263238" stroke-width="0.5" stroke-miterlimit="10"/>
<path d="M423.993 210.97C423.993 210.97 421.832 211.1 420.073 209.125C419.014 207.938 416.392 201.687 418.594 201.096C420.987 200.453 425.679 206.854 423.993 210.97Z" fill="#367CFF" stroke="#263238" stroke-miterlimit="10"/>
<path d="M423.993 210.97L420.098 204.669" stroke="#263238" stroke-width="0.5" stroke-miterlimit="10"/>
<path d="M429.031 364.664H415.938L414.301 331.599H430.668L429.031 364.664Z" fill="#263238" stroke="#263238" stroke-miterlimit="10"/>
<path d="M381.397 124.438C376.01 119.903 377.051 112.679 377.051 112.679C377.051 112.679 355.036 132.658 353.902 139.177C352.769 145.696 369.208 169.222 371.76 172.907C372.073 173.359 372.485 173.72 372.974 173.998C372.285 175.696 371.804 177.659 371.827 180.133C371.895 187.358 380.062 184.799 383.356 182.603C386.649 180.407 385.826 176.564 385.826 176.564C385.826 176.564 381.708 178.211 381.708 176.289C381.708 174.368 385.55 171.349 385.55 171.349L385.455 171.282C386.258 170.661 387.002 169.977 387.631 169.222C391.882 164.12 384.796 158.452 383.38 155.333C381.962 152.216 384.513 149.381 389.615 145.13C394.717 140.878 386.781 128.973 381.397 124.438Z" fill="#263238" stroke="#263238" stroke-miterlimit="10" stroke-linecap="round" stroke-linejoin="round"/>
<path d="M300.651 168.324C300.651 168.324 300.863 172.363 300.438 175.764C300.013 179.165 302.351 182.886 303.521 183.736C304.69 184.586 310.536 186.499 310.536 186.499L311.493 181.398L310.642 179.272L311.811 171.513C311.811 171.513 310.961 169.068 309.899 167.368C308.836 165.668 305.966 163.861 305.754 163.542C305.541 163.223 302.034 163.968 301.715 163.968C301.396 163.968 299.802 164.605 299.802 164.605L300.651 168.324Z" fill="white" stroke="#263238" stroke-miterlimit="10" stroke-linecap="round" stroke-linejoin="round"/>
<path d="M298.842 163.132C298.842 163.132 297.016 163.28 296.793 164.005C296.569 164.73 297.335 168.907 297.79 169.293C298.246 169.681 299.486 169.296 299.489 167.601C299.492 165.905 299.32 163.799 298.842 163.132Z" fill="white" stroke="#263238" stroke-miterlimit="10" stroke-linecap="round" stroke-linejoin="round"/>
<path d="M300.914 162.633C300.914 162.633 298.924 162.633 298.618 163.398C298.311 164.164 298.771 168.756 299.23 169.216C299.69 169.675 301.067 169.369 301.22 167.531C301.374 165.693 301.373 163.399 300.914 162.633Z" fill="white" stroke="#263238" stroke-miterlimit="10" stroke-linecap="round" stroke-linejoin="round"/>
<path d="M303.036 161.862C303.036 161.862 300.791 161.862 300.447 162.726C300.101 163.588 300.62 168.767 301.137 169.284C301.655 169.803 303.208 169.457 303.382 167.386C303.554 165.314 303.554 162.726 303.036 161.862Z" fill="white" stroke="#263238" stroke-miterlimit="10" stroke-linecap="round" stroke-linejoin="round"/>
<path d="M305.071 161.875C305.071 161.875 302.827 161.875 302.483 162.737C302.138 163.6 302.655 168.779 303.173 169.296C303.69 169.814 305.244 169.469 305.417 167.398C305.589 165.327 305.589 162.737 305.071 161.875Z" fill="white" stroke="#263238" stroke-miterlimit="10" stroke-linecap="round" stroke-linejoin="round"/>
<path d="M310.767 177.581C310.767 177.581 311.631 173.094 311.803 170.677C311.976 168.26 309.214 165.327 308.524 164.463C307.833 163.599 307.833 160.492 306.624 160.492C305.415 160.492 305.07 161.873 305.07 161.873C305.07 161.873 304.38 164.117 305.589 165.326C306.796 166.534 308.005 168.432 308.005 168.432C308.005 168.432 304.38 175.337 304.38 177.236C304.38 179.135 307.833 181.379 307.833 181.379" fill="white"/>
<path d="M310.767 177.581C310.767 177.581 311.631 173.094 311.803 170.677C311.976 168.26 309.214 165.327 308.524 164.463C307.833 163.599 307.833 160.492 306.624 160.492C305.415 160.492 305.07 161.873 305.07 161.873C305.07 161.873 304.38 164.117 305.589 165.326C306.796 166.534 308.005 168.432 308.005 168.432C308.005 168.432 304.38 175.337 304.38 177.236C304.38 179.135 307.833 181.379 307.833 181.379" stroke="#263238" stroke-miterlimit="10" stroke-linecap="round" stroke-linejoin="round"/>
<path d="M311.279 180.972L310.322 189.264L333.069 196.703L332.856 184.268L311.279 180.972Z" fill="#367CFF" stroke="#263238" stroke-miterlimit="10" stroke-linecap="round" stroke-linejoin="round"/>
<path d="M348.8 141.858C348.8 141.858 336.129 145.651 335.278 149.619C334.428 153.587 331.793 165.667 331.793 165.667C331.793 165.667 328.675 173.886 328.958 178.138C329.241 182.39 331.793 190.893 330.375 196.562C328.958 202.23 324.14 219.237 323.006 224.906C321.873 230.575 321.306 233.976 321.306 233.976L325.841 234.827L332.077 235.677C332.077 235.677 334.628 218.67 336.612 203.932C338.597 189.193 333.495 178.989 338.313 169.352C343.131 159.715 354.753 150.078 353.902 146.109C353.052 142.141 348.8 141.858 348.8 141.858Z" fill="#367CFF" stroke="#263238" stroke-miterlimit="10" stroke-linecap="round" stroke-linejoin="round"/>
<path d="M325.841 223.773C325.841 223.773 324.14 244.464 327.541 259.77C330.942 275.076 334.91 285.564 334.91 285.564C334.91 285.564 338.878 310.507 341.713 319.293C344.548 328.08 345.398 336.583 344.831 343.386C344.264 350.189 339.446 358.976 337.178 360.676C334.91 362.377 330.375 366.345 336.044 367.762C341.713 369.18 349.039 365.923 352.484 365.778C359.287 365.494 360.137 360.959 360.137 356.708C360.137 352.456 356.169 338 357.303 330.631C358.436 323.262 358.72 298.885 357.586 292.366C356.453 285.847 355.885 279.895 355.885 279.895L355.035 226.89L326.973 222.923L325.841 223.773Z" fill="#263238" stroke="#263238" stroke-miterlimit="10" stroke-linecap="round" stroke-linejoin="round"/>
<path d="M357.132 335.071C350.587 337.908 346.914 337.39 344.897 336.218C345.033 338.752 345.017 341.166 344.832 343.385C344.265 350.188 339.447 358.975 337.179 360.675C334.911 362.376 330.376 366.344 336.045 367.761C341.715 369.179 349.04 365.922 352.485 365.777C359.288 365.494 360.138 360.959 360.138 356.707C360.138 353.201 357.441 342.76 357.132 335.071Z" fill="white" stroke="#263238" stroke-miterlimit="10" stroke-linecap="round" stroke-linejoin="round"/>
<path d="M360.11 356.044C360.107 355.997 360.104 355.953 360.101 355.906C360.082 355.668 360.057 355.414 360.026 355.142C360.02 355.086 360.012 355.027 360.005 354.969C359.974 354.704 359.938 354.428 359.896 354.135C359.891 354.104 359.888 354.075 359.882 354.043C359.838 353.736 359.788 353.411 359.734 353.077C359.717 352.975 359.702 352.874 359.684 352.769C359.633 352.461 359.581 352.144 359.524 351.816C359.494 351.64 359.463 351.461 359.431 351.281C359.424 351.242 359.417 351.203 359.41 351.165C359.013 351.56 358.599 351.982 358.152 352.456C353.617 357.275 347.382 362.66 340.863 362.66C337.757 362.66 336.969 361.759 336.993 360.816C334.677 362.585 330.524 366.382 336.044 367.762C341.713 369.18 349.039 365.923 352.484 365.778C359.287 365.494 360.137 360.96 360.137 356.708C360.138 356.51 360.126 356.283 360.11 356.044Z" fill="#367CFF" stroke="#263238" stroke-miterlimit="10" stroke-linecap="round" stroke-linejoin="round"/>
<path d="M354.469 361.809C349.083 366.06 343.414 366.627 338.596 366.627C334.871 366.627 333.861 365.108 333.591 364.416C332.942 365.765 333.273 367.069 336.045 367.761C341.714 369.179 349.04 365.922 352.485 365.777C358.893 365.509 360.019 361.47 360.127 357.448C358.766 358.468 356.874 359.91 354.469 361.809Z" fill="white" stroke="#263238" stroke-miterlimit="10" stroke-linecap="round" stroke-linejoin="round"/>
<path d="M343.981 255.235C343.981 255.235 346.816 291.232 349.083 300.869C351.35 310.506 356.169 343.952 356.169 348.488C356.169 353.023 353.051 359.542 351.35 362.377C349.65 365.212 345.114 365.778 345.114 368.329C345.114 370.881 354.185 370.881 355.886 371.165C357.587 371.449 369.208 368.329 369.491 366.913C369.774 365.496 369.774 359.544 369.774 359.544C369.774 359.544 370.057 356.709 369.774 354.726C369.491 352.742 366.088 346.789 366.088 346.789C366.088 346.789 369.207 319.012 370.057 314.477C370.907 309.942 370.624 300.588 370.34 296.336C370.057 292.085 367.505 283.582 367.505 283.582L373.173 238.515L372.607 224.06C372.607 224.06 364.671 224.909 355.884 224.909C347.097 224.909 340.862 224.909 340.862 224.909L341.429 235.681" fill="#263238"/>
<path d="M343.981 255.235C343.981 255.235 346.816 291.232 349.083 300.869C351.35 310.506 356.169 343.952 356.169 348.488C356.169 353.023 353.051 359.542 351.35 362.377C349.65 365.212 345.114 365.778 345.114 368.329C345.114 370.881 354.185 370.881 355.886 371.165C357.587 371.449 369.208 368.329 369.491 366.913C369.774 365.496 369.774 359.544 369.774 359.544C369.774 359.544 370.057 356.709 369.774 354.726C369.491 352.742 366.088 346.789 366.088 346.789C366.088 346.789 369.207 319.012 370.057 314.477C370.907 309.942 370.624 300.588 370.34 296.336C370.057 292.085 367.505 283.582 367.505 283.582L373.173 238.515L372.607 224.06C372.607 224.06 364.671 224.909 355.884 224.909C347.097 224.909 340.862 224.909 340.862 224.909L341.429 235.681" stroke="#263238" stroke-miterlimit="10" stroke-linecap="round" stroke-linejoin="round"/>
<path d="M369.491 366.911C369.775 365.494 369.775 359.542 369.775 359.542C369.775 359.542 370.058 356.708 369.775 354.724C369.491 352.74 366.089 346.788 366.089 346.788C366.089 346.788 366.554 342.648 367.174 337.308C361.666 339.497 356.961 337.608 354.861 336.46C355.644 342.349 356.17 346.993 356.17 348.488C356.17 353.023 353.052 359.542 351.351 362.377C349.651 365.212 345.115 365.778 345.115 368.33C345.115 370.881 354.186 370.881 355.887 371.165C357.587 371.449 369.208 368.329 369.491 366.911Z" fill="white" stroke="#263238" stroke-miterlimit="10" stroke-linecap="round" stroke-linejoin="round"/>
<path d="M369.491 366.911C369.774 365.493 369.774 359.542 369.774 359.542C369.774 359.542 370.057 356.708 369.774 354.724C369.61 353.579 368.409 351.114 367.421 349.233C367.354 349.365 367.291 349.483 367.222 349.623C365.522 353.023 358.239 361.878 354.838 363.862C351.438 365.847 350.499 363.51 350.499 363.51H350.411C348.384 365.421 345.313 366.17 345.114 368.329C344.74 372.372 355.834 372.106 357.449 371.577C359.088 371.041 369.208 368.329 369.491 366.911Z" fill="#367CFF" stroke="#263238" stroke-miterlimit="10" stroke-linecap="round" stroke-linejoin="round"/>
<path d="M369.49 366.911C369.674 365.997 369.738 363.194 369.761 361.321C361.913 367.473 353.773 368.638 350.301 368.855C347.03 369.059 345.696 367.61 345.463 367.32C345.275 367.623 345.149 367.954 345.114 368.329C344.74 372.372 355.835 372.106 357.449 371.577C359.088 371.041 369.207 368.329 369.49 366.911Z" fill="white" stroke="#263238" stroke-miterlimit="10" stroke-linecap="round" stroke-linejoin="round"/>
<path d="M347.1 143.274C347.1 143.274 336.045 164.816 333.495 170.768C330.944 176.72 332.077 186.357 332.077 189.759C332.077 193.159 325.842 223.772 325.842 223.772C325.842 223.772 331.51 229.725 346.533 229.157C361.555 228.59 370.626 224.906 370.626 224.906C370.626 224.906 367.224 196.845 367.224 190.893C367.224 184.942 374.593 159.431 373.743 152.628C372.893 145.825 362.689 146.393 360.138 145.825C357.587 145.259 347.1 143.274 347.1 143.274Z" fill="white" stroke="#263238" stroke-miterlimit="10" stroke-linecap="round" stroke-linejoin="round"/>
<path d="M334.414 103.061C334.414 103.061 331.242 113.94 332.375 115.301C333.508 116.661 334.641 119.834 334.641 119.834C334.641 119.834 331.242 126.407 332.148 127.314C333.055 128.22 335.095 128.9 335.095 128.9C335.095 128.9 337.135 138.646 338.948 139.099C340.761 139.552 351.413 136.606 351.413 136.606C351.413 136.606 357.76 130.94 355.266 120.74C352.773 110.541 342.8 103.288 340.987 102.382C339.175 101.474 334.414 103.061 334.414 103.061Z" fill="white" stroke="#263238" stroke-miterlimit="10" stroke-linecap="round" stroke-linejoin="round"/>
<path d="M340.081 119.38V121.873C340.081 121.873 342.889 122.046 344.249 121.139" stroke="#263238" stroke-miterlimit="10" stroke-linecap="round" stroke-linejoin="round"/>
<path d="M339.134 118.23C339.134 118.23 341.541 116.826 344.05 118.331" stroke="#263238" stroke-miterlimit="10" stroke-linecap="round" stroke-linejoin="round"/>
<path d="M336.625 118.23C336.625 118.23 337.628 116.124 341.541 116.124C345.454 116.124 347.66 117.328 347.961 118.03C348.262 118.733 347.86 119.234 347.86 119.234C347.86 119.234 347.86 123.347 346.757 124.45C345.655 125.554 341.642 126.657 339.636 125.754C337.629 124.852 336.525 120.939 336.525 120.036C336.525 119.133 336.625 118.23 336.625 118.23Z" stroke="#263238" stroke-miterlimit="10" stroke-linecap="round" stroke-linejoin="round"/>
<path d="M347.961 118.03H349.566" stroke="#263238" stroke-miterlimit="10" stroke-linecap="round" stroke-linejoin="round"/>
<path d="M336.626 118.23C336.626 118.23 334.921 116.826 334.218 118.531" stroke="#263238" stroke-miterlimit="10" stroke-linecap="round" stroke-linejoin="round"/>
<path d="M333.515 118.23C333.515 118.23 332.111 117.83 330.406 117.83C328.701 117.83 328.199 118.532 328.3 118.832C328.4 119.133 328.902 120.638 328.902 121.741C328.902 122.845 329.002 124.55 330.005 125.052C331.008 125.553 332.213 125.654 332.213 125.654" stroke="#263238" stroke-miterlimit="10" stroke-linecap="round" stroke-linejoin="round"/>
<path d="M356.453 144.976C356.453 144.976 348.8 164.25 346.816 175.021C344.832 185.792 345.683 241.63 345.683 241.63C345.683 241.63 352.486 245.315 362.123 244.748C371.76 244.181 381.68 237.945 381.68 237.945C381.68 237.945 379.413 221.505 375.728 209.883C372.043 198.262 370.626 192.877 370.626 192.877C370.626 192.877 377.995 155.179 377.429 151.211C376.863 147.242 356.453 144.976 356.453 144.976Z" fill="#367CFF" stroke="#263238" stroke-miterlimit="10" stroke-linecap="round" stroke-linejoin="round"/>
<path d="M341.894 92.409C341.894 92.409 330.788 95.5816 330.788 97.3954C330.788 99.2083 330.334 101.701 337.814 106.915C345.293 112.127 350.733 116.888 351.187 123.234C351.64 129.58 345.294 146.352 343.934 151.792C342.574 157.232 343.253 165.165 347.56 166.298C351.866 167.431 350.507 166.751 350.053 164.258C349.599 161.765 352.093 151.339 359.572 147.939C367.051 144.54 375.156 139.091 376.797 128.901C378.511 118.264 377.821 102.88 366.826 94.4507C355.701 85.9205 341.894 92.409 341.894 92.409Z" fill="#263238" stroke="#263238" stroke-miterlimit="10" stroke-linecap="round" stroke-linejoin="round"/>
<path d="M362.405 165.95L359.57 192.027L357.869 192.594V194.011L356.169 194.861L355.319 195.994L315.921 192.31C315.921 192.31 306.85 191.176 305.149 191.176C303.448 191.176 296.93 190.326 296.93 190.326C296.93 190.326 297.78 192.877 299.198 193.16C300.615 193.444 307.984 195.995 307.984 195.995C307.984 195.995 312.802 198.546 315.921 198.546C319.038 198.546 323.857 198.83 323.857 198.83C323.857 198.83 344.548 204.498 351.067 205.632C357.587 206.766 362.972 209.317 365.24 208.467C367.507 207.617 370.341 205.349 371.193 202.231C372.043 199.114 375.728 179.839 375.728 179.839C375.728 179.839 380.263 160.282 380.263 155.464C380.263 150.646 373.744 148.095 367.791 151.212" fill="#367CFF"/>
<path d="M362.405 165.95L359.57 192.027L357.869 192.594V194.011L356.169 194.861L355.319 195.994L315.921 192.31C315.921 192.31 306.85 191.176 305.149 191.176C303.448 191.176 296.93 190.326 296.93 190.326C296.93 190.326 297.78 192.877 299.198 193.16C300.615 193.444 307.984 195.995 307.984 195.995C307.984 195.995 312.802 198.546 315.921 198.546C319.038 198.546 323.857 198.83 323.857 198.83C323.857 198.83 344.548 204.498 351.067 205.632C357.587 206.766 362.972 209.317 365.24 208.467C367.507 207.617 370.341 205.349 371.193 202.231C372.043 199.114 375.728 179.839 375.728 179.839C375.728 179.839 380.263 160.282 380.263 155.464C380.263 150.646 373.744 148.095 367.791 151.212" stroke="#263238" stroke-miterlimit="10" stroke-linecap="round" stroke-linejoin="round"/>
<path d="M356.228 206.812L353.208 195.798L315.921 192.311C315.921 192.311 306.85 191.177 305.149 191.177C303.448 191.177 296.93 190.327 296.93 190.327C296.93 190.327 297.78 192.878 299.198 193.161C300.615 193.444 307.984 195.996 307.984 195.996C307.984 195.996 312.802 198.547 315.921 198.547C319.038 198.547 323.857 198.83 323.857 198.83C323.857 198.83 344.548 204.499 351.067 205.633C352.893 205.949 354.624 206.379 356.228 206.812Z" fill="white" stroke="#263238" stroke-miterlimit="10" stroke-linecap="round" stroke-linejoin="round"/>
<path d="M360.389 203.478L361.272 204.782" stroke="#263238" stroke-miterlimit="10" stroke-linecap="round" stroke-linejoin="round"/>
<path d="M355.319 195.994L359.309 201.885" stroke="#263238" stroke-miterlimit="10" stroke-linecap="round" stroke-linejoin="round"/>
<path d="M357.87 194.011L363.539 197.979" stroke="#263238" stroke-miterlimit="10" stroke-linecap="round" stroke-linejoin="round"/>
<path d="M298.66 190.745C298.66 190.745 299.053 192.187 300.496 192.318C301.938 192.449 306.134 194.809 306.527 194.809" stroke="#263238" stroke-miterlimit="10" stroke-linecap="round" stroke-linejoin="round"/>
<path d="M303.379 191.137C303.379 191.137 304.691 192.317 305.87 192.58C307.05 192.842 310.853 194.547 310.853 194.547" stroke="#263238" stroke-miterlimit="10" stroke-linecap="round" stroke-linejoin="round"/>
<path d="M323.308 193.498C323.308 193.498 317.448 191.516 316.969 191.655C316.49 191.793 314.786 191.793 312.819 191.532C310.853 191.269 309.673 193.498 311.246 194.153C312.818 194.808 314.13 194.547 314.654 194.547C315.179 194.547 316.752 195.071 317.146 195.071" fill="white"/>
<path d="M323.308 193.498C323.308 193.498 317.448 191.516 316.969 191.655C316.49 191.793 314.786 191.793 312.819 191.532C310.853 191.269 309.673 193.498 311.246 194.153C312.818 194.808 314.13 194.547 314.654 194.547C315.179 194.547 316.752 195.071 317.146 195.071" stroke="#263238" stroke-miterlimit="10" stroke-linecap="round" stroke-linejoin="round"/>
<path d="M277.282 187.422L332.517 193.635L332.345 191.736L276.936 185.867L277.282 187.422Z" fill="white" stroke="#263238" stroke-miterlimit="10" stroke-linecap="round" stroke-linejoin="round"/>
<path d="M276.936 185.867L266.06 157.213L297.131 159.802L307.315 189.319L276.936 185.867Z" fill="white" stroke="#263238" stroke-miterlimit="10" stroke-linecap="round" stroke-linejoin="round"/>
<path d="M307.315 189.319V190.8L332.517 193.635L332.345 191.736L307.29 189.082L307.315 189.319Z" fill="#263238" stroke="#263238" stroke-miterlimit="10" stroke-linecap="round" stroke-linejoin="round"/>
</svg>
