<svg width="454" height="372" viewBox="0 0 454 372" fill="none" xmlns="http://www.w3.org/2000/svg">
<path opacity="0.1" d="M407.248 367.115C448.985 367.115 461.701 322.259 449.676 267.325C442.876 236.258 427.151 195.633 401.461 177.249C331.158 126.937 340.632 124.522 323.229 70.9707C294.819 -16.4474 185.574 -19.8207 140.936 42.821C106.204 91.5613 91.341 160.272 44.0212 210.897C-13.0966 272.006 2.48231 368 57.3475 368L407.248 367.115Z" fill="#367CFF"/>
<path d="M453.539 371.308H8.46068C8.40098 371.313 8.34146 371.29 8.28567 371.242C8.22987 371.194 8.17896 371.121 8.13596 371.028C8.09296 370.935 8.05876 370.823 8.0354 370.699C8.01204 370.576 8 370.443 8 370.308C8 370.174 8.01204 370.041 8.0354 369.917C8.05876 369.794 8.09296 369.682 8.13596 369.589C8.17896 369.495 8.22987 369.422 8.28567 369.374C8.34146 369.326 8.40098 369.304 8.46068 369.309H453.539C453.599 369.304 453.659 369.326 453.714 369.374C453.77 369.422 453.821 369.495 453.864 369.589C453.907 369.682 453.941 369.794 453.965 369.917C453.988 370.041 454 370.174 454 370.308C454 370.443 453.988 370.576 453.965 370.699C453.941 370.823 453.907 370.935 453.864 371.028C453.821 371.121 453.77 371.194 453.714 371.242C453.659 371.29 453.599 371.313 453.539 371.308V371.308Z" fill="#292A2E"/>
<path d="M413.548 311.742H0.448975L24.2234 240.541H389.773L413.548 311.742Z" fill="#292A2E"/>
<path d="M413.548 311.742H0.448975L24.2234 240.541H389.773L413.548 311.742Z" fill="white"/>
<path d="M413.548 312.369H0.451361C0.375373 312.369 0.300594 312.343 0.233973 312.292C0.167351 312.241 0.111049 312.168 0.0702995 312.078C0.02955 311.989 0.00567509 311.887 0.000893469 311.781C-0.00388815 311.676 0.0105786 311.57 0.0429496 311.475L23.8156 240.274C23.852 240.166 23.9096 240.075 23.9819 240.011C24.0541 239.947 24.138 239.913 24.2235 239.913H389.773C389.859 239.913 389.942 239.947 390.015 240.011C390.087 240.075 390.145 240.166 390.181 240.274L413.957 311.475C413.989 311.57 414.004 311.675 413.999 311.781C413.994 311.886 413.971 311.988 413.93 312.077C413.89 312.166 413.834 312.239 413.768 312.291C413.702 312.342 413.627 312.369 413.551 312.369H413.548ZM1.15864 311.115H412.838L389.487 241.168H24.5102L1.15864 311.115Z" fill="#292A2E"/>
<path d="M283.637 216.702H227.978V258.781H283.637V216.702Z" fill="#292A2E"/>
<path opacity="0.64" d="M283.638 216.703H227.978V239.182H283.638V216.703Z" fill="#0C0C0C"/>
<path d="M374.022 49.76H137.594C133.875 49.76 130.861 52.7746 130.861 56.4933V221.497C130.861 225.216 133.875 228.23 137.594 228.23H374.022C377.741 228.23 380.755 225.216 380.755 221.497V56.4933C380.755 52.7746 377.741 49.76 374.022 49.76Z" fill="#292A2E"/>
<path d="M370.698 57.4084H140.918C139.392 57.4084 138.154 58.6459 138.154 60.1724V197.019C138.154 198.546 139.392 199.783 140.918 199.783H370.698C372.224 199.783 373.462 198.546 373.462 197.019V60.1724C373.462 58.6459 372.224 57.4084 370.698 57.4084Z" fill="white"/>
<path d="M295.218 255.323H216.399C214.382 255.323 212.746 256.958 212.746 258.975C212.746 260.992 214.382 262.627 216.399 262.627H295.218C297.235 262.627 298.87 260.992 298.87 258.975C298.87 256.958 297.235 255.323 295.218 255.323Z" fill="#292A2E"/>
<path d="M216.826 80.1501H206.361C206.299 80.1524 206.237 80.1421 206.178 80.1198C206.12 80.0975 206.067 80.0636 206.022 80.0203C205.977 79.9769 205.941 79.925 205.916 79.8675C205.892 79.81 205.879 79.7481 205.879 79.6857C205.879 79.6232 205.892 79.5614 205.916 79.5039C205.941 79.4464 205.977 79.3944 206.022 79.3511C206.067 79.3077 206.12 79.2739 206.178 79.2516C206.237 79.2293 206.299 79.219 206.361 79.2213H216.826C216.946 79.2257 217.06 79.2765 217.143 79.3632C217.227 79.4498 217.273 79.5654 217.273 79.6857C217.273 79.806 217.227 79.9216 217.143 80.0082C217.06 80.0948 216.946 80.1457 216.826 80.1501V80.1501Z" fill="#292A2E"/>
<path d="M198.814 80.1501H194.855C194.792 80.1524 194.73 80.1421 194.672 80.1198C194.613 80.0975 194.56 80.0636 194.515 80.0203C194.47 79.9769 194.434 79.925 194.41 79.8675C194.386 79.81 194.373 79.7481 194.373 79.6857C194.373 79.6232 194.386 79.5614 194.41 79.5039C194.434 79.4464 194.47 79.3944 194.515 79.3511C194.56 79.3077 194.613 79.2739 194.672 79.2516C194.73 79.2293 194.792 79.219 194.855 79.2213H198.814C198.877 79.219 198.939 79.2293 198.997 79.2516C199.056 79.2739 199.109 79.3077 199.154 79.3511C199.199 79.3944 199.235 79.4464 199.259 79.5039C199.283 79.5614 199.296 79.6232 199.296 79.6857C199.296 79.7481 199.283 79.81 199.259 79.8675C199.235 79.925 199.199 79.9769 199.154 80.0203C199.109 80.0636 199.056 80.0975 198.997 80.1198C198.939 80.1421 198.877 80.1524 198.814 80.1501V80.1501Z" fill="#367CFF"/>
<path d="M198.814 88.5323H194.855C194.732 88.5323 194.613 88.4833 194.526 88.3961C194.439 88.309 194.39 88.1908 194.39 88.0675C194.39 87.9443 194.439 87.8261 194.526 87.7389C194.613 87.6518 194.732 87.6028 194.855 87.6028H198.814C198.937 87.6028 199.056 87.6518 199.143 87.7389C199.23 87.8261 199.279 87.9443 199.279 88.0675C199.279 88.1908 199.23 88.309 199.143 88.3961C199.056 88.4833 198.937 88.5323 198.814 88.5323V88.5323Z" fill="#367CFF"/>
<path d="M198.814 96.9143H194.855C194.732 96.9143 194.613 96.8654 194.526 96.7782C194.439 96.6911 194.39 96.5729 194.39 96.4496C194.39 96.3263 194.439 96.2081 194.526 96.121C194.613 96.0338 194.732 95.9849 194.855 95.9849H198.814C198.937 95.9849 199.056 96.0338 199.143 96.121C199.23 96.2081 199.279 96.3263 199.279 96.4496C199.279 96.5729 199.23 96.6911 199.143 96.7782C199.056 96.8654 198.937 96.9143 198.814 96.9143V96.9143Z" fill="#367CFF"/>
<path d="M198.814 105.297H194.855C194.732 105.297 194.613 105.248 194.526 105.161C194.439 105.073 194.39 104.955 194.39 104.832C194.39 104.709 194.439 104.59 194.526 104.503C194.613 104.416 194.732 104.367 194.855 104.367H198.814C198.937 104.367 199.056 104.416 199.143 104.503C199.23 104.59 199.279 104.709 199.279 104.832C199.279 104.955 199.23 105.073 199.143 105.161C199.056 105.248 198.937 105.297 198.814 105.297V105.297Z" fill="#367CFF"/>
<path d="M198.814 113.678H194.855C194.792 113.68 194.73 113.67 194.672 113.648C194.613 113.625 194.56 113.591 194.515 113.548C194.47 113.505 194.434 113.453 194.41 113.395C194.386 113.338 194.373 113.276 194.373 113.214C194.373 113.151 194.386 113.089 194.41 113.032C194.434 112.974 194.47 112.922 194.515 112.879C194.56 112.836 194.613 112.802 194.672 112.779C194.73 112.757 194.792 112.747 194.855 112.749H198.814C198.877 112.747 198.939 112.757 198.997 112.779C199.056 112.802 199.109 112.836 199.154 112.879C199.199 112.922 199.235 112.974 199.259 113.032C199.283 113.089 199.296 113.151 199.296 113.214C199.296 113.276 199.283 113.338 199.259 113.395C199.235 113.453 199.199 113.505 199.154 113.548C199.109 113.591 199.056 113.625 198.997 113.648C198.939 113.67 198.877 113.68 198.814 113.678V113.678Z" fill="#367CFF"/>
<path d="M198.814 122.058H194.855C194.732 122.058 194.613 122.009 194.526 121.922C194.439 121.834 194.39 121.716 194.39 121.593C194.39 121.47 194.439 121.351 194.526 121.264C194.613 121.177 194.732 121.128 194.855 121.128H198.814C198.937 121.128 199.056 121.177 199.143 121.264C199.23 121.351 199.279 121.47 199.279 121.593C199.279 121.716 199.23 121.834 199.143 121.922C199.056 122.009 198.937 122.058 198.814 122.058V122.058Z" fill="#367CFF"/>
<path d="M198.814 130.442H194.855C194.732 130.442 194.613 130.393 194.526 130.306C194.439 130.219 194.39 130.101 194.39 129.978C194.39 129.854 194.439 129.736 194.526 129.649C194.613 129.562 194.732 129.513 194.855 129.513H198.814C198.937 129.513 199.056 129.562 199.143 129.649C199.23 129.736 199.279 129.854 199.279 129.978C199.279 130.101 199.23 130.219 199.143 130.306C199.056 130.393 198.937 130.442 198.814 130.442V130.442Z" fill="#367CFF"/>
<path d="M198.814 138.824H194.855C194.792 138.826 194.73 138.816 194.672 138.794C194.613 138.771 194.56 138.737 194.515 138.694C194.47 138.651 194.434 138.599 194.41 138.541C194.386 138.484 194.373 138.422 194.373 138.36C194.373 138.297 194.386 138.235 194.41 138.178C194.434 138.12 194.47 138.068 194.515 138.025C194.56 137.982 194.613 137.948 194.672 137.925C194.73 137.903 194.792 137.893 194.855 137.895H198.814C198.877 137.893 198.939 137.903 198.997 137.925C199.056 137.948 199.109 137.982 199.154 138.025C199.199 138.068 199.235 138.12 199.259 138.178C199.283 138.235 199.296 138.297 199.296 138.36C199.296 138.422 199.283 138.484 199.259 138.541C199.235 138.599 199.199 138.651 199.154 138.694C199.109 138.737 199.056 138.771 198.997 138.794C198.939 138.816 198.877 138.826 198.814 138.824V138.824Z" fill="#367CFF"/>
<path d="M198.814 147.207H194.855C194.732 147.207 194.613 147.158 194.526 147.071C194.439 146.984 194.39 146.866 194.39 146.743C194.39 146.619 194.439 146.501 194.526 146.414C194.613 146.327 194.732 146.278 194.855 146.278H198.814C198.937 146.278 199.056 146.327 199.143 146.414C199.23 146.501 199.279 146.619 199.279 146.743C199.279 146.866 199.23 146.984 199.143 147.071C199.056 147.158 198.937 147.207 198.814 147.207V147.207Z" fill="#367CFF"/>
<path d="M198.814 155.588H194.855C194.732 155.588 194.613 155.539 194.526 155.452C194.439 155.365 194.39 155.247 194.39 155.123C194.39 155 194.439 154.882 194.526 154.795C194.613 154.708 194.732 154.659 194.855 154.659H198.814C198.937 154.659 199.056 154.708 199.143 154.795C199.23 154.882 199.279 155 199.279 155.123C199.279 155.247 199.23 155.365 199.143 155.452C199.056 155.539 198.937 155.588 198.814 155.588V155.588Z" fill="#367CFF"/>
<path d="M198.814 163.97H194.855C194.792 163.972 194.73 163.962 194.672 163.939C194.613 163.917 194.56 163.883 194.515 163.84C194.47 163.796 194.434 163.745 194.41 163.687C194.386 163.63 194.373 163.568 194.373 163.505C194.373 163.443 194.386 163.381 194.41 163.323C194.434 163.266 194.47 163.214 194.515 163.171C194.56 163.127 194.613 163.093 194.672 163.071C194.73 163.049 194.792 163.039 194.855 163.041H198.814C198.877 163.039 198.939 163.049 198.997 163.071C199.056 163.093 199.109 163.127 199.154 163.171C199.199 163.214 199.235 163.266 199.259 163.323C199.283 163.381 199.296 163.443 199.296 163.505C199.296 163.568 199.283 163.63 199.259 163.687C199.235 163.745 199.199 163.796 199.154 163.84C199.109 163.883 199.056 163.917 198.997 163.939C198.939 163.962 198.877 163.972 198.814 163.97V163.97Z" fill="#367CFF"/>
<path d="M198.814 172.352H194.855C194.732 172.352 194.613 172.303 194.526 172.216C194.439 172.129 194.39 172.01 194.39 171.887C194.39 171.764 194.439 171.646 194.526 171.558C194.613 171.471 194.732 171.422 194.855 171.422H198.814C198.937 171.422 199.056 171.471 199.143 171.558C199.23 171.646 199.279 171.764 199.279 171.887C199.279 172.01 199.23 172.129 199.143 172.216C199.056 172.303 198.937 172.352 198.814 172.352V172.352Z" fill="#367CFF"/>
<path d="M198.814 180.734H194.855C194.732 180.734 194.613 180.685 194.526 180.598C194.439 180.511 194.39 180.392 194.39 180.269C194.39 180.146 194.439 180.028 194.526 179.941C194.613 179.853 194.732 179.804 194.855 179.804H198.814C198.937 179.804 199.056 179.853 199.143 179.941C199.23 180.028 199.279 180.146 199.279 180.269C199.279 180.392 199.23 180.511 199.143 180.598C199.056 180.685 198.937 180.734 198.814 180.734Z" fill="#367CFF"/>
<path d="M198.814 189.115H194.855C194.792 189.118 194.73 189.107 194.672 189.085C194.613 189.063 194.56 189.029 194.515 188.986C194.47 188.942 194.434 188.89 194.41 188.833C194.386 188.775 194.373 188.713 194.373 188.651C194.373 188.589 194.386 188.527 194.41 188.469C194.434 188.412 194.47 188.36 194.515 188.316C194.56 188.273 194.613 188.239 194.672 188.217C194.73 188.195 194.792 188.184 194.855 188.187H198.814C198.877 188.184 198.939 188.195 198.997 188.217C199.056 188.239 199.109 188.273 199.154 188.316C199.199 188.36 199.235 188.412 199.259 188.469C199.283 188.527 199.296 188.589 199.296 188.651C199.296 188.713 199.283 188.775 199.259 188.833C199.235 188.89 199.199 188.942 199.154 188.986C199.109 189.029 199.056 189.063 198.997 189.085C198.939 189.107 198.877 189.118 198.814 189.115V189.115Z" fill="#367CFF"/>
<path d="M225.188 88.5324H215.655C215.592 88.5347 215.53 88.5244 215.472 88.5021C215.414 88.4798 215.36 88.446 215.315 88.4026C215.27 88.3593 215.235 88.3073 215.21 88.2498C215.186 88.1923 215.173 88.1305 215.173 88.068C215.173 88.0055 215.186 87.9437 215.21 87.8862C215.235 87.8287 215.27 87.7768 215.315 87.7334C215.36 87.6901 215.414 87.6562 215.472 87.6339C215.53 87.6116 215.592 87.6013 215.655 87.6036H225.188C225.25 87.6013 225.313 87.6116 225.371 87.6339C225.429 87.6562 225.483 87.6901 225.528 87.7334C225.572 87.7768 225.608 87.8287 225.633 87.8862C225.657 87.9437 225.67 88.0055 225.67 88.068C225.67 88.1305 225.657 88.1923 225.633 88.2498C225.608 88.3073 225.572 88.3593 225.528 88.4026C225.483 88.446 225.429 88.4798 225.371 88.5021C225.313 88.5244 225.25 88.5347 225.188 88.5324V88.5324Z" fill="#292A2E"/>
<path d="M216.826 138.824H206.361C206.299 138.826 206.237 138.816 206.178 138.794C206.12 138.771 206.067 138.737 206.022 138.694C205.977 138.651 205.941 138.599 205.916 138.541C205.892 138.484 205.879 138.422 205.879 138.36C205.879 138.297 205.892 138.235 205.916 138.178C205.941 138.12 205.977 138.068 206.022 138.025C206.067 137.982 206.12 137.948 206.178 137.925C206.237 137.903 206.299 137.893 206.361 137.895H216.826C216.946 137.9 217.06 137.95 217.143 138.037C217.227 138.124 217.273 138.239 217.273 138.36C217.273 138.48 217.227 138.595 217.143 138.682C217.06 138.769 216.946 138.82 216.826 138.824V138.824Z" fill="#292A2E"/>
<path d="M225.188 147.207H215.655C215.532 147.207 215.413 147.158 215.326 147.071C215.239 146.984 215.19 146.866 215.19 146.743C215.19 146.619 215.239 146.501 215.326 146.414C215.413 146.327 215.532 146.278 215.655 146.278H225.188C225.311 146.278 225.429 146.327 225.517 146.414C225.604 146.501 225.653 146.619 225.653 146.743C225.653 146.866 225.604 146.984 225.517 147.071C225.429 147.158 225.311 147.207 225.188 147.207V147.207Z" fill="#292A2E"/>
<path d="M291.629 96.9146H222.158C222.035 96.9146 221.917 96.8656 221.829 96.7785C221.742 96.6913 221.693 96.5731 221.693 96.4498C221.693 96.3266 221.742 96.2084 221.829 96.1212C221.917 96.0341 222.035 95.9851 222.158 95.9851H291.629C291.752 95.9851 291.87 96.0341 291.957 96.1212C292.044 96.2084 292.093 96.3266 292.093 96.4498C292.093 96.5731 292.044 96.6913 291.957 96.7785C291.87 96.8656 291.752 96.9146 291.629 96.9146V96.9146Z" fill="#292A2E"/>
<path d="M341.889 96.9146H301.687C301.564 96.9146 301.446 96.8656 301.359 96.7785C301.271 96.6913 301.222 96.5731 301.222 96.4498C301.222 96.3266 301.271 96.2084 301.359 96.1212C301.446 96.0341 301.564 95.9851 301.687 95.9851H341.889C342.012 95.9851 342.13 96.0341 342.217 96.1212C342.305 96.2084 342.354 96.3266 342.354 96.4498C342.354 96.5731 342.305 96.6913 342.217 96.7785C342.13 96.8656 342.012 96.9146 341.889 96.9146V96.9146Z" fill="#0CBC8B"/>
<path d="M363.463 96.9146H351.142C351.019 96.9146 350.901 96.8656 350.813 96.7785C350.726 96.6913 350.677 96.5731 350.677 96.4498C350.677 96.3266 350.726 96.2084 350.813 96.1212C350.901 96.0341 351.019 95.9851 351.142 95.9851H363.464C363.587 95.9851 363.705 96.0341 363.793 96.1212C363.88 96.2084 363.929 96.3266 363.929 96.4498C363.929 96.5731 363.88 96.6913 363.793 96.7785C363.705 96.8656 363.587 96.9146 363.464 96.9146H363.463Z" fill="#292A2E"/>
<path d="M319.506 113.678H222.158C222.096 113.68 222.034 113.67 221.975 113.648C221.917 113.626 221.864 113.592 221.819 113.548C221.774 113.505 221.738 113.453 221.714 113.396C221.689 113.338 221.677 113.276 221.677 113.214C221.677 113.151 221.689 113.089 221.714 113.032C221.738 112.974 221.774 112.923 221.819 112.879C221.864 112.836 221.917 112.802 221.975 112.78C222.034 112.757 222.096 112.747 222.158 112.749H319.506C319.568 112.747 319.631 112.757 319.689 112.78C319.747 112.802 319.801 112.836 319.846 112.879C319.891 112.923 319.926 112.974 319.951 113.032C319.975 113.089 319.988 113.151 319.988 113.214C319.988 113.276 319.975 113.338 319.951 113.396C319.926 113.453 319.891 113.505 319.846 113.548C319.801 113.592 319.747 113.626 319.689 113.648C319.631 113.67 319.568 113.68 319.506 113.678V113.678Z" fill="#292A2E"/>
<path d="M341.889 113.678H329.567C329.505 113.68 329.443 113.67 329.384 113.648C329.326 113.626 329.273 113.592 329.228 113.548C329.183 113.505 329.147 113.453 329.123 113.396C329.098 113.338 329.086 113.276 329.086 113.214C329.086 113.151 329.098 113.089 329.123 113.032C329.147 112.974 329.183 112.923 329.228 112.879C329.273 112.836 329.326 112.802 329.384 112.78C329.443 112.757 329.505 112.747 329.567 112.749H341.89C341.953 112.747 342.015 112.757 342.073 112.78C342.132 112.802 342.185 112.836 342.23 112.879C342.275 112.923 342.31 112.974 342.335 113.032C342.359 113.089 342.372 113.151 342.372 113.214C342.372 113.276 342.359 113.338 342.335 113.396C342.31 113.453 342.275 113.505 342.23 113.548C342.185 113.592 342.132 113.626 342.073 113.648C342.015 113.67 341.953 113.68 341.89 113.678H341.889Z" fill="#367CFF"/>
<path d="M232.622 105.297H222.158C222.035 105.297 221.917 105.248 221.829 105.161C221.742 105.073 221.693 104.955 221.693 104.832C221.693 104.709 221.742 104.59 221.829 104.503C221.917 104.416 222.035 104.367 222.158 104.367H232.622C232.746 104.367 232.864 104.416 232.951 104.503C233.038 104.59 233.087 104.709 233.087 104.832C233.087 104.955 233.038 105.073 232.951 105.161C232.864 105.248 232.746 105.297 232.622 105.297V105.297Z" fill="#0CBC8B"/>
<path d="M314.014 105.297H242.682C242.559 105.297 242.441 105.248 242.354 105.161C242.266 105.073 242.218 104.955 242.218 104.832C242.218 104.709 242.266 104.59 242.354 104.503C242.441 104.416 242.559 104.367 242.682 104.367H314.014C314.137 104.367 314.255 104.416 314.342 104.503C314.429 104.59 314.478 104.709 314.478 104.832C314.478 104.955 314.429 105.073 314.342 105.161C314.255 105.248 314.137 105.297 314.014 105.297V105.297Z" fill="#367CFF"/>
<path d="M363.544 105.297H325.203C325.079 105.297 324.961 105.248 324.874 105.161C324.787 105.073 324.738 104.955 324.738 104.832C324.738 104.709 324.787 104.59 324.874 104.503C324.961 104.416 325.079 104.367 325.203 104.367H363.544C363.667 104.367 363.785 104.416 363.873 104.503C363.96 104.59 364.009 104.709 364.009 104.832C364.009 104.955 363.96 105.073 363.873 105.161C363.785 105.248 363.667 105.297 363.544 105.297V105.297Z" fill="#292A2E"/>
<path d="M291.629 122.058H222.158C222.035 122.058 221.917 122.009 221.829 121.922C221.742 121.835 221.693 121.716 221.693 121.593C221.693 121.47 221.742 121.352 221.829 121.265C221.917 121.177 222.035 121.128 222.158 121.128H291.629C291.752 121.128 291.87 121.177 291.957 121.265C292.044 121.352 292.093 121.47 292.093 121.593C292.093 121.716 292.044 121.835 291.957 121.922C291.87 122.009 291.752 122.058 291.629 122.058V122.058Z" fill="#292A2E"/>
<path d="M323.304 122.058H301.689C301.565 122.058 301.447 122.009 301.36 121.922C301.273 121.835 301.224 121.716 301.224 121.593C301.224 121.47 301.273 121.352 301.36 121.265C301.447 121.177 301.565 121.128 301.689 121.128H323.304C323.427 121.128 323.546 121.177 323.633 121.265C323.72 121.352 323.769 121.47 323.769 121.593C323.769 121.716 323.72 121.835 323.633 121.922C323.546 122.009 323.427 122.058 323.304 122.058V122.058Z" fill="#0CBC8B"/>
<path d="M363.463 122.058H332.555C332.432 122.058 332.314 122.009 332.227 121.922C332.14 121.835 332.091 121.716 332.091 121.593C332.091 121.47 332.14 121.352 332.227 121.265C332.314 121.177 332.432 121.128 332.555 121.128H363.463C363.586 121.128 363.704 121.177 363.792 121.265C363.879 121.352 363.928 121.47 363.928 121.593C363.928 121.716 363.879 121.835 363.792 121.922C363.704 122.009 363.586 122.058 363.463 122.058V122.058Z" fill="#292A2E"/>
<path d="M232.622 130.442H222.158C222.035 130.442 221.917 130.393 221.829 130.306C221.742 130.219 221.693 130.101 221.693 129.978C221.693 129.854 221.742 129.736 221.829 129.649C221.917 129.562 222.035 129.513 222.158 129.513H232.622C232.746 129.513 232.864 129.562 232.951 129.649C233.038 129.736 233.087 129.854 233.087 129.978C233.087 130.101 233.038 130.219 232.951 130.306C232.864 130.393 232.746 130.442 232.622 130.442V130.442Z" fill="#367CFF"/>
<path d="M314.014 130.442H242.682C242.559 130.442 242.441 130.393 242.354 130.306C242.266 130.219 242.218 130.101 242.218 129.978C242.218 129.854 242.266 129.736 242.354 129.649C242.441 129.562 242.559 129.513 242.682 129.513H314.014C314.137 129.513 314.255 129.562 314.342 129.649C314.429 129.736 314.478 129.854 314.478 129.978C314.478 130.101 314.429 130.219 314.342 130.306C314.255 130.393 314.137 130.442 314.014 130.442V130.442Z" fill="#0CBC8B"/>
<path d="M289.77 163.97H220.3C220.177 163.97 220.058 163.922 219.971 163.834C219.884 163.747 219.835 163.629 219.835 163.506C219.835 163.382 219.884 163.264 219.971 163.177C220.058 163.09 220.177 163.041 220.3 163.041H289.77C289.893 163.041 290.011 163.09 290.098 163.177C290.186 163.264 290.235 163.382 290.235 163.506C290.235 163.629 290.186 163.747 290.098 163.834C290.011 163.922 289.893 163.97 289.77 163.97Z" fill="#292A2E"/>
<path d="M340.031 163.97H299.829C299.706 163.97 299.587 163.922 299.5 163.834C299.413 163.747 299.364 163.629 299.364 163.506C299.364 163.382 299.413 163.264 299.5 163.177C299.587 163.09 299.706 163.041 299.829 163.041H340.031C340.154 163.041 340.272 163.09 340.359 163.177C340.446 163.264 340.495 163.382 340.495 163.506C340.495 163.629 340.446 163.747 340.359 163.834C340.272 163.922 340.154 163.97 340.031 163.97Z" fill="#367CFF"/>
<path d="M249.352 155.588H220.3C220.177 155.588 220.058 155.539 219.971 155.452C219.884 155.365 219.835 155.247 219.835 155.123C219.835 155 219.884 154.882 219.971 154.795C220.058 154.708 220.177 154.659 220.3 154.659H249.352C249.476 154.659 249.594 154.708 249.681 154.795C249.768 154.882 249.817 155 249.817 155.123C249.817 155.247 249.768 155.365 249.681 155.452C249.594 155.539 249.476 155.588 249.352 155.588V155.588Z" fill="#0CBC8B"/>
<path d="M312.153 155.588H259.408C259.285 155.588 259.166 155.539 259.079 155.452C258.992 155.365 258.943 155.247 258.943 155.123C258.943 155 258.992 154.882 259.079 154.795C259.166 154.708 259.285 154.659 259.408 154.659H312.153C312.276 154.659 312.394 154.708 312.482 154.795C312.569 154.882 312.618 155 312.618 155.123C312.618 155.247 312.569 155.365 312.482 155.452C312.394 155.539 312.276 155.588 312.153 155.588V155.588Z" fill="#367CFF"/>
<path d="M361.686 155.588H323.344C323.221 155.588 323.103 155.539 323.016 155.452C322.928 155.365 322.879 155.247 322.879 155.123C322.879 155 322.928 154.882 323.016 154.795C323.103 154.708 323.221 154.659 323.344 154.659H361.686C361.809 154.659 361.927 154.708 362.014 154.795C362.101 154.882 362.15 155 362.15 155.123C362.15 155.247 362.101 155.365 362.014 155.452C361.927 155.539 361.809 155.588 361.686 155.588V155.588Z" fill="#292A2E"/>
<path d="M317.648 180.734H220.3C220.177 180.734 220.058 180.685 219.971 180.598C219.884 180.511 219.835 180.392 219.835 180.269C219.835 180.146 219.884 180.028 219.971 179.941C220.058 179.853 220.177 179.804 220.3 179.804H317.648C317.771 179.804 317.889 179.853 317.976 179.941C318.063 180.028 318.112 180.146 318.112 180.269C318.112 180.392 318.063 180.511 317.976 180.598C317.889 180.685 317.771 180.734 317.648 180.734Z" fill="#367CFF"/>
<path d="M346.302 180.734H327.708C327.585 180.734 327.466 180.685 327.379 180.598C327.292 180.511 327.243 180.392 327.243 180.269C327.243 180.146 327.292 180.028 327.379 179.941C327.466 179.853 327.585 179.804 327.708 179.804H346.302C346.426 179.804 346.544 179.853 346.631 179.941C346.718 180.028 346.767 180.146 346.767 180.269C346.767 180.392 346.718 180.511 346.631 180.598C346.544 180.685 346.426 180.734 346.302 180.734V180.734Z" fill="#292A2E"/>
<path d="M230.764 172.352H220.3C220.237 172.354 220.175 172.344 220.117 172.322C220.059 172.299 220.005 172.266 219.96 172.222C219.915 172.179 219.88 172.127 219.855 172.069C219.831 172.012 219.818 171.95 219.818 171.888C219.818 171.825 219.831 171.763 219.855 171.706C219.88 171.648 219.915 171.596 219.96 171.553C220.005 171.51 220.059 171.476 220.117 171.454C220.175 171.431 220.237 171.421 220.3 171.423H230.764C230.826 171.421 230.888 171.431 230.947 171.454C231.005 171.476 231.058 171.51 231.103 171.553C231.148 171.596 231.184 171.648 231.208 171.706C231.233 171.763 231.245 171.825 231.245 171.888C231.245 171.95 231.233 172.012 231.208 172.069C231.184 172.127 231.148 172.179 231.103 172.222C231.058 172.266 231.005 172.299 230.947 172.322C230.888 172.344 230.826 172.354 230.764 172.352V172.352Z" fill="#367CFF"/>
<path d="M312.153 172.352H240.823C240.76 172.354 240.698 172.344 240.64 172.322C240.581 172.299 240.528 172.266 240.483 172.222C240.438 172.179 240.402 172.127 240.378 172.069C240.353 172.012 240.341 171.95 240.341 171.888C240.341 171.825 240.353 171.763 240.378 171.706C240.402 171.648 240.438 171.596 240.483 171.553C240.528 171.51 240.581 171.476 240.64 171.454C240.698 171.431 240.76 171.421 240.823 171.423H312.153C312.215 171.421 312.277 171.431 312.336 171.454C312.394 171.476 312.447 171.51 312.492 171.553C312.537 171.596 312.573 171.648 312.597 171.706C312.622 171.763 312.635 171.825 312.635 171.888C312.635 171.95 312.622 172.012 312.597 172.069C312.573 172.127 312.537 172.179 312.492 172.222C312.447 172.266 312.394 172.299 312.336 172.322C312.277 172.344 312.215 172.354 312.153 172.352V172.352Z" fill="#292A2E"/>
<path d="M361.686 172.352H323.344C323.282 172.354 323.219 172.344 323.161 172.322C323.103 172.299 323.049 172.266 323.005 172.222C322.96 172.179 322.924 172.127 322.899 172.069C322.875 172.012 322.862 171.95 322.862 171.888C322.862 171.825 322.875 171.763 322.899 171.706C322.924 171.648 322.96 171.596 323.005 171.553C323.049 171.51 323.103 171.476 323.161 171.454C323.219 171.431 323.282 171.421 323.344 171.423H361.686C361.748 171.421 361.81 171.431 361.869 171.454C361.927 171.476 361.98 171.51 362.025 171.553C362.07 171.596 362.106 171.648 362.13 171.706C362.155 171.763 362.167 171.825 362.167 171.888C362.167 171.95 362.155 172.012 362.13 172.069C362.106 172.127 362.07 172.179 362.025 172.222C361.98 172.266 361.927 172.299 361.869 172.322C361.81 172.344 361.748 172.354 361.686 172.352V172.352Z" fill="#0CBC8B"/>
<path d="M289.77 189.116H220.3C220.177 189.116 220.058 189.067 219.971 188.98C219.884 188.893 219.835 188.775 219.835 188.651C219.835 188.528 219.884 188.41 219.971 188.323C220.058 188.236 220.177 188.187 220.3 188.187H289.77C289.893 188.187 290.011 188.236 290.098 188.323C290.186 188.41 290.235 188.528 290.235 188.651C290.235 188.775 290.186 188.893 290.098 188.98C290.011 189.067 289.893 189.116 289.77 189.116V189.116Z" fill="#0CBC8B"/>
<path d="M321.446 189.116H299.83C299.707 189.116 299.589 189.067 299.502 188.98C299.414 188.893 299.365 188.775 299.365 188.651C299.365 188.528 299.414 188.41 299.502 188.323C299.589 188.236 299.707 188.187 299.83 188.187H321.446C321.569 188.187 321.687 188.236 321.774 188.323C321.861 188.41 321.91 188.528 321.91 188.651C321.91 188.775 321.861 188.893 321.774 188.98C321.687 189.067 321.569 189.116 321.446 189.116V189.116Z" fill="#292A2E"/>
<path d="M361.605 189.116H330.696C330.573 189.116 330.455 189.067 330.368 188.98C330.281 188.893 330.232 188.775 330.232 188.651C330.232 188.528 330.281 188.41 330.368 188.323C330.455 188.236 330.573 188.187 330.696 188.187H361.604C361.727 188.187 361.846 188.236 361.933 188.323C362.02 188.41 362.069 188.528 362.069 188.651C362.069 188.775 362.02 188.893 361.933 188.98C361.846 189.067 361.727 189.116 361.604 189.116H361.605Z" fill="#367CFF"/>
<path d="M188.561 193.695C188.5 193.695 188.439 193.683 188.383 193.66C188.326 193.636 188.275 193.602 188.232 193.559C188.189 193.516 188.155 193.465 188.131 193.408C188.108 193.352 188.096 193.292 188.096 193.231V65.5197C188.096 65.3964 188.145 65.2782 188.232 65.191C188.319 65.1039 188.437 65.0549 188.561 65.0549C188.684 65.0549 188.802 65.1039 188.889 65.191C188.976 65.2782 189.025 65.3964 189.025 65.5197V193.231C189.025 193.292 189.013 193.352 188.99 193.408C188.967 193.465 188.932 193.516 188.889 193.559C188.846 193.602 188.795 193.636 188.738 193.66C188.682 193.683 188.622 193.695 188.561 193.695Z" fill="#292A2E"/>
<path d="M167.309 71.3228H147.186C147.062 71.3228 146.944 71.2738 146.857 71.1867C146.77 71.0995 146.721 70.9813 146.721 70.858C146.721 70.7348 146.77 70.6166 146.857 70.5294C146.944 70.4423 147.062 70.3933 147.186 70.3933H167.307C167.43 70.3933 167.548 70.4423 167.635 70.5294C167.722 70.6166 167.771 70.7348 167.771 70.858C167.771 70.9813 167.722 71.0995 167.635 71.1867C167.548 71.2738 167.43 71.3228 167.307 71.3228H167.309Z" fill="#292A2E"/>
<path d="M161.249 80.487H147.186C147.124 80.4893 147.061 80.479 147.003 80.4567C146.945 80.4344 146.892 80.4005 146.847 80.3572C146.802 80.3138 146.766 80.2619 146.741 80.2044C146.717 80.1469 146.704 80.0851 146.704 80.0226C146.704 79.9601 146.717 79.8983 146.741 79.8408C146.766 79.7833 146.802 79.7314 146.847 79.688C146.892 79.6446 146.945 79.6108 147.003 79.5885C147.061 79.5662 147.124 79.5559 147.186 79.5582H161.246C161.366 79.5626 161.48 79.6135 161.564 79.7001C161.647 79.7867 161.694 79.9023 161.694 80.0226C161.694 80.1429 161.647 80.2585 161.564 80.3451C161.48 80.4317 161.366 80.4826 161.246 80.487H161.249Z" fill="#292A2E"/>
<path d="M173.612 89.6519H147.186C147.063 89.6519 146.944 89.6029 146.857 89.5158C146.77 89.4286 146.721 89.3104 146.721 89.1871C146.721 89.0639 146.77 88.9457 146.857 88.8585C146.944 88.7714 147.063 88.7224 147.186 88.7224H173.609C173.733 88.7224 173.851 88.7714 173.938 88.8585C174.025 88.9457 174.074 89.0639 174.074 89.1871C174.074 89.3104 174.025 89.4286 173.938 89.5158C173.851 89.6029 173.733 89.6519 173.609 89.6519H173.612Z" fill="#292A2E"/>
<path d="M178.541 98.8161H156.481C156.419 98.8184 156.357 98.8081 156.298 98.7858C156.24 98.7635 156.187 98.7296 156.142 98.6863C156.097 98.6429 156.061 98.591 156.037 98.5335C156.012 98.476 156 98.4142 156 98.3517C156 98.2892 156.012 98.2274 156.037 98.1699C156.061 98.1124 156.097 98.0605 156.142 98.0171C156.187 97.9737 156.24 97.9399 156.298 97.9176C156.357 97.8953 156.419 97.885 156.481 97.8873H178.541C178.603 97.885 178.665 97.8953 178.724 97.9176C178.782 97.9399 178.835 97.9737 178.88 98.0171C178.925 98.0605 178.961 98.1124 178.986 98.1699C179.01 98.2274 179.023 98.2892 179.023 98.3517C179.023 98.4142 179.01 98.476 178.986 98.5335C178.961 98.591 178.925 98.6429 178.88 98.6863C178.835 98.7296 178.782 98.7635 178.724 98.7858C178.665 98.8081 178.603 98.8184 178.541 98.8161V98.8161Z" fill="#292A2E"/>
<path d="M167.875 107.981H156.482C156.358 107.981 156.24 107.932 156.153 107.845C156.066 107.758 156.017 107.64 156.017 107.516C156.017 107.393 156.066 107.275 156.153 107.188C156.24 107.1 156.358 107.052 156.482 107.052H167.875C167.998 107.052 168.116 107.1 168.203 107.188C168.291 107.275 168.34 107.393 168.34 107.516C168.34 107.64 168.291 107.758 168.203 107.845C168.116 107.932 167.998 107.981 167.875 107.981V107.981Z" fill="#292A2E"/>
<path d="M176.601 117.146H156.482C156.358 117.146 156.24 117.097 156.153 117.01C156.066 116.923 156.017 116.804 156.017 116.681C156.017 116.558 156.066 116.44 156.153 116.352C156.24 116.265 156.358 116.216 156.482 116.216H176.601C176.724 116.216 176.842 116.265 176.929 116.352C177.016 116.44 177.065 116.558 177.065 116.681C177.065 116.804 177.016 116.923 176.929 117.01C176.842 117.097 176.724 117.146 176.601 117.146Z" fill="#292A2E"/>
<path d="M162.703 126.31H147.186C147.063 126.31 146.944 126.261 146.857 126.174C146.77 126.087 146.721 125.969 146.721 125.845C146.721 125.722 146.77 125.604 146.857 125.517C146.944 125.43 147.063 125.381 147.186 125.381H162.7C162.824 125.381 162.942 125.43 163.029 125.517C163.116 125.604 163.165 125.722 163.165 125.845C163.165 125.969 163.116 126.087 163.029 126.174C162.942 126.261 162.824 126.31 162.7 126.31H162.703Z" fill="#292A2E"/>
<path d="M157.369 135.475H147.186C147.063 135.475 146.944 135.426 146.857 135.339C146.77 135.252 146.721 135.133 146.721 135.01C146.721 134.887 146.77 134.769 146.857 134.682C146.944 134.594 147.063 134.545 147.186 134.545H157.367C157.49 134.545 157.608 134.594 157.695 134.682C157.783 134.769 157.832 134.887 157.832 135.01C157.832 135.133 157.783 135.252 157.695 135.339C157.608 135.426 157.49 135.475 157.367 135.475H157.369Z" fill="#292A2E"/>
<path d="M198.182 69.3571V69.5246L203.99 71.6802C204.073 71.714 204.144 71.7719 204.194 71.8465C204.243 71.9211 204.269 72.0089 204.269 72.0985V72.2565C204.27 72.3265 204.253 72.3957 204.22 72.4575C204.187 72.5192 204.139 72.5716 204.081 72.6096C204.022 72.6511 203.953 72.6771 203.882 72.6852C203.811 72.6933 203.738 72.6833 203.672 72.6561L197.111 70.0909C197.029 70.0583 196.959 70.002 196.909 69.9291C196.86 69.8563 196.833 69.7702 196.832 69.682V69.2085C196.832 69.12 196.858 69.0334 196.908 68.9603C196.958 68.8873 197.029 68.8312 197.111 68.7996L203.672 66.2282C203.725 66.2097 203.782 66.2002 203.838 66.2C203.924 66.2018 204.008 66.2277 204.081 66.2746C204.14 66.3145 204.188 66.3686 204.221 66.4319C204.254 66.4952 204.27 66.5658 204.269 66.6371V66.7945C204.271 66.8832 204.245 66.9702 204.195 67.0436C204.145 67.1169 204.073 67.1728 203.99 67.2034L198.182 69.3571Z" fill="#367CFF"/>
<path d="M209.696 64.3298L206.22 74.9698C206.192 75.0587 206.137 75.1364 206.061 75.1915C205.986 75.2467 205.895 75.2764 205.802 75.2765C205.735 75.2776 205.668 75.262 205.608 75.2311C205.548 75.2003 205.496 75.1551 205.458 75.0996C205.416 75.0446 205.388 74.9809 205.375 74.9132C205.362 74.8456 205.365 74.7759 205.384 74.7095L208.859 64.079C208.889 63.9889 208.946 63.9103 209.023 63.8542C209.1 63.798 209.192 63.767 209.287 63.7654C209.354 63.7653 209.42 63.7813 209.48 63.8121C209.54 63.8429 209.591 63.8875 209.63 63.9422C209.672 63.9969 209.699 64.0606 209.71 64.1281C209.722 64.1955 209.717 64.2647 209.696 64.3298Z" fill="#367CFF"/>
<path d="M218.23 69.2086V69.6821C218.231 69.7694 218.206 69.8551 218.158 69.928C218.11 70.001 218.042 70.0578 217.961 70.091L211.391 72.6561C211.326 72.6831 211.255 72.6929 211.185 72.6848C211.115 72.6767 211.048 72.6508 210.991 72.6097C210.932 72.5718 210.883 72.5196 210.849 72.458C210.815 72.3963 210.797 72.3271 210.796 72.2566V72.0986C210.795 72.0076 210.822 71.9184 210.874 71.8434C210.925 71.7685 210.999 71.7115 211.084 71.6803L216.892 69.5247V69.3572L211.084 67.201C210.999 67.1727 210.925 67.1177 210.873 67.0441C210.821 66.9705 210.794 66.8822 210.796 66.7921V66.6347C210.796 66.5629 210.814 66.4923 210.848 66.4291C210.882 66.3659 210.931 66.3121 210.991 66.2722C211.063 66.2253 211.147 66.1995 211.233 66.1975C211.286 66.1969 211.34 66.2065 211.391 66.2258L217.961 68.7972C218.043 68.8296 218.112 68.8865 218.161 68.9602C218.209 69.0339 218.233 69.1206 218.23 69.2086V69.2086Z" fill="#367CFF"/>
<path d="M50.5152 367.066C46.7264 367.065 42.9937 366.149 39.635 364.396C36.2762 362.643 33.3908 360.104 31.2243 356.995C29.0578 353.887 27.6743 350.301 27.1916 346.543C26.709 342.785 27.1413 338.966 28.452 335.411C29.7822 331.802 63.9028 243.723 69.8453 228.416L110.906 252.311C107.567 260.919 95.4665 293.545 85.7453 319.827L101.896 318.071L106.976 361.07L53.0597 366.929C52.2146 367.02 51.3652 367.066 50.5152 367.066V367.066Z" fill="#367CFF"/>
<path d="M184.821 210.103C184.676 210.084 180.725 224.954 149.887 222.64C128.538 221.041 123.333 206.509 122.844 206.509C125.145 206.02 128.883 205.512 129.905 204.966C133.267 203.16 135.716 200.961 136.949 196.242C137.913 192.552 138.404 178.345 138.404 171.218L171.255 178.6C170.797 186.64 167.592 205.28 178.825 208.579C180.694 209.121 182.707 209.623 184.821 210.103Z" fill="#E98862"/>
<path d="M170.118 194.404C157.168 195.426 140.531 189.958 137.371 172.679L134.52 157.089C131.359 139.811 137.873 124.144 154.142 121.169C170.41 118.193 185.133 129.976 188.292 147.255L189.555 154.157C190.767 160.786 193.225 192.581 170.118 194.404Z" fill="#E98862"/>
<path d="M108.815 208.898C97.1773 209.762 85.3105 211.022 76.7471 218.95C66.4339 228.498 64.565 240.238 71.1446 272.546C76.8055 300.345 74.5596 312.493 78.3471 363.79C78.4587 365.301 78.6977 368.427 78.6977 368.427L203.191 368.221C203.191 368.221 214.857 300.162 221.297 268.771C226.195 244.907 239.059 215.936 184.818 210.098C184.678 210.082 141.177 206.497 108.815 208.898Z" fill="#367CFF"/>
<path d="M78.7001 368.741C78.6189 368.742 78.5409 368.71 78.4824 368.654C78.424 368.598 78.3896 368.521 78.3865 368.44L74.4849 267.167C74.4833 267.126 74.4898 267.085 74.5041 267.046C74.5184 267.008 74.5402 266.972 74.5682 266.942C74.5962 266.912 74.6299 266.887 74.6674 266.87C74.7049 266.853 74.7453 266.843 74.7865 266.842C74.8281 266.838 74.8699 266.844 74.9093 266.857C74.9487 266.871 74.9848 266.893 75.0154 266.921C75.046 266.95 75.0704 266.984 75.087 267.022C75.1036 267.06 75.1122 267.102 75.112 267.143L79.0137 368.416C79.0167 368.499 78.9866 368.58 78.9301 368.641C78.8735 368.702 78.7951 368.738 78.712 368.741L78.7001 368.741Z" fill="#0C0C0C"/>
<path d="M278.465 245.057L287.211 225.437C287.404 225.006 287.683 224.62 288.033 224.303C288.383 223.986 288.795 223.745 289.242 223.596C289.69 223.447 290.164 223.393 290.634 223.437C291.104 223.481 291.559 223.622 291.972 223.852C292.72 224.3 293.276 225.01 293.53 225.845C293.784 226.679 293.72 227.578 293.348 228.368L291.473 232.575L303.443 222.052C304.753 220.86 307.125 220.233 308.367 221.791C308.884 222.36 309.193 223.087 309.243 223.853C309.294 224.62 309.083 225.381 308.646 226.013C308.66 226.022 308.673 226.033 308.685 226.045C308.693 226.056 308.699 226.067 308.705 226.079L310.726 224.24C311.1 223.899 311.546 223.646 312.031 223.5C312.515 223.353 313.026 223.317 313.527 223.393C314.027 223.469 314.504 223.656 314.923 223.94C315.342 224.223 315.693 224.597 315.949 225.034C316.339 225.729 316.478 226.537 316.344 227.323C316.209 228.109 315.808 228.825 315.209 229.351L314.349 230.134C314.36 230.169 314.365 230.206 314.363 230.243C315.067 229.849 315.888 229.718 316.679 229.874C317.471 230.029 318.181 230.462 318.683 231.093C319.212 231.8 319.455 232.68 319.363 233.558C319.272 234.436 318.853 235.248 318.189 235.83L316.054 237.775C316.103 237.768 316.154 237.774 316.201 237.791C316.248 237.808 316.29 237.836 316.324 237.873C316.362 237.919 316.386 237.974 316.393 238.033C317.117 237.856 317.879 237.922 318.562 238.22C319.245 238.519 319.811 239.033 320.174 239.685C320.54 240.377 320.662 241.173 320.52 241.944C320.378 242.714 319.98 243.414 319.39 243.93L301.369 260.337C298.847 262.633 295.698 264.123 292.324 264.616C288.951 265.11 285.506 264.585 282.433 263.109V263.109C279.783 261.836 277.734 259.58 276.72 256.82C275.707 254.06 275.81 251.014 277.007 248.329L278.465 245.057Z" fill="#E98862"/>
<g opacity="0.2">
<path d="M296.846 236.484C296.902 236.545 296.979 236.581 297.061 236.586C297.143 236.59 297.224 236.562 297.285 236.507L308.656 226.485C308.719 226.43 308.757 226.353 308.762 226.27C308.767 226.187 308.739 226.105 308.684 226.042C308.629 225.98 308.552 225.942 308.469 225.937C308.386 225.931 308.304 225.959 308.241 226.014L296.871 236.036C296.84 236.063 296.814 236.096 296.796 236.133C296.778 236.17 296.767 236.21 296.765 236.252C296.762 236.293 296.768 236.334 296.781 236.373C296.794 236.412 296.815 236.448 296.842 236.479L296.846 236.484Z" fill="#0C0C0C"/>
</g>
<g opacity="0.2">
<path d="M301.128 241.621C301.183 241.682 301.261 241.718 301.343 241.722C301.425 241.726 301.505 241.698 301.567 241.644L314.257 230.46C314.288 230.433 314.313 230.4 314.331 230.363C314.349 230.326 314.36 230.285 314.362 230.244C314.365 230.203 314.359 230.162 314.346 230.123C314.333 230.084 314.312 230.048 314.285 230.017C314.228 229.957 314.151 229.921 314.069 229.915C313.986 229.91 313.905 229.936 313.842 229.989L301.152 241.173C301.121 241.201 301.095 241.234 301.077 241.271C301.059 241.308 301.049 241.348 301.046 241.389C301.043 241.43 301.049 241.471 301.062 241.51C301.076 241.549 301.097 241.585 301.124 241.616L301.128 241.621Z" fill="#0C0C0C"/>
</g>
<g opacity="0.2">
<path d="M305.733 247.212C305.789 247.272 305.866 247.309 305.948 247.313C306.03 247.317 306.11 247.289 306.172 247.234L316.295 238.313C316.357 238.258 316.395 238.18 316.4 238.097C316.405 238.014 316.377 237.932 316.322 237.87C316.267 237.808 316.189 237.77 316.106 237.765C316.023 237.759 315.942 237.787 315.879 237.842L305.757 246.764C305.726 246.791 305.701 246.824 305.683 246.861C305.664 246.898 305.654 246.939 305.651 246.98C305.649 247.021 305.654 247.062 305.668 247.101C305.681 247.14 305.702 247.176 305.729 247.207L305.733 247.212Z" fill="#0C0C0C"/>
</g>
<path d="M182.124 176.695C179.894 165.489 178.871 158.012 178.988 150.125C182.129 144.615 181.304 138.291 180.589 135.558C181.49 136.071 182.431 136.507 183.405 136.861C183.858 137.019 184.346 137.043 184.812 136.933C185.278 136.823 185.704 136.581 186.037 136.237C186.371 135.894 186.6 135.462 186.697 134.992C186.794 134.523 186.755 134.036 186.585 133.588C184.154 127.294 177.905 115.062 165.006 110.964C161.759 109.7 153.466 108.104 142.461 109.614C133.099 110.898 111.902 119.78 108.605 145.762V145.776C108.496 146.638 104.398 168.696 99.9804 180.182C94.0417 195.622 85.7035 200.42 85.9148 218.234C86.187 241.15 128.312 244.199 153.725 242.486C179.138 240.772 193.319 232.416 193.502 215.902C193.702 197.397 186.585 199.115 182.124 176.695Z" fill="#0A0A0A"/>
<path d="M182.131 168.749C177.187 169.653 172.212 165.097 171.308 160.153C170.405 155.209 172.657 150.125 178.987 150.125L182.131 168.749Z" fill="#E98862"/>
<path d="M235.31 363.509C230.337 363.508 225.492 361.932 221.471 359.006C217.449 356.081 214.458 351.956 212.926 347.225L180.25 246.165L225.006 231.694L242.191 284.849L271.889 237.62L311.711 262.66L255.215 352.508C253.097 355.875 250.161 358.65 246.68 360.574C243.199 362.498 239.287 363.507 235.31 363.509V363.509Z" fill="#367CFF"/>
<path d="M208.942 335.603C208.923 335.604 208.904 335.602 208.885 335.598C208.803 335.583 208.73 335.536 208.683 335.468C208.636 335.399 208.618 335.315 208.634 335.233L219.742 274.936C219.749 274.895 219.764 274.857 219.787 274.822C219.809 274.788 219.838 274.758 219.872 274.734C219.906 274.711 219.944 274.695 219.984 274.686C220.025 274.677 220.066 274.677 220.107 274.684C220.147 274.692 220.186 274.707 220.221 274.729C220.255 274.752 220.285 274.781 220.308 274.815C220.332 274.849 220.348 274.887 220.357 274.927C220.366 274.967 220.366 275.009 220.359 275.049L209.25 335.349C209.237 335.42 209.198 335.485 209.142 335.532C209.086 335.578 209.015 335.603 208.942 335.603Z" fill="#0C0C0C"/>
<path d="M246.188 299.08C246.119 299.08 246.051 299.057 245.996 299.015C245.941 298.972 245.902 298.913 245.885 298.846L242.184 284.592C242.163 284.512 242.175 284.426 242.218 284.355C242.26 284.283 242.329 284.231 242.409 284.21C242.49 284.189 242.575 284.201 242.647 284.243C242.719 284.286 242.771 284.355 242.791 284.435L246.492 298.688C246.504 298.735 246.505 298.783 246.495 298.83C246.486 298.877 246.465 298.921 246.436 298.959C246.407 298.997 246.369 299.027 246.326 299.048C246.283 299.069 246.235 299.08 246.188 299.08H246.188Z" fill="#0C0C0C"/>
<path d="M387.397 296H328.603C328.235 296 327.871 295.834 327.535 295.513C327.2 295.192 326.9 294.723 326.656 294.138C326.412 293.553 326.229 292.864 326.119 292.117C326.009 291.37 325.975 290.582 326.018 289.805L327.592 261.878C327.667 260.533 327.972 259.294 328.448 258.395C328.925 257.496 329.539 257 330.176 257H387.397C388.088 257 388.75 257.584 389.238 258.622C389.726 259.66 390 261.068 390 262.537V290.464C390 291.932 389.726 293.34 389.238 294.378C388.75 295.417 388.088 296 387.397 296V296Z" fill="#292A2E"/>
<path d="M201.384 369.376H55.6249L46.3616 298.205C46.1757 296.776 46.2965 295.325 46.7161 293.948C47.1356 292.57 47.8442 291.298 48.7945 290.215C49.7448 289.133 50.915 288.266 52.2269 287.673C53.5389 287.079 54.9624 286.771 56.4026 286.771H181.73C184.19 286.771 186.566 287.665 188.415 289.288C190.264 290.911 191.459 293.151 191.778 295.59L201.384 369.376Z" fill="white"/>
<path d="M192.536 295.495C192.19 292.873 190.904 290.465 188.916 288.718C186.929 286.972 184.376 286.006 181.73 286H56.4026C55.0259 286.001 53.6618 286.263 52.3824 286.771C51.8412 286.984 51.3188 287.242 50.8208 287.543C48.9948 288.631 47.5273 290.23 46.599 292.143C45.6707 294.055 45.3222 296.197 45.5964 298.305L54.8535 369.376H56.4026L47.1267 298.111C46.9547 296.792 47.0661 295.451 47.4534 294.177C47.8408 292.904 48.4953 291.728 49.3731 290.728C50.251 289.728 51.3321 288.926 52.5442 288.377C53.7564 287.828 55.0718 287.543 56.4026 287.543H181.73C184.001 287.549 186.193 288.377 187.899 289.875C189.606 291.373 190.712 293.439 191.012 295.69L200.608 369.376H202.163L192.536 295.495Z" fill="#292A2E"/>
<path d="M192.881 369.376H47.1203L37.8569 298.205C37.6707 296.776 37.7914 295.325 38.2108 293.947C38.6302 292.569 39.3388 291.297 40.2892 290.215C41.2395 289.133 42.4098 288.266 43.7219 287.672C45.034 287.078 46.4577 286.771 47.898 286.771H173.224C175.683 286.771 178.058 287.666 179.905 289.289C181.753 290.912 182.947 293.151 183.265 295.59L192.881 369.376Z" fill="#292A2E"/>
<path d="M184.032 295.495C183.818 293.861 183.236 292.296 182.33 290.918C181.424 289.541 180.217 288.387 178.801 287.543C178.303 287.244 177.78 286.986 177.24 286.771C175.963 286.263 174.6 286.001 173.226 286H47.898C46.3479 285.999 44.8154 286.33 43.4031 286.968C41.9908 287.607 40.7311 288.54 39.7082 289.705C38.6853 290.87 37.9228 292.24 37.4716 293.723C37.0204 295.206 36.891 296.768 37.0919 298.305L46.3426 369.376H47.898L38.6222 298.111C38.4501 296.792 38.5615 295.451 38.9489 294.177C39.3363 292.904 39.9907 291.728 40.8686 290.728C41.7464 289.728 42.8275 288.926 44.0397 288.377C45.2519 287.828 46.5672 287.543 47.898 287.543H173.224C175.495 287.549 177.686 288.377 179.393 289.875C181.1 291.373 182.205 293.439 182.506 295.69L192.102 369.376H193.657L184.032 295.495Z" fill="#292A2E"/>
<g clip-path="url(#clip0_573_191)">
<path d="M256.628 164.905C287.975 164.905 313.387 151.607 313.387 135.203C313.387 118.799 287.975 105.5 256.628 105.5C225.281 105.5 199.869 118.799 199.869 135.203C199.869 151.607 225.281 164.905 256.628 164.905Z" fill="url(#paint0_radial_573_191)"/>
<path d="M256.628 162.699C286.75 162.699 311.169 150.388 311.169 135.203C311.169 120.018 286.75 107.707 256.628 107.707C226.505 107.707 202.086 120.018 202.086 135.203C202.086 150.388 226.505 162.699 256.628 162.699Z" fill="#367CFF"/>
<path d="M267.669 144.118L270.374 130.26C270.995 127.126 270.463 124.787 268.866 123.331C267.314 121.918 264.654 121.212 260.752 121.212H256.051L257.381 114.327C257.426 114.062 257.381 113.798 257.204 113.577C257.027 113.356 256.805 113.268 256.539 113.268H250.065C249.621 113.268 249.267 113.577 249.178 113.974L246.296 128.671C246.03 126.994 245.409 125.582 244.345 124.434C242.438 122.271 239.467 121.168 235.432 121.168H222.971C222.528 121.168 222.173 121.477 222.084 121.874L216.276 151.709C216.231 151.974 216.276 152.239 216.453 152.459C216.63 152.68 216.852 152.768 217.118 152.768H223.636C224.08 152.768 224.435 152.459 224.523 152.062L225.942 144.868H230.776C233.303 144.868 235.476 144.603 237.117 144.074C238.846 143.5 240.398 142.573 241.773 141.293C242.881 140.278 243.813 139.131 244.522 137.895L243.369 143.853C243.325 144.118 243.369 144.383 243.546 144.603C243.724 144.824 243.946 144.912 244.212 144.912H250.686C251.129 144.912 251.484 144.603 251.573 144.206L254.765 127.877H259.2C261.106 127.877 261.638 128.23 261.816 128.406C261.949 128.539 262.215 129.068 261.904 130.701L259.333 143.897C259.288 144.162 259.333 144.427 259.51 144.648C259.687 144.868 259.909 144.956 260.175 144.956H266.827C267.226 144.824 267.58 144.515 267.669 144.118ZM237.693 132.643C237.294 134.717 236.54 136.218 235.432 137.056C234.323 137.895 232.505 138.336 230.111 138.336H227.228L229.312 127.656H233.037C235.786 127.656 236.895 128.23 237.338 128.715C237.915 129.421 238.048 130.789 237.693 132.643V132.643ZM295.339 124.434C293.432 122.271 290.461 121.168 286.426 121.168H273.877C273.434 121.168 273.079 121.477 272.99 121.874L267.181 151.665C267.137 151.93 267.181 152.195 267.359 152.415C267.536 152.636 267.758 152.724 268.024 152.724H274.542C274.986 152.724 275.34 152.415 275.429 152.018L276.848 144.824H281.681C284.209 144.824 286.382 144.559 288.022 144.03C289.752 143.456 291.304 142.529 292.678 141.249C293.831 140.19 294.807 138.998 295.516 137.718C296.226 136.439 296.758 135.026 297.068 133.482C297.822 129.642 297.246 126.641 295.339 124.434V124.434ZM288.555 132.643C288.155 134.717 287.402 136.218 286.293 137.056C285.184 137.895 283.366 138.336 280.972 138.336H278.09L280.174 127.656H283.899C286.648 127.656 287.756 128.23 288.2 128.715C288.821 129.421 288.954 130.789 288.555 132.643Z" fill="white"/>
<path d="M233.037 126.773C235.52 126.773 237.161 127.215 238.004 128.141C238.846 129.068 239.023 130.613 238.58 132.82C238.137 135.115 237.25 136.792 235.964 137.763C234.678 138.734 232.727 139.219 230.111 139.219H226.164L228.603 126.773H233.037V126.773ZM217.162 151.842H223.681L225.233 143.942H230.82C233.303 143.942 235.299 143.677 236.895 143.147C238.491 142.617 239.91 141.779 241.241 140.543C242.349 139.528 243.236 138.425 243.901 137.233C244.566 136.041 245.054 134.717 245.32 133.261C246.03 129.73 245.498 126.994 243.768 125.008C242.039 123.022 239.289 122.051 235.52 122.051H222.971L217.162 151.842ZM250.109 114.151H256.583L255.031 122.051H260.796C264.432 122.051 266.915 122.669 268.29 123.949C269.664 125.229 270.064 127.259 269.531 130.083L266.826 143.942H260.264L262.836 130.745C263.146 129.245 263.013 128.23 262.525 127.7C262.037 127.17 260.929 126.862 259.288 126.862H254.1L250.774 143.942H244.3L250.109 114.151ZM283.899 126.773C286.382 126.773 288.022 127.215 288.865 128.141C289.707 129.068 289.885 130.613 289.441 132.82C288.998 135.115 288.111 136.792 286.825 137.763C285.539 138.734 283.588 139.219 280.972 139.219H277.025L279.464 126.773H283.899V126.773ZM268.024 151.842H274.542L276.094 143.942H281.681C284.165 143.942 286.16 143.677 287.756 143.147C289.353 142.617 290.772 141.779 292.102 140.543C293.211 139.528 294.097 138.425 294.763 137.233C295.428 136.041 295.915 134.717 296.182 133.261C296.891 129.73 296.359 126.994 294.63 125.008C292.9 123.022 290.151 122.051 286.382 122.051H273.833L268.024 151.842Z" fill="#000004"/>
</g>
<defs>
<radialGradient id="paint0_radial_573_191" cx="0" cy="0" r="1" gradientUnits="userSpaceOnUse" gradientTransform="translate(233.947 115.946) scale(74.5385 74.1877)">
<stop stop-color="white"/>
<stop offset="0.0001" stop-color="white"/>
<stop offset="0.5" stop-color="#4C6B97"/>
<stop offset="1" stop-color="#231F20"/>
</radialGradient>
<clipPath id="clip0_573_191">
<rect width="113.518" height="59.5813" fill="white" transform="translate(199.869 105.5)"/>
</clipPath>
</defs>
</svg>
