<svg width="449" height="373" viewBox="0 0 449 373" fill="none" xmlns="http://www.w3.org/2000/svg">
<path d="M435.386 179.152C405.32 215.562 341.162 328.167 356.944 369.957L126.769 370C126.769 370 93.5093 349.97 61.1985 315.147C55.3265 308.82 49.4867 301.998 43.8891 294.724C37.9436 287.017 32.2713 278.796 27.1167 270.099C12.136 244.877 1.44687 215.646 1.0141 183.338C-0.494151 71.5009 119.179 -32.4406 281.98 9.50294C444.779 51.4465 465.441 142.743 435.386 179.152Z" fill="#E2E9F6"/>
<path d="M267.713 371.383C267.354 371.383 266.998 371.226 266.755 370.925L171.453 252.431C171.028 251.903 171.112 251.13 171.64 250.704C172.168 250.28 172.941 250.363 173.366 250.892L268.669 369.385C269.094 369.913 269.01 370.687 268.481 371.112C268.255 371.294 267.983 371.383 267.713 371.383Z" fill="#E03C03"/>
<path d="M119.88 371.383C119.61 371.383 119.338 371.294 119.111 371.112C118.583 370.687 118.499 369.914 118.923 369.385L214.225 250.892C214.652 250.364 215.423 250.281 215.952 250.704C216.48 251.13 216.564 251.902 216.139 252.431L120.837 370.925C120.595 371.226 120.239 371.383 119.88 371.383Z" fill="#FF6224"/>
<path d="M215.184 371.383C214.826 371.383 214.47 371.226 214.227 370.925L118.925 252.431C118.5 251.903 118.584 251.13 119.113 250.704C119.642 250.28 120.414 250.363 120.839 250.892L216.141 369.385C216.567 369.913 216.483 370.687 215.954 371.112C215.726 371.294 215.454 371.383 215.184 371.383Z" fill="#FF6224"/>
<path d="M136.768 254.807H92.4922C90.7552 254.807 89.3462 253.399 89.3462 251.661C89.3462 249.924 90.7542 248.515 92.4922 248.515H136.768C138.505 248.515 139.914 249.923 139.914 251.661C139.914 253.399 138.505 254.807 136.768 254.807Z" fill="#E03C03"/>
<path d="M264.161 254.807H137.613C135.876 254.807 134.467 253.399 134.467 251.661C134.467 249.924 135.875 248.515 137.613 248.515H264.161V254.807Z" fill="#FF6224"/>
<path d="M167.532 314.344C169.43 314.344 170.968 312.805 170.968 310.908C170.968 309.01 169.43 307.472 167.532 307.472C165.635 307.472 164.096 309.01 164.096 310.908C164.096 312.805 165.635 314.344 167.532 314.344Z" fill="#E03C03"/>
<path d="M220.061 314.344C221.959 314.344 223.497 312.805 223.497 310.908C223.497 309.01 221.959 307.472 220.061 307.472C218.164 307.472 216.625 309.01 216.625 310.908C216.625 312.805 218.164 314.344 220.061 314.344Z" fill="#FFC947"/>
<path d="M177.776 154.598H133.169C130.966 154.598 129.181 152.812 129.181 150.61V117.437C129.181 115.234 130.966 113.449 133.169 113.449H177.775C179.978 113.449 181.763 115.235 181.763 117.437V150.61C181.764 152.813 179.978 154.598 177.776 154.598Z" fill="#20C3C5"/>
<path d="M166.884 131.619H165.233C164.98 130.717 164.606 129.862 164.119 129.079L165.392 127.806C165.877 127.32 165.877 126.533 165.392 126.047L163.6 124.255C163.114 123.769 162.327 123.769 161.841 124.255L160.487 125.609C159.739 125.188 158.936 124.858 158.09 124.643V122.613C158.09 121.926 157.533 121.369 156.847 121.369H154.312C153.625 121.369 153.068 121.926 153.068 122.613V124.666C152.246 124.878 151.467 125.189 150.741 125.59L149.255 124.104C148.77 123.619 147.982 123.619 147.497 124.104L145.704 125.896C145.219 126.382 145.219 127.169 145.704 127.655L147.08 129.031C146.62 129.763 146.258 130.562 145.998 131.406H144.062C143.375 131.406 142.818 131.963 142.818 132.649V135.184C142.818 135.871 143.375 136.428 144.062 136.428H145.758C145.948 137.365 146.27 138.258 146.711 139.083L145.553 140.241C145.067 140.726 145.067 141.514 145.553 141.999L147.345 143.791C147.831 144.277 148.618 144.277 149.104 143.791L150.11 142.785C150.949 143.332 151.873 143.754 152.854 144.027V145.434C152.854 146.121 153.411 146.678 154.098 146.678H156.633C157.32 146.678 157.877 146.121 157.877 145.434V144.121C158.893 143.882 159.85 143.495 160.721 142.974L161.69 143.943C162.176 144.429 162.963 144.429 163.449 143.943L165.241 142.151C165.727 141.665 165.727 140.878 165.241 140.392L164.246 139.398C164.74 138.549 165.111 137.624 165.339 136.641H166.882C167.569 136.641 168.125 136.084 168.125 135.398V132.863C168.127 132.175 167.57 131.619 166.884 131.619ZM156.828 140.635C152.325 141.487 148.456 137.618 149.307 133.115C149.783 130.599 151.811 128.571 154.327 128.095C158.83 127.243 162.699 131.112 161.848 135.615C161.372 138.131 159.344 140.16 156.828 140.635Z" fill="white"/>
<path d="M244.932 131.866H200.326C198.123 131.866 196.338 130.081 196.338 127.878V94.7038C196.338 92.5018 198.124 90.7158 200.326 90.7158H244.932C247.134 90.7158 248.92 92.5018 248.92 94.7038V127.878C248.92 130.081 247.134 131.866 244.932 131.866Z" fill="#FF6224"/>
<path d="M230.381 117H234.667C235.551 117 236.399 116.649 237.024 116.024C237.649 115.399 238 114.551 238 113.667V107C238 106.116 237.649 105.268 237.024 104.643C236.399 104.018 235.551 103.667 234.667 103.667H229.667M221.333 102V102.017M224.667 122V122.017M223 107H211.333C210.449 107 209.601 107.351 208.976 107.976C208.351 108.601 208 109.449 208 110.333V117C208 117.884 208.351 118.732 208.976 119.357C209.601 119.982 210.449 120.333 211.333 120.333H216.333L223 107ZM216.333 107V100.333C216.333 99.4493 216.685 98.6014 217.31 97.9763C217.935 97.3512 218.783 97 219.667 97H226.333C227.217 97 228.065 97.3512 228.69 97.9763C229.315 98.6014 229.667 99.4493 229.667 100.333V108.667C229.667 109.551 229.315 110.399 228.69 111.024C228.065 111.649 226.622 112 225.738 112H219.667C218.783 112 217.935 112.351 217.31 112.976C216.685 113.601 216.333 114.449 216.333 115.333V123.667C216.333 124.551 216.685 125.399 217.31 126.024C217.935 126.649 218.783 127 219.667 127H226.333C227.217 127 228.065 126.649 228.69 126.024C229.315 125.399 229.667 124.551 229.667 123.667V117L216.333 107Z" stroke="white" stroke-linecap="round" stroke-linejoin="round"/>
<path d="M285.197 139.774H174.52V136.377C174.52 135.46 175.263 134.717 176.179 134.717H283.537C284.454 134.717 285.196 135.46 285.196 136.377V139.774H285.197Z" fill="white"/>
<path d="M282.107 198.779H177.611C175.904 198.779 174.521 197.395 174.521 195.689V139.774H285.198V195.689C285.197 197.395 283.814 198.779 282.107 198.779Z" fill="#383873"/>
<path d="M279.107 138.023C279.537 138.023 279.885 137.674 279.885 137.245C279.885 136.815 279.537 136.467 279.107 136.467C278.678 136.467 278.329 136.815 278.329 137.245C278.329 137.674 278.678 138.023 279.107 138.023Z" fill="#FF6224"/>
<path d="M273.759 138.023C274.189 138.023 274.537 137.674 274.537 137.245C274.537 136.815 274.189 136.467 273.759 136.467C273.33 136.467 272.981 136.815 272.981 137.245C272.981 137.674 273.33 138.023 273.759 138.023Z" fill="#FF6224"/>
<path d="M268.411 138.023C268.841 138.023 269.189 137.674 269.189 137.245C269.189 136.815 268.841 136.467 268.411 136.467C267.982 136.467 267.633 136.815 267.633 137.245C267.633 137.674 267.982 138.023 268.411 138.023Z" fill="#FF6224"/>
<path d="M241.717 147.748H180.258C179.667 147.748 179.188 147.269 179.188 146.678C179.188 146.087 179.667 145.608 180.258 145.608H241.717C242.308 145.608 242.786 146.087 242.786 146.678C242.786 147.269 242.308 147.748 241.717 147.748Z" fill="#20C3C5"/>
<path d="M241.717 154.555H180.258C179.667 154.555 179.188 154.076 179.188 153.485C179.188 152.894 179.667 152.415 180.258 152.415H241.717C242.308 152.415 242.786 152.894 242.786 153.485C242.786 154.076 242.308 154.555 241.717 154.555Z" fill="#20C3C5"/>
<path d="M212.397 161.362H180.257C179.666 161.362 179.187 160.883 179.187 160.292C179.187 159.701 179.666 159.222 180.257 159.222H212.397C212.987 159.222 213.466 159.701 213.466 160.292C213.467 160.883 212.988 161.362 212.397 161.362Z" fill="#20C3C5"/>
<path d="M241.717 174.976H180.258C179.667 174.976 179.188 174.497 179.188 173.906C179.188 173.315 179.667 172.836 180.258 172.836H241.717C242.308 172.836 242.786 173.315 242.786 173.906C242.786 174.497 242.308 174.976 241.717 174.976Z" fill="#FF6224"/>
<path d="M212.397 181.783H180.257C179.666 181.783 179.187 181.304 179.187 180.713C179.187 180.122 179.666 179.643 180.257 179.643H212.397C212.987 179.643 213.466 180.122 213.466 180.713C213.467 181.304 212.988 181.783 212.397 181.783Z" fill="#FF6224"/>
<path d="M212.397 188.59H180.257C179.666 188.59 179.187 188.111 179.187 187.52C179.187 186.929 179.666 186.451 180.257 186.451H212.397C212.987 186.451 213.466 186.93 213.466 187.52C213.467 188.111 212.988 188.59 212.397 188.59Z" fill="#20C3C5"/>
<path d="M241.717 161.362H218.621C218.03 161.362 217.551 160.883 217.551 160.292C217.551 159.701 218.03 159.222 218.621 159.222H241.717C242.308 159.222 242.786 159.701 242.786 160.292C242.786 160.883 242.308 161.362 241.717 161.362Z" fill="white"/>
<path d="M272.224 146.076L255.893 162.407C255.475 162.825 254.798 162.825 254.38 162.407C253.962 161.99 253.962 161.312 254.38 160.894L270.711 144.563C271.129 144.145 271.807 144.145 272.224 144.563C272.642 144.981 272.642 145.658 272.224 146.076Z" fill="#FF6224"/>
<path d="M263.302 186.6C268.621 186.6 272.932 182.288 272.932 176.97C272.932 171.651 268.621 167.34 263.302 167.34C257.984 167.34 253.672 171.651 253.672 176.97C253.672 182.288 257.984 186.6 263.302 186.6Z" fill="#FF6224"/>
<path d="M256.59 189.133C259.601 189.133 262.042 186.692 262.042 183.681C262.042 180.67 259.601 178.229 256.59 178.229C253.579 178.229 251.138 180.67 251.138 183.681C251.138 186.692 253.579 189.133 256.59 189.133Z" fill="#20C3C5"/>
<path d="M174.52 192.808V212.278L192.415 194.383" fill="#383873"/>
<path d="M155.473 217.542H194.735L208.933 244.868H169.67L155.473 217.542Z" fill="#86BFBC"/>
<path d="M170.465 242.847L158.709 220.221C158.463 219.746 158.807 219.179 159.342 219.179H193.308C193.574 219.179 193.818 219.327 193.94 219.564L205.696 242.19C205.943 242.665 205.598 243.231 205.064 243.231H171.098C170.832 243.231 170.588 243.083 170.465 242.847Z" fill="white"/>
<path d="M201.469 244.868H169.67V248.515H201.469V244.868Z" fill="#B8E3E2"/>
<path d="M228.789 244.868H197.41C196.403 244.868 195.586 245.684 195.586 246.691C195.586 247.699 196.402 248.515 197.41 248.515H228.789C229.797 248.515 230.613 247.699 230.613 246.691C230.613 245.685 229.797 244.868 228.789 244.868Z" fill="#9FCCC9"/>
<path d="M169.67 244.868L155.472 217.542L154.761 218.076C154.302 218.421 154.16 219.048 154.428 219.556L169.67 248.515V244.868Z" fill="#B8E3E2"/>
<path d="M183.966 246.57H180.465V247.177H183.966V246.57Z" fill="#9FCCC9"/>
<path d="M188.365 246.57H184.865V247.177H188.365V246.57Z" fill="#9FCCC9"/>
<path d="M192.766 246.57H189.266V247.177H192.766V246.57Z" fill="#9FCCC9"/>
<path d="M241.252 298.353C241.252 298.353 208.685 323.709 203.52 330.151C201.572 332.59 198.175 336.863 194.656 341.242C188.878 348.436 182.747 355.933 182.019 356.113C180.857 356.408 171.084 348.968 170.79 347.364C170.61 346.365 179.507 331.093 187.208 318.815C191.898 311.351 196.138 304.983 197.627 303.608C201.564 299.958 225.791 287.124 225.791 287.124L241.252 298.353Z" fill="#383873"/>
<path opacity="0.15" d="M179.103 350.702C179.103 350.702 209.528 307.396 224.801 300.103" stroke="black" stroke-width="0.8185" stroke-miterlimit="10" stroke-linecap="round"/>
<path d="M275.194 187.154C274.85 187.94 274.457 188.758 274.015 189.593C271.633 194.144 273.393 198.703 270.675 199.865C270.512 199.93 270.331 199.996 270.127 200.037C266.624 200.815 258.554 196.149 258.201 193.817C257.849 191.484 260.689 187.49 258.201 187.007C255.714 186.524 254.371 190.707 254.371 190.707C252.325 190.92 251.597 187.49 248.241 187.49C247.765 187.49 247.3 187.556 246.849 187.67C245.269 188.063 243.886 189.037 243.001 189.79C242.347 190.338 241.97 190.772 241.97 190.772C241.97 190.772 238.983 188.881 239.122 185.157C239.359 179.256 241.536 174.95 246.783 174.075C247.364 167.511 252.765 164.008 259.984 163.786C266.311 163.59 267.26 169.278 267.408 170.694C267.351 169.638 267.056 166.168 265.551 163.786C268.718 163.647 271.509 165.906 270.78 173.272C271.509 171.079 274.062 169.695 276.027 171.299C274.21 171.299 272.458 174.36 272.458 174.36C272.458 174.36 274.595 175.727 276.052 178.256C277.265 180.345 276.807 183.43 275.194 187.154Z" fill="#382424"/>
<path d="M270.676 199.865L270.595 200.946L270.317 204.777C270.317 204.777 264.489 209.761 261.182 204.777C261.158 204.744 261.141 204.711 261.109 204.678C260.086 203.156 259.161 202.624 258.318 202.526C256.493 202.305 255.019 204.089 253.497 202.158C249.143 196.633 247.408 190.233 246.851 187.671C247.301 187.557 247.767 187.491 248.243 187.491C251.598 187.491 252.327 190.921 254.373 190.708C254.373 190.708 255.716 186.525 258.203 187.008C260.691 187.491 257.851 191.485 258.203 193.818C258.359 194.858 260.054 196.363 262.197 197.64C264.694 199.138 267.804 200.325 269.776 200.096C269.899 200.079 270.014 200.063 270.129 200.038C270.332 199.996 270.513 199.931 270.676 199.865Z" fill="#FFAD94"/>
<path opacity="0.25" d="M271.585 206.994C268.957 208.787 264.145 209.081 264.145 209.081L260.208 208.5C260.208 208.5 258.562 206.11 259.332 204.776C259.479 204.514 259.848 204.154 260.371 203.728C261.428 202.86 263.13 201.748 264.89 200.831C266.706 199.89 268.581 199.145 269.932 199.063C273.238 198.875 274.212 205.194 271.585 206.994Z" fill="black"/>
<path d="M270.807 270.836C264.948 271.965 252.547 268.511 246.614 265.843C244.862 265.057 243.667 264.337 243.381 263.829C242.243 261.824 243.389 260.285 246.213 253.918C246.532 253.197 246.867 252.42 247.228 251.577C249.143 247.067 249.152 237.45 249.143 229.158C249.119 222.062 249.086 215.94 250.215 214.851C252.662 212.494 264.874 204.776 264.874 204.776L267.305 217.446C267.305 217.446 268.68 223.88 270.129 232.277C272.796 247.738 275.727 269.886 270.807 270.836Z" fill="#20C3C5"/>
<path d="M274.892 276.475C274.892 277.056 269.056 290.667 264.162 292.616C259.268 294.565 229.769 292.419 229.769 292.419L215.184 301.954L218.237 330.683L220.365 350.703L220.43 351.35C215.969 354.263 204.732 355.049 203.52 352.537C203.512 352.529 203.512 352.52 203.512 352.52C202.342 349.991 184.45 296.119 191.456 286.78C198.454 277.45 243.38 263.83 243.38 263.83C244.551 264.575 245.909 265.246 247.391 265.844C252.383 267.89 258.727 269.175 263.556 269.928C265.413 270.215 267.042 270.428 268.286 270.574C269.857 270.762 270.807 270.837 270.807 270.837C270.807 270.837 274.892 275.886 274.892 276.475Z" fill="#383873"/>
<path d="M222.279 370.117H184.351C184.163 369.446 184.416 368.766 184.99 368.079C186.529 366.229 190.384 364.371 194.099 362.766C197.627 361.245 201.016 359.935 202.153 359.035C204.829 356.915 203.593 352.79 203.52 352.536C203.929 353.379 205.476 353.853 207.522 353.993C211.541 354.279 217.474 353.281 220.429 351.349L220.364 350.702C221.494 352.863 222.025 363.545 222.206 368.079C222.255 369.331 222.279 370.117 222.279 370.117Z" fill="#0C2059"/>
<path d="M207.522 353.993C207.407 355.802 207.146 358.731 206.622 359.517C205.845 360.688 197.479 364.772 196.317 364.379C195.564 364.133 194.647 363.315 194.099 362.766C197.627 361.245 201.016 359.935 202.153 359.035C204.829 356.915 203.593 352.79 203.52 352.536C203.929 353.379 205.476 353.854 207.522 353.993Z" fill="#2E4780"/>
<path d="M222.279 370.117H184.351C184.163 369.446 184.416 368.766 184.99 368.079H222.206C222.255 369.331 222.279 370.117 222.279 370.117Z" fill="#2E4780"/>
<path d="M182.019 356.112C182.019 356.112 179.138 363.708 176.642 367.727C175.652 369.331 174.71 370.371 174.047 370.117C171.714 369.241 148.273 349.311 150.516 347.854C150.844 347.641 151.368 347.494 152.022 347.412C154.06 347.15 157.44 347.436 160.567 347.756C163.252 348.034 165.748 348.337 167.049 348.337C170.355 348.337 170.789 347.363 170.789 347.363C170.863 347.748 171.485 348.476 172.41 349.36C175.307 352.111 181.135 356.334 182.019 356.112Z" fill="#0C2059"/>
<path d="M172.41 349.361C167.442 352.651 162.261 350.671 161.238 349.918C160.485 349.369 160.485 348.347 160.567 347.757C163.252 348.035 165.748 348.338 167.049 348.338C170.355 348.338 170.789 347.364 170.789 347.364C170.863 347.748 171.485 348.477 172.41 349.361Z" fill="#2E4780"/>
<path d="M176.641 367.728C175.651 369.332 174.709 370.372 174.046 370.118C171.713 369.242 148.272 349.312 150.515 347.855C150.843 347.642 151.367 347.495 152.021 347.413L176.641 367.728Z" fill="#2E4780"/>
<path d="M246.629 246.011C244.796 248.565 241.514 252.461 238.813 252.068C238.715 252.052 238.609 252.036 238.478 252.011C233.321 251.103 202.997 243.498 201.564 243.212C200.107 242.926 189.9 242.827 190.481 241.755C191.062 240.683 196.898 237.286 198.453 237.368C200.008 237.45 206.139 239.225 212.261 239.029C218.391 238.841 234.433 239.029 234.433 239.029L235.211 237.687L236.357 235.706C236.038 241.649 243.2 246.494 246.629 246.011Z" fill="#FFAD94"/>
<path opacity="0.15" d="M246.629 268.158C246.629 268.158 245.233 275.597 250.677 278.077" stroke="black" stroke-width="0.8185" stroke-miterlimit="10" stroke-linecap="round"/>
<path opacity="0.15" d="M243.771 274.139C243.771 274.139 207.748 289.503 206.019 294.269C204.29 299.034 215.184 350.703 215.184 350.703" stroke="black" stroke-width="0.8185" stroke-miterlimit="10" stroke-linecap="round"/>
<path opacity="0.15" d="M274.892 276.475C274.892 277.056 269.056 290.667 264.162 292.616C259.268 294.565 229.769 292.419 229.769 292.419L215.184 301.954L218.237 330.683C218.237 330.683 212.074 297.87 212.074 295.726C212.074 293.893 252.818 282.18 263.556 269.927C267.763 270.59 270.807 270.836 270.807 270.836C270.807 270.836 274.892 275.886 274.892 276.475Z" fill="black"/>
<path opacity="0.25" d="M255.682 241.657C253.153 245.241 249.077 249.792 246.212 253.918C246.531 253.197 246.866 252.42 247.227 251.577C249.142 247.067 249.151 237.45 249.142 229.158L257.875 223.38C257.875 223.38 259.766 235.87 255.682 241.657Z" fill="black"/>
<path d="M248.226 244.906C247.849 245.25 247.464 245.594 247.08 245.913C246.941 245.962 246.794 245.995 246.63 246.011C243.201 246.494 236.039 241.649 236.359 235.706C236.383 235.265 236.736 234.381 237.308 233.227C240.239 227.318 249.053 214.164 250.674 214.77C250.674 214.77 256.337 215.646 257.876 223.38C259.315 230.64 254.118 239.447 248.226 244.906Z" fill="#169799"/>
<path opacity="0.25" d="M268.286 270.573C267.042 270.427 265.413 270.214 263.556 269.927C258.727 269.174 252.383 267.889 247.391 265.843C251.794 265.688 261.215 262.79 262.353 241.223C262.869 245.258 263.646 249.441 264.726 253.721C266.175 259.409 267.541 265.409 268.286 270.573Z" fill="black"/>
<path opacity="0.25" d="M265.962 199.432C265.512 199.955 265.16 200.431 264.89 200.831C263.13 201.748 261.428 202.861 260.371 203.728C259.635 202.917 258.955 202.599 258.317 202.525L262.196 197.639C263.375 198.351 264.693 198.982 265.962 199.432Z" fill="black"/>
<path opacity="0.25" d="M246.629 246.011C244.796 248.565 241.514 252.461 238.813 252.068C238.715 252.052 238.609 252.036 238.478 252.011C235.138 247.182 235.015 240.855 235.212 237.688L236.358 235.707C236.038 241.649 243.2 246.494 246.629 246.011Z" fill="black"/>
<path opacity="0.25" d="M275.194 187.154C274.85 187.94 274.457 188.758 274.015 189.593C272.844 191.827 272.681 194.054 272.485 195.895C272.091 195.592 271.691 195.314 271.29 195.077C268.761 196.583 267.059 198.146 265.962 199.431L265.953 199.439C262.385 198.162 258.448 195.429 258.202 193.816C257.85 191.483 260.69 187.489 258.202 187.006C255.715 186.523 254.372 190.706 254.372 190.706C252.326 190.919 251.598 187.489 248.242 187.489C247.766 187.489 247.301 187.555 246.85 187.669C245.27 188.062 243.887 189.036 243.002 189.789C243.002 189.789 246.784 184.477 252.718 185.549C252.718 185.549 251.851 183.895 247.857 184.092C256.221 181.366 261.566 182.439 264.144 185.451C266.248 187.916 271.184 190.96 275.194 187.154Z" fill="black"/>
<path d="M292.202 301.954H263.023C263.023 301.954 286.169 295.144 286.169 249.244C286.169 248.654 286.169 248.073 286.161 247.492C285.924 216.816 279.367 199.898 271.289 195.077C273.818 193.579 277.183 192.147 281.626 191.157C283.566 190.715 285.702 190.363 288.068 190.117C308.047 188.079 324.006 195.912 325.906 204.776C327.798 213.641 316.118 301.954 292.202 301.954Z" fill="#B8E3E2"/>
<path d="M286.17 249.244C286.17 295.144 263.024 301.954 263.024 301.954H215.184L217.172 300.538L229.769 292.419L255.052 290.667C256.41 285.028 260.11 284.84 265.749 284.25C269.031 283.915 269.351 278.374 268.352 271.049C267.623 265.778 266.216 259.581 264.726 253.721C263.646 249.441 262.869 245.258 262.353 241.223C261.739 236.5 261.469 231.991 261.444 227.743C261.371 218.069 262.549 209.803 263.794 203.827C263.908 203.246 264.031 202.689 264.154 202.158C264.154 202.141 264.162 202.117 264.162 202.1C264.276 201.847 264.776 200.815 265.954 199.44L265.963 199.432C267.06 198.147 268.762 196.583 271.291 195.078C271.692 195.315 272.093 195.594 272.486 195.896C280.007 201.625 285.933 218.347 286.163 247.493C286.17 248.073 286.17 248.654 286.17 249.244Z" fill="#86BFBC"/>
<path d="M276.937 370.117H242.496C241.317 370.117 240.802 368.627 241.734 367.899L250.353 361.154C254.175 358.159 256.41 353.567 256.41 348.714V301.954H263.023V348.714C263.023 353.568 265.257 358.159 269.087 361.154L277.697 367.899C278.632 368.627 278.116 370.117 276.937 370.117Z" fill="#B8E3E2"/>
<g opacity="0.25">
<path d="M303.206 191.879C303.206 191.879 303.457 192.522 303.869 193.81" stroke="black" stroke-width="0.8185" stroke-miterlimit="10" stroke-linecap="round"/>
<path d="M305.027 197.793C306.198 202.181 307.718 209.017 308.925 218.32C312.056 242.474 308.875 276.378 287.871 297.854" stroke="black" stroke-width="0.8185" stroke-miterlimit="10" stroke-linecap="round" stroke-dasharray="4.15 4.15"/>
<path d="M286.39 299.321C285.899 299.791 285.398 300.255 284.888 300.712" stroke="black" stroke-width="0.8185" stroke-miterlimit="10" stroke-linecap="round"/>
</g>
<path opacity="0.15" d="M263.023 301.954V314.723C260.731 315.917 258.407 316.834 256.41 317.505V301.954H263.023Z" fill="black"/>
<path opacity="0.15" d="M272.166 282.114C270.61 286.975 260.895 286.105 259.717 289.701C257.215 297.332 255.829 293.973 246.212 294.948C240.712 295.505 236.718 299.032 234.312 301.954H215.184L217.172 300.538L229.769 292.419L255.052 290.667C256.41 285.028 260.11 284.84 265.749 284.25C269.031 283.915 269.351 278.374 268.352 271.049C267.623 265.778 266.216 259.581 264.726 253.721C263.646 249.441 262.869 245.258 262.353 241.223C261.739 236.5 261.469 231.991 261.444 227.743C265.185 247.239 273.32 278.513 272.166 282.114Z" fill="black"/>
<path opacity="0.15" d="M286.17 249.244C286.17 248.654 286.17 248.073 286.162 247.492C285.925 216.816 279.368 199.898 271.29 195.077C273.819 193.579 277.184 192.147 281.627 191.157C280.293 193.08 278.901 195.97 279.557 199.055C280.728 204.514 293.954 225.516 288.896 259.164C285.246 283.44 286.457 296.069 290.271 301.954H263.024C263.023 301.954 286.17 295.145 286.17 249.244Z" fill="black"/>
<path opacity="0.25" d="M119.225 224.239C119.208 225.303 119.11 226.31 118.914 227.202H109.526C106.768 225.369 102.266 221.743 99.5652 216.301C102.078 219.034 106.367 222.365 110.737 223.38C114.551 224.264 117.392 223.888 119.225 224.239Z" fill="black"/>
<path d="M141.029 186.966C139.981 190.772 135.177 198.155 130.79 206.062C125.994 214.688 121.705 223.929 123.383 229.797C123.8 231.271 123.988 232.351 123.988 233.128C124.005 235.682 122.065 234.888 120.109 233.44C118.112 231.959 116.09 229.797 116.09 229.797L116.237 218.42C116.237 218.42 109.787 212.494 115.083 199.53C115.418 198.712 115.803 197.86 116.237 196.976C123.53 182.243 134.465 166.782 124.111 162.403C138.41 161.528 143.223 179.003 141.029 186.966Z" fill="#20C3C5"/>
<g opacity="0.53">
<path d="M124.111 162.404C126.789 162.987 129.123 164.782 130.603 167.072C131.002 167.632 131.285 168.258 131.602 168.865C131.841 169.505 132.145 170.127 132.308 170.793C132.499 171.451 132.685 172.111 132.783 172.791L132.961 173.803L133.025 174.837C132.968 177.606 132.088 180.249 131.175 182.815C130.222 185.379 129.122 187.883 127.986 190.366C125.709 195.33 123.254 200.207 121.088 205.203C120.016 207.702 118.987 210.226 118.227 212.821C117.839 214.116 117.547 215.433 117.376 216.755C117.21 218.07 117.222 219.425 117.642 220.618L117.646 220.63C117.721 220.843 117.609 221.076 117.396 221.151C117.183 221.226 116.949 221.114 116.874 220.901C116.874 220.9 116.873 220.896 116.873 220.895C116.402 219.493 116.429 218.037 116.616 216.661C116.811 215.28 117.131 213.93 117.542 212.616C118.351 209.981 119.418 207.455 120.527 204.955C122.766 199.964 125.281 195.119 127.616 190.192C128.782 187.729 129.909 185.247 130.889 182.707C131.829 180.167 132.732 177.549 132.821 174.836L132.772 173.827L132.607 172.823C132.519 172.147 132.342 171.492 132.162 170.837C132.01 170.173 131.715 169.556 131.487 168.918C131.181 168.313 130.908 167.687 130.519 167.128C129.078 164.84 126.781 163.021 124.111 162.404Z" fill="black"/>
</g>
<path d="M134.465 209.957C130.094 221.481 134.465 230.223 127.901 231.467C124.897 232.04 123.571 229.814 123.023 227.228C122.369 224.166 122.802 220.606 122.802 220.606C122.802 220.606 123.915 217.757 126.256 214.992C128.163 212.74 130.872 210.547 134.465 209.957Z" fill="#169799"/>
<path d="M119.225 224.239C119.2 226.924 118.595 229.199 117.35 230.394C117.227 230.517 117.104 230.623 116.99 230.713C113.888 233.226 111.907 228.626 111.907 228.626C111.907 228.626 103.657 224.558 99.5643 216.3C96.4293 209.956 95.7333 201.133 103.108 189.789C104.189 197.867 108.616 203.367 113.004 208.589C113.004 208.598 113.004 208.598 113.004 208.598C113.552 209.252 114.093 209.891 114.633 210.537C117.67 214.181 119.266 219.779 119.225 224.239Z" fill="#B8E3E2"/>
<g opacity="0.53">
<path d="M103.106 189.791C102.392 193.265 102.22 196.845 102.549 200.363C102.921 203.869 103.886 207.355 105.791 210.324C107.624 213.343 110.17 215.828 112.479 218.542C113.627 219.903 114.732 221.348 115.505 223.007C116.288 224.656 116.645 226.534 116.496 228.373C116.478 228.599 116.28 228.767 116.055 228.748C115.83 228.73 115.662 228.532 115.68 228.308C115.68 228.306 115.68 228.301 115.681 228.3C115.848 226.598 115.558 224.873 114.852 223.302C114.155 221.724 113.114 220.298 112.005 218.934C109.779 216.209 107.246 213.642 105.44 210.537C103.559 207.474 102.65 203.915 102.345 200.383C102.083 196.835 102.325 193.252 103.106 189.791Z" fill="black"/>
</g>
<g opacity="0.25">
<path d="M134.468 209.957C133.215 211.407 132.049 212.93 130.934 214.485C129.828 216.047 128.768 217.64 127.819 219.298C125.926 222.597 124.316 226.134 123.787 229.853L123.785 229.868C123.753 230.092 123.546 230.248 123.322 230.216C123.098 230.184 122.943 229.977 122.974 229.753C122.974 229.748 122.975 229.742 122.976 229.738C123.673 225.855 125.445 222.347 127.468 219.088C128.483 217.453 129.605 215.89 130.769 214.364C131.942 212.844 133.164 211.362 134.468 209.957Z" fill="black"/>
</g>
<path d="M131.813 230.084L129.014 247.272C128.875 247.993 128.245 248.516 127.508 248.516H110.067C109.33 248.516 108.7 247.993 108.561 247.272L106.286 233.317L105.762 230.085C105.59 229.144 106.31 228.275 107.268 228.275H130.308C131.265 228.275 131.985 229.143 131.813 230.084Z" fill="#B8E3E2"/>
<path d="M134.465 233.587H103.109L103.936 228.905C104.116 227.923 104.967 227.202 105.966 227.202H131.617C132.607 227.202 133.467 227.923 133.638 228.905L134.465 233.587Z" fill="#86BFBC"/>
<path opacity="0.25" d="M122.802 220.606C122.802 220.606 122.368 224.15 123.015 227.203H118.914C119.11 226.311 119.208 225.305 119.225 224.24C119.266 219.78 117.67 214.181 114.633 210.539C114.093 209.893 113.552 209.254 113.004 208.6C113.004 208.6 113.004 208.6 113.004 208.591C113.069 206.078 113.643 203.067 115.083 199.531C115.32 203.664 116.335 210.851 120.46 211.612C123.595 212.185 127.679 209.075 130.789 206.063C129.144 209.017 127.564 212.045 126.254 214.993C123.915 217.757 122.802 220.606 122.802 220.606Z" fill="black"/>
<path opacity="0.25" d="M120.477 248.516H110.066C109.329 248.516 108.699 247.993 108.56 247.272L106.326 233.587H115.321C115.1 235.502 114.83 239.079 115.509 241.854C116.041 244.055 117.973 246.887 120.477 248.516Z" fill="black"/>
<path d="M278.244 102.125C273.493 99.7588 267.777 100.693 264.021 104.449C259.385 109.085 259.231 116.516 263.532 121.355L261.679 121.135C261.454 121.109 261.25 121.269 261.224 121.493C261.198 121.717 261.358 121.921 261.581 121.948L264.404 122.283C264.516 122.297 264.624 122.263 264.706 122.198C264.788 122.134 264.846 122.037 264.859 121.925L265.183 119.194C265.21 118.969 265.05 118.766 264.826 118.739C264.602 118.712 264.397 118.872 264.371 119.097L264.164 120.836C260.127 116.318 260.263 109.364 264.6 105.027C268.107 101.521 273.444 100.648 277.879 102.857C278.081 102.959 278.327 102.875 278.428 102.673C278.529 102.471 278.447 102.225 278.244 102.125Z" fill="#FF6224"/>
<path d="M267.62 124.773C272.371 127.139 278.087 126.205 281.843 122.449C286.479 117.813 286.633 110.382 282.332 105.543L284.186 105.763C284.411 105.79 284.614 105.63 284.64 105.405C284.667 105.18 284.507 104.977 284.283 104.95L281.46 104.615C281.348 104.601 281.241 104.635 281.158 104.699C281.076 104.764 281.018 104.86 281.006 104.972L280.681 107.703C280.655 107.928 280.814 108.131 281.038 108.158C281.263 108.184 281.467 108.024 281.493 107.8L281.7 106.061C285.738 110.579 285.601 117.533 281.264 121.87C277.758 125.376 272.421 126.249 267.985 124.04C267.783 123.938 267.538 124.022 267.436 124.224C267.335 124.427 267.418 124.672 267.62 124.773Z" fill="#FF6224"/>
<path d="M442.426 151.601H334.136C332.163 151.601 330.563 149.643 330.563 147.229C330.563 144.815 332.164 142.858 334.136 142.858H442.426C444.401 142.858 446 144.815 446 147.229C446 149.643 444.401 151.601 442.426 151.601Z" fill="#FF6224"/>
<path d="M403.758 170.599H334.136C332.163 170.599 330.563 168.643 330.563 166.23C330.563 163.814 332.164 161.858 334.136 161.858H403.758C405.733 161.858 407.331 163.814 407.331 166.23C407.331 168.643 405.731 170.599 403.758 170.599Z" fill="#20C3C5"/>
<path d="M403.758 191H334.136C332.163 191 330.563 189.044 330.563 186.631C330.563 184.217 332.164 182.259 334.136 182.259H403.758C405.733 182.259 407.331 184.217 407.331 186.631C407.331 189.044 405.731 191 403.758 191Z" fill="#20C3C5"/>
<path d="M81.9827 91.3824H4.89641C2.19176 91.3824 0 89.5049 0 87.1903C0 84.8757 2.19176 83 4.89641 83H81.9827C84.6874 83 86.8811 84.8757 86.8811 87.1903C86.8791 89.5049 84.6874 91.3824 81.9827 91.3824Z" fill="#20C3C5"/>
<path d="M52.8788 109.603H4.89641C2.19176 109.603 0 107.725 0 105.411C0 103.096 2.19176 101.219 4.89641 101.219H52.8788C55.5834 101.219 57.7752 103.096 57.7752 105.411C57.7752 107.725 55.5834 109.603 52.8788 109.603Z" fill="#FF6224"/>
<path d="M52.8788 129.164H4.89641C2.19176 129.164 0 127.286 0 124.972C0 122.657 2.19176 120.78 4.89641 120.78H52.8788C55.5834 120.78 57.7752 122.657 57.7752 124.972C57.7752 127.286 55.5834 129.164 52.8788 129.164Z" fill="#FF6224"/>
<path d="M433.709 284.349C431.311 291.306 428.446 297.379 425.45 302.863C415.096 321.778 403.073 333.81 402.623 351.448C402.623 351.448 398.891 334.833 401.887 315.902C403.565 305.269 407.363 293.909 415.13 284.349C436.745 257.765 433.545 233.587 433.545 233.587C433.545 233.587 444.382 253.418 433.709 284.349Z" fill="#169799"/>
<g opacity="0.25">
<path d="M408.24 330.759C407.923 328.554 408.009 326.407 408.212 324.253C408.425 322.106 408.811 319.978 409.363 317.898C410.435 313.726 412.028 309.708 413.963 305.877C414.895 303.941 416.008 302.104 417.096 300.256L420.576 294.882C422.794 291.27 424.665 287.438 426.24 283.486C427.828 279.54 429.165 275.49 430.287 271.382C431.421 267.276 432.348 263.111 433.077 258.911C433.81 254.714 434.346 250.477 434.611 246.223C434.738 244.096 434.797 241.962 434.705 239.832C434.652 238.769 434.586 237.702 434.412 236.65C434.236 235.604 434.042 234.538 433.545 233.587C434.058 234.53 434.272 235.597 434.464 236.642C434.655 237.694 434.739 238.761 434.811 239.827C434.938 241.961 434.914 244.1 434.822 246.234C434.636 250.505 434.132 254.756 433.445 258.974C432.759 263.193 431.876 267.38 430.783 271.515C429.701 275.653 428.403 279.737 426.846 283.727C425.304 287.722 423.459 291.609 421.251 295.296L417.802 300.69C416.731 302.521 415.634 304.342 414.719 306.257C412.818 310.046 411.258 314.013 410.215 318.113C409.681 320.16 409.307 322.245 409.074 324.341C408.856 326.426 408.769 328.581 409.045 330.608L409.05 330.646C409.08 330.87 408.924 331.076 408.7 331.106C408.477 331.136 408.272 330.981 408.24 330.759Z" fill="black"/>
</g>
<path opacity="0.25" d="M425.45 302.862C415.096 321.777 403.073 333.809 402.623 351.447C402.623 351.447 398.891 334.832 401.887 315.901C408.598 313.159 418.035 308.691 425.45 302.862Z" fill="black"/>
<path d="M408.625 370.119C408.625 370.119 401.064 357.192 418.958 341.241C436.851 325.289 450.854 304.192 448.131 287.123C431.017 307.008 385.506 335.203 398.342 370.117L408.625 370.119Z" fill="#20C3C5"/>
<g opacity="0.25">
<path d="M448.131 287.123C446.423 290.89 444.134 294.366 441.67 297.681C439.18 300.983 436.441 304.094 433.524 307.028C430.635 309.992 427.443 312.646 424.281 315.297C421.136 317.961 418.288 320.97 415.747 324.211C410.671 330.692 406.7 338.072 404.309 345.943C403.141 349.879 402.338 353.943 402.225 358.039C402.105 362.117 402.627 366.268 404.26 369.993C404.352 370.199 404.258 370.441 404.051 370.532C403.845 370.624 403.603 370.53 403.512 370.323L403.51 370.319C401.845 366.431 401.354 362.169 401.509 358.014C401.659 353.84 402.509 349.732 403.722 345.763C406.204 337.829 410.266 330.436 415.427 323.955C418.01 320.716 420.901 317.714 424.083 315.06C427.275 312.43 430.47 309.819 433.381 306.882C436.315 303.979 439.074 300.895 441.589 297.618C444.077 294.329 446.392 290.875 448.131 287.123Z" fill="black"/>
</g>
<path d="M61.8262 276.473C61.8262 276.473 52.4913 267.965 47.5312 246.692C76.1213 270.93 83.1232 292.517 83.1232 292.517L61.8262 276.473Z" fill="#169799"/>
<g opacity="0.25">
<path d="M47.5312 246.692C51.5082 252.383 55.3983 258.136 59.1833 263.961C61.0743 266.873 62.9263 269.813 64.7253 272.788C66.5153 275.769 68.2652 278.775 69.7192 281.976C69.8122 282.182 69.7213 282.424 69.5163 282.518C69.3103 282.612 69.0673 282.521 68.9743 282.315C68.9733 282.313 68.9723 282.311 68.9723 282.309L68.9662 282.295C67.6092 279.145 65.9213 276.102 64.1963 273.099C62.4623 270.098 60.6702 267.127 58.8382 264.18C55.1702 258.287 51.3953 252.46 47.5312 246.692Z" fill="black"/>
</g>
<path d="M82.5402 288.433C77.4002 283.8 69.7882 279.209 62.5452 274.265C52.9112 267.693 43.9332 260.474 42.2712 251.659C38.4902 283.473 75.4932 297.797 75.4932 297.797L75.5672 297.903L89.0062 317.506C89.0072 317.505 94.4982 299.229 82.5402 288.433Z" fill="#20C3C5"/>
<g opacity="0.25">
<path d="M42.2713 251.658C42.2943 255.204 43.3243 258.674 44.8163 261.859C46.3723 265.028 48.4843 267.913 51.0003 270.38C53.5143 272.859 56.4153 274.896 59.3763 276.817C62.3363 278.746 65.3453 280.608 68.2723 282.603C74.1083 286.568 79.7013 291.196 83.6133 297.203C87.5833 303.162 89.4153 310.388 89.4153 317.506C89.4163 317.732 89.2343 317.916 89.0083 317.917C88.7823 317.919 88.5983 317.736 88.5963 317.511V317.505C88.6603 310.511 86.9413 303.432 83.0973 297.535C79.3103 291.594 73.8193 286.948 68.0393 282.94C65.1413 280.923 62.1523 279.034 59.2063 277.073C56.2603 275.121 53.3603 273.044 50.8543 270.526C48.3473 268.018 46.2523 265.098 44.7223 261.903C43.2573 258.692 42.2613 255.205 42.2713 251.658Z" fill="black"/>
</g>
<path d="M434.953 372.117H13.049C6.39491 372.117 1 371.669 1 371.117C1 370.564 6.39491 370.117 13.049 370.117H434.951C441.607 370.117 447 370.564 447 371.117C447 371.669 441.607 372.117 434.953 372.117Z" fill="#282D2C"/>
</svg>
