<svg width="446" height="373" viewBox="0 0 446 373" fill="none" xmlns="http://www.w3.org/2000/svg">
<path fill-rule="evenodd" clip-rule="evenodd" d="M246.664 313.125L275.303 341.764H278.409L307.048 313.125V310.019L292.728 295.7L291.176 295.053H262.536L260.984 295.7L246.664 310.019V313.125V313.125ZM276.856 337.106L251.322 311.572L263.442 299.366H290.27L302.39 311.572L276.856 337.106ZM276.856 303.765H288.458L296.265 311.572L276.856 330.55V303.765Z" fill="#FC2218"/>
<path fill-rule="evenodd" clip-rule="evenodd" d="M383.859 309.226L407.023 332.39H409.535L432.699 309.226V306.714L421.117 295.132L419.861 294.609H396.697L395.441 295.132L383.859 306.714V309.226V309.226ZM408.279 328.622L387.627 307.97L397.43 298.097H419.128L428.931 307.97L408.279 328.622ZM408.279 301.656H417.663L423.978 307.97L408.279 323.32V301.656Z" fill="#FC2218"/>
<path d="M309.637 366.113V372.431H320.445C322.663 372.431 326.457 370.728 326.584 365.921V363.475C326.584 359.391 323.428 356.965 320.445 356.965H315.051V354.029H325.728V347.646H315.477C312.833 347.646 309.297 349.966 309.297 354.262V356.475C309.297 360.772 312.792 362.985 315.477 362.985C322.917 363.026 313.684 362.985 320.572 362.985V366.068L309.637 366.113ZM251.685 364.561C251.685 364.561 257.484 364.031 257.484 356.136C257.484 348.222 250.469 347.478 250.469 347.478H237.828V372.427H244.179V366.407L249.679 372.427H259.059L251.685 364.561ZM249.233 359.457H244.183V353.755H249.278C249.278 353.755 250.707 354.307 250.707 356.586C250.707 358.864 249.237 359.457 249.237 359.457H249.233ZM273.145 347.654H266.708C262.104 347.654 260.549 352.077 260.549 354.164V372.435H267.007V368.074H273.059V372.435H279.304V354.164C279.304 348.847 274.741 347.654 273.145 347.654ZM273.059 360.988H266.962V354.948C266.962 354.948 266.962 353.564 268.987 353.564H271.205C272.973 353.564 273.018 354.948 273.018 354.948V360.988H273.059ZM282.247 347.654H288.962V372.435H282.247V347.654ZM298.383 366.032V347.654H291.712V372.435H307.423V366.032H298.383ZM197.992 372.431H224.102C224.102 372.431 219.113 348.332 235.655 338.547C239.256 336.697 250.723 329.763 269.523 344.46C270.1 343.95 270.673 343.525 270.673 343.525C270.673 343.525 253.473 325.36 234.333 327.382C224.699 328.296 212.868 337.571 205.919 349.823C198.971 362.074 197.988 372.431 197.988 372.431H197.992ZM197.992 372.431H224.102C224.102 372.431 219.113 348.332 235.655 338.547C239.256 336.697 250.723 329.763 269.523 344.46C270.1 343.95 270.673 343.525 270.673 343.525C270.673 343.525 253.473 325.36 234.333 327.382C224.699 328.296 212.868 337.571 205.919 349.823C198.971 362.074 197.988 372.431 197.988 372.431H197.992ZM197.992 372.431H224.102C224.102 372.431 219.113 348.332 235.655 338.547C239.256 336.697 250.723 329.763 269.523 344.46C270.1 343.95 270.673 343.525 270.673 343.525C270.673 343.525 253.473 325.36 234.333 327.382C224.679 328.296 212.827 337.571 205.878 349.823C198.95 362.074 197.992 372.431 197.992 372.431V372.431ZM252.409 329.358L252.556 326.998C252.258 326.826 251.427 326.401 249.34 325.785L249.213 328.084C250.301 328.468 251.365 328.893 252.409 329.362V329.358ZM249.274 336.762L249.147 338.976C250.236 339.017 251.32 339.147 252.409 339.401L252.556 337.232C251.475 336.996 250.378 336.839 249.274 336.762V336.762ZM237.038 325.85H237.357L236.698 323.722C235.675 323.722 234.632 323.788 233.523 323.914L234.161 325.997C235.119 325.891 236.08 325.85 237.038 325.85ZM238.618 338.739L239.387 341.144C240.31 340.659 241.272 340.254 242.264 339.931L241.54 337.612C240.41 337.951 239.452 338.335 238.618 338.739ZM223.611 329.53L222.117 327.104C221.286 327.574 220.435 328.06 219.539 328.615L221.074 331.061C221.895 330.511 222.741 330 223.611 329.53V329.53ZM230.388 345.269L231.988 347.801C232.54 346.927 233.203 346.123 233.928 345.314L232.434 342.933C231.695 343.661 231.011 344.444 230.388 345.273V345.269ZM225.596 356.545L228.28 358.799C228.407 357.415 228.644 356.055 228.964 354.695L226.598 352.694C226.152 353.992 225.874 355.287 225.596 356.545V356.545ZM211.121 339.931L208.755 337.763C207.904 338.637 207.073 339.507 206.325 340.381L208.862 342.7C209.566 341.745 210.311 340.805 211.121 339.936V339.931ZM201.123 355.565L197.329 354.098C196.691 355.61 196.008 357.353 195.668 358.309L199.462 359.775C199.908 358.583 200.591 356.859 201.123 355.565ZM225.105 365.435C225.17 367.285 225.338 368.796 225.489 369.858L229.475 371.349C229.137 369.844 228.867 368.324 228.665 366.795L225.105 365.435Z" fill="#367CFF"/>
<path d="M432.03 349.334V353.151H438.565C439.906 353.151 442.2 352.122 442.277 349.218V347.74C442.277 345.272 440.369 343.807 438.565 343.807H435.304V342.033H441.759V338.176H435.561C433.962 338.176 431.824 339.578 431.824 342.173V343.511C431.824 346.106 433.938 347.444 435.561 347.444C440.059 347.468 434.477 347.444 438.642 347.444V349.306L432.03 349.334ZM396.989 348.396C396.989 348.396 400.495 348.075 400.495 343.306C400.495 338.524 396.254 338.075 396.254 338.075H388.61V353.148H392.451V349.511L395.776 353.148H401.448L396.989 348.396ZM395.507 345.312H392.453V341.867H395.534C395.534 341.867 396.397 342.2 396.397 343.577C396.397 344.954 395.509 345.312 395.509 345.312H395.507ZM409.965 338.181H406.073C403.289 338.181 402.349 340.853 402.349 342.114V353.153H406.253V350.518H409.913V353.153H413.689V342.114C413.689 338.902 410.93 338.181 409.965 338.181ZM409.913 346.237H406.226V342.588C406.226 342.588 406.226 341.751 407.451 341.751H408.792C409.861 341.751 409.888 342.588 409.888 342.588V346.237H409.913ZM415.468 338.181H419.529V353.153H415.468V338.181ZM425.225 349.284V338.181H421.192V353.153H430.691V349.284H425.225ZM364.524 353.151H380.311C380.311 353.151 377.295 338.591 387.296 332.679C389.474 331.561 396.407 327.372 407.775 336.252C408.124 335.943 408.47 335.687 408.47 335.687C408.47 335.687 398.07 324.712 386.497 325.933C380.672 326.486 373.518 332.089 369.317 339.491C365.115 346.893 364.521 353.151 364.521 353.151H364.524ZM364.524 353.151H380.311C380.311 353.151 377.295 338.591 387.296 332.679C389.474 331.561 396.407 327.372 407.775 336.252C408.124 335.943 408.47 335.687 408.47 335.687C408.47 335.687 398.07 324.712 386.497 325.933C380.672 326.486 373.518 332.089 369.317 339.491C365.115 346.893 364.521 353.151 364.521 353.151H364.524ZM364.524 353.151H380.311C380.311 353.151 377.295 338.591 387.296 332.679C389.474 331.561 396.407 327.372 407.775 336.252C408.124 335.943 408.47 335.687 408.47 335.687C408.47 335.687 398.07 324.712 386.497 325.933C380.66 326.486 373.494 332.089 369.292 339.491C365.103 346.893 364.524 353.151 364.524 353.151V353.151ZM397.427 327.127L397.516 325.701C397.335 325.598 396.833 325.341 395.571 324.968L395.494 326.358C396.152 326.589 396.796 326.846 397.427 327.13V327.127ZM395.531 331.601L395.455 332.938C396.113 332.963 396.769 333.042 397.427 333.195L397.516 331.884C396.862 331.742 396.199 331.647 395.531 331.601V331.601ZM388.133 325.008H388.326L387.927 323.722C387.309 323.722 386.678 323.762 386.007 323.838L386.393 325.097C386.972 325.033 387.554 325.008 388.133 325.008ZM389.088 332.795L389.553 334.248C390.111 333.955 390.693 333.71 391.293 333.515L390.855 332.114C390.172 332.319 389.593 332.551 389.088 332.795ZM380.014 327.231L379.111 325.765C378.608 326.049 378.094 326.343 377.552 326.678L378.48 328.156C378.976 327.824 379.488 327.515 380.014 327.231V327.231ZM384.112 336.74L385.079 338.27C385.413 337.742 385.814 337.256 386.252 336.767L385.349 335.329C384.902 335.769 384.488 336.242 384.112 336.743V336.74ZM381.214 343.553L382.837 344.915C382.914 344.078 383.058 343.256 383.251 342.435L381.82 341.226C381.551 342.01 381.382 342.793 381.214 343.553V343.553ZM372.462 333.515L371.032 332.205C370.517 332.733 370.015 333.259 369.562 333.787L371.096 335.188C371.522 334.611 371.972 334.043 372.462 333.518V333.515ZM366.417 342.96L364.123 342.075C363.737 342.988 363.324 344.041 363.118 344.618L365.412 345.504C365.682 344.784 366.095 343.743 366.417 342.96ZM380.917 348.924C380.957 350.042 381.058 350.955 381.15 351.596L383.56 352.497C383.356 351.587 383.192 350.669 383.07 349.746L380.917 348.924Z" fill="#367CFF"/>
<path d="M446 295.358H427.619V112.069L436.809 95.04L446 112.069V295.358Z" fill="#DCE3FF"/>
<path d="M419.274 295.358H400.893V112.069L410.083 95.04L419.274 112.069V295.358Z" fill="#DCE3FF"/>
<path d="M392.547 295.358H374.166V112.069L383.357 95.04L392.547 112.069V295.358Z" fill="#DCE3FF"/>
<path d="M365.822 295.358H347.44V112.069L356.631 95.04L365.822 112.069V295.358Z" fill="#DCE3FF"/>
<path d="M339.095 295.358H320.714V112.069L329.904 95.04L339.095 112.069V295.358Z" fill="#DCE3FF"/>
<path d="M312.369 295.358H293.988V112.069L303.179 95.04L312.369 112.069V295.358Z" fill="#DCE3FF"/>
<path d="M285.642 295.358H267.261V112.069L276.452 95.04L285.642 112.069V295.358Z" fill="#DCE3FF"/>
<path d="M258.917 295.358H240.536V112.069L249.726 95.04L258.917 112.069V295.358Z" fill="#DCE3FF"/>
<path d="M232.191 295.358H213.81V112.069L223 95.04L232.191 112.069V295.358Z" fill="#DCE3FF"/>
<path d="M205.464 295.358H187.083V112.069L196.274 95.04L205.464 112.069V295.358Z" fill="#DCE3FF"/>
<path d="M178.738 295.358H160.357V112.069L169.548 95.04L178.738 112.069V295.358Z" fill="#DCE3FF"/>
<path d="M152.012 295.358H133.631V112.069L142.821 95.04L152.012 112.069V295.358Z" fill="#DCE3FF"/>
<path d="M125.286 295.358H106.905V112.069L116.095 95.04L125.286 112.069V295.358Z" fill="#DCE3FF"/>
<path d="M98.5594 295.358H80.1783V112.069L89.3693 95.04L98.5594 112.069V295.358Z" fill="#DCE3FF"/>
<path d="M71.8338 295.358H53.4519V112.069L62.6428 95.04L71.8338 112.069V295.358Z" fill="#DCE3FF"/>
<path d="M45.1074 295.358H26.7264V112.069L35.9165 95.04L45.1074 112.069V295.358Z" fill="#DCE3FF"/>
<path d="M18.381 295.358H0V112.069L9.19093 95.04L18.381 112.069V295.358Z" fill="#DCE3FF"/>
<path d="M177.002 276.795C176.995 278.499 177.364 280.184 178.081 281.728C178.798 283.272 179.847 284.639 181.151 285.729C182.456 286.82 183.984 287.607 185.627 288.036C187.27 288.465 188.987 288.525 190.656 288.21V294H223.357V267.421L236.33 258.105L249 259.526L238.091 241L232.866 253.686L222.427 261.181H207.006V245.139C202.734 245.139 198.631 246.818 195.577 249.816C192.522 252.814 190.759 256.894 190.664 261.181H190.655V265.379C188.986 265.065 187.269 265.124 185.626 265.553C183.982 265.982 182.454 266.77 181.15 267.861C179.845 268.951 178.797 270.318 178.079 271.862C177.362 273.406 176.994 275.091 177 276.795L177.002 276.795ZM180.211 276.795C180.206 275.514 180.495 274.248 181.055 273.097C181.615 271.945 182.431 270.938 183.44 270.153C184.45 269.368 185.626 268.827 186.877 268.571C188.128 268.315 189.421 268.351 190.656 268.677V284.914C189.421 285.24 188.128 285.276 186.877 285.02C185.626 284.764 184.45 284.223 183.44 283.438C182.431 282.653 181.615 281.646 181.055 280.494C180.495 279.342 180.206 278.077 180.211 276.795V276.795Z" fill="#0CBC8B"/>
<path d="M427.743 279.329H395.308C389.676 271.91 379.801 256.961 386.185 250.578C389.087 247.675 392.284 250.436 395.258 255.378C394.233 245.697 395.258 236.431 401.996 233.731C408.136 231.265 410.876 238.694 411.942 248.65C414.966 242.987 418.944 239.009 424.13 239.313C431.549 239.76 429.752 249.654 425.419 260.615C428.707 258.108 432.158 256.88 435.507 257.976C442.529 260.28 435.973 270.134 427.743 279.329Z" fill="#8DDBE0"/>
<path d="M243 183.905C243 183.905 262.485 194.27 275.099 185.912C275.42 185.698 275.669 185.393 275.814 185.036C275.959 184.679 275.993 184.286 275.911 183.909C275.83 183.533 275.636 183.189 275.356 182.924C275.077 182.659 274.723 182.485 274.343 182.424C268.59 181.51 258.424 179.538 254.396 176.572C256.628 176.125 259.649 175.333 259.47 174.334C259.006 171.708 248.787 172.296 245.778 172L246.184 172.319L243 183.905Z" fill="#E98862"/>
<path d="M272.62 271.008C266.897 269.366 262.59 264.246 260.878 258.545C259.166 252.843 259.771 246.656 261.443 240.942C262.806 236.279 264.874 231.772 265.383 226.937C267.079 210.85 251.48 194.413 258.818 179.999C261.193 175.338 265.788 171.695 266.608 166.529C267.286 162.256 265.181 158.106 264.135 153.906C262.695 148.129 263.425 141.574 267.172 136.948C270.92 132.323 278.003 130.301 283.167 133.263C289.922 137.138 290.508 146.704 288.772 154.295C287.037 161.886 283.819 169.695 285.94 177.188C287.962 184.33 294.541 189.707 295.72 197.036C296.701 203.125 293.727 209.067 292.421 215.1C290.368 224.578 292.457 234.402 292.548 244.099C292.638 253.796 289.9 264.671 272.62 271.008Z" fill="#8DDBE0"/>
<g opacity="0.12">
<path d="M272.62 271.008C266.897 269.366 262.59 264.246 260.878 258.545C259.166 252.843 259.771 246.656 261.443 240.942C262.806 236.279 264.874 231.772 265.383 226.937C267.079 210.85 251.48 194.413 258.818 179.999C261.193 175.338 265.788 171.695 266.608 166.529C267.286 162.256 265.181 158.106 264.135 153.906C262.695 148.129 263.425 141.574 267.172 136.948C270.92 132.323 278.003 130.301 283.167 133.263C289.922 137.138 290.508 146.704 288.772 154.295C287.037 161.886 283.819 169.695 285.94 177.188C287.962 184.33 294.541 189.707 295.72 197.036C296.701 203.125 293.727 209.067 292.421 215.1C290.368 224.578 292.457 234.402 292.548 244.099C292.638 253.796 289.9 264.671 272.62 271.008Z" fill="black"/>
</g>
<path d="M257.438 271.929C254.033 270.847 250.977 268.878 248.585 266.224C246.192 263.571 244.549 260.328 243.824 256.829C242.707 251.06 244.079 244.578 240.921 239.621C236.642 232.903 232.253 232.144 226.925 226.225C218.734 217.121 218.446 213.089 218.986 196.229C219.215 189.098 209.369 181.051 212.837 174.2C215.892 168.164 225.178 168.134 230.444 172.381C235.71 176.628 238.023 183.436 240.317 189.801C242.612 196.165 245.505 202.898 251.321 206.353C254.809 208.424 259.376 209.381 261.303 212.949C262.851 215.818 262.072 219.32 261.45 222.519C259.885 230.563 260.277 240.381 267.031 245.021C270.076 247.117 274.065 247.839 276.571 250.56C279.047 253.249 279.446 257.233 279.278 260.886C278.949 267.906 277.015 274.758 273.624 280.914" fill="#8DDBE0"/>
<path d="M280.35 277.531C277.373 273.984 275.579 269.596 275.219 264.979C274.858 260.363 275.949 255.749 278.339 251.783C282.471 245.235 290.173 240.721 291.791 233.153C293.231 226.409 289.236 219.44 290.432 212.653C291.733 205.268 298.55 200.422 303.975 195.239C305.385 193.979 306.598 192.514 307.574 190.894C309.957 186.603 309.293 181.341 310.101 176.5C311.651 167.229 319.289 159.007 328.563 157.475C336.695 156.131 342.521 160.802 342.521 169.407C342.521 179.6 334.885 183.968 330.989 188.583C325.395 195.264 322.425 203.754 322.637 212.465C322.911 222.197 327.055 232.559 322.628 241.227C319.38 247.589 312.441 250.982 306.989 255.599C302.87 259.128 299.516 263.464 297.135 268.339C294.754 273.213 293.396 278.523 293.144 283.942" fill="#8DDBE0"/>
<path d="M293.094 295.307H260.618C262.612 289.211 268.068 273.46 272.15 270.597C277.234 267.036 283.166 269.735 285.411 273.234C289.444 279.514 292.352 291.92 293.094 295.307Z" fill="#E59D9A"/>
<path opacity="0.42" d="M293.094 295.307H260.618C262.612 289.211 268.068 273.46 272.15 270.597C277.234 267.036 283.166 269.735 285.411 273.234C289.444 279.514 292.352 291.92 293.094 295.307Z" fill="black"/>
<path d="M421.472 295.354H395.038C401.615 290.249 382.87 278.518 395.038 276.326C410.687 273.515 417.099 273.565 424.009 276.326C435.783 281.024 418.651 292.147 421.472 295.354Z" fill="#E59D9A"/>
<path opacity="0.42" d="M421.98 295.354H395.038C401.615 290.249 382.87 278.518 395.038 276.326C410.687 273.515 416.592 273.565 423.502 276.326C435.275 281.024 419.158 292.147 421.98 295.354Z" fill="black"/>
<path d="M193.436 261.994L192.967 261.508L111.995 177.56L80.1286 210.573L125.65 251.471L55.8361 245.428L52.5997 282.84L178.309 293.722C182.116 294.051 185.933 293.211 189.25 291.313C192.566 289.415 195.224 286.55 196.869 283.101C198.513 279.651 199.066 275.782 198.452 272.011C197.839 268.239 196.088 264.745 193.436 261.994Z" fill="#262626"/>
<path opacity="0.1" d="M193.436 261.994L192.967 261.508L111.995 177.56L80.1286 210.573L125.65 251.471L55.8361 245.428L52.5997 282.84L178.309 293.722C182.116 294.051 185.933 293.211 189.25 291.313C192.566 289.415 195.224 286.55 196.869 283.101C198.513 279.651 199.066 275.782 198.452 272.011C197.839 268.239 196.088 264.745 193.436 261.994Z" fill="black"/>
<path d="M38.1605 290.417C38.163 290.99 38.2838 291.557 38.5152 292.081C38.7466 292.606 39.0836 293.077 39.5053 293.465C39.9269 293.853 40.4241 294.15 40.9657 294.338C41.5074 294.525 42.0818 294.599 42.6532 294.554V294.554C43.4453 294.492 44.2032 294.205 44.8377 293.727C45.4722 293.249 45.9569 292.6 46.2346 291.855L54.5432 267.05C54.7023 266.57 54.7556 266.06 54.6996 265.557C54.6435 265.054 54.4794 264.569 54.2184 264.135C51.8526 260.725 50.6432 256.646 50.768 252.497C50.9976 249.266 52.1306 246.164 54.0378 243.545C54.2267 243.315 54.3462 243.036 54.3825 242.741C54.4187 242.445 54.3701 242.146 54.2425 241.877C54.1148 241.608 53.9132 241.381 53.6613 241.222C53.4095 241.064 53.1176 240.98 52.82 240.981H40.6895C40.3316 240.981 39.9773 241.052 39.6468 241.189C39.3164 241.326 39.0163 241.527 38.7638 241.781C38.5112 242.034 38.3113 242.335 38.1754 242.666C38.0394 242.997 37.9702 243.352 37.9717 243.71L38.1605 290.417Z" fill="#C1D8ED"/>
<path d="M32.458 264.152C30.5034 264.152 8.43347 264.081 8.43347 264.081L8.50248 242.769C8.50248 242.769 30.5095 242.84 32.458 242.84V264.152Z" fill="#E98862"/>
<path d="M0.1898 289.988C0.192544 290.561 0.313402 291.128 0.544829 291.652C0.776256 292.176 1.11328 292.647 1.53487 293.036C1.95646 293.424 2.45356 293.721 2.99513 293.909C3.53671 294.096 4.11113 294.17 4.68254 294.126V294.126C5.47461 294.064 6.23255 293.777 6.86707 293.299C7.50158 292.821 7.98624 292.172 8.26395 291.427L16.5725 266.622C16.7315 266.142 16.7849 265.632 16.729 265.129C16.6732 264.626 16.5093 264.141 16.2488 263.707C13.8822 260.297 12.6727 256.217 12.7983 252.068C13.0282 248.837 14.1612 245.736 16.0681 243.117C16.257 242.887 16.3766 242.608 16.4128 242.313C16.449 242.017 16.4005 241.718 16.2728 241.449C16.1451 241.18 15.9436 240.953 15.6917 240.794C15.4398 240.635 15.148 240.552 14.8503 240.553H2.71779C2.35995 240.553 2.00563 240.623 1.67516 240.761C1.3447 240.898 1.0446 241.099 0.792081 241.353C0.539566 241.606 0.33961 241.907 0.203688 242.238C0.0677652 242.569 -0.00144693 242.924 2.29292e-05 243.282L0.1898 289.988Z" fill="#0085FF"/>
<path d="M138.592 227.335C128.96 216.101 108.411 194.199 101.066 182.722C101.201 182.933 58.9191 165.941 58.9191 165.941C58.9191 165.941 45.9504 178.961 49.6586 202.409C51.8741 215.297 64.2441 230.121 79.1776 244.249L19.817 237.375L14.8615 274.595L143.53 293.969C147.055 294.496 150.655 294.113 153.99 292.859C157.326 291.605 160.286 289.52 162.59 286.802C178.743 266.17 150.457 241.174 138.592 227.335Z" fill="#262626"/>
<path d="M131.151 33.6096C131.151 33.6096 134.623 21.6953 124.576 17.6054C112.644 12.7504 107.449 48.8506 104.511 71.0221C104.195 73.3924 103.383 75.6695 102.127 77.7046C100.872 79.7397 99.2009 81.487 97.224 82.8325C95.2472 84.1781 93.0087 85.0915 90.6549 85.5131C88.3011 85.9348 85.8848 85.8553 83.5638 85.2797V85.2797C81.3255 84.7273 79.2229 83.7254 77.3838 82.3351C75.5447 80.9448 74.0075 79.1951 72.8657 77.1922C71.7239 75.1893 71.0012 72.9752 70.7417 70.6844C70.4822 68.3936 70.6913 66.0739 71.3561 63.8664C79.4039 37.1758 99.2645 -10.0259 125.94 1.89353C143.269 9.63785 136.141 27.1531 136.141 27.1531L131.151 33.6096Z" fill="#0F1011"/>
<path d="M119.19 70.9054C122.336 68.4951 126.769 63.1865 130.426 51.5593L146.58 54.8901C146.58 54.8901 137.746 71.8056 142.906 80.5566L119.19 70.9054Z" fill="#E98862"/>
<path opacity="0.15" d="M141.403 75.7095L132.811 61.0957L142.655 64.9826C141.574 68.4492 141.15 72.0871 141.403 75.7095Z" fill="black"/>
<path d="M125.023 40.4213C123.619 46.8494 124.582 53.8691 129.089 57.9651C133.93 62.6066 139.834 65.9928 146.285 67.8284C163.277 73.1726 175.238 34.4672 170.387 24.0295C165.536 13.5917 140.759 8.86761 133.031 19.8777C129.034 25.5761 126.364 34.3038 125.023 40.4213Z" fill="#E98862"/>
<path d="M150.981 45.4752C151.793 45.4752 152.452 44.8168 152.452 44.0047C152.452 43.1926 151.793 42.5342 150.981 42.5342C150.169 42.5342 149.511 43.1926 149.511 44.0047C149.511 44.8168 150.169 45.4752 150.981 45.4752Z" fill="#0F1011"/>
<path d="M162.086 48.9674C162.898 48.9674 163.556 48.309 163.556 47.4969C163.556 46.6847 162.898 46.0264 162.086 46.0264C161.274 46.0264 160.615 46.6847 160.615 47.4969C160.615 48.309 161.274 48.9674 162.086 48.9674Z" fill="#0F1011"/>
<path d="M165.627 45.5544H165.618L162.028 44.0403C161.859 43.9689 161.725 43.8334 161.656 43.6636C161.587 43.4937 161.589 43.3034 161.66 43.1345C161.731 42.9656 161.867 42.832 162.037 42.763C162.207 42.694 162.397 42.6953 162.566 42.7666L166.155 44.2808C166.32 44.3538 166.45 44.4884 166.517 44.6559C166.585 44.8234 166.583 45.0106 166.514 45.1773C166.445 45.344 166.314 45.4771 166.148 45.5482C165.982 45.6192 165.795 45.6225 165.627 45.5575V45.5544Z" fill="#0F1011"/>
<path d="M149.045 40.3402C148.892 40.2739 148.768 40.1545 148.696 40.0041C148.624 39.8536 148.609 39.6823 148.654 39.5216C148.698 39.3609 148.799 39.2217 148.938 39.1297C149.077 39.0376 149.245 38.999 149.41 39.0209L153.316 39.6125C153.495 39.6424 153.655 39.7412 153.761 39.8877C153.868 40.0341 153.913 40.2165 153.886 40.3956C153.859 40.5748 153.764 40.7363 153.619 40.8455C153.475 40.9547 153.293 41.0028 153.114 40.9795L149.207 40.3879C149.152 40.3783 149.097 40.3623 149.045 40.3402Z" fill="#0F1011"/>
<path d="M147.249 54.9875C147.249 54.9875 152.061 57.5643 156.086 57.7672C156.086 57.7672 154.711 61.0665 150.599 59.7736C146.487 58.4807 147.249 54.9875 147.249 54.9875Z" fill="#F8FCFF"/>
<path d="M142.421 29.3645C132.704 57.3459 127.793 58.6429 127.793 58.6429C127.793 58.6429 117.455 44.841 122.364 27.6585C126.966 11.5529 142.037 7.07128 150.415 8.47786C182.253 13.8312 174.662 41.7122 174.662 41.7122C158.526 39.5221 139.041 28.6287 139.041 28.6287" fill="#0F1011"/>
<path d="M142.54 44.4523C142.035 46.0183 140.931 47.3212 139.469 48.0768C138.007 48.8324 136.306 48.9794 134.737 48.4859C133.167 47.9923 131.856 46.8982 131.09 45.4421C130.323 43.9859 130.164 42.2859 130.646 40.7126C130.879 39.9241 131.269 39.1906 131.792 38.5558C132.314 37.921 132.959 37.3978 133.689 37.0175C134.418 36.6371 135.216 36.4073 136.036 36.3418C136.855 36.2762 137.68 36.3763 138.46 36.6359C142.633 38.1775 143.573 41.1693 142.54 44.4523Z" fill="#E98862"/>
<g opacity="0.15">
<path d="M153.953 54.0193C153.84 53.9734 153.748 53.8887 153.693 53.7806C153.637 53.6724 153.623 53.548 153.651 53.4299C153.68 53.3119 153.75 53.208 153.849 53.1372C153.947 53.0664 154.068 53.0333 154.189 53.0441L157.306 53.3211L157.124 48.2174C157.119 48.0828 157.168 47.9519 157.26 47.8533C157.352 47.7547 157.479 47.6966 157.613 47.6917C157.748 47.6869 157.879 47.7357 157.977 47.8274C158.076 47.9192 158.134 48.0463 158.139 48.1809L158.342 53.8641C158.344 53.9359 158.332 54.0074 158.304 54.0739C158.277 54.1404 158.236 54.2003 158.184 54.2498C158.132 54.2992 158.069 54.3369 158.002 54.3605C157.934 54.3842 157.861 54.3931 157.79 54.3867L154.102 54.0589C154.05 54.0536 154 54.0402 153.953 54.0193V54.0193Z" fill="black"/>
</g>
<path d="M135.903 11.0161C132.066 12.4902 128.828 15.1971 126.697 18.7117" stroke="#262626" stroke-width="5" stroke-linecap="round" stroke-linejoin="round"/>
<path d="M222.356 210.854L207.038 202.705L208.881 194.84L195.08 187.706" stroke="#0A5AA4" stroke-width="2.97" stroke-linecap="round" stroke-linejoin="round"/>
<path d="M203.086 188.417L189.595 181.831C189.026 181.553 188.34 181.789 188.063 182.358L186.546 185.464C186.269 186.033 186.505 186.719 187.073 186.996L200.564 193.582C201.133 193.86 201.819 193.624 202.097 193.055L203.613 189.949C203.891 189.38 203.655 188.694 203.086 188.417Z" fill="#3A7AB5"/>
<path d="M224.355 195.462L247.708 220.104C248.076 220.493 248.317 220.985 248.397 221.514C248.478 222.044 248.394 222.585 248.158 223.066C247.921 223.546 247.544 223.943 247.075 224.202C246.606 224.461 246.07 224.571 245.537 224.516L205.137 220.366C204.664 220.318 204.213 220.142 203.833 219.857C203.452 219.572 203.156 219.189 202.977 218.748C202.797 218.308 202.741 217.828 202.813 217.358C202.886 216.888 203.085 216.447 203.389 216.082L220.439 195.589C220.676 195.304 220.97 195.073 221.303 194.911C221.635 194.748 221.998 194.658 222.368 194.646C222.738 194.634 223.107 194.7 223.449 194.841C223.791 194.982 224.1 195.193 224.355 195.462V195.462Z" fill="#878787"/>
<path d="M197.687 183.406C197.442 183.203 197.194 183.02 196.946 182.833C197.978 182.26 198.671 181.492 197.774 180.592C195.775 178.594 184.856 177.189 184.856 177.189L179.927 191.492C179.927 191.492 188.91 200.356 195.331 198.088C201.054 196.061 202.586 187.394 197.687 183.406Z" fill="#E98862"/>
<path d="M134.946 196.944C127.835 204.883 47.2484 182.445 51.598 165.775C54.3666 155.167 66.5224 149.132 73.2316 128.898C79.9408 108.664 69.8826 76.6402 90.0893 66.4977C95.9511 63.5547 104.494 63.233 113.764 66.2948C112.666 71.9292 145.47 82.8246 147.476 77.6103C148.722 78.0447 149.688 78.3857 150.286 78.6161C181.792 90.5913 155.689 122.307 146.522 148.927C135.781 180.072 142.276 188.764 134.946 196.944Z" fill="#367CFF"/>
<path d="M147.476 77.6105C145.47 82.8248 140.006 89.6638 130.92 87.3033C118.813 84.1573 112.666 71.9293 113.769 66.2959L113.798 66.306C125.458 70.1716 140.71 75.2499 147.476 77.6105Z" fill="#E98862"/>
<path d="M241.744 188.514L179.882 166.289C177.615 165.475 175.676 163.942 174.359 161.925L145.428 103.096L163.953 90.9983L190.855 146.722L249.225 167.688L241.744 188.514Z" fill="#367CFF"/>
<path d="M180.107 195.081L114.659 166.697C112.391 165.713 110.517 163.998 109.337 161.826L79.3552 106.593L98.8038 96.0381L126.964 147.916L188.91 174.782L180.107 195.081Z" fill="#367CFF"/>
</svg>
