<svg width="446" height="371" viewBox="0 0 446 371" fill="none" xmlns="http://www.w3.org/2000/svg">
<path d="M310.372 336.224L319.569 370.849H306.585L291.977 336.224H310.372Z" fill="#DEE8F5"/>
<path d="M142.657 336.224L133.46 370.849H146.444L161.051 336.224H142.657Z" fill="#DEE8F5"/>
<path d="M251.218 336.224L260.414 370.849H247.431L232.823 336.224H251.218Z" fill="#C1D8ED"/>
<path d="M83.5029 336.224L74.3057 370.849H87.2899L101.897 336.224H83.5029Z" fill="#C1D8ED"/>
<path d="M69.7296 286.346H237.045L225.698 162.917C225.427 159.964 224.062 157.219 221.871 155.22C219.68 153.221 216.822 152.113 213.856 152.114H70.4287C68.7754 152.113 67.1403 152.458 65.6277 153.125C64.1151 153.792 62.7583 154.768 61.6438 155.989C60.5293 157.21 59.6816 158.65 59.1549 160.217C58.6282 161.784 58.434 163.444 58.5847 165.09L69.7296 286.346Z" fill="#1B92FF"/>
<path d="M218.292 342.394H332.041V228.646H218.292V342.394Z" fill="#C1D8ED"/>
<path d="M102.158 286.346H263.301L251.955 162.917C251.683 159.964 250.318 157.219 248.127 155.22C245.936 153.222 243.078 152.114 240.112 152.114H102.855C101.202 152.113 99.5667 152.458 98.0542 153.125C96.5417 153.793 95.1849 154.768 94.0705 155.989C92.9561 157.21 92.1085 158.65 91.5818 160.217C91.0552 161.784 90.861 163.444 91.0117 165.09L102.158 286.346Z" fill="#DEE8F5"/>
<g opacity="0.48">
<path d="M102.158 286.346H263.301L251.955 162.917C251.683 159.964 250.318 157.219 248.127 155.22C245.936 153.222 243.078 152.114 240.112 152.114H102.855C101.202 152.113 99.5667 152.458 98.0542 153.125C96.5417 153.793 95.1849 154.768 94.0705 155.989C92.9561 157.21 92.1085 158.65 91.5818 160.217C91.0552 161.784 90.861 163.444 91.0117 165.09L102.158 286.346Z" fill="#C1D8ED"/>
</g>
<path d="M159.033 347.485H62.156C57.6815 347.485 53.3902 345.707 50.2262 342.543C47.0622 339.379 45.2847 335.088 45.2847 330.613L45.2847 245.517C45.2847 241.043 47.0622 236.752 50.2262 233.588C53.3902 230.424 57.6815 228.646 62.156 228.646H159.033L159.033 347.485Z" fill="#1B92FF"/>
<path d="M159.032 347.485H332.044C336.953 347.484 341.661 345.534 345.131 342.062C348.602 338.591 350.552 333.884 350.552 328.975V247.156C350.521 242.267 348.557 237.589 345.089 234.143C341.621 230.698 336.93 228.764 332.042 228.764C327.153 228.764 322.463 230.698 318.995 234.143C315.527 237.589 313.563 242.267 313.532 247.156V310.462H177.54V247.156C177.54 242.247 175.59 237.539 172.118 234.067C168.647 230.596 163.939 228.646 159.03 228.646C154.121 228.646 149.413 230.596 145.942 234.067C142.47 237.539 140.52 242.247 140.52 247.156V328.975C140.52 331.406 140.999 333.813 141.929 336.059C142.86 338.305 144.223 340.345 145.942 342.064C147.661 343.783 149.702 345.146 151.948 346.076C154.194 347.006 156.601 347.485 159.032 347.485Z" fill="#92C1FF"/>
<path d="M323.222 313.523H177.29V273.928H323.222C326.359 273.928 329.367 275.174 331.585 277.392C333.803 279.61 335.05 282.618 335.05 285.755V301.693C335.05 304.83 333.803 307.838 331.585 310.056C329.367 312.274 326.359 313.52 323.222 313.52V313.523Z" fill="#F3F5FD"/>
<g opacity="0.15">
<path d="M323.222 313.523H177.29V273.928H323.222C326.359 273.928 329.367 275.174 331.585 277.392C333.803 279.61 335.05 282.619 335.05 285.755V301.693C335.05 304.83 333.803 307.838 331.585 310.057C329.367 312.275 326.359 313.521 323.222 313.521V313.523Z" fill="#C1D8ED"/>
</g>
<path d="M359.783 262.362C354.931 258.79 349.071 254.546 348.074 253.916C348.137 253.956 348.192 253.987 348.234 254.011L356.088 240.162C356.504 240.397 357.767 241.113 369.217 249.537L359.783 262.362Z" fill="#E98862"/>
<path d="M385.798 236.639C386.007 236.265 386.137 235.853 386.18 235.427C386.223 235.001 386.178 234.57 386.047 234.163C385.916 233.755 385.702 233.379 385.419 233.058C385.137 232.736 384.79 232.477 384.403 232.295C383.865 232.043 383.267 231.95 382.679 232.027C382.09 232.104 381.536 232.347 381.081 232.728L366.54 245.786C366.26 246.039 366.037 246.351 365.888 246.698C365.739 247.046 365.667 247.421 365.677 247.799C365.957 250.888 365.24 253.984 363.63 256.634C362.29 258.65 360.411 260.248 358.206 261.246C357.999 261.326 357.818 261.464 357.686 261.643C357.554 261.822 357.475 262.034 357.46 262.256C357.444 262.478 357.491 262.7 357.596 262.895C357.702 263.091 357.861 263.253 358.054 263.362L365.939 267.835C366.172 267.967 366.428 268.052 366.693 268.085C366.958 268.117 367.227 268.097 367.485 268.025C367.742 267.954 367.983 267.832 368.193 267.667C368.404 267.502 368.579 267.297 368.71 267.064L385.798 236.639Z" fill="#C1D8ED"/>
<path d="M218.199 206.267C216.824 206.267 215.472 205.911 214.275 205.233C213.079 204.555 212.078 203.579 211.371 202.4L185.428 159.101L199.086 150.913L222.631 190.213L267.904 188.901L268.367 204.818L218.432 206.264C218.353 206.266 218.276 206.267 218.199 206.267Z" fill="#367CFF"/>
<path d="M209.124 235.638C208.796 234.52 208.351 233.439 207.799 232.414C207.522 231.898 207.218 231.397 206.889 230.914C206.592 230.47 206.143 229.896 205.92 229.629C204.859 228.347 203.612 227.232 202.22 226.32C201.425 225.794 200.586 225.34 199.711 224.962C199.494 224.868 199.27 224.777 199.056 224.696L198.692 224.56C198.448 224.472 198.202 224.391 197.952 224.315C197.705 224.239 197.454 224.171 197.202 224.108L196.602 223.971C196.318 223.91 196.032 223.86 195.745 223.819L195.313 223.762L195.036 223.731L194.532 223.689C194.137 223.666 194.002 223.665 193.792 223.662L193.3 223.671L192.955 223.693L192.749 223.713C192.276 223.778 192.387 223.806 192.504 223.808C193.044 223.782 193.581 223.725 194.113 223.635C195.478 223.423 197.047 223.104 198.636 222.77C201.835 222.088 205.156 221.261 208.492 220.424C215.163 218.705 221.904 216.848 228.624 214.89C235.356 212.962 242.074 210.916 248.791 208.855C255.507 206.794 262.222 204.632 268.873 202.498L269.409 202.326C272.643 201.291 276.147 201.503 279.233 202.921L300.082 212.518C307.052 215.671 314.015 218.842 321.007 221.951L331.495 226.609L342.007 231.208C349.032 234.241 356.052 237.278 363.13 240.19L351.763 265.835C344.853 262.546 337.888 259.386 330.922 256.217L320.454 251.517L309.96 246.876C302.962 243.784 295.934 240.755 288.92 237.71L267.807 228.707L278.166 229.13L238.099 243.871C231.387 246.302 224.679 248.762 217.826 251.154C214.398 252.367 210.945 253.541 207.328 254.717C205.508 255.307 203.66 255.88 201.579 256.456C200.517 256.746 199.428 257.036 197.993 257.327C197.044 257.521 196.085 257.662 195.121 257.749L194.584 257.792L193.908 257.823L193.551 257.832H193.082C192.759 257.827 192.517 257.826 192.011 257.792L191.343 257.736L190.983 257.697L190.47 257.626C190.128 257.575 189.788 257.514 189.45 257.443L189.187 257.387L188.769 257.286C188.49 257.216 188.212 257.14 187.935 257.059C187.657 256.977 187.384 256.888 187.116 256.79L186.713 256.643C186.485 256.555 186.249 256.458 186.021 256.358C185.098 255.955 184.21 255.476 183.367 254.926C181.933 253.978 180.645 252.826 179.543 251.507C179.308 251.231 178.856 250.643 178.551 250.188C178.214 249.692 177.903 249.179 177.619 248.651C177.053 247.601 176.596 246.497 176.254 245.354L209.124 235.638Z" fill="#262626"/>
<path d="M406.508 270.585C406.508 270.585 390.272 267.991 388.833 267.766L391.294 252.037C392.735 252.264 409.019 254.863 409.019 254.863L406.508 270.585Z" fill="#E98862"/>
<path d="M150.651 228.093L149.469 247.94C149.333 250.221 149.668 252.506 150.454 254.651C151.24 256.797 152.459 258.758 154.036 260.411C155.612 262.065 157.513 263.377 159.618 264.264C161.724 265.151 163.989 265.595 166.274 265.568L213.222 265.016L208.329 231.657L150.651 228.093Z" fill="#262626"/>
<path d="M183.269 249.079C183.341 247.061 182.946 245.054 182.114 243.215C181.504 241.839 180.638 240.592 179.564 239.538C179.095 239.075 178.573 238.669 178.008 238.329C177.904 238.266 177.795 238.209 177.684 238.16C177.659 238.148 177.634 238.138 177.608 238.131C177.6 238.129 177.591 238.129 177.583 238.131C177.908 238.296 178.251 238.426 178.604 238.518C179.197 238.695 179.949 238.881 180.781 239.049C182.645 239.404 184.526 239.661 186.417 239.818C187.42 239.907 188.447 239.976 189.434 240.022L190.149 240.052L190.935 240.073L192.801 240.124L222.648 240.933L282.339 242.553L401.711 245.792L401.307 273.844L282.054 273.643L222.434 273.543L192.627 273.484L188.533 273.474C187.035 273.453 185.576 273.398 184.101 273.319C181.029 273.157 177.966 272.834 174.928 272.351C173.312 272.087 171.63 271.755 169.821 271.294C167.762 270.775 165.747 270.095 163.794 269.263C162.509 268.708 161.263 268.065 160.066 267.339C158.437 266.355 156.926 265.188 155.564 263.859C153.592 261.941 151.996 259.672 150.858 257.168C149.525 254.185 148.894 250.937 149.011 247.672L183.269 249.079Z" fill="#262626"/>
<path d="M418.094 236.692C418.159 236.269 418.135 235.837 418.025 235.423C417.914 235.01 417.72 234.623 417.453 234.288C417.187 233.953 416.854 233.676 416.476 233.475C416.098 233.274 415.683 233.154 415.256 233.121C414.664 233.074 414.071 233.198 413.547 233.478C413.023 233.757 412.59 234.181 412.299 234.698L403.305 252.051C403.132 252.387 403.033 252.757 403.017 253.135C403 253.513 403.065 253.89 403.208 254.24C404.561 257.03 404.982 260.181 404.411 263.229C403.869 265.587 402.674 267.745 400.964 269.458C400.798 269.606 400.678 269.799 400.618 270.013C400.557 270.227 400.559 270.454 400.622 270.667C400.686 270.881 400.809 271.071 400.977 271.217C401.145 271.363 401.351 271.459 401.571 271.492L410.524 272.892C410.788 272.933 411.058 272.922 411.318 272.859C411.577 272.796 411.822 272.682 412.038 272.524C412.253 272.366 412.436 272.167 412.574 271.938C412.713 271.71 412.805 271.456 412.845 271.192L418.094 236.692Z" fill="#C1D8ED"/>
<path d="M213.097 230.133C210.953 237.801 149.541 249.371 146.953 236.764C145.305 228.741 151.46 220.685 149.274 204.907C147.088 189.129 129.78 170.991 139.969 157.522C142.926 153.615 148.545 150.578 155.768 149.57C156.892 153.708 182.473 150.176 182.096 146.022C183.074 145.902 183.835 145.812 184.311 145.768C209.378 143.39 202.355 173.265 205.003 194.13C208.087 218.55 215.31 222.233 213.097 230.133Z" fill="#367CFF"/>
<path d="M116.494 170.675L113.304 179.067C113.304 179.067 100.831 178.586 94.8047 168.819C92.8069 165.581 96.4309 163.265 97.6023 163.866C101.473 165.85 105.928 169.632 109.667 169.62C108.516 168.364 107.045 166.556 107.592 166.032C109.029 164.653 116.494 170.675 116.494 170.675Z" fill="#E98862"/>
<path d="M182.095 146.024C182.474 150.182 181.068 156.568 174.2 157.987C165.047 159.875 156.891 153.71 155.767 149.571H155.79C164.884 148.309 176.782 146.676 182.095 146.024Z" fill="#E98862"/>
<path d="M136.176 224.75C134.738 224.749 133.325 224.374 132.077 223.661C130.829 222.947 129.788 221.921 129.058 220.682L103.744 177.751L117.985 169.355L131.898 192.946L136.867 164.466L153.153 167.308L144.323 217.905C143.989 219.822 142.989 221.56 141.499 222.812C140.009 224.064 138.124 224.751 136.178 224.75H136.176Z" fill="#367CFF"/>
<path d="M157.847 152.158C157.847 152.158 163.47 148.633 161.009 132.806L172.927 129.689C172.927 129.689 172.606 144.063 179.046 148.152L157.847 152.158Z" fill="#E98862"/>
<g opacity="0.15">
<path d="M176.354 145.347L165.761 138.397L173.637 137.744C174.061 140.425 174.983 143.004 176.354 145.347Z" fill="black"/>
</g>
<path d="M153.706 127.129C154.894 131.899 157.861 136.282 162.236 137.534C167.429 139.019 171.182 138.873 177.02 138.449C184.98 137.872 184.114 129.591 183.73 121.21C183.345 112.794 182.024 103.837 178.666 101.138C171.964 95.7555 153.804 100.789 152.271 110.721C151.476 115.858 152.577 122.589 153.706 127.129Z" fill="#E98862"/>
<path d="M187.162 100.428C185.477 95.6426 181.154 93.5577 174.425 95.8496C169.637 97.4789 168.937 96.3803 164.66 94.6873C162.209 93.7199 154.484 94.8033 152.942 100.199C151.29 105.979 144.587 101.882 144.66 111.097C144.722 118.81 146.935 128.673 155.948 134.764C157.408 136.033 159.038 137.09 160.792 137.905C161.551 138.285 161.697 137.92 161.89 137.099C162.573 134.194 163.647 124.134 162.327 116.107C162.109 114.786 162.208 112.702 165.606 112.312C169.321 111.885 179.056 112.022 182.302 109.317C182.299 109.317 188.848 105.214 187.162 100.428Z" fill="#0F1011"/>
<path d="M172.275 122.038C172.882 122.038 173.374 121.546 173.374 120.939C173.374 120.332 172.882 119.841 172.275 119.841C171.668 119.841 171.177 120.332 171.177 120.939C171.177 121.546 171.668 122.038 172.275 122.038Z" fill="#0F1011"/>
<path d="M180.868 120.702C181.475 120.702 181.967 120.21 181.967 119.603C181.967 118.997 181.475 118.505 180.868 118.505C180.261 118.505 179.77 118.997 179.77 119.603C179.77 120.21 180.261 120.702 180.868 120.702Z" fill="#0F1011"/>
<path d="M179.654 117.306C179.521 117.304 179.394 117.251 179.3 117.157C179.205 117.064 179.15 116.938 179.146 116.805C179.143 116.672 179.19 116.543 179.279 116.444C179.368 116.346 179.491 116.285 179.624 116.275L182.528 116.101C182.665 116.094 182.798 116.141 182.9 116.232C183.002 116.322 183.065 116.449 183.075 116.585C183.083 116.722 183.036 116.856 182.946 116.958C182.855 117.061 182.727 117.123 182.591 117.132L179.686 117.306H179.654Z" fill="#0F1011"/>
<path d="M169.731 119.127C169.608 119.127 169.489 119.083 169.396 119.003C169.303 118.923 169.241 118.812 169.222 118.691C169.203 118.569 169.228 118.445 169.293 118.34C169.357 118.236 169.457 118.158 169.574 118.12L172.386 117.223C172.516 117.181 172.658 117.193 172.78 117.256C172.902 117.319 172.994 117.428 173.035 117.559C173.077 117.689 173.065 117.831 173.002 117.953C172.939 118.075 172.83 118.167 172.699 118.208L169.887 119.105C169.837 119.121 169.784 119.128 169.731 119.127Z" fill="#0F1011"/>
<path d="M166.774 124.034C166.87 124.639 166.846 125.258 166.702 125.854C166.559 126.45 166.3 127.011 165.939 127.507C165.578 128.002 165.123 128.422 164.6 128.741C164.076 129.06 163.495 129.273 162.89 129.367C162.284 129.461 161.666 129.435 161.07 129.29C160.475 129.144 159.914 128.883 159.42 128.521C158.925 128.158 158.508 127.702 158.19 127.177C157.873 126.653 157.662 126.071 157.57 125.465C157.465 124.86 157.483 124.239 157.623 123.641C157.763 123.043 158.022 122.479 158.385 121.982C158.748 121.486 159.206 121.068 159.734 120.753C160.262 120.438 160.847 120.232 161.456 120.148C164.755 119.8 166.375 121.496 166.774 124.034Z" fill="#E98862"/>
<g opacity="0.15">
<path d="M177.58 126.664C177.489 126.671 177.399 126.645 177.326 126.591C177.253 126.537 177.202 126.458 177.182 126.369C177.162 126.281 177.175 126.188 177.218 126.108C177.261 126.027 177.331 125.965 177.415 125.933L179.594 125.086L177.783 121.729C177.735 121.64 177.725 121.536 177.754 121.44C177.782 121.344 177.848 121.263 177.937 121.215C178.025 121.167 178.129 121.157 178.225 121.185C178.322 121.214 178.403 121.28 178.45 121.368L180.465 125.105C180.49 125.152 180.505 125.204 180.508 125.257C180.512 125.31 180.504 125.364 180.486 125.414C180.467 125.464 180.438 125.51 180.401 125.548C180.364 125.586 180.319 125.616 180.269 125.635L177.691 126.637C177.656 126.652 177.618 126.661 177.58 126.664Z" fill="black"/>
</g>
<path d="M173.408 129.532C173.408 129.532 177.484 129.665 180.246 128.471C180.246 128.471 180.418 131.137 177.236 131.631C174.055 132.125 173.408 129.532 173.408 129.532Z" fill="white"/>
<path d="M379.576 281.496L361.586 369.245C361.47 369.703 361.205 370.109 360.833 370.4C360.46 370.69 360.002 370.848 359.53 370.849C359.207 370.848 358.89 370.774 358.6 370.633C358.311 370.491 358.057 370.285 357.859 370.031C357.661 369.777 357.524 369.482 357.457 369.167C357.39 368.851 357.395 368.525 357.473 368.213L375.722 279.45L379.576 281.496Z" fill="#0085FF"/>
<path d="M421.845 281.356L439.836 369.105C439.952 369.563 440.217 369.969 440.589 370.26C440.961 370.55 441.42 370.708 441.892 370.709C442.214 370.708 442.532 370.634 442.822 370.492C443.111 370.351 443.364 370.145 443.562 369.891C443.761 369.637 443.898 369.341 443.965 369.026C444.032 368.711 444.026 368.385 443.948 368.072L425.701 279.31L421.845 281.356Z" fill="#0085FF"/>
<path d="M440.754 272.913H360.666C358.642 272.913 357 274.555 357 276.58V284.651C357 286.676 358.642 288.318 360.666 288.318H440.754C442.779 288.318 444.42 286.676 444.42 284.651V276.58C444.42 274.555 442.779 272.913 440.754 272.913Z" fill="#86BBFF"/>
<path d="M262.757 162.961L253.551 201.606C253.408 202.207 253.404 202.833 253.537 203.437C253.67 204.04 253.939 204.606 254.322 205.09C254.705 205.575 255.192 205.967 255.749 206.237C256.305 206.507 256.915 206.647 257.533 206.647H311.81C312.707 206.647 313.578 206.353 314.291 205.809C315.004 205.265 315.519 204.503 315.757 203.638L326.364 164.994C326.531 164.386 326.555 163.749 326.435 163.13C326.315 162.512 326.054 161.93 325.672 161.429C325.29 160.928 324.798 160.522 324.233 160.242C323.669 159.963 323.047 159.817 322.417 159.817H266.742C265.821 159.817 264.927 160.127 264.203 160.697C263.48 161.268 262.971 162.065 262.757 162.961Z" fill="#9EBCEA"/>
<path d="M234.233 206.647H299.831C300.469 206.647 301.081 206.394 301.532 205.943C301.983 205.492 302.236 204.88 302.236 204.242C302.236 203.604 301.983 202.993 301.532 202.542C301.081 202.091 300.469 201.837 299.831 201.837H234.233C233.596 201.837 232.984 202.091 232.533 202.542C232.082 202.993 231.829 203.604 231.829 204.242C231.829 204.88 232.082 205.492 232.533 205.943C232.984 206.394 233.596 206.647 234.233 206.647Z" fill="#9EBCEA"/>
<path d="M292.18 189.27C295.725 189.27 298.599 186.396 298.599 182.851C298.599 179.306 295.725 176.432 292.18 176.432C288.635 176.432 285.762 179.306 285.762 182.851C285.762 186.396 288.635 189.27 292.18 189.27Z" fill="white"/>
<path d="M58.0796 307.285C54.2888 306.045 50.3979 307.437 46.6754 310.269C51.5791 297.888 53.6019 286.705 45.2197 286.201C39.3546 285.849 34.8617 290.348 31.4485 296.745C30.2483 285.498 27.1512 277.109 20.2133 279.891C12.5968 282.944 11.4383 293.408 12.5938 304.357C9.23816 298.765 5.62553 295.646 2.34497 298.927C-7.44515 308.717 16.5855 336.304 16.5855 336.304H22.553L25.9594 340.002C25.2695 341.459 24.8919 342.328 24.8919 342.328L29.218 351.131C29.218 351.131 73.8114 312.436 58.0796 307.285Z" fill="#8DDBE0"/>
<path d="M47.3796 370.849H13.6036L7.94922 331.419H53.0332L47.3796 370.849Z" fill="#C1D8ED"/>
<path d="M177.54 310.465V247.159C177.54 242.25 175.59 237.542 172.118 234.07C168.647 230.599 163.939 228.649 159.03 228.649C154.121 228.649 149.413 230.599 145.942 234.07C142.47 237.542 140.52 242.25 140.52 247.159" fill="#DEE8F5"/>
<path d="M445.424 18.4929H260.414V136.726H445.424V18.4929Z" fill="#006FFF"/>
<path d="M445.424 0H260.414V18.4923H445.424V0Z" fill="#8FC6F9"/>
<path d="M440.191 24.8223H265.648V110.956H440.191V24.8223Z" fill="white"/>
<path d="M440.191 110.194H265.648V114.693H440.191V110.194Z" fill="#8FC6F9"/>
<path d="M270.629 129.247L277.595 124.679L270.629 120.112V129.247Z" fill="white"/>
<path d="M352.916 125.287C352.917 125.442 352.887 125.595 352.828 125.738C352.769 125.882 352.683 126.012 352.574 126.122C352.465 126.232 352.335 126.319 352.192 126.379C352.049 126.438 351.895 126.469 351.741 126.469H331.301V124.104H351.741C351.895 124.104 352.049 124.135 352.192 124.195C352.335 124.254 352.465 124.342 352.574 124.452C352.683 124.561 352.769 124.692 352.828 124.835C352.887 124.978 352.917 125.132 352.916 125.287Z" fill="#8FC6F9"/>
<path d="M331.3 124.101V126.466H318.519C318.205 126.466 317.904 126.342 317.682 126.12C317.461 125.898 317.336 125.597 317.336 125.284C317.336 124.97 317.461 124.669 317.682 124.447C317.904 124.225 318.205 124.101 318.519 124.101H331.3Z" fill="white"/>
<path d="M331.304 128.45C333.053 128.45 334.471 127.032 334.471 125.283C334.471 123.533 333.053 122.115 331.304 122.115C329.554 122.115 328.136 123.533 328.136 125.283C328.136 127.032 329.554 128.45 331.304 128.45Z" fill="white"/>
<path d="M434.982 13.8942C437.549 13.8942 439.63 11.8134 439.63 9.24664C439.63 6.67989 437.549 4.59912 434.982 4.59912C432.415 4.59912 430.334 6.67989 430.334 9.24664C430.334 11.8134 432.415 13.8942 434.982 13.8942Z" fill="white"/>
<path d="M350.59 35.6435C350.59 35.6435 367.104 45.0838 371.425 60.081C375.319 73.6279 372.201 80.0932 372.201 80.0932C374.192 82.2631 375.762 84.7854 376.828 87.5307C377.899 89.2946 378.529 91.2911 378.663 93.3504C378.797 95.4098 378.432 97.4711 377.598 99.359C377.598 99.359 377.333 93.834 369.098 92.6891C361.552 91.6266 358.808 98.9738 344.395 98.6179C336.41 98.4657 328.582 96.3624 321.596 92.4914C314.609 88.6204 308.676 83.0991 304.312 76.409C311.354 80.2499 320.579 86.2132 332.068 85.2968C343.556 84.3804 345.955 80.8502 345.955 80.8502C333.041 70.6316 321.611 58.6676 311.992 45.3017C321.023 52.8587 343.394 67.8984 342.873 67.5159C334.69 59.5202 327.204 50.8418 320.494 41.5749C320.494 41.5749 354.059 69.1707 356.76 68.9954C357.87 66.7084 363.611 54.8695 350.587 35.6409L350.59 35.6435Z" fill="url(#paint0_linear_560_803)"/>
<defs>
<linearGradient id="paint0_linear_560_803" x1="342.669" y1="61.1435" x2="341.265" y2="99.3909" gradientUnits="userSpaceOnUse">
<stop stop-color="#35ECF8"/>
<stop offset="1" stop-color="#5A21FD"/>
</linearGradient>
</defs>
</svg>
