<svg width="446" height="372" viewBox="0 0 446 372" fill="none" xmlns="http://www.w3.org/2000/svg">
<circle cx="313" cy="79" r="73" fill="#9FD1FF"/>
<circle cx="133" cy="260" r="73" fill="#9FD1FF"/>
<circle cx="23.0002" cy="231" r="23" fill="#9FD1FF"/>
<circle cx="32.5002" cy="278.5" r="11.5" fill="#9FD1FF"/>
<circle cx="348.5" cy="267.5" r="48.5" fill="#9FD1FF"/>
<circle cx="415.5" cy="183.5" r="30.5" fill="#9FD1FF"/>
<circle cx="414" cy="111" r="17" fill="#9FD1FF"/>
<rect x="12" y="63" width="129.833" height="129.833" fill="black"/>
<path d="M258.347 98.4451C205.432 98.4451 162.706 141.215 162.706 193.969C162.706 210.557 169.003 229.241 174.375 239.762C192.01 274.319 270.25 315.582 270.25 315.582C270.36 315.767 257.551 371.284 257.738 371.39C257.925 371.496 258.136 371.552 258.351 371.552C258.566 371.552 258.778 371.496 258.965 371.39C259.152 371.284 259.308 371.131 259.418 370.947C259.418 370.947 324.692 274.319 342.327 239.762C347.697 229.239 353.996 210.557 353.996 193.969C353.996 141.213 311.27 98.4451 258.355 98.4451H258.347Z" fill="#367CFF"/>
<path d="M256.3 113.424C256.986 113.407 257.666 113.424 258.356 113.424C268.961 113.424 279.459 115.532 289.242 119.625C299.024 123.718 307.896 129.715 315.34 137.266C322.785 144.818 328.655 153.774 332.608 163.614C336.561 173.454 338.519 183.981 338.368 194.584C337.766 237.681 302.593 272.857 259.494 273.455C238.383 273.702 218.03 265.597 202.868 250.907C187.705 236.217 178.961 216.131 178.54 195.023C178.118 173.916 186.054 153.497 200.619 138.213C215.183 122.93 235.196 114.02 256.3 113.424Z" fill="white"/>
<path d="M29.435 56.002C29.6154 55.9975 29.794 56.002 29.9754 56.002C32.7616 56.002 35.52 56.5552 38.0903 57.6293C40.6606 58.7034 42.9915 60.2771 44.9475 62.2589C46.9036 64.2406 48.4458 66.5909 49.4844 69.1732C50.5231 71.7554 51.0375 74.5181 50.9979 77.3007C50.8396 88.6105 41.5982 97.8418 30.2742 97.9986C24.7276 98.0633 19.3801 95.9366 15.3962 92.0815C11.4123 88.2263 9.11488 82.9552 9.00419 77.4159C8.8935 71.8767 10.9786 66.5182 14.8052 62.5073C18.6319 58.4965 23.8903 56.1583 29.435 56.002Z" fill="white"/>
<path d="M133.435 147.002C133.615 146.997 133.794 147.002 133.975 147.002C136.762 147.002 139.52 147.555 142.09 148.629C144.661 149.703 146.991 151.277 148.948 153.259C150.904 155.241 152.446 157.591 153.484 160.173C154.523 162.755 155.038 165.518 154.998 168.301C154.84 179.611 145.598 188.842 134.274 188.999C128.728 189.063 123.38 186.937 119.396 183.081C115.412 179.226 113.115 173.955 113.004 168.416C112.894 162.877 114.979 157.518 118.805 153.507C122.632 149.497 127.89 147.158 133.435 147.002Z" fill="white"/>
<path d="M282.613 92.5679C282.613 92.5679 305.762 92.8509 297.781 124.754L295.608 124.86L291.195 125.075L282.613 92.5679Z" fill="#0C0C0C"/>
<path d="M256.764 158.223C256.872 158.213 257.298 178.112 280.429 177.276C296.441 176.699 302.792 159.98 303.158 159.994C301.45 159.562 298.572 158.917 297.823 158.48C295.362 157.031 292.307 155.505 291.684 150.591C291.327 147.759 292.677 133.393 292.544 130.536L267.824 135.056C267.932 141.082 269.788 155.116 261.292 157.257C259.878 157.61 258.361 157.928 256.764 158.223Z" fill="#E98862"/>
<path opacity="0.52" d="M266.827 151.767C267.259 150.545 267.556 149.279 267.712 147.992C268.096 145.057 268.158 142.088 267.895 139.139C272.903 138.66 277.676 136.786 281.671 133.73C282.061 135.428 284.279 142.868 283.524 144.44C282.095 147.41 275.75 152.114 266.827 151.767Z" fill="#0C0C0C"/>
<path d="M272.442 148.251C282.132 147.56 293.823 141.658 294.23 128.528L294.596 116.681C295.002 103.552 288.436 92.6951 276.073 92.3123C263.711 91.93 254.142 102.287 253.736 115.418L253.574 120.662C253.549 122.464 253.648 124.265 253.868 126.053C254.417 130.784 255.269 137.978 258.382 142.89C261.325 147.527 266.251 148.692 272.442 148.251Z" fill="#E98862"/>
<path d="M293.342 132.505C297.099 132.622 300.269 128.697 300.385 124.94C300.502 121.183 297.52 119.017 293.763 118.901L291.749 121.359L290.112 132.406L293.342 132.505Z" fill="#E98862"/>
<path d="M254.37 130.018C255.049 130.822 255.918 131.445 256.898 131.828C257.879 132.211 258.94 132.342 259.984 132.211C262.218 131.932 263.7 132.847 265.565 132.662C267.131 132.508 267.404 131.785 270.074 131.627C280.39 131.014 288.128 130.366 288.632 117.422L295.196 111.591C295.196 111.591 298.13 147.46 278.729 152.228C266.808 155.158 255.626 154.086 254.189 142.889C253.021 133.792 254.37 130.018 254.37 130.018Z" fill="#0C0C0C"/>
<path d="M259.26 122.528C260.101 122.528 260.783 121.846 260.783 121.005C260.783 120.163 260.101 119.481 259.26 119.481C258.418 119.481 257.736 120.163 257.736 121.005C257.736 121.846 258.418 122.528 259.26 122.528Z" fill="#0C0C0C"/>
<path d="M272.865 122.244C273.706 122.244 274.388 121.562 274.388 120.72C274.388 119.879 273.706 119.197 272.865 119.197C272.024 119.197 271.342 119.879 271.342 120.72C271.342 121.562 272.024 122.244 272.865 122.244Z" fill="#0C0C0C"/>
<path d="M289.705 126.398C289.705 126.398 288.774 107.793 283.16 106.542C279.422 105.71 270.224 110.867 261.824 109.105C258.146 108.335 254.631 109.184 254.246 110.92C254.092 111.607 251.181 105.511 257.095 98.0942C261.803 92.1876 277.109 90.5277 283.919 92.6161C302.773 98.3995 294.514 119.733 294.514 119.733L293.552 126.124L289.705 126.398Z" fill="#0C0C0C"/>
<path d="M298.273 111.397C303.823 111.397 308.322 106.898 308.322 101.348C308.322 95.7979 303.823 91.2988 298.273 91.2988C292.723 91.2988 288.224 95.7979 288.224 101.348C288.224 106.898 292.723 111.397 298.273 111.397Z" fill="#0C0C0C"/>
<path d="M265.741 132.067H265.717C264.507 132.033 262.479 131.84 262.504 130.934C262.526 130.184 264.809 122.141 265.067 121.227C265.076 121.186 265.094 121.147 265.118 121.114C265.143 121.08 265.174 121.051 265.21 121.03C265.246 121.008 265.286 120.994 265.328 120.989C265.369 120.983 265.412 120.986 265.452 120.998C265.492 121.009 265.53 121.028 265.562 121.055C265.595 121.081 265.622 121.114 265.641 121.151C265.661 121.188 265.673 121.229 265.676 121.271C265.679 121.312 265.674 121.354 265.661 121.394C264.648 124.955 263.136 130.442 263.121 130.952C263.232 131.169 264.481 131.415 265.734 131.45C265.816 131.449 265.895 131.481 265.953 131.538C266.012 131.595 266.045 131.673 266.046 131.755C266.047 131.837 266.015 131.915 265.958 131.974C265.901 132.032 265.823 132.066 265.741 132.067Z" fill="#0C0C0C"/>
<path d="M262.056 115.829C260.805 115.457 259.477 115.43 258.211 115.749C257.589 115.903 256.993 116.148 256.444 116.478C255.9 116.802 255.399 117.193 254.953 117.642C254.914 117.677 254.883 117.718 254.861 117.764C254.839 117.811 254.826 117.861 254.823 117.912C254.82 117.964 254.827 118.015 254.844 118.064C254.861 118.112 254.888 118.157 254.922 118.195C254.957 118.234 254.998 118.265 255.044 118.287C255.091 118.309 255.141 118.322 255.192 118.325C255.244 118.328 255.295 118.32 255.344 118.303C255.392 118.286 255.437 118.26 255.475 118.226L255.499 118.206C255.915 117.831 256.376 117.51 256.872 117.25C257.36 116.991 257.884 116.808 258.427 116.706C259.499 116.496 260.607 116.573 261.64 116.929L261.679 116.943C261.826 116.997 261.988 116.991 262.129 116.925C262.271 116.859 262.381 116.74 262.435 116.594C262.488 116.447 262.482 116.285 262.416 116.144C262.351 116.002 262.232 115.892 262.085 115.838L262.056 115.829Z" fill="#0C0C0C"/>
<path d="M271.039 116.934C272.032 116.478 273.128 116.294 274.216 116.398C274.766 116.447 275.306 116.578 275.817 116.788C276.336 116.999 276.826 117.274 277.276 117.606L277.301 117.623C277.342 117.653 277.389 117.676 277.439 117.688C277.489 117.7 277.541 117.703 277.592 117.695C277.642 117.687 277.691 117.669 277.735 117.643C277.779 117.616 277.818 117.581 277.848 117.54C277.879 117.499 277.901 117.452 277.913 117.402C277.925 117.352 277.928 117.3 277.92 117.249C277.912 117.198 277.895 117.15 277.868 117.106C277.841 117.062 277.806 117.023 277.765 116.993C277.277 116.589 276.741 116.248 276.168 115.979C275.589 115.704 274.972 115.517 274.338 115.425C273.048 115.23 271.73 115.386 270.521 115.877C270.45 115.907 270.385 115.95 270.33 116.005C270.276 116.06 270.232 116.125 270.203 116.196C270.173 116.267 270.158 116.344 270.158 116.421C270.158 116.499 270.174 116.575 270.203 116.646C270.233 116.718 270.276 116.783 270.331 116.837C270.386 116.892 270.451 116.935 270.522 116.965C270.593 116.994 270.67 117.009 270.747 117.009C270.825 117.009 270.901 116.994 270.972 116.964L271.001 116.952L271.039 116.934Z" fill="#0C0C0C"/>
<path d="M263.069 135.406C266.722 135.649 270.351 134.667 273.383 132.616C273.489 132.546 273.612 132.508 273.738 132.505C273.864 132.502 273.989 132.535 274.097 132.6C274.205 132.665 274.293 132.76 274.35 132.873C274.407 132.986 274.43 133.112 274.418 133.238C274.175 135.396 273.108 139.363 268.582 139.869C265.659 140.195 263.541 137.95 262.474 136.458C262.401 136.355 262.359 136.233 262.353 136.106C262.347 135.98 262.376 135.854 262.439 135.744C262.501 135.634 262.593 135.543 262.705 135.484C262.817 135.424 262.943 135.397 263.069 135.406Z" fill="white"/>
<path d="M334.14 180.422C331.947 174.187 330.175 171.077 327.922 168.618C324.839 165.253 320.201 161.939 311.601 160.435C306.347 159.521 298.427 158.699 298.427 158.699C298.427 158.713 298.426 158.727 298.423 158.74C298.332 159.567 296.696 172.281 281.154 172.409C259.738 172.587 261.276 157.876 261.231 157.275C261.234 157.263 261.234 157.255 261.231 157.255C254.587 156.997 238.022 156.848 231.351 163.374C230.652 164.053 230.008 164.786 229.425 165.567L229.333 165.511L205.616 213.61L202.273 160.435L191.129 161.878H184.799L183.676 162.057L176.751 163.171L179.164 181.88L184.696 224.773C190.094 237.431 198.658 248.488 209.565 256.879C214.078 250.51 221.545 239.522 229.298 228.005C229.42 227.822 229.542 227.639 229.667 227.457V227.461C229.667 227.586 229.671 227.715 229.675 227.845C229.694 228.668 229.717 229.6 229.736 230.628C229.919 240.066 230.105 257.366 230.257 268.396C244.058 273.565 259.02 274.814 273.487 272.005C287.953 269.196 301.361 262.439 312.225 252.482C312.301 252.417 312.374 252.348 312.448 252.276C312.593 252.147 312.737 252.013 312.878 251.88C320.31 244.947 326.366 236.672 330.726 227.491C335.543 217.341 335.792 221.221 336.006 209.988V203.301L334.14 180.422Z" fill="#0CBC8B"/>
<path d="M312.872 251.877C312.731 252.01 312.586 252.144 312.441 252.273C312.37 252.345 312.297 252.414 312.219 252.479L308.088 231.459L308.084 231.436L302.177 201.393L302.924 201.199L312.872 251.877Z" fill="#0C0C0C"/>
<path d="M312.606 248.381C311.794 248.269 310.956 248.158 310.118 248.05C309.702 247.989 309.283 247.932 308.829 247.878L284.938 265.465L284.916 265.484L250.754 290.622L255.069 290.784L312.606 248.381Z" fill="#0C0C0C"/>
<path d="M229.771 230.629C229.675 230.625 229.583 230.585 229.515 230.517C229.447 230.449 229.406 230.357 229.402 230.261L228.638 213.464C228.636 213.413 228.644 213.363 228.661 213.315C228.678 213.268 228.704 213.224 228.738 213.187C228.773 213.149 228.814 213.119 228.859 213.098C228.905 213.076 228.955 213.064 229.005 213.062C229.056 213.059 229.106 213.067 229.154 213.084C229.202 213.101 229.245 213.128 229.283 213.162C229.32 213.196 229.35 213.237 229.372 213.283C229.393 213.329 229.405 213.378 229.408 213.429L230.172 230.226C230.174 230.277 230.166 230.327 230.149 230.375C230.132 230.422 230.105 230.466 230.071 230.503C230.037 230.541 229.996 230.571 229.95 230.592C229.905 230.614 229.855 230.626 229.804 230.628C229.79 230.629 229.78 230.629 229.771 230.629Z" fill="#0C0C0C"/>
<path d="M250.744 292.395L322.529 239.521L337.482 259.822L262.446 307.161L250.744 292.395Z" fill="#0CBC8B"/>
<path d="M312.525 263.527L308.145 191.475L333.566 189.929L337.852 260.119L312.525 263.527Z" fill="#0CBC8B"/>
<path d="M198.587 159.176L203.669 142.871C203.781 142.513 203.816 142.136 203.774 141.763C203.732 141.39 203.612 141.03 203.423 140.706C203.234 140.382 202.98 140.101 202.676 139.88C202.372 139.66 202.026 139.505 201.659 139.426C200.978 139.3 200.273 139.433 199.684 139.797C199.094 140.162 198.66 140.732 198.468 141.398L197.377 144.896L195.759 132.326C195.603 130.926 194.516 129.307 192.957 129.585C192.35 129.654 191.785 129.926 191.352 130.357C190.92 130.788 190.646 131.353 190.576 131.959C190.563 131.957 190.549 131.957 190.535 131.957C190.524 131.959 190.516 131.964 190.505 131.967L190.266 129.808C190.221 129.408 190.088 129.023 189.876 128.681C189.664 128.339 189.378 128.049 189.039 127.831C188.7 127.613 188.317 127.474 187.918 127.423C187.519 127.373 187.113 127.412 186.731 127.537C186.133 127.748 185.626 128.157 185.293 128.697C184.961 129.237 184.825 129.874 184.906 130.503L185.005 131.426C184.98 131.441 184.957 131.46 184.939 131.483C184.726 130.879 184.305 130.369 183.751 130.047C183.197 129.724 182.546 129.609 181.915 129.722C181.228 129.866 180.62 130.264 180.214 130.836C179.807 131.408 179.631 132.112 179.721 132.809L179.975 135.091C179.949 135.061 179.916 135.038 179.879 135.024C179.842 135.009 179.802 135.004 179.762 135.008C179.716 135.015 179.672 135.036 179.637 135.067C179.297 134.582 178.808 134.221 178.243 134.04C177.679 133.86 177.071 133.87 176.512 134.068C175.93 134.289 175.439 134.7 175.12 135.234C174.8 135.769 174.67 136.395 174.751 137.013L176.893 156.27C177.192 158.964 178.29 161.507 180.044 163.573C181.799 165.64 184.13 167.135 186.74 167.867C188.99 168.499 191.398 168.228 193.452 167.113C195.506 165.998 197.044 164.125 197.74 161.894L198.587 159.176Z" fill="#E98862"/>
<g opacity="0.2">
<path d="M192.125 144.403C192.06 144.41 191.995 144.391 191.945 144.351C191.894 144.31 191.86 144.252 191.852 144.187L190.327 132.234C190.323 132.201 190.325 132.168 190.333 132.136C190.342 132.104 190.356 132.074 190.376 132.048C190.396 132.022 190.421 132 190.45 131.984C190.478 131.967 190.51 131.956 190.543 131.952C190.575 131.948 190.609 131.951 190.641 131.959C190.672 131.968 190.702 131.983 190.728 132.003C190.754 132.024 190.776 132.049 190.792 132.078C190.808 132.107 190.818 132.138 190.822 132.171L192.347 144.124C192.351 144.157 192.349 144.19 192.34 144.221C192.331 144.253 192.317 144.282 192.296 144.308C192.276 144.334 192.251 144.356 192.223 144.372C192.194 144.388 192.163 144.399 192.131 144.403L192.125 144.403Z" fill="#0C0C0C"/>
</g>
<g opacity="0.2">
<path d="M186.856 145.223C186.791 145.23 186.726 145.211 186.675 145.17C186.624 145.13 186.591 145.071 186.583 145.007L184.881 131.667C184.877 131.635 184.879 131.602 184.888 131.57C184.896 131.539 184.911 131.509 184.931 131.483C184.951 131.457 184.976 131.436 185.004 131.419C185.033 131.403 185.064 131.393 185.096 131.388C185.162 131.382 185.227 131.401 185.279 131.441C185.33 131.481 185.365 131.539 185.376 131.604L187.077 144.944C187.086 145.009 187.068 145.076 187.027 145.128C186.987 145.18 186.927 145.214 186.861 145.223L186.856 145.223Z" fill="#0C0C0C"/>
</g>
<g opacity="0.2">
<path d="M181.169 146.142C181.104 146.149 181.039 146.13 180.988 146.089C180.937 146.049 180.904 145.99 180.896 145.926L179.536 135.284C179.532 135.252 179.534 135.219 179.543 135.187C179.551 135.156 179.566 135.126 179.586 135.1C179.606 135.074 179.631 135.052 179.66 135.036C179.688 135.02 179.72 135.009 179.752 135.005C179.785 135.001 179.818 135.004 179.849 135.012C179.881 135.021 179.911 135.036 179.936 135.056C179.962 135.076 179.984 135.101 180 135.129C180.017 135.158 180.027 135.189 180.031 135.221L181.391 145.863C181.399 145.928 181.381 145.995 181.341 146.047C181.301 146.099 181.241 146.133 181.176 146.142L181.169 146.142Z" fill="#0C0C0C"/>
</g>
<path d="M242.391 291.571L225.564 294.488C225.194 294.552 224.842 294.693 224.53 294.901C224.217 295.108 223.952 295.379 223.749 295.695C223.547 296.011 223.413 296.366 223.356 296.737C223.298 297.107 223.318 297.486 223.415 297.849C223.615 298.513 224.054 299.079 224.647 299.437C225.241 299.796 225.946 299.921 226.627 299.789L230.237 299.163L219.79 306.339C218.615 307.116 217.671 308.822 218.63 310.083C218.967 310.591 219.467 310.97 220.048 311.158C220.629 311.346 221.257 311.332 221.828 311.118C221.833 311.131 221.838 311.143 221.845 311.155C221.852 311.164 221.861 311.169 221.868 311.177L220.056 312.376C219.72 312.598 219.438 312.892 219.231 313.237C219.023 313.582 218.895 313.969 218.856 314.369C218.817 314.77 218.868 315.174 219.005 315.553C219.142 315.931 219.362 316.274 219.648 316.557C220.108 316.993 220.704 317.258 221.336 317.307C221.968 317.356 222.598 317.187 223.12 316.828L223.896 316.319C223.921 316.334 223.948 316.345 223.977 316.351C223.536 316.817 223.275 317.424 223.241 318.064C223.207 318.704 223.401 319.336 223.79 319.846C224.231 320.391 224.862 320.75 225.557 320.851C226.252 320.952 226.959 320.787 227.537 320.39L229.452 319.122C229.438 319.159 229.432 319.199 229.436 319.238C229.441 319.278 229.454 319.316 229.475 319.349C229.503 319.387 229.542 319.417 229.586 319.434C229.308 319.957 229.21 320.558 229.307 321.142C229.404 321.727 229.691 322.264 230.122 322.67C230.584 323.087 231.174 323.337 231.795 323.377C232.417 323.418 233.033 323.247 233.546 322.893L249.705 312.201C251.965 310.705 253.727 308.568 254.765 306.064C255.803 303.56 256.07 300.803 255.531 298.147C255.066 295.856 253.727 293.837 251.797 292.518C249.867 291.2 247.5 290.685 245.197 291.084L242.391 291.571Z" fill="#E98862"/>
<g opacity="0.2">
<path d="M232.2 304.069C232.235 304.123 232.248 304.19 232.235 304.254C232.223 304.317 232.186 304.374 232.132 304.41L222.191 311.221C222.164 311.24 222.134 311.254 222.102 311.261C222.07 311.268 222.036 311.268 222.004 311.263C221.971 311.257 221.94 311.244 221.913 311.227C221.885 311.209 221.861 311.185 221.843 311.158C221.824 311.131 221.811 311.1 221.804 311.068C221.797 311.036 221.797 311.002 221.803 310.97C221.81 310.938 221.822 310.907 221.841 310.879C221.859 310.852 221.882 310.828 221.91 310.81L231.85 303.999C231.877 303.981 231.908 303.968 231.94 303.961C231.972 303.954 232.005 303.954 232.037 303.96C232.069 303.966 232.1 303.978 232.127 303.996C232.155 304.014 232.179 304.037 232.197 304.064L232.2 304.069Z" fill="#0C0C0C"/>
</g>
<g opacity="0.2">
<path d="M235.335 308.37C235.37 308.425 235.383 308.491 235.37 308.555C235.358 308.619 235.32 308.675 235.267 308.712L224.173 316.313C224.146 316.332 224.116 316.345 224.084 316.351C224.052 316.358 224.019 316.359 223.987 316.353C223.955 316.347 223.924 316.334 223.897 316.316C223.869 316.299 223.846 316.275 223.827 316.248C223.792 316.193 223.779 316.127 223.791 316.062C223.803 315.998 223.839 315.941 223.892 315.902L234.985 308.301C235.04 308.263 235.107 308.249 235.172 308.261C235.237 308.274 235.294 308.311 235.332 308.366L235.335 308.37Z" fill="#0C0C0C"/>
</g>
<g opacity="0.2">
<path d="M238.749 313.009C238.784 313.064 238.797 313.13 238.784 313.194C238.771 313.257 238.734 313.314 238.681 313.351L229.832 319.416C229.805 319.435 229.775 319.448 229.743 319.455C229.711 319.461 229.678 319.462 229.645 319.456C229.613 319.45 229.582 319.437 229.555 319.419C229.528 319.401 229.504 319.378 229.485 319.351C229.467 319.324 229.454 319.294 229.447 319.262C229.44 319.23 229.44 319.197 229.446 319.164C229.452 319.132 229.464 319.101 229.482 319.074C229.5 319.047 229.523 319.023 229.55 319.004L238.399 312.939C238.453 312.901 238.52 312.887 238.585 312.899C238.65 312.911 238.708 312.949 238.746 313.003L238.749 313.009Z" fill="#0C0C0C"/>
</g>
<rect x="249.075" y="294.213" width="12.2035" height="12.2035" rx="2" transform="rotate(-27.1481 249.075 294.213)" fill="black"/>
<rect x="251.02" y="294.804" width="9.49956" height="9.49956" rx="2" transform="rotate(-27.1481 251.02 294.804)" fill="#D9D9D9"/>
<rect x="251.199" y="290.717" width="5.79035" height="2.67775" rx="1" transform="rotate(-27.1481 251.199 290.717)" fill="black"/>
<rect x="257.158" y="303.355" width="5.79035" height="2.67775" rx="1" transform="rotate(-27.1481 257.158 303.355)" fill="black"/>
<path d="M15.7542 51.4434V31.4831C15.7542 23.1333 19.0738 15.1254 24.9828 9.22118C30.8918 3.31696 38.9061 0 47.2626 0H110.279C118.636 0 126.65 3.31696 132.559 9.22118C138.468 15.1254 141.788 23.1333 141.788 31.4831V51.4434C146.578 54.2065 150.555 58.1808 153.321 62.9666C156.086 67.7525 157.542 73.1814 157.542 78.7078V94.4493C161.72 94.4493 165.728 96.1078 168.682 99.0599C171.637 102.012 173.296 106.016 173.296 110.191V125.932C173.296 130.107 171.637 134.111 168.682 137.063C165.728 140.015 161.72 141.674 157.542 141.674V173.157C157.542 178.683 156.086 184.112 153.321 188.898C150.555 193.684 146.578 197.658 141.788 200.421V220.382C141.788 228.732 138.468 236.739 132.559 242.644C126.65 248.548 118.636 251.865 110.279 251.865H47.2626C38.9061 251.865 30.8918 248.548 24.9828 242.644C19.0738 236.739 15.7542 228.732 15.7542 220.382V200.421C10.9644 197.658 6.98696 193.684 4.22153 188.898C1.45609 184.112 0.000140503 178.683 0 173.157V78.7078C0.000140503 73.1814 1.45609 67.7525 4.22153 62.9666C6.98696 58.1808 10.9644 54.2065 15.7542 51.4434ZM47.2626 15.7415C43.0844 15.7415 39.0772 17.4 36.1227 20.3521C33.1682 23.3043 31.5084 27.3082 31.5084 31.4831V47.2247H126.034V31.4831C126.034 27.3082 124.374 23.3043 121.419 20.3521C118.465 17.4 114.458 15.7415 110.279 15.7415H47.2626ZM141.788 173.157V78.7078C141.788 74.5328 140.128 70.5289 137.174 67.5768C134.219 64.6247 130.212 62.9662 126.034 62.9662H31.5084C27.3301 62.9662 23.323 64.6247 20.3685 67.5768C17.414 70.5289 15.7542 74.5328 15.7542 78.7078V173.157C15.7542 177.329 17.4119 181.331 20.3629 184.282C23.314 187.234 27.3171 188.894 31.4927 188.899H126.034C130.212 188.899 134.219 187.24 137.174 184.288C140.128 181.336 141.788 177.332 141.788 173.157ZM31.5084 220.382C31.5084 224.557 33.1682 228.561 36.1227 231.513C39.0772 234.465 43.0844 236.123 47.2626 236.123H110.279C114.458 236.123 118.465 234.465 121.419 231.513C124.374 228.561 126.034 224.557 126.034 220.382V204.64H31.5084V220.382Z" fill="#367CFF"/>
<g clip-path="url(#clip0_555_333)">
<path d="M62.9799 129.846C62.1684 129.847 61.3848 129.549 60.7784 129.01L44.0021 114.097L61.7101 98.3553C62.3701 97.7906 63.2254 97.5075 64.092 97.5669C64.9586 97.6263 65.7672 98.0234 66.3441 98.6728C66.921 99.3222 67.2199 100.172 67.1767 101.04C67.1335 101.907 66.7516 102.723 66.1131 103.312L53.9817 114.097L65.1814 124.05C65.6846 124.497 66.04 125.086 66.2006 125.739C66.3611 126.392 66.3192 127.079 66.0803 127.708C65.8414 128.336 65.4169 128.878 64.8632 129.26C64.3094 129.641 63.6526 129.846 62.9799 129.846ZM92.6369 129.839L110.345 114.097L93.5685 99.1841C92.9112 98.6003 92.0489 98.3014 91.1713 98.3533C90.2936 98.4052 89.4726 98.8037 88.8887 99.461C88.3048 100.118 88.006 100.981 88.0579 101.858C88.1098 102.736 88.5083 103.557 89.1656 104.141L100.365 114.097L88.2339 124.879C87.5762 125.463 87.1773 126.284 87.1251 127.162C87.0729 128.04 87.3715 128.903 87.9554 129.561C88.5393 130.218 89.3605 130.617 90.2385 130.669C91.1164 130.722 91.9791 130.423 92.6369 129.839ZM77.1271 134.537L83.758 94.7513C83.8428 94.3165 83.8396 93.8691 83.7486 93.4356C83.6576 93.002 83.4806 92.5911 83.2281 92.2271C82.9756 91.8631 82.6527 91.5534 82.2785 91.3162C81.9043 91.0791 81.4864 90.9194 81.0494 90.8465C80.6125 90.7736 80.1653 90.789 79.7344 90.8918C79.3035 90.9946 78.8976 91.1827 78.5406 91.445C78.1836 91.7074 77.8828 92.0386 77.656 92.4191C77.4291 92.7996 77.2809 93.2217 77.2199 93.6605L70.5889 133.446C70.5042 133.881 70.5074 134.328 70.5984 134.762C70.6894 135.196 70.8664 135.606 71.1189 135.971C71.3714 136.335 71.6942 136.644 72.0684 136.881C72.4426 137.118 72.8606 137.278 73.2975 137.351C73.7345 137.424 74.1816 137.409 74.6125 137.306C75.0435 137.203 75.4494 137.015 75.8064 136.753C76.1634 136.49 76.4642 136.159 76.691 135.778C76.9178 135.398 77.0661 134.976 77.1271 134.537Z" fill="#F8F8F8"/>
</g>
<defs>
<clipPath id="clip0_555_333">
<rect width="66.3095" height="66.3095" fill="white" transform="translate(44.0187 80.9424)"/>
</clipPath>
</defs>
</svg>
