<svg width="449" height="371" viewBox="0 0 449 371" fill="none" xmlns="http://www.w3.org/2000/svg">
<path d="M87.1115 92.1625L154.922 92.1625V3.99995L87.1115 3.99995L87.1115 92.1625Z" fill="#AAC8FF"/>
<path d="M87.1115 4H84.9117V92.1625H87.1115V4Z" fill="#AAC8FF"/>
<path opacity="0.05" d="M87.1115 4H84.9117V92.1625H87.1115V4Z" fill="#292A2E"/>
<path opacity="0.05" d="M99.464 76.1025H142.569V20.0596L99.464 20.0596V76.1025Z" fill="#292A2E"/>
<path opacity="0.03" d="M99.464 76.1025H101.71V20.0596H99.464V76.1025Z" fill="#292A2E"/>
<path d="M31.6534 169.747H87.1111V113.844H31.6534L31.6534 169.747Z" fill="#AAC8FF"/>
<path opacity="0.05" d="M41.756 159.563H77.0091V124.027H41.756L41.756 159.563Z" fill="#292A2E"/>
<path d="M31.6538 113.843H29.4539V169.746H31.6538V113.843Z" fill="#AAC8FF"/>
<path opacity="0.05" d="M31.6538 113.843H29.4539V169.746H31.6538V113.843Z" fill="#292A2E"/>
<path opacity="0.03" d="M41.7563 159.563H44.0027L44.0027 124.027H41.7563L41.7563 159.563Z" fill="#292A2E"/>
<path d="M438.361 0H256.254V159.463H438.361V0Z" fill="#AAC8FF"/>
<path d="M440.448 0H438.361V159.463H440.448V0Z" fill="#AAC8FF"/>
<path opacity="0.05" d="M440.448 0H438.361V159.463H440.448V0Z" fill="#292A2E"/>
<path opacity="0.05" d="M394.245 109.883V68.1624H355.216V92.401H294.762V135.319H269.068V159.463H294.762H299.712H429.601V109.883H394.245Z" fill="#292A2E"/>
<path opacity="0.34" d="M388.647 72.6923H360.226V77.2221H388.647V72.6923Z" fill="#FFFFFA"/>
<path opacity="0.34" d="M388.647 82.0793H360.226V86.6092H388.647V82.0793Z" fill="#FFFFFA"/>
<path opacity="0.34" d="M388.647 91.4662H360.226V95.996H388.647V91.4662Z" fill="#FFFFFA"/>
<path opacity="0.34" d="M424.561 114.28H419.323V118.81H424.561V114.28Z" fill="#FFFFFA"/>
<path opacity="0.34" d="M424.561 123.667H419.323V128.197H424.561V123.667Z" fill="#FFFFFA"/>
<path opacity="0.34" d="M424.561 133.054H419.323V137.584H424.561V133.054Z" fill="#FFFFFA"/>
<path opacity="0.34" d="M414.87 114.28H409.632V118.81H414.87V114.28Z" fill="#FFFFFA"/>
<path opacity="0.34" d="M414.87 123.667H409.632V128.197H414.87V123.667Z" fill="#FFFFFA"/>
<path opacity="0.34" d="M414.87 133.054H409.632V137.584H414.87V133.054Z" fill="#FFFFFA"/>
<path opacity="0.34" d="M405.441 114.28H400.203V118.81H405.441V114.28Z" fill="#FFFFFA"/>
<path opacity="0.34" d="M405.441 123.667H400.203V128.197H405.441V123.667Z" fill="#FFFFFA"/>
<path opacity="0.34" d="M405.441 133.054H400.203V137.584H405.441V133.054Z" fill="#FFFFFA"/>
<path d="M438.361 78.8372H401.718V0H398.688V78.8372H299.712V0H296.681V78.8372H256.254V81.4904H296.681V159.463H299.712V81.4904H398.688V159.463H401.718V81.4904H438.361V78.8372Z" fill="white"/>
<path d="M445.615 159.271H249V164.574H445.615V159.271Z" fill="#AAC8FF"/>
<path opacity="0.1" d="M445.615 159.271H249V164.574H445.615V159.271Z" fill="#292A2E"/>
<path opacity="0.1" d="M448.454 159.271H445.615V164.574H448.454V159.271Z" fill="#292A2E"/>
<path opacity="0.1" d="M448.454 159.271H445.615V164.574H448.454V159.271Z" fill="#292A2E"/>
<path d="M373.69 318.605C373.638 318.605 373.586 318.595 373.539 318.575C373.491 318.556 373.447 318.526 373.411 318.49C372.856 317.936 371.951 307.759 369.513 277.462C368.515 265.065 367.573 253.355 366.885 246.239C366.836 245.731 366.639 245.672 366.574 245.652C365.633 245.368 362.77 247.623 361.172 249.598C361.106 249.679 361.011 249.731 360.907 249.742C360.803 249.753 360.699 249.722 360.617 249.656C360.536 249.591 360.484 249.495 360.473 249.391C360.462 249.288 360.493 249.184 360.559 249.102C361.616 247.797 365.06 244.375 366.801 244.898C367.152 245.004 367.589 245.308 367.67 246.163C368.358 253.286 369.3 264.999 370.298 277.399C371.78 295.81 373.458 316.668 374.01 317.982C374.052 318.041 374.077 318.11 374.082 318.182C374.088 318.254 374.073 318.327 374.04 318.391C374.007 318.456 373.957 318.51 373.895 318.547C373.833 318.585 373.762 318.605 373.69 318.605Z" fill="#494949"/>
<path d="M365.872 259.297C372.412 254.06 374.58 245.91 370.714 241.093C366.848 236.276 358.412 236.615 351.873 241.851C345.333 247.087 343.165 255.237 347.031 260.055C350.897 264.872 359.333 264.533 365.872 259.297Z" fill="#0CBC8B"/>
<path opacity="0.2" d="M365.872 259.297C372.412 254.06 374.58 245.91 370.714 241.093C366.848 236.276 358.412 236.615 351.873 241.851C345.333 247.087 343.165 255.237 347.031 260.055C350.897 264.872 359.333 264.533 365.872 259.297Z" fill="white"/>
<path d="M348.865 261.28C348.827 261.28 348.791 261.27 348.759 261.25C348.728 261.23 348.703 261.201 348.687 261.167C348.671 261.133 348.665 261.096 348.67 261.059C348.675 261.022 348.69 260.987 348.714 260.958L367.351 238.508C367.368 238.488 367.388 238.471 367.411 238.458C367.434 238.446 367.459 238.438 367.485 238.435C367.511 238.433 367.537 238.435 367.562 238.443C367.587 238.451 367.611 238.463 367.631 238.48C367.651 238.497 367.668 238.517 367.68 238.54C367.692 238.564 367.699 238.589 367.701 238.615C367.703 238.641 367.7 238.667 367.692 238.692C367.684 238.717 367.671 238.74 367.654 238.76L349.017 261.21C348.998 261.232 348.975 261.25 348.949 261.262C348.922 261.274 348.894 261.28 348.865 261.28Z" fill="white"/>
<path d="M377.755 313.793C377.692 313.793 377.63 313.778 377.574 313.749C377.518 313.72 377.47 313.678 377.433 313.627C377.397 313.576 377.373 313.517 377.364 313.455C377.355 313.392 377.362 313.329 377.382 313.27L384.383 293.159C384.589 292.568 384.941 292.038 385.405 291.618C385.869 291.198 386.431 290.901 387.04 290.754C387.649 290.607 388.286 290.615 388.891 290.778C389.496 290.94 390.05 291.251 390.503 291.683L394.204 295.215C394.28 295.287 394.324 295.386 394.326 295.491C394.329 295.595 394.289 295.696 394.217 295.772C394.145 295.847 394.046 295.891 393.941 295.893C393.837 295.896 393.735 295.857 393.66 295.784L389.959 292.253C389.601 291.912 389.163 291.666 388.686 291.538C388.208 291.41 387.706 291.403 387.225 291.519C386.745 291.635 386.301 291.87 385.934 292.201C385.568 292.533 385.29 292.951 385.128 293.417L378.127 313.528C378.1 313.605 378.05 313.672 377.983 313.72C377.916 313.767 377.837 313.793 377.755 313.793Z" fill="#494949"/>
<path d="M404.545 306.35C409.392 302.518 409.104 294.09 403.902 287.526C398.7 280.961 390.554 278.746 385.708 282.578C380.861 286.41 381.149 294.838 386.351 301.402C391.553 307.966 399.699 310.181 404.545 306.35Z" fill="#0CBC8B"/>
<path d="M370.509 317.323C370.421 317.323 370.335 317.293 370.265 317.238C370.196 317.183 370.147 317.107 370.126 317.021L358.378 267.953C358.297 267.619 358.126 267.313 357.883 267.069C357.64 266.826 357.335 266.654 357 266.572C356.666 266.491 356.315 266.503 355.987 266.608C355.659 266.713 355.366 266.906 355.141 267.166L351.52 271.347C351.451 271.426 351.354 271.474 351.25 271.482C351.146 271.489 351.043 271.455 350.964 271.387C350.884 271.318 350.836 271.222 350.828 271.117C350.821 271.013 350.855 270.91 350.923 270.831L354.545 266.651C354.865 266.281 355.281 266.007 355.748 265.858C356.214 265.71 356.712 265.692 357.188 265.808C357.663 265.924 358.097 266.169 358.443 266.515C358.788 266.862 359.031 267.297 359.144 267.772L370.893 316.839C370.905 316.889 370.907 316.942 370.899 316.993C370.891 317.044 370.873 317.093 370.845 317.137C370.818 317.181 370.783 317.219 370.741 317.249C370.699 317.28 370.651 317.302 370.601 317.313C370.571 317.32 370.54 317.323 370.509 317.323Z" fill="#494949"/>
<path d="M366.176 282.247C367.605 273.998 363.825 266.457 357.734 265.405C351.644 264.353 345.548 270.188 344.12 278.437C342.692 286.687 346.472 294.227 352.562 295.279C358.653 296.331 364.748 290.496 366.176 282.247Z" fill="#0CBC8B"/>
<path d="M373.69 318.605C373.674 318.605 373.658 318.604 373.641 318.602C373.59 318.596 373.541 318.58 373.495 318.554C373.45 318.529 373.411 318.495 373.379 318.454C373.347 318.413 373.324 318.366 373.31 318.317C373.296 318.267 373.292 318.215 373.299 318.163L380.801 257.321C380.882 256.658 381.154 256.033 381.583 255.521C382.012 255.009 382.58 254.631 383.218 254.433C383.857 254.236 384.539 254.226 385.183 254.407C385.826 254.587 386.404 254.949 386.847 255.45L395.422 265.151C395.456 265.19 395.482 265.235 395.499 265.284C395.516 265.333 395.523 265.384 395.52 265.436C395.516 265.488 395.503 265.538 395.48 265.585C395.458 265.631 395.426 265.672 395.387 265.707C395.348 265.741 395.303 265.767 395.254 265.784C395.205 265.801 395.153 265.808 395.102 265.805C395.05 265.801 394.999 265.788 394.953 265.765C394.906 265.743 394.865 265.711 394.831 265.672L386.257 255.971C385.915 255.584 385.468 255.304 384.971 255.165C384.473 255.025 383.946 255.032 383.452 255.185C382.959 255.338 382.52 255.63 382.188 256.026C381.857 256.422 381.647 256.905 381.584 257.417L374.081 318.259C374.069 318.355 374.023 318.442 373.951 318.506C373.879 318.57 373.786 318.605 373.69 318.605Z" fill="#494949"/>
<path d="M404.216 270.542C407.208 265.139 403.688 257.475 396.354 253.423C389.02 249.37 380.649 250.465 377.657 255.868C374.665 261.27 378.185 268.935 385.52 272.987C392.854 277.039 401.224 275.945 404.216 270.542Z" fill="#0CBC8B"/>
<path opacity="0.2" d="M404.545 306.35C409.392 302.518 409.104 294.09 403.902 287.526C398.7 280.961 390.554 278.746 385.708 282.578C380.861 286.41 381.149 294.838 386.351 301.402C391.553 307.966 399.699 310.181 404.545 306.35Z" fill="white"/>
<path opacity="0.5" d="M366.176 282.247C367.605 273.998 363.825 266.457 357.734 265.405C351.644 264.353 345.548 270.188 344.12 278.437C342.692 286.687 346.472 294.227 352.562 295.279C358.653 296.331 364.748 290.496 366.176 282.247Z" fill="white"/>
<path opacity="0.5" d="M404.216 270.542C407.208 265.139 403.688 257.475 396.354 253.423C389.02 249.37 380.649 250.465 377.657 255.868C374.665 261.27 378.185 268.935 385.52 272.987C392.854 277.039 401.224 275.945 404.216 270.542Z" fill="white"/>
<path d="M383.285 370.23H364.094L360.914 308.897H386.466L383.285 370.23Z" fill="#292A2E"/>
<path opacity="0.3" d="M383.285 370.23H364.094L360.914 308.897H386.466L383.285 370.23Z" fill="white"/>
<path d="M404.546 306.544C404.516 306.544 404.486 306.538 404.46 306.525C404.433 306.512 404.409 306.493 404.391 306.469L385.553 282.698C385.536 282.678 385.525 282.655 385.517 282.63C385.51 282.605 385.508 282.579 385.511 282.553C385.514 282.528 385.522 282.503 385.535 282.48C385.547 282.457 385.564 282.438 385.585 282.422C385.605 282.406 385.628 282.394 385.653 282.387C385.678 282.379 385.704 282.377 385.73 282.38C385.755 282.383 385.78 282.391 385.803 282.404C385.826 282.416 385.845 282.433 385.862 282.454L404.701 306.225C404.733 306.266 404.748 306.318 404.742 306.37C404.736 306.421 404.71 306.469 404.669 306.501C404.634 306.529 404.59 306.544 404.546 306.544Z" fill="white"/>
<path d="M402.964 272.447C402.922 272.446 402.881 272.432 402.848 272.407L378.742 254.826C378.721 254.81 378.703 254.791 378.69 254.769C378.676 254.747 378.667 254.723 378.663 254.697C378.659 254.671 378.66 254.645 378.666 254.62C378.672 254.595 378.683 254.571 378.699 254.551C378.714 254.53 378.733 254.512 378.755 254.498C378.777 254.485 378.802 254.476 378.827 254.472C378.853 254.468 378.879 254.469 378.904 254.475C378.929 254.481 378.953 254.492 378.974 254.508L403.08 272.089C403.113 272.114 403.137 272.149 403.15 272.188C403.162 272.227 403.162 272.269 403.149 272.308C403.136 272.347 403.111 272.381 403.078 272.406C403.045 272.43 403.005 272.443 402.964 272.444V272.447Z" fill="white"/>
<path d="M351.582 295.022C351.565 295.022 351.548 295.02 351.531 295.016C351.481 295.002 351.438 294.969 351.412 294.924C351.386 294.879 351.378 294.825 351.392 294.775L359.066 266.056C359.08 266.007 359.114 265.966 359.158 265.941C359.203 265.916 359.256 265.909 359.305 265.922C359.355 265.935 359.398 265.967 359.424 266.011C359.45 266.055 359.458 266.108 359.447 266.157L351.773 294.876C351.761 294.918 351.737 294.955 351.702 294.982C351.668 295.008 351.626 295.022 351.582 295.022Z" fill="white"/>
<path d="M71.2775 248.632H39.6206V257.833H71.2775V248.632Z" fill="#AAC8FF"/>
<path opacity="0.05" d="M48.0198 248.632H43.8718V257.833H48.0198V248.632Z" fill="#292A2E"/>
<path d="M67.2324 250.632H49.9848V256.084H67.2324V250.632Z" fill="white"/>
<path d="M96.5281 249.833L67.1134 237L63.4267 245.431L92.8414 258.264L96.5281 249.833Z" fill="#AAC8FF"/>
<path opacity="0.05" d="M96.5281 249.833L67.1134 237L63.4267 245.431L92.8414 258.264L96.5281 249.833Z" fill="#292A2E"/>
<path d="M92.5781 248.109L88.7238 246.428L85.0371 254.859L88.8914 256.541L92.5781 248.109Z" fill="white"/>
<path d="M86.0969 247.464L70.0711 240.472L67.8864 245.469L83.9121 252.46L86.0969 247.464Z" fill="white"/>
<path opacity="0.05" d="M96.5834 365.185H88.628V370.492H96.5834V365.185Z" fill="#292A2E"/>
<path opacity="0.05" d="M15.2479 365.185H7.29251V370.492H15.2479V365.185Z" fill="#292A2E"/>
<path d="M103.876 258.264H0V365.005H103.876V258.264Z" fill="#AAC8FF"/>
<path opacity="0.03" d="M103.876 258.264H0V365.005H103.876V258.264Z" fill="#292A2E"/>
<path d="M123.126 258.264H19.2497V365.005H123.126V258.264Z" fill="#AAC8FF"/>
<path opacity="0.05" d="M115.833 365.185H107.878V370.492H115.833V365.185Z" fill="#292A2E"/>
<path opacity="0.05" d="M34.4976 365.185H26.5422V370.492H34.4976V365.185Z" fill="#292A2E"/>
<path opacity="0.7" d="M119.227 263.263H23.1494V283.771H119.227V263.263Z" fill="white"/>
<path opacity="0.7" d="M119.227 288.79H23.1494V309.297H119.227V288.79Z" fill="white"/>
<path opacity="0.7" d="M119.227 314.316H23.1494V334.823H119.227V314.316Z" fill="white"/>
<path opacity="0.05" d="M71.188 276.386C72.7745 276.386 74.0607 275.102 74.0607 273.517C74.0607 271.932 72.7745 270.648 71.188 270.648C69.6015 270.648 68.3154 271.932 68.3154 273.517C68.3154 275.102 69.6015 276.386 71.188 276.386Z" fill="#292A2E"/>
<path opacity="0.05" d="M71.188 301.913C72.7745 301.913 74.0607 300.628 74.0607 299.044C74.0607 297.459 72.7745 296.174 71.188 296.174C69.6015 296.174 68.3154 297.459 68.3154 299.044C68.3154 300.628 69.6015 301.913 71.188 301.913Z" fill="#292A2E"/>
<path opacity="0.05" d="M71.188 327.439C72.7745 327.439 74.0607 326.155 74.0607 324.57C74.0607 322.985 72.7745 321.701 71.188 321.701C69.6015 321.701 68.3154 322.985 68.3154 324.57C68.3154 326.155 69.6015 327.439 71.188 327.439Z" fill="#292A2E"/>
<path opacity="0.7" d="M119.227 340.418H23.1494V360.925H119.227V340.418Z" fill="white"/>
<path opacity="0.05" d="M71.188 353.541C72.7745 353.541 74.0607 352.256 74.0607 350.671C74.0607 349.087 72.7745 347.802 71.188 347.802C69.6015 347.802 68.3154 349.087 68.3154 350.671C68.3154 352.256 69.6015 353.541 71.188 353.541Z" fill="#292A2E"/>
<path d="M271.945 285.254H68.1862C65.436 285.254 62.7984 284.162 60.8537 282.22C58.909 280.278 57.8165 277.643 57.8165 274.896L64.9104 45.1445H289.014L282.314 274.896C282.314 277.643 281.222 280.278 279.277 282.22C277.332 284.162 274.695 285.254 271.945 285.254Z" fill="#292A2E"/>
<path opacity="0.9" d="M271.945 285.254H68.1862C65.436 285.254 62.7984 284.162 60.8537 282.22C58.909 280.278 57.8165 277.643 57.8165 274.896L64.9104 45.1445H289.014L282.314 274.896C282.314 277.643 281.222 280.278 279.277 282.22C277.332 284.162 274.695 285.254 271.945 285.254Z" fill="white"/>
<path d="M271.945 285.647H68.1862C65.3324 285.644 62.5965 284.51 60.5785 282.495C58.5605 280.479 57.4254 277.746 57.422 274.896L64.5159 44.7509H289.408L282.708 274.896C282.705 277.746 281.57 280.479 279.552 282.495C277.534 284.51 274.798 285.644 271.945 285.647ZM65.3041 45.5382L58.2102 274.896C58.2133 277.538 59.2653 280.07 61.1355 281.938C63.0057 283.806 65.5414 284.857 68.1862 284.86H271.945C274.589 284.857 277.125 283.806 278.995 281.938C280.865 280.07 281.917 277.538 281.92 274.896L288.62 45.5382H65.3041Z" fill="#292A2E"/>
<path d="M279.433 22.364H75.6742C72.8204 22.3672 70.0845 23.501 68.0665 25.5166C66.0485 27.5322 64.9134 30.265 64.91 33.1156L64.5159 45.5382H289.408L290.196 33.1156C290.193 30.2651 289.058 27.5322 287.04 25.5166C285.022 23.501 282.286 22.3672 279.433 22.364Z" fill="#0C0C0C"/>
<path d="M283.374 22.364H77.2506C74.3969 22.3672 71.6609 23.501 69.6429 25.5166C67.625 27.5322 66.4898 30.265 66.4865 33.1156V45.5382H294.137V33.1156C294.134 30.2651 292.999 27.5322 290.981 25.5166C288.963 23.501 286.227 22.3672 283.374 22.364Z" fill="#292A2E"/>
<path d="M66.881 45.1445H293.744V278.832C293.744 281.58 292.651 284.214 290.706 286.157C288.762 288.099 286.124 289.19 283.374 289.19H77.2506C74.5004 289.19 71.8629 288.099 69.9182 286.157C67.9735 284.214 66.881 281.58 66.881 278.832V45.1445Z" fill="white"/>
<path d="M283.374 289.584H77.2506C74.3969 289.581 71.6609 288.447 69.6429 286.431C67.625 284.416 66.4898 281.683 66.4865 278.832V44.7509H294.137V278.832C294.134 281.683 292.999 284.416 290.981 286.431C288.963 288.447 286.227 289.581 283.374 289.584ZM67.2747 45.5382V278.832C67.2777 281.474 68.3297 284.007 70.1999 285.875C72.0701 287.743 74.6058 288.794 77.2506 288.797H283.374C286.018 288.794 288.554 287.743 290.424 285.875C292.294 284.007 293.346 281.474 293.349 278.832V45.5382H67.2747Z" fill="#292A2E"/>
<path d="M94.1408 13.0599C91.6713 13.0627 89.3037 14.0439 87.5575 15.7881C85.8112 17.5324 84.829 19.8973 84.8261 22.364H85.6144C85.614 20.7295 86.0845 19.1294 86.9697 17.7547C87.855 16.38 89.1175 15.2888 90.6067 14.6112C92.0958 13.9337 93.7487 13.6985 95.3681 13.9336C96.9874 14.1688 98.5048 14.8645 99.7392 15.9375C100.974 17.0106 101.873 18.4158 102.329 19.9854C102.786 21.5549 102.781 23.2226 102.315 24.7894C101.848 26.3561 100.94 27.7557 99.6994 28.8212C98.4585 29.8866 96.9368 30.5729 95.316 30.7981C95.1795 30.517 94.9468 30.294 94.6599 30.1695C94.3731 30.0449 94.0511 30.027 93.7522 30.119C93.4533 30.211 93.1972 30.4068 93.0303 30.671C92.8634 30.9352 92.7966 31.2503 92.8421 31.5594C92.8876 31.8685 93.0424 32.1511 93.2784 32.3561C93.5144 32.5612 93.816 32.6751 94.1288 32.6772C94.4416 32.6793 94.7448 32.5696 94.9836 32.3678C95.2224 32.1661 95.381 31.8856 95.4307 31.5771C97.7667 31.2514 99.892 30.0525 101.377 28.2225C102.863 26.3925 103.598 24.0677 103.434 21.7175C103.271 19.3672 102.22 17.1665 100.495 15.5596C98.7705 13.9527 96.4995 13.0594 94.1408 13.0599Z" fill="#AAC8FF"/>
<path d="M275.798 22.3641C275.782 19.9069 274.794 17.5558 273.049 15.824C271.303 14.0921 268.943 13.1201 266.483 13.1201C264.023 13.1201 261.663 14.0921 259.918 15.824C258.173 17.5558 257.184 19.9069 257.168 22.3641H257.957C257.956 20.7296 258.427 19.1295 259.312 17.7548C260.197 16.3801 261.46 15.2888 262.949 14.6113C264.438 13.9337 266.091 13.6985 267.71 13.9337C269.33 14.1689 270.847 14.8645 272.081 15.9376C273.316 17.0107 274.215 18.4158 274.672 19.9854C275.128 21.555 275.123 23.2227 274.657 24.7894C274.19 26.3561 273.283 27.7558 272.042 28.8212C270.801 29.8867 269.279 30.573 267.658 30.7982C267.522 30.5171 267.289 30.2941 267.002 30.1695C266.715 30.0449 266.393 30.027 266.094 30.119C265.796 30.211 265.539 30.4068 265.373 30.671C265.206 30.9352 265.139 31.2504 265.184 31.5595C265.23 31.8686 265.385 32.1512 265.621 32.3562C265.857 32.5612 266.158 32.6751 266.471 32.6772C266.784 32.6794 267.087 32.5697 267.326 32.3679C267.565 32.1661 267.723 31.8856 267.773 31.5772C269.997 31.2639 272.033 30.1596 273.507 28.4671C274.982 26.7746 275.795 24.6075 275.798 22.3641Z" fill="#AAC8FF"/>
<path d="M251.178 22.364C251.178 19.8964 250.196 17.5299 248.449 15.785C246.703 14.0402 244.333 13.0599 241.863 13.0599C239.393 13.0599 237.023 14.0402 235.276 15.785C233.53 17.5299 232.548 19.8964 232.548 22.364H233.336C233.336 20.7296 233.807 19.1297 234.692 17.7552C235.577 16.3807 236.84 15.2896 238.329 14.6121C239.818 13.9346 241.47 13.6994 243.09 13.9346C244.709 14.1697 246.226 14.8652 247.46 15.9382C248.695 17.0111 249.594 18.4161 250.051 19.9855C250.507 21.5549 250.502 23.2224 250.036 24.789C249.57 26.3557 248.662 27.7553 247.422 28.8208C246.181 29.8863 244.66 30.5727 243.039 30.7981C242.903 30.5167 242.67 30.2934 242.383 30.1686C242.096 30.0438 241.774 30.0256 241.475 30.1175C241.175 30.2094 240.919 30.4052 240.752 30.6694C240.585 30.9337 240.518 31.2491 240.563 31.5584C240.608 31.8677 240.763 32.1506 240.999 32.3559C241.235 32.5611 241.537 32.6752 241.85 32.6775C242.163 32.6798 242.467 32.5701 242.706 32.3682C242.945 32.1664 243.103 31.8858 243.153 31.5771C245.377 31.2637 247.413 30.1593 248.887 28.4668C250.361 26.7743 251.175 24.6074 251.178 22.364Z" fill="#AAC8FF"/>
<path d="M226.557 22.3641C226.541 19.9069 225.553 17.5558 223.808 15.824C222.063 14.0921 219.703 13.1201 217.243 13.1201C214.783 13.1201 212.422 14.0921 210.677 15.824C208.932 17.5558 207.944 19.9069 207.928 22.3641H208.716C208.716 20.7296 209.186 19.1295 210.071 17.7548C210.956 16.3801 212.219 15.2888 213.708 14.6113C215.197 13.9337 216.85 13.6985 218.47 13.9337C220.089 14.1689 221.606 14.8645 222.841 15.9376C224.075 17.0107 224.974 18.4158 225.431 19.9854C225.888 21.555 225.882 23.2227 225.416 24.7894C224.95 26.3561 224.042 27.7558 222.801 28.8212C221.56 29.8867 220.038 30.573 218.418 30.7982C218.281 30.5171 218.048 30.2941 217.761 30.1695C217.475 30.0449 217.153 30.027 216.854 30.119C216.555 30.211 216.299 30.4068 216.132 30.671C215.965 30.9352 215.898 31.2504 215.944 31.5595C215.989 31.8686 216.144 32.1512 216.38 32.3562C216.616 32.5612 216.918 32.6751 217.23 32.6772C217.543 32.6794 217.846 32.5697 218.085 32.3679C218.324 32.1661 218.483 31.8856 218.532 31.5772C220.756 31.2639 222.792 30.1596 224.267 28.4671C225.741 26.7746 226.554 24.6075 226.557 22.3641Z" fill="#AAC8FF"/>
<path d="M201.937 22.364C201.937 21.1422 201.696 19.9323 201.228 18.8035C200.76 17.6747 200.074 16.649 199.209 15.785C198.344 14.9211 197.317 14.2357 196.187 13.7682C195.057 13.3006 193.845 13.0599 192.622 13.0599C191.399 13.0599 190.188 13.3006 189.058 13.7682C187.928 14.2357 186.901 14.9211 186.036 15.785C185.171 16.649 184.485 17.6747 184.017 18.8035C183.548 19.9323 183.308 21.1422 183.308 22.364H184.096C184.096 20.7296 184.566 19.1297 185.451 17.7551C186.336 16.3805 187.599 15.2894 189.088 14.6119C190.577 13.9345 192.23 13.6993 193.849 13.9345C195.468 14.1697 196.986 14.8653 198.22 15.9383C199.454 17.0113 200.353 18.4164 200.81 19.9858C201.267 21.5553 201.261 23.2228 200.795 24.7895C200.329 26.3561 199.421 27.7557 198.18 28.8211C196.94 29.8865 195.418 30.5728 193.797 30.7981C193.661 30.517 193.428 30.294 193.141 30.1695C192.855 30.0449 192.533 30.027 192.234 30.119C191.935 30.211 191.679 30.4068 191.512 30.671C191.345 30.9352 191.278 31.2503 191.324 31.5594C191.369 31.8685 191.524 32.1511 191.76 32.3561C191.996 32.5612 192.297 32.6751 192.61 32.6772C192.923 32.6793 193.226 32.5696 193.465 32.3678C193.704 32.1661 193.862 31.8856 193.912 31.5771C196.136 31.2638 198.172 30.1594 199.646 28.4669C201.121 26.7744 201.934 24.6074 201.937 22.364Z" fill="#AAC8FF"/>
<path d="M177.317 22.3641C177.301 19.9069 176.312 17.5558 174.567 15.824C172.822 14.0921 170.462 13.1201 168.002 13.1201C165.542 13.1201 163.182 14.0921 161.437 15.824C159.691 17.5558 158.703 19.9069 158.687 22.3641H159.475C159.475 20.7296 159.945 19.1295 160.831 17.7548C161.716 16.3801 162.978 15.2888 164.468 14.6113C165.957 13.9337 167.61 13.6985 169.229 13.9337C170.848 14.1689 172.366 14.8645 173.6 15.9376C174.834 17.0107 175.734 18.4158 176.19 19.9854C176.647 21.555 176.642 23.2227 176.175 24.7894C175.709 26.3561 174.801 27.7558 173.56 28.8212C172.319 29.8867 170.798 30.573 169.177 30.7982C169.04 30.5171 168.808 30.2941 168.521 30.1695C168.234 30.0449 167.912 30.027 167.613 30.119C167.314 30.211 167.058 30.4068 166.891 30.671C166.724 30.9352 166.657 31.2504 166.703 31.5595C166.748 31.8686 166.903 32.1512 167.139 32.3562C167.375 32.5612 167.677 32.6751 167.99 32.6772C168.302 32.6794 168.606 32.5697 168.844 32.3679C169.083 32.1661 169.242 31.8856 169.292 31.5772C171.516 31.2639 173.552 30.1596 175.026 28.4671C176.5 26.7746 177.314 24.6075 177.317 22.3641Z" fill="#AAC8FF"/>
<path d="M152.696 22.364C152.696 19.8964 151.715 17.5299 149.968 15.785C148.221 14.0402 145.852 13.0599 143.382 13.0599C140.911 13.0599 138.542 14.0402 136.795 15.785C135.048 17.5299 134.067 19.8964 134.067 22.364H134.855C134.855 20.7296 135.325 19.1297 136.211 17.7551C137.096 16.3805 138.358 15.2894 139.847 14.6119C141.336 13.9345 142.989 13.6993 144.608 13.9345C146.228 14.1697 147.745 14.8653 148.979 15.9383C150.213 17.0113 151.113 18.4164 151.569 19.9858C152.026 21.5553 152.021 23.2228 151.554 24.7895C151.088 26.3561 150.181 27.7557 148.94 28.8211C147.699 29.8865 146.177 30.5728 144.557 30.7981C144.42 30.517 144.187 30.294 143.901 30.1695C143.614 30.0449 143.292 30.027 142.993 30.119C142.694 30.211 142.438 30.4068 142.271 30.671C142.104 30.9352 142.037 31.2503 142.083 31.5594C142.128 31.8685 142.283 32.1511 142.519 32.3561C142.755 32.5612 143.057 32.6751 143.37 32.6772C143.682 32.6793 143.985 32.5696 144.224 32.3678C144.463 32.1661 144.622 31.8856 144.671 31.5771C146.895 31.2638 148.931 30.1594 150.406 28.4669C151.88 26.7744 152.693 24.6074 152.696 22.364Z" fill="#AAC8FF"/>
<path d="M128.076 22.3641C128.06 19.9069 127.072 17.5558 125.326 15.824C123.581 14.0921 121.221 13.1201 118.761 13.1201C116.301 13.1201 113.941 14.0921 112.196 15.824C110.451 17.5558 109.462 19.9069 109.446 22.3641H110.234C110.234 20.7296 110.705 19.1295 111.59 17.7548C112.475 16.3801 113.738 15.2888 115.227 14.6113C116.716 13.9337 118.369 13.6985 119.988 13.9337C121.608 14.1689 123.125 14.8645 124.359 15.9376C125.594 17.0107 126.493 18.4158 126.949 19.9854C127.406 21.555 127.401 23.2227 126.935 24.7894C126.468 26.3561 125.561 27.7558 124.32 28.8212C123.079 29.8867 121.557 30.573 119.936 30.7982C119.8 30.5171 119.567 30.2941 119.28 30.1695C118.993 30.0449 118.671 30.027 118.372 30.119C118.073 30.211 117.817 30.4068 117.65 30.671C117.484 30.9352 117.417 31.2504 117.462 31.5595C117.508 31.8686 117.663 32.1512 117.899 32.3562C118.135 32.5612 118.436 32.6751 118.749 32.6772C119.062 32.6794 119.365 32.5697 119.604 32.3679C119.843 32.1661 120.001 31.8856 120.051 31.5772C122.275 31.2639 124.311 30.1596 125.785 28.4671C127.26 26.7746 128.073 24.6075 128.076 22.3641Z" fill="#AAC8FF"/>
<g opacity="0.6">
<path d="M94.1408 13.0599C91.6713 13.0627 89.3037 14.0439 87.5575 15.7881C85.8112 17.5324 84.829 19.8973 84.8261 22.364H85.6144C85.614 20.7295 86.0845 19.1294 86.9697 17.7547C87.855 16.38 89.1175 15.2888 90.6067 14.6112C92.0958 13.9337 93.7487 13.6985 95.3681 13.9336C96.9874 14.1688 98.5048 14.8645 99.7392 15.9375C100.974 17.0106 101.873 18.4158 102.329 19.9854C102.786 21.5549 102.781 23.2226 102.315 24.7894C101.848 26.3561 100.94 27.7557 99.6994 28.8212C98.4585 29.8866 96.9368 30.5729 95.316 30.7981C95.1795 30.517 94.9468 30.294 94.6599 30.1695C94.3731 30.0449 94.0511 30.027 93.7522 30.119C93.4533 30.211 93.1972 30.4068 93.0303 30.671C92.8634 30.9352 92.7966 31.2503 92.8421 31.5594C92.8876 31.8685 93.0424 32.1511 93.2784 32.3561C93.5144 32.5612 93.816 32.6751 94.1288 32.6772C94.4416 32.6793 94.7448 32.5696 94.9836 32.3678C95.2224 32.1661 95.381 31.8856 95.4307 31.5771C97.7667 31.2514 99.892 30.0525 101.377 28.2225C102.863 26.3925 103.598 24.0677 103.434 21.7175C103.271 19.3672 102.22 17.1665 100.495 15.5596C98.7705 13.9527 96.4995 13.0594 94.1408 13.0599Z" fill="#292A2E"/>
<path d="M275.798 22.3641C275.782 19.9069 274.794 17.5558 273.049 15.824C271.303 14.0921 268.943 13.1201 266.483 13.1201C264.023 13.1201 261.663 14.0921 259.918 15.824C258.173 17.5558 257.184 19.9069 257.168 22.3641H257.957C257.956 20.7296 258.427 19.1295 259.312 17.7548C260.197 16.3801 261.46 15.2888 262.949 14.6113C264.438 13.9337 266.091 13.6985 267.71 13.9337C269.33 14.1689 270.847 14.8645 272.081 15.9376C273.316 17.0107 274.215 18.4158 274.672 19.9854C275.128 21.555 275.123 23.2227 274.657 24.7894C274.19 26.3561 273.283 27.7558 272.042 28.8212C270.801 29.8867 269.279 30.573 267.658 30.7982C267.522 30.5171 267.289 30.2941 267.002 30.1695C266.715 30.0449 266.393 30.027 266.094 30.119C265.796 30.211 265.539 30.4068 265.373 30.671C265.206 30.9352 265.139 31.2504 265.184 31.5595C265.23 31.8686 265.385 32.1512 265.621 32.3562C265.857 32.5612 266.158 32.6751 266.471 32.6772C266.784 32.6794 267.087 32.5697 267.326 32.3679C267.565 32.1661 267.723 31.8856 267.773 31.5772C269.997 31.2639 272.033 30.1596 273.507 28.4671C274.982 26.7746 275.795 24.6075 275.798 22.3641Z" fill="#292A2E"/>
<path d="M251.178 22.364C251.178 19.8964 250.196 17.5299 248.449 15.785C246.703 14.0402 244.333 13.0599 241.863 13.0599C239.393 13.0599 237.023 14.0402 235.276 15.785C233.53 17.5299 232.548 19.8964 232.548 22.364H233.336C233.336 20.7296 233.807 19.1297 234.692 17.7552C235.577 16.3807 236.84 15.2896 238.329 14.6121C239.818 13.9346 241.47 13.6994 243.09 13.9346C244.709 14.1697 246.226 14.8652 247.46 15.9382C248.695 17.0111 249.594 18.4161 250.051 19.9855C250.507 21.5549 250.502 23.2224 250.036 24.789C249.57 26.3557 248.662 27.7553 247.422 28.8208C246.181 29.8863 244.66 30.5727 243.039 30.7981C242.903 30.5167 242.67 30.2934 242.383 30.1686C242.096 30.0438 241.774 30.0256 241.475 30.1175C241.175 30.2094 240.919 30.4052 240.752 30.6694C240.585 30.9337 240.518 31.2491 240.563 31.5584C240.608 31.8677 240.763 32.1506 240.999 32.3559C241.235 32.5611 241.537 32.6752 241.85 32.6775C242.163 32.6798 242.467 32.5701 242.706 32.3682C242.945 32.1664 243.103 31.8858 243.153 31.5771C245.377 31.2637 247.413 30.1593 248.887 28.4668C250.361 26.7743 251.175 24.6074 251.178 22.364Z" fill="#292A2E"/>
<path d="M226.557 22.3641C226.541 19.9069 225.553 17.5558 223.808 15.824C222.063 14.0921 219.703 13.1201 217.243 13.1201C214.783 13.1201 212.422 14.0921 210.677 15.824C208.932 17.5558 207.944 19.9069 207.928 22.3641H208.716C208.716 20.7296 209.186 19.1295 210.071 17.7548C210.956 16.3801 212.219 15.2888 213.708 14.6113C215.197 13.9337 216.85 13.6985 218.47 13.9337C220.089 14.1689 221.606 14.8645 222.841 15.9376C224.075 17.0107 224.974 18.4158 225.431 19.9854C225.888 21.555 225.882 23.2227 225.416 24.7894C224.95 26.3561 224.042 27.7558 222.801 28.8212C221.56 29.8867 220.038 30.573 218.418 30.7982C218.281 30.5171 218.048 30.2941 217.761 30.1695C217.475 30.0449 217.153 30.027 216.854 30.119C216.555 30.211 216.299 30.4068 216.132 30.671C215.965 30.9352 215.898 31.2504 215.944 31.5595C215.989 31.8686 216.144 32.1512 216.38 32.3562C216.616 32.5612 216.918 32.6751 217.23 32.6772C217.543 32.6794 217.846 32.5697 218.085 32.3679C218.324 32.1661 218.483 31.8856 218.532 31.5772C220.756 31.2639 222.792 30.1596 224.267 28.4671C225.741 26.7746 226.554 24.6075 226.557 22.3641Z" fill="#292A2E"/>
<path d="M201.937 22.364C201.937 21.1422 201.696 19.9323 201.228 18.8035C200.76 17.6747 200.074 16.649 199.209 15.785C198.344 14.9211 197.317 14.2357 196.187 13.7682C195.057 13.3006 193.845 13.0599 192.622 13.0599C191.399 13.0599 190.188 13.3006 189.058 13.7682C187.928 14.2357 186.901 14.9211 186.036 15.785C185.171 16.649 184.485 17.6747 184.017 18.8035C183.548 19.9323 183.308 21.1422 183.308 22.364H184.096C184.096 20.7296 184.566 19.1297 185.451 17.7551C186.336 16.3805 187.599 15.2894 189.088 14.6119C190.577 13.9345 192.23 13.6993 193.849 13.9345C195.468 14.1697 196.986 14.8653 198.22 15.9383C199.454 17.0113 200.353 18.4164 200.81 19.9858C201.267 21.5553 201.261 23.2228 200.795 24.7895C200.329 26.3561 199.421 27.7557 198.18 28.8211C196.94 29.8865 195.418 30.5728 193.797 30.7981C193.661 30.517 193.428 30.294 193.141 30.1695C192.855 30.0449 192.533 30.027 192.234 30.119C191.935 30.211 191.679 30.4068 191.512 30.671C191.345 30.9352 191.278 31.2503 191.324 31.5594C191.369 31.8685 191.524 32.1511 191.76 32.3561C191.996 32.5612 192.297 32.6751 192.61 32.6772C192.923 32.6793 193.226 32.5696 193.465 32.3678C193.704 32.1661 193.862 31.8856 193.912 31.5771C196.136 31.2638 198.172 30.1594 199.646 28.4669C201.121 26.7744 201.934 24.6074 201.937 22.364Z" fill="#292A2E"/>
<path d="M177.317 22.3641C177.301 19.9069 176.312 17.5558 174.567 15.824C172.822 14.0921 170.462 13.1201 168.002 13.1201C165.542 13.1201 163.182 14.0921 161.437 15.824C159.691 17.5558 158.703 19.9069 158.687 22.3641H159.475C159.475 20.7296 159.945 19.1295 160.831 17.7548C161.716 16.3801 162.978 15.2888 164.468 14.6113C165.957 13.9337 167.61 13.6985 169.229 13.9337C170.848 14.1689 172.366 14.8645 173.6 15.9376C174.834 17.0107 175.734 18.4158 176.19 19.9854C176.647 21.555 176.642 23.2227 176.175 24.7894C175.709 26.3561 174.801 27.7558 173.56 28.8212C172.319 29.8867 170.798 30.573 169.177 30.7982C169.04 30.5171 168.808 30.2941 168.521 30.1695C168.234 30.0449 167.912 30.027 167.613 30.119C167.314 30.211 167.058 30.4068 166.891 30.671C166.724 30.9352 166.657 31.2504 166.703 31.5595C166.748 31.8686 166.903 32.1512 167.139 32.3562C167.375 32.5612 167.677 32.6751 167.99 32.6772C168.302 32.6794 168.606 32.5697 168.844 32.3679C169.083 32.1661 169.242 31.8856 169.292 31.5772C171.516 31.2639 173.552 30.1596 175.026 28.4671C176.5 26.7746 177.314 24.6075 177.317 22.3641Z" fill="#292A2E"/>
<path d="M152.696 22.364C152.696 19.8964 151.715 17.5299 149.968 15.785C148.221 14.0402 145.852 13.0599 143.382 13.0599C140.911 13.0599 138.542 14.0402 136.795 15.785C135.048 17.5299 134.067 19.8964 134.067 22.364H134.855C134.855 20.7296 135.325 19.1297 136.211 17.7551C137.096 16.3805 138.358 15.2894 139.847 14.6119C141.336 13.9345 142.989 13.6993 144.608 13.9345C146.228 14.1697 147.745 14.8653 148.979 15.9383C150.213 17.0113 151.113 18.4164 151.569 19.9858C152.026 21.5553 152.021 23.2228 151.554 24.7895C151.088 26.3561 150.181 27.7557 148.94 28.8211C147.699 29.8865 146.177 30.5728 144.557 30.7981C144.42 30.517 144.187 30.294 143.901 30.1695C143.614 30.0449 143.292 30.027 142.993 30.119C142.694 30.211 142.438 30.4068 142.271 30.671C142.104 30.9352 142.037 31.2503 142.083 31.5594C142.128 31.8685 142.283 32.1511 142.519 32.3561C142.755 32.5612 143.057 32.6751 143.37 32.6772C143.682 32.6793 143.985 32.5696 144.224 32.3678C144.463 32.1661 144.622 31.8856 144.671 31.5771C146.895 31.2638 148.931 30.1594 150.406 28.4669C151.88 26.7744 152.693 24.6074 152.696 22.364Z" fill="#292A2E"/>
<path d="M128.076 22.3641C128.06 19.9069 127.072 17.5558 125.326 15.824C123.581 14.0921 121.221 13.1201 118.761 13.1201C116.301 13.1201 113.941 14.0921 112.196 15.824C110.451 17.5558 109.462 19.9069 109.446 22.3641H110.234C110.234 20.7296 110.705 19.1295 111.59 17.7548C112.475 16.3801 113.738 15.2888 115.227 14.6113C116.716 13.9337 118.369 13.6985 119.988 13.9337C121.608 14.1689 123.125 14.8645 124.359 15.9376C125.594 17.0107 126.493 18.4158 126.949 19.9854C127.406 21.555 127.401 23.2227 126.935 24.7894C126.468 26.3561 125.561 27.7558 124.32 28.8212C123.079 29.8867 121.557 30.573 119.936 30.7982C119.8 30.5171 119.567 30.2941 119.28 30.1695C118.993 30.0449 118.671 30.027 118.372 30.119C118.073 30.211 117.817 30.4068 117.65 30.671C117.484 30.9352 117.417 31.2504 117.462 31.5595C117.508 31.8686 117.663 32.1512 117.899 32.3562C118.135 32.5612 118.436 32.6751 118.749 32.6772C119.062 32.6794 119.365 32.5697 119.604 32.3679C119.843 32.1661 120.001 31.8856 120.051 31.5772C122.275 31.2639 124.311 30.1596 125.785 28.4671C127.26 26.7746 128.073 24.6075 128.076 22.3641Z" fill="#292A2E"/>
</g>
<g opacity="0.72">
<path d="M272.209 70.6534H87.3445C87.24 70.6534 87.1397 70.6119 87.0658 70.5381C86.9919 70.4643 86.9504 70.3641 86.9504 70.2597C86.9504 70.1553 86.9919 70.0552 87.0658 69.9814C87.1397 69.9076 87.24 69.8661 87.3445 69.8661H272.209C272.314 69.8661 272.414 69.9076 272.488 69.9814C272.562 70.0552 272.603 70.1553 272.603 70.2597C272.603 70.3641 272.562 70.4643 272.488 70.5381C272.414 70.6119 272.314 70.6534 272.209 70.6534Z" fill="#292A2E"/>
</g>
<g opacity="0.72">
<path d="M272.209 92.9719H87.3445C87.24 92.9719 87.1397 92.9304 87.0658 92.8566C86.9919 92.7828 86.9504 92.6826 86.9504 92.5782C86.9504 92.4738 86.9919 92.3737 87.0658 92.2999C87.1397 92.226 87.24 92.1846 87.3445 92.1846H272.209C272.314 92.1846 272.414 92.226 272.488 92.2999C272.562 92.3737 272.603 92.4738 272.603 92.5782C272.603 92.6826 272.562 92.7828 272.488 92.8566C272.414 92.9304 272.314 92.9719 272.209 92.9719Z" fill="#292A2E"/>
</g>
<g opacity="0.72">
<path d="M167.9 115.291H87.3453C87.2408 115.291 87.1405 115.249 87.0666 115.175C86.9927 115.101 86.9512 115.001 86.9512 114.897C86.9512 114.793 86.9927 114.692 87.0666 114.619C87.1405 114.545 87.2408 114.503 87.3453 114.503H167.9C168.005 114.503 168.105 114.545 168.179 114.619C168.253 114.692 168.295 114.793 168.295 114.897C168.295 115.001 168.253 115.101 168.179 115.175C168.105 115.249 168.005 115.291 167.9 115.291Z" fill="#292A2E"/>
</g>
<path d="M360.266 186.996C362.009 186.996 363.726 186.575 365.271 185.769C366.817 184.964 368.144 183.797 369.141 182.369C370.137 180.94 370.774 179.293 370.996 177.566C371.218 175.839 371.019 174.084 370.416 172.45C369.804 170.792 355.45 132.826 352.718 125.792L332.485 133.98C334.022 137.936 339.588 152.928 344.06 165.005L336.631 164.198L334.292 185.688L359.095 186.934C359.484 186.976 359.875 186.997 360.266 186.996Z" fill="#367CFF"/>
<path d="M182.337 133.647L189.816 106.942L366.021 153.957L358.543 180.662L182.337 133.647Z" fill="#367CFF"/>
<path opacity="0.5" d="M182.337 133.647L189.816 106.942L366.021 153.957L358.543 180.662L182.337 133.647Z" fill="white"/>
<path d="M377.885 186.067L385.363 159.363L366.023 153.959L358.545 180.664L377.885 186.067Z" fill="#262626"/>
<path d="M182.337 133.646C182.337 133.646 177.263 127.966 172.731 122.86C169.137 118.811 165.887 115.123 165.787 114.921C165.687 114.719 170.569 113.068 175.962 111.325C182.514 109.207 189.817 106.943 189.817 106.943L182.337 133.646Z" fill="#367CFF"/>
<path opacity="0.9" d="M182.337 133.646C182.337 133.646 177.263 127.966 172.731 122.86C169.137 118.811 165.887 115.123 165.787 114.921C165.687 114.719 170.569 113.068 175.962 111.325C182.514 109.207 189.817 106.943 189.817 106.943L182.337 133.646Z" fill="white"/>
<path d="M172.731 122.86C169.137 118.811 165.887 115.123 165.787 114.921C165.687 114.719 170.569 113.068 175.962 111.325L172.731 122.86Z" fill="#262626"/>
<path d="M184.717 125.346L360.969 171.863L360.632 173.083L184.38 126.566L184.717 125.346Z" fill="white"/>
<path d="M187.638 114.897L363.891 161.414L363.554 162.634L187.301 116.116L187.638 114.897Z" fill="white"/>
<path d="M337.298 353.582C337.298 353.582 335.519 362.794 326.883 363.309C318.247 363.824 320.12 370.695 320.12 370.695H353.122V354.226L337.298 353.582Z" fill="#367CFF"/>
<path d="M347.477 185.52C347.477 185.52 347.373 182.75 347.395 189.033C347.477 212.467 347.884 239.234 348.879 254.897C350.478 280.077 354.577 359.463 354.577 359.463L332.891 359.282L311.873 184.567L347.477 185.52Z" fill="#262626"/>
<path d="M322.988 213.154C322.988 213.154 322.089 230.16 321.924 234.152C321.538 243.385 321.404 252.945 321.404 263.783L317.986 235.369C317.986 235.369 320.486 226.465 322.988 213.154Z" fill="#0A0A0A"/>
<path d="M298.691 353.582C298.691 353.582 296.912 362.794 288.276 363.309C279.64 363.824 281.512 370.695 281.512 370.695H314.515V354.226L298.691 353.582Z" fill="#367CFF"/>
<path d="M288.191 187.341C288.191 187.341 286.27 267.433 286.552 271.347L294.616 358.857L315.944 359.251L313.866 268.181C313.866 268.181 315.332 243.06 321.408 219.733C324.517 207.76 326.388 195.501 326.992 183.147L288.191 187.341Z" fill="#262626"/>
<path d="M347.713 185.517L347.784 185.521C347.784 185.521 347.733 184.155 347.713 185.517Z" fill="#333333"/>
<path d="M285.138 142.883C285.585 148.131 287.761 180.875 288.191 187.339H347.454C347.788 181.509 347.845 156.247 349.114 144.845C350.326 133.966 354.151 128.285 352.408 125.069C349.56 119.812 341.778 116.774 336.472 116.057C333.232 115.618 328.358 115.304 328.358 115.304C328.358 115.304 327.946 123.642 318.107 124.106C304.712 124.736 305.607 115.304 305.541 115.304C303.373 115.304 291.371 116.532 288.731 118.865C281.633 125.141 284.189 131.761 285.138 142.883Z" fill="#367CFF"/>
<path d="M298.48 114.585C298.547 114.577 300.364 121.41 314.551 120.347C324.372 119.612 326.768 112.934 326.992 112.934C325.933 112.709 324.214 112.476 323.743 112.225C322.197 111.396 321.07 110.385 320.503 108.217C320.06 106.521 319.833 99.993 319.833 96.7178L304.721 100.11C304.931 103.804 306.406 112.37 301.238 113.886C300.379 114.136 299.453 114.367 298.48 114.585Z" fill="#E98862"/>
<path d="M305.244 107.373C311.202 107.843 318.855 105.33 320.309 97.3905L321.621 90.226C323.074 82.2863 320.078 75.0871 312.596 73.72C305.112 72.3528 298.339 77.7671 296.885 85.7068L296.305 88.8785C295.745 91.9254 294.614 106.536 305.244 107.373Z" fill="#E98862"/>
<path d="M299.72 100.084C300.789 94.7165 301.279 91.1354 301.223 87.3574C299.716 84.7199 300.112 81.6888 300.455 80.3803C299.418 81.0386 298.198 81.3511 296.971 81.2727C296.971 81.2727 299.463 71.2864 307.928 68.5993C309.485 67.9939 313.46 67.2294 318.738 67.9525C323.228 68.5674 334.294 71.9206 335.875 84.3653V84.3723C335.927 84.7849 336.99 96.2509 339.107 101.752C341.955 109.148 345.953 111.446 345.852 119.979C345.721 130.954 325.52 132.415 313.338 131.594C301.155 130.773 294.352 126.771 294.263 118.861C294.168 109.999 297.58 110.822 299.72 100.084Z" fill="#0A0A0A"/>
<path d="M348.72 144.833L347.264 187.334L347.658 187.348L349.114 144.847L348.72 144.833Z" fill="#0C0C0C"/>
<path d="M229.535 145.673L223.679 137.304C223.55 137.12 223.384 136.965 223.192 136.848C223 136.732 222.786 136.657 222.563 136.628C222.341 136.598 222.114 136.616 221.899 136.679C221.683 136.742 221.483 136.849 221.311 136.993C221.002 137.27 220.807 137.651 220.763 138.063C220.719 138.475 220.83 138.889 221.075 139.224L222.33 141.018L215.788 137.185C215.068 136.747 213.904 136.668 213.463 137.507C213.272 137.819 213.194 138.186 213.239 138.549C213.284 138.911 213.452 139.247 213.713 139.502C213.707 139.508 213.702 139.514 213.697 139.521C213.695 139.527 213.693 139.533 213.691 139.539L212.581 138.862C212.375 138.737 212.144 138.659 211.905 138.635C211.665 138.61 211.423 138.639 211.196 138.72C210.969 138.8 210.763 138.93 210.593 139.101C210.422 139.271 210.292 139.477 210.212 139.704C210.092 140.063 210.1 140.453 210.234 140.808C210.368 141.162 210.62 141.46 210.947 141.652L211.42 141.939C211.418 141.957 211.419 141.975 211.423 141.992C211.059 141.871 210.663 141.884 210.307 142.028C209.952 142.173 209.659 142.439 209.482 142.779C209.299 143.157 209.265 143.589 209.387 143.99C209.509 144.391 209.777 144.732 210.139 144.944L211.313 145.66C211.294 145.66 211.275 145.665 211.258 145.673C211.241 145.681 211.225 145.692 211.213 145.706C211.2 145.72 211.19 145.737 211.184 145.755C211.178 145.773 211.176 145.792 211.177 145.811C210.823 145.794 210.474 145.893 210.182 146.094C209.89 146.295 209.672 146.586 209.562 146.922C209.453 147.279 209.468 147.661 209.604 148.008C209.739 148.354 209.989 148.645 210.31 148.833L220.211 154.867C221.596 155.711 223.202 156.122 224.823 156.049C226.443 155.976 228.005 155.42 229.308 154.455C230.432 153.622 231.186 152.384 231.41 151.005C231.634 149.625 231.312 148.213 230.51 147.068L229.535 145.673Z" fill="#E98862"/>
<g opacity="0.2">
<path d="M220.172 143.33C220.151 143.363 220.118 143.387 220.081 143.396C220.043 143.406 220.003 143.4 219.969 143.38L213.753 139.727C213.72 139.706 213.697 139.674 213.688 139.636C213.678 139.599 213.684 139.559 213.704 139.526C213.724 139.492 213.755 139.468 213.793 139.457C213.83 139.447 213.87 139.452 213.904 139.47L220.121 143.123C220.138 143.133 220.153 143.146 220.164 143.162C220.176 143.177 220.185 143.195 220.19 143.214C220.195 143.233 220.196 143.253 220.193 143.272C220.19 143.292 220.184 143.31 220.174 143.327L220.172 143.33Z" fill="#0C0C0C"/>
</g>
<g opacity="0.2">
<path d="M218.635 146.111C218.614 146.145 218.581 146.168 218.544 146.178C218.506 146.187 218.466 146.181 218.432 146.161L211.496 142.085C211.479 142.075 211.464 142.062 211.452 142.046C211.441 142.03 211.432 142.013 211.427 141.994C211.422 141.975 211.421 141.955 211.424 141.935C211.427 141.916 211.433 141.897 211.443 141.88C211.464 141.847 211.497 141.824 211.535 141.814C211.573 141.804 211.613 141.809 211.647 141.828L218.583 145.904C218.618 145.924 218.642 145.957 218.652 145.995C218.662 146.034 218.657 146.074 218.637 146.108L218.635 146.111Z" fill="#0C0C0C"/>
</g>
<g opacity="0.2">
<path d="M216.989 149.135C216.968 149.168 216.935 149.192 216.898 149.201C216.86 149.211 216.82 149.205 216.786 149.185L211.252 145.934C211.219 145.913 211.196 145.88 211.187 145.843C211.178 145.805 211.184 145.765 211.203 145.732C211.223 145.699 211.255 145.674 211.292 145.664C211.329 145.654 211.369 145.658 211.403 145.676L216.938 148.928C216.955 148.938 216.969 148.951 216.981 148.967C216.993 148.983 217.002 149 217.007 149.019C217.011 149.038 217.013 149.058 217.01 149.077C217.007 149.097 217.001 149.116 216.991 149.132L216.989 149.135Z" fill="#0C0C0C"/>
</g>
<path d="M286.527 121.392L261.956 158.178L230.932 140.21L219.727 158.541L259.468 184.034C262.017 185.666 265.105 186.233 268.068 185.615C271.032 184.997 273.634 183.242 275.316 180.728L275.464 180.507L306.197 134.501L286.527 121.392Z" fill="#367CFF"/>
<path d="M286.602 164.292C286.566 164.292 286.531 164.282 286.501 164.264C286.47 164.245 286.445 164.219 286.429 164.188C286.412 164.156 286.404 164.121 286.406 164.085C286.407 164.05 286.419 164.015 286.439 163.985L292.918 154.35C292.948 154.308 292.993 154.279 293.044 154.27C293.094 154.261 293.146 154.272 293.189 154.3C293.231 154.329 293.261 154.373 293.272 154.423C293.282 154.473 293.273 154.525 293.246 154.569L286.766 164.205C286.748 164.232 286.723 164.253 286.695 164.269C286.666 164.284 286.634 164.292 286.602 164.292Z" fill="#0C0C0C"/>
<path d="M395.991 371H24.9513C24.8705 371 24.793 370.968 24.7359 370.911C24.6788 370.854 24.6467 370.776 24.6467 370.696C24.6467 370.615 24.6788 370.538 24.7359 370.48C24.793 370.423 24.8705 370.391 24.9513 370.391H395.991C396.072 370.391 396.15 370.423 396.207 370.48C396.264 370.538 396.296 370.615 396.296 370.696C396.296 370.776 396.264 370.854 396.207 370.911C396.15 370.968 396.072 371 395.991 371Z" fill="#3F3F3F"/>
<path d="M146.773 221.179C149.59 226.338 151.061 232.123 151.051 238C151.051 250.936 144.056 262.236 133.633 268.303L144.336 237.339C146.342 232.338 147.003 228.338 147.003 224.784C147.003 223.463 146.915 222.244 146.773 221.179ZM120.836 221.522C122.944 221.42 124.836 221.179 124.836 221.179C126.727 220.937 126.513 218.156 124.619 218.259C124.619 218.259 118.918 218.69 115.261 218.69C111.807 218.69 105.994 218.207 105.994 218.207C104.103 218.105 103.849 220.989 105.753 221.089C105.753 221.089 107.505 221.279 109.409 221.381L114.869 236.335L107.164 259.353L94.4062 221.418C96.5146 221.33 98.4183 221.101 98.4183 221.101C100.31 220.86 100.095 218.078 98.2014 218.181C98.2014 218.181 92.5269 218.636 88.8584 218.636C88.2101 218.636 87.4374 218.612 86.6232 218.585C92.9583 209.228 103.761 202.944 116 202.944C125.128 202.944 133.431 206.422 139.678 212.148C139.524 212.148 139.385 212.123 139.22 212.123C135.78 212.123 133.328 215.119 133.328 218.344C133.328 221.24 135.005 223.689 136.782 226.571C138.115 228.906 139.663 231.916 139.663 236.245C139.663 239.216 138.52 242.719 136.997 247.557L133.506 259.199L120.836 221.469V221.522ZM116 273.051C112.561 273.051 109.233 272.556 106.096 271.63L116.609 241.059L127.388 270.589C127.464 270.767 127.554 270.918 127.641 271.072C123.901 272.388 119.965 273.058 116 273.054V273.051ZM80.9366 238C80.9366 232.923 82.0286 228.084 83.9712 223.731L100.69 269.561C89.0096 263.874 80.9366 251.877 80.9366 238ZM116 199C94.5061 199 77 216.506 77 238C77 259.494 94.5061 277 116 277C137.494 277 155 259.494 155 238C155 216.506 137.494 199 116 199Z" fill="#84B5FF"/>
</svg>
