<svg id="Group_18792" data-name="Group 18792" xmlns="http://www.w3.org/2000/svg" width="433.343" height="325.336" viewBox="0 0 433.343 325.336">
  <g id="OBJECTS" transform="translate(0 0)">
    <g id="Group_18791" data-name="Group 18791">
      <g id="Group_18750" data-name="Group 18750">
        <path id="Path_146862" data-name="Path 146862" d="M424.577,405.108c46.778-35.568,67.612-134.2-8.343-182.563-50.284-32.013-81.558-13.75-138.129-34.928C209.045,161.77,198.752,83.678,114.75,122.1,70.247,142.454,39.4,199.811,33.968,265c-5.319,63.84,17.307,107.643,63.543,137.617C206.09,407.236,314.885,406.4,424.577,405.108Z" transform="translate(-33.205 -85.259)" fill="#dff3fc"/>
        <path id="Path_146863" data-name="Path 146863" d="M235.414,124.162c-7.066,28.368,19.171,56.451,46.814,68.094s59.34,10.264,88.954,4.708c12.778-2.394,25.912-5.762,35.839-13.908s15.681-22.291,10.241-33.717c-4.8-10.077-16.488-15.238-27.632-17.888s-22.977-3.733-32.9-9.308c-9.414-5.29-16.091-14.046-24.278-20.981-15.126-12.8-36.374-19.139-56.039-15.09S241.42,100.049,235.414,124.162Z" transform="translate(-36.218 -84.858)" fill="#dff3fc"/>
      </g>
      <g id="Group_18790" data-name="Group 18790" transform="translate(20.937 6.479)">
        <g id="Group_18766" data-name="Group 18766" transform="translate(12.587)">
          <g id="Group_18751" data-name="Group 18751" transform="translate(242.008 103.597)">
            <path id="Path_146864" data-name="Path 146864" d="M448.8,256.319V234.857h-8.138a41.632,41.632,0,0,0-4.375-10.549l5.754-5.763-15.177-15.177-5.763,5.754a41.667,41.667,0,0,0-10.55-4.376v-8.137H389.1v8.137a41.635,41.635,0,0,0-10.549,4.376l-5.764-5.754-15.176,15.177,5.754,5.763a41.96,41.96,0,0,0-4.376,10.549h-8.137v21.462h8.137a41.947,41.947,0,0,0,4.376,10.548l-5.754,5.764,15.176,15.176,5.764-5.754A41.958,41.958,0,0,0,389.1,286.43v8.137h21.461V286.43a41.99,41.99,0,0,0,10.55-4.376l5.763,5.754,15.177-15.176-5.754-5.764a41.619,41.619,0,0,0,4.375-10.548Zm-48.974,7.862a18.594,18.594,0,1,1,18.588-18.6A18.6,18.6,0,0,1,399.831,264.181Z" transform="translate(-313.496 -196.608)" fill="#a2c7eb"/>
            <path id="Path_146865" data-name="Path 146865" d="M383.654,311.477l-4.083-10.643-4.036,1.548a22.168,22.168,0,0,0-4.177-4.4l1.757-3.954L362.7,289.392l-1.764,3.949a22.164,22.164,0,0,0-6.065-.164l-1.547-4.035-10.644,4.083,1.549,4.036a22.064,22.064,0,0,0-4.4,4.177l-3.953-1.757L331.238,310.1l3.951,1.764a22.272,22.272,0,0,0-.164,6.064l-4.036,1.548,4.084,10.643,4.035-1.548a22.286,22.286,0,0,0,4.178,4.4l-1.758,3.954,10.415,4.637,1.763-3.949a22.351,22.351,0,0,0,6.064.164l1.548,4.035,10.643-4.083-1.547-4.036a22.244,22.244,0,0,0,4.4-4.177l3.953,1.757,4.639-10.414-3.95-1.764a22.114,22.114,0,0,0,.163-6.064Zm-22.792,13.217a9.876,9.876,0,1,1,5.681-12.761A9.88,9.88,0,0,1,360.862,324.694Z" transform="translate(-313.199 -197.995)" fill="none" stroke="#a2c7eb" stroke-miterlimit="10" stroke-width="1"/>
            <path id="Path_146866" data-name="Path 146866" d="M348.512,273.686l-2.759-7.192-2.728,1.047a14.908,14.908,0,0,0-2.822-2.973l1.187-2.671-7.036-3.133-1.191,2.668a14.96,14.96,0,0,0-4.1-.11l-1.046-2.727-7.192,2.759,1.047,2.727A14.937,14.937,0,0,0,318.9,266.9l-2.671-1.187-3.133,7.037,2.668,1.191a15.065,15.065,0,0,0-.11,4.1l-2.727,1.046,2.758,7.192,2.728-1.046a15.041,15.041,0,0,0,2.822,2.972l-1.187,2.671,7.037,3.135,1.191-2.669a15.066,15.066,0,0,0,4.1.109l1.046,2.728,7.192-2.759-1.046-2.728a15.045,15.045,0,0,0,2.972-2.822l2.671,1.187,3.135-7.036-2.669-1.191a15.036,15.036,0,0,0,.11-4.1Zm-15.4,8.931a6.674,6.674,0,1,1,3.838-8.623A6.677,6.677,0,0,1,333.112,282.618Z" transform="translate(-312.928 -197.537)" fill="none" stroke="#a2c7eb" stroke-miterlimit="10" stroke-width="1"/>
          </g>
          <g id="Group_18753" data-name="Group 18753" transform="translate(207.267 19.924)">
            <path id="Path_146867" data-name="Path 146867" d="M345.479,145.571a33.91,33.91,0,1,1-33.91-33.909A33.878,33.878,0,0,1,345.479,145.571Z" transform="translate(-277.659 -111.662)" fill="#0097d8" stroke="#0097d8" stroke-miterlimit="10" stroke-width="1"/>
            <g id="Group_18752" data-name="Group 18752" transform="translate(12.882 11.65)">
              <path id="Path_146868" data-name="Path 146868" d="M311.916,123.489a11.1,11.1,0,1,1-11.1,11.1A11.1,11.1,0,0,1,311.916,123.489Z" transform="translate(-290.888 -123.489)" fill="#fff"/>
              <path id="Path_146869" data-name="Path 146869" d="M332.794,168.386a33.934,33.934,0,0,1-42.057,0c2.169-9.542,4.166-17.781,6.242-19.868,2.933-2.932,10.723-4.642,14.776-4.642s12.209,2.076,13.716,3.583C328.547,150.525,331.195,158.987,332.794,168.386Z" transform="translate(-290.737 -123.794)" fill="#fff"/>
            </g>
          </g>
          <g id="Group_18756" data-name="Group 18756" transform="translate(189.193 112.407)">
            <g id="Group_18754" data-name="Group 18754">
              <path id="Path_146870" data-name="Path 146870" d="M262.61,230.571V213.826a8.274,8.274,0,0,1,8.275-8.274h52.757a8.275,8.275,0,0,1,8.275,8.274v16.745a8.274,8.274,0,0,1-8.275,8.274H270.894A8.275,8.275,0,0,1,262.61,230.571Z" transform="translate(-259.36 -205.552)" fill="#0097d8"/>
              <path id="Path_146871" data-name="Path 146871" d="M284.842,230.063,259.31,254.934l41.38-20.912" transform="translate(-259.31 -205.919)" fill="#0097d8"/>
            </g>
            <g id="Group_18755" data-name="Group 18755" transform="translate(9.653 6.541)">
              <path id="Path_146872" data-name="Path 146872" d="M269.11,213.512v-.089a1.232,1.232,0,0,1,1.231-1.231h26.083a1.232,1.232,0,0,1,1.231,1.231v.089a1.232,1.232,0,0,1-1.231,1.231H270.341A1.232,1.232,0,0,1,269.11,213.512Z" transform="translate(-269.11 -212.192)" fill="#fff"/>
              <path id="Path_146873" data-name="Path 146873" d="M299.28,213.512v-.089a1.232,1.232,0,0,1,1.231-1.231h22.765a1.232,1.232,0,0,1,1.231,1.231v.089a1.232,1.232,0,0,1-1.231,1.231H300.511A1.232,1.232,0,0,1,299.28,213.512Z" transform="translate(-269.562 -212.192)" fill="#fff"/>
              <path id="Path_146874" data-name="Path 146874" d="M289.19,219.2v-.089a1.232,1.232,0,0,1,1.231-1.231h32.7a1.232,1.232,0,0,1,1.231,1.231v.089a1.232,1.232,0,0,1-1.231,1.231h-32.7A1.231,1.231,0,0,1,289.19,219.2Z" transform="translate(-269.411 -212.277)" fill="#fff"/>
              <path id="Path_146875" data-name="Path 146875" d="M269.11,219.2v-.089a1.232,1.232,0,0,1,1.231-1.231h14.608a1.232,1.232,0,0,1,1.231,1.231v.089a1.231,1.231,0,0,1-1.231,1.231H270.341A1.231,1.231,0,0,1,269.11,219.2Z" transform="translate(-269.11 -212.277)" fill="#fff"/>
              <path id="Path_146876" data-name="Path 146876" d="M293.8,224.893v-.09a1.231,1.231,0,0,1,1.231-1.231h28.162a1.232,1.232,0,0,1,1.231,1.231v.09a1.233,1.233,0,0,1-1.231,1.231H295.032A1.232,1.232,0,0,1,293.8,224.893Z" transform="translate(-269.48 -212.363)" fill="#fff"/>
              <path id="Path_146877" data-name="Path 146877" d="M269.11,224.893v-.09a1.232,1.232,0,0,1,1.231-1.231H289.8a1.231,1.231,0,0,1,1.231,1.231v.09a1.232,1.232,0,0,1-1.231,1.231H270.341A1.232,1.232,0,0,1,269.11,224.893Z" transform="translate(-269.11 -212.363)" fill="#fff"/>
              <path id="Path_146878" data-name="Path 146878" d="M269.11,230.582v-.089a1.232,1.232,0,0,1,1.231-1.231h7.22a1.232,1.232,0,0,1,1.231,1.231v.089a1.232,1.232,0,0,1-1.231,1.231h-7.22A1.232,1.232,0,0,1,269.11,230.582Z" transform="translate(-269.11 -212.448)" fill="#fff"/>
              <path id="Path_146879" data-name="Path 146879" d="M281.53,230.582v-.089a1.232,1.232,0,0,1,1.231-1.231H323.01a1.232,1.232,0,0,1,1.231,1.231v.089a1.232,1.232,0,0,1-1.231,1.231H282.761A1.232,1.232,0,0,1,281.53,230.582Z" transform="translate(-269.296 -212.448)" fill="#fff"/>
            </g>
          </g>
          <g id="Group_18761" data-name="Group 18761" transform="translate(0 67.326)">
            <g id="Group_18760" data-name="Group 18760">
              <path id="Path_146880" data-name="Path 146880" d="M88.3,161.918a32.624,32.624,0,1,1-18.925,42.077A32.623,32.623,0,0,1,88.3,161.918Z" transform="translate(-67.239 -159.786)" fill="#0097d8"/>
              <path id="call" d="M21.475,26.24a10.09,10.09,0,0,1-4.713-1.606,30.635,30.635,0,0,1-7.4-5.536A28.105,28.105,0,0,1,3.8,11.7C1.832,8.111,2.168,6.231,2.544,5.427A5.008,5.008,0,0,1,4.507,3.321,9.441,9.441,0,0,1,6.04,2.507l.148-.065a1.432,1.432,0,0,1,1.175-.107,3.44,3.44,0,0,1,1.117.857,18.551,18.551,0,0,1,2.793,4.146,4.127,4.127,0,0,1,.548,1.7,2.685,2.685,0,0,1-.682,1.6c-.07.1-.14.187-.207.276-.407.535-.5.69-.438.966a10.156,10.156,0,0,0,2.474,3.669,9.743,9.743,0,0,0,3.627,2.413c.288.062.446-.031,1-.454.079-.06.161-.123.246-.186a2.7,2.7,0,0,1,1.621-.725h0a3.883,3.883,0,0,1,1.706.6A20.441,20.441,0,0,1,25.3,19.963a3.454,3.454,0,0,1,.86,1.114,1.443,1.443,0,0,1-.107,1.178c-.02.044-.042.093-.065.147a9.45,9.45,0,0,1-.819,1.531,5,5,0,0,1-2.109,1.959A3.61,3.61,0,0,1,21.475,26.24Z" transform="translate(18.383 18.388)" fill="#fff"/>
            </g>
            <path id="Path_146886" data-name="Path 146886" d="M123.374,210.55c1.166-.541,19.884.313,19.884.313l-13.493-12.387Z" transform="translate(-68.08 -160.365)" fill="#0097d8"/>
          </g>
          <g id="Group_18765" data-name="Group 18765" transform="translate(76.409)">
            <g id="Group_18763" data-name="Group 18763">
              <g id="Group_18762" data-name="Group 18762">
                <path id="Path_146887" data-name="Path 146887" d="M176.683,91.436a32.065,32.065,0,1,1-31.872,32.257A32.065,32.065,0,0,1,176.683,91.436Z" transform="translate(-144.81 -91.435)" fill="#0097d8"/>
              </g>
            </g>
            <g id="email-solid" transform="translate(19.26 22.458)">
              <path id="Path_146853" data-name="Path 146853" d="M26.551,6a1.6,1.6,0,0,0-.328,0H3.814a1.6,1.6,0,0,0-.424.064L14.954,17.578Z" transform="translate(-2.222 -5.989)" fill="#fff"/>
              <path id="Path_146854" data-name="Path 146854" d="M27.444,7.39l-11.652,11.6a1.6,1.6,0,0,1-2.257,0L1.986,7.478a1.6,1.6,0,0,0-.056.4V23.884a1.6,1.6,0,0,0,1.6,1.6H25.939a1.6,1.6,0,0,0,1.6-1.6V7.878a1.6,1.6,0,0,0-.1-.488ZM4.627,23.884H3.515V22.74l5.818-5.77L10.461,18.1Zm21.3,0H24.8L18.969,18.1,20.1,16.97l5.818,5.77Z" transform="translate(-1.93 -6.269)" fill="#fff"/>
            </g>
          </g>
        </g>
        <g id="Group_18789" data-name="Group 18789" transform="translate(0 78.892)">
          <g id="Group_18788" data-name="Group 18788" transform="translate(48.879)">
            <g id="Group_18767" data-name="Group 18767" transform="translate(97.376 110.643)">
              <path id="Path_146889" data-name="Path 146889" d="M235.994,348.992s2.157,19.77,4.57,21.356c4.314,2.847,54.256,9.426,54.256,9.426l-1.636,12.993s-68.4,6.146-71.305,2.727c-5.043-5.929-13.908-34.534-13.908-34.534Z" transform="translate(-203.015 -284.829)" fill="#e06a58"/>
              <path id="Path_146890" data-name="Path 146890" d="M202.94,297.12l5.526-13.267s14.992,7.042,19.937,15.74c5.29,9.3,11.761,58.738,11.761,58.738s-26.467,6.1-31.333,3.506S202.94,297.12,202.94,297.12Z" transform="translate(-202.94 -283.853)" fill="#f2ae30"/>
            </g>
            <path id="Path_146891" data-name="Path 146891" d="M159.369,234.766c-3.871-1.418-7.969-2.66-12.116-2.344s-8.382,2.512-9.791,6.156c-1,2.581-.542,5.624-2.128,7.949-1.517,2.226-4.531,3.152-7.348,3.339s-5.674-.177-8.481.187c-8.668,1.152-14.854,10.57-12.007,18.283,1.133,3.072,3.457,6.008,2.925,9.209-.561,3.429-4.157,5.684-5.634,8.865-1.96,4.236.384,9.367,4.255,12.255s8.9,3.969,13.79,4.7c6.728,1,13.672,1.478,20.321.059s13-4.925,16.44-10.4c1.527-2.423,2.453-5.161,4.226-7.436,3.664-4.7,10.156-6.522,15.268-9.85,5.585-3.654,9.683-10.766,6.393-16.332-3.172-5.349-11.426-6.54-14.736-11.811-1.369-2.177-1.694-4.767-2.581-7.141C167.259,238.065,165.092,236.865,159.369,234.766Z" transform="translate(-104.083 -172.439)" fill="#0a2240"/>
            <g id="Group_18768" data-name="Group 18768" transform="translate(47.879 69.252)">
              <path id="Path_146892" data-name="Path 146892" d="M182.654,300.519c.975,1.124,2.128,2.355,3.723,2.463,1.684.118,3.093-1.074,4.176-2.226A42.387,42.387,0,0,0,201.34,280.07c-1.389-.787-2.729-1.546-3.94-2.256a5.978,5.978,0,0,1-2.453-2.7,5.184,5.184,0,0,1-.364-2.541,72.639,72.639,0,0,1,4.088-19.05c-12.352-2.787-24-6.1-30.7-11.691-.818,3.448-1.783,10.195-3.842,16.883-2.2,7.081-5.624,14.085-11.436,17.1A122.6,122.6,0,0,1,182.654,300.519Z" transform="translate(-152.69 -241.833)" fill="#f9a07b"/>
              <path id="Path_146893" data-name="Path 146893" d="M194.757,272.585a5.172,5.172,0,0,0,.364,2.541c-7.309,8.865-23.65-2.72-30.821-16.4,2.059-6.688,3.024-13.436,3.842-16.883,6.688,5.6,18.351,8.915,30.7,11.692A72.56,72.56,0,0,0,194.757,272.585Z" transform="translate(-152.864 -241.833)" fill="#e06a58"/>
            </g>
            <g id="Group_18769" data-name="Group 18769" transform="translate(18.231 99.522)">
              <path id="Path_146894" data-name="Path 146894" d="M214.482,380.215c-1.615,10.7,9.929,22.211,10.215,27.924-24.517,0-75.876,1.5-102.028-2.059-1.192-6.6,11.722-21.443,11.722-36.1,0-1.941-.079-4.069-.236-6.353-.414-6.541-1.379-14.322-2.453-22.3-2.916-21.4-6.8-44.3-3.93-49.044,5.615-9.249,18.745-15.533,25.256-18.233,2.236-.925,3.694-1.428,3.8-1.486,8.166,13.927,24.783,25.807,31.058,25.276,1.743-.139,6.915-1.941,10.333-19.15,1.33.759,2.66,1.459,3.979,2.137,6.491,3.38,12.579,6.167,14.332,10.51,4.63,11.436,9.171,40.267,8.166,50.521-1.015,10.343-5.171,18.244-8.087,28.626-.68,2.432-1.3,5.014-1.8,7.791C214.679,378.9,214.581,379.546,214.482,380.215Z" transform="translate(-122.591 -272.563)" fill="#ffc73c"/>
              <path id="Path_146895" data-name="Path 146895" d="M224.7,409.021c-24.517,0-75.876,1.5-102.028-2.059-1.192-6.6,11.722-21.443,11.722-36.1,0-1.941-.079-4.069-.236-6.353-.414-6.541-1.379-14.322-2.453-22.3,4.639,4.9,11.406-15.789,14.4-9.732,16.2,32.7,28.979,41.3,51.181,41.3a85.3,85.3,0,0,0,19.326-2.413c-.68,2.432-1.3,5.014-1.8,7.791-.118.629-.227,1.281-.325,1.949C212.867,391.783,224.411,403.3,224.7,409.021Z" transform="translate(-122.591 -273.444)" fill="#fb3"/>
              <path id="Path_146896" data-name="Path 146896" d="M202.662,280.826c-1.054,7.655-4.176,17.967-13.258,20.685-12.273,3.675-30.033-19.257-35.914-27.462,2.236-.925,3.694-1.428,3.8-1.486,8.166,13.927,24.783,25.807,31.058,25.276,1.743-.139,6.915-1.941,10.333-19.15C200.012,279.437,201.342,280.137,202.662,280.826Z" transform="translate(-123.054 -272.563)" fill="#fce172"/>
            </g>
            <g id="Group_18773" data-name="Group 18773" transform="translate(102.794 143.217)">
              <g id="Group_18772" data-name="Group 18772">
                <g id="Group_18770" data-name="Group 18770" transform="translate(0 80.131)">
                  <path id="Path_146897" data-name="Path 146897" d="M208.529,398.509l-.089,8.54,152.678.906.315-9.683Z" transform="translate(-208.44 -398.272)" fill="#325f73"/>
                </g>
                <g id="Group_18771" data-name="Group 18771" transform="translate(48.452)">
                  <path id="Path_146898" data-name="Path 146898" d="M428.028,321.1l-3.4-3.448-111.208-.728L257.63,397.6l2.916,2.345Z" transform="translate(-257.63 -316.923)" fill="#325f73"/>
                  <path id="Path_146899" data-name="Path 146899" d="M315.613,319.952,260.59,400l105.1.521,62.381-79.373Z" transform="translate(-257.674 -316.968)" fill="#0b2d50"/>
                </g>
              </g>
              <ellipse id="Ellipse_216" data-name="Ellipse 216" cx="12.234" cy="6.117" rx="12.234" ry="6.117" transform="translate(120.714 41.843)" fill="#3c738c"/>
            </g>
            <g id="Group_18782" data-name="Group 18782" transform="translate(44.562)">
              <g id="Group_18774" data-name="Group 18774" transform="translate(60.14 52.287)">
                <path id="Path_146900" data-name="Path 146900" d="M210.815,239.508c1.734-9.3,8.112-15.914,14.246-14.77s9.7,9.609,7.969,18.91-8.111,15.913-14.245,14.769S209.083,248.809,210.815,239.508Z" transform="translate(-210.378 -224.609)" fill="#56c4f9"/>
              </g>
              <path id="Path_146901" data-name="Path 146901" d="M233.012,213.788c-1.143,8.1-4.758,17.022-10.027,26.881-1.852-8.076-3.034-17.917-4.669-27.757-1.665-9.861-3.782-19.72-7.457-27.778a48.23,48.23,0,0,0-2.7-5.063,17.952,17.952,0,0,1,6.481.582,21.714,21.714,0,0,1,8.865,4.835,31.083,31.083,0,0,1,8.639,14.115A31.678,31.678,0,0,1,233.012,213.788Z" transform="translate(-150.205 -171.654)" fill="#0b2d50"/>
              <g id="Group_18775" data-name="Group 18775" transform="translate(7.05 4.337)">
                <path id="Path_146902" data-name="Path 146902" d="M226.052,222.1c-.059,1.6-.167,3.221-.315,4.836-2.246,26.2-13.248,44.179-30.082,44.179-23.768,0-39.174-26.655-39.174-52.768,0-25.758,15.78-44.4,34.249-42.247,10.648,1.221,18.43,4.759,23.956,9.939a32.651,32.651,0,0,1,8.1,12.352,54.009,54.009,0,0,1,3.26,17.789c0,.021.02.04.02.059C226.14,218.15,226.121,220.1,226.052,222.1Z" transform="translate(-156.48 -175.93)" fill="#f9a07b"/>
                <path id="Path_146903" data-name="Path 146903" d="M226.217,222.389a26.332,26.332,0,0,0-3.2-7.22,74.8,74.8,0,0,1-46.562,7.477c-3.014,2.511-5.959,4.984-8.924,7.456.059-11.919.227-19.986,4.876-25.758,4.364-5.418,11.643-7.456,18.538-8.343a85.748,85.748,0,0,1,23.394.149,23.672,23.672,0,0,1,8.619,2.55,54.01,54.01,0,0,1,3.26,17.79c0,.02.02.038.02.059C226.306,218.44,226.286,220.391,226.217,222.389Z" transform="translate(-156.646 -176.22)" fill="#e06a58"/>
              </g>
              <path id="Path_146904" data-name="Path 146904" d="M229.372,205.9a43.91,43.91,0,0,1-11.938,6.9c-13.061,5.271-30.033,7.013-43.262,6.374-6.5,14.283-9.131,19.4-10.8,31.864-6.353-5.959-11.525-16.873-13.061-25.453a58.212,58.212,0,0,1,1.015-25.925,38.771,38.771,0,0,1,19.779-23.788,37.178,37.178,0,0,1,4.255-1.97c8.383-3.241,17.829-2.946,26.428-.316a31.475,31.475,0,0,1,11.958,6.954c6.708,6.058,10.855,14.263,13.534,20.411C228.131,202.826,228.811,204.53,229.372,205.9Z" transform="translate(-149.323 -171.528)" fill="#0b2d50"/>
              <path id="Path_146905" data-name="Path 146905" d="M232.462,213.661a40.122,40.122,0,0,0-2.492-8.323,28.724,28.724,0,0,0-2.344-4.4,24.149,24.149,0,0,0-12.579-10.254,46.285,46.285,0,0,0-4.728-5.664,36.487,36.487,0,0,0-20.36-10.737,38.693,38.693,0,0,0-18.5,1.576,37.174,37.174,0,0,1,4.255-1.97c8.382-3.241,17.829-2.944,26.428-.315a31.49,31.49,0,0,1,11.958,6.955,21.713,21.713,0,0,1,8.865,4.835,31.083,31.083,0,0,1,8.639,14.115A31.822,31.822,0,0,1,232.462,213.661Z" transform="translate(-149.655 -171.527)" fill="#225570"/>
              <g id="Group_18778" data-name="Group 18778" transform="translate(32.424 55.616)">
                <g id="Group_18776" data-name="Group 18776">
                  <path id="Path_146906" data-name="Path 146906" d="M182.24,230.573c4.393-2.511,8.954-3.644,15.347-1.31" transform="translate(-182.24 -227.989)" fill="none" stroke="#0b2d50" stroke-linecap="round" stroke-miterlimit="10" stroke-width="2"/>
                  <path id="Path_146907" data-name="Path 146907" d="M212.78,230.4c3.763-2.807,9.338-3.094,12.244,0" transform="translate(-182.698 -227.992)" fill="none" stroke="#0b2d50" stroke-linecap="round" stroke-miterlimit="10" stroke-width="2"/>
                  <path id="Path_146908" data-name="Path 146908" d="M208.158,244.972c.384,1.99.177,6.393-.768,8.374" transform="translate(-182.617 -228.244)" fill="none" stroke="#cc454e" stroke-linecap="round" stroke-miterlimit="10" stroke-width="2"/>
                  <path id="Path_146909" data-name="Path 146909" d="M193.072,240.532c1,0,1.812,1.28,1.812,2.858s-.811,2.857-1.812,2.857-1.812-1.28-1.812-2.857S192.072,240.532,193.072,240.532Z" transform="translate(-182.375 -228.177)" fill="#262d40"/>
                  <path id="Path_146910" data-name="Path 146910" d="M217.122,239.183c1,0,1.812,1.279,1.812,2.857s-.812,2.856-1.812,2.856-1.812-1.279-1.812-2.856S216.122,239.183,217.122,239.183Z" transform="translate(-182.736 -228.157)" fill="#262d40"/>
                </g>
                <g id="Group_18777" data-name="Group 18777" transform="translate(8.574 25.111)">
                  <path id="Path_146911" data-name="Path 146911" d="M205.666,257.364a13.962,13.962,0,0,1-1.034,1.624,11.256,11.256,0,0,1-5.349,4.168h-.01a6.973,6.973,0,0,1-3.438.226c-3.7-.66-4.679-4.077-4.856-6.707a14.1,14.1,0,0,1-.03-1.419,13.425,13.425,0,0,1,.138-1.773C196.988,256.733,205.666,257.364,205.666,257.364Z" transform="translate(-190.944 -253.482)" fill="#cc454e"/>
                  <path id="Path_146912" data-name="Path 146912" d="M205.666,257.364a13.968,13.968,0,0,1-1.034,1.624c-3.014-.039-9.18-1.585-13.682-3.733a13.428,13.428,0,0,1,.138-1.773C196.988,256.733,205.666,257.364,205.666,257.364Z" transform="translate(-190.945 -253.482)" fill="#fff"/>
                  <path id="Path_146913" data-name="Path 146913" d="M199.274,263.193a6.973,6.973,0,0,1-3.438.227c-3.7-.659-4.679-4.077-4.856-6.707a10.082,10.082,0,0,1,8.294,6.48Z" transform="translate(-190.945 -253.53)" fill="#e8729b"/>
                </g>
              </g>
              <g id="Group_18781" data-name="Group 18781" transform="translate(0 4.09)">
                <path id="Path_146914" data-name="Path 146914" d="M163.591,225.269a68.089,68.089,0,0,1,4.905-24.487c6.412-15.318,19.484-21.868,32.161-22.312a34.541,34.541,0,0,1,24.842,9.713s-4.974-8.777-14.785-11.3c-6.442-1.655-16.164-1.921-23.965,1.251-8.038,3.26-18.055,12.313-21.68,21.877s-5.378,24.458-5.378,24.458Z" transform="translate(-149.478 -175.68)" fill="#3d86e0"/>
                <g id="Group_18779" data-name="Group 18779" transform="translate(0 45.631)">
                  <path id="Path_146915" data-name="Path 146915" d="M159.449,222.048c6.542-.681,12.681,6.8,13.71,16.717s-3.437,18.5-9.978,19.178-12.68-6.8-13.71-16.716S152.907,222.728,159.449,222.048Z" transform="translate(-149.323 -222.005)" fill="#56c4f9"/>
                  <path id="Path_146916" data-name="Path 146916" d="M156.141,227.941c4.224-.634,8.552,4.874,9.668,12.3s-1.4,13.967-5.625,14.6-8.551-4.874-9.668-12.3S151.919,228.576,156.141,227.941Z" transform="translate(-149.337 -222.094)" fill="#3d86e0"/>
                </g>
                <g id="Group_18780" data-name="Group 18780" transform="translate(19.412 78.637)">
                  <path id="Path_146917" data-name="Path 146917" d="M201.284,264.912c3.5,0,6.344,1.769,6.344,3.951s-2.84,3.95-6.344,3.95-6.344-1.769-6.344-3.95S197.781,264.912,201.284,264.912Z" transform="translate(-169.418 -255.654)" fill="#3a92c9"/>
                  <path id="Path_146918" data-name="Path 146918" d="M169.03,255.513s9.318,11.978,25.522,13.209" transform="translate(-169.03 -255.513)" fill="none" stroke="#3a92c9" stroke-linecap="round" stroke-miterlimit="10" stroke-width="2"/>
                </g>
              </g>
            </g>
            <g id="Group_18787" data-name="Group 18787" transform="translate(13.179 107.106)">
              <g id="Group_18786" data-name="Group 18786">
                <g id="Group_18785" data-name="Group 18785" transform="translate(5.061 53.82)">
                  <g id="Group_18783" data-name="Group 18783">
                    <path id="Path_146919" data-name="Path 146919" d="M207.154,374.756l-.611,15.751s-56.964,17.07-66.37,11.671c-4.59-2.64-8.875-17.159-12.076-31.332-3.349-14.894-5.5-29.393-5.5-29.393l33.392-6.542s.02,20.36,1.152,32.131c.4,4.383.985,7.576,1.763,8.1C161.853,377.082,207.154,374.756,207.154,374.756Z" transform="translate(-122.6 -334.902)" fill="#f9a07b"/>
                    <path id="Path_146920" data-name="Path 146920" d="M157.145,367.024c-6.068,1.97-17.78,5.014-29.048,3.812-3.349-14.893-5.5-29.394-5.5-29.394l33.392-6.54C155.992,334.893,156.012,355.253,157.145,367.024Z" transform="translate(-122.6 -334.902)" fill="#e06a58"/>
                  </g>
                  <g id="Group_18784" data-name="Group 18784" transform="translate(80.013 32.219)">
                    <path id="Path_146921" data-name="Path 146921" d="M206.746,375.4c8.471-1.811,22.813-6.165,28.762-7.663,4.226-1.064,15.228,4.63,18.134,10,1.271,2.343,2.472,15.621-1.931,14.252-2.206-.69-1.842-6.382-2.532-8.708-.561-1.89-2.354-3.723-5.083-5.3,1.822,4.54,1.753,8.5,1.556,13.405a6.948,6.948,0,0,1-.63,3.152,2.262,2.262,0,0,1-2.66,1.192c-1-.414-1.349-1.664-1.576-2.758a89.652,89.652,0,0,1-1.881-11.839c.079,4.205-.01,8.422-.276,12.617-.2,3.211-1.793,4.974-3.753,4.414-.877-.246-1.231-1.054-1.606-2.119-.591,2.059-2.069,4.335-3.979,3.467-1.162-.521-1.881-4.717-1.675-9.033a25.276,25.276,0,0,1-12.569,3.458c-4.275.2-8.648-.6-11.219-3.508A75.6,75.6,0,0,1,206.746,375.4Z" transform="translate(-203.83 -367.611)" fill="#f9a07b"/>
                    <path id="Path_146922" data-name="Path 146922" d="M233.8,395.668a30.111,30.111,0,0,0-.877-10.155" transform="translate(-204.266 -367.879)" fill="none" stroke="#cc454e" stroke-linecap="round" stroke-miterlimit="10" stroke-width="1"/>
                  </g>
                </g>
                <path id="Path_146923" data-name="Path 146923" d="M152.162,301.056c-2.423-6.826-11.3-20.793-11.3-20.793s-13.544,5.633-18.351,15.2c-8.136,16.195-4,62.686-4,62.686,10.963,4.59,32.969,4.66,42.336,3.34C160.85,361.487,157.018,314.7,152.162,301.056Z" transform="translate(-117.462 -280.263)" fill="#ffc73c"/>
              </g>
              <path id="Path_146924" data-name="Path 146924" d="M154.44,304.272a301.191,301.191,0,0,1,6.3,50.324" transform="translate(-118.016 -280.623)" fill="none" stroke="#f2ae30" stroke-linecap="round" stroke-miterlimit="10" stroke-width="1"/>
            </g>
          </g>
          <rect id="Rectangle_11338" data-name="Rectangle 11338" width="388.372" height="9.742" transform="translate(0 230.223)" fill="#0b2d50"/>
        </g>
      </g>
    </g>
  </g>
</svg>
