<svg id="Group_18736" data-name="Group 18736" xmlns="http://www.w3.org/2000/svg" width="39.857" height="38.972" viewBox="0 0 39.857 38.972">
  <g id="Path_146929" data-name="Path 146929" fill="none">
    <path d="M19.929,0A19.711,19.711,0,0,1,39.857,19.486,19.711,19.711,0,0,1,19.929,38.972,19.711,19.711,0,0,1,0,19.486,19.711,19.711,0,0,1,19.929,0Z" stroke="none"/>
    <path d="M 19.92864990234375 1 C 17.3701000213623 1 14.8887996673584 1.489658355712891 12.55368995666504 2.455379486083984 C 10.29916954040527 3.387771606445312 8.274559020996094 4.722431182861328 6.536079406738281 6.422260284423828 C 2.966091156005859 9.912929534912109 1 14.55231094360352 1 19.48579025268555 C 1 24.41926956176758 2.966091156005859 29.05865097045898 6.536079406738281 32.54932022094727 C 8.274559020996094 34.24914932250977 10.29916954040527 35.58380889892578 12.55368995666504 36.51620101928711 C 14.8887996673584 37.48191833496094 17.3701000213623 37.97158050537109 19.92864990234375 37.97158050537109 C 22.4871997833252 37.97158050537109 24.9685001373291 37.48191833496094 27.30360984802246 36.51620101928711 C 29.55813026428223 35.58380889892578 31.58274078369141 34.24914932250977 33.32122039794922 32.54932022094727 C 36.89120864868164 29.05865097045898 38.8572998046875 24.41926956176758 38.8572998046875 19.48579025268555 C 38.8572998046875 14.55231094360352 36.89120864868164 9.912929534912109 33.32122039794922 6.422260284423828 C 31.58274078369141 4.722431182861328 29.55813026428223 3.387771606445312 27.30360984802246 2.455379486083984 C 24.9685001373291 1.489658355712891 22.4871997833252 1 19.92864990234375 1 M 19.92864990234375 0 C 30.93494033813477 0 39.8572998046875 8.724090576171875 39.8572998046875 19.48579025268555 C 39.8572998046875 30.24748992919922 30.93494033813477 38.97158050537109 19.92864990234375 38.97158050537109 C 8.922359466552734 38.97158050537109 0 30.24748992919922 0 19.48579025268555 C 0 8.724090576171875 8.922359466552734 0 19.92864990234375 0 Z" stroke="none" fill="#1155c1"/>
  </g>
  <path id="call" d="M18.243,22.205a8.394,8.394,0,0,1-3.92-1.336,25.483,25.483,0,0,1-6.156-4.6A23.378,23.378,0,0,1,3.544,10.11C1.9,7.125,2.183,5.561,2.5,4.892A4.166,4.166,0,0,1,4.128,3.141,7.853,7.853,0,0,1,5.4,2.463l.123-.054A1.191,1.191,0,0,1,6.5,2.32a2.862,2.862,0,0,1,.929.713A15.432,15.432,0,0,1,9.757,6.482a3.433,3.433,0,0,1,.455,1.413,2.234,2.234,0,0,1-.568,1.328c-.058.08-.117.156-.172.23-.339.445-.413.574-.364.8a8.448,8.448,0,0,0,2.058,3.052,8.1,8.1,0,0,0,3.017,2.008c.239.051.371-.026.831-.378.066-.05.134-.1.2-.155a2.244,2.244,0,0,1,1.348-.6h0a3.23,3.23,0,0,1,1.419.5,17,17,0,0,1,3.436,2.307,2.873,2.873,0,0,1,.715.927,1.2,1.2,0,0,1-.089.98c-.016.037-.035.077-.054.122a7.861,7.861,0,0,1-.681,1.273,4.163,4.163,0,0,1-1.754,1.629A3,3,0,0,1,18.243,22.205Z" transform="translate(7.575 7.45)" fill="#1155c1"/>
</svg>
