<svg xmlns="http://www.w3.org/2000/svg" version="1.1" xmlns:xlink="http://www.w3.org/1999/xlink" xmlns:svgjs="http://svgjs.com/svgjs" width="512" height="512" x="0" y="0" viewBox="0 0 24 24" style="enable-background:new 0 0 512 512" xml:space="preserve" class=""><g><g xmlns="http://www.w3.org/2000/svg" id="timeline"></g><g xmlns="http://www.w3.org/2000/svg" id="navigation"></g><g xmlns="http://www.w3.org/2000/svg" id="align_center"></g><g xmlns="http://www.w3.org/2000/svg" id="align_left_1_"></g><g xmlns="http://www.w3.org/2000/svg" id="align_left"></g><g xmlns="http://www.w3.org/2000/svg" id="more"></g><g xmlns="http://www.w3.org/2000/svg" id="share"></g><g xmlns="http://www.w3.org/2000/svg" id="music"></g><g xmlns="http://www.w3.org/2000/svg" id="camera"></g><g xmlns="http://www.w3.org/2000/svg" id="print"></g><g xmlns="http://www.w3.org/2000/svg" id="wifi_1_"></g><g xmlns="http://www.w3.org/2000/svg" id="setting"></g><g xmlns="http://www.w3.org/2000/svg" id="composed"></g><g xmlns="http://www.w3.org/2000/svg" id="password"></g><g xmlns="http://www.w3.org/2000/svg" id="list"></g><g xmlns="http://www.w3.org/2000/svg" id="voice"></g><g xmlns="http://www.w3.org/2000/svg" id="open_folder"></g><g xmlns="http://www.w3.org/2000/svg" id="refresh"></g><g xmlns="http://www.w3.org/2000/svg" id="link"></g><g xmlns="http://www.w3.org/2000/svg" id="attach"></g><g xmlns="http://www.w3.org/2000/svg" id="email"></g><g xmlns="http://www.w3.org/2000/svg" id="bookmark"></g><g xmlns="http://www.w3.org/2000/svg" id="folder"></g><g xmlns="http://www.w3.org/2000/svg" id="file"></g><g xmlns="http://www.w3.org/2000/svg" id="notification"></g><g xmlns="http://www.w3.org/2000/svg" id="galery"></g><g xmlns="http://www.w3.org/2000/svg" id="delete_1_"></g><g xmlns="http://www.w3.org/2000/svg" id="update"><g><path d="m21.8164 13.7725-1.9316-2.728c-.3193-.4497-.9424-.5586-1.3945-.2383l-2.7275 1.9312c-.4502.3188-.5576.9429-.2383 1.3936.3193.4502.9424.5581 1.3945.2383l.9135-.6468c-.1962.6644-.4961 1.2963-.9145 1.8675-1.1641 1.5894-2.9561 2.5005-4.918 2.5005-1.7808 0-3.4595-.7749-4.605-2.126-.3564-.4199-.9873-.4717-1.4097-.1157-.4209.3574-.4731.9883-.1157 1.4097 1.5264 1.7998 3.7607 2.832 6.1304 2.832 2.5684 0 5.0098-1.2407 6.5313-3.3188.5528-.7546.9509-1.5886 1.212-2.4656l.4403.6219c.1953.2754.5039.4224.8174.4224.1992 0 .4014-.0596.5771-.1841.4502-.3191.5576-.9432.2383-1.3938z" fill="#1155c1" data-original="#1155c1" class=""></path><path d="m8.4756 9.8691c-.3198-.4511-.9439-.5581-1.3941-.2387l-.9137.6468c.196-.6646.4958-1.2963.9137-1.867 1.1641-1.5889 2.9566-2.5005 4.9185-2.5005 1.7813 0 3.46.7749 4.6055 2.126.3574.4204.9883.4731 1.4092.1157.4219-.3574.4736-.9883.1162-1.4097-1.5264-1.7998-3.7608-2.832-6.1309-2.832-2.5679 0-5.0098 1.2407-6.5317 3.3188-.5525.7544-.9504 1.5886-1.2114 2.4661l-.4405-.6223c-.3198-.4512-.9434-.5581-1.394-.2388s-.5576.9434-.2388 1.394l1.9312 2.728c.1953.2754.5039.4224.8174.4224.1997 0 .4014-.0596.5767-.1836l2.728-1.9312c.4506-.3193.5575-.9433.2387-1.394z" fill="#1155c1" data-original="#1155c1" class=""></path></g></g><g xmlns="http://www.w3.org/2000/svg" id="upload"></g><g xmlns="http://www.w3.org/2000/svg" id="download"></g><g xmlns="http://www.w3.org/2000/svg" id="menu"></g><g xmlns="http://www.w3.org/2000/svg" id="down"></g><g xmlns="http://www.w3.org/2000/svg" id="up"></g><g xmlns="http://www.w3.org/2000/svg" id="backward"></g><g xmlns="http://www.w3.org/2000/svg" id="forward"></g><g xmlns="http://www.w3.org/2000/svg" id="zoom_out"></g><g xmlns="http://www.w3.org/2000/svg" id="zoom_in"></g><g xmlns="http://www.w3.org/2000/svg" id="search"></g><g xmlns="http://www.w3.org/2000/svg" id="home"></g><g xmlns="http://www.w3.org/2000/svg" id="user"></g><g xmlns="http://www.w3.org/2000/svg" id="guide"></g></g></svg>