<svg xmlns="http://www.w3.org/2000/svg" width="1281.961" height="1863.669" viewBox="0 0 1281.961 1863.669">
  <g id="Group_18994" data-name="Group 18994" transform="translate(1169.943 -6049)" opacity="0.57">
    <g id="Group_18986" data-name="Group 18986" transform="translate(-1180.487 6049)" opacity="0.25">
      <g id="triangle36" transform="translate(16.808 36.917)">
        <path id="Path_145" data-name="Path 145" d="M545.711-294.333,703.246-381.4l-42.48-38.03L545.506-334.693l-.011-1.633L660.416-420.81a.661.661,0,0,1,.832.039l43.573,39.008a.661.661,0,0,1,.214.565.652.652,0,0,1-.335.5L545.719-292.829Z" transform="translate(-545.494 420.939)" fill="#fff"/>
      </g>
      <g id="triangle36-2" data-name="triangle36" transform="translate(17.024 75.924)">
        <path id="Path_146" data-name="Path 146" d="M546.1-200.334,701.734-404.3,545.5-317.959l-.008-1.5,158.351-87.514a.651.651,0,0,1,.818.146.656.656,0,0,1,.022.829L546.113-198.172Z" transform="translate(-545.494 407.062)" fill="#fff"/>
      </g>
      <g id="triangle36-3" data-name="triangle36" transform="translate(16.358 33.073)">
        <path id="Path_149" data-name="Path 149" d="M561.445-333.85l113.389-83.357L561-420.985,561-422.306l115.784,3.843a.66.66,0,0,1,.607.467.663.663,0,0,1-.239.725L561.457-332.217Z" transform="translate(-560.996 422.306)" fill="#fff"/>
      </g>
      <g id="triangle36-4" data-name="triangle36" transform="translate(549.728 989.952)">
        <path id="Path_160" data-name="Path 160" d="M522.019-111.634a.66.66,0,0,0,.326-.09.637.637,0,0,0,.315-.439l6.772-32.725a.655.655,0,0,0-.107-.52.668.668,0,0,0-.461-.27L361.34-165.091a.642.642,0,0,0-.722.514.66.66,0,0,0,.441.767l160.754,52.141A.629.629,0,0,0,522.019-111.634Zm5.976-32.815-6.477,31.3L367.775-163.016Z" transform="translate(-360.603 165.097)" fill="#fff"/>
      </g>
      <g id="triangle36-5" data-name="triangle36" transform="translate(173.682 720.808)">
        <path id="Path_171" data-name="Path 171" d="M620.636-164.475a.746.746,0,0,0,.683-.413.6.6,0,0,0-.171-.722l-107.894-91.7a.812.812,0,0,0-.8-.132.671.671,0,0,0-.452.6l-.456,90.887a.7.7,0,0,0,.737.663l108.346.815ZM513.476-255.3l105.292,89.493-105.734-.8Z" transform="translate(-511.543 257.498)" fill="#fff"/>
      </g>
      <g id="triangle36-6" data-name="triangle36" transform="translate(17.632 75.925)">
        <path id="Path_172" data-name="Path 172" d="M546.2-62.656,702.442,12.968l.453-417.413L545.505-198.173l-.011-2.162L703.033-406.8a.658.658,0,0,1,.736-.225.661.661,0,0,1,.447.624l-.455,420.421a.664.664,0,0,1-.661.66.638.638,0,0,1-.287-.065l-156.608-75.8Z" transform="translate(-545.494 407.062)" fill="#fff"/>
      </g>
      <g id="triangle36-7" data-name="triangle36" transform="translate(47.591 721.626)">
        <path id="Path_173" data-name="Path 173" d="M672.5-165.292a.643.643,0,0,0,.318-.087.666.666,0,0,0,.337-.571l.4-90.887a.664.664,0,0,0-.219-.492.7.7,0,0,0-.517-.166L546.242-243.119a.661.661,0,0,0-.571.514.66.66,0,0,0,.3.706L672.152-165.39A.658.658,0,0,0,672.5-165.292Zm-.264-90.809-.4,88.979-123.529-74.9Z" transform="translate(-545.656 257.497)" fill="#fff"/>
      </g>
      <g id="triangle36-8" data-name="triangle36" transform="translate(833.594 869.002) rotate(22)">
        <path id="Path_179" data-name="Path 179" d="M41.948,59.248a.574.574,0,0,0,.36-.132L112.686,1.184a.694.694,0,0,0,.167-.84.582.582,0,0,0-.736-.3L.4,44.471a.68.68,0,0,0,.036,1.251l41.341,13.5A.531.531,0,0,0,41.948,59.248ZM108.73,2.787l-66.9,55.076L2.524,45.03Z" transform="translate(0 0)" fill="#fff"/>
      </g>
      <g id="triangle36-9" data-name="triangle36" transform="translate(406.08 731.528)">
        <path id="Path_183" data-name="Path 183" d="M550.412-1.492a.681.681,0,0,0,.236-.048.65.65,0,0,0,.413-.528l32.545-251.895a.652.652,0,0,0-.326-.658.655.655,0,0,0-.734.053L403.853-102.451a.657.657,0,0,0-.256.512.656.656,0,0,0,.239.517L549.988-1.643A.667.667,0,0,0,550.412-1.492Zm31.682-251.046L549.909-3.42l-144.6-98.5Z" transform="translate(-403.597 254.708)" fill="#fff"/>
      </g>
      <g id="triangle36-10" data-name="triangle36" transform="translate(406.701 662.746)">
        <path id="Path_184" data-name="Path 184" d="M404.891-56.7a.648.648,0,0,0,.4-.141L583.36-209.8a.661.661,0,0,0,.25-.6.669.669,0,0,0-.388-.526L431.936-278.8a.652.652,0,0,0-.6.028.664.664,0,0,0-.329.5L404.23-57.434a.662.662,0,0,0,.334.649A.679.679,0,0,0,404.891-56.7Zm176.794-153.46L405.714-58.843l26.505-218.38Z" transform="translate(-404.226 278.856)" fill="#fff"/>
      </g>
      <g id="triangle36-11" data-name="triangle36" transform="translate(1111.705 669.06)">
        <path id="Path_184-2" data-name="Path 184" d="M409.285,73.48a.514.514,0,0,0,.4-.242L583.36-160.032a1.606,1.606,0,0,0,.25-1.03,1.279,1.279,0,0,0-.388-.9L431.936-278.754a.423.423,0,0,0-.6.048,1.357,1.357,0,0,0-.329.856L408.624,72.218a1.483,1.483,0,0,0,.334,1.117A.477.477,0,0,0,409.285,73.48Zm172.4-234.141L410.108,69.8l22.111-345.84Z" transform="translate(-408.62 278.856)" fill="#fff"/>
      </g>
      <g id="triangle36-12" data-name="triangle36" transform="translate(175.032 75.926)">
        <path id="Path_185" data-name="Path 185" d="M670.878-45.36a.647.647,0,0,0,.107-.009.666.666,0,0,0,.531-.5l72.206-299.827a.662.662,0,0,0-.084-.509.666.666,0,0,0-.427-.292L437.541-407.049a.657.657,0,0,0-.672.278.655.655,0,0,0-.009.728L670.321-45.661A.661.661,0,0,0,670.878-45.36Zm71.4-299.974L670.594-47.665,438.817-405.452Z" transform="translate(-436.754 407.061)" fill="#fff"/>
      </g>
      <g id="triangle36-13" data-name="triangle36" transform="translate(278.008 663.364)">
        <path id="Path_186" data-name="Path 186" d="M607.728-56.7a.955.955,0,0,0,.407-.094.716.716,0,0,0,.407-.543L636.5-278.063a.7.7,0,0,0-.481-.729.908.908,0,0,0-.948.171L477.028-129.259a.655.655,0,0,0-.2.625.746.746,0,0,0,.474.506L607.391-56.761A.9.9,0,0,0,607.728-56.7Zm26.863-219.335L607.029-58.466,479.012-129.03Z" transform="translate(-476.813 278.856)" fill="#fff"/>
      </g>
      <g id="triangle36-14" data-name="triangle36" transform="translate(174.576 663.205)">
        <path id="Path_187" data-name="Path 187" d="M570.692-127.178h.021a.753.753,0,0,0,.506-.209l157.4-149.946a.58.58,0,0,0,.082-.757.75.75,0,0,0-.787-.288l-264.93,57.514a.679.679,0,0,0-.515.456.586.586,0,0,0,.2.622l107.53,92.432A.781.781,0,0,0,570.692-127.178ZM725.949-276.613l-155.3,147.886-106.07-91.189Z" transform="translate(-462.442 278.398)" fill="#fff"/>
      </g>
      <g id="triangle36-15" data-name="triangle36" transform="translate(174.577 75.926)">
        <path id="Path_188" data-name="Path 188" d="M463.1,14.679a.631.631,0,0,0,.163-.02L697.181-45.38a.66.66,0,0,0,.45-.4.664.664,0,0,0-.059-.6L464.111-406.759a.654.654,0,0,0-.739-.275.659.659,0,0,0-.475.632l-.455,420.421a.659.659,0,0,0,.66.66ZM695.964-46.431l-232.2,59.6.453-417.343Z" transform="translate(-462.442 407.061)" fill="#fff"/>
      </g>
      <g id="triangle36-16" data-name="triangle36" transform="translate(1133.551 670.178) rotate(74)">
        <path id="Path_199" data-name="Path 199" d="M71.857,161.075a2.158,2.158,0,0,0,.317-.022c.689-.106,1.1-.517.919-.921L2.528.565A1.505,1.505,0,0,0,.959.026C.275.129-.135.539.04.941L70.616,160.513A1.35,1.35,0,0,0,71.857,161.075Z" transform="translate(0 0)" fill="#fff"/>
      </g>
      <g id="triangle36-17" data-name="triangle36" transform="translate(581.712 684.569)">
        <path id="Path_200" data-name="Path 200" d="M530.869-129.98a.669.669,0,0,0,.416-.146.67.67,0,0,0,.219-.68L495.226-270.54a.658.658,0,0,0-.318-.41.665.665,0,0,0-.512-.056L341.952-225.114a.66.66,0,0,0-.467.576.659.659,0,0,0,.363.647l188.726,93.845A.648.648,0,0,0,530.869-129.98ZM494.121-269.545l35.744,137.67L343.925-224.33Z" transform="translate(-341.482 271.034)" fill="#fff"/>
      </g>
      <g id="triangle36-18" data-name="triangle36" transform="translate(1076.035 1057.056) rotate(-135)">
        <path id="Path_200-2" data-name="Path 200" d="M249.785,141.054a1.018,1.018,0,0,0,.533-.146.59.59,0,0,0,.281-.68L204.164.494a.709.709,0,0,0-.407-.41A1.066,1.066,0,0,0,203.1.027L.6,51.642a.723.723,0,0,0-.6.576.647.647,0,0,0,.464.647l248.94,88.123A1.025,1.025,0,0,0,249.785,141.054ZM202.75,1.489,248.5,139.16,3.127,52.426l3.413-.8Z" transform="translate(0 0)" fill="#fff"/>
      </g>
      <g id="triangle36-19" data-name="triangle36" transform="translate(549.373 823.229)">
        <path id="Path_201" data-name="Path 201" d="M509.668-42.539a.665.665,0,0,0,.63-.469l53.746-177.463a.658.658,0,0,0-.247-.728.659.659,0,0,0-.77,0L341.759-63.149a.655.655,0,0,0-.256.7.65.65,0,0,0,.559.492L509.589-42.544ZM562.219-219,509.193-43.919,343.918-63.07Z" transform="translate(-341.482 221.323)" fill="#fff"/>
      </g>
      <g id="triangle36-20" data-name="triangle36" transform="matrix(0.996, 0.087, -0.087, 0.996, 900.691, 909.418)">
        <path id="Path_202" data-name="Path 202" d="M.663,254.557a.678.678,0,0,0,.38-.124L221.564,91.506a.657.657,0,0,0-.087-1.124L32.156.071a.648.648,0,0,0-.6.008.664.664,0,0,0-.343.5L.005,253.812a.659.659,0,0,0,.315.649A.671.671,0,0,0,.663,254.557ZM219.9,91.073,1.507,252.48,32.4,1.665Z" transform="translate(0 0)" fill="#fff"/>
      </g>
      <g id="triangle36-21" data-name="triangle36" transform="matrix(0.819, -0.574, 0.574, 0.819, 718.715, 694.517)">
        <path id="Path_203" data-name="Path 203" d="M165.966,143.2a.882.882,0,0,0,.622-.246.7.7,0,0,0-.007-1.017L16.911.242a.9.9,0,0,0-.844-.214.793.793,0,0,0-.6.573L.015,43.423a.72.72,0,0,0,.323.752l165.117,98.873A.907.907,0,0,0,165.966,143.2ZM16.789,2.331l142.185,134.5L1.779,43.26Z" transform="translate(0)" fill="#fff"/>
      </g>
      <g id="triangle36-22" data-name="triangle36" transform="translate(1111.705 1016.103)">
        <path id="Path_215" data-name="Path 215" d="M517.889-176.738a.677.677,0,0,0,.58-.37.931.931,0,0,0-.192-1.159L355.487-307.134a.642.642,0,0,0-.979.228.928.928,0,0,0,.2,1.156l162.79,128.87A.592.592,0,0,0,517.889-176.738Z" transform="translate(-354.389 307.276)" fill="#fff"/>
      </g>
      <g id="triangle36-23" data-name="triangle36" transform="translate(1132.937 522.51)">
        <path id="Path_216" data-name="Path 216" d="M355.052-158.19a.739.739,0,0,0,.188-.025L507.683-204.11a.651.651,0,0,0,.461-.534.66.66,0,0,0-.284-.647L355.53-307.164a.658.658,0,0,0-.68-.034.654.654,0,0,0-.346.579l-.115,147.768a.656.656,0,0,0,.267.531A.639.639,0,0,0,355.052-158.19Zm150.91-46.78L355.71-159.736l.112-145.645Z" transform="translate(-354.389 307.276)" fill="#fff"/>
      </g>
      <g id="triangle36-24" data-name="triangle36" transform="translate(433.152 582.44)">
        <path id="Path_217" data-name="Path 217" d="M560.534-158.189a.65.65,0,0,0,.354-.1.659.659,0,0,0,.3-.554l.115-147.767a.661.661,0,0,0-.318-.565.653.653,0,0,0-.649-.02L408.932-227.311a.66.66,0,0,0-.351.6.663.663,0,0,0,.391.582l151.29,67.88A.618.618,0,0,0,560.534-158.189Zm-.551-147.332-.112,145.656L410.745-226.777Z" transform="translate(-408.58 307.276)" fill="#fff"/>
      </g>
      <g id="triangle36-25" data-name="triangle36" transform="translate(765.277 719.124) rotate(-1)">
        <path id="Path_217-2" data-name="Path 217" d="M169.93,196.507a.649.649,0,0,0,.4-.137.917.917,0,0,0,.336-.73L170.792.872a.913.913,0,0,0-.355-.745A.636.636,0,0,0,169.71.1L.393,105.4a.906.906,0,0,0-.393.8.887.887,0,0,0,.437.767l169.188,89.47A.6.6,0,0,0,169.93,196.507ZM169.314,2.313,169.189,194.3,2.421,106.1Z" transform="translate(0 0)" fill="#fff"/>
      </g>
      <g id="triangle36-26" data-name="triangle36" transform="matrix(0.574, 0.819, -0.819, 0.574, 907.273, 468.543)">
        <path id="Path_216-2" data-name="Path 216" d="M1.355,150.581a2.981,2.981,0,0,0,.385-.026L313.153,104.2c.5-.074.873-.284.942-.539s-.149-.508-.58-.653L2.331.114A2.561,2.561,0,0,0,.942.08C.505.193.235.42.235.664L0,149.913c0,.213.2.412.545.537A2.307,2.307,0,0,0,1.355,150.581Zm308.284-47.249L2.7,149.019,2.928,1.914Z" transform="translate(0 0)" fill="#fff"/>
      </g>
      <g id="triangle36-27" data-name="triangle36" transform="matrix(0.574, 0.819, -0.819, 0.574, 821.288, 345.325)">
        <path id="Path_217-3" data-name="Path 217" d="M151.954,149.087a.65.65,0,0,0,.354-.1.659.659,0,0,0,.3-.554L152.724.662A.661.661,0,0,0,152.406.1a.653.653,0,0,0-.649-.02L.352,79.965a.66.66,0,0,0,.039,1.186l151.29,67.88A.618.618,0,0,0,151.954,149.087ZM151.4,1.755l-.112,145.656L2.165,80.5Z" transform="translate(0 0)" fill="#fff"/>
      </g>
      <g id="triangle36-28" data-name="triangle36" transform="translate(838.571 153.592) rotate(95)">
        <path id="Path_216-3" data-name="Path 216" d="M1.436,242.726c.062,0-.649.223-.585.206L243.4,61.846a.651.651,0,0,0,.461-.534.66.66,0,0,0-.284-.647L17.99.112a.658.658,0,0,0-1.026.545L0,242.3a.656.656,0,0,0,.267.531A5.272,5.272,0,0,0,1.436,242.726ZM241.68,60.986,1.321,241.411,18.282,1.895Z" fill="#fff"/>
      </g>
      <g id="triangle36-29" data-name="triangle36" transform="translate(850.176 24.135) rotate(95)">
        <path id="Path_217-4" data-name="Path 217" d="M130.583,243.444a.4.4,0,0,0,.3-.172,1.519,1.519,0,0,0,.259-.913L147.706,1.091a1.492,1.492,0,0,0-.273-.932.345.345,0,0,0-.558-.032L.3,129.446a1.454,1.454,0,0,0-.3,1,1.348,1.348,0,0,0,.336.96L130.348,243.351A.33.33,0,0,0,130.583,243.444ZM146.571,2.894,130.013,240.681,1.86,130.327Z" transform="translate(0 0)" fill="#fff"/>
      </g>
      <g id="triangle36-30" data-name="triangle36" transform="translate(402.962 136.762)">
        <path id="Path_218" data-name="Path 218" d="M407.527-84.158a.619.619,0,0,0,.294-.076L554.6-164.691a.674.674,0,0,0,.3-.805L480.735-385.28a.613.613,0,0,0-.628-.435.648.648,0,0,0-.582.505L406.91-84.969a.666.666,0,0,0,.226.674A.617.617,0,0,0,407.527-84.158Zm145.994-81.428L408.467-86.078l71.794-296.688Z" transform="translate(-406.892 385.72)" fill="#fff"/>
      </g>
      <g id="Group_18984" data-name="Group 18984" transform="translate(749.24 58.917)">
        <g id="triangle36-31" data-name="triangle36" transform="translate(383.271 3.843)">
          <path id="Path_145-2" data-name="Path 145" d="M704.822-294.333,547.287-381.4l42.48-38.03,115.261,84.737.011-1.633L590.118-420.81a.661.661,0,0,0-.832.039l-43.573,39.008a.661.661,0,0,0-.214.565.652.652,0,0,0,.335.5l158.981,87.866Z" transform="translate(-545.494 420.939)" fill="#fff"/>
        </g>
        <g id="triangle36-32" data-name="triangle36" transform="translate(383.271 42.85)">
          <path id="Path_146-2" data-name="Path 146" d="M704.215-200.334,548.582-404.3l156.232,86.345.008-1.5L546.471-406.977a.651.651,0,0,0-.818.146.656.656,0,0,0-.022.829L704.2-198.172Z" transform="translate(-545.494 407.062)" fill="#fff"/>
        </g>
        <g id="triangle36-33" data-name="triangle36" transform="translate(426.845)">
          <path id="Path_149-2" data-name="Path 149" d="M676.966-333.85,563.577-417.207l113.831-3.778.008-1.321-115.784,3.843a.66.66,0,0,0-.607.467.663.663,0,0,0,.239.725l115.691,85.055Z" transform="translate(-560.996 422.306)" fill="#fff"/>
        </g>
        <g id="triangle36-34" data-name="triangle36" transform="translate(383.269 42.852)">
          <path id="Path_172-2" data-name="Path 172" d="M703.513-62.656,547.268,12.968l-.453-417.413L704.2-198.173l.011-2.162L546.677-406.8a.658.658,0,0,0-.736-.225.661.661,0,0,0-.447.624l.455,420.421a.664.664,0,0,0,.661.66.638.638,0,0,0,.287-.065L703.5-61.188Z" transform="translate(-545.494 407.062)" fill="#fff"/>
        </g>
        <g id="triangle36-35" data-name="triangle36" transform="translate(79.605 42.94)">
          <path id="Path_185-2" data-name="Path 185" d="M509.617-45.36a.647.647,0,0,1-.107-.009.666.666,0,0,1-.531-.5L436.773-345.694a.662.662,0,0,1,.084-.509.666.666,0,0,1,.427-.292l303.79-68.466a.657.657,0,0,1,.672.278.655.655,0,0,1,.009.728L510.173-45.661A.661.661,0,0,1,509.617-45.36Zm-71.4-299.974L509.9-47.665l229.9-365.7Z" transform="translate(-436.755 414.973)" fill="#fff"/>
        </g>
        <g id="triangle36-36" data-name="triangle36" transform="translate(152.374 42.852)">
          <path id="Path_188-2" data-name="Path 188" d="M697.016,14.679a.631.631,0,0,1-.163-.02L465.5-38.139a.66.66,0,0,1-.45-.4.664.664,0,0,1,.059-.6l230.9-367.622a.654.654,0,0,1,.739-.275.659.659,0,0,1,.475.632l.455,420.421a.659.659,0,0,1-.66.66Zm-230.3-53.87L696.355,13.17,695.9-404.173Z" transform="translate(-465.004 407.061)" fill="#fff"/>
        </g>
        <g id="triangle36-37" data-name="triangle36" transform="translate(0 110.552)">
          <path id="Path_218-2" data-name="Path 218" d="M560.773-84.925a.67.67,0,0,1-.307-.076L409.074-163.3a.661.661,0,0,1-.312-.805l79.173-220.98a.64.64,0,0,1,.656-.435.668.668,0,0,1,.608.505L561.418-85.736a.65.65,0,0,1-.237.674A.663.663,0,0,1,560.773-84.925ZM410.2-164.191,557.436-88.063l2.354,1.218L488.43-382.566Z" transform="translate(-408.724 385.521)" fill="#fff"/>
        </g>
      </g>
      <path id="Path_147072" data-name="Path 147072" d="M-5167.652,6610.2l-.619,1.571-51.966,131.912-1.034-.7-156.394-106.167,2.626-.333Zm-53.529,130.424,50.43-128.016-201.41,25.523Z" transform="translate(5956.52 -6055.028)" fill="#fff"/>
      <path id="Path_147073" data-name="Path 147073" d="M-5409.385,6411.376l1.363.239,209.1,36.671-1.243,1.347-175.753,190.4-.3-2.073Zm206.509,38.248-204.129-35.8,32.461,221.772Z" transform="translate(5956.94 -6055.028)" fill="#ffd4d4"/>
      <path id="Path_147074" data-name="Path 147074" d="M-5521.966,6721.975l-1.848-1.168-264.725-167.268,1.068-1.69,262.876,166.1-34.391-228.7,1.989,1.58,183.709,145.937-1.244,1.566-181.72-144.357Z" transform="translate(5964.358 -6055.028)" fill="#fff"/>
      <path id="Path_147075" data-name="Path 147075" d="M-5788.739,6778.487l-1.236-.3-164.877-40.013,1.1-1.244,165.008-185.85Zm-162.409-41.472,160.409,38.929v-219.6Z" transform="translate(5968.358 -6055.028)" fill="#fff"/>
      <path id="Path_147076" data-name="Path 147076" d="M-5070.442,7220.016l-1.881-1.3-174.34-120.459,1.137-1.646,172.458,119.159-31.717-222.229,1.979-.282Z" transform="translate(5955.056 -6055.028)" fill="#fff"/>
      <path id="Path_147077" data-name="Path 147077" d="M-5483.215,6192.831V6055.478l1.723,1.8,124.731,130.626-2.215.086Zm2-132.363v130.284l119.946-4.669Z" transform="translate(5958.385 -6055.028)" fill="#fff"/>
      <path id="Path_147078" data-name="Path 147078" d="M-4815.219,6162.193l-2.194-.829-271.175-102.483.707-1.871,268.98,101.654-42.842-100.326,1.839-.785Z" transform="translate(5949.7 -6055.028)" fill="#fff"/>
      <path id="Path_147079" data-name="Path 147079" d="M-5612.666,6168.833l-.658-.672L-5721.2,6057.955l-67.833,75.858-1.491-1.333,69.258-77.452.748.764,107.968,110.3,127.452-110.354,1.31,1.512Z" transform="translate(5964.358 -6055.028)" fill="#fff"/>
      <path id="Path_147080" data-name="Path 147080" d="M-5240.834,7067.676v-12.46h2v7.858l103.234-96.352c-2.241-3.854-13.5-23.222-24.673-42.632-7.3-12.675-13.137-22.889-17.352-30.355-8.017-14.2-8.153-14.909-8.226-15.288l1.964-.38c0-.011,0-.025-.01-.042.133.437,1.386,2.992,8.284,15.2,4.235,7.5,10.059,17.685,17.309,30.272,12.345,21.435,24.71,42.691,24.834,42.9l.4.689-.583.544Z" transform="translate(5955.516 -6055.028)" fill="#fff"/>
      <path id="Path_147081" data-name="Path 147081" d="M-5952.36,7299.923l-1.314-1.492,390.136-354.95-390.675,88.86.223-1.452,36.424-237.849-35.354,3.522-.192-1.992,37.885-3.775-.2,1.276-36.4,237.673,395.228-89.9-2.815,2.562Z" transform="translate(5970.247 -6055.028)" fill="#fff"/>
      <path id="Path_147082" data-name="Path 147082" d="M-5271.228,7918.7l-.681-1.372-98.126-197.761c-19.381,14.948-39.585,30.49-59.785,45.967-58.71,44.98-105.942,80.65-140.385,106.018-20.457,15.067-36.574,26.622-47.9,34.344-6.1,4.16-10.94,7.292-14.378,9.309a45.365,45.365,0,0,1-4.354,2.313c-1.412.621-2.241.78-2.862.545a1.307,1.307,0,0,1-.836-.987c-.169-.856-1.537-4.26-7.093-15.616-4.087-8.355-9.988-20.084-17.538-34.864-8.763-17.152-19.831-38.576-33.042-63.961L-5821,7918.69l-.473-1.511-74.269-237.2-45.637,22.188-.937-1.761,45.966-22.368-44.408-152.849.672-.406,358.635-231.3-211.269-425.787,1.768-.9,211.2,425.656,324.421-196.031.536.706,125.319,165.215,50.041-47.3.371-.013,392.8-13.467-1.4,1.711L-4939.8,7512.394l254.485,335.5-3.489-1.523-386.009-168.461Zm-425.485-117.481c13.325,25.6,24.479,47.194,33.3,64.459,7.556,14.79,13.461,26.53,17.553,34.895,5.188,10.6,6.665,14.144,7.106,15.536.629-.168,2.229-.8,6.1-3.125,3.581-2.146,8.541-5.388,14.741-9.637,11.558-7.92,27.825-19.61,48.349-34.744,34.579-25.5,81.716-61.113,140.1-105.857,19.782-15.159,39.543-30.361,58.517-45l-75.811-152.788ZM-5893.97,7679.01l73.909,236.055,120.9-114.267q-8.539-16.4-18.239-34.949c-35.1-67.112-70.384-133.826-74.835-142.238Zm525.536,39.32,97.613,196.727,194.115-237.972-152.693-66.638C-5235.3,7615.053-5295.97,7662.431-5368.434,7718.331ZM-5073.5,7676.3l381.992,166.709-249.581-329.035Zm-717.926-55.4.468.883c.375.709,37.948,71.694,75.307,143.131q9.551,18.261,17.989,34.469l250-236.288-132.889-267.821L-5938.4,7526.091l43.822,150.978Zm346.189-57.365,75.905,152.978c75.667-58.372,138.4-107.394,139.188-108.008l.461-.36.536.234,153.755,67.1,133.066-163.129-187.385-247.041Zm-133.617-269.29,132.693,267.426,315.241-297.957-124.9-164.663Zm450.6-30.308,187.226,246.829,250.464-307.051-388.05,13.3Z" transform="translate(5952.86 -6055.028)" fill="#fff"/>
      <path id="Path_147083" data-name="Path 147083" d="M-4850.469,7917.7l-2.533-1.27-295.727-148.126-.149-.291-79.438-154.98-99.568,192.814-.083.093-98.472,111.333-.663-1.274-57.094-109.738-214.368-4.126-.149-.8-33.952-182.41-.172.032-54.616,10.3-.74.14-.33-.685-159.8-332.219h367.733l-366.713-255.9,1.123-1.646,371.939,259.549h-370.92l158.09,328.659L-5733.2,7617l.168-.032-38.634-207.567,276.654,54.6c.735-3.278,3.442-14.794,8.96-32.482,3.848-12.336,8.291-25.224,13.208-38.306,6.144-16.35,13.048-33.053,20.52-49.643l79.006-175.434.867.334,291.813,47.445,263.125,144.579.194.3,132.619,204.153-1.152.442-166.126,63.744L-4937.447,7730Zm-846.45-117.533,213.929,4.118.272.523,56.7,108.987,96.492-109.095,99.729-193.123-219.389-46.116-281.539,53.1Zm549.648-33.365,292.613,146.567-85.12-183.7.416-.491,86.213-101.75.236-.09,165.21-63.393-131.071-201.77-261.52-144.074-146.958,392.658Zm-621.913-354.881,38.1,204.673,281.924-53.172.192.04,219.966,46.237,146.839-392.246-290.121-46.792-78.237,173.725c-7.45,16.542-14.333,33.2-20.461,49.5-4.9,13.042-9.332,25.89-13.168,38.186-6.533,20.937-9.108,33.171-9.134,33.292l-.2.964-.956-.188Z" transform="translate(5964.359 -6055.028)" fill="#fff"/>
      <path id="Path_147084" data-name="Path 147084" d="M-4922.237,7732.539l-1.951-.286-15.469-218.163-281.526,98.408-.437-.52L-5435.7,7341.066l1.53-1.288,213.639,270.393,282.807-98.834.031,1.354,15.364,213.651,118.35-364h130.182v2h-128.729Z" transform="translate(5949.7 -6055.028)" fill="#fff"/>
      <path id="Path_147085" data-name="Path 147085" d="M-5406.833,7038.43l.328,1.042,41.889,133.117-1.518-.162-285.272-30.376-.278-1.918Zm39.393,131.847-40.645-129.162-239.214,99.362Z" transform="translate(5959.865 -6055.028)" fill="#fff"/>
      <path id="Path_147086" data-name="Path 147086" d="M-5443.1,7342l-.464-1.945,370.455-127.979.464,1.945Z" transform="translate(5956.585 -6055.028)" fill="#fff"/>
    </g>
    <g id="Group_18987" data-name="Group 18987" transform="translate(-1048.982 6103.985)">
      <circle id="Ellipse_221" data-name="Ellipse 221" cx="32" cy="32" r="32" transform="translate(4)" fill="#fff"/>
      <circle id="Ellipse_222" data-name="Ellipse 222" cx="32" cy="32" r="32" transform="translate(13.308 273)" fill="#fff"/>
      <circle id="Ellipse_223" data-name="Ellipse 223" cx="32" cy="32" r="32" transform="translate(375.53 241)" fill="#fff"/>
      <circle id="Ellipse_224" data-name="Ellipse 224" cx="32" cy="32" r="32" transform="translate(961.837 23)" fill="#fff"/>
      <circle id="Ellipse_225" data-name="Ellipse 225" cx="32" cy="32" r="32" transform="translate(0 419)" fill="#fff"/>
      <circle id="Ellipse_226" data-name="Ellipse 226" cx="32" cy="32" r="32" transform="translate(413.405 503)" fill="#fff"/>
      <circle id="Ellipse_227" data-name="Ellipse 227" cx="32" cy="32" r="32" transform="translate(942.837 581)" fill="#fff"/>
      <circle id="Ellipse_228" data-name="Ellipse 228" cx="32" cy="32" r="32" transform="translate(713.709 387)" fill="#fff"/>
      <circle id="Ellipse_229" data-name="Ellipse 229" cx="32" cy="32" r="32" transform="translate(1073 1071)" fill="#fff"/>
      <circle id="Ellipse_230" data-name="Ellipse 230" cx="32" cy="32" r="32" transform="translate(725.308 1076)" fill="#fff"/>
      <circle id="Ellipse_237" data-name="Ellipse 237" cx="32" cy="32" r="32" transform="translate(928.837 941)" fill="#fff"/>
      <circle id="Ellipse_236" data-name="Ellipse 236" cx="32" cy="32" r="32" transform="translate(4 1018)" fill="#fff"/>
      <circle id="Ellipse_231" data-name="Ellipse 231" cx="32" cy="32" r="32" transform="translate(233.028 821)" fill="#fff"/>
      <circle id="Ellipse_232" data-name="Ellipse 232" cx="32" cy="32" r="32" transform="translate(994.837 1229)" fill="#fff"/>
      <circle id="Ellipse_233" data-name="Ellipse 233" cx="32" cy="32" r="32" transform="translate(-61 1327)" fill="#fff"/>
      <circle id="Ellipse_234" data-name="Ellipse 234" cx="32" cy="32" r="32" transform="translate(422.308 1028)" fill="#fff"/>
      <circle id="Ellipse_238" data-name="Ellipse 238" cx="32" cy="32" r="32" transform="translate(95 1669)" fill="#fff"/>
      <circle id="Ellipse_235" data-name="Ellipse 235" cx="32" cy="32" r="32" transform="translate(962.837 1497)" fill="#fff"/>
    </g>
    <g id="Group_18992" data-name="Group 18992" transform="translate(-1033.305 6118.809)">
      <path id="android" d="M11.051,7.958a.874.874,0,0,0,0-1.748.809.809,0,0,0-.605.258.894.894,0,0,0,0,1.233.81.81,0,0,0,.605.258Zm9.46,0a.8.8,0,0,0,.605-.258.894.894,0,0,0,0-1.233.8.8,0,0,0-.605-.258.874.874,0,0,0,0,1.749Zm-18.2,4.125a2.2,2.2,0,0,1,1.614.672A2.2,2.2,0,0,1,4.6,14.369v9.639a2.246,2.246,0,0,1-.661,1.636,2.191,2.191,0,0,1-1.626.672,2.225,2.225,0,0,1-1.636-.672A2.232,2.232,0,0,1,0,24.008V14.369a2.2,2.2,0,0,1,.672-1.614A2.227,2.227,0,0,1,2.308,12.082Zm23.761.426V27.437a2.382,2.382,0,0,1-.717,1.749,2.348,2.348,0,0,1-1.726.717H21.945v5.088a2.308,2.308,0,1,1-4.617,0V29.9H14.234v5.088A2.3,2.3,0,0,1,11.925,37.3a2.2,2.2,0,0,1-1.614-.672,2.227,2.227,0,0,1-.672-1.636L9.616,29.9H7.957a2.448,2.448,0,0,1-2.466-2.466V12.508H26.069Zm-5.2-9.078A9.861,9.861,0,0,1,24.7,6.871a8.687,8.687,0,0,1,1.435,4.83H5.4a8.687,8.687,0,0,1,1.435-4.83A9.823,9.823,0,0,1,10.693,3.43L9.1.494A.3.3,0,0,1,9.213.045.311.311,0,0,1,9.662.18l1.614,2.959a11.25,11.25,0,0,1,9.012,0L21.9.18a.311.311,0,0,1,.449-.135.3.3,0,0,1,.112.449ZM31.562,14.369v9.639a2.3,2.3,0,0,1-2.308,2.308,2.2,2.2,0,0,1-1.614-.672,2.227,2.227,0,0,1-.672-1.636V14.369a2.193,2.193,0,0,1,.672-1.626,2.215,2.215,0,0,1,1.614-.661,2.246,2.246,0,0,1,1.636.661A2.191,2.191,0,0,1,31.562,14.369Z" transform="translate(3.572 0)" fill="#9638fb"/>
      <path id="iphone" d="M29.152,4.5H13.782A2.54,2.54,0,0,0,11.25,7.043V42.835a2.538,2.538,0,0,0,2.532,2.532H29.14a2.538,2.538,0,0,0,2.532-2.532V7.043A2.522,2.522,0,0,0,29.152,4.5ZM19.764,8.32a.415.415,0,0,1,.415-.415h2.587a.415.415,0,0,1,.415.415v.032a.415.415,0,0,1-.415.415H20.179a.415.415,0,0,1-.415-.415Zm-1.278-.415a.425.425,0,1,1-.425.425A.427.427,0,0,1,18.487,7.906Zm2.98,35.771a1.713,1.713,0,1,1,1.713-1.713A1.712,1.712,0,0,1,21.467,43.676Zm8.514-5.119H12.953V11.311H29.981Z" transform="translate(370.308 236.042)" fill="#9638fb"/>
      <g id="Group_18989" data-name="Group 18989" transform="translate(0 420.779)">
        <path id="Path_63" data-name="Path 63" d="M111,95.6a16.422,16.422,0,0,1,13.023-16.35,16.035,16.035,0,0,1,12.467,2.474.477.477,0,0,0,.616.015,2.718,2.718,0,0,1,3.758,3.683.561.561,0,0,0,.026.717,16.332,16.332,0,1,1-29.378,13.17A15.681,15.681,0,0,1,111,95.6Zm16.33-15.452a14.505,14.505,0,0,0-6.021,1.25,15.091,15.091,0,0,0,5.307,28.909,14.856,14.856,0,0,0,10.655-3.717A15.125,15.125,0,0,0,139.848,86.8a.342.342,0,0,0-.473-.152A2.63,2.63,0,0,1,136.585,86a2.6,2.6,0,0,1-.676-2.779.385.385,0,0,0-.182-.534A14.985,14.985,0,0,0,127.334,80.144Z" transform="translate(-111.004 -78.897)" fill="#9638fb" fill-rule="evenodd"/>
        <path id="Path_64" data-name="Path 64" d="M230.493,206.05a7.542,7.542,0,1,1,7.55-7.526A7.537,7.537,0,0,1,230.493,206.05Z" transform="translate(-214.165 -182.165)" fill="#9638fb" fill-rule="evenodd"/>
      </g>
      <path id="java" d="M27.036,22.014a2.472,2.472,0,0,1-1.42-.517,4.267,4.267,0,0,1-1.22-1.349,3.9,3.9,0,0,0,.4.029,3.4,3.4,0,0,0,1.952-.545,1.555,1.555,0,0,0,.8-1.292,1.5,1.5,0,0,0-.718-1.234,3.459,3.459,0,0,0-1.78-.6,11.02,11.02,0,0,1-4,1.32,35.535,35.535,0,0,1-6.357.517A32.13,32.13,0,0,1,6.9,17.522Q3.674,16.7,3.674,15.585q0-.861,1.894-1.549.4,1.034,3.272,1.751a28.173,28.173,0,0,0,6.773.718,29.841,29.841,0,0,0,5.826-.517,9.666,9.666,0,0,0,3.674-1.32,1.727,1.727,0,0,1,.488.517,2.537,2.537,0,0,1,1.435-.517A1.975,1.975,0,0,1,28.7,15.743a4.716,4.716,0,0,1,.689,2.6,4.716,4.716,0,0,1-.689,2.6,1.975,1.975,0,0,1-1.665,1.076ZM16.532,9.127a4.684,4.684,0,0,0,.287,1.693A4.463,4.463,0,0,0,17.45,12a4.613,4.613,0,0,1,.631,1.134,4.024,4.024,0,0,1,.287,1.536l-.388-.229a8.9,8.9,0,0,1-.89-.674,7.711,7.711,0,0,1-1.119-1.119,6.5,6.5,0,0,1-.875-1.536,5.025,5.025,0,0,1-.4-1.981,3.132,3.132,0,0,1,.9-1.994,8.584,8.584,0,0,1,2.138-1.78,18.075,18.075,0,0,1,2.439-1.22,4.894,4.894,0,0,1,1.865-.46,4.266,4.266,0,0,0-1.822.89,13.511,13.511,0,0,0-2.5,2.239,3.837,3.837,0,0,0-1.191,2.325Zm-5.511.947a5.814,5.814,0,0,0,.46,2.153,9.239,9.239,0,0,0,.918,1.808l.46.66a3.233,3.233,0,0,1-2.526-1.464,5.017,5.017,0,0,1-1.148-3.157,2.5,2.5,0,0,1,.574-1.507A7.214,7.214,0,0,1,11.137,7.19q.8-.617,1.607-1.163a11.821,11.821,0,0,0,1.378-1.076,1.425,1.425,0,0,0,.574-.933,10.125,10.125,0,0,0-.086-1.407,4.609,4.609,0,0,0-.473-1.378A3.058,3.058,0,0,0,13.03,0a3.749,3.749,0,0,1,2.64,1.277,4.254,4.254,0,0,1,.861,2.741,2.548,2.548,0,0,1-.574,1.636A4.783,4.783,0,0,1,14.58,6.83q-.8.459-1.607.89a5.635,5.635,0,0,0-1.378,1.019,1.857,1.857,0,0,0-.574,1.335ZM14.695,23.85a16.756,16.756,0,0,0,6.343-.918q1,.43,1,.918,0,.746-2.153,1.292a21.421,21.421,0,0,1-5.195.545A21.421,21.421,0,0,1,9.5,25.142Q7.347,24.6,7.347,23.85q0-.488,1-.918A16.756,16.756,0,0,0,14.695,23.85ZM5.511,20.177q0-.488,1.234-.918a25.942,25.942,0,0,0,7.95.918,25.942,25.942,0,0,0,7.95-.918q1.234.43,1.234.918,0,.746-2.7,1.292a33.331,33.331,0,0,1-6.5.545,33.1,33.1,0,0,1-6.486-.545q-2.683-.545-2.683-1.292ZM3.674,23.85q0,1,1.478,1.852A13.194,13.194,0,0,0,9.17,27.037a29.342,29.342,0,0,0,5.524.487,29.308,29.308,0,0,0,5.525-.488A13.213,13.213,0,0,0,24.238,25.7q1.478-.847,1.478-1.851a1.305,1.305,0,0,0-.172-.631q3.846,1.034,3.846,2.468,0,1-1.966,1.852a21.721,21.721,0,0,1-5.353,1.334,52.168,52.168,0,0,1-7.376.488,51.528,51.528,0,0,1-7.376-.488,21.89,21.89,0,0,1-5.353-1.335Q0,26.693,0,25.687q0-1.435,3.846-2.468A1.308,1.308,0,0,0,3.674,23.85Z" transform="translate(13.319 265.505)" fill="#9638fb"/>
      <path id="logo-laravel-outline" d="M32.258,15.491c-.21-.225-1.711-2.06-2.521-3.049-.431-.525-.77-.941-.914-1.113l-.012-.014L28.8,11.3a2.026,2.026,0,0,0-1.517-.8,2.538,2.538,0,0,0-.345.028l-.073.01c-.156.017-.642.1-1.8.286-.893.146-2.24.368-2.445.387l-.045,0-.044.008a1.521,1.521,0,0,0-1.248.841,1.27,1.27,0,0,0,.188,1.267c.1.142.436.61,1.017,1.415.387.536.821,1.137,1.2,1.659l-7.1,1.66L9.613,6.65,9.6,6.628l-.015-.021-.028-.042a1.766,1.766,0,0,0-1.664-.94c-.072,0-.147,0-.231.007-.293.016-1.367.1-2.609.2-1.371.108-3.248.255-3.492.261H1.515L1.464,6.1a1.555,1.555,0,0,0-1.257.7A1.859,1.859,0,0,0,.223,8.5c.215.509,2.173,4.637,3.9,8.28C5.272,19.2,6.457,21.7,6.555,21.925a2.223,2.223,0,0,0,2.1,1.378,2.975,2.975,0,0,0,.629-.07H9.3l.013,0C10.2,23.013,13,22.3,15,21.788c.122.211.249.436.383.666,1.4,2.456,2.418,4.233,2.754,4.687a2.011,2.011,0,0,0,1.643.944,3.651,3.651,0,0,0,1-.184l.1-.027h.007c.672-.191,9.614-3.328,10.073-3.532l.014-.006a1.58,1.58,0,0,0,1.033-.983,1.335,1.335,0,0,0-.279-1.178l0-.005,0-.005c-.054-.07-.255-.332-.527-.7-.583-.77-1.524-2.015-2.35-3.1,1.108-.287,2.476-.645,2.768-.737a1.36,1.36,0,0,0,1.021-.94,1.232,1.232,0,0,0-.377-1.2ZM11.84,19.2c-1.136.266-1.928.452-2.417.568C9,18.92,8.163,17.241,7.349,15.6c-1.9-3.823-2.878-5.791-3.393-6.82l.52-.044L7.143,8.51c1.069,1.8,4.742,7.995,6.144,10.356ZM27.282,11.5ZM19.783,27.089Zm3.425-3.633c-1.544.511-2.382.789-2.834.94-.4-.66-1.286-2.139-2.072-3.457l7.382-1.881c.319.435.929,1.259,2.135,2.867-1.153.386-3.075,1.022-4.611,1.532Zm3.564-7.761-1.516-2.012,1.669-.293.766.949.762.946-1.68.41Z" transform="translate(962.762 21.854)" fill="#9638fb"/>
      <path id="angularjs" d="M17.08,0,1.008,5.656,3.547,26.713,17.1,34.16l13.619-7.548L33.255,5.556Zm-.039,1.791L31.653,6.772,29.286,25.606,17.042,32.381,4.989,25.7,2.812,6.863Zm0,1.11L7.107,25.008l3.706-.068,1.993-4.984h8.906l2.181,5.053,3.547.065Zm.028,7.088,3.351,7.017h-6.31Z" transform="translate(412.776 505.276)" fill="#9638fb"/>
      <path id="php" d="M12.37,16.507H10.7L9.8,21.18h1.479a3.582,3.582,0,0,0,2.192-.554,2.947,2.947,0,0,0,.971-1.851,2.021,2.021,0,0,0-.219-1.755,2.492,2.492,0,0,0-1.848-.512Zm8.806-7.975C9.481,8.532,0,13.519,0,19.671S9.481,30.811,21.176,30.811s21.176-4.989,21.176-11.141S32.871,8.532,21.176,8.532ZM15.423,21.68a4.289,4.289,0,0,1-1.619.973,7.536,7.536,0,0,1-2.267.289H9.454l-.578,2.967H6.445L8.615,14.746h4.676a3.882,3.882,0,0,1,3.078,1.108,3.47,3.47,0,0,1,.582,3.092,4.863,4.863,0,0,1-1.529,2.734Zm7.1,1.262L23.483,18a1.336,1.336,0,0,0-.12-1.149,1.694,1.694,0,0,0-1.212-.307H20.223l-1.242,6.4H16.567l2.171-11.166h2.412l-.578,2.968H22.72a4.182,4.182,0,0,1,2.8.708,2.344,2.344,0,0,1,.465,2.292l-1.009,5.2H22.524Zm13.407-4a4.909,4.909,0,0,1-.539,1.494,4.991,4.991,0,0,1-.991,1.24,4.306,4.306,0,0,1-1.619.973,7.542,7.542,0,0,1-2.269.289H28.431l-.578,2.968H25.422l2.171-11.163h4.675a3.882,3.882,0,0,1,3.078,1.108,3.465,3.465,0,0,1,.585,3.091Zm-4.58-2.439H29.687l-.911,4.673h1.479a3.575,3.575,0,0,0,2.192-.554,2.96,2.96,0,0,0,.973-1.851A2.016,2.016,0,0,0,33.2,17.02a2.5,2.5,0,0,0-1.848-.512Z" transform="translate(708.406 384.47)" fill="#9638fb"/>
      <path id="Path_147072-2" data-name="Path 147072" d="M2.074.711A1.538,1.538,0,0,1,.983.317,1.275,1.275,0,0,1,.56-.655a1.314,1.314,0,0,1,.423-.994,1.522,1.522,0,0,1,1.091-.4,1.5,1.5,0,0,1,1.076.4,1.314,1.314,0,0,1,.423.994A1.275,1.275,0,0,1,3.15.317,1.518,1.518,0,0,1,2.074.711ZM14.394.592H11.856L7.611-5.835V.592H5.072V-9.828H7.611l4.245,6.457V-9.828h2.538Zm4.379-8.386v2.108h3.4v1.959h-3.4v2.286h3.844V.592H16.234V-9.828h6.383v2.034ZM31.76-9.828v2.034H29V.592H26.461V-7.794H23.7V-9.828Z" transform="translate(232.763 843.643)" fill="#9638fb"/>
      <path id="magento" d="M15.971,31.314l-5.813-3.356V12.3l3.875-2.238V25.722L15.971,26.9l1.938-1.177V10.063L21.786,12.3V27.958ZM29.529,7.829V23.486l-3.874,2.236V10.063L15.971,4.475,6.282,10.063V25.722L2.413,23.486V7.829L15.971,0Z" transform="translate(944.004 584.85)" fill="#9638fb"/>
      <path id="wordpress" d="M13.938,0A14.281,14.281,0,0,0,1.03,8.32l6.606.015v.723C5.6,8.814,5.781,9.87,6.069,10.991l4.337,10.868,3.188-7.471-1.463-3.5c-.531-.938-.543-1.978-2.717-1.88l.031-.666,9.689.024V9.11c-1.135.066-2.5-.285-1.776,2.038l3.919,10.293,2.142-6.009c.7-2.519.042-4.94-.792-7.314-.464-1.593-.248-2.922,1.83-3.45A14.65,14.65,0,0,0,13.938,0ZM27.115,9.5,20.833,25.876c1.735-1.5,3.513-2.049,5.69-6.206,1.448-3.458,1.3-6.661.592-10.167ZM.366,9.768c-.613,4.834-.557,6.25.961,10.2,1.978,3.781,3.512,4.577,5.69,6.06L.366,9.768ZM14.183,15.9,9.528,27.133a13.565,13.565,0,0,0,8.867-.221L14.183,15.9Z" transform="translate(1077.903 1076.153)" fill="#9638fb"/>
      <path id="joomla" d="M27.223,5.626a2.713,2.713,0,0,1-1.992-.82,2.713,2.713,0,0,1-.82-1.992A2.713,2.713,0,0,1,25.23.821a2.83,2.83,0,0,1,3.985,0,2.713,2.713,0,0,1,.82,1.992,2.713,2.713,0,0,1-.82,1.992A2.713,2.713,0,0,1,27.223,5.626Zm-2.491,7.825-2.2-2.2a2.217,2.217,0,0,0,.5-1.773,2.7,2.7,0,0,0-.7-1.773A2.7,2.7,0,0,0,20.556,7a2.217,2.217,0,0,0-1.773.5l-5.656,5.626-2.2-2.2,5.48-5.48a5.767,5.767,0,0,1,8.177,0,5.567,5.567,0,0,1,1.685,3.971,5.549,5.549,0,0,1-1.539,4.029Zm-17-5.744a2.7,2.7,0,0,0-.7,1.773,2.217,2.217,0,0,0,.5,1.773l5.626,5.626-2.227,2.2L5.478,13.626a5.574,5.574,0,0,1-1.7-4.088,5.574,5.574,0,0,1,1.7-4.088A5.567,5.567,0,0,1,9.449,3.764,5.549,5.549,0,0,1,13.478,5.3l-2.2,2.2A2.217,2.217,0,0,0,9.507,7a2.7,2.7,0,0,0-1.773.7ZM2.842,5.626a2.713,2.713,0,0,1-1.992-.82,2.713,2.713,0,0,1-.82-1.992A2.713,2.713,0,0,1,.849.821,2.713,2.713,0,0,1,2.842,0a2.713,2.713,0,0,1,1.992.82,2.713,2.713,0,0,1,.82,1.992,2.713,2.713,0,0,1-.82,1.992A2.713,2.713,0,0,1,2.842,5.626Zm0,18.755a2.713,2.713,0,0,1,1.992.82,2.83,2.83,0,0,1,0,3.985,2.713,2.713,0,0,1-1.992.82,2.713,2.713,0,0,1-1.992-.82,2.83,2.83,0,0,1,0-3.985,2.713,2.713,0,0,1,1.992-.82ZM5.3,16.587l2.2,2.2A2.217,2.217,0,0,0,7,20.557a2.7,2.7,0,0,0,.7,1.773,2.7,2.7,0,0,0,1.773.7,2.217,2.217,0,0,0,1.773-.5l5.626-5.626,2.2,2.227-5.451,5.451a5.574,5.574,0,0,1-4.088,1.7,5.574,5.574,0,0,1-4.088-1.7,5.77,5.77,0,0,1-.147-8ZM22.358,22.33a2.7,2.7,0,0,0,.7-1.773,2.217,2.217,0,0,0-.5-1.773l-5.626-5.656,2.2-2.2,5.48,5.48a5.767,5.767,0,0,1,0,8.177,5.77,5.77,0,0,1-8,.147l2.2-2.2a2.217,2.217,0,0,0,1.773.5,2.7,2.7,0,0,0,1.773-.7Zm4.864,2.052a2.8,2.8,0,1,1-1.992.82,2.713,2.713,0,0,1,1.992-.82Z" transform="translate(927.943 943.601)" fill="#9638fb"/>
      <path id="swift" d="M26.825,20.317c.068-.137.068-.273.137-.41C28.6,13.474,24.7,5.948,18,1.978a15.729,15.729,0,0,1,3.08,12.934,6.725,6.725,0,0,1-.342,1.094,6.313,6.313,0,0,1-.549-.342A83.681,83.681,0,0,1,6.434,4.374a82.481,82.481,0,0,0,8.347,10.469A90.93,90.93,0,0,1,2.874,5.81,15.817,15.817,0,0,0,4.517,8.069,70.293,70.293,0,0,0,16.7,20.8c-3.49,2.123-8.349,2.258-13.276,0A19.631,19.631,0,0,1,0,18.743a20.209,20.209,0,0,0,9.1,7.732c4.585,1.986,9.237,1.848,12.59,0h.07a1.429,1.429,0,0,0,.41-.273c1.642-.822,4.859-1.711,6.638,1.711.478.957,1.367-3.49-1.984-7.6Z" transform="translate(4.46 1019.27)" fill="#9638fb"/>
      <path id="Path_147073-2" data-name="Path 147073" d="M306.331-92.241v-.815a8.341,8.341,0,0,1,.44-1.09c2.377-4.161,4.772-8.313,7.151-12.472a2.843,2.843,0,0,1,2.665-1.541q7.128.016,14.257,0a2.843,2.843,0,0,1,2.666,1.538c2.233,3.905,4.483,7.8,6.711,11.709.338.594.59,1.236.882,1.856v.815a9.95,9.95,0,0,1-.492,1.181c-2.36,4.132-4.738,8.253-7.1,12.383a2.846,2.846,0,0,1-2.666,1.539q-7.128-.015-14.256,0a2.844,2.844,0,0,1-2.665-1.541c-2.222-3.885-4.462-7.76-6.678-11.649C306.9-90.94,306.633-91.6,306.331-92.241Zm17.39-.514c-.112-.192-.192-.325-.268-.461l-3.959-7.071c-.1-.187-.192-.382-.466-.38-.8.008-1.607,0-2.41.005-.329,0-.456.228-.316.529.043.092.1.179.147.268q1.932,3.465,3.869,6.927a.516.516,0,0,1,0,.582q-1.987,3.531-3.955,7.074c-.236.423-.107.647.37.649.7,0,1.4-.017,2.1.008a.651.651,0,0,0,.666-.4q1.991-3.588,4-7.163c.062-.111.131-.219.216-.361.092.162.154.269.215.377q2,3.582,4,7.166a.628.628,0,0,0,.644.376c.678-.022,1.358-.006,2.037-.007.592,0,.711-.2.422-.723q-1.951-3.493-3.908-6.984a.54.54,0,0,1-.007-.612c1.309-2.324,2.594-4.662,3.913-6.98.267-.47.132-.777-.451-.742-.677.04-1.358.023-2.036,0a.6.6,0,0,0-.614.367c-.579,1.061-1.175,2.114-1.765,3.17Z" transform="translate(686.362 1339.316)" fill="#9638fb" fill-rule="evenodd"/>
      <g id="augmented-reality" transform="translate(729.969 1077.24)">
        <path id="Path_37" data-name="Path 37" d="M32.9,10.71,25.249,6.884a1.275,1.275,0,0,0-1.141,0L16.455,10.71a1.275,1.275,0,0,0-.705,1.142v8.928a1.275,1.275,0,0,0,.705,1.141l7.653,3.826a1.277,1.277,0,0,0,1.141,0L32.9,21.921a1.275,1.275,0,0,0,.705-1.141V11.852A1.275,1.275,0,0,0,32.9,10.71ZM24.678,9.452l4.8,2.4-4.8,2.4-4.8-2.4ZM18.3,13.917l5.1,2.551v6.077l-5.1-2.551Zm7.653,8.628V16.468l5.1-2.551v6.077Z" transform="translate(-5.888 -1.648)" fill="#9638fb"/>
        <path id="Path_38" data-name="Path 38" d="M17.326,27.783a1.914,1.914,0,1,1-1.913-1.867A1.914,1.914,0,0,1,17.326,27.783Z" transform="translate(-5.138 -2.307)" fill="#9638fb"/>
        <path id="Path_39" data-name="Path 39" d="M23.33,34.741H7.986a2.343,2.343,0,0,1-2.361-2.321V4.571A2.343,2.343,0,0,1,7.986,2.25H23.33V4.571H7.986v27.85H23.33V27.779h2.361v4.642A2.343,2.343,0,0,1,23.33,34.741Z" transform="translate(-5.625 -2.25)" fill="#9638fb"/>
      </g>
      <g id="Group_18990" data-name="Group 18990" transform="translate(959.068 1493.403)">
        <path id="Path_42" data-name="Path 42" d="M213,327.828c.127-.061.258-.114.38-.183q3.095-1.783,6.187-3.57c.122-.071.247-.138.395-.221l.579,1c-.464.27-.909.53-1.356.788-1.58.912-3.159,1.827-4.744,2.731a.482.482,0,0,0-.28.486q.014,3.634,0,7.267a.509.509,0,0,0,.3.515q3.151,1.8,6.285,3.632a.506.506,0,0,0,.592-.016q3.037-1.766,6.083-3.518c.133-.077.267-.15.441-.247l.572.99c-.124.081-.217.147-.315.2q-3.4,1.96-6.79,3.924a.508.508,0,0,1-.595,0q-3.674-2.139-7.361-4.255c-.123-.071-.25-.133-.375-.2Z" transform="translate(-213 -302.857)" fill="#9638fb" fill-rule="evenodd"/>
        <path id="Path_43" data-name="Path 43" d="M319.264,196.247l1.008.577c-.348.613-.675,1.212-1.027,1.8a.435.435,0,0,0,.02.576,2.051,2.051,0,0,1,.21,2.2,10.244,10.244,0,0,1-.747,1.315,2.166,2.166,0,0,1-2.068.982.358.358,0,0,0-.333.6,2.071,2.071,0,0,1,.2,2.238,4.844,4.844,0,0,1-1.249,1.847,2.033,2.033,0,0,1-1.53.422.4.4,0,0,0-.48.258c-.327.6-.677,1.19-1.047,1.835l-1.013-.575c.358-.627.7-1.234,1.052-1.831a.412.412,0,0,0-.022-.543,2.045,2.045,0,0,1-.21-2.233,11.633,11.633,0,0,1,.774-1.344,2.076,2.076,0,0,1,1.968-.933.7.7,0,0,0,.452-.156c.211-.182.015-.335-.091-.494a2.117,2.117,0,0,1-.17-2.21,11.988,11.988,0,0,1,.709-1.248,2.032,2.032,0,0,1,2.005-1.005.523.523,0,0,0,.594-.338C318.582,197.416,318.913,196.86,319.264,196.247Zm-5.159,11.39c.813-.2,1.669-1.733,1.368-2.385l-.335.514-.979-.564.284-.572c-.771.144-1.68,1.766-1.342,2.357l.322-.488.982.574Zm3.282-8.141a2.4,2.4,0,0,0-1.382,2.387l.353-.505.974.562-.286.563c.782-.162,1.671-1.725,1.358-2.37l-.332.51-.986-.565Z" transform="translate(-303.576 -185.172)" fill="#9638fb" fill-rule="evenodd"/>
        <path id="Path_44" data-name="Path 44" d="M519.66,210.288l-1.012.577c-.359-.627-.713-1.226-1.046-1.837a.415.415,0,0,0-.484-.255,2.043,2.043,0,0,1-2.03-.955,10.969,10.969,0,0,1-.75-1.313,2.141,2.141,0,0,1,.2-2.244.5.5,0,0,0,.07-.418.491.491,0,0,0-.392-.18,2.164,2.164,0,0,1-2.171-1.144,10.5,10.5,0,0,1-.79-1.632,1.769,1.769,0,0,1,.34-1.683.481.481,0,0,0,.025-.643c-.352-.57-.672-1.16-1.018-1.765l1.009-.582c.333.583.672,1.143.975,1.721a.582.582,0,0,0,.664.359,1.962,1.962,0,0,1,1.869.893,11.929,11.929,0,0,1,.747,1.271,2.134,2.134,0,0,1-.185,2.375.35.35,0,0,0,.313.574,2.2,2.2,0,0,1,2.254,1.2c.193.337.4.669.568,1.016a2.088,2.088,0,0,1-.193,2.3.389.389,0,0,0-.026.511C518.954,209.035,519.292,209.645,519.66,210.288Zm-4.8-8.431A2.264,2.264,0,0,0,513.5,199.5l.286.555-.981.561-.358-.538a2.381,2.381,0,0,0,1.374,2.392l-.274-.561.976-.558Zm2.95,5.157c.221-.834-.7-2.389-1.361-2.371l.272.531-.987.558-.349-.53a2.347,2.347,0,0,0,1.371,2.38l-.279-.555.988-.563Z" transform="translate(-487.459 -185.142)" fill="#9638fb" fill-rule="evenodd"/>
        <path id="Path_45" data-name="Path 45" d="M383.733,429.789v1.166c-.681,0-1.351.016-2.019-.007a.517.517,0,0,0-.572.368,1.931,1.931,0,0,1-1.724,1.2,10.14,10.14,0,0,1-2.009-.071,1.857,1.857,0,0,1-1.394-1.18c-.076-.168-.125-.311-.372-.309s-.29.151-.368.317a2.009,2.009,0,0,1-1.731,1.256,11.486,11.486,0,0,1-1.668.01,2,2,0,0,1-1.77-1.263.434.434,0,0,0-.488-.3c-.683.014-1.367,0-2.074,0v-1.166c.691,0,1.373-.017,2.054.008a.493.493,0,0,0,.542-.355,1.95,1.95,0,0,1,1.675-1.212,11.457,11.457,0,0,1,1.668-.011,2.062,2.062,0,0,1,1.806,1.274.64.64,0,0,0,.34.277c.194.069.276-.071.353-.248a2.036,2.036,0,0,1,1.775-1.317,9.964,9.964,0,0,1,1.705,0,2.005,2.005,0,0,1,1.722,1.273.416.416,0,0,0,.462.294C382.33,429.779,383.014,429.789,383.733,429.789ZM377.2,430.98a2.456,2.456,0,0,0,2.755,0l-.6-.05v-1.124l.608-.041a2.249,2.249,0,0,0-2.715.012l.593.035v1.134Zm-3.142-1.193c-.473-.606-2.4-.582-2.708.03h.565v1.144l-.594.029a2.308,2.308,0,0,0,2.734,0l-.605-.038v-1.131Z" transform="translate(-355.526 -399.081)" fill="#9638fb" fill-rule="evenodd"/>
        <path id="Path_46" data-name="Path 46" d="M535.809,325.742l.561-.985c.113.057.214.1.31.158,2.108,1.214,4.213,2.435,6.328,3.638a.538.538,0,0,1,.308.549q-.011,4.275,0,8.55a.541.541,0,0,1-.317.544q-3.721,2.135-7.43,4.291a.446.446,0,0,1-.524.036c-2.292-1.336-4.593-2.656-6.891-3.982-.044-.025-.084-.057-.158-.107l.563-.99c.138.073.26.135.379.2,2,1.15,3.995,2.3,5.984,3.457a.6.6,0,0,0,.7.01q3.1-1.816,6.217-3.6a.508.508,0,0,0,.311-.506q-.021-3.634,0-7.268a.509.509,0,0,0-.3-.512q-2.832-1.617-5.653-3.254C536.072,325.907,535.953,325.831,535.809,325.742Z" transform="translate(-503.505 -303.69)" fill="#9638fb" fill-rule="evenodd"/>
        <path id="Path_47" data-name="Path 47" d="M381.864,66.327h-1.133v-.476c0-2.137,0-4.274.005-6.411a.547.547,0,0,0-.312-.552q-3.134-1.79-6.253-3.607a.514.514,0,0,0-.6-.009q-3.135,1.828-6.287,3.627a.51.51,0,0,0-.287.521c.01,2.15.005,4.3.005,6.45v.449h-1.148c-.007-.127-.019-.24-.019-.353,0-2.409,0-4.818-.007-7.227a.509.509,0,0,1,.3-.516q3.738-2.141,7.462-4.308a.478.478,0,0,1,.558,0c2.483,1.444,4.973,2.874,7.454,4.322a.619.619,0,0,1,.286.429c.017,2.461.013,4.921.011,7.382A2.371,2.371,0,0,1,381.864,66.327Z" transform="translate(-353.947 -53.827)" fill="#9638fb" fill-rule="evenodd"/>
        <path id="Path_48" data-name="Path 48" d="M389.646,123.084l.586-1.009c1.646.949,3.275,1.855,4.864,2.825a1.191,1.191,0,0,0,1.451.012c1.585-.976,3.217-1.877,4.88-2.836l.581,1c-.141.085-.257.159-.376.228-1.625.939-3.247,1.881-4.879,2.809a.566.566,0,0,0-.338.571c.015,1.878.007,3.757.007,5.636v.444h-1.169v-.448c0-1.879-.006-3.757.007-5.636a.544.544,0,0,0-.318-.548C393.187,125.132,391.441,124.12,389.646,123.084Z" transform="translate(-375.91 -116.768)" fill="#9638fb" fill-rule="evenodd"/>
        <path id="Path_49" data-name="Path 49" d="M243.647,395.655h-1.166v-.425c0-1.839-.011-3.679.009-5.518a.732.732,0,0,0-.425-.758c-1.614-.9-3.211-1.839-4.814-2.764-.121-.07-.238-.147-.369-.229l.569-.985c.134.071.256.132.374.2,1.637.943,3.277,1.881,4.906,2.837a.566.566,0,0,0,.664-.006c1.619-.948,3.247-1.88,4.873-2.817.122-.07.246-.136.392-.217l.57.98c-.122.08-.233.16-.35.227-1.636.945-3.269,1.9-4.912,2.826a.563.563,0,0,0-.328.576c.013,1.878.007,3.756.007,5.634Z" transform="translate(-235.026 -359.223)" fill="#9638fb" fill-rule="evenodd"/>
        <path id="Path_50" data-name="Path 50" d="M553.932,385.4l.572.99c-.121.077-.224.148-.332.211-1.625.94-3.244,1.888-4.88,2.808a.677.677,0,0,0-.391.7c.017,1.84.01,3.68.011,5.519,0,.14,0,.281,0,.448h-1.168v-.432c0-1.853-.01-3.706.007-5.558a.652.652,0,0,0-.377-.67c-1.612-.91-3.211-1.841-4.815-2.766-.123-.071-.243-.145-.408-.244l.568-.993c.144.076.269.137.389.206,1.649.95,3.3,1.9,4.942,2.856a.477.477,0,0,0,.558,0c1.631-.955,3.269-1.9,4.9-2.843C553.636,385.559,553.76,385.492,553.932,385.4Z" transform="translate(-516.557 -359.614)" fill="#9638fb" fill-rule="evenodd"/>
        <path id="Path_51" data-name="Path 51" d="M427.718,255.627l.581-1.013c.729.421,1.456.808,2.145,1.253a.8.8,0,0,0,1-.01c.675-.431,1.384-.81,2.132-1.24l.58,1c-.232.14-.446.274-.665.4-.761.441-1.52.887-2.291,1.311a.551.551,0,0,1-.448.04C429.75,256.808,428.757,256.226,427.718,255.627Z" transform="translate(-411.022 -239.001)" fill="#9638fb" fill-rule="evenodd"/>
        <path id="Path_52" data-name="Path 52" d="M371.824,353.218l.58-1.005c.552.316,1.085.621,1.618.928.425.245.854.484,1.271.743.105.066.238.2.24.3.018,1.032.011,2.065.011,3.131h-1.165c0-.757-.015-1.5.007-2.25a.552.552,0,0,0-.338-.571C373.312,354.093,372.592,353.663,371.824,353.218Z" transform="translate(-359.474 -329.011)" fill="#9638fb" fill-rule="evenodd"/>
        <path id="Path_53" data-name="Path 53" d="M519.347,357.341H518.18c0-.293,0-.571,0-.849,0-.673-.009-1.347.005-2.02a.471.471,0,0,1,.154-.349c.987-.59,1.985-1.16,3.026-1.763l.585,1.006a17.382,17.382,0,0,1-1.768,1.009,1.248,1.248,0,0,0-.848,1.5A11.132,11.132,0,0,1,519.347,357.341Z" transform="translate(-494.447 -329.146)" fill="#9638fb" fill-rule="evenodd"/>
        <path id="Path_54" data-name="Path 54" d="M237.93,464.928H239.1c-.176.585.307.691.659.895.992.575,1.988,1.145,3.011,1.733l-.582,1.011-2.1-1.21c-.627-.361-1.249-.732-1.884-1.076a.452.452,0,0,1-.274-.488C237.945,465.513,237.93,465.23,237.93,464.928Z" transform="translate(-235.985 -432.961)" fill="#9638fb" fill-rule="evenodd"/>
        <path id="Path_55" data-name="Path 55" d="M458.041,83.944a1.133,1.133,0,0,1,1.613-.127c.857.6,1.8,1.065,2.708,1.589.121.07.24.145.382.231l-.572,1-.607-.347c-.773-.446-1.541-.9-2.322-1.331a2.682,2.682,0,0,0-.6-.169l-.054.109Z" transform="translate(-438.987 -81.228)" fill="#9638fb" fill-rule="evenodd"/>
        <path id="Path_56" data-name="Path 56" d="M643.54,471.218l-.58-1.009c1-.58,1.987-1.142,2.962-1.723a2.911,2.911,0,0,0,.463-.482h1c0,.288.011.556-.006.823a.346.346,0,0,1-.136.243C646.023,469.788,644.794,470.495,643.54,471.218Z" transform="translate(-609.527 -435.799)" fill="#9638fb" fill-rule="evenodd"/>
        <path id="Path_57" data-name="Path 57" d="M436.8,95.112l-.582-1.01,1.006-.584.581,1Z" transform="translate(-418.858 -90.432)" fill="#9638fb" fill-rule="evenodd"/>
        <path id="Path_58" data-name="Path 58" d="M416.137,107.083l-1.012.586-.583-1.006,1-.584Z" transform="translate(-398.871 -102.016)" fill="#9638fb" fill-rule="evenodd"/>
        <path id="Path_59" data-name="Path 59" d="M239.4,416.048h-1.125v-1.116H239.4Z" transform="translate(-236.308 -386.853)" fill="#9638fb" fill-rule="evenodd"/>
        <path id="Path_60" data-name="Path 60" d="M684.988,419.183v-1.107h1.132v1.107Z" transform="translate(-648.286 -389.752)" fill="#9638fb" fill-rule="evenodd"/>
        <path id="Path_61" data-name="Path 61" d="M238.3,440.961v-1.114h1.119v1.114Z" transform="translate(-236.33 -409.83)" fill="#9638fb" fill-rule="evenodd"/>
        <path id="Path_62" data-name="Path 62" d="M686.289,444.213h-1.121v-1.119h1.121Z" transform="translate(-648.452 -412.825)" fill="#9638fb" fill-rule="evenodd"/>
      </g>
      <g id="Group_18991" data-name="Group 18991" transform="translate(421.541 1027.319)">
        <path id="Path_144243" data-name="Path 144243" d="M1918.8,566.953c.7-.39,1.393-.764,2.071-1.16a.449.449,0,0,0,.178-.324,1.7,1.7,0,1,1,3.393-.012.485.485,0,0,0,.2.346c.606.358,1.229.685,1.839,1.035a.327.327,0,0,0,.4-.007,1.666,1.666,0,0,1,2.385.53,1.688,1.688,0,0,1-.674,2.359.475.475,0,0,0-.2.337q-.03.985,0,1.971a.476.476,0,0,0,.207.335,1.689,1.689,0,1,1-1.725,2.9.432.432,0,0,0-.36-.022q-.95.5-1.875,1.043a.484.484,0,0,0-.194.348,1.713,1.713,0,0,1-1.708,1.737,1.684,1.684,0,0,1-1.672-1.721.37.37,0,0,0-.219-.385c-.609-.327-1.214-.664-1.815-1.007a.354.354,0,0,0-.435,0,1.627,1.627,0,0,1-2.4-.624.362.362,0,0,0-.382-.214c-1.468.005-2.935,0-4.4.012a.729.729,0,0,0-.45.192c-.569.543-1.131,1.094-1.669,1.667a1.054,1.054,0,0,1-.962.388.4.4,0,0,0-.466.248,1.63,1.63,0,0,1-1.879.819,1.683,1.683,0,0,1,.016-3.267,1.666,1.666,0,0,1,1.88.833.393.393,0,0,0,.693.089c.6-.595,1.2-1.189,1.79-1.795a.957.957,0,0,1,.746-.314c1.562.011,3.123,0,4.684.008a.391.391,0,0,0,.413-.227,1.319,1.319,0,0,1,.5-.566c.4-.189.466-.467.371-.9h-.31q-4.226,0-8.451,0a.434.434,0,0,0-.459.264,1.639,1.639,0,0,1-1.887.8,1.684,1.684,0,0,1,.006-3.259,1.656,1.656,0,0,1,1.888.809c.092.165.169.264.387.264,2.876-.009,5.751-.006,8.627-.007.068,0,.136-.008.208-.013.06-.378.076-.684-.356-.868a1.158,1.158,0,0,1-.5-.527.483.483,0,0,0-.52-.286c-1.5.011-3,0-4.507.012a1.12,1.12,0,0,1-.9-.368c-.557-.588-1.139-1.151-1.713-1.722-.288-.286-.528-.249-.734.1a1.685,1.685,0,1,1-1.906-2.464,1.635,1.635,0,0,1,1.894.787.423.423,0,0,0,.486.275,1.044,1.044,0,0,1,.96.391c.539.572,1.1,1.124,1.669,1.666a.726.726,0,0,0,.452.188c1.467.014,2.934.012,4.4,0a.447.447,0,0,0,.333-.155A1.691,1.691,0,0,1,1918.8,566.953Zm2.822,2.82a1,1,0,0,1,.2-.133c.317-.107.393-.323.37-.643a7.814,7.814,0,0,1,0-1.334.78.78,0,0,0-.516-.952c-.021-.007-.044-.011-.081-.02-.686.381-1.383.764-2.074,1.157a.478.478,0,0,0,0,.753C1920.216,568.993,1920.913,569.375,1921.627,569.773Zm1.686-1.542c0,.328,0,.656,0,.984a.569.569,0,0,0,.764.442q.924-.508,1.842-1.022a.47.47,0,0,0-.011-.827c-.6-.338-1.209-.666-1.809-1.01a.405.405,0,0,0-.437,0,.56.56,0,0,0-.356.658A7.62,7.62,0,0,1,1923.313,568.23Zm-5.072,2.794c0,.34,0,.68,0,1.019a.581.581,0,0,0,.744.444q.938-.515,1.872-1.04a.468.468,0,0,0,0-.81c-.622-.351-1.246-.7-1.874-1.037a.366.366,0,0,0-.278-.036c-.306.135-.553.308-.473.724A3.971,3.971,0,0,1,1918.241,571.024Zm9.016.012c0-.328,0-.656,0-.984a.569.569,0,0,0-.764-.443q-.923.507-1.841,1.022a.47.47,0,0,0,.01.827c.6.338,1.21.666,1.809,1.01a.4.4,0,0,0,.436,0,.558.558,0,0,0,.357-.657A7.657,7.657,0,0,1,1927.258,571.035Zm-5.071,2.864c0-.328,0-.656,0-.984a.556.556,0,0,0-.785-.478q-.907.5-1.811,1.006a.47.47,0,0,0-.01.828c.6.338,1.211.664,1.808,1.011a.416.416,0,0,0,.467-.012.522.522,0,0,0,.337-.6A6.791,6.791,0,0,1,1922.186,573.9Zm1.741,1.477c.65-.361,1.337-.738,2.02-1.122a.476.476,0,0,0,0-.793q-.932-.526-1.872-1.039a.569.569,0,0,0-.758.454c0,.5.022,1.009-.008,1.511C1923.279,574.852,1923.317,575.247,1923.927,575.377Zm-1.15-10.531a.561.561,0,1,0,.533.588A.569.569,0,0,0,1922.777,564.845Zm-15.809,1.139a.561.561,0,1,0-.576.546A.567.567,0,0,0,1906.968,565.984Zm11.27,2.223a.561.561,0,1,0-.544.578A.567.567,0,0,0,1918.238,568.207Zm9.022-.01a.561.561,0,1,0,.588-.533A.57.57,0,0,0,1927.26,568.2Zm-20.292,2.846a.561.561,0,1,0-.562.559A.567.567,0,0,0,1906.968,571.043Zm16.342-.018a.561.561,0,1,0-.544.578A.568.568,0,0,0,1923.31,571.024Zm-5.6,2.273a.561.561,0,1,0,.533.588A.57.57,0,0,0,1917.705,573.3Zm10.117,1.122a.561.561,0,1,0-.562-.559A.567.567,0,0,0,1927.823,574.419Zm-21.4,1.133a.561.561,0,1,0,.549.573A.568.568,0,0,0,1906.42,575.552Zm16.338.563a.561.561,0,1,0,.553.569A.567.567,0,0,0,1922.757,576.116Z" transform="translate(-1904.719 -560.336)" fill="#9638fb" fill-rule="evenodd"/>
        <path id="Path_144244" data-name="Path 144244" d="M1969.244,543.607l1.072-.285a3.826,3.826,0,0,0,.147.475c.438.954.818,1.941,1.339,2.847a26.641,26.641,0,0,1,3.343,8.915c.259,1.553.35,3.133.521,4.739h7.735v-.367q0-1.686,0-3.372c0-.546.189-.73.743-.73h7.089v-3.373h-1.624a2.816,2.816,0,0,1-2.84-2.793h1.089c.024.112.047.233.075.353a1.67,1.67,0,0,0,1.612,1.313c.557.011,1.115,0,1.707,0,0-.708,0-1.384,0-2.06,0-.571.182-.749.758-.75,1.156,0,2.313,0,3.519,0-.041-.142-.074-.259-.11-.374-.816-2.61-1.647-5.215-2.435-7.834a9.954,9.954,0,0,1-.186-1.6,11.448,11.448,0,0,0-9.6-9.725,11.267,11.267,0,0,0-11.243,4.936c-.061.084-.124.167-.2.268-.167-.1-.323-.2-.478-.3s-.289-.192-.45-.3a12.277,12.277,0,0,1,2.436-2.815,12.552,12.552,0,0,1,20.261,6,24,24,0,0,1,.478,2.581,9.68,9.68,0,0,0,.214,1.131c.839,2.725,1.694,5.446,2.544,8.168.222.713.023.982-.727.982h-3.657v.387q0,3.074,0,6.148c0,.6-.176.772-.771.773h-7.079v.4q0,1.7,0,3.407c0,.484-.2.689-.678.689q-4.363,0-8.726,0c-.495,0-.7-.2-.687-.714a24.331,24.331,0,0,0-.91-7.286,26.278,26.278,0,0,0-2.7-6.224A13.593,13.593,0,0,1,1969.244,543.607Z" transform="translate(-1963.183 -527.722)" fill="#9638fb" fill-rule="evenodd"/>
      </g>
      <g id="artificial-intelligence-ai" transform="translate(95.537 1668.953)">
        <path id="Path_144245" data-name="Path 144245" d="M24.152,29.143a1.12,1.12,0,0,0-.851,0,1.07,1.07,0,0,0-.35.235l-.008.006a1,1,0,0,0-.151.19,1.165,1.165,0,0,0-.064.118H20.961V28.158a3.818,3.818,0,0,1-.843.28c-.05.011-.1.02-.148.028v1.719a.5.5,0,0,0,.5.5h2.279a.938.938,0,0,0,.059.1,1.083,1.083,0,0,0,.134.165l.008.008a1.1,1.1,0,0,0,.361.241,1.13,1.13,0,0,0,.425.084,1.1,1.1,0,0,0,.417-.081l.008,0a1.134,1.134,0,0,0,.361-.241,1.1,1.1,0,0,0,.241-.361,1.13,1.13,0,0,0,.084-.425,1.153,1.153,0,0,0-.084-.425,1.1,1.1,0,0,0-.241-.361,1.235,1.235,0,0,0-.367-.238Zm-8.076-10.5H14l-.3.974H11.844l2.225-5.912h2l2.217,5.912H16.373l-.3-.974Zm-.386-1.282-.647-2.125-.649,2.125Zm3.11-3.659h1.834v5.912H18.8V13.705Zm-1.4-6.06a3.236,3.236,0,0,0-.826.893.129.129,0,0,1-.048.048.165.165,0,0,1-.224-.048,3.236,3.236,0,0,0-.826-.893,2.645,2.645,0,0,0-1.036-.456h-.006a2.819,2.819,0,0,0-1.061-.011,3.2,3.2,0,0,0-1.041.383,3.359,3.359,0,0,0-.84.7,2.932,2.932,0,0,0-.535.9h0c-.02.05-.036.1-.053.16s-.031.106-.042.162a.159.159,0,0,1-.154.129,3.061,3.061,0,0,0-1.095.4,3.762,3.762,0,0,0-.963.837,4.222,4.222,0,0,0-.683,1.192A4.425,4.425,0,0,0,7.7,13.406c0,.064,0,.126,0,.19s0,.12,0,.185a.164.164,0,0,1-.067.143,5.826,5.826,0,0,0-.621.512,4.574,4.574,0,0,0-.5.563,3.68,3.68,0,0,0-.518.98,3.337,3.337,0,0,0-.048,2.043,3.713,3.713,0,0,0,.428.943h0a4.361,4.361,0,0,0,.358.5,4.76,4.76,0,0,0,.437.453.167.167,0,0,1,.05.151,3.789,3.789,0,0,0-.076.63,3.873,3.873,0,0,0,.034.627A3.774,3.774,0,0,0,7.5,22.386a4.021,4.021,0,0,0,.621.957,4.117,4.117,0,0,0,.8.717,3.826,3.826,0,0,0,.924.467,3.34,3.34,0,0,0,.437.115,2.691,2.691,0,0,0,.417.05.162.162,0,0,1,.162.129,2.785,2.785,0,0,0,.392.929,3.212,3.212,0,0,0,.717.778,3.269,3.269,0,0,0,1.2.591,2.821,2.821,0,0,0,1.271.034,2.71,2.71,0,0,0,1.092-.5,3.309,3.309,0,0,0,.848-.971.146.146,0,0,1,.064-.059.162.162,0,0,1,.218.067,3,3,0,0,0,.722.9,2.615,2.615,0,0,0,.969.5,2.869,2.869,0,0,0,1.344.028,3.491,3.491,0,0,0,1.33-.591,3.409,3.409,0,0,0,.8-.8,2.9,2.9,0,0,0,.451-.949.161.161,0,0,1,.132-.132,3.064,3.064,0,0,0,1.19-.5,3.866,3.866,0,0,0,.988-.991,4.274,4.274,0,0,0,.591-1.26,4.47,4.47,0,0,0,.162-1.4.156.156,0,0,1,.07-.146,5.637,5.637,0,0,0,.644-.515,4.38,4.38,0,0,0,.509-.574h0a3.6,3.6,0,0,0,.5-.938,3.358,3.358,0,0,0,.19-1.011,3.456,3.456,0,0,0-.115-.971,3.714,3.714,0,0,0-.386-.927l-.006-.006a4.335,4.335,0,0,0-.389-.557,4.609,4.609,0,0,0-.487-.507.164.164,0,0,1-.053-.154,3.734,3.734,0,0,0,.073-.577,3.87,3.87,0,0,0-.017-.571,3.736,3.736,0,0,0-.3-1.1,4.071,4.071,0,0,0-.621-.994,4.248,4.248,0,0,0-.815-.742,3.744,3.744,0,0,0-.935-.479l-.008,0a3.15,3.15,0,0,0-.515-.129h-.006a2.763,2.763,0,0,0-.5-.036.162.162,0,0,1-.168-.123,2.756,2.756,0,0,0-.106-.336,3.2,3.2,0,0,0-.154-.33,3.061,3.061,0,0,0-.582-.759,3.41,3.41,0,0,0-.8-.568,3.12,3.12,0,0,0-.963-.305,2.819,2.819,0,0,0-.969.028,2.925,2.925,0,0,0-1.041.47ZM21.98,10.8a.166.166,0,0,1,.146-.115,1.546,1.546,0,0,1,.358.017,2.23,2.23,0,0,1,.37.092,2.706,2.706,0,0,1,.68.35,3.041,3.041,0,0,1,.588.537l0,.006a2.938,2.938,0,0,1,.451.719,2.66,2.66,0,0,1,.213.787,2.625,2.625,0,0,1,0,.574,2.568,2.568,0,0,1-.126.557l0,.011a.554.554,0,0,0,0,.35.546.546,0,0,0,.216.28l.008.006a3.54,3.54,0,0,1,.521.473,3.228,3.228,0,0,1,.4.546,2.6,2.6,0,0,1,.277.652,2.212,2.212,0,0,1-.05,1.352,2.571,2.571,0,0,1-.344.635l0,0a3.339,3.339,0,0,1-.515.549,4.8,4.8,0,0,1-.683.481l-.008.006a.528.528,0,0,0-.224.252.556.556,0,0,0-.036.33l0,.022a3.452,3.452,0,0,1-.059,1.209,3.155,3.155,0,0,1-.476,1.081,2.839,2.839,0,0,1-.56.6,2.13,2.13,0,0,1-.669.367h0a.163.163,0,0,1-.2-.106,2.817,2.817,0,0,0-1.786-1.842l-.02-.011a.539.539,0,0,0-.395-.028.5.5,0,0,0-.3.252l-.008.017a.526.526,0,0,0,.232.7c.773.395,1.344.694,1.335,1.663a1.628,1.628,0,0,1-.244.82,2.418,2.418,0,0,1-.655.7,2.447,2.447,0,0,1-.89.409,1.83,1.83,0,0,1-.9-.006,1.632,1.632,0,0,1-1.016-.854,4.466,4.466,0,0,1-.395-1.209.123.123,0,0,1-.006-.045.429.429,0,0,0-.361-.392.958.958,0,0,0-.283-.039,1.045,1.045,0,0,0-.283.039.434.434,0,0,0-.358.392.189.189,0,0,1-.006.039,3.755,3.755,0,0,1-.649,1.425,1.8,1.8,0,0,1-1.05.689,1.829,1.829,0,0,1-.826-.028,2.281,2.281,0,0,1-.787-.392,2.107,2.107,0,0,1-.56-.652,1.622,1.622,0,0,1-.2-.77c0-1.019.616-1.36,1.43-1.778a.526.526,0,0,0-.47-.941l-.008,0A3,3,0,0,0,10.917,23.5a.166.166,0,0,1-.162.12,1.72,1.72,0,0,1-.288-.034,1.882,1.882,0,0,1-.28-.078,2.823,2.823,0,0,1-.666-.339,3.078,3.078,0,0,1-.579-.521,2.958,2.958,0,0,1-.451-.694,2.707,2.707,0,0,1-.23-.759v-.006a2.461,2.461,0,0,1-.011-.61,2.642,2.642,0,0,1,.132-.6l0-.008a.548.548,0,0,0,0-.342l0-.006a.546.546,0,0,0-.21-.28l-.006-.006a3.447,3.447,0,0,1-.484-.434,3.178,3.178,0,0,1-.381-.5,2.754,2.754,0,0,1-.3-.663,2.379,2.379,0,0,1-.1-.689,2.243,2.243,0,0,1,.129-.719,2.641,2.641,0,0,1,.361-.675,3.393,3.393,0,0,1,.507-.549,4.676,4.676,0,0,1,.663-.487.541.541,0,0,0,.2-.224l0-.008a.524.524,0,0,0,.048-.3.136.136,0,0,1,0-.034V14.05c-.014-.1-.022-.2-.028-.291s-.006-.207,0-.308a3.313,3.313,0,0,1,.2-1.022,3.126,3.126,0,0,1,.5-.887,2.633,2.633,0,0,1,.571-.523,2.058,2.058,0,0,1,.641-.291h0a.163.163,0,0,1,.2.106,2.686,2.686,0,0,0,.809,1.282l.017.014a.514.514,0,0,0,.37.134.508.508,0,0,0,.356-.162l.008-.011a.514.514,0,0,0,.134-.37.532.532,0,0,0-.168-.364,1.57,1.57,0,0,1-.512-.817,1.552,1.552,0,0,1,.017-1.027,1.85,1.85,0,0,1,.358-.593,2.207,2.207,0,0,1,.549-.453l.008-.006a2.16,2.16,0,0,1,.68-.258,1.767,1.767,0,0,1,.686,0,1.749,1.749,0,0,1,.91.526A3.057,3.057,0,0,1,15.76,9.8l0,.006a.567.567,0,0,0,.473.33,1.281,1.281,0,0,0,.311.02h0a1.18,1.18,0,0,0,.3-.056.468.468,0,0,0,.33-.26V9.778a1.488,1.488,0,0,1,.459-.952,2.114,2.114,0,0,1,1.008-.619,1.785,1.785,0,0,1,.621-.014,2.114,2.114,0,0,1,.616.2L19.9,8.4a2.3,2.3,0,0,1,.54.381,2.081,2.081,0,0,1,.392.509,1.578,1.578,0,0,1,.182.985,1.306,1.306,0,0,1-.316.817l0,0a.52.52,0,0,0-.12.381.514.514,0,0,0,.174.344l.017.014a.522.522,0,0,0,.719-.059l.014-.02a2.308,2.308,0,0,0,.479-.957Zm6.147,13.7a1.12,1.12,0,0,1,0-.851,1.07,1.07,0,0,1,.235-.35l.006-.008a1,1,0,0,1,.19-.151,1.165,1.165,0,0,1,.118-.064V21.305H26.5c0-.115,0-.23,0-.347a.177.177,0,0,1,.078-.165,6.124,6.124,0,0,0,.613-.479h1.976a.5.5,0,0,1,.5.5v2.279a.939.939,0,0,1,.1.059,1.083,1.083,0,0,1,.165.134l.008.008a1.1,1.1,0,0,1,.241.361,1.13,1.13,0,0,1,.084.425,1.107,1.107,0,0,1-.081.417l0,.008a1.134,1.134,0,0,1-.241.361,1.1,1.1,0,0,1-.361.241,1.13,1.13,0,0,1-.425.084,1.152,1.152,0,0,1-.425-.084,1.1,1.1,0,0,1-.361-.241,1.235,1.235,0,0,1-.238-.367Zm3.146-5.669H28.32c.05-.109.1-.218.134-.33a3.52,3.52,0,0,0,.168-.661h2.651c.02-.036.039-.073.062-.109a1.038,1.038,0,0,1,.146-.182,1.089,1.089,0,0,1,.361-.241,1.13,1.13,0,0,1,.425-.084,1.107,1.107,0,0,1,.417.081l.008,0a1.134,1.134,0,0,1,.361.241,1.1,1.1,0,0,1,.241.361,1.13,1.13,0,0,1,.084.425,1.152,1.152,0,0,1-.084.425,1.106,1.106,0,0,1-.6.6,1.13,1.13,0,0,1-.425.084,1.107,1.107,0,0,1-.417-.081l-.008,0a1.134,1.134,0,0,1-.361-.241,1.092,1.092,0,0,1-.143-.176l-.006-.008c-.02-.034-.039-.07-.059-.106Zm.941-2.71H28.5a4.357,4.357,0,0,0-.4-.91L28.1,15.2l-.042-.073h3.667V11.894c-.028-.017-.056-.034-.084-.053a1.137,1.137,0,0,1-.154-.129,1.1,1.1,0,0,1-.241-.361,1.114,1.114,0,0,1,.241-1.212,1.1,1.1,0,0,1,.361-.241,1.13,1.13,0,0,1,.425-.084A1.152,1.152,0,0,1,32.7,9.9a1.106,1.106,0,0,1,.6.6,1.13,1.13,0,0,1,.084.425,1.107,1.107,0,0,1-.081.417l0,.008a1.134,1.134,0,0,1-.241.361,1.125,1.125,0,0,1-.344.235V15.62a.5.5,0,0,1-.5.5Zm-3.883-2.391H27.066a4.145,4.145,0,0,0,.062-.554c.006-.148.006-.294,0-.437h.711V11.275a.891.891,0,0,1-.112-.064,1.058,1.058,0,0,1-.188-.151h0A1.1,1.1,0,0,1,27.3,10.7a1.127,1.127,0,0,1-.084-.423,1.111,1.111,0,0,1,.316-.778l.008-.008a1.1,1.1,0,0,1,.361-.241,1.12,1.12,0,0,1,.851,0,1.112,1.112,0,0,1,.353.235l.008.006a1.09,1.09,0,0,1,.238.353l0,.008a1.12,1.12,0,0,1,0,.851,1.153,1.153,0,0,1-.232.353l-.008.008a1.16,1.16,0,0,1-.179.146.757.757,0,0,1-.1.059v1.965a.493.493,0,0,1-.146.35.5.5,0,0,1-.35.146ZM8.714,5.254a1.12,1.12,0,0,0,.851,0,1.07,1.07,0,0,0,.35-.235l.008-.006a1,1,0,0,0,.151-.19,1.165,1.165,0,0,0,.064-.118h1.766V6.231a3.679,3.679,0,0,1,.991-.356V4.21a.5.5,0,0,0-.5-.5H10.122a.939.939,0,0,0-.059-.1,1.083,1.083,0,0,0-.134-.165L9.921,3.44A1.1,1.1,0,0,0,9.559,3.2a1.13,1.13,0,0,0-.425-.084,1.1,1.1,0,0,0-.417.081l-.008,0a1.134,1.134,0,0,0-.361.241,1.1,1.1,0,0,0-.241.361,1.13,1.13,0,0,0-.084.425,1.153,1.153,0,0,0,.084.425,1.1,1.1,0,0,0,.241.361,1.225,1.225,0,0,0,.367.241Zm5.671-3.146V5.932a3.076,3.076,0,0,1,.955.465l.034.025c0-.008,0-.017,0-.025V2.108c.036-.02.073-.039.109-.062a1.038,1.038,0,0,0,.182-.146,1.111,1.111,0,0,0,.325-.787A1.107,1.107,0,0,0,15.911.7l0-.008a1.134,1.134,0,0,0-.241-.361,1.1,1.1,0,0,0-.361-.241A1.13,1.13,0,0,0,14.881,0a1.152,1.152,0,0,0-.425.084,1.106,1.106,0,0,0-.6.6,1.13,1.13,0,0,0-.084.425,1.107,1.107,0,0,0,.081.417l0,.008a1.134,1.134,0,0,0,.241.361,1.093,1.093,0,0,0,.176.143l.006,0c.036.022.07.042.109.062Zm2.707-.941V6.76a3.389,3.389,0,0,1,.423-.364,2.967,2.967,0,0,1,.568-.325V1.66h3.233c.017.028.034.056.053.084A1.137,1.137,0,0,0,21.5,1.9a1.1,1.1,0,0,0,.361.241,1.13,1.13,0,0,0,.425.084,1.141,1.141,0,0,0,.425-.084,1.106,1.106,0,0,0,.6-.6,1.13,1.13,0,0,0,.084-.425,1.152,1.152,0,0,0-.084-.425,1.1,1.1,0,0,0-.241-.361A1.191,1.191,0,0,0,22.7.084,1.127,1.127,0,0,0,22.282,0a1.107,1.107,0,0,0-.417.081l-.008,0A1.134,1.134,0,0,0,21.5.325a1.125,1.125,0,0,0-.235.344H17.588a.493.493,0,0,0-.35.146.5.5,0,0,0-.146.353ZM19.483,5.05v.767a2.816,2.816,0,0,1,.305.031,3.375,3.375,0,0,1,.686.174V5.548h1.461A.891.891,0,0,0,22,5.66a1.057,1.057,0,0,0,.151.188h0a1.1,1.1,0,0,0,.361.241,1.127,1.127,0,0,0,.423.084,1.111,1.111,0,0,0,.778-.316l.008-.008a1.1,1.1,0,0,0,.241-.361,1.12,1.12,0,0,0,0-.851,1.112,1.112,0,0,0-.235-.353l-.006-.008a1.09,1.09,0,0,0-.353-.238l-.008,0a1.12,1.12,0,0,0-.851,0,1.153,1.153,0,0,0-.353.232l-.008.008A1.16,1.16,0,0,0,22,4.454a.757.757,0,0,0-.059.1H19.978a.493.493,0,0,0-.35.146.481.481,0,0,0-.146.347ZM5.254,9.853a1.12,1.12,0,0,1,0,.851,1.07,1.07,0,0,1-.235.35l-.006.008a1,1,0,0,1-.19.151,1.165,1.165,0,0,1-.118.064v1.766H6.539v.087c0,.067,0,.137.006.21a.182.182,0,0,1-.076.162,6.387,6.387,0,0,0-.652.532h-1.6a.5.5,0,0,1-.5-.5V11.261a.939.939,0,0,1-.1-.059,1.083,1.083,0,0,1-.165-.134l-.008-.008a1.1,1.1,0,0,1-.241-.361,1.13,1.13,0,0,1-.084-.425A1.107,1.107,0,0,1,3.2,9.856l0-.008a1.134,1.134,0,0,1,.241-.361,1.1,1.1,0,0,1,.361-.241,1.13,1.13,0,0,1,.425-.084,1.153,1.153,0,0,1,.425.084,1.1,1.1,0,0,1,.361.241,1.284,1.284,0,0,1,.235.367ZM2.108,15.522H4.739c-.045.1-.084.2-.12.305a3.742,3.742,0,0,0-.168.683H2.108c-.02.036-.039.073-.062.109A1.038,1.038,0,0,1,1.9,16.8a1.089,1.089,0,0,1-.361.241,1.13,1.13,0,0,1-.425.084A1.107,1.107,0,0,1,.7,17.045l-.008,0A1.134,1.134,0,0,1,.328,16.8a1.1,1.1,0,0,1-.241-.361A1.13,1.13,0,0,1,0,16.015a1.152,1.152,0,0,1,.084-.425,1.106,1.106,0,0,1,.6-.6,1.13,1.13,0,0,1,.425-.084,1.107,1.107,0,0,1,.417.081l.008,0a1.134,1.134,0,0,1,.361.241,1.093,1.093,0,0,1,.143.176l.006.008.059.109Zm-.941,2.71H4.591a4.184,4.184,0,0,0,.456.977v0l.006.011H1.66v3.233c.028.017.056.034.084.053a1.137,1.137,0,0,1,.154.129A1.1,1.1,0,0,1,2.139,23a1.13,1.13,0,0,1,.084.425,1.141,1.141,0,0,1-.084.425,1.134,1.134,0,0,1-.241.361,1.1,1.1,0,0,1-.361.241,1.13,1.13,0,0,1-.425.084,1.152,1.152,0,0,1-.425-.084,1.1,1.1,0,0,1-.361-.241,1.261,1.261,0,0,1-.241-.367A1.13,1.13,0,0,1,0,23.419,1.107,1.107,0,0,1,.081,23l0-.008a1.134,1.134,0,0,1,.241-.361A1.125,1.125,0,0,1,.669,22.4V18.724a.493.493,0,0,1,.146-.35.514.514,0,0,1,.353-.143ZM5.05,20.622h.924a4.091,4.091,0,0,0-.053.546,3.912,3.912,0,0,0,.008.445H5.545v1.461a.891.891,0,0,1,.112.064,1.058,1.058,0,0,1,.188.151h0a1.1,1.1,0,0,1,.241.361,1.12,1.12,0,0,1,0,.851,1.153,1.153,0,0,1-.232.353l-.008.008a1.1,1.1,0,0,1-.361.241,1.12,1.12,0,0,1-.851,0,1.112,1.112,0,0,1-.353-.235l-.008-.006a1.09,1.09,0,0,1-.238-.353l0-.008a1.12,1.12,0,0,1,0-.851,1.153,1.153,0,0,1,.232-.353l.008-.008a1.16,1.16,0,0,1,.179-.146.757.757,0,0,1,.1-.059V21.12a.493.493,0,0,1,.146-.35.473.473,0,0,1,.35-.148ZM18.484,32.29V28.373a2.889,2.889,0,0,1-.983-.535l-.006-.006v4.459c-.036.02-.073.039-.109.062a1.038,1.038,0,0,0-.182.146,1.111,1.111,0,0,0-.325.787,1.107,1.107,0,0,0,.081.417l0,.008a1.134,1.134,0,0,0,.241.361,1.1,1.1,0,0,0,.361.241,1.13,1.13,0,0,0,.425.084,1.152,1.152,0,0,0,.425-.084,1.106,1.106,0,0,0,.6-.6,1.13,1.13,0,0,0,.084-.425,1.107,1.107,0,0,0-.081-.417l0-.008a1.134,1.134,0,0,0-.241-.361,1.093,1.093,0,0,0-.176-.143l-.008-.006c-.036-.022-.073-.042-.109-.062Zm-2.71.941V27.587a3.336,3.336,0,0,1-.37.325,3.068,3.068,0,0,1-.621.367V32.74H11.55c-.017-.028-.034-.056-.053-.084a1.138,1.138,0,0,0-.129-.154,1.1,1.1,0,0,0-.361-.241,1.114,1.114,0,0,0-1.212.241,1.1,1.1,0,0,0-.241.361,1.13,1.13,0,0,0-.084.425,1.152,1.152,0,0,0,.084.425,1.106,1.106,0,0,0,.6.6,1.13,1.13,0,0,0,.425.084A1.107,1.107,0,0,0,11,34.319l.008,0a1.134,1.134,0,0,0,.361-.241,1.125,1.125,0,0,0,.235-.344h3.673a.493.493,0,0,0,.35-.146.507.507,0,0,0,.148-.356Zm-2.391-3.883v-.815a3.4,3.4,0,0,1-.649-.1c-.115-.028-.23-.064-.342-.1v.523H10.931a.891.891,0,0,0-.064-.112,1.058,1.058,0,0,0-.151-.188h0a1.1,1.1,0,0,0-.361-.241,1.127,1.127,0,0,0-.423-.084,1.111,1.111,0,0,0-.778.316l-.008.006a1.1,1.1,0,0,0-.241.361,1.12,1.12,0,0,0,0,.851,1.112,1.112,0,0,0,.235.353l.006.008a1.09,1.09,0,0,0,.353.238l.008,0a1.13,1.13,0,0,0,.425.084,1.111,1.111,0,0,0,.778-.316l.008-.008a1.16,1.16,0,0,0,.146-.179.757.757,0,0,0,.059-.1h1.965a.5.5,0,0,0,.5-.5Z" fill="#9638fb"/>
      </g>
      <path id="cloud-server" d="M20.172,27.129V12.34a.472.472,0,0,0-.13-.246.462.462,0,0,0-.327-.135H10.934a.464.464,0,0,0-.464.464V27.042a.47.47,0,0,0,.464.467H14.6v.753a2.5,2.5,0,0,0-1.709,1.687H9.26v1.371h3.612a2.505,2.505,0,0,0,4.835,0h6.414v-1.38H17.691a2.513,2.513,0,0,0-.629-1.05,2.481,2.481,0,0,0-1.08-.637V27.5h3.723a.454.454,0,0,0,.327-.138.464.464,0,0,0,.13-.246Zm1.35-19.659c-.189.092-.375.194-.562.3a13.15,13.15,0,0,0-1.682,1.193L18.085,7.583a10.01,10.01,0,0,1,1.35-1.05,9.878,9.878,0,0,1,1.191-.661c.165-.081.329-.159.5-.229A7.335,7.335,0,0,0,17.885,2.6a7.9,7.9,0,0,0-4.166-.726A7.538,7.538,0,0,0,9.824,3.4,7.319,7.319,0,0,0,7.149,7.918l-.119.626-.624.1a8.758,8.758,0,0,0-1.636.44,5.437,5.437,0,0,0-1.236.664,4.05,4.05,0,0,0-.753.7,4.257,4.257,0,0,0-.953,2.789,5.005,5.005,0,0,0,.948,2.875,4.509,4.509,0,0,0,.788.848,3.863,3.863,0,0,0,1.023.61,4.973,4.973,0,0,0,1.018.294v1.852a7.152,7.152,0,0,1-1.714-.454,5.74,5.74,0,0,1-1.5-.9,6.479,6.479,0,0,1-1.1-1.177A6.865,6.865,0,0,1,0,13.233,6.05,6.05,0,0,1,1.374,9.278a5.939,5.939,0,0,1,1.08-1.007,7.346,7.346,0,0,1,1.655-.886A10.059,10.059,0,0,1,5.48,6.967,9.03,9.03,0,0,1,8.706,1.943,9.346,9.346,0,0,1,13.547.053a9.719,9.719,0,0,1,5.129.9,9.206,9.206,0,0,1,4.268,4.206h0a7.4,7.4,0,0,1,1.193-.092A6.131,6.131,0,0,1,28.7,7.048a7.23,7.23,0,0,1,.753.972,8.213,8.213,0,0,1,1.191,4.468,7.375,7.375,0,0,1-1.309,4.3,6.86,6.86,0,0,1-2.16,1.849,11.166,11.166,0,0,1-2.913,1.08l-.205.024h-.81V17.9h.721a9.074,9.074,0,0,0,2.319-.867,5.059,5.059,0,0,0,1.593-1.35,5.52,5.52,0,0,0,.945-3.21,6.371,6.371,0,0,0-.9-3.458,5.435,5.435,0,0,0-.559-.721,4.341,4.341,0,0,0-3.24-1.4,6.387,6.387,0,0,0-2.594.575ZM16.074,29.877a1.123,1.123,0,1,0,0,1.589,1.123,1.123,0,0,0,0-1.589Zm.5-6.223a1.388,1.388,0,1,1-.405-.983,1.39,1.39,0,0,1,.405.983Zm1.871-9.3v1.166H12.2V14.356Zm0,3.24v1.166H12.2V17.585Z" transform="translate(-60.889 1325.229)" fill="#9638fb" fill-rule="evenodd"/>
    </g>
  </g>
</svg>
