<svg xmlns="http://www.w3.org/2000/svg" width="14.067" height="15.692" viewBox="0 0 14.067 15.692">
  <g id="Group_18658" data-name="Group 18658" transform="translate(-657.972 -662.8)">
    <path id="Path_146702" data-name="Path 146702" d="M668.225,662.8c.069.015.137.032.207.046a2.443,2.443,0,0,1,1.98,2.442c.013,1.226,0,2.451,0,3.677a.614.614,0,0,1-.425.638.569.569,0,0,1-.673-.227,1.02,1.02,0,0,1-.121-.477c-.01-1.18-.008-2.359,0-3.539a1.273,1.273,0,0,0-.481-1.075,1.212,1.212,0,0,0-.769-.259q-3.746,0-7.492,0a1.211,1.211,0,0,0-1.24,1.181c0,.056-.005.112-.005.168q0,5.271,0,10.541a1.22,1.22,0,0,0,.693,1.211,1.522,1.522,0,0,0,.6.13c.653.016,1.307,0,1.961.007a.61.61,0,0,1,.415,1.071,1.9,1.9,0,0,1-.258.153h-2.452a1.3,1.3,0,0,0-.131-.032,2.424,2.424,0,0,1-2.011-2,10.083,10.083,0,0,1-.045-1.3c0-3.272.007-6.543-.006-9.815a2.489,2.489,0,0,1,1.986-2.5c.069-.013.138-.031.206-.046Z" transform="translate(0 0)" fill="#fff" fill-rule="evenodd"/>
    <path id="Path_146703" data-name="Path 146703" d="M832.126,887.674a.316.316,0,0,0-.049-.031.608.608,0,0,1-.395-.774q.352-1.2.726-2.384a.828.828,0,0,1,.205-.316q1.643-1.65,3.3-3.291a1.836,1.836,0,0,1,2.719,2.465c-.078.094-.167.18-.253.266q-1.555,1.553-3.111,3.107a1.078,1.078,0,0,1-.495.287c-.8.219-1.6.446-2.4.67Zm3.639-4.97a.664.664,0,0,1-.084.128c-.62.622-1.238,1.247-1.868,1.859a1.31,1.31,0,0,0-.393.652c-.065.271-.157.534-.245.828.385-.107.742-.2,1.1-.307a.608.608,0,0,0,.244-.139c.546-.537,1.086-1.081,1.629-1.622.173-.173.348-.344.511-.506Zm.933-.876.86.858a.631.631,0,0,0,.262-.671.575.575,0,0,0-.466-.454A.635.635,0,0,0,836.7,881.828Z" transform="translate(-167.027 -209.183)" fill="#fff" fill-rule="evenodd"/>
    <path id="Path_146704" data-name="Path 146704" d="M725.857,758.789c1.042,0,2.083,0,3.125,0a.608.608,0,0,1,.6.827.587.587,0,0,1-.534.394c-.107.009-.214,0-.322,0h-5.959a.615.615,0,0,1-.676-.641.608.608,0,0,1,.642-.583c.837,0,1.675,0,2.512,0Z" transform="translate(-61.661 -92.311)" fill="#fff" fill-rule="evenodd"/>
    <path id="Path_146705" data-name="Path 146705" d="M725.888,824.037c-1.042,0-2.083,0-3.125,0a.612.612,0,0,1-.1-1.22.9.9,0,0,1,.107,0q3.117,0,6.235,0a.613.613,0,1,1,.011,1.224c-.725,0-1.45,0-2.175,0Z" transform="translate(-61.693 -153.881)" fill="#fff" fill-rule="evenodd"/>
    <path id="Path_146706" data-name="Path 146706" d="M724.61,886.8c.633,0,1.265,0,1.9,0a.606.606,0,0,1,.59.427.582.582,0,0,1-.216.666.756.756,0,0,1-.382.126c-1.265.009-2.53.007-3.8,0a.612.612,0,1,1,.008-1.224C723.344,886.8,723.977,886.8,724.61,886.8Z" transform="translate(-61.644 -215.42)" fill="#fff" fill-rule="evenodd"/>
  </g>
</svg>